<svg width="595" height="678" viewBox="0 0 595 678" fill="none" xmlns="http://www.w3.org/2000/svg">
<g clip-path="url(#clip0_5016_6199)">
<path d="M70.34 485.612C52.0192 439.483 29.6812 375.977 43.0529 329.481C46.728 313.913 51.0869 296.509 53.8299 281.847C56.5607 265.847 59.8492 244.246 62.824 228.497C71.1757 187.011 87.5194 146.651 113.134 114.665C143.697 74.326 184.097 59.4767 229.272 44.5184C257.3 33.6034 276.241 30.0652 306.457 33.6769C334.885 36.7443 362.173 45.2604 388.298 56.6609C433.739 76.163 478.757 104.78 496.872 153.246C538.699 252.112 581.17 327.593 525.894 430.591C521.345 440.909 514.457 457.075 510.491 466.068C508.415 470.833 508.116 471.251 505.596 474.337C494.043 488.695 478.635 507.478 469.049 522.592C464.331 529.927 462.155 538.159 457.307 545.677C450.572 555.793 443.781 566.912 436.137 576.308C418.672 597.682 394.886 612.646 370.604 625.356C341.983 641.137 310.924 645.451 278.793 640.181C256.855 636.911 231.765 635.847 210.68 631.081C196.01 627.101 182.397 619.108 168.239 613.103C156.123 607.947 144.36 601.449 135.901 591.007C109.882 558.8 86.9221 524.007 70.4139 485.786L70.34 485.612ZM203.477 533.737C220.563 550.598 262.17 556.317 285.934 557.182C333.126 557.26 380.272 527.205 404.653 488.394C414.953 473.119 426.994 457.269 435.427 440.415C440.406 430.387 441.475 423.277 444.545 414.315C448.238 403.397 451.615 392.297 453.182 380.73C455.312 362.114 457.657 349.982 458.419 328.61C458.696 312.315 457.709 296.013 455.263 279.846C447.655 235.049 430.176 182.35 404.129 162.924C397.089 158.132 390.291 157.396 382.999 154.456C360.728 145.97 335.664 136.832 311.478 133.562C294.951 131.609 280.317 134.408 264.378 137.143C251.08 139.889 237.902 142.319 225.828 148.538C203.842 160.039 190.587 183.16 176.682 203.971C153.703 236.058 128.938 290.308 122.717 338.132C120.998 349.888 120.05 363.243 120.01 374.109C120.108 381.463 119.999 386.852 121.821 393.992C128.874 419.155 139.634 443.666 155.137 464.995C169.897 485.763 188.988 514.004 203.415 533.677L203.475 533.747L203.477 533.737Z" fill="black"/>
<path d="M219.726 432.209C219.166 428.637 219.54 424.513 219.396 421.02C219.124 417.09 219.523 412.943 219.923 409.079C220.04 406.515 221.405 404.066 221.718 401.654C221.841 398.849 221.848 395.73 222.312 392.077C224.581 378.5 233.236 365.524 240.93 355.369C245.598 349.204 251.617 344.933 257.549 341.293C267.542 333.935 278.984 329.401 290.424 326.898C298.421 324.955 307.876 326.47 316.608 327.616C324.419 328.885 334.111 330.64 340.442 335.227C345.891 338.358 350.066 343.01 354.467 348.047C358.766 352.328 361.51 357.198 364.352 362.77C366.688 367.361 367.924 373.837 369.743 379.06C372.683 386.947 374.212 395.338 374.709 403.783C375.333 409.745 375.072 416.228 374.632 422.17C374.457 427.967 373.493 432.065 371.526 438.266C369.944 443.706 367.78 449.553 365.064 454.855C358.966 466.969 353.137 476.879 344.628 484.524C333.864 493.698 320.63 500.183 308.386 504.927C298.034 509.108 284.37 508.33 273.819 506.293C266.562 504.518 258.603 502.862 252.046 498.521C247.926 495.896 243.769 493.022 240.455 489.326C237.511 486.011 234.602 483.94 232.714 479.648C229.241 471.233 227.091 462.595 223.859 453.909C221.938 447.097 220.988 439.429 219.785 432.393L219.762 432.188L219.726 432.209Z" fill="black"/>
</g>
<defs>
<clipPath id="clip0_5016_6199">
<rect width="506.49" height="605.69" fill="white" transform="translate(94.1709) rotate(8.94444)"/>
</clipPath>
</defs>
</svg>
