<svg width="542" height="410" viewBox="0 0 542 410" fill="none" xmlns="http://www.w3.org/2000/svg">
<mask id="path-1-inside-1_4698_6023" fill="white">
<path d="M541.998 102.805C541.79 101.556 541.555 100.419 540.959 99.2534C540.391 97.9355 539.836 96.7285 538.922 95.6464C537.924 94.2314 536.025 92.9828 534.487 92.0117C532.754 90.9712 530.884 89.792 529.096 89.3758C526.809 88.7932 524.398 88.488 522.055 88.6822C519.935 88.155 519.894 88.0302 519.561 84.5342C519.395 82.8278 518.549 81.3434 517.607 79.9145C517.413 79.6231 517.371 79.2347 517.745 79.0543C518.12 78.874 518.355 78.5272 518.632 78.2081C521.266 75.1005 522.582 72.2011 522 68.2056C521.598 65.4172 520.656 63.1143 519.27 60.6449C517.801 58.0229 516.47 55.5257 514.655 53.0008C513.241 51.0586 509.68 49.5048 507.254 49.8101C506.492 49.9072 505.757 50.0459 505.037 50.2262C503 50.7257 500.865 49.9488 499.535 48.3395C497.927 46.4112 496.237 44.5244 494.463 42.6932C493.437 41.6389 493.479 40.0018 494.573 39.0307L494.795 38.8365C498.135 35.8677 500.117 31.5254 502.57 27.8352C504.51 24.9219 506.45 22.0641 506.534 18.6374C506.644 14.0455 504.399 10.4801 500.048 8.60725C497.761 7.62226 494.837 8.3714 492.37 8.23267C487.686 7.98296 483.625 8.51013 479.315 10.6743C478.22 11.2292 476.252 11.6871 475.088 12.3807C472.039 14.2258 467.632 17.4027 463.835 20.871L461.714 19.7611C461.797 19.0397 461.839 18.3183 461.811 17.5692C461.797 16.4732 461.978 15.2108 461.811 14.1842C461.603 12.9356 461.368 11.798 460.772 10.6327C460.204 9.31477 459.649 8.10782 458.735 7.02572C457.737 5.61068 455.838 4.36211 454.3 3.391C452.567 2.35052 450.696 1.17132 448.909 0.755129C446.359 0.103098 443.67 -0.202108 441.092 0.144717C439.609 0.214082 438.071 0.394431 436.671 1.03259C434.385 2.08694 431.696 3.5436 430.296 5.72166C429.95 6.3182 429.728 6.87312 429.52 7.35868C429.285 7.76099 428.841 8.05233 428.633 8.49626C428.287 9.13442 427.926 9.82807 427.705 10.5495C427.497 11.1876 427.136 11.8674 427.012 12.5472V12.5749C426.762 13.9345 426.444 15.3773 426.374 16.7646C426.402 17.5831 426.402 18.3738 426.388 19.1646C424.614 16.0293 422.48 13.9761 418.891 13.0882C416.16 12.3946 413.68 12.3946 410.88 12.7414C407.9 13.1021 405.087 13.3934 402.066 14.1148C399.738 14.6836 396.938 17.4027 396.301 19.7473C395.441 22.9381 395.386 26.1288 395.982 29.2225C395.926 29.0838 395.871 28.9451 395.802 28.8063C395.234 27.4884 394.679 26.2814 393.764 25.1994C392.767 23.7843 390.868 22.5357 389.33 21.5646C387.597 20.5242 385.726 19.3449 383.939 18.9288C381.389 18.2767 378.7 17.9715 376.122 18.3183C374.639 18.3877 373.101 18.5681 371.701 19.2062C369.415 20.2606 366.726 21.7172 365.326 23.8953C364.98 24.4918 364.758 25.0467 364.55 25.5323C364.315 25.9346 363.871 26.226 363.663 26.6699C363.317 27.308 362.956 28.0017 362.735 28.7231C362.527 29.3612 362.166 30.041 362.042 30.7208V30.7486C361.792 32.1081 361.473 33.5509 361.404 34.9382C361.473 36.7833 361.335 38.5036 361.487 40.3348C361.584 41.2782 362.042 41.9163 362.43 42.7903C362.859 43.7614 363.538 44.6632 364.204 45.5233L364.425 45.8146C365.908 47.7291 365.382 50.5176 363.317 51.7661C358.147 54.8737 353.02 57.8703 347.933 60.5894C346.52 61.3385 345.092 62.0877 343.665 62.809C342.736 63.2807 341.6 62.9894 341.018 62.1293L340.865 61.9073C339.48 59.868 337.567 59.2298 334.989 59.7431C327.076 61.2969 318.802 61.4079 315.462 69.2184C314.977 70.3282 314.589 71.4242 314.326 72.5063C313.55 75.6832 311.277 78.2913 308.38 79.7896L308.269 79.8451C307.105 80.4416 305.761 80.4416 304.638 79.8451C303.765 79.3873 302.878 79.0127 302.019 78.8046C299.469 78.1526 296.781 77.8474 294.203 78.1942C292.72 78.2636 291.182 78.4439 289.782 79.0821C287.495 80.1364 284.807 81.5931 283.407 83.7711C283.06 84.3677 282.839 84.9226 282.631 85.4082C282.395 85.8105 281.952 86.1018 281.744 86.5457C281.397 87.1839 281.037 87.8776 280.815 88.599C280.607 89.2371 280.247 89.9169 280.122 90.5967L280.095 90.6522C279.693 91.6233 279.485 92.6499 279.485 93.7042V94.8695C279.526 96.1736 279.485 97.4083 279.485 98.6707C279.485 98.865 279.415 99.0314 279.263 99.1563C278.972 99.4199 278.667 99.6696 278.376 99.9332C277.018 101.112 275.064 101.223 273.567 100.238C273.276 100.044 272.985 99.8638 272.708 99.6835C270.975 98.643 269.104 97.4638 267.317 97.0476C264.767 96.3956 262.078 96.0904 259.5 96.4372C258.017 96.5066 256.479 96.6869 255.079 97.3251C252.793 98.3794 250.104 99.8361 248.704 102.014C248.358 102.611 248.136 103.166 247.928 103.651C247.693 104.053 247.249 104.345 247.041 104.789C246.695 105.427 246.334 106.121 246.113 106.842C245.905 107.48 245.545 108.16 245.42 108.84V108.867C245.17 110.227 244.852 111.67 244.782 113.057C244.852 114.902 244.713 116.622 244.865 118.454C244.962 119.397 245.364 120.077 245.808 120.909C246.362 121.922 246.93 122.102 246.972 123.184C247 124.044 246.709 124.475 245.78 124.918C239.696 127.971 234.956 129.441 228.9 132.146C227.722 132.673 226.336 132.16 225.796 131.009V130.967C225.435 130.246 225.685 129.386 226.364 128.983C227.14 128.512 227.916 127.984 228.72 127.388C229.648 126.708 230.494 125.89 231.201 125.085C232.032 124.183 232.517 123.545 232.947 122.546C233.446 121.533 233.945 120.424 234.222 119.3C234.693 117.76 234.956 116.137 234.887 114.458C234.873 113.362 235.053 112.1 234.887 111.073C234.679 109.825 234.444 108.687 233.848 107.522C233.279 106.204 232.725 104.997 231.81 103.915C230.813 102.5 228.914 101.251 227.376 100.28C225.643 99.2395 223.772 98.0603 221.985 97.6441C219.435 96.9921 216.746 96.6869 214.168 97.0337C213.655 97.0615 213.129 97.1031 212.616 97.1586C212.297 97.2002 212.006 97.006 211.923 96.7008V96.6591C211.369 94.6476 212.006 92.4834 213.614 91.1377C214.681 90.2498 215.72 89.2787 216.732 88.2521C220.058 84.881 219.753 77.015 216.69 72.534C215.305 70.4947 213.392 69.8565 210.814 70.3698C209.442 70.6473 208.07 70.8693 206.698 71.1051C204.287 71.5074 201.848 70.4669 200.503 68.4276C199.866 67.4426 199.45 66.6657 198.771 65.6808C198.66 65.5143 198.535 65.0704 198.993 64.5016C199.589 63.9328 199.381 64.0021 199.852 63.4611C200.684 62.5593 201.169 61.9212 201.598 60.9223C202.097 59.9096 202.596 58.7998 202.873 57.676C203.344 56.1361 203.608 54.513 203.538 52.8344C203.525 51.7384 203.705 50.476 203.538 49.4493C203.331 48.2008 203.095 47.0632 202.499 45.8979C201.931 44.5799 201.377 43.373 200.462 42.2909C199.464 40.8758 197.565 39.6273 196.027 38.6562C194.295 37.6157 192.424 36.4365 190.636 36.0203C188.086 35.3683 185.397 35.0631 182.82 35.4099C181.545 35.4654 180.214 35.618 178.981 36.0619C178.731 36.159 178.468 35.9648 178.509 35.6873C178.593 35.0076 178.62 34.3278 178.593 33.6341C178.579 32.5382 178.759 31.2757 178.593 30.2491C178.385 29.0006 178.149 27.863 177.553 26.6976C176.985 25.3797 176.431 24.1727 175.516 23.0907C174.518 21.6756 172.619 20.427 171.081 19.4559C169.349 18.4155 167.478 17.2362 165.69 16.8201C163.14 16.168 160.451 15.8628 157.874 16.2096C156.391 16.279 154.852 16.4594 153.453 17.0975C151.485 17.9993 149.226 19.2062 147.743 20.9126C147.743 20.871 147.743 20.8294 147.743 20.7877C147.729 19.6918 147.909 18.4293 147.743 17.4027C147.535 16.1542 147.299 15.0166 146.703 13.8512C146.135 12.5333 145.581 11.3264 144.666 10.2443C143.668 8.82921 141.77 7.58064 140.231 6.60953C138.499 5.56906 136.628 4.38985 134.84 3.97366C132.29 3.32163 129.602 3.01643 127.024 3.36325C125.541 3.43262 124.003 3.61297 122.603 4.25112C120.316 5.30547 117.628 6.76214 116.228 8.9402C115.881 9.53674 115.66 10.0917 115.452 10.5772C115.216 10.9795 114.773 11.2709 114.565 11.7148C114.218 12.353 113.858 13.0466 113.636 13.768C113.428 14.4062 113.068 15.0859 112.943 15.7657V15.7935C112.694 17.153 112.375 18.5958 112.306 19.9831C112.334 20.6629 112.334 21.3149 112.32 21.9669C112.195 21.9531 112.084 21.9392 111.959 21.9253C112.167 20.8571 112.278 19.7611 112.237 18.6374C112.223 17.5415 112.403 16.279 112.237 15.2524C112.029 14.0038 111.793 12.8663 111.197 11.7009C110.629 10.383 110.075 9.17604 109.16 8.09394C108.162 6.6789 106.263 5.43033 104.725 4.45922C102.993 3.41874 101.122 2.23954 99.3341 1.82335C96.784 1.17132 94.0954 0.866113 91.5177 1.21294C90.0348 1.2823 88.4965 1.46265 87.0967 2.10081C84.81 3.15516 82.1214 4.61182 80.7217 6.78988C80.3752 7.38642 80.1535 7.94134 79.9456 8.4269C79.7238 8.81534 79.2942 9.10667 79.0863 9.52286C77.451 8.53788 75.7048 7.48353 74.0279 7.08122C71.4779 6.42919 68.7893 6.12398 66.2115 6.4708C64.7286 6.54017 63.1903 6.72052 61.7906 7.35868C59.5039 8.41302 56.8152 9.86969 55.4155 12.0477C55.069 12.6443 54.8473 13.1992 54.6394 13.6848C54.4038 14.0871 53.9603 14.3784 53.7524 14.8223C53.406 15.4605 53.0457 16.1542 52.8239 16.8756C52.616 17.5137 52.2557 18.1935 52.131 18.8733V18.901C52.0062 19.553 51.8676 20.2328 51.7568 20.9126C50.3293 20.0663 48.8603 19.2478 47.419 18.901C44.869 18.249 42.1804 17.9438 39.6026 18.2906C38.1197 18.36 36.5814 18.5403 35.1817 19.1785C32.8949 20.2328 30.2063 21.6895 28.8066 23.8675C28.4601 24.4641 28.2384 25.019 28.0305 25.5046C27.7949 25.9069 27.3514 26.1982 27.1435 26.6421C26.7971 27.2803 26.4367 27.9739 26.215 28.6953C26.0071 29.3335 25.6468 30.0133 25.5221 30.6931V30.7208C25.2726 32.0804 24.9538 33.5232 24.8845 34.9104C24.9538 36.7556 24.8152 38.4758 24.9677 40.307C25.0647 41.2504 25.5221 41.8886 25.9101 42.7626C26.3397 43.7337 27.0188 44.6354 27.684 45.4955C28.2245 46.2031 28.8898 46.8274 29.5966 47.3961C28.2107 46.5776 26.7694 45.7869 25.3696 45.4539C22.8196 44.8019 20.131 44.4967 17.5532 44.8435C16.0704 44.9129 14.532 45.0932 13.1323 45.7314C10.8456 46.7857 8.15696 48.2424 6.75722 50.4205C6.41075 51.017 6.18901 51.5719 5.98113 52.0575C5.74553 52.4598 5.30205 52.7511 5.09417 53.1951C4.7477 53.8332 4.38737 54.5269 4.16563 55.2483C3.95775 55.8864 3.59742 56.5662 3.47269 57.246V57.2737C3.22323 58.6333 2.90447 60.0761 2.83517 61.4634C2.90447 63.3085 2.7659 65.0287 2.91835 66.86C3.01536 67.8033 3.47269 68.4415 3.86073 69.3155C4.29036 70.2866 4.96944 71.1883 5.63466 72.0485C6.70179 73.4358 8.24012 74.504 9.626 75.5167C10.7486 76.2659 12.0929 77.0289 13.4649 77.6254C11.4692 77.0566 9.37654 76.8485 7.51946 77.126C5.08031 77.4867 3.68058 78.9295 3.00149 81.4682C0.936532 89.2649 -2.56975 96.7701 3.00149 103.193C5.39907 105.968 7.93523 107.91 11.5801 108.507L14.5182 108.978C15.3497 109.117 16.1812 109.103 16.985 108.992C17.0405 109.089 17.0959 109.173 17.1513 109.27C16.6801 109.714 16.2644 110.199 15.9318 110.726C15.5853 111.323 15.3635 111.878 15.1557 112.363C14.9201 112.766 14.4766 113.057 14.2687 113.501C13.9222 114.139 13.5619 114.833 13.3402 115.554C13.1323 116.192 12.7719 116.872 12.6472 117.552V117.58C12.3978 118.939 12.079 120.382 12.0097 121.769C12.079 123.614 11.9404 125.335 12.0929 127.166C12.1899 128.109 12.6472 128.747 13.0353 129.621C13.4649 130.593 14.144 131.494 14.8092 132.354C15.8763 133.742 17.4146 134.81 18.8005 135.823C20.8516 137.196 23.6373 138.653 26.0764 138.902C28.9452 139.249 32.1466 139.374 35.0015 138.778C37.205 138.264 39.0344 137.141 41.0439 135.67C40.9331 135.975 40.8222 136.267 40.7668 136.572V136.6C40.5173 137.959 40.1985 139.402 40.1292 140.789C40.1985 142.634 40.0599 144.355 40.2124 146.186C40.3094 147.129 40.7667 147.767 41.1548 148.641C41.5844 149.612 42.2635 150.514 42.9287 151.374C43.9958 152.762 45.5342 153.83 46.9201 154.843C48.9712 156.216 51.7568 157.673 54.1959 157.922C57.0647 158.269 60.2661 158.394 63.121 157.797C65.4077 157.27 67.3064 156.077 69.3991 154.523C69.995 154.079 70.5355 153.58 71.0482 153.067C71.5333 158.699 75.9958 164.262 80.597 169.395L85.2674 174.598C86.1544 175.583 87.665 176.651 88.8568 177.525C88.9122 177.566 88.9815 177.594 89.0508 177.594L97.0751 178.024C101.565 178.26 105.972 176.568 110.296 175.666C113.706 174.958 117.087 174.279 119.457 171.892C120.801 170.547 121.688 169.021 122.132 167.384C122.783 167.481 123.435 167.578 124.086 167.675C124.086 167.883 124.086 168.077 124.114 168.285C124.211 169.229 124.668 169.867 125.056 170.741C125.486 171.712 126.165 172.614 126.83 173.474C127.897 174.861 129.435 175.929 130.821 176.942C132.872 178.316 135.658 179.772 138.097 180.022C140.966 180.369 144.167 180.494 147.022 179.897C149.309 179.37 151.208 178.177 153.3 176.623C154.229 175.943 155.074 175.125 155.781 174.32C156.613 173.418 157.098 172.78 157.527 171.781C158.026 170.769 158.525 169.659 158.802 168.535C158.927 168.119 159.038 167.689 159.135 167.273C160.451 166.981 161.754 166.662 163.001 166.288C163.209 166.565 163.403 166.843 163.625 167.106C164.692 168.494 166.231 169.562 167.616 170.574C169.668 171.948 172.453 173.405 174.892 173.654C177.761 174.001 180.962 174.126 183.817 173.529C186.104 173.002 188.003 171.809 190.095 170.255C191.024 169.576 191.869 168.757 192.576 167.952C193.408 167.051 193.893 166.413 194.322 165.414C194.821 164.401 195.32 163.291 195.597 162.167C196.069 160.628 196.332 159.004 196.263 157.326C196.263 156.812 196.29 156.258 196.318 155.703C198.314 156.979 200.878 158.255 203.15 158.491C206.019 158.838 209.221 158.963 212.075 158.366C214.362 157.839 216.261 156.646 218.354 155.092C218.811 154.759 219.24 154.385 219.656 153.996C219.975 156.563 220.876 158.949 222.816 161.016C222.386 161.044 221.957 161.058 221.541 161.113C220.058 161.182 218.52 161.363 217.12 162.001C214.833 163.055 212.145 164.512 210.745 166.69C210.399 167.287 210.177 167.842 209.969 168.327C209.733 168.729 209.29 169.021 209.082 169.465C208.736 170.103 208.375 170.796 208.153 171.518C207.946 172.156 207.585 172.836 207.461 173.516V173.543C207.211 174.903 206.892 176.346 206.823 177.733C206.892 179.578 206.754 181.298 206.906 183.13C207.003 184.073 207.461 184.711 207.849 185.585C208.043 186.029 208.292 186.445 208.569 186.861C208.417 186.875 208.278 186.861 208.126 186.889C206.643 186.959 205.105 187.139 203.705 187.777C201.418 188.831 198.729 190.288 197.33 192.466C196.983 193.063 196.762 193.618 196.554 194.103C196.318 194.505 195.875 194.797 195.667 195.241C195.32 195.879 194.96 196.573 194.738 197.294C194.53 197.932 194.17 198.612 194.045 199.292V199.319C193.796 200.679 193.477 202.122 193.408 203.509C193.477 205.354 193.338 207.074 193.491 208.906C193.588 209.849 194.045 210.487 194.433 211.361C194.572 211.68 194.752 211.985 194.932 212.291C193.214 211.264 191.384 210.113 189.624 209.696C187.074 209.044 184.386 208.739 181.808 209.086C180.325 209.155 178.787 209.336 177.387 209.974C175.1 211.028 172.412 212.485 171.012 214.663C170.665 215.259 170.444 215.814 170.236 216.3C170 216.702 169.557 216.994 169.349 217.437C169.002 218.076 168.642 218.769 168.42 219.491C168.212 220.129 167.852 220.809 167.727 221.488V221.516C167.478 222.876 167.159 224.318 167.09 225.706C167.159 227.551 167.02 229.271 167.173 231.102C167.173 231.172 167.187 231.241 167.201 231.31C167.395 232.462 166.923 233.613 165.94 234.238C164.401 235.223 162.849 236.194 161.283 237.179C159.939 238.011 158.234 238.011 156.904 237.165H156.89C155.157 236.111 153.286 234.931 151.499 234.515C148.949 233.863 146.26 233.558 143.682 233.905C142.199 233.974 140.661 234.154 139.261 234.793C136.975 235.847 134.286 237.304 132.886 239.482C132.54 240.078 132.318 240.633 132.11 241.119C131.875 241.521 131.431 241.812 131.223 242.256C130.877 242.894 130.516 243.588 130.295 244.309C130.087 244.948 129.726 245.627 129.602 246.307V246.335C129.352 247.694 129.033 249.137 128.964 250.525C129.033 252.37 128.853 253.452 129.006 255.283C129.033 255.602 128.59 256.837 128.036 257.198C126.054 258.446 125.292 259.306 123.338 260.555C123.296 260.582 123.227 260.61 123.185 260.624C121.841 261.04 120.954 261.137 119.526 260.721C119.263 260.555 118.667 260.18 118.418 260.028C116.685 258.987 115.161 258.016 113.359 257.586C110.809 256.934 108.121 256.629 105.543 256.976C104.06 257.045 102.522 257.225 101.122 257.863C98.8352 258.918 96.1465 260.374 94.7468 262.552C94.4003 263.149 94.1786 263.704 93.9707 264.189C93.7351 264.592 93.2916 264.883 93.0838 265.327C92.7373 265.965 92.377 266.659 92.1552 267.38C91.9473 268.018 91.587 268.698 91.4623 269.378V269.406C91.2128 270.765 90.8941 272.208 90.8248 273.595C90.8941 275.44 90.7555 277.161 90.9079 278.992C90.9911 279.838 91.1435 282.03 90.7416 284.194L90.0348 285.401C87.4571 287.718 85.8633 289.314 83.5489 291.714C81.9967 293.323 78.532 298.373 77.3679 300.731C75.885 303.7 71.6303 312.689 68.2904 319.973C67.5974 321.485 65.9759 322.29 64.3406 322.026C62.927 321.79 61.5134 321.749 60.2107 321.943C57.7715 322.303 56.3718 323.746 55.6927 326.285C53.6277 334.082 50.1214 341.587 55.6927 348.01C56.7875 349.286 57.924 350.382 59.1712 351.256C60.5848 352.241 61.4302 353.865 61.3609 355.585C61.3055 356.875 61.2778 358.179 61.2639 359.511C61.2639 359.774 61.0283 359.983 60.765 359.955C59.1435 359.733 57.5082 359.691 55.9144 359.899C54.4315 359.969 52.8932 360.149 51.4935 360.787C49.2068 361.841 46.5182 363.298 45.1184 365.476C44.7719 366.073 44.5502 366.628 44.3423 367.113C44.1067 367.516 43.6632 367.807 43.4554 368.251C43.1089 368.889 42.7485 369.583 42.5268 370.304C42.3189 370.942 41.9586 371.622 41.8339 372.302V372.329C41.5844 373.689 41.2657 375.132 41.1964 376.519C41.2657 378.364 41.1271 380.085 41.2795 381.916C41.3765 382.859 41.8339 383.497 42.2219 384.371C42.6516 385.342 43.3306 386.244 43.9959 387.104C45.063 388.492 46.6013 389.56 47.9872 390.572C50.0383 391.946 52.8239 393.403 55.2631 393.652C58.1318 393.999 61.3332 394.124 64.1881 393.527L64.2852 393.5C65.5047 393.208 66.7382 393.888 67.1816 395.067C69.0942 400.131 71.6303 404.973 74.1665 409.8C74.2358 409.939 74.4021 410.022 74.5545 409.995C82.6065 408.774 73.0439 401.643 71.8521 399.215C70.9097 397.287 70.1059 395.414 69.4406 393.569C69.011 392.362 69.4129 391.03 70.4385 390.267H70.4523C71.3809 389.574 72.2262 388.755 72.933 387.951C73.7646 387.049 74.2496 386.411 74.6793 385.412C75.1782 384.399 75.6771 383.289 75.9543 382.165C76.4255 380.626 76.6888 379.002 76.6195 377.324C76.6056 376.228 76.7858 374.965 76.6195 373.939C76.4116 372.69 76.176 371.553 75.5801 370.387C75.0119 369.069 74.4575 367.862 73.5428 366.78C72.545 365.365 70.6463 364.117 69.108 363.146C67.8607 362.396 66.5441 361.578 65.2275 361.023C65.1582 360.995 65.1305 360.94 65.1305 360.87C65.1028 359.233 65.089 357.236 65.1721 357.069C65.38 356.611 65.4354 355.668 65.9066 353.92L67.1401 354.031C72.0738 354.822 76.9105 350.812 76.6888 345.457L76.3977 338.105C76.273 334.942 75.4415 331.862 74.3466 328.754C73.7923 327.173 72.5311 325.772 70.8958 324.634C69.4822 323.649 69.0249 321.776 69.7317 320.223C73.8754 311.122 80.8187 298.83 87.4571 291.145C91.6147 287.76 94.3449 288.079 98.7382 288.467C101.274 289.494 103.713 290.604 104.878 290.715C107.746 291.061 110.948 291.186 113.803 290.59C116.089 290.063 117.988 288.87 120.081 287.316C121.009 286.636 121.855 285.818 122.561 285.013C123.393 284.111 123.878 283.473 124.308 282.474C124.807 281.461 125.305 280.352 125.583 279.228C126.054 277.688 126.317 276.065 126.248 274.386C126.234 273.29 126.414 272.028 126.248 271.001C126.04 269.753 125.804 268.615 125.208 267.45C124.779 266.437 124.71 265.882 124.114 265.008C124.044 264.911 123.726 264.398 123.67 264.3C123.185 263.357 123.629 262.872 124.322 262.552C124.419 262.511 124.446 262.386 124.529 262.331C125.583 261.637 126.608 260.971 127.578 260.361C128.95 259.5 130.738 259.806 131.736 261.082V261.11C132.817 262.497 134.355 263.565 135.741 264.578C137.792 265.951 140.578 267.408 143.017 267.658C145.886 268.005 149.087 268.129 151.942 267.533C154.229 267.006 156.127 265.813 158.22 264.259C159.149 263.579 159.994 262.761 160.701 261.956C161.532 261.054 162.017 260.416 162.447 259.417C162.946 258.404 163.445 257.295 163.722 256.171C164.193 254.631 164.457 253.008 164.387 251.329C164.373 250.233 164.554 248.971 164.387 247.944C164.179 246.696 163.944 245.558 163.348 244.393V244.351C162.503 242.423 163.237 240.161 165.053 239.107C165.87 238.635 166.688 238.15 167.506 237.664C169.279 237.068 170.153 237.137 171.594 238.011C172.342 238.635 173.132 239.204 173.894 239.745C175.946 241.119 178.731 242.575 181.17 242.825C184.039 243.172 187.241 243.297 190.095 242.7C192.382 242.173 194.281 240.98 196.373 239.426C197.302 238.746 198.147 237.928 198.854 237.123C199.686 236.222 200.171 235.583 200.6 234.585C201.099 233.572 201.598 232.462 201.875 231.338C202.347 229.798 202.61 228.175 202.541 226.497C202.527 225.401 202.707 224.138 202.541 223.112C202.333 221.863 202.097 220.725 201.501 219.56C201.238 218.964 200.988 218.395 200.697 217.84C202.693 219.116 205.243 220.379 207.502 220.614C210.371 220.961 213.572 221.086 216.427 220.49C218.714 219.962 220.613 218.769 222.705 217.216C223.634 216.536 224.479 215.717 225.186 214.913C226.017 214.011 226.503 213.373 226.932 212.374C227.431 211.361 227.93 210.251 228.207 209.128C228.678 207.588 228.942 205.965 228.872 204.286C228.859 203.19 229.039 201.927 228.872 200.901C228.665 199.652 228.429 198.515 227.833 197.349C227.57 196.739 227.306 196.156 227.001 195.588C226.863 195.338 227.029 195.046 227.32 195.019C228.179 194.963 229.039 194.866 229.87 194.7C232.157 194.172 234.056 192.979 236.148 191.426C237.077 190.746 237.922 189.927 238.629 189.123C239.46 188.221 239.946 187.583 240.375 186.584C240.874 185.571 241.373 184.461 241.65 183.338C242.121 181.798 242.385 180.175 242.315 178.496C242.302 177.4 242.482 176.138 242.315 175.111C242.108 173.862 241.872 172.725 241.276 171.559C240.708 170.242 240.153 169.035 239.239 167.952C238.726 167.217 237.964 166.537 237.146 165.913C241.761 165.469 245.392 161.169 244.38 156.202L242.925 149.002C242.302 145.894 240.999 142.995 239.419 140.109C238.865 139.083 237.978 138.195 236.883 137.46C235.261 136.364 235.649 133.839 237.493 133.159C242.094 131.467 245.323 130.051 249.439 127.402C250.395 126.694 251.545 127.069 252.114 127.402C253.943 128.969 256.438 129.885 258.877 130.149C261.745 130.495 264.947 130.62 267.802 130.024C270.089 129.497 271.987 128.303 274.08 126.75C275.008 126.07 275.854 125.251 276.561 124.447C277.392 123.545 277.877 122.907 278.307 121.908C278.806 120.895 279.305 119.785 279.582 118.662C280.053 117.122 280.316 115.499 280.247 113.82C280.233 112.724 280.413 111.462 280.247 110.435C280.039 109.186 279.803 108.049 279.208 106.884C278.917 106.218 278.625 105.566 278.293 104.955C278.14 104.664 278.196 104.317 278.445 104.109C278.445 104.109 278.459 104.109 278.473 104.095C279.651 103.582 280.413 103.651 281.674 104.539C281.882 104.83 282.104 105.108 282.326 105.385C283.393 106.773 284.931 107.841 286.317 108.854C288.368 110.227 291.154 111.684 293.593 111.933C296.462 112.28 299.663 112.405 302.518 111.808C304.805 111.281 306.703 110.088 308.796 108.534C309.725 107.855 310.57 107.036 311.277 106.232C312.108 105.33 312.593 104.692 313.023 103.693C313.522 102.68 314.021 101.57 314.298 100.446C314.769 98.9066 315.033 97.2834 314.963 95.6048C314.949 94.5088 315.13 93.2464 314.963 92.2198C314.755 90.9712 314.52 89.8336 313.924 88.6683C313.356 87.3504 312.801 86.1434 311.887 85.0613L311.776 84.9087C311.208 84.1041 311.277 83.0359 311.928 82.3006C313.009 81.0798 313.148 80.8301 314.437 81.1492L315.573 82.7445C318.248 86.629 321.976 88.3215 326.993 86.9897L333.465 83.5214C336.25 82.0231 338.662 79.9422 340.962 77.5977C342.113 76.4323 342.819 74.7398 343.138 72.8254C343.79 68.927 346.062 65.4865 349.569 63.6692C352.59 62.1015 355.57 60.52 358.494 58.883C361.182 57.3847 363.871 55.4564 366.546 53.5141C368.874 51.8216 371.798 51.3083 374.612 51.9049C374.917 51.9742 375.221 52.0159 375.526 52.0436C378.395 52.3904 381.596 52.5153 384.451 51.9187C386.738 51.3916 388.637 50.1985 390.729 48.6447C391.658 47.9649 392.503 47.1464 393.21 46.3418C394.042 45.4401 394.527 44.8019 394.956 43.803C395.455 42.7903 395.954 41.6805 396.231 40.5568C396.703 39.0169 396.966 37.3937 396.897 35.7151V35.6873C397.271 35.5209 397.645 35.3683 398.019 35.2018C398.366 35.9093 398.74 36.6168 399.142 37.2966C400.625 39.7799 403.895 40.7787 406.778 39.6689C411.268 37.9348 415.121 35.507 419.001 32.9266L423.63 29.8329C425.293 28.7231 426.582 27.1416 427.22 25.3797C427.317 25.1022 427.705 25.0745 427.843 25.3242C428.245 26.0179 428.73 26.6699 429.229 27.308C430.296 28.6953 431.835 29.7636 433.221 30.7763C435.272 32.1497 438.057 33.6064 440.496 33.8561C443.365 34.2029 446.567 34.3278 449.421 33.7312C451.708 33.2041 453.607 32.011 455.699 30.4572C456.074 30.1798 456.42 29.8746 456.767 29.5693C456.282 30.7347 456.088 31.8168 456.309 32.7601C458.402 41.6389 468.075 43.2065 477.375 43.9834L484.235 44.7742C486.161 45.0932 489.196 44.1499 489.681 43.4423C490.18 42.8736 490.693 43.1788 491.053 43.5256C492.994 45.4817 494.629 47.3407 496.264 49.3661C497.664 51.1141 497.401 53.639 495.724 55.1095C494.393 56.2749 493.174 57.6067 492.093 59.0495C490.36 61.3663 490.679 64.7651 492.8 67.0264C496.098 70.5224 499.798 73.1722 503.651 75.7803L508.266 78.8878C509 79.3873 509.804 79.7757 510.622 80.0393C512.41 80.622 513.713 82.1619 514.281 83.9654C514.669 85.1862 515.029 86.4209 515.376 87.6556C515.75 88.9874 515.168 90.4024 513.976 91.1377C512.576 91.984 511.287 93.0383 510.456 94.3285C510.109 94.925 509.887 95.4799 509.68 95.9655C509.444 96.3678 509 96.6591 508.793 97.1031C508.446 97.7412 508.086 98.4349 507.864 99.1563C507.656 99.7945 507.296 100.474 507.171 101.154V101.182C506.922 102.541 506.603 103.984 506.534 105.371C506.603 107.217 506.464 108.937 506.617 110.768C506.714 111.711 507.171 112.35 507.559 113.224C507.989 114.195 508.668 115.096 509.333 115.956C510.4 117.344 511.939 118.412 513.324 119.425C515.14 120.646 517.551 121.908 519.769 122.366C519.963 122.407 520.101 122.574 520.088 122.768C520.088 124.516 520.032 126.264 519.949 128.012C519.893 129.108 519.062 130.024 517.967 130.176L517.718 130.218C515.279 130.579 513.879 132.021 513.2 134.56C511.135 142.357 507.628 149.862 513.2 156.285L513.311 156.424C513.99 157.201 514.211 158.297 513.879 159.268C512.895 162.195 512.424 164.221 510.664 166.704C509.998 167.647 505.855 169.076 505.855 169.076C502.21 168.549 500.81 168.799 497.414 171.005C494.324 172.988 491.386 176.498 489.46 179.994L476.682 203.093C476.682 203.093 476.654 203.162 476.64 203.204L475.67 207.962C475.67 207.962 475.67 208.045 475.67 208.087C475.767 208.795 475.975 209.461 476.266 210.071C476.945 211.514 476.668 213.22 475.407 214.191C474.977 214.51 474.561 214.843 474.132 215.162C472.136 216.647 469.392 216.661 467.382 215.19C466.842 214.788 466.302 214.483 465.761 214.288V214.316C461.382 212.679 455.977 211.93 451.68 213.178C450.087 213.636 447.98 214.899 446.483 215.551L441.577 217.715C433.484 221.294 424.878 230.811 423.325 239.149C423.131 239.204 422.937 239.26 422.743 239.301C421.981 236.596 419.888 234.723 417.324 233.724C413.666 232.309 410.257 230.339 406.778 228.522C401.179 225.609 396.495 226.649 390.383 227.967C380.848 230.02 369.567 233.835 362.014 239.398C359.589 241.188 358.425 242.964 358.452 245.836C358.009 245.475 357.565 245.183 357.122 244.989C353.726 243.588 349.527 242.825 346.104 243.671C344.843 243.977 343.152 244.906 341.946 245.364L338.038 246.904C333.326 248.763 328.309 253.091 325.357 257.808C324.387 259.362 322.572 260.166 320.77 259.833C312.302 258.307 303.571 257.378 295.311 263.163C295.007 263.371 294.591 263.163 294.591 262.788C294.161 246.293 276.048 245.447 286.927 262.844C287.135 263.177 286.885 263.635 286.483 263.607C279.568 263.052 276.533 259.056 272.888 253.812C272.722 253.577 272.431 253.438 272.153 253.48C261.898 254.922 269.091 273.748 276.186 275.468C280.316 276.467 287.828 271.556 288.396 271.861C288.729 272.042 289.033 276.328 292.9 275.995C292.983 275.995 293.08 275.954 293.136 275.884L295.921 273.165C296.046 273.04 296.06 272.846 295.963 272.694C292.29 266.701 301.409 264.106 306.593 262.941C313.619 261.359 317.458 262.885 322.78 263.968C322.877 264.203 322.821 264.481 322.794 264.744C322.295 271.237 328.781 274.081 335.488 273.942C339.729 273.845 343.623 272.999 347.67 271.82C350.082 271.112 352.701 270.696 354.932 269.614C359.034 267.616 362.776 264.203 364.148 259.875C364.259 259.528 364.301 259.126 364.328 258.696C366.13 259.917 367.973 260.097 370.662 259.93C372.27 259.833 374.584 260.139 376.372 259.598C385.422 256.809 389.274 250.136 401.318 251.066L410.534 251.773C412.017 251.884 414.276 251.44 415.966 251.163C419.459 250.594 422.563 246.723 422.993 242.548C423.02 242.548 423.062 242.548 423.09 242.534C423.658 249.886 431.627 252.814 439.706 252.314C445.098 251.967 450.031 250.691 455.117 248.985C458.153 247.958 461.465 247.292 464.25 245.794C469.378 243.033 473.952 238.497 475.49 232.906C475.961 231.186 475.49 228.48 474.423 225.664C473.522 223.264 474.395 220.573 476.474 219.075C477.527 218.311 478.58 217.535 479.606 216.716C480.133 216.3 480.729 215.981 481.366 215.759C483.043 215.204 484.637 214.594 486.341 214.052C492.495 214.705 498.385 213.095 503.928 209.891L516.013 202.885H516.027L521.307 199.361C525.52 196.545 525.465 186.82 524.689 185.113L520.781 176.637C520.781 176.637 520.78 176.609 520.753 176.595L518.508 172.947C518.508 172.947 518.411 172.822 518.355 172.766C517.953 172.447 517.537 172.17 517.094 171.906C515.182 170.783 514.419 168.41 515.223 166.343C515.417 165.83 515.611 165.331 515.805 164.817C516.678 162.514 519.062 161.155 521.487 161.543L521.764 161.585L524.703 162.056C529.636 162.847 534.404 159.06 534.182 153.705L533.891 146.352C533.766 143.189 532.935 140.109 531.84 137.002C531.285 135.434 530.038 134.019 528.403 132.895C525.576 130.925 523.982 127.638 524.12 124.197C524.12 123.92 524.148 123.656 524.148 123.379C524.148 123.032 524.453 122.754 524.799 122.754C526.393 122.768 527.987 122.671 529.484 122.366C531.771 121.839 533.669 120.646 535.762 119.092C536.69 118.412 537.536 117.594 538.243 116.789C539.074 115.887 539.559 115.249 539.989 114.25C540.488 113.237 540.987 112.128 541.264 111.004C541.735 109.464 541.998 107.841 541.929 106.162C541.915 105.066 542.095 103.804 541.929 102.777L541.998 102.805ZM197.371 70.4114C197.981 71.3132 197.704 72.5895 196.734 73.0889C194.322 74.3375 192.341 76.1826 191.066 79.1514C189.61 82.5226 188.973 85.6579 190.04 89.1955L190.899 92.0533C192.341 96.8395 197.829 99.4754 202.541 96.9505L205.396 95.4245C206.809 94.6614 208.569 95.4522 208.957 97.006V97.0476C209.027 97.2834 208.916 97.5193 208.694 97.6303C206.615 98.643 204.398 100.003 203.178 101.917C202.832 102.514 202.61 103.068 202.402 103.554C202.166 103.956 201.723 104.248 201.515 104.692C201.169 105.33 200.808 106.023 200.587 106.745C200.379 107.383 200.018 108.063 199.894 108.743V108.77C199.644 110.13 199.325 111.573 199.256 112.96C199.325 114.805 199.187 116.525 199.339 118.357C199.436 119.3 199.894 119.938 200.282 120.812C200.711 121.783 201.39 122.685 202.056 123.545C202.208 123.739 202.388 123.92 202.554 124.114C201.418 124.225 200.282 124.447 199.228 124.932C196.942 125.987 194.253 127.443 192.853 129.621C192.507 130.218 192.285 130.773 192.077 131.258C191.842 131.661 191.398 131.952 191.19 132.396C190.844 133.034 190.483 133.728 190.262 134.449C190.054 135.087 189.694 135.767 189.569 136.447V136.475C189.319 137.834 189.001 139.277 188.931 140.664C188.959 141.344 188.959 141.996 188.945 142.662C188.834 142.593 188.723 142.509 188.613 142.44C186.88 141.4 185.009 140.22 183.221 139.804C180.671 139.152 177.983 138.847 175.405 139.194C173.922 139.263 172.384 139.443 170.984 140.082C168.697 141.136 166.009 142.593 164.609 144.771C164.263 145.367 164.041 145.922 163.833 146.408C163.597 146.81 163.154 147.101 162.946 147.545C162.6 148.183 162.239 148.877 162.017 149.599C161.81 150.237 161.449 150.916 161.325 151.596V151.624C161.075 152.984 160.756 154.426 160.687 155.814C160.756 157.659 160.618 159.379 160.77 161.21C160.77 161.349 160.826 161.46 160.839 161.585C160.354 161.71 159.855 161.821 159.357 161.932C159.398 161.127 159.44 160.322 159.329 159.601C159.121 158.352 158.885 157.215 158.289 156.049C157.721 154.732 157.167 153.525 156.252 152.442C155.254 151.027 153.356 149.779 151.817 148.808C150.085 147.767 148.214 146.588 146.426 146.172C143.876 145.52 141.188 145.215 138.61 145.561C137.127 145.631 135.589 145.811 134.189 146.449C131.902 147.504 129.214 148.96 127.814 151.138C127.467 151.735 127.246 152.29 127.038 152.775C126.802 153.178 126.359 153.469 126.151 153.913C125.804 154.551 125.444 155.245 125.222 155.966C125.014 156.604 124.654 157.284 124.529 157.964V157.992C124.28 159.351 123.961 160.794 123.892 162.181C123.892 162.514 123.906 162.847 123.906 163.18C123.351 163.111 122.811 163.041 122.257 162.972C122.118 161.835 121.799 160.655 121.259 159.448C120.233 157.132 117.531 155.606 115.784 153.76C112.472 150.264 109.077 147.781 104.42 146.283C103.242 145.908 101.454 144.84 100.124 144.521C93.943 143.05 81.8166 141.552 75.6771 143.536C75.4554 143.605 75.2336 143.425 75.2752 143.189C75.3722 142.44 75.4276 141.663 75.3861 140.886C75.3722 139.79 75.5524 138.528 75.3861 137.501C75.1782 136.253 74.9426 135.115 74.3466 133.95C73.7784 132.632 73.2241 131.425 72.3094 130.343C71.3116 128.928 69.4129 127.679 67.8746 126.708C66.1422 125.668 64.2713 124.488 62.4835 124.072C59.9335 123.42 57.2449 123.115 54.6671 123.462C53.1842 123.531 51.6459 123.712 50.2462 124.35C49.3592 124.752 48.4168 125.224 47.516 125.765C47.2111 125.945 46.8646 125.695 46.9339 125.349C47.1834 124.225 47.2942 123.059 47.2527 121.866C47.2388 120.77 47.419 119.508 47.2527 118.481C47.0448 117.233 46.8092 116.095 46.2133 114.93C45.645 113.612 45.0907 112.405 44.176 111.323C43.1782 109.908 41.2795 108.659 39.7412 107.688C38.0088 106.648 36.1379 105.469 34.3501 105.052C31.8001 104.4 29.1115 104.095 26.5337 104.442C25.0509 104.511 23.5125 104.692 22.1128 105.33C22.0712 105.344 22.0296 105.371 21.9881 105.385C23.1799 103.942 23.9006 102.056 23.8174 99.9193L23.5264 92.5666C23.4017 89.4036 22.5701 86.3238 21.4753 83.2162C21.0734 82.0925 20.325 81.052 19.3272 80.1364L20.1864 78.1387C22.0296 78.1942 23.8867 78.111 25.6329 77.7503C27.9196 77.2231 29.8183 76.03 31.911 74.4762C32.8395 73.7965 33.6849 72.978 34.3917 72.1594C35.2232 71.2577 35.7083 70.6195 36.1379 69.6207C36.6368 68.608 37.1357 67.4981 37.4129 66.3744C37.8841 64.8345 38.1474 63.2114 38.0781 61.5327C38.0643 60.4368 38.2444 59.1743 38.0781 58.1477C37.8703 56.8992 37.6347 55.7616 37.0387 54.5962C36.4705 53.2783 35.9162 52.0713 35.0015 50.9893C34.7936 50.6979 34.5441 50.4066 34.267 50.1291C34.3224 50.0598 34.3778 49.9904 34.4333 49.9072C35.8607 50.6008 37.3713 51.1419 38.7711 51.2945C41.6399 51.6413 44.8412 51.7661 47.6962 51.1696C49.9829 50.6424 51.8815 49.4493 53.9742 47.8956C54.9027 47.2158 55.7481 46.3973 56.4549 45.5927C57.2864 44.6909 57.7715 44.0528 58.2011 43.0539C58.7001 42.0412 59.199 40.9313 59.4761 39.8076C59.6563 39.2111 59.8087 38.6145 59.9196 38.0041C59.9612 37.7683 60.1968 37.6434 60.4047 37.7544C61.9984 38.6007 63.7585 39.2943 65.3661 39.4608C68.2349 39.8076 71.4363 39.9325 74.2912 39.3359C76.5779 38.8088 78.4766 37.6157 80.5693 36.0619C81.4978 35.3821 82.3432 34.5636 83.05 33.759C83.6043 33.1486 84.0062 32.663 84.3389 32.1081C84.4359 31.9555 84.6299 31.9 84.7823 31.9832C86.6117 33.0515 88.7459 33.9948 90.6723 34.2029C93.5411 34.5498 96.7425 34.6746 99.5974 34.0781C101.884 33.5509 103.783 32.3578 105.875 30.804C106.804 30.1243 107.649 29.3058 108.356 28.5011C109.188 27.5994 109.673 26.9612 110.102 25.9624C110.31 25.5323 110.532 25.0745 110.726 24.6028C111.225 24.6722 111.724 24.7415 112.223 24.8248C112.361 25.6433 112.763 26.2676 113.124 27.0583C113.553 28.0294 114.232 28.9312 114.898 29.7913C115.965 31.1786 117.503 32.2468 118.889 33.2596C120.94 34.633 123.726 36.0897 126.165 36.3394C129.033 36.6862 132.235 36.8111 135.09 36.2145C137.377 35.6873 139.275 34.4943 141.368 32.9405C141.881 32.5659 142.366 32.1359 142.823 31.6919C142.865 31.7058 142.92 31.7197 142.962 31.7335C142.962 31.8445 142.934 31.9555 142.934 32.0665C143.003 33.9116 142.865 35.6318 143.017 37.4631C143.114 38.4064 143.571 39.0446 143.959 39.9186C144.389 40.8897 145.068 41.7915 145.733 42.6516C146.8 44.0389 148.339 45.1071 149.725 46.1198C151.776 47.4933 154.561 48.9499 157.001 49.1996C159.869 49.5465 163.071 49.6713 165.926 49.0748C166.757 48.8806 167.533 48.5754 168.296 48.2147C168.115 49.2274 167.921 50.2679 167.88 51.2667C167.949 53.1118 167.81 54.8321 167.963 56.6633C168.06 57.6067 168.517 58.2448 168.905 59.1188C169.335 60.0899 170.014 60.9917 170.679 61.8518C171.746 63.2391 173.285 64.3073 174.671 65.3201C176.722 66.6935 179.507 68.1502 181.946 68.3999C184.815 68.7467 188.017 68.8716 190.872 68.275C191.149 68.2056 191.426 68.1363 191.703 68.0392C193.671 67.4149 195.805 68.0392 196.956 69.7594L197.357 70.356L197.371 70.4114ZM274.953 261.914L285.707 266.881C285.943 266.992 285.998 267.311 285.818 267.491C280.621 272.513 275.951 265.161 274.468 262.428C274.302 262.109 274.634 261.762 274.953 261.914Z"/>
</mask>
<path d="M541.998 102.805C541.79 101.556 541.555 100.419 540.959 99.2534C540.391 97.9355 539.836 96.7285 538.922 95.6464C537.924 94.2314 536.025 92.9828 534.487 92.0117C532.754 90.9712 530.884 89.792 529.096 89.3758C526.809 88.7932 524.398 88.488 522.055 88.6822C519.935 88.155 519.894 88.0302 519.561 84.5342C519.395 82.8278 518.549 81.3434 517.607 79.9145C517.413 79.6231 517.371 79.2347 517.745 79.0543C518.12 78.874 518.355 78.5272 518.632 78.2081C521.266 75.1005 522.582 72.2011 522 68.2056C521.598 65.4172 520.656 63.1143 519.27 60.6449C517.801 58.0229 516.47 55.5257 514.655 53.0008C513.241 51.0586 509.68 49.5048 507.254 49.8101C506.492 49.9072 505.757 50.0459 505.037 50.2262C503 50.7257 500.865 49.9488 499.535 48.3395C497.927 46.4112 496.237 44.5244 494.463 42.6932C493.437 41.6389 493.479 40.0018 494.573 39.0307L494.795 38.8365C498.135 35.8677 500.117 31.5254 502.57 27.8352C504.51 24.9219 506.45 22.0641 506.534 18.6374C506.644 14.0455 504.399 10.4801 500.048 8.60725C497.761 7.62226 494.837 8.3714 492.37 8.23267C487.686 7.98296 483.625 8.51013 479.315 10.6743C478.22 11.2292 476.252 11.6871 475.088 12.3807C472.039 14.2258 467.632 17.4027 463.835 20.871L461.714 19.7611C461.797 19.0397 461.839 18.3183 461.811 17.5692C461.797 16.4732 461.978 15.2108 461.811 14.1842C461.603 12.9356 461.368 11.798 460.772 10.6327C460.204 9.31477 459.649 8.10782 458.735 7.02572C457.737 5.61068 455.838 4.36211 454.3 3.391C452.567 2.35052 450.696 1.17132 448.909 0.755129C446.359 0.103098 443.67 -0.202108 441.092 0.144717C439.609 0.214082 438.071 0.394431 436.671 1.03259C434.385 2.08694 431.696 3.5436 430.296 5.72166C429.95 6.3182 429.728 6.87312 429.52 7.35868C429.285 7.76099 428.841 8.05233 428.633 8.49626C428.287 9.13442 427.926 9.82807 427.705 10.5495C427.497 11.1876 427.136 11.8674 427.012 12.5472V12.5749C426.762 13.9345 426.444 15.3773 426.374 16.7646C426.402 17.5831 426.402 18.3738 426.388 19.1646C424.614 16.0293 422.48 13.9761 418.891 13.0882C416.16 12.3946 413.68 12.3946 410.88 12.7414C407.9 13.1021 405.087 13.3934 402.066 14.1148C399.738 14.6836 396.938 17.4027 396.301 19.7473C395.441 22.9381 395.386 26.1288 395.982 29.2225C395.926 29.0838 395.871 28.9451 395.802 28.8063C395.234 27.4884 394.679 26.2814 393.764 25.1994C392.767 23.7843 390.868 22.5357 389.33 21.5646C387.597 20.5242 385.726 19.3449 383.939 18.9288C381.389 18.2767 378.7 17.9715 376.122 18.3183C374.639 18.3877 373.101 18.5681 371.701 19.2062C369.415 20.2606 366.726 21.7172 365.326 23.8953C364.98 24.4918 364.758 25.0467 364.55 25.5323C364.315 25.9346 363.871 26.226 363.663 26.6699C363.317 27.308 362.956 28.0017 362.735 28.7231C362.527 29.3612 362.166 30.041 362.042 30.7208V30.7486C361.792 32.1081 361.473 33.5509 361.404 34.9382C361.473 36.7833 361.335 38.5036 361.487 40.3348C361.584 41.2782 362.042 41.9163 362.43 42.7903C362.859 43.7614 363.538 44.6632 364.204 45.5233L364.425 45.8146C365.908 47.7291 365.382 50.5176 363.317 51.7661C358.147 54.8737 353.02 57.8703 347.933 60.5894C346.52 61.3385 345.092 62.0877 343.665 62.809C342.736 63.2807 341.6 62.9894 341.018 62.1293L340.865 61.9073C339.48 59.868 337.567 59.2298 334.989 59.7431C327.076 61.2969 318.802 61.4079 315.462 69.2184C314.977 70.3282 314.589 71.4242 314.326 72.5063C313.55 75.6832 311.277 78.2913 308.38 79.7896L308.269 79.8451C307.105 80.4416 305.761 80.4416 304.638 79.8451C303.765 79.3873 302.878 79.0127 302.019 78.8046C299.469 78.1526 296.781 77.8474 294.203 78.1942C292.72 78.2636 291.182 78.4439 289.782 79.0821C287.495 80.1364 284.807 81.5931 283.407 83.7711C283.06 84.3677 282.839 84.9226 282.631 85.4082C282.395 85.8105 281.952 86.1018 281.744 86.5457C281.397 87.1839 281.037 87.8776 280.815 88.599C280.607 89.2371 280.247 89.9169 280.122 90.5967L280.095 90.6522C279.693 91.6233 279.485 92.6499 279.485 93.7042V94.8695C279.526 96.1736 279.485 97.4083 279.485 98.6707C279.485 98.865 279.415 99.0314 279.263 99.1563C278.972 99.4199 278.667 99.6696 278.376 99.9332C277.018 101.112 275.064 101.223 273.567 100.238C273.276 100.044 272.985 99.8638 272.708 99.6835C270.975 98.643 269.104 97.4638 267.317 97.0476C264.767 96.3956 262.078 96.0904 259.5 96.4372C258.017 96.5066 256.479 96.6869 255.079 97.3251C252.793 98.3794 250.104 99.8361 248.704 102.014C248.358 102.611 248.136 103.166 247.928 103.651C247.693 104.053 247.249 104.345 247.041 104.789C246.695 105.427 246.334 106.121 246.113 106.842C245.905 107.48 245.545 108.16 245.42 108.84V108.867C245.17 110.227 244.852 111.67 244.782 113.057C244.852 114.902 244.713 116.622 244.865 118.454C244.962 119.397 245.364 120.077 245.808 120.909C246.362 121.922 246.93 122.102 246.972 123.184C247 124.044 246.709 124.475 245.78 124.918C239.696 127.971 234.956 129.441 228.9 132.146C227.722 132.673 226.336 132.16 225.796 131.009V130.967C225.435 130.246 225.685 129.386 226.364 128.983C227.14 128.512 227.916 127.984 228.72 127.388C229.648 126.708 230.494 125.89 231.201 125.085C232.032 124.183 232.517 123.545 232.947 122.546C233.446 121.533 233.945 120.424 234.222 119.3C234.693 117.76 234.956 116.137 234.887 114.458C234.873 113.362 235.053 112.1 234.887 111.073C234.679 109.825 234.444 108.687 233.848 107.522C233.279 106.204 232.725 104.997 231.81 103.915C230.813 102.5 228.914 101.251 227.376 100.28C225.643 99.2395 223.772 98.0603 221.985 97.6441C219.435 96.9921 216.746 96.6869 214.168 97.0337C213.655 97.0615 213.129 97.1031 212.616 97.1586C212.297 97.2002 212.006 97.006 211.923 96.7008V96.6591C211.369 94.6476 212.006 92.4834 213.614 91.1377C214.681 90.2498 215.72 89.2787 216.732 88.2521C220.058 84.881 219.753 77.015 216.69 72.534C215.305 70.4947 213.392 69.8565 210.814 70.3698C209.442 70.6473 208.07 70.8693 206.698 71.1051C204.287 71.5074 201.848 70.4669 200.503 68.4276C199.866 67.4426 199.45 66.6657 198.771 65.6808C198.66 65.5143 198.535 65.0704 198.993 64.5016C199.589 63.9328 199.381 64.0021 199.852 63.4611C200.684 62.5593 201.169 61.9212 201.598 60.9223C202.097 59.9096 202.596 58.7998 202.873 57.676C203.344 56.1361 203.608 54.513 203.538 52.8344C203.525 51.7384 203.705 50.476 203.538 49.4493C203.331 48.2008 203.095 47.0632 202.499 45.8979C201.931 44.5799 201.377 43.373 200.462 42.2909C199.464 40.8758 197.565 39.6273 196.027 38.6562C194.295 37.6157 192.424 36.4365 190.636 36.0203C188.086 35.3683 185.397 35.0631 182.82 35.4099C181.545 35.4654 180.214 35.618 178.981 36.0619C178.731 36.159 178.468 35.9648 178.509 35.6873C178.593 35.0076 178.62 34.3278 178.593 33.6341C178.579 32.5382 178.759 31.2757 178.593 30.2491C178.385 29.0006 178.149 27.863 177.553 26.6976C176.985 25.3797 176.431 24.1727 175.516 23.0907C174.518 21.6756 172.619 20.427 171.081 19.4559C169.349 18.4155 167.478 17.2362 165.69 16.8201C163.14 16.168 160.451 15.8628 157.874 16.2096C156.391 16.279 154.852 16.4594 153.453 17.0975C151.485 17.9993 149.226 19.2062 147.743 20.9126C147.743 20.871 147.743 20.8294 147.743 20.7877C147.729 19.6918 147.909 18.4293 147.743 17.4027C147.535 16.1542 147.299 15.0166 146.703 13.8512C146.135 12.5333 145.581 11.3264 144.666 10.2443C143.668 8.82921 141.77 7.58064 140.231 6.60953C138.499 5.56906 136.628 4.38985 134.84 3.97366C132.29 3.32163 129.602 3.01643 127.024 3.36325C125.541 3.43262 124.003 3.61297 122.603 4.25112C120.316 5.30547 117.628 6.76214 116.228 8.9402C115.881 9.53674 115.66 10.0917 115.452 10.5772C115.216 10.9795 114.773 11.2709 114.565 11.7148C114.218 12.353 113.858 13.0466 113.636 13.768C113.428 14.4062 113.068 15.0859 112.943 15.7657V15.7935C112.694 17.153 112.375 18.5958 112.306 19.9831C112.334 20.6629 112.334 21.3149 112.32 21.9669C112.195 21.9531 112.084 21.9392 111.959 21.9253C112.167 20.8571 112.278 19.7611 112.237 18.6374C112.223 17.5415 112.403 16.279 112.237 15.2524C112.029 14.0038 111.793 12.8663 111.197 11.7009C110.629 10.383 110.075 9.17604 109.16 8.09394C108.162 6.6789 106.263 5.43033 104.725 4.45922C102.993 3.41874 101.122 2.23954 99.3341 1.82335C96.784 1.17132 94.0954 0.866113 91.5177 1.21294C90.0348 1.2823 88.4965 1.46265 87.0967 2.10081C84.81 3.15516 82.1214 4.61182 80.7217 6.78988C80.3752 7.38642 80.1535 7.94134 79.9456 8.4269C79.7238 8.81534 79.2942 9.10667 79.0863 9.52286C77.451 8.53788 75.7048 7.48353 74.0279 7.08122C71.4779 6.42919 68.7893 6.12398 66.2115 6.4708C64.7286 6.54017 63.1903 6.72052 61.7906 7.35868C59.5039 8.41302 56.8152 9.86969 55.4155 12.0477C55.069 12.6443 54.8473 13.1992 54.6394 13.6848C54.4038 14.0871 53.9603 14.3784 53.7524 14.8223C53.406 15.4605 53.0457 16.1542 52.8239 16.8756C52.616 17.5137 52.2557 18.1935 52.131 18.8733V18.901C52.0062 19.553 51.8676 20.2328 51.7568 20.9126C50.3293 20.0663 48.8603 19.2478 47.419 18.901C44.869 18.249 42.1804 17.9438 39.6026 18.2906C38.1197 18.36 36.5814 18.5403 35.1817 19.1785C32.8949 20.2328 30.2063 21.6895 28.8066 23.8675C28.4601 24.4641 28.2384 25.019 28.0305 25.5046C27.7949 25.9069 27.3514 26.1982 27.1435 26.6421C26.7971 27.2803 26.4367 27.9739 26.215 28.6953C26.0071 29.3335 25.6468 30.0133 25.5221 30.6931V30.7208C25.2726 32.0804 24.9538 33.5232 24.8845 34.9104C24.9538 36.7556 24.8152 38.4758 24.9677 40.307C25.0647 41.2504 25.5221 41.8886 25.9101 42.7626C26.3397 43.7337 27.0188 44.6354 27.684 45.4955C28.2245 46.2031 28.8898 46.8274 29.5966 47.3961C28.2107 46.5776 26.7694 45.7869 25.3696 45.4539C22.8196 44.8019 20.131 44.4967 17.5532 44.8435C16.0704 44.9129 14.532 45.0932 13.1323 45.7314C10.8456 46.7857 8.15696 48.2424 6.75722 50.4205C6.41075 51.017 6.18901 51.5719 5.98113 52.0575C5.74553 52.4598 5.30205 52.7511 5.09417 53.1951C4.7477 53.8332 4.38737 54.5269 4.16563 55.2483C3.95775 55.8864 3.59742 56.5662 3.47269 57.246V57.2737C3.22323 58.6333 2.90447 60.0761 2.83517 61.4634C2.90447 63.3085 2.7659 65.0287 2.91835 66.86C3.01536 67.8033 3.47269 68.4415 3.86073 69.3155C4.29036 70.2866 4.96944 71.1883 5.63466 72.0485C6.70179 73.4358 8.24012 74.504 9.626 75.5167C10.7486 76.2659 12.0929 77.0289 13.4649 77.6254C11.4692 77.0566 9.37654 76.8485 7.51946 77.126C5.08031 77.4867 3.68058 78.9295 3.00149 81.4682C0.936532 89.2649 -2.56975 96.7701 3.00149 103.193C5.39907 105.968 7.93523 107.91 11.5801 108.507L14.5182 108.978C15.3497 109.117 16.1812 109.103 16.985 108.992C17.0405 109.089 17.0959 109.173 17.1513 109.27C16.6801 109.714 16.2644 110.199 15.9318 110.726C15.5853 111.323 15.3635 111.878 15.1557 112.363C14.9201 112.766 14.4766 113.057 14.2687 113.501C13.9222 114.139 13.5619 114.833 13.3402 115.554C13.1323 116.192 12.7719 116.872 12.6472 117.552V117.58C12.3978 118.939 12.079 120.382 12.0097 121.769C12.079 123.614 11.9404 125.335 12.0929 127.166C12.1899 128.109 12.6472 128.747 13.0353 129.621C13.4649 130.593 14.144 131.494 14.8092 132.354C15.8763 133.742 17.4146 134.81 18.8005 135.823C20.8516 137.196 23.6373 138.653 26.0764 138.902C28.9452 139.249 32.1466 139.374 35.0015 138.778C37.205 138.264 39.0344 137.141 41.0439 135.67C40.9331 135.975 40.8222 136.267 40.7668 136.572V136.6C40.5173 137.959 40.1985 139.402 40.1292 140.789C40.1985 142.634 40.0599 144.355 40.2124 146.186C40.3094 147.129 40.7667 147.767 41.1548 148.641C41.5844 149.612 42.2635 150.514 42.9287 151.374C43.9958 152.762 45.5342 153.83 46.9201 154.843C48.9712 156.216 51.7568 157.673 54.1959 157.922C57.0647 158.269 60.2661 158.394 63.121 157.797C65.4077 157.27 67.3064 156.077 69.3991 154.523C69.995 154.079 70.5355 153.58 71.0482 153.067C71.5333 158.699 75.9958 164.262 80.597 169.395L85.2674 174.598C86.1544 175.583 87.665 176.651 88.8568 177.525C88.9122 177.566 88.9815 177.594 89.0508 177.594L97.0751 178.024C101.565 178.26 105.972 176.568 110.296 175.666C113.706 174.958 117.087 174.279 119.457 171.892C120.801 170.547 121.688 169.021 122.132 167.384C122.783 167.481 123.435 167.578 124.086 167.675C124.086 167.883 124.086 168.077 124.114 168.285C124.211 169.229 124.668 169.867 125.056 170.741C125.486 171.712 126.165 172.614 126.83 173.474C127.897 174.861 129.435 175.929 130.821 176.942C132.872 178.316 135.658 179.772 138.097 180.022C140.966 180.369 144.167 180.494 147.022 179.897C149.309 179.37 151.208 178.177 153.3 176.623C154.229 175.943 155.074 175.125 155.781 174.32C156.613 173.418 157.098 172.78 157.527 171.781C158.026 170.769 158.525 169.659 158.802 168.535C158.927 168.119 159.038 167.689 159.135 167.273C160.451 166.981 161.754 166.662 163.001 166.288C163.209 166.565 163.403 166.843 163.625 167.106C164.692 168.494 166.231 169.562 167.616 170.574C169.668 171.948 172.453 173.405 174.892 173.654C177.761 174.001 180.962 174.126 183.817 173.529C186.104 173.002 188.003 171.809 190.095 170.255C191.024 169.576 191.869 168.757 192.576 167.952C193.408 167.051 193.893 166.413 194.322 165.414C194.821 164.401 195.32 163.291 195.597 162.167C196.069 160.628 196.332 159.004 196.263 157.326C196.263 156.812 196.29 156.258 196.318 155.703C198.314 156.979 200.878 158.255 203.15 158.491C206.019 158.838 209.221 158.963 212.075 158.366C214.362 157.839 216.261 156.646 218.354 155.092C218.811 154.759 219.24 154.385 219.656 153.996C219.975 156.563 220.876 158.949 222.816 161.016C222.386 161.044 221.957 161.058 221.541 161.113C220.058 161.182 218.52 161.363 217.12 162.001C214.833 163.055 212.145 164.512 210.745 166.69C210.399 167.287 210.177 167.842 209.969 168.327C209.733 168.729 209.29 169.021 209.082 169.465C208.736 170.103 208.375 170.796 208.153 171.518C207.946 172.156 207.585 172.836 207.461 173.516V173.543C207.211 174.903 206.892 176.346 206.823 177.733C206.892 179.578 206.754 181.298 206.906 183.13C207.003 184.073 207.461 184.711 207.849 185.585C208.043 186.029 208.292 186.445 208.569 186.861C208.417 186.875 208.278 186.861 208.126 186.889C206.643 186.959 205.105 187.139 203.705 187.777C201.418 188.831 198.729 190.288 197.33 192.466C196.983 193.063 196.762 193.618 196.554 194.103C196.318 194.505 195.875 194.797 195.667 195.241C195.32 195.879 194.96 196.573 194.738 197.294C194.53 197.932 194.17 198.612 194.045 199.292V199.319C193.796 200.679 193.477 202.122 193.408 203.509C193.477 205.354 193.338 207.074 193.491 208.906C193.588 209.849 194.045 210.487 194.433 211.361C194.572 211.68 194.752 211.985 194.932 212.291C193.214 211.264 191.384 210.113 189.624 209.696C187.074 209.044 184.386 208.739 181.808 209.086C180.325 209.155 178.787 209.336 177.387 209.974C175.1 211.028 172.412 212.485 171.012 214.663C170.665 215.259 170.444 215.814 170.236 216.3C170 216.702 169.557 216.994 169.349 217.437C169.002 218.076 168.642 218.769 168.42 219.491C168.212 220.129 167.852 220.809 167.727 221.488V221.516C167.478 222.876 167.159 224.318 167.09 225.706C167.159 227.551 167.02 229.271 167.173 231.102C167.173 231.172 167.187 231.241 167.201 231.31C167.395 232.462 166.923 233.613 165.94 234.238C164.401 235.223 162.849 236.194 161.283 237.179C159.939 238.011 158.234 238.011 156.904 237.165H156.89C155.157 236.111 153.286 234.931 151.499 234.515C148.949 233.863 146.26 233.558 143.682 233.905C142.199 233.974 140.661 234.154 139.261 234.793C136.975 235.847 134.286 237.304 132.886 239.482C132.54 240.078 132.318 240.633 132.11 241.119C131.875 241.521 131.431 241.812 131.223 242.256C130.877 242.894 130.516 243.588 130.295 244.309C130.087 244.948 129.726 245.627 129.602 246.307V246.335C129.352 247.694 129.033 249.137 128.964 250.525C129.033 252.37 128.853 253.452 129.006 255.283C129.033 255.602 128.59 256.837 128.036 257.198C126.054 258.446 125.292 259.306 123.338 260.555C123.296 260.582 123.227 260.61 123.185 260.624C121.841 261.04 120.954 261.137 119.526 260.721C119.263 260.555 118.667 260.18 118.418 260.028C116.685 258.987 115.161 258.016 113.359 257.586C110.809 256.934 108.121 256.629 105.543 256.976C104.06 257.045 102.522 257.225 101.122 257.863C98.8352 258.918 96.1465 260.374 94.7468 262.552C94.4003 263.149 94.1786 263.704 93.9707 264.189C93.7351 264.592 93.2916 264.883 93.0838 265.327C92.7373 265.965 92.377 266.659 92.1552 267.38C91.9473 268.018 91.587 268.698 91.4623 269.378V269.406C91.2128 270.765 90.8941 272.208 90.8248 273.595C90.8941 275.44 90.7555 277.161 90.9079 278.992C90.9911 279.838 91.1435 282.03 90.7416 284.194L90.0348 285.401C87.4571 287.718 85.8633 289.314 83.5489 291.714C81.9967 293.323 78.532 298.373 77.3679 300.731C75.885 303.7 71.6303 312.689 68.2904 319.973C67.5974 321.485 65.9759 322.29 64.3406 322.026C62.927 321.79 61.5134 321.749 60.2107 321.943C57.7715 322.303 56.3718 323.746 55.6927 326.285C53.6277 334.082 50.1214 341.587 55.6927 348.01C56.7875 349.286 57.924 350.382 59.1712 351.256C60.5848 352.241 61.4302 353.865 61.3609 355.585C61.3055 356.875 61.2778 358.179 61.2639 359.511C61.2639 359.774 61.0283 359.983 60.765 359.955C59.1435 359.733 57.5082 359.691 55.9144 359.899C54.4315 359.969 52.8932 360.149 51.4935 360.787C49.2068 361.841 46.5182 363.298 45.1184 365.476C44.7719 366.073 44.5502 366.628 44.3423 367.113C44.1067 367.516 43.6632 367.807 43.4554 368.251C43.1089 368.889 42.7485 369.583 42.5268 370.304C42.3189 370.942 41.9586 371.622 41.8339 372.302V372.329C41.5844 373.689 41.2657 375.132 41.1964 376.519C41.2657 378.364 41.1271 380.085 41.2795 381.916C41.3765 382.859 41.8339 383.497 42.2219 384.371C42.6516 385.342 43.3306 386.244 43.9959 387.104C45.063 388.492 46.6013 389.56 47.9872 390.572C50.0383 391.946 52.8239 393.403 55.2631 393.652C58.1318 393.999 61.3332 394.124 64.1881 393.527L64.2852 393.5C65.5047 393.208 66.7382 393.888 67.1816 395.067C69.0942 400.131 71.6303 404.973 74.1665 409.8C74.2358 409.939 74.4021 410.022 74.5545 409.995C82.6065 408.774 73.0439 401.643 71.8521 399.215C70.9097 397.287 70.1059 395.414 69.4406 393.569C69.011 392.362 69.4129 391.03 70.4385 390.267H70.4523C71.3809 389.574 72.2262 388.755 72.933 387.951C73.7646 387.049 74.2496 386.411 74.6793 385.412C75.1782 384.399 75.6771 383.289 75.9543 382.165C76.4255 380.626 76.6888 379.002 76.6195 377.324C76.6056 376.228 76.7858 374.965 76.6195 373.939C76.4116 372.69 76.176 371.553 75.5801 370.387C75.0119 369.069 74.4575 367.862 73.5428 366.78C72.545 365.365 70.6463 364.117 69.108 363.146C67.8607 362.396 66.5441 361.578 65.2275 361.023C65.1582 360.995 65.1305 360.94 65.1305 360.87C65.1028 359.233 65.089 357.236 65.1721 357.069C65.38 356.611 65.4354 355.668 65.9066 353.92L67.1401 354.031C72.0738 354.822 76.9105 350.812 76.6888 345.457L76.3977 338.105C76.273 334.942 75.4415 331.862 74.3466 328.754C73.7923 327.173 72.5311 325.772 70.8958 324.634C69.4822 323.649 69.0249 321.776 69.7317 320.223C73.8754 311.122 80.8187 298.83 87.4571 291.145C91.6147 287.76 94.3449 288.079 98.7382 288.467C101.274 289.494 103.713 290.604 104.878 290.715C107.746 291.061 110.948 291.186 113.803 290.59C116.089 290.063 117.988 288.87 120.081 287.316C121.009 286.636 121.855 285.818 122.561 285.013C123.393 284.111 123.878 283.473 124.308 282.474C124.807 281.461 125.305 280.352 125.583 279.228C126.054 277.688 126.317 276.065 126.248 274.386C126.234 273.29 126.414 272.028 126.248 271.001C126.04 269.753 125.804 268.615 125.208 267.45C124.779 266.437 124.71 265.882 124.114 265.008C124.044 264.911 123.726 264.398 123.67 264.3C123.185 263.357 123.629 262.872 124.322 262.552C124.419 262.511 124.446 262.386 124.529 262.331C125.583 261.637 126.608 260.971 127.578 260.361C128.95 259.5 130.738 259.806 131.736 261.082V261.11C132.817 262.497 134.355 263.565 135.741 264.578C137.792 265.951 140.578 267.408 143.017 267.658C145.886 268.005 149.087 268.129 151.942 267.533C154.229 267.006 156.127 265.813 158.22 264.259C159.149 263.579 159.994 262.761 160.701 261.956C161.532 261.054 162.017 260.416 162.447 259.417C162.946 258.404 163.445 257.295 163.722 256.171C164.193 254.631 164.457 253.008 164.387 251.329C164.373 250.233 164.554 248.971 164.387 247.944C164.179 246.696 163.944 245.558 163.348 244.393V244.351C162.503 242.423 163.237 240.161 165.053 239.107C165.87 238.635 166.688 238.15 167.506 237.664C169.279 237.068 170.153 237.137 171.594 238.011C172.342 238.635 173.132 239.204 173.894 239.745C175.946 241.119 178.731 242.575 181.17 242.825C184.039 243.172 187.241 243.297 190.095 242.7C192.382 242.173 194.281 240.98 196.373 239.426C197.302 238.746 198.147 237.928 198.854 237.123C199.686 236.222 200.171 235.583 200.6 234.585C201.099 233.572 201.598 232.462 201.875 231.338C202.347 229.798 202.61 228.175 202.541 226.497C202.527 225.401 202.707 224.138 202.541 223.112C202.333 221.863 202.097 220.725 201.501 219.56C201.238 218.964 200.988 218.395 200.697 217.84C202.693 219.116 205.243 220.379 207.502 220.614C210.371 220.961 213.572 221.086 216.427 220.49C218.714 219.962 220.613 218.769 222.705 217.216C223.634 216.536 224.479 215.717 225.186 214.913C226.017 214.011 226.503 213.373 226.932 212.374C227.431 211.361 227.93 210.251 228.207 209.128C228.678 207.588 228.942 205.965 228.872 204.286C228.859 203.19 229.039 201.927 228.872 200.901C228.665 199.652 228.429 198.515 227.833 197.349C227.57 196.739 227.306 196.156 227.001 195.588C226.863 195.338 227.029 195.046 227.32 195.019C228.179 194.963 229.039 194.866 229.87 194.7C232.157 194.172 234.056 192.979 236.148 191.426C237.077 190.746 237.922 189.927 238.629 189.123C239.46 188.221 239.946 187.583 240.375 186.584C240.874 185.571 241.373 184.461 241.65 183.338C242.121 181.798 242.385 180.175 242.315 178.496C242.302 177.4 242.482 176.138 242.315 175.111C242.108 173.862 241.872 172.725 241.276 171.559C240.708 170.242 240.153 169.035 239.239 167.952C238.726 167.217 237.964 166.537 237.146 165.913C241.761 165.469 245.392 161.169 244.38 156.202L242.925 149.002C242.302 145.894 240.999 142.995 239.419 140.109C238.865 139.083 237.978 138.195 236.883 137.46C235.261 136.364 235.649 133.839 237.493 133.159C242.094 131.467 245.323 130.051 249.439 127.402C250.395 126.694 251.545 127.069 252.114 127.402C253.943 128.969 256.438 129.885 258.877 130.149C261.745 130.495 264.947 130.62 267.802 130.024C270.089 129.497 271.987 128.303 274.08 126.75C275.008 126.07 275.854 125.251 276.561 124.447C277.392 123.545 277.877 122.907 278.307 121.908C278.806 120.895 279.305 119.785 279.582 118.662C280.053 117.122 280.316 115.499 280.247 113.82C280.233 112.724 280.413 111.462 280.247 110.435C280.039 109.186 279.803 108.049 279.208 106.884C278.917 106.218 278.625 105.566 278.293 104.955C278.14 104.664 278.196 104.317 278.445 104.109C278.445 104.109 278.459 104.109 278.473 104.095C279.651 103.582 280.413 103.651 281.674 104.539C281.882 104.83 282.104 105.108 282.326 105.385C283.393 106.773 284.931 107.841 286.317 108.854C288.368 110.227 291.154 111.684 293.593 111.933C296.462 112.28 299.663 112.405 302.518 111.808C304.805 111.281 306.703 110.088 308.796 108.534C309.725 107.855 310.57 107.036 311.277 106.232C312.108 105.33 312.593 104.692 313.023 103.693C313.522 102.68 314.021 101.57 314.298 100.446C314.769 98.9066 315.033 97.2834 314.963 95.6048C314.949 94.5088 315.13 93.2464 314.963 92.2198C314.755 90.9712 314.52 89.8336 313.924 88.6683C313.356 87.3504 312.801 86.1434 311.887 85.0613L311.776 84.9087C311.208 84.1041 311.277 83.0359 311.928 82.3006C313.009 81.0798 313.148 80.8301 314.437 81.1492L315.573 82.7445C318.248 86.629 321.976 88.3215 326.993 86.9897L333.465 83.5214C336.25 82.0231 338.662 79.9422 340.962 77.5977C342.113 76.4323 342.819 74.7398 343.138 72.8254C343.79 68.927 346.062 65.4865 349.569 63.6692C352.59 62.1015 355.57 60.52 358.494 58.883C361.182 57.3847 363.871 55.4564 366.546 53.5141C368.874 51.8216 371.798 51.3083 374.612 51.9049C374.917 51.9742 375.221 52.0159 375.526 52.0436C378.395 52.3904 381.596 52.5153 384.451 51.9187C386.738 51.3916 388.637 50.1985 390.729 48.6447C391.658 47.9649 392.503 47.1464 393.21 46.3418C394.042 45.4401 394.527 44.8019 394.956 43.803C395.455 42.7903 395.954 41.6805 396.231 40.5568C396.703 39.0169 396.966 37.3937 396.897 35.7151V35.6873C397.271 35.5209 397.645 35.3683 398.019 35.2018C398.366 35.9093 398.74 36.6168 399.142 37.2966C400.625 39.7799 403.895 40.7787 406.778 39.6689C411.268 37.9348 415.121 35.507 419.001 32.9266L423.63 29.8329C425.293 28.7231 426.582 27.1416 427.22 25.3797C427.317 25.1022 427.705 25.0745 427.843 25.3242C428.245 26.0179 428.73 26.6699 429.229 27.308C430.296 28.6953 431.835 29.7636 433.221 30.7763C435.272 32.1497 438.057 33.6064 440.496 33.8561C443.365 34.2029 446.567 34.3278 449.421 33.7312C451.708 33.2041 453.607 32.011 455.699 30.4572C456.074 30.1798 456.42 29.8746 456.767 29.5693C456.282 30.7347 456.088 31.8168 456.309 32.7601C458.402 41.6389 468.075 43.2065 477.375 43.9834L484.235 44.7742C486.161 45.0932 489.196 44.1499 489.681 43.4423C490.18 42.8736 490.693 43.1788 491.053 43.5256C492.994 45.4817 494.629 47.3407 496.264 49.3661C497.664 51.1141 497.401 53.639 495.724 55.1095C494.393 56.2749 493.174 57.6067 492.093 59.0495C490.36 61.3663 490.679 64.7651 492.8 67.0264C496.098 70.5224 499.798 73.1722 503.651 75.7803L508.266 78.8878C509 79.3873 509.804 79.7757 510.622 80.0393C512.41 80.622 513.713 82.1619 514.281 83.9654C514.669 85.1862 515.029 86.4209 515.376 87.6556C515.75 88.9874 515.168 90.4024 513.976 91.1377C512.576 91.984 511.287 93.0383 510.456 94.3285C510.109 94.925 509.887 95.4799 509.68 95.9655C509.444 96.3678 509 96.6591 508.793 97.1031C508.446 97.7412 508.086 98.4349 507.864 99.1563C507.656 99.7945 507.296 100.474 507.171 101.154V101.182C506.922 102.541 506.603 103.984 506.534 105.371C506.603 107.217 506.464 108.937 506.617 110.768C506.714 111.711 507.171 112.35 507.559 113.224C507.989 114.195 508.668 115.096 509.333 115.956C510.4 117.344 511.939 118.412 513.324 119.425C515.14 120.646 517.551 121.908 519.769 122.366C519.963 122.407 520.101 122.574 520.088 122.768C520.088 124.516 520.032 126.264 519.949 128.012C519.893 129.108 519.062 130.024 517.967 130.176L517.718 130.218C515.279 130.579 513.879 132.021 513.2 134.56C511.135 142.357 507.628 149.862 513.2 156.285L513.311 156.424C513.99 157.201 514.211 158.297 513.879 159.268C512.895 162.195 512.424 164.221 510.664 166.704C509.998 167.647 505.855 169.076 505.855 169.076C502.21 168.549 500.81 168.799 497.414 171.005C494.324 172.988 491.386 176.498 489.46 179.994L476.682 203.093C476.682 203.093 476.654 203.162 476.64 203.204L475.67 207.962C475.67 207.962 475.67 208.045 475.67 208.087C475.767 208.795 475.975 209.461 476.266 210.071C476.945 211.514 476.668 213.22 475.407 214.191C474.977 214.51 474.561 214.843 474.132 215.162C472.136 216.647 469.392 216.661 467.382 215.19C466.842 214.788 466.302 214.483 465.761 214.288V214.316C461.382 212.679 455.977 211.93 451.68 213.178C450.087 213.636 447.98 214.899 446.483 215.551L441.577 217.715C433.484 221.294 424.878 230.811 423.325 239.149C423.131 239.204 422.937 239.26 422.743 239.301C421.981 236.596 419.888 234.723 417.324 233.724C413.666 232.309 410.257 230.339 406.778 228.522C401.179 225.609 396.495 226.649 390.383 227.967C380.848 230.02 369.567 233.835 362.014 239.398C359.589 241.188 358.425 242.964 358.452 245.836C358.009 245.475 357.565 245.183 357.122 244.989C353.726 243.588 349.527 242.825 346.104 243.671C344.843 243.977 343.152 244.906 341.946 245.364L338.038 246.904C333.326 248.763 328.309 253.091 325.357 257.808C324.387 259.362 322.572 260.166 320.77 259.833C312.302 258.307 303.571 257.378 295.311 263.163C295.007 263.371 294.591 263.163 294.591 262.788C294.161 246.293 276.048 245.447 286.927 262.844C287.135 263.177 286.885 263.635 286.483 263.607C279.568 263.052 276.533 259.056 272.888 253.812C272.722 253.577 272.431 253.438 272.153 253.48C261.898 254.922 269.091 273.748 276.186 275.468C280.316 276.467 287.828 271.556 288.396 271.861C288.729 272.042 289.033 276.328 292.9 275.995C292.983 275.995 293.08 275.954 293.136 275.884L295.921 273.165C296.046 273.04 296.06 272.846 295.963 272.694C292.29 266.701 301.409 264.106 306.593 262.941C313.619 261.359 317.458 262.885 322.78 263.968C322.877 264.203 322.821 264.481 322.794 264.744C322.295 271.237 328.781 274.081 335.488 273.942C339.729 273.845 343.623 272.999 347.67 271.82C350.082 271.112 352.701 270.696 354.932 269.614C359.034 267.616 362.776 264.203 364.148 259.875C364.259 259.528 364.301 259.126 364.328 258.696C366.13 259.917 367.973 260.097 370.662 259.93C372.27 259.833 374.584 260.139 376.372 259.598C385.422 256.809 389.274 250.136 401.318 251.066L410.534 251.773C412.017 251.884 414.276 251.44 415.966 251.163C419.459 250.594 422.563 246.723 422.993 242.548C423.02 242.548 423.062 242.548 423.09 242.534C423.658 249.886 431.627 252.814 439.706 252.314C445.098 251.967 450.031 250.691 455.117 248.985C458.153 247.958 461.465 247.292 464.25 245.794C469.378 243.033 473.952 238.497 475.49 232.906C475.961 231.186 475.49 228.48 474.423 225.664C473.522 223.264 474.395 220.573 476.474 219.075C477.527 218.311 478.58 217.535 479.606 216.716C480.133 216.3 480.729 215.981 481.366 215.759C483.043 215.204 484.637 214.594 486.341 214.052C492.495 214.705 498.385 213.095 503.928 209.891L516.013 202.885H516.027L521.307 199.361C525.52 196.545 525.465 186.82 524.689 185.113L520.781 176.637C520.781 176.637 520.78 176.609 520.753 176.595L518.508 172.947C518.508 172.947 518.411 172.822 518.355 172.766C517.953 172.447 517.537 172.17 517.094 171.906C515.182 170.783 514.419 168.41 515.223 166.343C515.417 165.83 515.611 165.331 515.805 164.817C516.678 162.514 519.062 161.155 521.487 161.543L521.764 161.585L524.703 162.056C529.636 162.847 534.404 159.06 534.182 153.705L533.891 146.352C533.766 143.189 532.935 140.109 531.84 137.002C531.285 135.434 530.038 134.019 528.403 132.895C525.576 130.925 523.982 127.638 524.12 124.197C524.12 123.92 524.148 123.656 524.148 123.379C524.148 123.032 524.453 122.754 524.799 122.754C526.393 122.768 527.987 122.671 529.484 122.366C531.771 121.839 533.669 120.646 535.762 119.092C536.69 118.412 537.536 117.594 538.243 116.789C539.074 115.887 539.559 115.249 539.989 114.25C540.488 113.237 540.987 112.128 541.264 111.004C541.735 109.464 541.998 107.841 541.929 106.162C541.915 105.066 542.095 103.804 541.929 102.777L541.998 102.805ZM197.371 70.4114C197.981 71.3132 197.704 72.5895 196.734 73.0889C194.322 74.3375 192.341 76.1826 191.066 79.1514C189.61 82.5226 188.973 85.6579 190.04 89.1955L190.899 92.0533C192.341 96.8395 197.829 99.4754 202.541 96.9505L205.396 95.4245C206.809 94.6614 208.569 95.4522 208.957 97.006V97.0476C209.027 97.2834 208.916 97.5193 208.694 97.6303C206.615 98.643 204.398 100.003 203.178 101.917C202.832 102.514 202.61 103.068 202.402 103.554C202.166 103.956 201.723 104.248 201.515 104.692C201.169 105.33 200.808 106.023 200.587 106.745C200.379 107.383 200.018 108.063 199.894 108.743V108.77C199.644 110.13 199.325 111.573 199.256 112.96C199.325 114.805 199.187 116.525 199.339 118.357C199.436 119.3 199.894 119.938 200.282 120.812C200.711 121.783 201.39 122.685 202.056 123.545C202.208 123.739 202.388 123.92 202.554 124.114C201.418 124.225 200.282 124.447 199.228 124.932C196.942 125.987 194.253 127.443 192.853 129.621C192.507 130.218 192.285 130.773 192.077 131.258C191.842 131.661 191.398 131.952 191.19 132.396C190.844 133.034 190.483 133.728 190.262 134.449C190.054 135.087 189.694 135.767 189.569 136.447V136.475C189.319 137.834 189.001 139.277 188.931 140.664C188.959 141.344 188.959 141.996 188.945 142.662C188.834 142.593 188.723 142.509 188.613 142.44C186.88 141.4 185.009 140.22 183.221 139.804C180.671 139.152 177.983 138.847 175.405 139.194C173.922 139.263 172.384 139.443 170.984 140.082C168.697 141.136 166.009 142.593 164.609 144.771C164.263 145.367 164.041 145.922 163.833 146.408C163.597 146.81 163.154 147.101 162.946 147.545C162.6 148.183 162.239 148.877 162.017 149.599C161.81 150.237 161.449 150.916 161.325 151.596V151.624C161.075 152.984 160.756 154.426 160.687 155.814C160.756 157.659 160.618 159.379 160.77 161.21C160.77 161.349 160.826 161.46 160.839 161.585C160.354 161.71 159.855 161.821 159.357 161.932C159.398 161.127 159.44 160.322 159.329 159.601C159.121 158.352 158.885 157.215 158.289 156.049C157.721 154.732 157.167 153.525 156.252 152.442C155.254 151.027 153.356 149.779 151.817 148.808C150.085 147.767 148.214 146.588 146.426 146.172C143.876 145.52 141.188 145.215 138.61 145.561C137.127 145.631 135.589 145.811 134.189 146.449C131.902 147.504 129.214 148.96 127.814 151.138C127.467 151.735 127.246 152.29 127.038 152.775C126.802 153.178 126.359 153.469 126.151 153.913C125.804 154.551 125.444 155.245 125.222 155.966C125.014 156.604 124.654 157.284 124.529 157.964V157.992C124.28 159.351 123.961 160.794 123.892 162.181C123.892 162.514 123.906 162.847 123.906 163.18C123.351 163.111 122.811 163.041 122.257 162.972C122.118 161.835 121.799 160.655 121.259 159.448C120.233 157.132 117.531 155.606 115.784 153.76C112.472 150.264 109.077 147.781 104.42 146.283C103.242 145.908 101.454 144.84 100.124 144.521C93.943 143.05 81.8166 141.552 75.6771 143.536C75.4554 143.605 75.2336 143.425 75.2752 143.189C75.3722 142.44 75.4276 141.663 75.3861 140.886C75.3722 139.79 75.5524 138.528 75.3861 137.501C75.1782 136.253 74.9426 135.115 74.3466 133.95C73.7784 132.632 73.2241 131.425 72.3094 130.343C71.3116 128.928 69.4129 127.679 67.8746 126.708C66.1422 125.668 64.2713 124.488 62.4835 124.072C59.9335 123.42 57.2449 123.115 54.6671 123.462C53.1842 123.531 51.6459 123.712 50.2462 124.35C49.3592 124.752 48.4168 125.224 47.516 125.765C47.2111 125.945 46.8646 125.695 46.9339 125.349C47.1834 124.225 47.2942 123.059 47.2527 121.866C47.2388 120.77 47.419 119.508 47.2527 118.481C47.0448 117.233 46.8092 116.095 46.2133 114.93C45.645 113.612 45.0907 112.405 44.176 111.323C43.1782 109.908 41.2795 108.659 39.7412 107.688C38.0088 106.648 36.1379 105.469 34.3501 105.052C31.8001 104.4 29.1115 104.095 26.5337 104.442C25.0509 104.511 23.5125 104.692 22.1128 105.33C22.0712 105.344 22.0296 105.371 21.9881 105.385C23.1799 103.942 23.9006 102.056 23.8174 99.9193L23.5264 92.5666C23.4017 89.4036 22.5701 86.3238 21.4753 83.2162C21.0734 82.0925 20.325 81.052 19.3272 80.1364L20.1864 78.1387C22.0296 78.1942 23.8867 78.111 25.6329 77.7503C27.9196 77.2231 29.8183 76.03 31.911 74.4762C32.8395 73.7965 33.6849 72.978 34.3917 72.1594C35.2232 71.2577 35.7083 70.6195 36.1379 69.6207C36.6368 68.608 37.1357 67.4981 37.4129 66.3744C37.8841 64.8345 38.1474 63.2114 38.0781 61.5327C38.0643 60.4368 38.2444 59.1743 38.0781 58.1477C37.8703 56.8992 37.6347 55.7616 37.0387 54.5962C36.4705 53.2783 35.9162 52.0713 35.0015 50.9893C34.7936 50.6979 34.5441 50.4066 34.267 50.1291C34.3224 50.0598 34.3778 49.9904 34.4333 49.9072C35.8607 50.6008 37.3713 51.1419 38.7711 51.2945C41.6399 51.6413 44.8412 51.7661 47.6962 51.1696C49.9829 50.6424 51.8815 49.4493 53.9742 47.8956C54.9027 47.2158 55.7481 46.3973 56.4549 45.5927C57.2864 44.6909 57.7715 44.0528 58.2011 43.0539C58.7001 42.0412 59.199 40.9313 59.4761 39.8076C59.6563 39.2111 59.8087 38.6145 59.9196 38.0041C59.9612 37.7683 60.1968 37.6434 60.4047 37.7544C61.9984 38.6007 63.7585 39.2943 65.3661 39.4608C68.2349 39.8076 71.4363 39.9325 74.2912 39.3359C76.5779 38.8088 78.4766 37.6157 80.5693 36.0619C81.4978 35.3821 82.3432 34.5636 83.05 33.759C83.6043 33.1486 84.0062 32.663 84.3389 32.1081C84.4359 31.9555 84.6299 31.9 84.7823 31.9832C86.6117 33.0515 88.7459 33.9948 90.6723 34.2029C93.5411 34.5498 96.7425 34.6746 99.5974 34.0781C101.884 33.5509 103.783 32.3578 105.875 30.804C106.804 30.1243 107.649 29.3058 108.356 28.5011C109.188 27.5994 109.673 26.9612 110.102 25.9624C110.31 25.5323 110.532 25.0745 110.726 24.6028C111.225 24.6722 111.724 24.7415 112.223 24.8248C112.361 25.6433 112.763 26.2676 113.124 27.0583C113.553 28.0294 114.232 28.9312 114.898 29.7913C115.965 31.1786 117.503 32.2468 118.889 33.2596C120.94 34.633 123.726 36.0897 126.165 36.3394C129.033 36.6862 132.235 36.8111 135.09 36.2145C137.377 35.6873 139.275 34.4943 141.368 32.9405C141.881 32.5659 142.366 32.1359 142.823 31.6919C142.865 31.7058 142.92 31.7197 142.962 31.7335C142.962 31.8445 142.934 31.9555 142.934 32.0665C143.003 33.9116 142.865 35.6318 143.017 37.4631C143.114 38.4064 143.571 39.0446 143.959 39.9186C144.389 40.8897 145.068 41.7915 145.733 42.6516C146.8 44.0389 148.339 45.1071 149.725 46.1198C151.776 47.4933 154.561 48.9499 157.001 49.1996C159.869 49.5465 163.071 49.6713 165.926 49.0748C166.757 48.8806 167.533 48.5754 168.296 48.2147C168.115 49.2274 167.921 50.2679 167.88 51.2667C167.949 53.1118 167.81 54.8321 167.963 56.6633C168.06 57.6067 168.517 58.2448 168.905 59.1188C169.335 60.0899 170.014 60.9917 170.679 61.8518C171.746 63.2391 173.285 64.3073 174.671 65.3201C176.722 66.6935 179.507 68.1502 181.946 68.3999C184.815 68.7467 188.017 68.8716 190.872 68.275C191.149 68.2056 191.426 68.1363 191.703 68.0392C193.671 67.4149 195.805 68.0392 196.956 69.7594L197.357 70.356L197.371 70.4114ZM274.953 261.914L285.707 266.881C285.943 266.992 285.998 267.311 285.818 267.491C280.621 272.513 275.951 265.161 274.468 262.428C274.302 262.109 274.634 261.762 274.953 261.914Z" fill="black" stroke="black" stroke-width="2" mask="url(#path-1-inside-1_4698_6023)"/>
</svg>
