<svg width="453" height="781" viewBox="0 0 453 781" fill="none" xmlns="http://www.w3.org/2000/svg">
<path d="M121.04 331.375C120.06 331.826 118.28 329.115 117.86 328.125C116.74 325.495 116.3 325.085 115.33 322.285C113.74 317.695 105.08 287.425 106.82 285.735C107.4 285.175 120.13 285.975 122.85 285.705C131.17 284.865 141.4 281.565 147.82 280.185C148.13 280.115 148.82 280.185 149.47 280.575C152.35 282.905 155.72 285.355 159.31 286.335C161.58 286.965 165.74 286.576 167.86 285.595L175.7 281.965C176.39 281.645 177.89 280.515 178.4 279.925L185.12 272.115L192.05 263.795C193.74 261.775 193.83 258.565 193.46 255.685C193.25 254.015 193.77 252.335 194.88 251.065L194.9 251.045C198.55 246.865 206.5 231.375 207.65 231.095C210.33 230.445 229.17 236.505 233.86 236.895C243.18 237.655 253.37 236.915 262.7 234.235C263.96 233.875 265.34 233.915 266.54 234.445C266.92 234.615 267.32 234.755 267.74 234.865C273.76 236.485 279.92 237.085 286.22 236.525C290.62 236.135 293.54 229.295 295.57 225.055C297.05 221.965 298.17 218.975 298.29 215.385C297.89 214.235 297.33 213.135 296.64 212.115C294.63 209.135 293.66 205.575 294.18 202.015C294.22 201.775 294.25 201.525 294.28 201.285C295.7 190.165 290.8 130.145 292.24 129.295C293.35 128.635 309.78 141.625 313.08 143.155C326.42 149.375 353.03 149.145 378.56 143.955C379.75 143.995 380.44 144.195 381.32 145.105C381.55 145.435 381.79 145.755 382.04 146.065C382.91 147.205 384.18 148.075 385.32 148.905C387 150.035 389.29 151.215 391.29 151.425C393.65 151.705 396.26 151.805 398.62 151.325C400.5 150.885 402.05 149.915 403.77 148.645C404.53 148.095 405.23 147.415 405.8 146.755C406.49 146.015 406.88 145.495 407.24 144.675C407.65 143.845 408.06 142.935 408.28 142.015C408.67 140.755 408.88 139.415 408.82 138.045C408.8 137.145 408.76 136.245 408.73 135.795C408.71 135.545 408.79 135.115 409.35 134.935C423.5 129.145 434.19 121.685 438.84 112.745C445.25 100.405 447.22 87.1255 445.73 74.1655C445.59 72.9855 446.08 71.8255 447.03 71.1155H447.05C447.81 70.5455 448.51 69.8755 449.08 69.2155C449.76 68.4755 450.16 67.9555 450.51 67.1355C450.92 66.3055 451.33 65.3955 451.55 64.4755C451.94 63.2155 452.15 61.8755 452.09 60.5055C452.07 59.6055 452.23 58.5755 452.09 57.7255C451.92 56.6955 451.72 55.7755 451.23 54.8155C450.76 53.7355 450.31 52.7355 449.56 51.8555C448.74 50.6955 447.18 49.6755 445.92 48.8755C444.49 48.0255 442.97 47.0555 441.5 46.7155C441.18 46.6355 440.85 46.5555 440.52 46.4855C438.21 46.0055 436.2 44.6155 435.02 42.5755C413.16 4.87549 363.01 -17.9645 318.6 18.1355C317.61 18.9455 316.23 19.0655 315.11 18.4455C314.27 17.9855 313.41 17.5855 312.57 17.3855C310.48 16.8455 308.27 16.6055 306.16 16.8855C304.94 16.9455 303.68 17.0855 302.54 17.6155C300.66 18.4755 298.45 19.6755 297.3 21.4655C297.02 21.9555 296.84 22.4055 296.66 22.8055C296.47 23.1355 296.1 23.3755 295.94 23.7355C295.66 24.2655 295.35 24.8355 295.18 25.4255C295.01 25.9455 294.71 26.5055 294.61 27.0655L294.47 27.6155C294.22 28.5655 294.09 29.5555 294.09 30.5355C294.15 32.0455 294.03 33.4655 294.15 34.9555C294.23 35.7255 294.61 36.2555 294.93 36.9655C295.29 37.7655 295.84 38.5055 296.39 39.2055L296.41 39.2355C297.77 40.9955 298.03 43.3555 297.11 45.3855C288.25 65.0055 288.15 87.7955 288.12 110.255C288.12 112.285 285.68 113.305 284.23 111.885C279.81 107.575 272.56 99.4355 267.27 93.3455C265.93 91.8055 265.7 89.1155 266.57 87.2755C266.92 86.5255 267.12 85.6755 267.14 84.7255C267.16 83.7455 267.13 81.7055 266.66 80.7955C264.28 76.1855 260.94 72.5755 257.28 68.9855L249.73 61.5555C248.07 59.9355 245.93 58.6755 243.47 58.7255C242.9 58.6355 242.83 58.6055 242.65 58.4555C242.2 58.0755 227.03 33.5555 221.79 29.3155C220.31 28.1055 215.98 25.3355 214.55 26.7255C213.12 28.1055 228.55 46.8155 230.5 49.6155C232.16 51.9955 233.8 54.3855 235.44 56.7655C237.08 59.1455 237.19 62.0755 236.1 64.6955C234.93 67.4755 234.97 70.6255 235.97 73.7255H235.98C237.23 77.6055 238.09 81.2755 240.5 84.4255C242.63 87.2055 245.28 89.6355 248.05 91.9655C249.04 92.7955 250.81 92.9255 251.96 93.0155C253.48 93.1255 254.68 93.0155 255.73 92.7855C258.31 92.2255 260.98 93.2955 262.57 95.3955C268.65 103.455 275.04 111.295 281.99 118.765C285.58 122.625 287.58 127.715 287.55 132.985C287.43 154.235 292.31 177.485 290.14 196.175C289.61 200.745 286.59 204.645 282.35 206.445L282.29 206.465L275.19 209.515C272.35 210.735 269.89 211.735 268.19 214.535C267.3 215.995 265.72 217.855 265.06 219.575L262.78 225.585C262.7 225.795 262.63 225.995 262.57 226.205C261.89 228.575 260.1 230.485 257.68 230.965C253.35 231.835 248.48 232.385 243.01 232.585C239 232.725 210.78 228.075 209.38 226.665C208.08 225.365 218.57 207.075 205.63 191.565C202.5 187.805 197.14 184.275 191.35 181.745C189.69 181.015 188.32 179.755 187.49 178.145V178.125C187.01 177.045 186.56 176.045 185.8 175.165C184.98 174.005 183.42 172.985 182.16 172.185C180.74 171.335 179.21 170.365 177.74 170.025C175.65 169.485 173.44 169.245 171.32 169.515C170.1 169.575 168.84 169.715 167.7 170.245C165.82 171.105 163.61 172.305 162.46 174.095C162.18 174.585 162 175.035 161.82 175.435C161.63 175.765 161.26 176.005 161.1 176.365C160.82 176.895 160.51 177.465 160.34 178.055C160.17 178.575 159.87 179.135 159.77 179.695V179.725C159.67 180.815 159.42 181.225 158.98 182.495C158.68 183.305 157.96 184.065 157.62 184.205C153.67 186.035 152.27 184.975 150.87 184.365C148.93 183.515 126.04 160.715 121.32 156.725C117.72 153.675 114.06 150.965 110.37 148.555C108.2 147.145 106.91 144.695 107.05 142.105C107.11 140.985 106.82 139.825 106.15 138.695C105.64 137.855 104.54 136.145 103.67 135.615C99.21 132.965 94.46 131.675 89.46 130.565L79.13 128.265C76.87 127.765 74.38 127.835 72.32 129.185L69.66 132.755C69.42 133.495 68.72 133.965 67.94 133.935C37.5 132.375 12.34 150.605 9.03 180.705C8.84 180.775 8.65 180.835 8.47 180.915C6.59 181.775 4.38 182.975 3.23 184.765C2.95 185.255 2.77 185.705 2.59 186.105C2.4 186.435 2.03 186.675 1.87 187.035C1.58 187.565 1.28 188.125 1.11 188.725C0.94 189.245 0.64 189.805 0.54 190.365L0.34 191.175C0.11 192.055 0 192.945 0 193.845C0.06 195.355 -0.06 196.775 0.07 198.265C0.15 199.035 0.53 199.565 0.85 200.275C1.21 201.075 1.76 201.815 2.31 202.515C3.18 203.655 4.45 204.525 5.59 205.355C7.27 206.475 9.54 207.655 11.53 207.875C13.32 214.415 15.97 221.265 19.61 228.395C27.13 243.165 38.63 254.695 52.05 263.815C52.05 263.815 52.05 263.815 52.05 263.835C51.88 264.325 51.62 264.855 51.52 265.375L51.32 266.185C51.11 267.055 51 267.945 51 268.845C51.06 270.355 50.94 271.775 51.07 273.265C51.15 274.035 51.53 274.565 51.85 275.275C52.21 276.075 52.76 276.815 53.31 277.515C54.18 278.655 55.45 279.525 56.59 280.355C58.28 281.485 60.56 282.675 62.56 282.875C64.92 283.155 67.53 283.255 69.89 282.775C71.77 282.335 73.32 281.365 75.04 280.095C75.8 279.546 76.5 278.865 77.07 278.205C77.24 278.025 77.39 277.855 77.53 277.685C85.74 281.285 94.17 284.305 102.46 286.895C102.46 286.895 102.46 286.895 102.46 286.905C104.11 302.785 108.91 319.625 115.2 334.395C115.49 335.085 115.49 335.865 115.18 336.555C114.99 336.885 114.62 337.135 114.46 337.495C114.17 338.025 113.87 338.585 113.7 339.175C113.53 339.695 113.23 340.255 113.13 340.815L112.98 341.395C112.74 342.335 112.61 343.305 112.61 344.275C112.67 345.785 112.55 347.206 112.67 348.695C112.75 349.465 113.13 349.995 113.45 350.705C113.81 351.505 114.36 352.245 114.91 352.945C115.79 354.086 117.05 354.956 118.19 355.785C119.87 356.915 122.16 358.105 124.16 358.305H124.2C127.2 358.665 129.9 360.235 131.75 362.625C140.12 373.465 157.25 385.516 159.36 390.475C159.54 390.905 159.8 392.345 159.76 392.535L159.5 393.665C159.33 394.435 159.24 395.215 159.24 395.995C159.3 397.505 159.18 398.926 159.31 400.415C159.39 401.185 159.77 401.715 160.09 402.425C160.45 403.225 161 403.965 161.55 404.665C162.42 405.806 163.69 406.676 164.83 407.505C166.52 408.635 168.8 409.825 170.8 410.025C173.16 410.305 175.77 410.405 178.13 409.925C178.5 409.845 178.84 409.715 179.18 409.595C178.08 410.715 177.05 411.915 176.09 413.195C173.77 416.285 174.2 420.855 177.04 423.865H177.05C181.47 428.555 186.43 432.105 191.6 435.595L197.78 439.755C202.17 442.715 208.14 442.975 211.66 438.805C211.89 438.535 212.52 438.195 213.05 438.575C223.74 449.625 232.45 461.255 239.37 475.815C239.37 475.826 239.37 475.835 239.35 475.835C215.07 473.785 185.05 482.835 178.77 509.495C177.66 514.215 177.21 518.546 177.32 522.516C177.37 524.195 176.69 525.786 175.61 527.076C175.45 527.276 175.29 527.476 175.16 527.695C174.88 528.185 174.7 528.635 174.52 529.035C174.33 529.365 173.96 529.605 173.8 529.965C173.51 530.495 173.21 531.055 173.04 531.646C172.87 532.166 172.57 532.725 172.47 533.285L172.21 534.456C172.04 535.206 171.95 535.975 171.95 536.755C172.01 538.266 171.89 539.685 172.01 541.175C172.09 541.945 172.47 542.475 172.79 543.185C173.15 543.985 173.7 544.725 174.25 545.425C175.12 546.565 176.39 547.435 177.53 548.266C179.21 549.396 181.5 550.585 183.5 550.785C185.86 551.065 188.47 551.165 190.83 550.685C191.07 550.625 191.31 550.565 191.54 550.495C192.91 550.055 194.38 550.076 195.71 550.635C219.21 560.555 256.34 544.165 251.71 499.775C250.68 489.945 241.49 479.595 256.1 488.125C271.76 497.266 281.25 517.745 278.5 535.665C276.36 549.545 245.59 579.175 222.3 602.815C221.75 603.516 220.84 603.896 220.37 603.685C219.14 603.146 218.33 602.685 216.85 602.336C214.76 601.796 212.55 601.555 210.43 601.826C209.21 601.885 207.95 602.035 206.81 602.555C204.93 603.425 202.72 604.615 201.57 606.405C201.29 606.895 201.11 607.345 200.93 607.745C200.74 608.076 200.37 608.315 200.21 608.675C199.93 609.206 199.62 609.766 199.45 610.365C199.28 610.885 198.98 611.445 198.88 612.005L198.76 612.456C198.5 613.435 198.36 614.455 198.36 615.465C198.42 616.975 198.3 618.396 198.42 619.885C198.5 620.656 198.88 621.185 199.2 621.896C199.56 622.695 200.11 623.435 200.66 624.135H200.67C201.23 624.885 201.21 626.075 200.62 626.785C200.48 626.955 200.34 627.125 200.21 627.285C176.95 655.925 159.35 687.846 153.56 722.505C153.32 723.925 152.41 725.146 151.09 725.745H151.07C149.24 726.595 147.1 727.755 145.98 729.495C145.7 729.975 145.53 730.405 145.36 730.795C145.18 731.115 144.82 731.356 144.66 731.706C144.38 732.216 144.09 732.765 143.92 733.345C143.75 733.845 143.47 734.396 143.37 734.945L143.17 735.766C142.97 736.596 142.86 737.456 142.86 738.315C142.92 739.785 142.81 741.165 142.92 742.615C143 743.365 143.37 743.875 143.68 744.565C144.03 745.336 144.56 746.055 145.1 746.745C145.95 747.855 147.18 748.695 148.28 749.495L148.31 749.516C150.34 750.875 151.62 753.095 151.77 755.535C152.26 763.865 153.46 772.336 155.47 780.935C155.47 780.945 155.49 780.956 155.5 780.935C159.57 775.295 155.61 764.586 155.43 757.695C155.43 757.615 155.43 757.536 155.43 757.456C155.36 754.656 157.49 752.375 160.26 751.995C160.58 751.956 160.89 751.896 161.2 751.836C163.03 751.416 164.53 750.465 166.2 749.225C166.94 748.685 167.61 748.036 168.17 747.385C168.84 746.666 169.22 746.165 169.56 745.365C169.96 744.565 170.35 743.675 170.57 742.785C170.95 741.565 171.15 740.266 171.1 738.935C171.08 738.065 171.23 737.055 171.1 736.235C170.93 735.235 170.74 734.345 170.27 733.405C169.81 732.365 169.38 731.385 168.65 730.535C167.85 729.405 166.34 728.416 165.12 727.646C163.73 726.815 162.25 725.875 160.82 725.545L160.76 725.526C159 725.076 157.86 723.335 158.19 721.545C164.2 688.885 179.5 660.096 201.22 632.445C201.42 632.185 201.63 631.925 201.84 631.665C203.5 629.585 206.24 628.645 208.82 629.295C209.18 629.385 209.54 629.455 209.89 629.485C212.25 629.766 214.87 629.865 217.22 629.385C219.1 628.945 220.65 627.976 222.37 626.706C223.13 626.156 223.83 625.475 224.4 624.815C225.08 624.076 225.48 623.555 225.83 622.735C226.24 621.905 226.65 620.995 226.87 620.076C227.26 618.815 227.47 617.485 227.41 616.105C227.39 615.205 227.55 614.175 227.41 613.326C227.24 612.295 227.04 611.375 226.55 610.415C226.55 610.405 226.55 610.396 226.54 610.385C226.06 608.276 226.6 606.685 227.66 604.605C265.57 567.765 312.2 523.875 257.47 483.615C254.27 481.265 247.8 480.105 244.9 477.015C241.76 473.665 238.8 463.525 235.84 459.115C229.95 450.365 223.32 442.525 216.26 435.245C215.48 434.435 215.25 433.266 215.61 432.195C216.3 430.135 216.51 427.925 216.14 425.395C215.6 421.655 214.34 418.576 212.49 415.285C210.52 411.775 208.74 408.425 206.31 405.045C204.42 402.435 199.64 400.355 196.4 400.765C192.73 401.225 186.48 404.275 186.23 404.115C186.4 403.855 186.55 403.575 186.7 403.245C187.11 402.415 187.52 401.505 187.75 400.585C188.14 399.325 188.35 397.995 188.29 396.615C188.27 395.715 188.43 394.685 188.29 393.835C188.12 392.805 187.92 391.885 187.43 390.925C186.96 389.845 186.51 388.845 185.76 387.965C184.94 386.805 183.38 385.785 182.12 384.985C180.7 384.135 179.17 383.165 177.7 382.825C175.61 382.285 173.4 382.045 171.28 382.325C170.06 382.385 168.8 382.525 167.66 383.055C165.78 383.925 163.57 385.115 162.42 386.905C162.3 387.115 162.2 387.315 162.11 387.515C152.7 379.065 143.78 370.155 135.96 360.045C134.86 358.625 135.13 356.585 136.57 355.515L136.6 355.495C137.36 354.945 138.06 354.265 138.63 353.605C139.31 352.865 139.71 352.345 140.06 351.525C140.47 350.695 140.88 349.785 141.1 348.875C141.49 347.615 141.7 346.275 141.64 344.905C141.62 344.005 141.78 342.975 141.64 342.125C141.47 341.095 141.28 340.175 140.78 339.215C140.31 338.135 139.86 337.135 139.11 336.255C138.29 335.095 136.73 334.075 135.47 333.275C134.04 332.425 132.52 331.455 131.05 331.115C128.96 330.575 126.75 330.335 124.63 330.615M247.85 513.225C245.26 542.555 217.68 554.895 198.86 547.095C198.19 546.965 198.45 545.795 198.65 545.576C199.33 544.836 199.63 544.055 199.99 543.235C200.4 542.405 200.4 542.315 200.63 541.405C201.02 540.145 201.23 538.805 201.17 537.435C201.15 536.535 201.31 535.505 201.17 534.655C201 533.625 200.81 532.706 200.31 531.745C199.84 530.665 199.39 529.665 198.64 528.785C197.82 527.625 196.26 526.605 195 525.805C193.57 524.956 192.05 523.986 190.57 523.646C188.47 523.106 187.41 522.595 185.29 522.875L184.68 523.016C184.2 523.016 183.78 522.675 183.77 522.665C182.08 521.825 181.39 520.495 181.5 518.605C182.72 496.765 203.42 481.805 224.49 480.525C226.71 480.395 241.74 481.135 242.55 481.705C245.17 483.555 248.28 508.595 247.86 513.225H247.85ZM101.75 280.585H101.77C100.22 281.945 89.16 277.785 79.61 273.695V273.675C80.03 272.355 80.27 270.945 80.21 269.495C80.19 268.595 80.35 267.565 80.21 266.715C80.04 265.685 79.84 264.765 79.35 263.805C78.88 262.725 78.43 261.725 77.68 260.845C76.86 259.685 75.3 258.665 74.04 257.865C72.61 257.015 71.09 256.046 69.62 255.705C67.53 255.165 65.32 254.925 63.2 255.205C61.98 255.265 60.72 255.405 59.58 255.935C57.7 256.795 55.49 257.995 54.34 259.785C54.31 259.845 54.29 259.896 54.26 259.945C32.91 244.775 20.79 226.165 16.11 208.105C16.11 208.105 16.11 208.085 16.12 208.085C17.1 208.055 18.08 207.975 19.01 207.785C20.89 207.345 22.44 206.375 24.16 205.105C24.92 204.555 25.62 203.875 26.19 203.215C26.87 202.475 27.27 201.955 27.62 201.135C28.03 200.305 28.44 199.395 28.66 198.475C29.05 197.215 29.26 195.875 29.2 194.505C29.18 193.605 29.34 192.575 29.2 191.725C29.03 190.695 28.83 189.775 28.34 188.815C27.87 187.735 27.42 186.735 26.67 185.855C25.85 184.695 24.29 183.675 23.03 182.875C21.6 182.025 20.08 181.055 18.61 180.715C17.34 180.385 16.03 180.195 14.72 180.135C14.72 180.135 14.7 180.135 14.71 180.115C18.89 155.455 37.78 136.885 65.15 138.065C67.41 138.165 69.39 139.495 70.42 141.515C71.25 143.155 72.48 144.635 73.99 145.905H74.01C77.12 148.525 79.8 151.185 83.5 152.575C86.78 153.805 90.31 154.465 93.9 154.975C95.18 155.155 96.75 154.335 97.77 153.795C98.5 153.415 99.11 153.025 99.64 152.625C101.5 151.245 104.05 151.215 106 152.455C111.86 156.175 117.9 160.685 124.08 166.045C127.46 168.975 146.38 187.785 145.79 189.745C145.55 190.545 134.54 197.945 132.61 199.775C118.09 213.615 101.6 237.935 99.69 258.345C99.21 263.465 102.59 279.845 101.75 280.585ZM191.64 248.835C190.93 249.445 189.86 249.375 189.2 248.715C187.07 246.485 183.4 247.335 180.73 248.315L168.36 252.865L157.81 256.575C152.51 258.435 147.65 261.396 145.26 266.885C144.48 268.665 145.08 270.465 145.53 272.265C145.9 273.755 146.21 275.275 146.79 276.715V276.735C138.79 279.745 131.13 281.645 125.07 281.645C122.3 281.645 106.46 281.225 105.67 280.675C104.4 279.785 103.62 261.385 103.96 258.455C106.65 234.665 126.52 209.505 146.42 195.545C148.63 193.995 151.66 194.245 153.54 196.185C164.28 207.285 203.23 227.325 203.14 230.175C203.09 231.825 195.54 245.505 191.65 248.845L191.64 248.835ZM203.28 223.195C201.69 222.985 178.87 208.715 175.76 206.585C172.09 204.075 167.89 201.545 164.46 198.715C163.45 197.885 156.48 190.985 155.97 190.455C155.7 190.175 156.12 189.425 156.22 189.285C156.37 189.065 158.19 187.675 158.94 187.565C159.15 187.485 159.32 187.565 159.41 187.835C159.5 188.125 159.88 188.895 160.2 189.615C160.56 190.415 161.11 191.155 161.66 191.855C162.53 192.995 163.8 193.865 164.94 194.695C166.63 195.825 168.91 197.005 170.91 197.215C173.27 197.495 175.88 197.595 178.24 197.115C180.12 196.685 181.67 195.705 183.39 194.435C184.15 193.885 184.85 193.205 185.42 192.545C186.1 191.805 186.5 191.285 186.85 190.465C187.26 189.635 187.67 188.725 187.9 187.815C188.27 186.615 189.61 186.015 190.75 186.535C197.04 189.445 202.67 193.735 205.06 198.545C207.31 203.085 210.68 224.215 203.27 223.215L203.28 223.195ZM432.98 112.795C429.18 119.165 420.16 124.225 408.12 129.055C407.23 129.415 406.21 129.425 405.35 128.985C405.22 128.925 405.13 128.855 405.08 128.805C404.26 127.645 403.28 127.305 402.02 126.505C400.59 125.655 399.07 124.685 397.6 124.345C395.51 123.805 393.3 123.565 391.18 123.845C389.96 123.905 388.7 124.055 387.56 124.575C385.68 125.435 383.47 126.635 382.32 128.425C382.04 128.915 381.86 129.365 381.68 129.765C381.49 130.095 381.12 130.335 380.96 130.695C380.67 131.225 380.37 131.795 380.2 132.385C380.03 132.905 379.73 133.465 379.63 134.025V134.055C379.45 135.105 379.2 136.225 379.13 137.305L378.8 138.205C377.98 139.175 377.3 139.405 376.51 139.595C359.97 143.655 345.43 145.475 336.72 145.415C321.16 145.285 292.45 130.835 291.23 113.385C289.61 90.2155 292.17 66.2155 301.48 46.5855C302.1 45.2755 303.5 44.5255 304.94 44.6755H305.04C307.4 44.9655 310.01 45.0655 312.37 44.5855C314.25 44.1455 315.8 43.1755 317.52 41.9055C318.28 41.3555 318.98 40.6755 319.55 40.0155C320.23 39.2755 320.63 38.7555 320.98 37.9355C321.39 37.1055 321.8 36.1955 322.03 35.2755C322.42 34.0155 322.63 32.6755 322.57 31.3055C322.55 30.4055 322.71 29.3755 322.57 28.5255C322.4 27.4955 322.2 26.5755 321.71 25.6155C321.24 24.5355 320.39 23.3955 320.12 22.5755C319.92 22.0955 320.52 21.2555 320.75 21.1455C329.29 13.6555 338.85 9.01549 352.14 6.01549C377.13 0.385488 389.26 5.48549 408.32 21.0855C415.44 26.9155 421.97 34.2655 427.27 42.5055C428.79 44.8655 428.36 47.8955 426.41 49.9155C426.11 50.2255 425.85 50.5555 425.62 50.9055C425.34 51.3955 425.16 51.8455 424.98 52.2455C424.79 52.5755 424.42 52.8155 424.26 53.1755C423.97 53.7055 423.67 54.2655 423.5 54.8655C423.33 55.3855 423.03 55.9455 422.93 56.5055L422.68 57.5955C422.5 58.3755 422.41 59.1755 422.41 59.9755C422.47 61.4855 422.35 62.9055 422.47 64.3955C422.55 65.1655 422.93 65.6955 423.25 66.4055C423.61 67.2055 424.16 67.9455 424.71 68.6455C425.58 69.7855 426.85 70.6555 427.99 71.4855C429.67 72.6155 431.96 73.7955 433.96 74.0055H434.02C437.61 74.4255 440.35 77.3855 440.56 80.9955C441.18 91.8855 438.99 102.795 433.01 112.805L432.98 112.795Z" fill="black"/>
</svg>
