<svg width="120" height="353" viewBox="0 0 120 353" fill="none" xmlns="http://www.w3.org/2000/svg">
<path d="M109.508 28.6769C109.997 28.7743 110.369 24.3497 110.551 23.804C110.766 23.1558 111.353 22.5024 111.54 21.9157C111.886 20.8269 111.635 19.0949 112.06 17.7883C112.449 16.597 113.131 15.795 113.464 14.4449C114.122 11.7727 114.322 8.7802 114.619 6.07213C114.658 5.71088 114.95 3.60745 115.022 3.47679C115.252 3.06943 116.326 2.89265 116.561 3.39737C117.051 4.15829 116.195 5.47774 116.067 6.12081C115.631 8.35746 115.344 10.8401 114.883 13.0255C114.281 15.8796 113.415 18.2264 112.828 21.1651C112.536 22.6254 111.509 23.8859 111.304 24.9236C111.148 25.7178 111.407 26.7349 111.173 27.7392C110.874 29.0305 109.867 30.6113 109.572 31.7744C109.377 32.5431 109.521 33.573 109.388 34.4236C108.837 37.9413 107.351 41.0029 106.042 44.2567C101.43 55.709 93.9796 67.7044 86.8571 77.8193C81.4128 85.5515 76.4783 92.2717 68.6744 97.8595C67.9903 98.3489 64.6597 100.165 64.4496 100.524L64.8826 109.814L64.2523 113.539C62.6331 122.488 60.5502 131.445 57.9215 140.213C57.2682 142.39 56.0461 145.009 55.6874 147.217C55.4696 148.565 55.7259 150.179 55.175 151.573L63.8347 149.697C68.7384 149.467 73.2911 150.54 77.9361 151.798C90.2057 155.124 103.431 164.15 107.223 176.924C107.412 177.564 107.666 182.865 107.466 183.229C107.366 183.408 106.982 183.488 106.859 183.721C106.749 183.928 106.984 184.951 106.792 185.509C105.937 187.994 104.85 190.641 103.047 192.67C98.6297 197.63 92.7677 199.529 86.3524 199.864C79.317 200.236 70.9161 197.138 65.7203 192.386C62.4153 189.363 59.3127 184.72 57.7012 180.398C57.4808 179.809 57.6038 179.178 57.4142 178.661C57.1785 178.015 56.5406 177.336 56.4125 176.714C56.351 176.409 56.6328 176.114 56.4996 175.689C56.1358 174.541 55.7745 173.844 55.4082 172.515C53.9734 167.309 52.4157 162.243 52.4234 156.92C52.4234 155.997 53.0716 154.972 52.5746 154.037C52.1288 154.178 51.8854 154.65 51.5062 154.862C49.4002 156.038 47.0406 156.886 44.8731 158.011C41.7525 159.63 37.6225 163.127 34.6557 165.356C30.8716 168.203 28.0277 171.221 23.9387 174.085C19.1477 177.441 14.2824 180.859 9.94232 184.843C7.50839 187.077 7.02672 188.912 5.64835 191.691C4.55436 193.9 3.29896 196.014 2.66102 198.473C1.89753 201.425 1.79249 203.933 1.93084 206.971C2.05638 209.731 2.03076 212.672 2.3587 215.357C2.96846 220.381 4.69015 225.887 6.43745 230.673C7.38284 233.258 9.01998 235.307 10.5854 237.434C11.1004 238.133 11.167 238.976 11.559 239.694C13.8366 243.872 20.6824 249.107 25.0737 251.003C32.7034 254.297 43.7714 255.478 52.1057 256.124C55.5286 256.388 58.1752 256.534 61.6262 256.439C72.2791 256.152 82.2455 257.264 92.5423 259.585C102.342 261.796 111.717 267.628 116.246 277.051C118.327 281.375 120.166 290.983 119.597 295.759C117.737 311.39 106.467 322.88 93.2212 330.364C87.5617 333.561 81.3436 335.788 75.1922 338.096C67.4267 341.012 59.6688 342.946 52.3542 346.922C49.9305 348.239 46.9868 349.346 44.8936 351.009C44.2326 351.534 43.8252 352.485 42.8901 352.72C42.2777 352.339 42.5775 351.716 42.6825 351.111C41.9882 350.799 41.422 351.314 40.7789 351.452C40.5099 351.511 40.328 351.647 40.2332 351.291C40.8148 350.717 41.4297 349.105 42.0062 348.795C42.785 348.38 44.622 348.539 45.6443 348.196C48.8827 347.107 52.1134 344.396 55.2109 343.243C61.4136 340.932 68.3951 339.282 74.5081 336.851C76.1478 336.2 78.2384 334.737 79.9627 334.138C81.2206 333.702 84.2131 333.318 85.2968 332.76C85.8246 332.488 86.2371 331.845 86.8879 331.484C90.3594 329.57 92.9138 328.663 96.3392 326.196C103.018 321.384 111.471 314.982 114.799 307.106C115.132 306.319 115.8 305.054 116.008 304.382C116.11 304.055 115.952 303.588 116.046 303.342C116.2 302.945 116.664 302.738 116.894 302.013C117.968 298.636 118.508 291.201 117.619 287.806C115.339 279.111 114.389 274.135 106.749 268.499C100.011 263.526 95.4092 261.832 87.2389 260.264C82.5401 259.362 77.8336 258.73 73.0093 258.596C69.1765 258.489 65.4411 257.974 61.5596 258.202C55.8001 258.543 50.7171 257.774 45.0345 257.195C38.6986 256.552 31.2251 255.614 25.1967 253.144C21.5535 251.651 14.0006 246.47 11.7152 243.304C10.6776 241.866 10.0269 239.963 9.07891 238.51C8.3846 237.444 7.24962 236.368 6.57837 235.223C4.62097 231.872 3.81137 227.199 2.4868 223.494C2.24853 222.825 1.71307 222.249 1.49785 221.552C1.31083 220.945 1.50042 219.828 1.39281 219.118C0.585771 213.809 -0.287882 208.042 0.0912985 202.665C0.498662 196.877 5.02065 187.193 9.24288 183.124C10.4906 181.922 13.0526 179.586 14.3567 178.617C15.1074 178.059 15.8581 177.782 16.806 177.085C21.3792 173.724 25.4426 171.157 29.7699 167.378C34.484 163.261 39.872 158.429 45.552 155.92C48.1269 154.783 50.4557 153.082 53.087 152.077C53.2484 151.806 53.0793 150.192 53.1536 149.766C53.6737 146.846 54.6908 143.976 55.5568 141.16C57.3912 135.196 59.282 129.037 60.8499 123.039C61.6134 120.116 61.7389 117.213 62.2565 114.285C62.464 113.119 63.2249 111.4 63.3428 110.239C63.4529 109.168 63.0225 106.993 62.9405 105.781C62.8406 104.254 63.2249 102.648 62.5152 101.226C61.6544 101.303 61.2009 102.1 60.7423 102.358C57.673 104.09 49.0082 103.465 45.8108 102.105C43.815 101.254 40.7277 99.4198 39.2904 97.7161C31.3763 88.3467 41.9011 78.2702 51.7675 81.9647C54.8599 83.1227 58.5415 85.9128 60.4502 88.5594C62.4845 91.3801 63.2403 95.1592 64.2369 98.4283C65.4078 97.8288 66.5274 97.1012 67.5932 96.3377C73.8702 91.8439 77.8464 87.45 82.2403 81.2652C85.9271 76.0771 89.7343 70.6354 92.9624 65.191C95.4271 61.0354 97.984 56.7722 100.282 52.4731C102.698 47.9511 104.543 43.4086 106.077 38.5561C106.608 36.8806 107.092 34.6132 107.154 32.8659C107.195 31.7335 106.854 30.4319 107.033 29.2688C107.261 27.8007 108.209 26.6171 108.35 24.9569C108.517 22.9713 107.674 21.411 107.64 19.6432C107.604 17.7729 108.294 16.3254 108.032 14.0503C107.681 10.9938 107.223 8.5778 106.354 5.59815C106.206 5.09087 105.552 3.98151 105.511 3.67919C105.498 3.57671 105.593 1.7218 105.645 1.63469C106.177 0.702108 107.289 1.4246 107.871 1.23245C108.306 1.08898 110.11 -0.0126993 110.325 0.000110829C111.839 0.0974681 111.271 2.27776 111.309 3.29745C111.399 5.67758 111.491 9.02872 111.314 11.4088C111.219 12.6668 110.712 13.8966 110.576 15.0956C110.433 16.3689 110.735 17.8293 110.592 19.0053C110.459 20.1146 109.698 21.2906 109.59 22.4666C109.475 23.722 109.767 25.2925 109.521 26.6529C109.372 27.4651 108.527 27.975 109.5 28.6718L109.508 28.6769ZM109.436 14.0862C110.19 13.0639 109.708 12.3132 109.636 11.3679C109.577 10.589 110.054 9.89724 109.252 9.07739C109.055 9.54368 108.847 11.1526 108.898 11.601C108.944 12.0109 109.234 12.3056 109.277 12.613C109.339 13.069 108.903 13.5738 109.439 14.0862H109.436ZM50.3533 83.3559C48.1627 83.1278 45.5059 82.8716 43.3564 83.8862C40.3946 85.2851 37.1178 89.0461 38.3322 92.551C40.4766 98.7358 47.0124 101.39 53.0152 101.636C56.4791 101.779 59.0719 101.131 62.2513 99.717C62.7791 99.2507 61.7108 95.382 61.4443 94.6724C59.7354 90.1299 57.6294 87.1989 53.4405 84.8495C53.087 84.6523 50.5249 83.3738 50.3558 83.3559H50.3533ZM80.4572 154.206C80.1907 154.14 79.8243 154.296 79.481 154.209C75.3023 153.164 70.9161 151.468 66.6478 151.365C63.9653 151.301 62.6613 151.675 60.194 152.374C59.4844 152.574 58.5313 152.387 57.8933 152.541C57.4527 152.649 55.6054 153.42 55.3339 153.686C55.1238 154.665 54.3244 155.966 54.3424 157.032C54.4807 164.967 57.2503 174.003 60.2402 181.292C62.9047 187.787 67.2268 192.639 73.6831 195.437C80.5571 198.417 86.0654 198.781 93.2033 196.987C100.7 195.104 106.81 186.662 105.87 178.927C104.904 171 96.4058 162.594 89.8547 158.777C88.9119 158.229 86.8725 157.537 86.1577 157.045C85.1636 156.358 81.7074 154.516 80.4597 154.204L80.4572 154.206Z" fill="black"/>
<path d="M109.508 28.6769C109.997 28.7743 110.369 24.3497 110.551 23.804C110.766 23.1558 111.353 22.5024 111.54 21.9157C111.886 20.8269 111.635 19.0949 112.06 17.7883C112.449 16.597 113.131 15.795 113.464 14.4449C114.122 11.7727 114.322 8.7802 114.619 6.07213C114.658 5.71088 114.95 3.60745 115.022 3.47679C115.252 3.06943 116.326 2.89265 116.561 3.39737C117.051 4.15829 116.195 5.47774 116.067 6.12081C115.631 8.35746 115.344 10.8401 114.883 13.0255C114.281 15.8796 113.415 18.2264 112.828 21.1651C112.536 22.6254 111.509 23.8859 111.304 24.9236C111.148 25.7178 111.407 26.7349 111.173 27.7392C110.874 29.0305 109.867 30.6113 109.572 31.7744C109.377 32.5431 109.521 33.573 109.388 34.4236C108.837 37.9413 107.351 41.0029 106.042 44.2567C101.43 55.709 93.9796 67.7044 86.8571 77.8193C81.4128 85.5515 76.4783 92.2717 68.6744 97.8595C67.9903 98.3489 64.6597 100.165 64.4496 100.524L64.8826 109.814L64.2523 113.539C62.6331 122.488 60.5502 131.445 57.9215 140.213C57.2682 142.39 56.0461 145.009 55.6874 147.217C55.4696 148.565 55.7259 150.179 55.175 151.573L63.8347 149.697C68.7384 149.467 73.2911 150.54 77.9361 151.798C90.2057 155.124 103.431 164.15 107.223 176.924C107.412 177.564 107.666 182.865 107.466 183.229C107.366 183.408 106.982 183.488 106.859 183.721C106.749 183.928 106.984 184.951 106.792 185.509C105.937 187.994 104.85 190.641 103.047 192.67C98.6297 197.63 92.7677 199.529 86.3524 199.864C79.317 200.236 70.9161 197.138 65.7203 192.386C62.4153 189.363 59.3127 184.72 57.7012 180.398C57.4808 179.809 57.6038 179.178 57.4142 178.661C57.1785 178.015 56.5406 177.336 56.4125 176.714C56.351 176.409 56.6328 176.114 56.4996 175.689C56.1358 174.541 55.7745 173.844 55.4082 172.515C53.9734 167.309 52.4157 162.243 52.4234 156.92C52.4234 155.997 53.0716 154.972 52.5746 154.037C52.1288 154.178 51.8854 154.65 51.5062 154.862C49.4002 156.038 47.0406 156.886 44.8731 158.011C41.7525 159.63 37.6225 163.127 34.6557 165.356C30.8716 168.203 28.0277 171.221 23.9387 174.085C19.1477 177.441 14.2824 180.859 9.94232 184.843C7.50839 187.077 7.02672 188.912 5.64835 191.691C4.55436 193.9 3.29896 196.014 2.66102 198.473C1.89753 201.425 1.79249 203.933 1.93084 206.971C2.05638 209.731 2.03076 212.672 2.3587 215.357C2.96846 220.381 4.69015 225.887 6.43745 230.673C7.38284 233.258 9.01998 235.307 10.5854 237.434C11.1004 238.133 11.167 238.976 11.559 239.694C13.8366 243.872 20.6824 249.107 25.0737 251.003C32.7034 254.297 43.7714 255.478 52.1057 256.124C55.5286 256.388 58.1752 256.534 61.6262 256.439C72.2791 256.152 82.2455 257.264 92.5423 259.585C102.342 261.796 111.717 267.628 116.246 277.051C118.327 281.375 120.166 290.983 119.597 295.759C117.737 311.39 106.467 322.88 93.2212 330.364C87.5617 333.561 81.3436 335.788 75.1922 338.096C67.4267 341.012 59.6688 342.946 52.3542 346.922C49.9305 348.239 46.9868 349.346 44.8936 351.009C44.2326 351.534 43.8252 352.485 42.8901 352.72C42.2777 352.339 42.5775 351.716 42.6825 351.111C41.9882 350.799 41.422 351.314 40.7789 351.452C40.5099 351.511 40.328 351.647 40.2332 351.291C40.8148 350.717 41.4297 349.105 42.0062 348.795C42.785 348.38 44.622 348.539 45.6443 348.196C48.8827 347.107 52.1134 344.396 55.2109 343.243C61.4136 340.932 68.3951 339.282 74.5081 336.851C76.1478 336.2 78.2384 334.737 79.9627 334.138C81.2206 333.702 84.2131 333.318 85.2968 332.76C85.8246 332.488 86.2371 331.845 86.8879 331.484C90.3594 329.57 92.9138 328.663 96.3392 326.196C103.018 321.384 111.471 314.982 114.799 307.106C115.132 306.319 115.8 305.054 116.008 304.382C116.11 304.055 115.952 303.588 116.046 303.342C116.2 302.945 116.664 302.738 116.894 302.013C117.968 298.636 118.508 291.201 117.619 287.806C115.339 279.111 114.389 274.135 106.749 268.499C100.011 263.526 95.4092 261.832 87.2389 260.264C82.5401 259.362 77.8336 258.73 73.0093 258.596C69.1765 258.489 65.4411 257.974 61.5596 258.202C55.8001 258.543 50.7171 257.774 45.0345 257.195C38.6986 256.552 31.2251 255.614 25.1967 253.144C21.5535 251.651 14.0006 246.47 11.7152 243.304C10.6776 241.866 10.0269 239.963 9.07891 238.51C8.3846 237.444 7.24962 236.368 6.57837 235.223C4.62097 231.872 3.81137 227.199 2.4868 223.494C2.24853 222.825 1.71307 222.249 1.49785 221.552C1.31083 220.945 1.50042 219.828 1.39281 219.118C0.585771 213.809 -0.287882 208.042 0.0912985 202.665C0.498662 196.877 5.02065 187.193 9.24288 183.124C10.4906 181.922 13.0526 179.586 14.3567 178.617C15.1074 178.059 15.8581 177.782 16.806 177.085C21.3792 173.724 25.4426 171.157 29.7699 167.378C34.484 163.261 39.872 158.429 45.552 155.92C48.1269 154.783 50.4557 153.082 53.087 152.077C53.2484 151.806 53.0793 150.192 53.1536 149.766C53.6737 146.846 54.6908 143.976 55.5568 141.16C57.3912 135.196 59.282 129.037 60.8499 123.039C61.6134 120.116 61.7389 117.213 62.2565 114.285C62.464 113.119 63.2249 111.4 63.3428 110.239C63.4529 109.168 63.0225 106.993 62.9405 105.781C62.8406 104.254 63.2249 102.648 62.5152 101.226C61.6544 101.303 61.2009 102.1 60.7423 102.358C57.673 104.09 49.0082 103.465 45.8108 102.105C43.815 101.254 40.7277 99.4198 39.2904 97.7161C31.3763 88.3467 41.9011 78.2702 51.7675 81.9647C54.8599 83.1227 58.5415 85.9128 60.4502 88.5594C62.4845 91.3801 63.2403 95.1592 64.2369 98.4283C65.4078 97.8288 66.5274 97.1012 67.5932 96.3377C73.8702 91.8439 77.8464 87.45 82.2403 81.2652C85.9271 76.0771 89.7343 70.6354 92.9624 65.191C95.4271 61.0354 97.984 56.7722 100.282 52.4731C102.698 47.9511 104.543 43.4086 106.077 38.5561C106.608 36.8806 107.092 34.6132 107.154 32.8659C107.195 31.7335 106.854 30.4319 107.033 29.2688C107.261 27.8007 108.209 26.6171 108.35 24.9569C108.517 22.9713 107.674 21.411 107.64 19.6432C107.604 17.7729 108.294 16.3254 108.032 14.0503C107.681 10.9938 107.223 8.5778 106.354 5.59815C106.206 5.09087 105.552 3.98151 105.511 3.67919C105.498 3.57671 105.593 1.7218 105.645 1.63469C106.177 0.702108 107.289 1.4246 107.871 1.23245C108.306 1.08898 110.11 -0.0126993 110.325 0.000110829C111.839 0.0974681 111.271 2.27776 111.309 3.29745C111.399 5.67758 111.491 9.02872 111.314 11.4088C111.219 12.6668 110.712 13.8966 110.576 15.0956C110.433 16.3689 110.735 17.8293 110.592 19.0053C110.459 20.1146 109.698 21.2906 109.59 22.4666C109.475 23.722 109.767 25.2925 109.521 26.6529C109.372 27.4651 108.527 27.975 109.5 28.6718L109.508 28.6769ZM109.436 14.0862C110.19 13.0639 109.708 12.3132 109.636 11.3679C109.577 10.589 110.054 9.89724 109.252 9.07739C109.055 9.54368 108.847 11.1526 108.898 11.601C108.944 12.0109 109.234 12.3056 109.277 12.613C109.339 13.069 108.903 13.5738 109.439 14.0862H109.436ZM50.3533 83.3559C48.1627 83.1278 45.5059 82.8716 43.3564 83.8862C40.3946 85.2851 37.1178 89.0461 38.3322 92.551C40.4766 98.7358 47.0124 101.39 53.0152 101.636C56.4791 101.779 59.0719 101.131 62.2513 99.717C62.7791 99.2507 61.7108 95.382 61.4443 94.6724C59.7354 90.1299 57.6294 87.1989 53.4405 84.8495C53.087 84.6523 50.5249 83.3738 50.3558 83.3559H50.3533ZM80.4572 154.206C80.1907 154.14 79.8243 154.296 79.481 154.209C75.3023 153.164 70.9161 151.468 66.6478 151.365C63.9653 151.301 62.6613 151.675 60.194 152.374C59.4844 152.574 58.5313 152.387 57.8933 152.541C57.4527 152.649 55.6054 153.42 55.3339 153.686C55.1238 154.665 54.3244 155.966 54.3424 157.032C54.4807 164.967 57.2503 174.003 60.2402 181.292C62.9047 187.787 67.2268 192.639 73.6831 195.437C80.5571 198.417 86.0654 198.781 93.2033 196.987C100.7 195.104 106.81 186.662 105.87 178.927C104.904 171 96.4058 162.594 89.8547 158.777C88.9119 158.229 86.8725 157.537 86.1577 157.045C85.1636 156.358 81.7074 154.516 80.4597 154.204L80.4572 154.206Z" fill="black" fill-opacity="0.2"/>
<path d="M9.28491 176.509C9.34242 176.209 9.50434 175.905 9.59902 175.629C9.69369 175.313 9.85915 175.01 10.0158 174.727C10.1069 174.534 10.3095 174.402 10.413 174.227C10.5112 174.014 10.6077 173.774 10.7634 173.511C11.3943 172.554 12.6056 171.915 13.639 171.452C14.2673 171.171 14.9609 171.094 15.629 171.062C16.7916 170.913 18.0029 171.044 19.1514 171.332C19.9601 171.518 20.798 172.034 21.5811 172.49C22.273 172.917 23.1268 173.462 23.5781 174.084C23.9922 174.556 24.239 175.092 24.4965 175.668C24.7664 176.181 24.8743 176.673 24.9672 177.225C25.0442 177.678 24.9601 178.232 24.9699 178.713C25.0017 179.447 24.8867 180.163 24.6717 180.837C24.5461 181.325 24.3222 181.816 24.0983 182.258C23.9028 182.699 23.6869 182.976 23.3109 183.372C22.995 183.727 22.6128 184.088 22.1951 184.385C21.2502 185.066 20.399 185.588 19.3664 185.821C18.0746 186.079 16.6377 186.023 15.3432 185.874C14.2451 185.762 12.9896 185.127 12.0641 184.524C11.4385 184.081 10.7448 183.617 10.2653 183.006C9.96001 182.629 9.65918 182.232 9.46275 181.806C9.28845 181.426 9.08052 181.143 9.03627 180.731C8.96991 179.933 9.03451 179.173 9 178.365C9.03008 177.757 9.17785 177.122 9.28137 176.527L9.28579 176.51V176.509H9.28491Z" fill="black"/>
<path d="M25.2849 250.509C25.3424 250.209 25.5043 249.905 25.599 249.629C25.6937 249.313 25.8591 249.01 26.0158 248.727C26.1069 248.534 26.3095 248.402 26.413 248.227C26.5112 248.014 26.6077 247.774 26.7634 247.511C27.3943 246.554 28.6056 245.915 29.639 245.452C30.2673 245.171 30.9609 245.094 31.629 245.062C32.7916 244.913 34.0029 245.044 35.1514 245.332C35.9601 245.518 36.798 246.034 37.5811 246.49C38.273 246.917 39.1268 247.462 39.5781 248.084C39.9922 248.556 40.239 249.092 40.4965 249.668C40.7664 250.181 40.8743 250.673 40.9672 251.225C41.0442 251.678 40.9601 252.232 40.9699 252.713C41.0017 253.447 40.8867 254.163 40.6717 254.837C40.5461 255.325 40.3222 255.816 40.0983 256.258C39.9028 256.699 39.6869 256.976 39.3109 257.372C38.995 257.727 38.6128 258.088 38.1951 258.385C37.2502 259.066 36.399 259.588 35.3664 259.821C34.0746 260.079 32.6377 260.023 31.3432 259.874C30.2451 259.762 28.9896 259.127 28.0641 258.524C27.4385 258.081 26.7448 257.617 26.2653 257.006C25.96 256.629 25.6592 256.232 25.4628 255.806C25.2884 255.426 25.0805 255.143 25.0363 254.731C24.9699 253.933 25.0345 253.173 25 252.365C25.0301 251.757 25.1778 251.122 25.2814 250.527L25.2858 250.51V250.509H25.2849Z" fill="black"/>
<path d="M39.2849 252.509C39.3424 252.209 39.5043 251.905 39.599 251.629C39.6937 251.313 39.8591 251.01 40.0158 250.727C40.1069 250.534 40.3095 250.402 40.413 250.227C40.5112 250.014 40.6077 249.774 40.7634 249.511C41.3943 248.554 42.6056 247.915 43.639 247.452C44.2673 247.171 44.9609 247.094 45.629 247.062C46.7916 246.913 48.0029 247.044 49.1514 247.332C49.9601 247.518 50.798 248.034 51.5811 248.49C52.273 248.917 53.1268 249.462 53.5781 250.084C53.9922 250.556 54.239 251.092 54.4965 251.668C54.7664 252.181 54.8743 252.673 54.9672 253.225C55.0442 253.678 54.9601 254.232 54.9699 254.713C55.0017 255.447 54.8867 256.163 54.6717 256.837C54.5461 257.325 54.3222 257.816 54.0983 258.258C53.9028 258.699 53.6869 258.976 53.3109 259.372C52.995 259.727 52.6128 260.088 52.1951 260.385C51.2502 261.066 50.399 261.588 49.3664 261.821C48.0746 262.079 46.6377 262.023 45.3432 261.874C44.2451 261.762 42.9896 261.127 42.0641 260.524C41.4385 260.081 40.7448 259.617 40.2653 259.006C39.96 258.629 39.6592 258.232 39.4628 257.806C39.2884 257.426 39.0805 257.143 39.0363 256.731C38.9699 255.933 39.0345 255.173 39 254.365C39.0301 253.757 39.1778 253.122 39.2814 252.527L39.2858 252.51V252.509H39.2849Z" fill="black"/>
<path d="M104.285 270.509C104.342 270.209 104.504 269.905 104.599 269.629C104.694 269.313 104.859 269.01 105.016 268.727C105.107 268.534 105.31 268.402 105.413 268.227C105.511 268.014 105.608 267.774 105.763 267.511C106.394 266.554 107.606 265.915 108.639 265.452C109.267 265.171 109.961 265.094 110.629 265.062C111.792 264.913 113.003 265.044 114.151 265.332C114.96 265.518 115.798 266.034 116.581 266.49C117.273 266.917 118.127 267.462 118.578 268.084C118.992 268.556 119.239 269.092 119.497 269.668C119.766 270.181 119.874 270.673 119.967 271.225C120.044 271.678 119.96 272.232 119.97 272.713C120.002 273.447 119.887 274.163 119.672 274.837C119.546 275.325 119.322 275.816 119.098 276.258C118.903 276.699 118.687 276.976 118.311 277.372C117.995 277.727 117.613 278.088 117.195 278.385C116.25 279.066 115.399 279.588 114.366 279.821C113.075 280.079 111.638 280.023 110.343 279.874C109.245 279.762 107.99 279.127 107.064 278.524C106.439 278.081 105.745 277.617 105.265 277.006C104.96 276.629 104.659 276.232 104.463 275.806C104.288 275.426 104.081 275.143 104.036 274.731C103.97 273.933 104.035 273.173 104 272.365C104.03 271.757 104.178 271.122 104.281 270.527L104.286 270.51V270.509H104.285Z" fill="black"/>
</svg>
