<svg width="316" height="737" viewBox="0 0 316 737" fill="none" xmlns="http://www.w3.org/2000/svg">
<path d="M315.2 8.99998C314.83 7.84998 312.48 7.92998 311.88 8.73998C311.69 8.99998 310.49 13.42 310.3 14.19C308.92 19.91 307.66 26.26 305.52 31.8C304.44 34.6 302.75 36.13 301.59 38.57C300.32 41.25 300.38 45.03 299.34 47.26C298.78 48.46 297.34 49.7 296.7 51.03C296.16 52.15 294.15 61.52 293.13 61.18C291.24 59.41 293.19 58.55 293.73 56.85C294.63 54 294.44 50.56 295.03 47.91C295.58 45.42 297.54 43.11 298.13 40.77C298.76 38.29 298.51 35.08 299.18 32.39C299.8 29.86 301.23 27.37 301.78 24.7C302.81 19.65 303.54 12.44 304.01 7.32998C304.21 5.13998 306.02 0.619978 302.81 -0.0100222C302.35 -0.100022 298.18 1.75998 297.21 1.94998C295.91 2.19998 293.73 0.339978 292.33 2.19998C292.2 2.36998 291.48 6.31998 291.48 6.53998C291.48 7.19998 292.58 9.75998 292.76 10.88C293.79 17.5 294.11 22.8 294.02 29.44C293.95 34.38 292.08 37.29 291.64 41.31C291.22 45.11 292.6 48.68 291.69 52.89C290.93 56.41 288.58 58.68 287.68 61.76C286.97 64.2 287.34 67.08 286.94 69.5C286.87 69.91 286.79 70.34 286.7 70.77C286.24 72.95 284.34 74.53 282.12 74.64H282.08C280.24 74.56 277.98 75.35 276.17 76C274.18 76.78 271.99 77.58 270.47 78.81C268.27 80.52 266.28 82.58 264.89 84.96C263.99 86.25 263.14 87.65 262.77 89.23C262.17 91.83 261.65 95.03 262.56 97.61C262.83 98.26 263.14 98.79 263.39 99.27C263.41 99.3 263.42 99.33 263.43 99.36C263.6 99.8 263.56 100.35 263.8 100.8C264.11 101.51 264.45 102.26 264.92 102.91C265.31 103.49 265.66 104.24 266.15 104.79L266.17 104.82C266.22 104.88 266.27 104.93 266.32 104.99C266.2 104.93 266.08 104.85 265.96 104.79C263.67 103.68 261.63 104.08 259.55 105.86C253.19 111.32 245.77 115.69 246.72 124.43C246.94 126.49 247.35 128.36 248.12 130.06C248.83 131.62 248.69 133.44 247.63 134.79L247.61 134.81C245.48 137.54 243.37 140.04 241.1 142.75C241.06 142.81 240.76 142.73 240.7 142.67C239.9 141.83 239.01 141.2 238.03 140.68C236.85 140.04 235.75 139.51 234.39 139.26C232.92 138.89 231.55 138.56 230.05 138.63C228.21 138.55 225.95 139.34 224.14 139.99C222.15 140.77 219.96 141.57 218.44 142.8C216.24 144.51 214.25 146.57 212.86 148.95C211.96 150.24 211.11 151.64 210.74 153.22C210.14 155.82 209.62 159.02 210.53 161.6C210.64 161.87 210.76 162.12 210.88 162.35C211.23 163.03 211.44 163.76 211.66 164.49C211.69 164.59 211.73 164.68 211.77 164.78C212.08 165.49 212.42 166.24 212.89 166.89C213.28 167.47 213.63 168.22 214.12 168.77L214.14 168.8L214.16 168.82C215.17 169.92 215.12 171.62 214.06 172.67C206.86 179.83 199.74 185.62 190.84 191C190.06 191.47 189.05 191.28 188.48 190.56C187.51 189.16 186.31 187.89 184.86 186.86C183.93 186.17 182.99 185.2 182.02 184.67C180.84 184.03 179.74 183.5 178.38 183.25C177.27 182.97 176.21 182.72 175.11 182.64C174.53 182.6 174.04 182.2 173.87 181.64C173.26 179.63 172.51 177.7 171.53 175.89C169.82 172.74 167.13 169.38 164.08 166.4C163.62 165.95 163.54 165.26 163.85 164.71C164.03 164.39 164.2 164.08 164.36 163.76C165.4 161.5 165.63 159.15 165.69 156.39C165.72 155.18 165.59 153.93 165.36 152.82C165.14 151.54 164.93 150.73 164.37 149.71C163.85 148.64 163.23 147.5 162.48 146.55C161.51 145.16 160.31 143.89 158.86 142.87C157.93 142.18 156.99 141.21 156.02 140.68C154.84 140.04 153.74 139.51 152.38 139.26C150.91 138.89 149.54 138.56 148.04 138.63C146.2 138.55 143.94 139.34 142.13 139.99C140.14 140.77 137.95 141.57 136.43 142.8C134.23 144.51 132.24 146.57 130.85 148.95C129.95 150.24 129.1 151.64 128.73 153.22C128.57 153.91 128.42 154.64 128.29 155.39C127.75 158.7 126.32 161.82 124.13 164.36C118.75 170.58 117.28 179.77 123.68 189.68C126.29 193.73 132.4 198.51 136.44 200.88C139.9 202.91 146.77 204.92 153.49 205.91C154.27 206.02 154.95 206.49 155.32 207.18C155.36 207.27 155.4 207.34 155.42 207.42C155.55 207.85 155.54 208.36 155.76 208.77C156.07 209.48 156.41 210.23 156.88 210.88C157.27 211.46 157.62 212.21 158.11 212.76L158.13 212.79C159.12 213.87 160.12 215.08 161.25 216.04C162.83 217.17 164.18 218.4 165.79 219.45C166.64 219.97 167.48 220 168.45 220.24C169.55 220.5 169.79 220.69 170.95 220.75C171.34 220.77 172.07 220.86 172.19 221.02C172.43 221.48 171.89 222.44 171.73 223.13C171.16 225.58 169.05 229.05 168.29 231.49C168.04 232.29 167.26 232.79 166.44 232.66C165.86 232.56 165.27 232.51 164.67 232.54C163.14 232.47 161.24 233.13 159.73 233.68C158.06 234.33 156.24 235 154.97 236.03C153.13 237.46 151.47 239.18 150.31 241.17C149.56 242.25 148.85 243.42 148.54 244.74C148.04 246.92 147.6 249.58 148.37 251.74C148.6 252.31 148.87 252.75 149.09 253.17C149.24 253.55 149.21 254.02 149.41 254.4C149.67 254.99 149.96 255.62 150.35 256.16C150.68 256.65 150.97 257.27 151.38 257.73L151.4 257.76C152.22 258.65 153.05 259.65 153.97 260.45C154 260.48 154.03 260.5 154.07 260.53C155.22 261.35 156.23 262.23 157.36 263.02C157.35 263.04 157.34 263.07 157.33 263.09C157.33 263.09 157.32 263.09 157.31 263.09C156.08 262.78 154.93 262.5 153.68 262.57C152.15 262.5 150.25 263.16 148.74 263.71C147.07 264.36 145.25 265.03 143.98 266.06C142.14 267.49 140.48 269.21 139.32 271.2C138.57 272.28 137.86 273.45 137.55 274.77C137.05 276.95 136.61 279.61 137.38 281.77C137.61 282.34 137.88 282.78 138.1 283.2C138.25 283.58 138.22 284.05 138.42 284.43C138.68 285.02 138.97 285.65 139.36 286.19C139.69 286.68 139.98 287.3 140.39 287.76L140.41 287.79C141.22 288.67 142.04 289.66 142.95 290.45C142.99 290.48 143.02 290.51 143.06 290.54H143.08C143.93 291.16 144.23 292.29 143.79 293.24C142.02 297.09 140.3 300.99 139.05 305.01V305.04C138.12 308.09 135.83 310.54 132.84 311.65C128.91 313.12 125.08 314.91 121.07 316.09C111.56 318.9 102.05 324.48 93.1995 330.24C90.3195 332.11 86.6895 332.27 83.6095 330.76C81.2695 329.62 78.2495 329.35 74.5395 328.81C70.9295 328.29 67.2595 329.23 64.0795 331.09C55.5495 336.05 38.6495 344.99 37.6395 352.91C37.5195 353.81 38.0495 355.65 38.9095 357.73C38.4295 357.55 37.9295 357.4 37.3895 357.3C35.9195 356.93 34.5495 356.6 33.0495 356.67C31.2095 356.59 28.9495 357.38 27.1395 358.03C25.1495 358.81 22.9595 359.61 21.4395 360.84C19.2395 362.55 17.2495 364.61 15.8595 366.99C14.9595 368.28 14.1095 369.68 13.7395 371.26C13.1395 373.86 12.6195 377.06 13.5295 379.64C13.7995 380.29 14.1095 380.82 14.3595 381.3C14.3795 381.33 14.3895 381.36 14.3995 381.39C14.5695 381.83 14.5295 382.38 14.7695 382.83C15.0795 383.54 15.4195 384.29 15.8895 384.94C16.2795 385.52 16.6295 386.27 17.1195 386.82L16.8495 386.58L17.1495 386.86C17.2595 386.98 17.2695 387.1 17.1495 387.43C13.9095 393.26 11.7795 398.92 10.8095 403.69C8.50954 415.1 8.79954 427.69 9.05954 439.28C9.07954 440.33 9.32954 441.18 8.55954 442.49C8.46954 442.56 7.25954 444.06 7.16954 444.13C4.96954 445.84 4.15954 446.93 2.76954 449.31C1.86954 450.6 1.01954 452 0.649537 453.58C0.0495372 456.18 -0.470463 459.37 0.439537 461.96C0.709537 462.61 1.01954 463.14 1.27954 463.62C1.29954 463.65 1.30954 463.68 1.31954 463.71C1.48954 464.15 1.44954 464.7 1.68954 465.15C1.99954 465.86 2.33954 466.61 2.80954 467.25C3.19954 467.83 3.54954 468.58 4.03954 469.13L4.06954 469.16C5.04954 470.22 6.03954 471.42 7.13954 472.37C7.16954 472.4 7.20954 472.43 7.24954 472.45C8.80954 473.56 10.1395 474.78 11.7295 475.81C12.5795 476.33 13.4195 476.37 14.3895 476.6H14.4095C15.8595 476.95 17.1095 477.85 17.9095 479.1C18.7095 480.35 19.5695 481.68 20.1695 482.92C21.0195 484.69 21.6695 486.7 22.3595 488.71C22.7495 489.85 22.6295 491.1 22.0195 492.14V492.16C21.1095 493.45 20.2595 494.85 19.8895 496.43C19.2895 499.03 18.7695 502.23 19.6795 504.81C19.9495 505.46 20.2595 505.98 20.5095 506.47C20.5295 506.5 20.5395 506.53 20.5495 506.56C20.7195 507 20.6795 507.55 20.9195 507.99C21.2295 508.7 21.5695 509.45 22.0395 510.09C22.4295 510.67 22.7795 511.42 23.2695 511.97L23.2995 512C24.2795 513.06 25.2595 514.26 26.3695 515.21C26.4095 515.24 26.4395 515.27 26.4795 515.3C28.0395 516.41 29.3695 517.63 30.9595 518.66C31.8095 519.18 32.6495 519.22 33.6195 519.45C34.7195 519.71 35.8995 519.74 37.0595 519.73C38.9195 519.73 40.7995 519.14 42.5395 518.63C42.9295 518.5 43.3295 518.36 43.7295 518.2C45.9795 517.33 48.5095 517.49 50.5995 518.69L50.6295 518.71C62.8495 525.66 78.5995 529.73 91.9895 532.85C92.8095 533.04 93.6195 533.23 94.4295 533.43C95.4495 533.67 96.2795 534.42 96.6195 535.41C96.8895 536.08 97.1995 536.6 97.4595 537.08C97.4795 537.11 97.4895 537.14 97.4995 537.17C97.6695 537.61 97.6295 538.17 97.8695 538.61C98.1795 539.32 98.5195 540.07 98.9895 540.71C99.3795 541.29 99.7295 542.04 100.22 542.59L100.25 542.62C101.23 543.68 102.21 544.88 103.32 545.83C103.35 545.86 103.39 545.89 103.43 545.91C104.99 547.02 106.32 548.24 107.91 549.27C108.76 549.79 109.6 549.83 110.57 550.06C111.67 550.32 112.85 550.35 114.01 550.34C115.86 550.34 117.75 549.75 119.49 549.24C121.97 548.41 124.99 547.02 126.78 545.14C129.97 541.88 134.57 540.4 139.05 541.24C143.19 542.02 147.31 542.9 151.51 543.56C156.16 544.29 160.72 545.23 165.24 546.34C169.76 547.45 173.41 550.78 174.95 555.17L174.97 555.23C175.22 555.83 175.5 556.31 175.74 556.76C175.76 556.79 175.77 556.82 175.78 556.85C175.93 557.26 175.9 557.77 176.12 558.18C176.41 558.83 176.73 559.53 177.16 560.13C177.52 560.67 177.84 561.36 178.3 561.87L178.32 561.9C179.24 562.9 180.17 564.02 181.21 564.91C181.23 564.93 181.25 564.94 181.27 564.96C182.71 565.99 183.95 567.11 185.42 568.07C186.21 568.56 186.98 568.59 187.89 568.8C188.91 569.04 190.01 569.07 191.08 569.06C192.8 569.06 194.54 568.51 196.15 568.04C198.45 567.27 201.24 565.98 202.9 564.24L202.92 564.21C204.44 562.65 206.86 562.45 208.65 563.7C212.65 566.5 216.63 569.85 221.03 574.06C230.67 583.29 234.31 591.14 236.37 600.81C236.83 602.98 235.63 605.17 233.55 605.92H233.52C231.86 606.58 230.03 607.25 228.77 608.27C226.94 609.69 225.28 611.41 224.12 613.39C223.37 614.46 222.66 615.63 222.36 616.95C221.86 619.12 221.42 621.78 222.19 623.93C222.42 624.49 222.69 624.94 222.91 625.35C223.06 625.73 223.03 626.2 223.23 626.58C223.49 627.17 223.77 627.8 224.16 628.33C224.49 628.81 224.77 629.44 225.18 629.9L225.2 629.93C226.02 630.82 226.85 631.83 227.78 632.62C229.11 633.56 230.24 634.59 231.58 635.47C232.29 635.91 232.99 635.93 233.8 636.13C234.71 636.35 235.7 636.37 236.67 636.36C236.88 636.36 237.13 636.72 237.11 637.11C236.07 641.93 234.9 645.67 233.53 648.61C232.84 650.1 231.79 650.41 231.35 651.22C231.08 651.72 231.28 652.76 230.98 653.43C230.35 654.81 228.57 657.34 227.64 658.93C225.63 662.38 223.12 665.62 220.27 668.66C220.18 668.59 220.09 668.51 219.99 668.44C219.31 667.94 218.63 667.23 217.92 666.85C217.06 666.38 216.26 666 215.27 665.82C214.2 665.55 213.2 665.31 212.11 665.36C210.77 665.3 209.12 665.87 207.81 666.35C206.36 666.92 204.77 667.5 203.66 668.39C202.06 669.63 200.61 671.13 199.6 672.87C198.94 673.81 198.33 674.83 198.06 675.98C197.62 677.88 197.24 680.2 197.91 682.08C198.11 682.57 198.34 682.96 198.54 683.32C198.67 683.65 198.64 684.06 198.82 684.39C198.95 684.69 199.09 684.99 199.25 685.28C199.21 685.31 199.16 685.33 199.12 685.36C198.45 684.45 197.65 683.62 196.69 682.94C196.01 682.44 195.33 681.73 194.62 681.35C193.76 680.88 192.96 680.5 191.97 680.32C190.9 680.05 189.9 679.81 188.81 679.86C187.47 679.8 185.83 680.37 184.51 680.85C183.06 681.42 181.47 682 180.36 682.89C178.76 684.13 177.31 685.63 176.3 687.36C175.64 688.3 175.03 689.32 174.76 690.47C174.32 692.37 173.94 694.69 174.61 696.57C174.79 697.83 174.69 698.11 173.59 698.93C169.61 700.44 165.76 701.62 161.16 703.44C159.67 704.03 158.61 705.3 157.4 705.73C154.93 706.63 148.41 706.62 145.6 707.21C141.74 708.02 136.87 710.57 133.18 711.52C131.5 711.95 131.08 711.95 129.35 712.33C128.58 712.36 127.6 711.62 127.45 711.34C127.07 710.56 126.88 710.32 126.33 709.62C125.62 708.61 124.75 707.68 123.7 706.94C123.02 706.44 122.34 705.73 121.63 705.35C120.77 704.88 119.97 704.5 118.98 704.32C117.91 704.05 116.91 703.81 115.82 703.86C114.48 703.8 112.84 704.37 111.52 704.85C110.07 705.42 108.48 706 107.37 706.89C105.77 708.13 104.32 709.63 103.31 711.36C102.65 712.3 102.04 713.32 101.77 714.47V714.5C101.32 716.4 99.8095 717.88 97.8895 718.25C95.2595 718.76 92.6595 719.29 90.1095 719.89C83.1595 721.51 75.4895 726.42 68.2595 727.86C65.9795 728.31 62.0795 727.46 60.2995 728.14C58.9795 728.64 57.2195 731.92 55.8195 732.99C55.9295 733.78 56.3495 733.54 56.9395 733.49C57.6895 733.43 58.4195 733.13 59.1495 732.99C60.0995 732.81 60.8995 733.71 60.6295 734.64V734.68C60.2795 735.84 61.5195 736.88 62.5695 736.28C63.7995 735.59 64.7195 734.36 65.8695 733.66C70.8095 730.68 77.4195 729.12 82.9695 726.96C89.2395 724.53 94.6395 722.95 101.01 721.43C101.62 721.17 102.19 721.76 102.28 722.06C102.41 722.39 102.34 722.55 102.52 722.88C102.75 723.4 103 723.95 103.34 724.41C103.63 724.83 103.88 725.38 104.23 725.78L104.25 725.8C104.97 726.58 105.69 727.46 106.51 728.15C107.67 728.97 108.65 729.87 109.83 730.64C110.45 731.02 111.06 731.05 111.77 731.22C112.57 731.41 113.43 731.43 114.27 731.42C115.62 731.42 116.99 730.99 118.26 730.62C120.06 730.02 122.26 729 123.56 727.64C125.12 726.05 126.7 724.16 127.7 722.14C128.46 720.49 128.88 719.72 128.93 717.71C128.94 717.33 128.75 716.26 129.35 715.69C130.57 715.04 132.05 714.67 134.32 714.36C148.37 712.42 162.05 708.06 175.06 702.77C176.38 702.23 177.87 702.57 178.88 703.58C179.09 703.79 179.3 703.98 179.51 704.17C180.67 704.99 181.65 705.89 182.83 706.66C183.45 707.04 184.06 707.07 184.77 707.24C185.57 707.43 186.43 707.45 187.27 707.44C188.62 707.44 189.99 707.01 191.26 706.64C193.06 706.04 195.26 705.02 196.56 703.66C198.12 702.07 199.7 700.18 200.7 698.16C201.46 696.51 201.62 694.8 201.67 692.79C201.7 691.91 201.59 691 201.43 690.19C201.36 689.76 201.28 689.41 201.19 689.08C201.39 688.94 201.6 688.81 201.81 688.67C202.14 689.02 202.47 689.36 202.83 689.66C203.99 690.48 204.97 691.38 206.15 692.15C206.77 692.53 207.38 692.55 208.09 692.73C208.89 692.92 209.75 692.94 210.59 692.93C211.94 692.93 213.31 692.5 214.58 692.13C216.38 691.52 218.58 690.51 219.88 689.14C221.44 687.55 223.02 685.66 224.02 683.64C224.78 681.99 224.94 680.28 224.99 678.27C225.01 677.39 224.91 676.48 224.75 675.67C224.59 674.73 224.43 674.13 224.02 673.39L224.07 672.95C224.4 669.97 225.57 667.15 227.35 664.74C233.6 656.31 238.37 646.74 241.09 635.93C241.13 635.77 241.16 635.68 241.2 635.52C241.22 635.42 241.45 635.3 241.48 635.27C243.55 634.58 245.85 633.57 247.34 632.01C249.12 630.19 250.93 628.03 252.07 625.71C252.94 623.82 253.13 621.87 253.18 619.57C253.21 618.56 253.09 617.52 252.91 616.6C252.73 615.53 252.55 614.86 252.08 614.01C251.65 613.12 251.13 612.17 250.51 611.38C249.7 610.22 248.7 609.16 247.49 608.31C246.7 607.72 245.91 606.9 245.08 606.46L240.41 600.18C240.01 598.22 239.56 596.45 239.06 594.94C233.72 578.83 223.31 566.63 209.14 558.25C208.32 557.83 208.71 556.04 208.82 555.78C209.1 555.11 209.36 552.92 209.42 550.37C209.45 549.25 209.32 548.1 209.12 547.07C208.92 545.88 208.72 545.13 208.2 544.19C207.72 543.2 207.15 542.14 206.46 541.26C205.56 539.97 204.45 538.79 203.11 537.85C202.25 537.21 201.38 536.31 200.48 535.82C199.38 535.23 198.37 534.74 197.1 534.5C195.74 534.16 194.47 533.85 193.08 533.92C191.38 533.84 189.28 534.57 187.61 535.18C185.76 535.9 183.74 536.64 182.33 537.78C180.29 539.36 178.45 541.27 177.17 543.47V543.49C176.41 544.57 175.05 545.04 173.79 544.67C162.63 541.45 151.4 538.96 139.76 537.24C136.3 536.73 133.75 533.74 133.83 530.24V530.17C133.87 528.96 133.73 527.71 133.5 526.6C133.28 525.32 133.07 524.51 132.51 523.49C131.99 522.42 131.37 521.28 130.63 520.33C129.65 518.94 128.46 517.67 127.01 516.65C126.08 515.96 125.14 514.99 124.17 514.46C122.99 513.82 121.89 513.29 120.53 513.04C119.06 512.67 117.69 512.34 116.19 512.41C114.36 512.33 112.09 513.12 110.28 513.77C108.28 514.55 106.1 515.35 104.58 516.58C102.38 518.29 103.21 517.5 100.48 519.99C99.5795 521.28 97.7695 523.2 97.3995 524.78L97.1195 525.98C96.6295 528.09 94.4995 529.43 92.3795 528.94C77.8995 525.62 68.9195 523.13 59.1895 518.41C54.7195 514.09 53.6495 512.12 55.4995 507.01C55.5095 506.99 55.5195 506.96 55.5395 506.94C56.5795 504.68 56.8095 502.33 56.8695 499.57C56.8995 498.36 56.7695 497.11 56.5395 496C56.3195 494.72 56.1095 493.91 55.5495 492.89C55.0295 491.82 54.4095 490.68 53.6695 489.73C52.6895 488.34 51.4995 487.07 50.0495 486.05C49.1195 485.36 48.1895 484.39 47.2095 483.86C46.0295 483.22 44.9295 482.7 43.5695 482.44C42.0995 482.07 40.7295 481.74 39.2295 481.81C37.3895 481.73 35.1295 482.52 33.3195 483.17C31.3295 483.95 30.9495 484.31 30.3795 484.77C29.7695 485.27 28.4595 485.92 27.5995 486.28C27.1095 486.48 26.1695 484.89 25.7195 484.41C25.0895 483.73 24.6395 482.63 23.7195 480.99C23.2295 480.11 22.7295 479.23 22.2395 478.34C21.6795 477.34 22.2095 476.07 23.3095 475.75H23.3295C25.8095 474.91 28.8295 473.52 30.6195 471.64C32.7595 469.45 34.9295 466.87 36.2995 464.09C37.3395 461.83 37.5695 459.48 37.6295 456.72C37.6595 455.51 37.5295 454.27 37.2995 453.15C37.0795 451.87 36.8695 451.06 36.3095 450.04C35.7895 448.97 35.1695 447.83 34.4295 446.88C33.4495 445.49 32.2595 444.22 30.8095 443.2C29.8795 442.51 28.9395 441.54 27.9695 441.01C26.7895 440.37 25.6895 439.85 24.3295 439.59C22.8595 439.22 21.4795 438.89 19.9895 438.96C18.1495 438.88 16.3095 439.04 14.5195 439.75C13.4595 440.17 12.3995 438.67 12.4795 437.96C12.1895 434.75 12.1695 434.51 12.1895 431.45C12.2295 425.61 13.0995 419.32 13.5895 413.37C14.1295 406.83 15.0395 401.48 17.4895 395.37C17.8195 394.56 18.1095 394.12 18.4095 393.75C19.4795 392.47 20.8695 391.49 22.4195 390.85C22.7595 390.71 22.9895 390.62 22.9895 390.62C24.5795 391.75 23.8295 391.89 25.4495 392.95C26.2995 393.47 26.5095 394.03 27.4895 394.27C28.5895 394.53 29.7695 394.56 30.9295 394.55C32.7795 394.55 34.6695 393.95 36.4095 393.45C38.8895 392.62 41.9095 391.22 43.6995 389.35C45.8395 387.16 48.0095 384.57 49.3795 381.8C50.4195 379.54 50.6495 377.19 50.7095 374.43C50.7395 373.22 50.6095 371.97 50.3795 370.86C50.3095 370.47 50.2495 370.13 50.1795 369.81C50.0095 369.08 50.4195 368.37 51.1395 368.15C52.3595 367.77 53.5495 367.19 54.6595 366.6L68.9595 358.99C73.4795 356.59 78.2495 354.84 82.2895 351.73C83.4395 350.84 84.7895 349 85.8595 347.83C88.0495 345.42 89.4895 342.34 88.8595 339.09V339.07C88.6495 338.02 89.1095 336.94 90.0095 336.37C91.6595 335.32 93.3595 334.29 95.1295 333.28C102.1 329.32 111.91 322.97 119.04 320.37C123.99 318.56 129.27 317.4 134.11 315.46H134.14C135.47 314.91 136.81 316.21 136.31 317.55C135.99 318.42 135.62 319.27 135.51 320.12C134.84 325.28 134.87 330.41 135.26 335.55C135.3 336.14 134.96 336.69 134.41 336.91C132.92 337.5 131.43 338.14 130.32 339.04C128.3 340.61 126.47 342.5 125.2 344.69C124.37 345.87 123.59 347.16 123.25 348.62C122.7 351.01 122.22 353.95 123.06 356.32C123.31 356.92 123.59 357.39 123.82 357.83C123.84 357.86 123.85 357.89 123.86 357.92C124.01 358.33 123.98 358.83 124.2 359.24C124.49 359.89 124.8 360.58 125.23 361.17C125.59 361.71 125.91 362.39 126.36 362.9L126.38 362.93C127.29 363.92 128.21 365.04 129.25 365.91C129.27 365.93 129.29 365.94 129.31 365.95C130.74 366.97 131.97 368.09 133.43 369.04C134.21 369.52 134.98 369.55 135.88 369.77C136.89 370.01 137.98 370.04 139.04 370.02C139.44 370.02 139.85 369.99 140.26 369.94C140.22 370.56 140.2 371.21 140.35 371.85C142.61 381.55 147.97 392.35 154.22 399.73C156.58 402.53 159.38 405.16 162.47 407.58C162.97 407.97 163.14 408.65 162.88 409.24C162.68 409.69 162.51 410.16 162.4 410.65C161.85 413.02 161.37 415.93 162.21 418.29C162.45 418.88 162.73 419.36 162.97 419.79C162.99 419.82 163 419.85 163.01 419.88C163.16 420.28 163.13 420.79 163.34 421.19C163.63 421.84 163.94 422.52 164.36 423.11C164.72 423.64 165.03 424.32 165.48 424.83L165.5 424.86C166.4 425.84 167.32 426.95 168.34 427.82C168.36 427.84 168.38 427.85 168.4 427.86C169.82 428.87 171.04 429.98 172.48 430.92C173.26 431.4 174.02 431.43 174.91 431.64C175.91 431.88 176.99 431.9 178.05 431.89C179.74 431.89 181.46 431.35 183.05 430.88C185.31 430.12 188.06 428.85 189.7 427.14C191.2 425.61 192.72 423.86 193.9 421.98C194.19 421.52 194.71 421.26 195.25 421.32C195.62 421.36 195.99 421.4 196.35 421.43C210.18 422.47 223.26 420.03 234.08 410.62C234.56 410.21 235.01 409.77 235.46 409.32C235.77 409 236.21 408.86 236.65 408.92C239.82 409.34 243.21 408.86 245.78 407.6C247.69 406.67 248.58 403.89 249.17 402.04C250.09 399.12 251.07 396.46 251.7 393.5C252.83 388.19 252.78 382.74 252.2 377.46C251.89 374.7 250.62 372.26 248.85 370.44C248.64 370.23 248.38 370.06 248.1 369.96C247.39 369.71 246.69 369.52 246.01 369.38C245.53 369.28 245.13 368.95 244.97 368.48C241.24 357.5 234.42 347.54 225.96 339.08C225.53 338.65 225.47 337.98 225.82 337.48C226.41 336.65 227.07 335.76 227.97 334.82C229.83 332.87 230.15 330.26 228.69 327.81C228.19 326.97 227.08 325.26 226.21 324.73C221.75 322.08 217 320.79 212 319.68L201.66 317.38C199.84 316.98 197.87 316.95 196.1 317.66C195.72 317.81 195.3 317.83 194.93 317.66C193.81 317.15 192.7 316.66 191.58 316.2C182.02 312.24 172.6 308.7 162.08 307.82C162 307.82 161.91 307.82 161.83 307.82L151.98 308.66C147.42 309.05 143.88 304.73 145.17 300.34L145.19 300.26C145.8 298.2 146.49 297.28 147.59 295.08C148.28 293.94 148.92 294.42 149.57 294.4C150.49 294.37 150.97 294.29 151.94 294.28C153.49 294.28 155.06 293.78 156.52 293.36C158.59 292.67 161.11 291.5 162.61 289.93C164.4 288.1 166.22 285.94 167.36 283.62C168.23 281.73 168.42 279.77 168.47 277.46C168.5 276.45 168.38 275.41 168.2 274.48C168.02 273.41 167.84 272.73 167.37 271.88C166.93 270.99 166.42 270.04 165.8 269.24C164.98 268.08 163.98 267.02 162.78 266.16C162.13 265.68 161.47 265.04 160.8 264.58C160.85 264.45 160.9 264.32 160.95 264.19C161.61 264.27 162.29 264.28 162.96 264.28C164.51 264.28 166.08 263.78 167.54 263.36C169.61 262.67 172.13 261.5 173.63 259.93C175.42 258.1 177.24 255.94 178.38 253.62C179.25 251.73 179.44 249.77 179.49 247.46C179.52 246.45 179.4 245.41 179.22 244.48C179.04 243.41 178.86 242.73 178.39 241.88C177.95 240.99 177.44 240.04 176.82 239.24C176 238.08 175 237.02 173.8 236.16L173.78 236.14C172.45 235.15 171.9 233.43 172.41 231.85C172.56 231.4 172.7 230.95 172.85 230.49L175.21 222.75C175.21 222.75 175.23 222.67 175.23 222.63L175.27 222.16C175.37 220.91 176.24 219.84 177.45 219.49H177.47C179.95 218.65 182.97 217.26 184.76 215.38C186.9 213.19 189.07 210.6 190.44 207.83C191.48 205.57 191.71 203.22 191.77 200.46C191.8 199.25 191.67 198 191.44 196.89V196.87C191.3 196.06 191.68 195.25 192.38 194.82C201.6 189.15 209.36 182.57 216.78 175.29C217.95 174.14 219.76 174.02 221.1 174.98C221.36 175.17 221.62 175.35 221.89 175.52C222.74 176.04 223.58 176.07 224.55 176.31C225.65 176.57 226.83 176.6 227.99 176.59C229.85 176.59 231.73 176 233.47 175.49C235.95 174.66 238.97 173.26 240.76 171.39C242.9 169.2 245.07 166.61 246.44 163.84C247.48 161.58 247.71 159.23 247.77 156.47C247.8 155.26 247.67 154.01 247.44 152.9C247.22 151.62 247.01 150.81 246.45 149.79C245.93 148.72 245.47 148.19 244.72 147.24C244.41 146.42 244.44 145.72 245.09 145.29C247.79 142.13 248.7 139.96 251.36 136.64C251.69 136.22 252.21 135.99 252.74 135.99C253.21 135.99 253.65 136.19 254 136.51C257.54 139.71 263.38 139.09 266.21 134.61L270.3 128.15C272.06 125.37 273.17 122.26 274.07 118.96C274.81 116.24 273.71 112.81 271.69 109.91C272.4 110.47 273.12 111.02 273.9 111.53C274.75 112.05 275.59 112.08 276.56 112.32C277.66 112.58 278.84 112.61 280 112.6C281.86 112.6 283.74 112.01 285.48 111.5C287.96 110.67 290.98 109.27 292.77 107.4C294.91 105.21 297.08 102.62 298.45 99.85C299.49 97.59 299.72 95.24 299.78 92.48C299.81 91.27 299.68 90.02 299.45 88.91C299.23 87.63 299.02 86.82 298.46 85.8C297.94 84.73 297.32 83.59 296.57 82.64C295.6 81.25 294.4 79.98 292.95 78.96L292.92 78.94C291.33 77.75 290.68 75.7 291.25 73.79C291.28 73.7 291.3 73.62 291.33 73.53C291.85 71.74 291.83 69.5 292.46 67.91C293.41 65.5 296.01 62.39 297 59.71C297.78 57.62 297.5 55.37 298.06 53.72C298.78 51.56 301.33 49.14 302.36 46.09C304.43 39.96 306.93 35.17 309.01 29.22C310.6 24.67 311.9 19.43 313.45 14.76C313.9 13.42 316.09 10.83 315.26 9.05998L315.2 8.99998ZM298.04 18.99C299.53 20.97 298.32 22.32 298.24 24C298.13 26.05 298.95 27.78 297.06 29.77C296.06 28.52 297.13 27.56 297.12 26.57C297.12 25.9 296.58 25.19 296.59 24.3C296.61 23.33 297.49 19.94 298.04 19V18.99ZM148.51 312.06C149.92 311.91 151.91 312.58 153.49 312.34C158.97 311.52 161.87 311.08 167.59 311.95C176.17 313.27 184.58 317.63 192.77 320.97L192.25 321.67C190.6 326.82 192.57 331.5 196.48 334.79H196.5C199.61 337.41 202.29 340.07 205.99 341.47C209.27 342.7 212.8 343.36 216.39 343.87C217.67 344.05 219.24 343.23 220.26 342.69C220.9 342.35 221.45 342.01 221.94 341.67C222.48 341.28 223.23 341.36 223.69 341.84C230.68 349.04 237.36 358.3 241.05 367.68C241.32 368.38 240.98 369.2 240.27 369.45C239.41 369.76 238.59 370.2 237.8 370.79C236.12 372.05 234.55 373.31 233.58 375.2L227.4 387.19C225.56 390.75 225.14 394.2 226.34 397.8L227.97 402.71C228.46 404.18 229.34 405.37 230.49 406.3C231.16 406.85 231.17 407.87 230.51 408.43C225.12 413.03 218.59 416.2 211.88 416.99C206.59 417.62 201.77 417.77 197.16 417.39C196.45 417.33 195.93 416.69 196.01 415.98C196.1 415.14 196.14 414.27 196.16 413.35C196.19 412.24 196.07 411.11 195.86 410.1C195.66 408.93 195.46 408.19 194.95 407.27C194.47 406.3 193.92 405.26 193.23 404.39C192.34 403.12 191.25 401.96 189.93 401.03C189.08 400.4 188.23 399.51 187.34 399.03C186.26 398.45 185.26 397.97 184.02 397.74C182.68 397.4 181.43 397.1 180.06 397.17C178.39 397.1 176.32 397.81 174.67 398.41C172.85 399.12 170.86 399.85 169.47 400.97C168.32 401.86 167.24 402.86 166.29 403.95C165.82 404.49 164.99 404.56 164.43 404.12C154.94 396.6 148.88 386.52 145.61 374.3C145.23 372.87 144.86 371.41 144.49 369.93C144.34 369.3 144.67 368.66 145.27 368.43C147.28 367.65 149.46 366.52 150.84 365.07C152.81 363.06 154.8 360.68 156.06 358.13C157.02 356.05 157.23 353.89 157.28 351.35C157.31 350.24 157.18 349.09 156.98 348.07C156.78 346.89 156.58 346.15 156.07 345.21C155.59 344.23 155.03 343.18 154.34 342.31C153.44 341.03 152.34 339.86 151.01 338.92C150.16 338.28 149.3 337.39 148.4 336.91C147.31 336.32 146.31 335.84 145.05 335.61C143.7 335.27 142.44 334.97 141.06 335.03C140.92 335.03 140.78 335.03 140.64 335.03C139.85 335.05 139.19 334.41 139.17 333.62C139.06 329.2 139.19 324.86 139.65 320.71C139.75 319.82 140.13 318.88 140.59 317.94C142.11 314.9 144.92 312.66 148.27 312.09C148.35 312.08 148.43 312.06 148.49 312.06H148.51ZM123.16 178.21C122.05 172.87 126.06 166.58 127.57 165.72C127.53 165.73 129.24 165.31 130.16 165.86C130.42 166.12 130.54 166.11 131 166.75C131.39 167.33 131.74 168.08 132.23 168.63L132.25 168.66C133.23 169.72 134.21 170.92 135.32 171.86C135.35 171.89 135.39 171.92 135.43 171.94C136.99 173.05 138.33 174.27 139.92 175.31C140.77 175.83 141.61 175.86 142.58 176.1C143.68 176.36 144.86 176.39 146.02 176.38C147.88 176.38 149.76 175.79 151.5 175.28C153.98 174.45 157 173.05 158.79 171.18C159.23 170.73 159.67 170.26 160.11 169.78C160.64 169.2 161.55 169.15 162.11 169.71C165.66 173.24 168.07 177.12 169.85 181.77C170.13 182.51 169.73 183.33 168.98 183.6C168.73 183.69 168.48 183.78 168.24 183.86C166.25 184.64 164.06 185.44 162.54 186.67C160.34 188.38 158.35 190.44 156.96 192.82C156.06 194.11 155.21 195.51 154.84 197.09C154.62 198.03 154.42 199.05 154.29 200.1C154.16 201.15 153.16 201.9 152.1 201.72C139.31 199.54 126.05 192.05 123.16 178.22V178.21Z" fill="black"/>
</svg>
