<svg width="34" height="6" viewBox="0 0 34 6" fill="none" xmlns="http://www.w3.org/2000/svg">
<path d="M2.98959 3.32477C2.98959 3.5721 2.94759 3.79377 2.86359 3.98977C2.78425 4.1811 2.68159 4.3421 2.55559 4.47277C2.42959 4.59877 2.28492 4.69443 2.12159 4.75977C1.96292 4.82977 1.80425 4.86477 1.64559 4.86477C1.44025 4.86477 1.23725 4.8111 1.03659 4.70377C0.835919 4.59177 0.677253 4.42377 0.560586 4.19977V4.75977H0.000585958V-0.000234425H0.560586V2.44977C0.677253 2.22577 0.835919 2.0601 1.03659 1.95277C1.23725 1.84077 1.44025 1.78477 1.64559 1.78477C1.80425 1.78477 1.96292 1.81977 2.12159 1.88977C2.28492 1.9551 2.42959 2.0531 2.55559 2.18377C2.68159 2.30977 2.78425 2.47077 2.86359 2.66677C2.94759 2.8581 2.98959 3.07743 2.98959 3.32477ZM1.51259 2.30977C1.24659 2.30977 1.01792 2.39843 0.826586 2.57577C0.639919 2.7531 0.546586 3.00277 0.546586 3.32477C0.546586 3.64677 0.639919 3.89643 0.826586 4.07377C1.01325 4.2511 1.24192 4.33977 1.51259 4.33977C1.78792 4.33977 2.00725 4.24177 2.17059 4.04577C2.33392 3.84977 2.41559 3.60943 2.41559 3.32477C2.41559 3.0401 2.33392 2.79977 2.17059 2.60377C2.00725 2.40777 1.78792 2.30977 1.51259 2.30977ZM3.84238 4.75977V1.88977H4.39538V2.49877C4.49805 2.26077 4.63805 2.08343 4.81538 1.96677C4.99738 1.84543 5.20272 1.78477 5.43138 1.78477C5.47805 1.78477 5.52005 1.78943 5.55738 1.79877C5.59472 1.80343 5.62738 1.8081 5.65538 1.81277V2.44977C5.58072 2.43577 5.50372 2.4241 5.42438 2.41477C5.34972 2.40543 5.27505 2.40077 5.20038 2.40077C4.91572 2.40077 4.71038 2.48943 4.58438 2.66677C4.45838 2.8441 4.39538 3.13343 4.39538 3.53477V4.75977H3.84238ZM5.97744 3.32477C5.97744 3.07743 6.01944 2.8581 6.10344 2.66677C6.18744 2.47077 6.29477 2.30977 6.42544 2.18377C6.5561 2.0531 6.7031 1.9551 6.86644 1.88977C7.02977 1.81977 7.1931 1.78477 7.35644 1.78477C7.5571 1.78477 7.7531 1.84077 7.94444 1.95277C8.14044 2.0601 8.29444 2.22343 8.40644 2.44277V1.88977H8.96644V4.75977H8.40644V4.20677C8.29444 4.4261 8.14044 4.59177 7.94444 4.70377C7.7531 4.8111 7.5571 4.86477 7.35644 4.86477C7.1931 4.86477 7.02977 4.82977 6.86644 4.75977C6.7031 4.69443 6.5561 4.59877 6.42544 4.47277C6.29477 4.3421 6.18744 4.1811 6.10344 3.98977C6.01944 3.79377 5.97744 3.5721 5.97744 3.32477ZM7.45444 2.30977C7.1791 2.30977 6.95977 2.40777 6.79644 2.60377C6.6331 2.79977 6.55144 3.0401 6.55144 3.32477C6.55144 3.60943 6.6331 3.84977 6.79644 4.04577C6.95977 4.24177 7.1791 4.33977 7.45444 4.33977C7.72044 4.33977 7.94677 4.2511 8.13344 4.07377C8.32477 3.89643 8.42044 3.64677 8.42044 3.32477C8.42044 3.00277 8.3271 2.7531 8.14044 2.57577C7.95377 2.39843 7.7251 2.30977 7.45444 2.30977ZM10.0152 4.75977V1.88977H10.5752V2.52677C10.6779 2.27477 10.8249 2.0881 11.0162 1.96677C11.2122 1.84543 11.4222 1.78477 11.6462 1.78477C11.9589 1.78477 12.2109 1.89677 12.4022 2.12077C12.5936 2.3401 12.6892 2.65277 12.6892 3.05877V4.75977H12.1292V3.19877C12.1292 2.91877 12.0756 2.70177 11.9682 2.54777C11.8609 2.3891 11.6882 2.30977 11.4502 2.30977C11.1982 2.30977 10.9882 2.40077 10.8202 2.58277C10.6569 2.76477 10.5752 3.03777 10.5752 3.40177V4.75977H10.0152ZM13.497 3.32477C13.497 3.07743 13.5366 2.8581 13.616 2.66677C13.7 2.47077 13.805 2.30977 13.931 2.18377C14.057 2.0531 14.1993 1.9551 14.358 1.88977C14.5213 1.81977 14.6823 1.78477 14.841 1.78477C15.0463 1.78477 15.2493 1.84077 15.45 1.95277C15.6506 2.0601 15.8093 2.22577 15.926 2.44977V-0.000234425H16.486V4.75977H15.926V4.19977C15.8093 4.42377 15.6506 4.59177 15.45 4.70377C15.2493 4.8111 15.0463 4.86477 14.841 4.86477C14.6823 4.86477 14.5213 4.82977 14.358 4.75977C14.1993 4.69443 14.057 4.59877 13.931 4.47277C13.805 4.3421 13.7 4.1811 13.616 3.98977C13.5366 3.79377 13.497 3.5721 13.497 3.32477ZM14.974 2.30977C14.6986 2.30977 14.4793 2.40777 14.316 2.60377C14.1526 2.79977 14.071 3.0401 14.071 3.32477C14.071 3.60943 14.1526 3.84977 14.316 4.04577C14.4793 4.24177 14.6986 4.33977 14.974 4.33977C15.2446 4.33977 15.4733 4.2511 15.66 4.07377C15.8466 3.89643 15.94 3.64677 15.94 3.32477C15.94 3.00277 15.8443 2.7531 15.653 2.57577C15.4663 2.39843 15.24 2.30977 14.974 2.30977ZM20.9696 2.74377H20.4026C20.3979 2.5851 20.3396 2.46377 20.2276 2.37977C20.1156 2.2911 19.9592 2.24677 19.7586 2.24677C19.5859 2.24677 19.4482 2.2771 19.3456 2.33777C19.2429 2.39843 19.1916 2.48243 19.1916 2.58977C19.1916 2.69243 19.2336 2.7741 19.3176 2.83477C19.4062 2.89543 19.5159 2.9421 19.6466 2.97477L20.3466 3.14277C20.5426 3.18943 20.7106 3.2711 20.8506 3.38777C20.9952 3.49977 21.0676 3.67243 21.0676 3.90577C21.0676 4.17177 20.9602 4.3981 20.7456 4.58477C20.5309 4.77143 20.2346 4.86477 19.8566 4.86477C19.4926 4.86477 19.1846 4.7691 18.9326 4.57777C18.6806 4.38643 18.5522 4.13677 18.5476 3.82877H19.1146C19.1332 4.02477 19.2126 4.16943 19.3526 4.26277C19.4926 4.3561 19.6676 4.40277 19.8776 4.40277C20.0782 4.40277 20.2299 4.3631 20.3326 4.28377C20.4352 4.20443 20.4866 4.10877 20.4866 3.99677C20.4866 3.8941 20.4446 3.81477 20.3606 3.75877C20.2766 3.6981 20.1692 3.65143 20.0386 3.61877L19.4366 3.47177C19.2359 3.4251 19.0539 3.33877 18.8906 3.21277C18.7272 3.0821 18.6456 2.89077 18.6456 2.63877C18.6456 2.3821 18.7436 2.17677 18.9396 2.02277C19.1402 1.8641 19.4156 1.78477 19.7656 1.78477C20.1249 1.78477 20.4119 1.86877 20.6266 2.03677C20.8412 2.2001 20.9556 2.43577 20.9696 2.74377ZM21.4699 2.37977V1.88977H22.2679V0.699765H22.8209V1.88977H23.8849V2.37977H22.8209V3.69577C22.8209 3.91977 22.8676 4.0831 22.9609 4.18577C23.0542 4.28843 23.2012 4.33977 23.4019 4.33977C23.4812 4.33977 23.5606 4.3351 23.6399 4.32577C23.7192 4.31177 23.8009 4.29543 23.8849 4.27677V4.81577C23.7916 4.83443 23.7006 4.8461 23.6119 4.85077C23.5232 4.8601 23.4392 4.86477 23.3599 4.86477C22.9866 4.86477 22.7112 4.7761 22.5339 4.59877C22.3566 4.41677 22.2679 4.14143 22.2679 3.77277V2.37977H21.4699ZM26.0223 4.86477C25.8077 4.86477 25.6047 4.82743 25.4133 4.75277C25.2267 4.6781 25.0633 4.5731 24.9233 4.43777C24.7833 4.30243 24.6713 4.14143 24.5873 3.95477C24.508 3.76343 24.4683 3.55343 24.4683 3.32477C24.4683 3.0961 24.508 2.88843 24.5873 2.70177C24.6713 2.51043 24.7833 2.3471 24.9233 2.21177C25.068 2.07643 25.2337 1.97143 25.4203 1.89677C25.6117 1.8221 25.8123 1.78477 26.0223 1.78477C26.2323 1.78477 26.4307 1.8221 26.6173 1.89677C26.8087 1.97143 26.9743 2.07643 27.1143 2.21177C27.259 2.3471 27.371 2.51043 27.4503 2.70177C27.5343 2.88843 27.5763 3.0961 27.5763 3.32477C27.5763 3.55343 27.5343 3.76343 27.4503 3.95477C27.371 4.14143 27.2613 4.30243 27.1213 4.43777C26.9813 4.5731 26.8157 4.6781 26.6243 4.75277C26.4377 4.82743 26.237 4.86477 26.0223 4.86477ZM26.0223 4.36077C26.307 4.36077 26.5403 4.26977 26.7223 4.08777C26.909 3.90577 27.0023 3.65143 27.0023 3.32477C27.0023 2.9981 26.909 2.74377 26.7223 2.56177C26.5357 2.37977 26.3023 2.28877 26.0223 2.28877C25.7423 2.28877 25.509 2.37977 25.3223 2.56177C25.1357 2.74377 25.0423 2.9981 25.0423 3.32477C25.0423 3.65143 25.1333 3.90577 25.3153 4.08777C25.502 4.26977 25.7377 4.36077 26.0223 4.36077ZM28.4176 4.75977V1.88977H28.9706V2.49877C29.0732 2.26077 29.2132 2.08343 29.3906 1.96677C29.5726 1.84543 29.7779 1.78477 30.0066 1.78477C30.0532 1.78477 30.0952 1.78943 30.1326 1.79877C30.1699 1.80343 30.2026 1.8081 30.2306 1.81277V2.44977C30.1559 2.43577 30.0789 2.4241 29.9996 2.41477C29.9249 2.40543 29.8502 2.40077 29.7756 2.40077C29.4909 2.40077 29.2856 2.48943 29.1596 2.66677C29.0336 2.8441 28.9706 3.13343 28.9706 3.53477V4.75977H28.4176ZM32.4916 1.88977H33.0866L31.4066 5.98477H30.8396L31.3786 4.68977L30.3636 1.88977H30.9586L31.6936 4.05977L32.4916 1.88977Z" fill="#1D7BBF"/>
</svg>
