<svg width="174" height="102" viewBox="0 0 174 102" fill="none" xmlns="http://www.w3.org/2000/svg">
<g clip-path="url(#clip0_5612_7819)">
<path d="M39.5463 61.0085C58.9939 82.4213 93.6328 100.519 119.423 98.6068C125.286 98.1707 130.537 94.9188 136.195 92.5646C143.371 89.5813 152.424 90.2518 159.095 84.3619C161.205 82.5053 164.732 79.3125 169.792 74.1602C170.769 73.1693 170.88 71.5948 170.044 70.51L162.792 61.0938C159.396 56.6743 155.507 51.6285 154.55 47.8737C152.925 41.4841 144.602 35.9665 137.769 31.2818C101.064 6.07579 80.6428 7.23415 39.0887 10.1656L3.53962 12.6658C1.56695 12.8108 0.358366 14.9922 1.28971 16.7472L10.3373 33.839C10.4856 34.1094 10.6744 34.3632 10.907 34.5676C15.9627 39.1282 19.8242 42.9162 23.8968 48.6593C27.2124 53.3406 35.8955 56.9924 39.537 61.0044L39.5463 61.0085Z" fill="#1D7BBF"/>
</g>
<defs>
<clipPath id="clip0_5612_7819">
<rect width="174" height="102" fill="white"/>
</clipPath>
</defs>
</svg>
