<svg width="33" height="6" viewBox="0 0 33 6" fill="none" xmlns="http://www.w3.org/2000/svg">
<path d="M0.574387 3.32477C0.574387 3.65143 0.65372 3.90577 0.812387 4.08777C0.97572 4.26977 1.18339 4.36077 1.43539 4.36077C1.62672 4.36077 1.78772 4.30943 1.91839 4.20677C2.05372 4.1041 2.15872 3.95243 2.23339 3.75177H2.81439C2.73039 4.10177 2.57172 4.37477 2.33839 4.57077C2.10972 4.76677 1.82039 4.86477 1.47039 4.86477C1.04105 4.86477 0.68872 4.72243 0.413387 4.43777C0.138053 4.14843 0.000386734 3.77743 0.000386734 3.32477C0.000386734 2.87677 0.138053 2.5081 0.413387 2.21877C0.68872 1.92943 1.04105 1.78477 1.47039 1.78477C1.82505 1.78477 2.11905 1.8851 2.35239 2.08577C2.59039 2.28643 2.74672 2.56643 2.82139 2.92577H2.24039C2.17039 2.72043 2.06772 2.5641 1.93239 2.45677C1.80172 2.34477 1.63605 2.28877 1.43539 2.28877C1.18339 2.28877 0.97572 2.37977 0.812387 2.56177C0.65372 2.74377 0.574387 2.9981 0.574387 3.32477ZM4.95152 4.86477C4.73685 4.86477 4.53385 4.82743 4.34252 4.75277C4.15585 4.6781 3.99252 4.5731 3.85252 4.43777C3.71252 4.30243 3.60052 4.14143 3.51652 3.95477C3.43719 3.76343 3.39752 3.55343 3.39752 3.32477C3.39752 3.0961 3.43719 2.88843 3.51652 2.70177C3.60052 2.51043 3.71252 2.3471 3.85252 2.21177C3.99719 2.07643 4.16285 1.97143 4.34952 1.89677C4.54085 1.8221 4.74152 1.78477 4.95152 1.78477C5.16152 1.78477 5.35985 1.8221 5.54652 1.89677C5.73785 1.97143 5.90352 2.07643 6.04352 2.21177C6.18819 2.3471 6.30019 2.51043 6.37952 2.70177C6.46352 2.88843 6.50552 3.0961 6.50552 3.32477C6.50552 3.55343 6.46352 3.76343 6.37952 3.95477C6.30019 4.14143 6.19052 4.30243 6.05052 4.43777C5.91052 4.5731 5.74485 4.6781 5.55352 4.75277C5.36685 4.82743 5.16619 4.86477 4.95152 4.86477ZM4.95152 4.36077C5.23619 4.36077 5.46952 4.26977 5.65152 4.08777C5.83819 3.90577 5.93152 3.65143 5.93152 3.32477C5.93152 2.9981 5.83819 2.74377 5.65152 2.56177C5.46485 2.37977 5.23152 2.28877 4.95152 2.28877C4.67152 2.28877 4.43819 2.37977 4.25152 2.56177C4.06485 2.74377 3.97152 2.9981 3.97152 3.32477C3.97152 3.65143 4.06252 3.90577 4.24452 4.08777C4.43119 4.26977 4.66685 4.36077 4.95152 4.36077ZM7.34678 4.75977V1.88977H7.89978V2.49877C8.00244 2.26077 8.14244 2.08343 8.31978 1.96677C8.50178 1.84543 8.70711 1.78477 8.93578 1.78477C8.98244 1.78477 9.02444 1.78943 9.06178 1.79877C9.09911 1.80343 9.13178 1.8081 9.15978 1.81277V2.44977C9.08511 2.43577 9.00811 2.4241 8.92878 2.41477C8.85411 2.40543 8.77944 2.40077 8.70478 2.40077C8.42011 2.40077 8.21478 2.48943 8.08878 2.66677C7.96278 2.8441 7.89978 3.13343 7.89978 3.53477V4.75977H7.34678ZM9.48183 3.32477C9.48183 3.07743 9.5215 2.8581 9.60083 2.66677C9.68483 2.47077 9.78983 2.30977 9.91583 2.18377C10.0418 2.0531 10.1842 1.9551 10.3428 1.88977C10.5062 1.81977 10.6672 1.78477 10.8258 1.78477C11.0312 1.78477 11.2342 1.84077 11.4348 1.95277C11.6355 2.0601 11.7942 2.22577 11.9108 2.44977V-0.000234425H12.4708V4.75977H11.9108V4.19977C11.7942 4.42377 11.6355 4.59177 11.4348 4.70377C11.2342 4.8111 11.0312 4.86477 10.8258 4.86477C10.6672 4.86477 10.5062 4.82977 10.3428 4.75977C10.1842 4.69443 10.0418 4.59877 9.91583 4.47277C9.78983 4.3421 9.68483 4.1811 9.60083 3.98977C9.5215 3.79377 9.48183 3.5721 9.48183 3.32477ZM10.9588 2.30977C10.6835 2.30977 10.4642 2.40777 10.3008 2.60377C10.1375 2.79977 10.0558 3.0401 10.0558 3.32477C10.0558 3.60943 10.1375 3.84977 10.3008 4.04577C10.4642 4.24177 10.6835 4.33977 10.9588 4.33977C11.2295 4.33977 11.4582 4.2511 11.6448 4.07377C11.8315 3.89643 11.9248 3.64677 11.9248 3.32477C11.9248 3.00277 11.8292 2.7531 11.6378 2.57577C11.4512 2.39843 11.2248 2.30977 10.9588 2.30977ZM13.3236 3.32477C13.3236 3.07743 13.3656 2.8581 13.4496 2.66677C13.5336 2.47077 13.641 2.30977 13.7716 2.18377C13.9023 2.0531 14.0493 1.9551 14.2126 1.88977C14.376 1.81977 14.5393 1.78477 14.7026 1.78477C14.9033 1.78477 15.0993 1.84077 15.2906 1.95277C15.4866 2.0601 15.6406 2.22343 15.7526 2.44277V1.88977H16.3126V4.75977H15.7526V4.20677C15.6406 4.4261 15.4866 4.59177 15.2906 4.70377C15.0993 4.8111 14.9033 4.86477 14.7026 4.86477C14.5393 4.86477 14.376 4.82977 14.2126 4.75977C14.0493 4.69443 13.9023 4.59877 13.7716 4.47277C13.641 4.3421 13.5336 4.1811 13.4496 3.98977C13.3656 3.79377 13.3236 3.5721 13.3236 3.32477ZM14.8006 2.30977C14.5253 2.30977 14.306 2.40777 14.1426 2.60377C13.9793 2.79977 13.8976 3.0401 13.8976 3.32477C13.8976 3.60943 13.9793 3.84977 14.1426 4.04577C14.306 4.24177 14.5253 4.33977 14.8006 4.33977C15.0666 4.33977 15.293 4.2511 15.4796 4.07377C15.671 3.89643 15.7666 3.64677 15.7666 3.32477C15.7666 3.00277 15.6733 2.7531 15.4866 2.57577C15.3 2.39843 15.0713 2.30977 14.8006 2.30977ZM20.7962 2.74377H20.2292C20.2246 2.5851 20.1662 2.46377 20.0542 2.37977C19.9422 2.2911 19.7859 2.24677 19.5852 2.24677C19.4126 2.24677 19.2749 2.2771 19.1722 2.33777C19.0696 2.39843 19.0182 2.48243 19.0182 2.58977C19.0182 2.69243 19.0602 2.7741 19.1442 2.83477C19.2329 2.89543 19.3426 2.9421 19.4732 2.97477L20.1732 3.14277C20.3692 3.18943 20.5372 3.2711 20.6772 3.38777C20.8219 3.49977 20.8942 3.67243 20.8942 3.90577C20.8942 4.17177 20.7869 4.3981 20.5722 4.58477C20.3576 4.77143 20.0612 4.86477 19.6832 4.86477C19.3192 4.86477 19.0112 4.7691 18.7592 4.57777C18.5072 4.38643 18.3789 4.13677 18.3742 3.82877H18.9412C18.9599 4.02477 19.0392 4.16943 19.1792 4.26277C19.3192 4.3561 19.4942 4.40277 19.7042 4.40277C19.9049 4.40277 20.0566 4.3631 20.1592 4.28377C20.2619 4.20443 20.3132 4.10877 20.3132 3.99677C20.3132 3.8941 20.2712 3.81477 20.1872 3.75877C20.1032 3.6981 19.9959 3.65143 19.8652 3.61877L19.2632 3.47177C19.0626 3.4251 18.8806 3.33877 18.7172 3.21277C18.5539 3.0821 18.4722 2.89077 18.4722 2.63877C18.4722 2.3821 18.5702 2.17677 18.7662 2.02277C18.9669 1.8641 19.2422 1.78477 19.5922 1.78477C19.9516 1.78477 20.2386 1.86877 20.4532 2.03677C20.6679 2.2001 20.7822 2.43577 20.7962 2.74377ZM21.6886 4.75977V-0.000234425H22.2486V2.52677C22.3512 2.27477 22.4982 2.0881 22.6896 1.96677C22.8856 1.84543 23.0956 1.78477 23.3196 1.78477C23.6322 1.78477 23.8842 1.89677 24.0756 2.12077C24.2669 2.3401 24.3626 2.65277 24.3626 3.05877V4.75977H23.8026V3.19877C23.8026 2.91877 23.7489 2.70177 23.6416 2.54777C23.5342 2.3891 23.3616 2.30977 23.1236 2.30977C22.8716 2.30977 22.6616 2.40077 22.4936 2.58277C22.3302 2.76477 22.2486 3.03777 22.2486 3.40177V4.75977H21.6886ZM26.7103 4.86477C26.4956 4.86477 26.2926 4.82743 26.1013 4.75277C25.9146 4.6781 25.7513 4.5731 25.6113 4.43777C25.4713 4.30243 25.3593 4.14143 25.2753 3.95477C25.196 3.76343 25.1563 3.55343 25.1563 3.32477C25.1563 3.0961 25.196 2.88843 25.2753 2.70177C25.3593 2.51043 25.4713 2.3471 25.6113 2.21177C25.756 2.07643 25.9216 1.97143 26.1083 1.89677C26.2996 1.8221 26.5003 1.78477 26.7103 1.78477C26.9203 1.78477 27.1186 1.8221 27.3053 1.89677C27.4966 1.97143 27.6623 2.07643 27.8023 2.21177C27.947 2.3471 28.059 2.51043 28.1383 2.70177C28.2223 2.88843 28.2643 3.0961 28.2643 3.32477C28.2643 3.55343 28.2223 3.76343 28.1383 3.95477C28.059 4.14143 27.9493 4.30243 27.8093 4.43777C27.6693 4.5731 27.5036 4.6781 27.3123 4.75277C27.1256 4.82743 26.925 4.86477 26.7103 4.86477ZM26.7103 4.36077C26.995 4.36077 27.2283 4.26977 27.4103 4.08777C27.597 3.90577 27.6903 3.65143 27.6903 3.32477C27.6903 2.9981 27.597 2.74377 27.4103 2.56177C27.2236 2.37977 26.9903 2.28877 26.7103 2.28877C26.4303 2.28877 26.197 2.37977 26.0103 2.56177C25.8236 2.74377 25.7303 2.9981 25.7303 3.32477C25.7303 3.65143 25.8213 3.90577 26.0033 4.08777C26.19 4.26977 26.4256 4.36077 26.7103 4.36077ZM29.1056 5.98477V1.88977H29.6656V2.44977C29.7822 2.22577 29.9409 2.0601 30.1416 1.95277C30.3422 1.84077 30.5452 1.78477 30.7506 1.78477C30.9092 1.78477 31.0679 1.81977 31.2266 1.88977C31.3899 1.9551 31.5346 2.0531 31.6606 2.18377C31.7866 2.30977 31.8892 2.47077 31.9686 2.66677C32.0526 2.8581 32.0946 3.07743 32.0946 3.32477C32.0946 3.5721 32.0526 3.79377 31.9686 3.98977C31.8892 4.1811 31.7866 4.3421 31.6606 4.47277C31.5346 4.59877 31.3899 4.69443 31.2266 4.75977C31.0679 4.82977 30.9092 4.86477 30.7506 4.86477C30.5452 4.86477 30.3422 4.8111 30.1416 4.70377C29.9409 4.59177 29.7822 4.42377 29.6656 4.19977V5.98477H29.1056ZM30.6176 4.33977C30.8929 4.33977 31.1122 4.24177 31.2756 4.04577C31.4389 3.84977 31.5206 3.60943 31.5206 3.32477C31.5206 3.0401 31.4389 2.79977 31.2756 2.60377C31.1122 2.40777 30.8929 2.30977 30.6176 2.30977C30.3516 2.30977 30.1229 2.39843 29.9316 2.57577C29.7449 2.7531 29.6516 3.00277 29.6516 3.32477C29.6516 3.64677 29.7449 3.89643 29.9316 4.07377C30.1182 4.2511 30.3469 4.33977 30.6176 4.33977Z" fill="#93908A"/>
</svg>
