<svg width="33" height="6" viewBox="0 0 33 6" fill="none" xmlns="http://www.w3.org/2000/svg">
<path d="M0.574875 3.32477C0.574875 3.65143 0.654208 3.90577 0.812875 4.08777C0.976208 4.26977 1.18388 4.36077 1.43588 4.36077C1.62721 4.36077 1.78821 4.30943 1.91888 4.20677C2.05421 4.1041 2.15921 3.95243 2.23388 3.75177H2.81488C2.73088 4.10177 2.57221 4.37477 2.33888 4.57077C2.11021 4.76677 1.82088 4.86477 1.47087 4.86477C1.04154 4.86477 0.689208 4.72243 0.413875 4.43777C0.138542 4.14843 0.000875015 3.77743 0.000875015 3.32477C0.000875015 2.87677 0.138542 2.5081 0.413875 2.21877C0.689208 1.92943 1.04154 1.78477 1.47087 1.78477C1.82554 1.78477 2.11954 1.8851 2.35288 2.08577C2.59088 2.28643 2.74721 2.56643 2.82188 2.92577H2.24088C2.17088 2.72043 2.06821 2.5641 1.93288 2.45677C1.80221 2.34477 1.63654 2.28877 1.43588 2.28877C1.18388 2.28877 0.976208 2.37977 0.812875 2.56177C0.654208 2.74377 0.574875 2.9981 0.574875 3.32477ZM4.95201 4.86477C4.73734 4.86477 4.53434 4.82743 4.34301 4.75277C4.15634 4.6781 3.99301 4.5731 3.85301 4.43777C3.71301 4.30243 3.60101 4.14143 3.51701 3.95477C3.43767 3.76343 3.39801 3.55343 3.39801 3.32477C3.39801 3.0961 3.43767 2.88843 3.51701 2.70177C3.60101 2.51043 3.71301 2.3471 3.85301 2.21177C3.99767 2.07643 4.16334 1.97143 4.35001 1.89677C4.54134 1.8221 4.74201 1.78477 4.95201 1.78477C5.16201 1.78477 5.36034 1.8221 5.54701 1.89677C5.73834 1.97143 5.90401 2.07643 6.04401 2.21177C6.18867 2.3471 6.30067 2.51043 6.38001 2.70177C6.46401 2.88843 6.50601 3.0961 6.50601 3.32477C6.50601 3.55343 6.46401 3.76343 6.38001 3.95477C6.30067 4.14143 6.19101 4.30243 6.05101 4.43777C5.91101 4.5731 5.74534 4.6781 5.55401 4.75277C5.36734 4.82743 5.16667 4.86477 4.95201 4.86477ZM4.95201 4.36077C5.23667 4.36077 5.47001 4.26977 5.65201 4.08777C5.83867 3.90577 5.93201 3.65143 5.93201 3.32477C5.93201 2.9981 5.83867 2.74377 5.65201 2.56177C5.46534 2.37977 5.23201 2.28877 4.95201 2.28877C4.67201 2.28877 4.43867 2.37977 4.25201 2.56177C4.06534 2.74377 3.97201 2.9981 3.97201 3.32477C3.97201 3.65143 4.06301 3.90577 4.24501 4.08777C4.43167 4.26977 4.66734 4.36077 4.95201 4.36077ZM7.34727 4.75977V1.88977H7.90027V2.49877C8.00293 2.26077 8.14293 2.08343 8.32027 1.96677C8.50227 1.84543 8.7076 1.78477 8.93627 1.78477C8.98293 1.78477 9.02493 1.78943 9.06227 1.79877C9.0996 1.80343 9.13227 1.8081 9.16027 1.81277V2.44977C9.0856 2.43577 9.0086 2.4241 8.92927 2.41477C8.8546 2.40543 8.77993 2.40077 8.70527 2.40077C8.4206 2.40077 8.21527 2.48943 8.08927 2.66677C7.96327 2.8441 7.90027 3.13343 7.90027 3.53477V4.75977H7.34727ZM9.48232 3.32477C9.48232 3.07743 9.52199 2.8581 9.60132 2.66677C9.68532 2.47077 9.79032 2.30977 9.91632 2.18377C10.0423 2.0531 10.1847 1.9551 10.3433 1.88977C10.5067 1.81977 10.6677 1.78477 10.8263 1.78477C11.0317 1.78477 11.2347 1.84077 11.4353 1.95277C11.636 2.0601 11.7947 2.22577 11.9113 2.44977V-0.000234425H12.4713V4.75977H11.9113V4.19977C11.7947 4.42377 11.636 4.59177 11.4353 4.70377C11.2347 4.8111 11.0317 4.86477 10.8263 4.86477C10.6677 4.86477 10.5067 4.82977 10.3433 4.75977C10.1847 4.69443 10.0423 4.59877 9.91632 4.47277C9.79032 4.3421 9.68532 4.1811 9.60132 3.98977C9.52199 3.79377 9.48232 3.5721 9.48232 3.32477ZM10.9593 2.30977C10.684 2.30977 10.4647 2.40777 10.3013 2.60377C10.138 2.79977 10.0563 3.0401 10.0563 3.32477C10.0563 3.60943 10.138 3.84977 10.3013 4.04577C10.4647 4.24177 10.684 4.33977 10.9593 4.33977C11.23 4.33977 11.4587 4.2511 11.6453 4.07377C11.832 3.89643 11.9253 3.64677 11.9253 3.32477C11.9253 3.00277 11.8297 2.7531 11.6383 2.57577C11.4517 2.39843 11.2253 2.30977 10.9593 2.30977ZM13.3241 3.32477C13.3241 3.07743 13.3661 2.8581 13.4501 2.66677C13.5341 2.47077 13.6415 2.30977 13.7721 2.18377C13.9028 2.0531 14.0498 1.9551 14.2131 1.88977C14.3765 1.81977 14.5398 1.78477 14.7031 1.78477C14.9038 1.78477 15.0998 1.84077 15.2911 1.95277C15.4871 2.0601 15.6411 2.22343 15.7531 2.44277V1.88977H16.3131V4.75977H15.7531V4.20677C15.6411 4.4261 15.4871 4.59177 15.2911 4.70377C15.0998 4.8111 14.9038 4.86477 14.7031 4.86477C14.5398 4.86477 14.3765 4.82977 14.2131 4.75977C14.0498 4.69443 13.9028 4.59877 13.7721 4.47277C13.6415 4.3421 13.5341 4.1811 13.4501 3.98977C13.3661 3.79377 13.3241 3.5721 13.3241 3.32477ZM14.8011 2.30977C14.5258 2.30977 14.3065 2.40777 14.1431 2.60377C13.9798 2.79977 13.8981 3.0401 13.8981 3.32477C13.8981 3.60943 13.9798 3.84977 14.1431 4.04577C14.3065 4.24177 14.5258 4.33977 14.8011 4.33977C15.0671 4.33977 15.2935 4.2511 15.4801 4.07377C15.6715 3.89643 15.7671 3.64677 15.7671 3.32477C15.7671 3.00277 15.6738 2.7531 15.4871 2.57577C15.3005 2.39843 15.0718 2.30977 14.8011 2.30977ZM18.9977 3.32477C18.9977 3.65143 19.0771 3.90577 19.2357 4.08777C19.3991 4.26977 19.6067 4.36077 19.8587 4.36077C20.0501 4.36077 20.2111 4.30943 20.3417 4.20677C20.4771 4.1041 20.5821 3.95243 20.6567 3.75177H21.2377C21.1537 4.10177 20.9951 4.37477 20.7617 4.57077C20.5331 4.76677 20.2437 4.86477 19.8937 4.86477C19.4644 4.86477 19.1121 4.72243 18.8367 4.43777C18.5614 4.14843 18.4237 3.77743 18.4237 3.32477C18.4237 2.87677 18.5614 2.5081 18.8367 2.21877C19.1121 1.92943 19.4644 1.78477 19.8937 1.78477C20.2484 1.78477 20.5424 1.8851 20.7757 2.08577C21.0137 2.28643 21.1701 2.56643 21.2447 2.92577H20.6637C20.5937 2.72043 20.4911 2.5641 20.3557 2.45677C20.2251 2.34477 20.0594 2.28877 19.8587 2.28877C19.6067 2.28877 19.3991 2.37977 19.2357 2.56177C19.0771 2.74377 18.9977 2.9981 18.9977 3.32477ZM23.808 1.88977H24.403L22.723 5.98477H22.156L22.695 4.68977L21.68 1.88977H22.275L23.01 4.05977L23.808 1.88977ZM25.3688 3.32477C25.3688 3.65143 25.4482 3.90577 25.6068 4.08777C25.7702 4.26977 25.9778 4.36077 26.2298 4.36077C26.4212 4.36077 26.5822 4.30943 26.7128 4.20677C26.8482 4.1041 26.9532 3.95243 27.0278 3.75177H27.6088C27.5248 4.10177 27.3662 4.37477 27.1328 4.57077C26.9042 4.76677 26.6148 4.86477 26.2648 4.86477C25.8355 4.86477 25.4832 4.72243 25.2078 4.43777C24.9325 4.14843 24.7948 3.77743 24.7948 3.32477C24.7948 2.87677 24.9325 2.5081 25.2078 2.21877C25.4832 1.92943 25.8355 1.78477 26.2648 1.78477C26.6195 1.78477 26.9135 1.8851 27.1468 2.08577C27.3848 2.28643 27.5412 2.56643 27.6158 2.92577H27.0348C26.9648 2.72043 26.8622 2.5641 26.7268 2.45677C26.5962 2.34477 26.4305 2.28877 26.2298 2.28877C25.9778 2.28877 25.7702 2.37977 25.6068 2.56177C25.4482 2.74377 25.3688 2.9981 25.3688 3.32477ZM28.402 4.75977V-0.000234425H28.962V4.75977H28.402ZM31.2892 4.86477C31.0606 4.86477 30.8529 4.82743 30.6662 4.75277C30.4842 4.67343 30.3302 4.5661 30.2042 4.43077C30.0782 4.29077 29.9802 4.12743 29.9102 3.94077C29.8402 3.74943 29.8052 3.5441 29.8052 3.32477C29.8052 3.0961 29.8426 2.88843 29.9172 2.70177C29.9919 2.51043 30.0946 2.3471 30.2252 2.21177C30.3606 2.07643 30.5169 1.97143 30.6942 1.89677C30.8762 1.8221 31.0722 1.78477 31.2822 1.78477C31.6929 1.78477 32.0312 1.9201 32.2972 2.19077C32.5679 2.45677 32.7032 2.81143 32.7032 3.25477C32.7032 3.2921 32.7009 3.32943 32.6962 3.36677C32.6962 3.4041 32.6939 3.4391 32.6892 3.47177H30.3862C30.4096 3.7471 30.5006 3.96643 30.6592 4.12977C30.8179 4.2931 31.0279 4.37477 31.2892 4.37477C31.4852 4.37477 31.6532 4.33043 31.7932 4.24177C31.9379 4.1531 32.0312 4.03643 32.0732 3.89177H32.6472C32.5632 4.18577 32.4022 4.42143 32.1642 4.59877C31.9309 4.7761 31.6392 4.86477 31.2892 4.86477ZM31.2822 2.27477C31.0536 2.27477 30.8622 2.33777 30.7082 2.46377C30.5542 2.5851 30.4539 2.76943 30.4072 3.01677H32.1222C32.1036 2.77877 32.0172 2.59677 31.8632 2.47077C31.7092 2.3401 31.5156 2.27477 31.2822 2.27477Z" fill="#93908A"/>
</svg>
