<svg width="56" height="11" viewBox="0 0 56 11" fill="none" xmlns="http://www.w3.org/2000/svg">
<path d="M0.983547 5.70016C0.983547 6.26016 1.11955 6.69616 1.39155 7.00816C1.67155 7.32016 2.02755 7.47616 2.45955 7.47616C2.78755 7.47616 3.06355 7.38816 3.28755 7.21216C3.51955 7.03616 3.69955 6.77616 3.82755 6.43216H4.82355C4.67955 7.03216 4.40755 7.50016 4.00755 7.83616C3.61555 8.17216 3.11955 8.34016 2.51955 8.34016C1.78355 8.34016 1.17955 8.09616 0.707547 7.60816C0.235547 7.11216 -0.0004531 6.47616 -0.0004531 5.70016C-0.0004531 4.93216 0.235547 4.30016 0.707547 3.80416C1.17955 3.30816 1.78355 3.06016 2.51955 3.06016C3.12755 3.06016 3.63155 3.23216 4.03155 3.57616C4.43955 3.92016 4.70755 4.40016 4.83555 5.01616H3.83955C3.71955 4.66416 3.54355 4.39616 3.31155 4.21216C3.08755 4.02016 2.80355 3.92416 2.45955 3.92416C2.02755 3.92416 1.67155 4.08016 1.39155 4.39216C1.11955 4.70416 0.983547 5.14016 0.983547 5.70016ZM8.4872 8.34016C8.1192 8.34016 7.7712 8.27616 7.4432 8.14816C7.1232 8.02016 6.8432 7.84016 6.6032 7.60816C6.3632 7.37616 6.1712 7.10016 6.0272 6.78016C5.8912 6.45216 5.8232 6.09216 5.8232 5.70016C5.8232 5.30816 5.8912 4.95216 6.0272 4.63216C6.1712 4.30416 6.3632 4.02416 6.6032 3.79216C6.8512 3.56016 7.1352 3.38016 7.4552 3.25216C7.7832 3.12416 8.1272 3.06016 8.4872 3.06016C8.8472 3.06016 9.1872 3.12416 9.5072 3.25216C9.8352 3.38016 10.1192 3.56016 10.3592 3.79216C10.6072 4.02416 10.7992 4.30416 10.9352 4.63216C11.0792 4.95216 11.1512 5.30816 11.1512 5.70016C11.1512 6.09216 11.0792 6.45216 10.9352 6.78016C10.7992 7.10016 10.6112 7.37616 10.3712 7.60816C10.1312 7.84016 9.8472 8.02016 9.5192 8.14816C9.1992 8.27616 8.8552 8.34016 8.4872 8.34016ZM8.4872 7.47616C8.9752 7.47616 9.3752 7.32016 9.6872 7.00816C10.0072 6.69616 10.1672 6.26016 10.1672 5.70016C10.1672 5.14016 10.0072 4.70416 9.6872 4.39216C9.3672 4.08016 8.9672 3.92416 8.4872 3.92416C8.0072 3.92416 7.6072 4.08016 7.2872 4.39216C6.9672 4.70416 6.8072 5.14016 6.8072 5.70016C6.8072 6.26016 6.9632 6.69616 7.2752 7.00816C7.5952 7.32016 7.9992 7.47616 8.4872 7.47616ZM12.5934 8.16016V3.24016H13.5414V4.28416C13.7174 3.87616 13.9574 3.57216 14.2614 3.37216C14.5734 3.16416 14.9254 3.06016 15.3174 3.06016C15.3974 3.06016 15.4694 3.06816 15.5334 3.08416C15.5974 3.09216 15.6534 3.10016 15.7014 3.10816V4.20016C15.5734 4.17616 15.4414 4.15616 15.3054 4.14016C15.1774 4.12416 15.0494 4.11616 14.9214 4.11616C14.4334 4.11616 14.0814 4.26816 13.8654 4.57216C13.6494 4.87616 13.5414 5.37216 13.5414 6.06016V8.16016H12.5934ZM16.2535 5.70016C16.2535 5.27616 16.3215 4.90016 16.4575 4.57216C16.6015 4.23616 16.7815 3.96016 16.9975 3.74416C17.2135 3.52016 17.4575 3.35216 17.7295 3.24016C18.0095 3.12016 18.2855 3.06016 18.5575 3.06016C18.9095 3.06016 19.2575 3.15616 19.6015 3.34816C19.9455 3.53216 20.2175 3.81616 20.4175 4.20016V0.000156164H21.3775V8.16016H20.4175V7.20016C20.2175 7.58416 19.9455 7.87216 19.6015 8.06416C19.2575 8.24816 18.9095 8.34016 18.5575 8.34016C18.2855 8.34016 18.0095 8.28016 17.7295 8.16016C17.4575 8.04816 17.2135 7.88416 16.9975 7.66816C16.7815 7.44416 16.6015 7.16816 16.4575 6.84016C16.3215 6.50416 16.2535 6.12416 16.2535 5.70016ZM18.7855 3.96016C18.3135 3.96016 17.9375 4.12816 17.6575 4.46416C17.3775 4.80016 17.2375 5.21216 17.2375 5.70016C17.2375 6.18816 17.3775 6.60016 17.6575 6.93616C17.9375 7.27216 18.3135 7.44016 18.7855 7.44016C19.2495 7.44016 19.6415 7.28816 19.9615 6.98416C20.2815 6.68016 20.4415 6.25216 20.4415 5.70016C20.4415 5.14816 20.2775 4.72016 19.9495 4.41616C19.6295 4.11216 19.2415 3.96016 18.7855 3.96016ZM22.8394 5.70016C22.8394 5.27616 22.9114 4.90016 23.0554 4.57216C23.1994 4.23616 23.3834 3.96016 23.6074 3.74416C23.8314 3.52016 24.0834 3.35216 24.3634 3.24016C24.6434 3.12016 24.9234 3.06016 25.2034 3.06016C25.5474 3.06016 25.8834 3.15616 26.2114 3.34816C26.5474 3.53216 26.8114 3.81216 27.0034 4.18816V3.24016H27.9634V8.16016H27.0034V7.21216C26.8114 7.58816 26.5474 7.87216 26.2114 8.06416C25.8834 8.24816 25.5474 8.34016 25.2034 8.34016C24.9234 8.34016 24.6434 8.28016 24.3634 8.16016C24.0834 8.04816 23.8314 7.88416 23.6074 7.66816C23.3834 7.44416 23.1994 7.16816 23.0554 6.84016C22.9114 6.50416 22.8394 6.12416 22.8394 5.70016ZM25.3714 3.96016C24.8994 3.96016 24.5234 4.12816 24.2434 4.46416C23.9634 4.80016 23.8234 5.21216 23.8234 5.70016C23.8234 6.18816 23.9634 6.60016 24.2434 6.93616C24.5234 7.27216 24.8994 7.44016 25.3714 7.44016C25.8274 7.44016 26.2154 7.28816 26.5354 6.98416C26.8634 6.68016 27.0274 6.25216 27.0274 5.70016C27.0274 5.14816 26.8674 4.72016 26.5474 4.41616C26.2274 4.11216 25.8354 3.96016 25.3714 3.96016ZM35.6496 4.70416H34.6776C34.6696 4.43216 34.5696 4.22416 34.3776 4.08016C34.1856 3.92816 33.9176 3.85216 33.5736 3.85216C33.2776 3.85216 33.0416 3.90416 32.8656 4.00816C32.6896 4.11216 32.6016 4.25616 32.6016 4.44016C32.6016 4.61616 32.6736 4.75616 32.8176 4.86016C32.9696 4.96416 33.1576 5.04416 33.3816 5.10016L34.5816 5.38816C34.9176 5.46816 35.2056 5.60816 35.4456 5.80816C35.6936 6.00016 35.8176 6.29616 35.8176 6.69616C35.8176 7.15216 35.6336 7.54016 35.2656 7.86016C34.8976 8.18016 34.3896 8.34016 33.7416 8.34016C33.1176 8.34016 32.5896 8.17616 32.1576 7.84816C31.7256 7.52016 31.5056 7.09216 31.4976 6.56416H32.4696C32.5016 6.90016 32.6376 7.14816 32.8776 7.30816C33.1176 7.46816 33.4176 7.54816 33.7776 7.54816C34.1216 7.54816 34.3816 7.48016 34.5576 7.34416C34.7336 7.20816 34.8216 7.04416 34.8216 6.85216C34.8216 6.67616 34.7496 6.54016 34.6056 6.44416C34.4616 6.34016 34.2776 6.26016 34.0536 6.20416L33.0216 5.95216C32.6776 5.87216 32.3656 5.72416 32.0856 5.50816C31.8056 5.28416 31.6656 4.95616 31.6656 4.52416C31.6656 4.08416 31.8336 3.73216 32.1696 3.46816C32.5136 3.19616 32.9856 3.06016 33.5856 3.06016C34.2016 3.06016 34.6936 3.20416 35.0616 3.49216C35.4296 3.77216 35.6256 4.17616 35.6496 4.70416ZM37.1793 8.16016V0.000156164H38.1393V4.33216C38.3153 3.90016 38.5673 3.58016 38.8953 3.37216C39.2313 3.16416 39.5913 3.06016 39.9753 3.06016C40.5113 3.06016 40.9433 3.25216 41.2713 3.63616C41.5993 4.01216 41.7633 4.54816 41.7633 5.24416V8.16016H40.8033V5.48416C40.8033 5.00416 40.7113 4.63216 40.5273 4.36816C40.3433 4.09616 40.0473 3.96016 39.6393 3.96016C39.2073 3.96016 38.8473 4.11616 38.5593 4.42816C38.2793 4.74016 38.1393 5.20816 38.1393 5.83216V8.16016H37.1793ZM45.788 8.34016C45.42 8.34016 45.072 8.27616 44.744 8.14816C44.424 8.02016 44.144 7.84016 43.904 7.60816C43.664 7.37616 43.472 7.10016 43.328 6.78016C43.192 6.45216 43.124 6.09216 43.124 5.70016C43.124 5.30816 43.192 4.95216 43.328 4.63216C43.472 4.30416 43.664 4.02416 43.904 3.79216C44.152 3.56016 44.436 3.38016 44.756 3.25216C45.084 3.12416 45.428 3.06016 45.788 3.06016C46.148 3.06016 46.488 3.12416 46.808 3.25216C47.136 3.38016 47.42 3.56016 47.66 3.79216C47.908 4.02416 48.1 4.30416 48.236 4.63216C48.38 4.95216 48.452 5.30816 48.452 5.70016C48.452 6.09216 48.38 6.45216 48.236 6.78016C48.1 7.10016 47.912 7.37616 47.672 7.60816C47.432 7.84016 47.148 8.02016 46.82 8.14816C46.5 8.27616 46.156 8.34016 45.788 8.34016ZM45.788 7.47616C46.276 7.47616 46.676 7.32016 46.988 7.00816C47.308 6.69616 47.468 6.26016 47.468 5.70016C47.468 5.14016 47.308 4.70416 46.988 4.39216C46.668 4.08016 46.268 3.92416 45.788 3.92416C45.308 3.92416 44.908 4.08016 44.588 4.39216C44.268 4.70416 44.108 5.14016 44.108 5.70016C44.108 6.26016 44.264 6.69616 44.576 7.00816C44.896 7.32016 45.3 7.47616 45.788 7.47616ZM49.8941 10.2602V3.24016H50.8541V4.20016C51.0541 3.81616 51.3261 3.53216 51.6701 3.34816C52.0141 3.15616 52.3621 3.06016 52.7141 3.06016C52.9861 3.06016 53.2581 3.12016 53.5301 3.24016C53.8101 3.35216 54.0581 3.52016 54.2741 3.74416C54.4901 3.96016 54.6661 4.23616 54.8021 4.57216C54.9461 4.90016 55.0181 5.27616 55.0181 5.70016C55.0181 6.12416 54.9461 6.50416 54.8021 6.84016C54.6661 7.16816 54.4901 7.44416 54.2741 7.66816C54.0581 7.88416 53.8101 8.04816 53.5301 8.16016C53.2581 8.28016 52.9861 8.34016 52.7141 8.34016C52.3621 8.34016 52.0141 8.24816 51.6701 8.06416C51.3261 7.87216 51.0541 7.58416 50.8541 7.20016V10.2602H49.8941ZM52.4861 7.44016C52.9581 7.44016 53.3341 7.27216 53.6141 6.93616C53.8941 6.60016 54.0341 6.18816 54.0341 5.70016C54.0341 5.21216 53.8941 4.80016 53.6141 4.46416C53.3341 4.12816 52.9581 3.96016 52.4861 3.96016C52.0301 3.96016 51.6381 4.11216 51.3101 4.41616C50.9901 4.72016 50.8301 5.14816 50.8301 5.70016C50.8301 6.25216 50.9901 6.68016 51.3101 6.98416C51.6301 7.28816 52.0221 7.44016 52.4861 7.44016Z" fill="#1D7BBF"/>
</svg>
