<svg width="57" height="11" viewBox="0 0 57 11" fill="none" xmlns="http://www.w3.org/2000/svg">
<path d="M0.9855 5.70016C0.9855 6.26016 1.1215 6.69616 1.3935 7.00816C1.6735 7.32016 2.0295 7.47616 2.4615 7.47616C2.7895 7.47616 3.0655 7.38816 3.2895 7.21216C3.5215 7.03616 3.7015 6.77616 3.8295 6.43216H4.8255C4.6815 7.03216 4.4095 7.50016 4.0095 7.83616C3.6175 8.17216 3.1215 8.34016 2.5215 8.34016C1.7855 8.34016 1.1815 8.09616 0.7095 7.60816C0.2375 7.11216 0.00150003 6.47616 0.00150003 5.70016C0.00150003 4.93216 0.2375 4.30016 0.7095 3.80416C1.1815 3.30816 1.7855 3.06016 2.5215 3.06016C3.1295 3.06016 3.6335 3.23216 4.0335 3.57616C4.4415 3.92016 4.7095 4.40016 4.8375 5.01616H3.8415C3.7215 4.66416 3.5455 4.39616 3.3135 4.21216C3.0895 4.02016 2.8055 3.92416 2.4615 3.92416C2.0295 3.92416 1.6735 4.08016 1.3935 4.39216C1.1215 4.70416 0.9855 5.14016 0.9855 5.70016ZM8.48916 8.34016C8.12116 8.34016 7.77316 8.27616 7.44516 8.14816C7.12516 8.02016 6.84516 7.84016 6.60516 7.60816C6.36516 7.37616 6.17316 7.10016 6.02916 6.78016C5.89316 6.45216 5.82516 6.09216 5.82516 5.70016C5.82516 5.30816 5.89316 4.95216 6.02916 4.63216C6.17316 4.30416 6.36516 4.02416 6.60516 3.79216C6.85316 3.56016 7.13716 3.38016 7.45716 3.25216C7.78516 3.12416 8.12916 3.06016 8.48916 3.06016C8.84916 3.06016 9.18916 3.12416 9.50916 3.25216C9.83716 3.38016 10.1212 3.56016 10.3612 3.79216C10.6092 4.02416 10.8012 4.30416 10.9372 4.63216C11.0812 4.95216 11.1532 5.30816 11.1532 5.70016C11.1532 6.09216 11.0812 6.45216 10.9372 6.78016C10.8012 7.10016 10.6132 7.37616 10.3732 7.60816C10.1332 7.84016 9.84916 8.02016 9.52116 8.14816C9.20116 8.27616 8.85716 8.34016 8.48916 8.34016ZM8.48916 7.47616C8.97716 7.47616 9.37716 7.32016 9.68916 7.00816C10.0092 6.69616 10.1692 6.26016 10.1692 5.70016C10.1692 5.14016 10.0092 4.70416 9.68916 4.39216C9.36916 4.08016 8.96916 3.92416 8.48916 3.92416C8.00916 3.92416 7.60916 4.08016 7.28916 4.39216C6.96916 4.70416 6.80916 5.14016 6.80916 5.70016C6.80916 6.26016 6.96516 6.69616 7.27716 7.00816C7.59716 7.32016 8.00116 7.47616 8.48916 7.47616ZM12.5953 8.16016V3.24016H13.5433V4.28416C13.7193 3.87616 13.9593 3.57216 14.2633 3.37216C14.5753 3.16416 14.9273 3.06016 15.3193 3.06016C15.3993 3.06016 15.4713 3.06816 15.5353 3.08416C15.5993 3.09216 15.6553 3.10016 15.7033 3.10816V4.20016C15.5753 4.17616 15.4433 4.15616 15.3073 4.14016C15.1793 4.12416 15.0513 4.11616 14.9233 4.11616C14.4353 4.11616 14.0833 4.26816 13.8673 4.57216C13.6513 4.87616 13.5433 5.37216 13.5433 6.06016V8.16016H12.5953ZM16.2554 5.70016C16.2554 5.27616 16.3234 4.90016 16.4594 4.57216C16.6034 4.23616 16.7834 3.96016 16.9994 3.74416C17.2154 3.52016 17.4594 3.35216 17.7314 3.24016C18.0114 3.12016 18.2874 3.06016 18.5594 3.06016C18.9114 3.06016 19.2594 3.15616 19.6034 3.34816C19.9474 3.53216 20.2194 3.81616 20.4194 4.20016V0.000156164H21.3794V8.16016H20.4194V7.20016C20.2194 7.58416 19.9474 7.87216 19.6034 8.06416C19.2594 8.24816 18.9114 8.34016 18.5594 8.34016C18.2874 8.34016 18.0114 8.28016 17.7314 8.16016C17.4594 8.04816 17.2154 7.88416 16.9994 7.66816C16.7834 7.44416 16.6034 7.16816 16.4594 6.84016C16.3234 6.50416 16.2554 6.12416 16.2554 5.70016ZM18.7874 3.96016C18.3154 3.96016 17.9394 4.12816 17.6594 4.46416C17.3794 4.80016 17.2394 5.21216 17.2394 5.70016C17.2394 6.18816 17.3794 6.60016 17.6594 6.93616C17.9394 7.27216 18.3154 7.44016 18.7874 7.44016C19.2514 7.44016 19.6434 7.28816 19.9634 6.98416C20.2834 6.68016 20.4434 6.25216 20.4434 5.70016C20.4434 5.14816 20.2794 4.72016 19.9514 4.41616C19.6314 4.11216 19.2434 3.96016 18.7874 3.96016ZM22.8413 5.70016C22.8413 5.27616 22.9133 4.90016 23.0573 4.57216C23.2013 4.23616 23.3853 3.96016 23.6093 3.74416C23.8333 3.52016 24.0853 3.35216 24.3653 3.24016C24.6453 3.12016 24.9253 3.06016 25.2053 3.06016C25.5493 3.06016 25.8853 3.15616 26.2133 3.34816C26.5493 3.53216 26.8133 3.81216 27.0053 4.18816V3.24016H27.9653V8.16016H27.0053V7.21216C26.8133 7.58816 26.5493 7.87216 26.2133 8.06416C25.8853 8.24816 25.5493 8.34016 25.2053 8.34016C24.9253 8.34016 24.6453 8.28016 24.3653 8.16016C24.0853 8.04816 23.8333 7.88416 23.6093 7.66816C23.3853 7.44416 23.2013 7.16816 23.0573 6.84016C22.9133 6.50416 22.8413 6.12416 22.8413 5.70016ZM25.3733 3.96016C24.9013 3.96016 24.5253 4.12816 24.2453 4.46416C23.9653 4.80016 23.8253 5.21216 23.8253 5.70016C23.8253 6.18816 23.9653 6.60016 24.2453 6.93616C24.5253 7.27216 24.9013 7.44016 25.3733 7.44016C25.8293 7.44016 26.2173 7.28816 26.5373 6.98416C26.8653 6.68016 27.0293 6.25216 27.0293 5.70016C27.0293 5.14816 26.8693 4.72016 26.5493 4.41616C26.2293 4.11216 25.8373 3.96016 25.3733 3.96016ZM32.5675 5.70016C32.5675 6.26016 32.7035 6.69616 32.9755 7.00816C33.2555 7.32016 33.6115 7.47616 34.0435 7.47616C34.3715 7.47616 34.6475 7.38816 34.8715 7.21216C35.1035 7.03616 35.2835 6.77616 35.4115 6.43216H36.4075C36.2635 7.03216 35.9915 7.50016 35.5915 7.83616C35.1995 8.17216 34.7035 8.34016 34.1035 8.34016C33.3675 8.34016 32.7635 8.09616 32.2915 7.60816C31.8195 7.11216 31.5835 6.47616 31.5835 5.70016C31.5835 4.93216 31.8195 4.30016 32.2915 3.80416C32.7635 3.30816 33.3675 3.06016 34.1035 3.06016C34.7115 3.06016 35.2155 3.23216 35.6155 3.57616C36.0235 3.92016 36.2915 4.40016 36.4195 5.01616H35.4235C35.3035 4.66416 35.1275 4.39616 34.8955 4.21216C34.6715 4.02016 34.3875 3.92416 34.0435 3.92416C33.6115 3.92416 33.2555 4.08016 32.9755 4.39216C32.7035 4.70416 32.5675 5.14016 32.5675 5.70016ZM40.8138 3.24016H41.8338L38.9538 10.2602H37.9818L38.9058 8.04016L37.1658 3.24016H38.1858L39.4458 6.96016L40.8138 3.24016ZM43.4894 5.70016C43.4894 6.26016 43.6254 6.69616 43.8974 7.00816C44.1774 7.32016 44.5334 7.47616 44.9654 7.47616C45.2934 7.47616 45.5694 7.38816 45.7934 7.21216C46.0254 7.03616 46.2054 6.77616 46.3334 6.43216H47.3294C47.1854 7.03216 46.9134 7.50016 46.5134 7.83616C46.1214 8.17216 45.6254 8.34016 45.0254 8.34016C44.2894 8.34016 43.6854 8.09616 43.2134 7.60816C42.7414 7.11216 42.5054 6.47616 42.5054 5.70016C42.5054 4.93216 42.7414 4.30016 43.2134 3.80416C43.6854 3.30816 44.2894 3.06016 45.0254 3.06016C45.6334 3.06016 46.1374 3.23216 46.5374 3.57616C46.9454 3.92016 47.2134 4.40016 47.3414 5.01616H46.3454C46.2254 4.66416 46.0494 4.39616 45.8174 4.21216C45.5934 4.02016 45.3094 3.92416 44.9654 3.92416C44.5334 3.92416 44.1774 4.08016 43.8974 4.39216C43.6254 4.70416 43.4894 5.14016 43.4894 5.70016ZM48.6891 8.16016V0.000156164H49.6491V8.16016H48.6891ZM53.6387 8.34016C53.2467 8.34016 52.8907 8.27616 52.5707 8.14816C52.2587 8.01216 51.9947 7.82816 51.7787 7.59616C51.5627 7.35616 51.3947 7.07616 51.2747 6.75616C51.1547 6.42816 51.0947 6.07616 51.0947 5.70016C51.0947 5.30816 51.1587 4.95216 51.2867 4.63216C51.4147 4.30416 51.5907 4.02416 51.8147 3.79216C52.0467 3.56016 52.3147 3.38016 52.6187 3.25216C52.9307 3.12416 53.2667 3.06016 53.6267 3.06016C54.3307 3.06016 54.9107 3.29216 55.3667 3.75616C55.8307 4.21216 56.0627 4.82016 56.0627 5.58016C56.0627 5.64416 56.0587 5.70816 56.0507 5.77216C56.0507 5.83616 56.0467 5.89616 56.0387 5.95216H52.0907C52.1307 6.42416 52.2867 6.80016 52.5587 7.08016C52.8307 7.36016 53.1907 7.50016 53.6387 7.50016C53.9747 7.50016 54.2627 7.42416 54.5027 7.27216C54.7507 7.12016 54.9107 6.92016 54.9827 6.67216H55.9667C55.8227 7.17616 55.5467 7.58016 55.1387 7.88416C54.7387 8.18816 54.2387 8.34016 53.6387 8.34016ZM53.6267 3.90016C53.2347 3.90016 52.9067 4.00816 52.6427 4.22416C52.3787 4.43216 52.2067 4.74816 52.1267 5.17216H55.0667C55.0347 4.76416 54.8867 4.45216 54.6227 4.23616C54.3587 4.01216 54.0267 3.90016 53.6267 3.90016Z" fill="#1D7BBF"/>
</svg>
