<svg width="1017" height="271" viewBox="0 0 1017 271" fill="none" xmlns="http://www.w3.org/2000/svg">
<g clip-path="url(#clip0_5955_5040)">
<rect width="1017" height="271" fill="#F5F5F5"/>
<path d="M-18.7409 0.493844C-17.7484 -0.862141 -16.1417 -1.82972 -14.9895 -2.91867C-13.7471 -4.2157 -12.1196 -5.16938 -10.5926 -6.05025C-9.64178 -6.71611 -8.17731 -6.62247 -7.19174 -7.13574C-6.15412 -7.87442 -5.06444 -8.7657 -3.58609 -9.546C2.17461 -12.1296 10.604 -10.791 17.6209 -9.21653C21.8825 -8.2559 26.0815 -5.96703 30.0342 -3.5429C37.1136 0.188656 43.8564 5.57793 49.8948 11.5567C54.1841 15.6767 57.9181 21.6451 61.4648 27.0864C64.5429 32.0179 68.3151 38.1978 69.5679 43.2299C70.9352 47.3221 71.199 51.1022 71.4315 55.132C71.8757 58.8809 71.4211 61.8912 70.7548 65.1511C70.2065 67.8388 68.506 70.4259 67.5066 72.9957C66.0837 76.9839 63.8454 80.3027 61.1247 83.0147C59.3271 85.0955 56.9499 86.8087 54.6803 88.2653C52.5773 89.8293 50.7172 90.4466 47.6634 91.0743C45.0502 91.7159 42.0415 92.1286 38.9668 92.0731C31.9845 91.9899 25.9011 91.4315 19.3943 88.6502C11.3293 84.9915 3.10465 79.1132 -4.08235 73.3112C-10.2144 68.4595 -16.1104 60.2335 -20.1603 53.4709C-22.822 48.7163 -25.8307 43.5767 -27.2779 38.4961C-28.2253 35.3298 -29.0998 32.0734 -29.308 29.0632C-29.485 26.3824 -30.0715 24.09 -29.4295 21.7457C-28.0656 17.2893 -26.0251 13.5404 -24.4496 9.15341C-22.9435 6.0669 -20.6947 3.30291 -18.786 0.573601L-18.727 0.500787V0.490373L-18.7409 0.493844Z" fill="black"/>
<path d="M-75.2253 123.955C-74.2328 122.599 -72.626 121.631 -71.4739 120.542C-70.2315 119.245 -68.6039 118.292 -67.077 117.411C-66.1262 116.745 -64.6617 116.838 -63.6761 116.325C-62.6385 115.587 -61.5488 114.695 -60.0705 113.915C-54.3098 111.331 -45.8804 112.67 -38.8634 114.244C-34.6019 115.205 -30.4028 117.494 -26.4502 119.918C-19.3707 123.65 -12.6279 129.039 -6.5896 135.018C-2.30031 139.138 1.43374 145.106 4.98039 150.547C8.05855 155.479 11.8308 161.659 13.0836 166.691C14.4509 170.783 14.7146 174.563 14.9471 178.593C15.3913 182.342 14.9367 185.352 14.2704 188.612C13.7221 191.3 12.0216 193.887 11.0222 196.457C9.59937 200.445 7.36103 203.764 4.64031 206.476C2.84269 208.556 0.465523 210.27 -1.80406 211.726C-3.90706 213.29 -5.76714 213.908 -8.82101 214.535C-11.4342 215.177 -14.4429 215.59 -17.5176 215.534C-24.4998 215.451 -30.5833 214.892 -37.0901 212.111C-45.1551 208.452 -53.3797 202.574 -60.5667 196.772C-66.6988 191.92 -72.5948 183.694 -76.6446 176.932C-79.3064 172.177 -82.3151 167.038 -83.7622 161.957C-84.7096 158.791 -85.5841 155.534 -85.7924 152.524C-85.9694 149.843 -86.5558 147.551 -85.9138 145.207C-84.55 140.75 -82.5095 137.001 -80.9339 132.614C-79.4278 129.528 -77.1791 126.764 -75.2704 124.035L-75.2114 123.962V123.951L-75.2253 123.955Z" fill="black"/>
<path d="M157.716 0.493844C158.709 -0.862141 160.315 -1.82972 161.468 -2.91867C162.71 -4.2157 164.337 -5.16938 165.864 -6.05025C166.815 -6.71611 168.28 -6.62247 169.265 -7.13574C170.303 -7.87442 171.393 -8.7657 172.871 -9.546C178.632 -12.1296 187.061 -10.791 194.078 -9.21653C198.34 -8.2559 202.539 -5.96703 206.491 -3.5429C213.571 0.188656 220.313 5.57793 226.352 11.5567C230.641 15.6767 234.375 21.6451 237.922 27.0864C241 32.0179 244.772 38.1978 246.025 43.2299C247.392 47.3221 247.656 51.1022 247.889 55.132C248.333 58.8809 247.878 61.8912 247.212 65.1511C246.664 67.8388 244.963 70.4259 243.964 72.9957C242.541 76.9839 240.302 80.3027 237.582 83.0147C235.784 85.0955 233.407 86.8087 231.137 88.2653C229.034 89.8293 227.174 90.4466 224.12 91.0743C221.507 91.7159 218.499 92.1286 215.424 92.0731C208.442 91.9899 202.358 91.4315 195.851 88.6502C187.786 84.9915 179.562 79.1132 172.375 73.3112C166.243 68.4595 160.347 60.2335 156.297 53.4709C153.635 48.7163 150.626 43.5767 149.179 38.4961C148.232 35.3298 147.357 32.0734 147.149 29.0632C146.972 26.3824 146.386 24.09 147.028 21.7457C148.391 17.2893 150.432 13.5404 152.007 9.15341C153.514 6.0669 155.762 3.30291 157.671 0.573601L157.73 0.500787V0.490373L157.716 0.493844Z" fill="black"/>
<path d="M101.228 123.955C102.22 122.599 103.827 121.631 104.979 120.542C106.222 119.245 107.849 118.292 109.376 117.411C110.327 116.745 111.791 116.838 112.777 116.325C113.815 115.587 114.904 114.695 116.383 113.915C122.143 111.331 130.573 112.67 137.59 114.244C141.851 115.205 146.05 117.494 150.003 119.918C157.082 123.65 163.825 129.039 169.864 135.018C174.153 139.138 177.887 145.106 181.434 150.547C184.512 155.479 188.284 161.659 189.537 166.691C190.904 170.783 191.168 174.563 191.4 178.593C191.844 182.342 191.39 185.352 190.724 188.612C190.175 191.3 188.475 193.887 187.475 196.457C186.052 200.445 183.814 203.764 181.093 206.476C179.296 208.556 176.919 210.27 174.649 211.726C172.546 213.29 170.686 213.908 167.632 214.535C165.019 215.177 162.01 215.59 158.936 215.534C151.953 215.451 145.87 214.892 139.363 212.111C131.298 208.452 123.073 202.574 115.886 196.772C109.754 191.92 103.858 183.694 99.8085 176.932C97.1468 172.177 94.138 167.038 92.6909 161.957C91.7435 158.791 90.869 155.534 90.6608 152.524C90.4838 149.843 89.8973 147.551 90.5393 145.207C91.9031 140.75 93.9437 137.001 95.5192 132.614C97.0253 129.528 99.2741 126.764 101.183 124.035L101.242 123.962V123.951L101.228 123.955Z" fill="black"/>
<path d="M44.7396 247.416C45.7321 246.06 47.3388 245.092 48.491 244.003C49.7333 242.706 51.3609 241.752 52.8878 240.872C53.8387 240.206 55.3032 240.299 56.2887 239.786C57.3264 239.047 58.416 238.156 59.8944 237.376C65.6551 234.792 74.0845 236.131 81.1014 237.705C85.3629 238.666 89.562 240.955 93.5147 243.379C100.594 247.111 107.337 252.5 113.375 258.479C117.665 262.599 121.399 268.567 124.945 274.008C128.023 278.94 131.796 285.12 133.048 290.152C134.416 294.244 134.679 298.024 134.912 302.054C135.356 305.803 134.902 308.813 134.235 312.073C133.687 314.761 131.986 317.348 130.987 319.918C129.564 323.906 127.326 327.225 124.605 329.937C122.808 332.017 120.43 333.731 118.161 335.187C116.058 336.751 114.198 337.368 111.144 337.996C108.531 338.638 105.522 339.05 102.447 338.995C95.465 338.912 89.3816 338.353 82.8747 335.572C74.8097 331.913 66.5851 326.035 59.3981 320.233C53.2661 315.381 47.37 307.155 43.3202 300.393C40.6585 295.638 37.6497 290.499 36.2026 285.418C35.2552 282.252 34.3807 278.995 34.1725 275.985C33.9955 273.304 33.409 271.012 34.051 268.668C35.4148 264.211 37.4554 260.462 39.0309 256.075C40.537 252.989 42.7858 250.225 44.6944 247.495L44.7534 247.423V247.412L44.7396 247.416Z" fill="black"/>
<path d="M351.642 0.493844C352.634 -0.862141 354.241 -1.82972 355.393 -2.91867C356.636 -4.2157 358.263 -5.16938 359.79 -6.05025C360.741 -6.71611 362.206 -6.62247 363.191 -7.13574C364.229 -7.87442 365.318 -8.7657 366.797 -9.546C372.557 -12.1296 380.987 -10.791 388.004 -9.21653C392.265 -8.2559 396.464 -5.96703 400.417 -3.5429C407.496 0.188656 414.239 5.57793 420.278 11.5567C424.567 15.6767 428.301 21.6451 431.848 27.0864C434.926 32.0179 438.698 38.1978 439.951 43.2299C441.318 47.3221 441.582 51.1022 441.814 55.132C442.258 58.8809 441.804 61.8912 441.138 65.1511C440.589 67.8388 438.889 70.4259 437.889 72.9957C436.467 76.9839 434.228 80.3027 431.507 83.0147C429.71 85.0955 427.333 86.8087 425.063 88.2653C422.96 89.8293 421.1 90.4466 418.046 91.0743C415.433 91.7159 412.424 92.1286 409.35 92.0731C402.367 91.9899 396.284 91.4315 389.777 88.6502C381.712 84.9915 373.487 79.1132 366.3 73.3112C360.168 68.4595 354.272 60.2335 350.223 53.4709C347.561 48.7163 344.552 43.5767 343.105 38.4961C342.158 35.3298 341.283 32.0734 341.075 29.0632C340.898 26.3824 340.311 24.09 340.953 21.7457C342.317 17.2893 344.358 13.5404 345.933 9.15341C347.439 6.0669 349.688 3.30291 351.597 0.573601L351.656 0.500787V0.490373L351.642 0.493844Z" fill="black"/>
<path d="M295.154 123.955C296.146 122.599 297.753 121.631 298.905 120.542C300.147 119.245 301.775 118.292 303.302 117.411C304.253 116.745 305.717 116.838 306.703 116.325C307.74 115.587 308.83 114.695 310.308 113.915C316.069 111.331 324.499 112.67 331.515 114.244C335.777 115.205 339.976 117.494 343.929 119.918C351.008 123.65 357.751 129.039 363.789 135.018C368.079 139.138 371.813 145.106 375.359 150.547C378.437 155.479 382.21 161.659 383.462 166.691C384.83 170.783 385.094 174.563 385.326 178.593C385.77 182.342 385.316 185.352 384.649 188.612C384.101 191.3 382.401 193.887 381.401 196.457C379.978 200.445 377.74 203.764 375.019 206.476C373.222 208.556 370.844 210.27 368.575 211.726C366.472 213.29 364.612 213.908 361.558 214.535C358.945 215.177 355.936 215.59 352.861 215.534C345.879 215.451 339.796 214.892 333.289 212.111C325.224 208.452 316.999 202.574 309.812 196.772C303.68 191.92 297.784 183.694 293.734 176.932C291.073 172.177 288.064 167.038 286.617 161.957C285.669 158.791 284.795 155.534 284.587 152.524C284.41 149.843 283.823 147.551 284.465 145.207C285.829 140.75 287.869 137.001 289.445 132.614C290.951 129.528 293.2 126.764 295.109 124.035L295.167 123.962V123.951L295.154 123.955Z" fill="black"/>
<path d="M238.669 247.416C239.662 246.06 241.269 245.092 242.421 244.003C243.663 242.706 245.291 241.752 246.818 240.872C247.768 240.206 249.233 240.299 250.218 239.786C251.256 239.047 252.346 238.156 253.824 237.376C259.585 234.792 268.014 236.131 275.031 237.705C279.293 238.666 283.492 240.955 287.444 243.379C294.524 247.111 301.267 252.5 307.305 258.479C311.594 262.599 315.328 268.567 318.875 274.008C321.953 278.94 325.725 285.12 326.978 290.152C328.345 294.244 328.609 298.024 328.842 302.054C329.286 305.803 328.831 308.813 328.165 312.073C327.617 314.761 325.916 317.348 324.917 319.918C323.494 323.906 321.256 327.225 318.535 329.937C316.737 332.017 314.36 333.731 312.09 335.187C309.987 336.751 308.127 337.368 305.074 337.996C302.46 338.638 299.452 339.05 296.377 338.995C289.395 338.912 283.311 338.353 276.804 335.572C268.739 331.913 260.515 326.035 253.328 320.233C247.196 315.381 241.3 307.155 237.25 300.393C234.588 295.638 231.579 290.499 230.132 285.418C229.185 282.252 228.31 278.995 228.102 275.985C227.925 273.304 227.339 271.012 227.981 268.668C229.345 264.211 231.385 260.462 232.961 256.075C234.467 252.989 236.715 250.225 238.624 247.495L238.683 247.423V247.412L238.669 247.416Z" fill="black"/>
<path d="M545.572 0.493844C546.564 -0.862141 548.171 -1.82972 549.323 -2.91867C550.565 -4.2157 552.193 -5.16938 553.72 -6.05025C554.671 -6.71611 556.135 -6.62247 557.121 -7.13574C558.158 -7.87442 559.248 -8.7657 560.726 -9.546C566.487 -12.1296 574.916 -10.791 581.933 -9.21653C586.195 -8.2559 590.394 -5.96703 594.347 -3.5429C601.426 0.188656 608.169 5.57793 614.207 11.5567C618.497 15.6767 622.231 21.6451 625.777 27.0864C628.855 32.0179 632.628 38.1978 633.88 43.2299C635.248 47.3221 635.511 51.1022 635.744 55.132C636.188 58.8809 635.734 61.8912 635.067 65.1511C634.519 67.8388 632.819 70.4259 631.819 72.9957C630.396 76.9839 628.158 80.3027 625.437 83.0147C623.64 85.0955 621.262 86.8087 618.993 88.2653C616.89 89.8293 615.03 90.4466 611.976 91.0743C609.363 91.7159 606.354 92.1286 603.279 92.0731C596.297 91.9899 590.214 91.4315 583.707 88.6502C575.642 84.9915 567.417 79.1132 560.23 73.3112C554.098 68.4595 548.202 60.2335 544.152 53.4709C541.491 48.7163 538.482 43.5767 537.035 38.4961C536.087 35.3298 535.213 32.0734 535.005 29.0632C534.828 26.3824 534.241 24.09 534.883 21.7457C536.247 17.2893 538.287 13.5404 539.863 9.15341C541.369 6.0669 543.618 3.30291 545.526 0.573601L545.585 0.500787V0.490373L545.572 0.493844Z" fill="black"/>
<path d="M489.083 123.955C490.076 122.599 491.683 121.631 492.835 120.542C494.077 119.245 495.705 118.292 497.232 117.411C498.182 116.745 499.647 116.838 500.632 116.325C501.67 115.587 502.76 114.695 504.238 113.915C509.999 111.331 518.428 112.67 525.445 114.244C529.707 115.205 533.906 117.494 537.858 119.918C544.938 123.65 551.681 129.039 557.719 135.018C562.008 139.138 565.742 145.106 569.289 150.547C572.367 155.479 576.139 161.659 577.392 166.691C578.759 170.783 579.023 174.563 579.256 178.593C579.7 182.342 579.245 185.352 578.579 188.612C578.031 191.3 576.33 193.887 575.331 196.457C573.908 200.445 571.67 203.764 568.949 206.476C567.151 208.556 564.774 210.27 562.505 211.726C560.402 213.29 558.541 213.908 555.488 214.535C552.874 215.177 549.866 215.59 546.791 215.534C539.809 215.451 533.725 214.892 527.218 212.111C519.153 208.452 510.929 202.574 503.742 196.772C497.61 191.92 491.714 183.694 487.664 176.932C485.002 172.177 481.993 167.038 480.546 161.957C479.599 158.791 478.724 155.534 478.516 152.524C478.339 149.843 477.753 147.551 478.395 145.207C479.759 140.75 481.799 137.001 483.375 132.614C484.881 129.528 487.13 126.764 489.038 124.035L489.097 123.962V123.951L489.083 123.955Z" fill="black"/>
<path d="M432.591 247.416C433.584 246.06 435.19 245.092 436.343 244.003C437.585 242.706 439.212 241.752 440.739 240.872C441.69 240.206 443.155 240.299 444.14 239.786C445.178 239.047 446.268 238.156 447.746 237.376C453.507 234.792 461.936 236.131 468.953 237.705C473.215 238.666 477.414 240.955 481.366 243.379C488.446 247.111 495.188 252.5 501.227 258.479C505.516 262.599 509.25 268.567 512.797 274.008C515.875 278.94 519.647 285.12 520.9 290.152C522.267 294.244 522.531 298.024 522.764 302.054C523.208 305.803 522.753 308.813 522.087 312.073C521.539 314.761 519.838 317.348 518.839 319.918C517.416 323.906 515.177 327.225 512.457 329.937C510.659 332.017 508.282 333.731 506.012 335.187C503.909 336.751 502.049 337.368 498.995 337.996C496.382 338.638 493.374 339.05 490.299 338.995C483.317 338.912 477.233 338.353 470.726 335.572C462.661 331.913 454.437 326.035 447.25 320.233C441.118 315.381 435.222 307.155 431.172 300.393C428.51 295.638 425.501 290.499 424.054 285.418C423.107 282.252 422.232 278.995 422.024 275.985C421.847 273.304 421.261 271.012 421.903 268.668C423.266 264.211 425.307 260.462 426.882 256.075C428.389 252.989 430.637 250.225 432.546 247.495L432.605 247.423V247.412L432.591 247.416Z" fill="black"/>
<path d="M739.497 0.493844C740.49 -0.862141 742.097 -1.82972 743.249 -2.91867C744.491 -4.2157 746.119 -5.16938 747.646 -6.05025C748.597 -6.71611 750.061 -6.62247 751.047 -7.13574C752.084 -7.87442 753.174 -8.7657 754.652 -9.546C760.413 -12.1296 768.842 -10.791 775.859 -9.21653C780.121 -8.2559 784.32 -5.96703 788.272 -3.5429C795.352 0.188656 802.095 5.57793 808.133 11.5567C812.422 15.6767 816.156 21.6451 819.703 27.0864C822.781 32.0179 826.553 38.1978 827.806 43.2299C829.174 47.3221 829.437 51.1022 829.67 55.132C830.114 58.8809 829.659 61.8912 828.993 65.1511C828.445 67.8388 826.744 70.4259 825.745 72.9957C824.322 76.9839 822.084 80.3027 819.363 83.0147C817.565 85.0955 815.188 86.8087 812.919 88.2653C810.816 89.8293 808.956 90.4466 805.902 91.0743C803.289 91.7159 800.28 92.1286 797.205 92.0731C790.223 91.9899 784.139 91.4315 777.633 88.6502C769.568 84.9915 761.343 79.1132 754.156 73.3112C748.024 68.4595 742.128 60.2335 738.078 53.4709C735.416 48.7163 732.408 43.5767 730.96 38.4961C730.013 35.3298 729.139 32.0734 728.93 29.0632C728.753 26.3824 728.167 24.09 728.809 21.7457C730.173 17.2893 732.213 13.5404 733.789 9.15341C735.295 6.0669 737.544 3.30291 739.452 0.573601L739.511 0.500787V0.490373L739.497 0.493844Z" fill="black"/>
<path d="M933.423 0.493844C934.416 -0.862141 936.022 -1.82972 937.175 -2.91867C938.417 -4.2157 940.044 -5.16938 941.571 -6.05025C942.522 -6.71611 943.987 -6.62247 944.972 -7.13574C946.01 -7.87442 947.1 -8.7657 948.578 -9.546C954.339 -12.1296 962.768 -10.791 969.785 -9.21653C974.047 -8.2559 978.246 -5.96703 982.198 -3.5429C989.278 0.188656 996.021 5.57793 1002.06 11.5567C1006.35 15.6767 1010.08 21.6451 1013.63 27.0864C1016.71 32.0179 1020.48 38.1978 1021.73 43.2299C1023.1 47.3221 1023.36 51.1022 1023.6 55.132C1024.04 58.8809 1023.59 61.8912 1022.92 65.1511C1022.37 67.8388 1020.67 70.4259 1019.67 72.9957C1018.25 76.9839 1016.01 80.3027 1013.29 83.0147C1011.49 85.0955 1009.11 86.8087 1006.84 88.2653C1004.74 89.8293 1002.88 90.4466 999.827 91.0743C997.214 91.7159 994.206 92.1286 991.131 92.0731C984.149 91.9899 978.065 91.4315 971.558 88.6502C963.493 84.9915 955.269 79.1132 948.082 73.3112C941.95 68.4595 936.054 60.2335 932.004 53.4709C929.342 48.7163 926.333 43.5767 924.886 38.4961C923.939 35.3298 923.064 32.0734 922.856 29.0632C922.679 26.3824 922.093 24.09 922.735 21.7457C924.098 17.2893 926.139 13.5404 927.714 9.15341C929.221 6.0669 931.469 3.30291 933.378 0.573601L933.437 0.500787V0.490373L933.423 0.493844Z" fill="black"/>
<path d="M683.009 123.955C684.002 122.599 685.608 121.631 686.76 120.542C688.003 119.245 689.63 118.292 691.157 117.411C692.108 116.745 693.573 116.838 694.558 116.325C695.596 115.587 696.686 114.695 698.164 113.915C703.925 111.331 712.354 112.67 719.371 114.244C723.632 115.205 727.832 117.494 731.784 119.918C738.864 123.65 745.606 129.039 751.645 135.018C755.934 139.138 759.668 145.106 763.215 150.547C766.293 155.479 770.065 161.659 771.318 166.691C772.685 170.783 772.949 174.563 773.181 178.593C773.626 182.342 773.171 185.352 772.505 188.612C771.956 191.3 770.256 193.887 769.257 196.457C767.834 200.445 765.595 203.764 762.875 206.476C761.077 208.556 758.7 210.27 756.43 211.726C754.327 213.29 752.467 213.908 749.413 214.535C746.8 215.177 743.791 215.59 740.717 215.534C733.735 215.451 727.651 214.892 721.144 212.111C713.079 208.452 704.855 202.574 697.668 196.772C691.536 191.92 685.64 183.694 681.59 176.932C678.928 172.177 675.919 167.038 674.472 161.957C673.525 158.791 672.65 155.534 672.442 152.524C672.265 149.843 671.679 147.551 672.321 145.207C673.684 140.75 675.725 137.001 677.3 132.614C678.807 129.528 681.055 126.764 682.964 124.035L683.023 123.962V123.951L683.009 123.955Z" fill="black"/>
<path d="M876.931 123.955C877.923 122.599 879.53 121.631 880.682 120.542C881.925 119.245 883.552 118.292 885.079 117.411C886.03 116.745 887.495 116.838 888.48 116.325C889.518 115.587 890.607 114.695 892.086 113.915C897.846 111.331 906.276 112.67 913.293 114.244C917.554 115.205 921.753 117.494 925.706 119.918C932.786 123.65 939.528 129.039 945.567 135.018C949.856 139.138 953.59 145.106 957.137 150.547C960.215 155.479 963.987 161.659 965.24 166.691C966.607 170.783 966.871 174.563 967.103 178.593C967.548 182.342 967.093 185.352 966.427 188.612C965.878 191.3 964.178 193.887 963.178 196.457C961.756 200.445 959.517 203.764 956.797 206.476C954.999 208.556 952.622 210.27 950.352 211.726C948.249 213.29 946.389 213.908 943.335 214.535C940.722 215.177 937.713 215.59 934.639 215.534C927.656 215.451 921.573 214.892 915.066 212.111C907.001 208.452 898.777 202.574 891.59 196.772C885.457 191.92 879.561 183.694 875.512 176.932C872.85 172.177 869.841 167.038 868.394 161.957C867.447 158.791 866.572 155.534 866.364 152.524C866.187 149.843 865.6 147.551 866.242 145.207C867.606 140.75 869.647 137.001 871.222 132.614C872.728 129.528 874.977 126.764 876.886 124.035L876.945 123.962V123.951L876.931 123.955Z" fill="black"/>
<path d="M626.521 247.416C627.513 246.06 629.12 245.092 630.272 244.003C631.515 242.706 633.142 241.752 634.669 240.872C635.62 240.206 637.084 240.299 638.07 239.786C639.108 239.047 640.197 238.156 641.676 237.376C647.436 234.792 655.866 236.131 662.883 237.705C667.144 238.666 671.343 240.955 675.296 243.379C682.375 247.111 689.118 252.5 695.156 258.479C699.446 262.599 703.18 268.567 706.726 274.008C709.805 278.94 713.577 285.12 714.83 290.152C716.197 294.244 716.461 298.024 716.693 302.054C717.137 305.803 716.683 308.813 716.016 312.073C715.468 314.761 713.768 317.348 712.768 319.918C711.345 323.906 709.107 327.225 706.386 329.937C704.589 332.017 702.212 333.731 699.942 335.187C697.839 336.751 695.979 337.368 692.925 337.996C690.312 338.638 687.303 339.05 684.228 338.995C677.246 338.912 671.163 338.353 664.656 335.572C656.591 331.913 648.366 326.035 641.179 320.233C635.047 315.381 629.151 307.155 625.101 300.393C622.44 295.638 619.431 290.499 617.984 285.418C617.036 282.252 616.162 278.995 615.954 275.985C615.777 273.304 615.19 271.012 615.832 268.668C617.196 264.211 619.237 260.462 620.812 256.075C622.318 252.989 624.567 250.225 626.476 247.495L626.535 247.423V247.412L626.521 247.416Z" fill="black"/>
<path d="M820.447 247.416C821.439 246.06 823.046 245.092 824.198 244.003C825.44 242.706 827.068 241.752 828.595 240.872C829.546 240.206 831.01 240.299 831.996 239.786C833.033 239.047 834.123 238.156 835.601 237.376C841.362 234.792 849.791 236.131 856.808 237.705C861.07 238.666 865.269 240.955 869.222 243.379C876.301 247.111 883.044 252.5 889.082 258.479C893.372 262.599 897.106 268.567 900.652 274.008C903.73 278.94 907.503 285.12 908.755 290.152C910.123 294.244 910.386 298.024 910.619 302.054C911.063 305.803 910.609 308.813 909.942 312.073C909.394 314.761 907.694 317.348 906.694 319.918C905.271 323.906 903.033 327.225 900.312 329.937C898.515 332.017 896.137 333.731 893.868 335.187C891.765 336.751 889.905 337.368 886.851 337.996C884.238 338.638 881.229 339.05 878.154 338.995C871.172 338.912 865.089 338.353 858.582 335.572C850.517 331.913 842.292 326.035 835.105 320.233C828.973 315.381 823.077 307.155 819.027 300.393C816.366 295.638 813.357 290.499 811.91 285.418C810.962 282.252 810.088 278.995 809.88 275.985C809.703 273.304 809.116 271.012 809.758 268.668C811.122 264.211 813.162 260.462 814.738 256.075C816.244 252.989 818.493 250.225 820.401 247.495L820.46 247.423V247.412L820.447 247.416Z" fill="black"/>
<path d="M1014.37 247.416C1015.36 246.06 1016.97 245.092 1018.12 244.003C1019.37 242.706 1020.99 241.752 1022.52 240.872C1023.47 240.206 1024.94 240.299 1025.92 239.786C1026.96 239.047 1028.05 238.156 1029.53 237.376C1035.29 234.792 1043.72 236.131 1050.73 237.705C1055 238.666 1059.19 240.955 1063.15 243.379C1070.23 247.111 1076.97 252.5 1083.01 258.479C1087.3 262.599 1091.03 268.567 1094.58 274.008C1097.66 278.94 1101.43 285.12 1102.68 290.152C1104.05 294.244 1104.31 298.024 1104.54 302.054C1104.99 305.803 1104.53 308.813 1103.87 312.073C1103.32 314.761 1101.62 317.348 1100.62 319.918C1099.2 323.906 1096.96 327.225 1094.24 329.937C1092.44 332.017 1090.06 333.731 1087.79 335.187C1085.69 336.751 1083.83 337.368 1080.78 337.996C1078.16 338.638 1075.15 339.05 1072.08 338.995C1065.1 338.912 1059.01 338.353 1052.51 335.572C1044.44 331.913 1036.22 326.035 1029.03 320.233C1022.9 315.381 1017 307.155 1012.95 300.393C1010.29 295.638 1007.28 290.499 1005.84 285.418C1004.89 282.252 1004.01 278.995 1003.81 275.985C1003.63 273.304 1003.04 271.012 1003.68 268.668C1005.05 264.211 1007.09 260.462 1008.66 256.075C1010.17 252.989 1012.42 250.225 1014.33 247.495L1014.39 247.423V247.412L1014.37 247.416Z" fill="black"/>
<path d="M590.863 258.907C592.67 263.682 588.012 278.448 585.304 280.677C577.269 287.318 553.174 280.714 540.615 277.823C535.92 276.743 531.583 274.36 528.61 270.64C522.224 262.632 517.618 258.436 524.165 248.058C526.473 244.397 530.599 242.754 534.84 242.417C536.905 242.256 539.845 241.717 541.732 241.893C548.365 242.537 554.465 245.139 560.921 246.895L581.353 252.431C585.125 253.455 589.337 254.899 590.869 258.915L590.862 258.914L590.863 258.907Z" fill="black"/>
<path d="M348.601 64.9799C350.408 69.7553 345.75 84.5213 343.042 86.7506C335.008 93.3913 310.913 86.7869 298.353 83.8962C293.659 82.8161 289.321 80.4337 286.349 76.7132C279.962 68.7048 275.357 64.5095 281.904 54.1315C284.211 50.4699 288.338 48.8272 292.579 48.4902C294.643 48.3289 297.583 47.7898 299.47 47.9664C306.103 48.6106 312.204 51.2121 318.66 52.9685L339.091 58.504C342.864 59.5283 347.075 60.972 348.607 64.9882L348.6 64.9872L348.601 64.9799Z" fill="black"/>
<path d="M445.475 153.238C450.143 154.03 452.671 157.204 455.415 160.106C457.08 161.869 458.914 163.529 459.171 166.053C459.971 173.844 456.338 180.323 451.503 185.843L441.878 196.833L430.723 209.945C428.32 212.769 424.493 215.791 420.574 214.794L414.242 213.194C411.217 209.914 406.897 204.452 407.787 199.645L410.342 185.733L412.979 172.531C413.175 171.539 414.163 169.287 414.742 168.482L421.338 159.325C423.123 156.85 427.6 153.73 430.591 152.992C435.312 151.808 440.718 152.436 445.489 153.247L445.482 153.234L445.475 153.238Z" fill="black"/>
<path d="M479.228 30.2867C482.581 26.9434 486.633 26.7248 490.588 26.1725C492.99 25.8384 495.406 25.3073 497.611 26.5623C504.422 30.4288 507.593 37.1452 509.286 44.2862L512.658 58.5003L516.87 75.1926C517.776 78.7878 518.018 83.6581 514.934 86.2726L509.958 90.503C505.532 91.0642 498.576 91.4169 495.177 87.9036L485.325 77.7534L476.099 67.9488C475.405 67.2138 474.143 65.1028 473.823 64.1647L470.189 53.4809C469.208 50.591 469.263 45.1345 470.397 42.2697C472.17 37.7374 475.817 33.6974 479.244 30.281L479.229 30.2795L479.228 30.2867Z" fill="black"/>
<path d="M378.19 170.723C379.564 177.165 371.359 190.371 365.913 192.051C359.433 194.048 352.056 192.369 346.108 189.031C342.879 187.214 340.135 184.349 337.209 181.993C332.308 178.035 327.958 173.961 324.218 168.841C318.322 160.732 316.278 150.324 324.671 145.415C333.535 140.224 350.211 142.683 359.572 148.939L364.799 152.43C366.397 153.501 368.964 154.79 370.422 156.083C374.371 159.553 377.023 165.375 378.17 170.746L378.186 170.717L378.19 170.723Z" fill="black"/>
<path d="M36.2657 130.188C38.8231 124.155 53.1681 118.028 58.6283 119.741C65.1247 121.781 70.2543 127.328 73.2526 133.419C74.8767 136.73 75.5014 140.621 76.5669 144.2C78.3454 150.204 79.602 155.99 79.7563 162.285C79.9768 172.238 75.6997 181.887 65.9551 181.139C55.6594 180.355 43.2986 168.906 39.1538 158.502L36.8389 152.694C36.1334 150.916 34.7519 148.411 34.2889 146.531C33.0175 141.463 34.1639 135.212 36.2951 130.181L36.2657 130.196V130.188Z" fill="black"/>
<path d="M668.711 41.0869C671.268 35.0538 685.613 28.9264 691.074 30.6398C697.57 32.6798 702.7 38.2264 705.698 44.3175C707.322 47.6281 707.947 51.5194 709.012 55.0986C710.791 61.1025 712.047 66.8887 712.202 73.1831C712.422 83.1365 708.145 92.785 698.4 92.0372C688.105 91.2531 675.744 79.8042 671.599 69.4007L669.284 63.5927C668.579 61.814 667.197 59.3093 666.734 57.429C665.463 52.3616 666.609 46.1107 668.74 41.0796L668.711 41.0941V41.0869Z" fill="black"/>
<path d="M803.816 145.33C806.374 139.297 820.719 133.17 826.179 134.883C832.676 136.923 837.805 142.47 840.803 148.561C842.427 151.871 843.052 155.763 844.118 159.342C845.896 165.346 847.153 171.132 847.307 177.426C847.528 187.38 843.251 197.028 833.506 196.28C823.21 195.496 810.849 184.047 806.705 173.644L804.39 167.836C803.684 166.057 802.303 163.553 801.84 161.672C800.568 156.605 801.715 150.354 803.846 145.323L803.816 145.337V145.33Z" fill="black"/>
<path d="M855.648 41.0869C858.206 35.0538 872.551 28.9264 878.011 30.6398C884.508 32.6798 889.637 38.2264 892.635 44.3175C894.26 47.6281 894.884 51.5194 895.95 55.0986C897.728 61.1025 898.985 66.8887 899.139 73.1831C899.36 83.1365 895.083 92.785 885.338 92.0372C875.042 91.2531 862.681 79.8042 858.537 69.4007L856.222 63.5927C855.516 61.814 854.135 59.3093 853.672 57.429C852.4 52.3616 853.547 46.1107 855.678 41.0796L855.648 41.0941V41.0869Z" fill="black"/>
<path d="M-38.8593 267.626C-36.3019 261.593 -21.9569 255.465 -16.4967 257.179C-10.0003 259.219 -4.87075 264.766 -1.87241 270.857C-0.248309 274.167 0.376352 278.058 1.44194 281.638C3.22036 287.642 4.47699 293.428 4.63132 299.722C4.85179 309.676 0.574724 319.324 -9.16987 318.576C-19.4656 317.792 -31.8264 306.343 -35.9712 295.94L-38.2861 290.132C-38.9916 288.353 -40.3731 285.848 -40.8361 283.968C-42.1075 278.901 -40.9611 272.65 -38.8299 267.619L-38.8593 267.633V267.626Z" fill="black"/>
<path d="M191.059 296.01C187.737 301.698 172.779 305.937 167.621 303.513C161.485 300.626 157.161 294.418 155.011 287.945C153.848 284.428 153.747 280.461 153.17 276.749C152.212 270.523 151.739 264.582 152.42 258.279C153.521 248.314 159.017 239.242 168.528 241.263C178.578 243.393 189.251 256.44 191.961 267.368L193.474 273.468C193.935 275.336 194.965 278.017 195.173 279.955C195.755 285.18 193.797 291.27 191.029 296.013L191.06 296.003L191.059 296.01Z" fill="black"/>
<path d="M387.313 296.01C383.991 301.698 369.033 305.937 363.875 303.513C357.739 300.626 353.415 294.418 351.265 287.945C350.102 284.428 350.001 280.461 349.424 276.749C348.466 270.523 347.993 264.582 348.674 258.279C349.775 248.314 355.271 239.242 364.782 241.263C374.832 243.393 385.505 256.44 388.215 267.368L389.728 273.468C390.188 275.336 391.219 278.017 391.427 279.955C392.009 285.18 390.051 291.27 387.283 296.013L387.314 296.003L387.313 296.01Z" fill="black"/>
<path d="M644.011 183.569C643.067 188.075 640.741 190.709 636.519 191.565C627.219 193.458 614.33 188.606 611.164 180.951C608.957 175.629 607.235 170.326 606.727 164.816L605.542 152.011C604.678 142.685 612.672 135.626 621.361 136.565L626.552 137.128C632.978 137.826 637.595 140.998 642.033 145.621C652.339 156.325 646.9 169.748 644.005 183.561L644.012 183.562L644.011 183.569Z" fill="black"/>
<path d="M975.375 284.901C974.43 289.407 972.104 292.041 967.883 292.897C958.583 294.79 945.693 289.938 942.528 282.283C940.321 276.961 938.598 271.658 938.09 266.148L936.905 253.343C936.041 244.017 944.036 236.958 952.724 237.897L957.915 238.46C964.342 239.158 968.958 242.33 973.396 246.953C983.702 257.657 978.263 271.08 975.368 284.893L975.376 284.894L975.375 284.901Z" fill="black"/>
<path d="M1031.86 177.746C1030.92 182.252 1028.59 184.886 1024.37 185.742C1015.07 187.635 1002.18 182.783 999.016 175.128C996.809 169.805 995.086 164.503 994.578 158.993L993.394 146.188C992.529 136.862 1000.52 129.803 1009.21 130.742L1014.4 131.305C1020.83 132.003 1025.45 135.175 1029.88 139.797C1040.19 150.502 1034.75 163.925 1031.86 177.737L1031.86 177.738L1031.86 177.746Z" fill="black"/>
<path d="M774.461 288.393C773.516 292.899 771.19 295.533 766.969 296.389C757.669 298.282 744.779 293.43 741.613 285.775C739.407 280.453 737.684 275.15 737.176 269.64L735.991 256.835C735.127 247.509 743.121 240.45 751.81 241.389L757.001 241.952C763.428 242.65 768.044 245.822 772.482 250.445C782.788 261.149 777.349 274.572 774.454 288.385L774.462 288.386L774.461 288.393Z" fill="black"/>
<path d="M145.493 64.9473C148.65 68.2989 149.48 71.7132 147.769 75.6657C144.004 84.3778 132.653 92.1775 124.563 90.3976C118.934 89.1646 113.599 87.546 108.788 84.8119L97.606 78.4615C89.4609 73.838 88.2411 63.2431 93.9795 56.6521L97.41 52.7157C101.657 47.8423 106.899 45.8688 113.23 44.8711C127.904 42.5371 135.806 54.6748 145.483 64.9478L145.487 64.9424L145.493 64.9473Z" fill="black"/>
<path d="M256.156 192.304C255.211 196.81 252.885 199.444 248.664 200.3C239.364 202.193 226.475 197.341 223.309 189.686C221.102 184.364 219.379 179.061 218.871 173.551L217.687 160.746C216.822 151.42 224.817 144.361 233.505 145.3L238.696 145.864C245.123 146.562 249.739 149.733 254.178 154.356C264.483 165.06 259.044 178.483 256.15 192.296L256.157 192.297L256.156 192.304Z" fill="black"/>
</g>
<defs>
<clipPath id="clip0_5955_5040">
<rect width="1017" height="271" fill="white"/>
</clipPath>
</defs>
</svg>
