<svg width="66" height="55" viewBox="0 0 66 55" fill="none" xmlns="http://www.w3.org/2000/svg">
<g clip-path="url(#clip0_5625_9477)">
<path d="M22.7022 34.8718C29.5101 37.2643 39.3993 37.1653 45.0449 33.7438C46.3282 32.9657 47.1582 31.6462 48.1808 30.4747C49.4782 28.9894 51.6098 28.0802 52.4679 26.0214C52.7401 25.3716 53.185 24.2659 53.7596 22.5553C53.8709 22.2258 53.7204 21.8703 53.4095 21.7317L50.7112 20.5281C49.4463 19.9623 47.9996 19.3177 47.3633 18.6123C46.2809 17.4115 43.7743 17.1809 41.6991 16.9579C30.5473 15.7512 26.0373 18.3829 16.9241 23.8632L9.12697 28.5498C8.69499 28.8112 8.66387 29.4266 9.07132 29.7L13.0343 32.3643C13.0981 32.4058 13.1694 32.4391 13.245 32.4564C14.9025 32.8595 16.2025 33.2337 17.7687 34.0086C19.0444 34.6407 21.4246 34.4234 22.6997 34.872L22.7022 34.8718Z" fill="#1D7BBF"/>
</g>
<defs>
<clipPath id="clip0_5625_9477">
<rect width="57" height="32" fill="white" transform="translate(0 26.0156) rotate(-27.1555)"/>
</clipPath>
</defs>
</svg>
