<svg width="83" height="83" viewBox="0 0 83 83" fill="none" xmlns="http://www.w3.org/2000/svg">
<g clip-path="url(#clip0_5625_9473)">
<path d="M39.5877 69.3213C34.5621 68.0358 27.8205 66.0223 24.7112 62.0349C23.6208 60.7676 22.4172 59.3297 21.3462 58.197C20.1613 56.983 18.5371 55.3777 17.3884 54.1585C14.3941 50.9033 11.9862 47.0417 10.8558 42.9107C9.32336 37.8482 10.5503 33.5202 12.0614 28.7819C12.8607 25.7416 13.7254 23.9229 15.8873 21.5903C17.8934 19.3752 20.2901 17.5915 22.8592 16.0833C27.3 13.4398 32.4855 11.3922 37.6961 12.8386C48.6246 15.3771 57.6157 16.4243 62.9272 27.4262C63.52 28.4448 64.4635 30.0204 64.9801 30.9082C65.2554 31.3766 65.2724 31.4275 65.3785 31.8302C65.8825 33.6892 66.5238 36.1459 67.2125 37.885C67.5428 38.7346 68.105 39.4244 68.4427 40.2962C68.8842 41.4871 69.4069 42.7445 69.7316 43.968C70.4656 46.758 70.2692 49.6884 69.8517 52.5221C69.4273 55.9116 67.8837 58.8025 65.4639 61.1952C63.8394 62.849 62.2078 64.9048 60.5093 66.3946C59.2715 67.3903 57.7593 68.05 56.3817 68.8781C55.2013 69.5856 53.9292 70.1808 52.5266 70.2544C48.205 70.4752 43.8527 70.2785 39.607 69.3257L39.5877 69.3213ZM51.8369 61.0224C54.3123 60.6139 57.3522 57.4476 58.8856 55.4916C61.7918 51.5067 62.1477 45.674 60.3645 41.228C59.706 39.4187 59.1058 37.4268 58.199 35.6783C57.6572 34.6411 57.1217 34.1139 56.5528 33.3037C55.8565 32.3206 55.1256 31.3531 54.244 30.5098C52.8011 29.186 51.9194 28.2422 50.1594 26.8646C48.7987 25.84 47.3598 24.9218 45.8427 24.1353C41.5879 22.0259 36.0586 20.2656 32.8159 21.2741C31.978 21.5748 31.4981 22.1044 30.8016 22.5402C28.7157 23.9017 26.4031 25.4593 24.6406 27.3031C23.4599 28.5804 22.7974 29.9895 22.0493 31.5051C21.4643 32.7981 20.8601 34.0616 20.644 35.4645C20.2655 38.0299 21.4057 40.5712 22.3107 43.0255C23.6117 46.9398 26.6764 52.3669 30.3374 55.8314C31.2257 56.699 32.2965 57.5997 33.2127 58.2707C33.8405 58.7144 34.2894 59.0547 35.005 59.3394C37.5658 60.2891 40.2992 60.8855 43.055 60.8854C45.7177 60.9136 49.2784 61.0348 51.828 61.0238L51.8376 61.0231L51.8369 61.0224Z" fill="#1D7BBF"/>
<path d="M44.243 53.3964C43.9066 53.2243 43.5809 52.9393 43.2768 52.7368C42.9278 52.5184 42.6017 52.2298 42.2995 51.9585C42.09 51.7911 41.9668 51.5253 41.7821 51.3505C41.5525 51.1678 41.2892 50.9756 41.009 50.7119C40.0005 49.6858 39.4353 48.1568 39.0495 46.8824C38.815 46.1089 38.8238 45.3376 38.8805 44.6125C38.8725 43.3155 39.1922 42.0696 39.6835 40.9485C40.0106 40.1531 40.7197 39.4468 41.3531 38.7789C41.9403 38.1966 42.6842 37.485 43.461 37.2316C44.0605 36.9633 44.7103 36.8961 45.4066 36.8336C46.0327 36.7332 46.613 36.8005 47.2587 36.9026C47.7904 36.9871 48.4139 37.2805 48.9672 37.4477C49.8146 37.6837 50.618 38.0701 51.3625 38.5469C51.9049 38.8605 52.4369 39.2809 52.9123 39.6832C53.3916 40.0542 53.6789 40.3875 54.0823 40.9347C54.445 41.4028 54.8064 41.945 55.0877 42.5004C55.7372 43.7603 56.2168 44.862 56.3404 46.0512C56.4546 47.5249 56.1897 49.0422 55.8384 50.3689C55.5559 51.501 54.6505 52.6083 53.83 53.3751C53.234 53.8797 52.605 54.4508 51.8352 54.7384C51.36 54.9254 50.8616 55.1003 50.3456 55.1534C49.8844 55.1986 49.5305 55.3172 49.0517 55.2132C48.1268 54.9897 47.2645 54.6408 46.3315 54.3803C45.6375 54.1242 44.9309 53.7333 44.2621 53.4027L44.2434 53.392L44.243 53.3964Z" fill="#1D7BBF"/>
</g>
<defs>
<clipPath id="clip0_5625_9473">
<rect width="52.9351" height="63.3028" fill="white" transform="translate(0 37.4614) rotate(-45.047)"/>
</clipPath>
</defs>
</svg>
