<svg width="49" height="13" viewBox="0 0 49 13" fill="none" xmlns="http://www.w3.org/2000/svg">
<path d="M1.68778 7.64908C1.68778 8.60966 1.92464 9.35762 2.39766 9.89261C2.87103 10.4276 3.47805 10.6953 4.21908 10.6953C4.78155 10.6953 5.25854 10.5446 5.64934 10.2425C6.0405 9.94078 6.34546 9.4949 6.5653 8.9045H8.27372C8.02671 9.93354 7.56348 10.7362 6.88439 11.3128C6.20529 11.8891 5.3509 12.1774 4.32194 12.1774C3.05936 12.1774 2.02352 11.7555 1.21404 10.9115C0.404559 10.0676 0 8.9802 0 7.64908C0 6.31796 0.404559 5.24799 1.2144 4.39716C2.02388 3.54633 3.05973 3.12109 4.3223 3.12109C5.36503 3.12109 6.23282 3.41629 6.92567 4.00634C7.61853 4.59638 8.07488 5.41968 8.29437 6.47624H6.58595C6.38023 5.87244 6.08179 5.40954 5.69063 5.08681C5.29947 4.76444 4.80871 4.60326 4.21908 4.60326C3.47805 4.60326 2.87103 4.87093 2.39766 5.40591C1.92428 5.94126 1.68778 6.68922 1.68778 7.64944V7.64908Z" fill="white"/>
<path d="M14.4826 12.1776C13.8514 12.1776 13.2581 12.0674 12.7025 11.8483C12.1469 11.6288 11.663 11.3202 11.2516 10.9221C10.8402 10.5244 10.5138 10.0474 10.2741 9.49177C10.0339 8.93614 9.91406 8.32219 9.91406 7.64957C9.91406 6.97695 10.0339 6.363 10.2741 5.80737C10.5138 5.25174 10.8434 4.77507 11.2621 4.377C11.6804 3.9793 12.1676 3.67033 12.7235 3.45083C13.2791 3.23133 13.8658 3.12158 14.4834 3.12158C15.1009 3.12158 15.6873 3.23169 16.2432 3.45083C16.7988 3.67033 17.2859 3.9793 17.7046 4.377C18.123 4.77507 18.4522 5.25174 18.6927 5.80737C18.9324 6.363 19.0527 6.97731 19.0527 7.64957C19.0527 8.32183 18.9324 8.93614 18.6927 9.49177C18.4525 10.0474 18.1266 10.5244 17.7151 10.9221C17.3033 11.3202 16.8198 11.6292 16.2642 11.8483C15.7086 12.0674 15.115 12.1776 14.4841 12.1776H14.4826ZM14.4826 10.6954C15.3193 10.6954 16.0089 10.4277 16.5511 9.89274C17.0929 9.35739 17.3642 8.60979 17.3642 7.64921C17.3642 6.68863 17.0896 5.94102 16.5409 5.40568C15.9919 4.87069 15.3059 4.60302 14.4826 4.60302C13.6594 4.60302 12.9731 4.87069 12.4244 5.40568C11.8753 5.94102 11.6011 6.68899 11.6011 7.64921C11.6011 8.60943 11.872 9.35775 12.4142 9.89274C12.956 10.4277 13.6456 10.6954 14.4826 10.6954Z" fill="white"/>
<path d="M21.4297 11.8686V3.42979H23.0555V5.04416C23.321 4.44833 23.7708 4.02418 24.3239 3.71485C24.8483 3.42146 25.5329 3.30664 26.2054 3.30664C26.5155 3.30664 26.7951 3.37546 26.8777 3.38886V5.12566C26.6582 5.09704 26.4999 5.08401 26.2391 5.06481C26.0117 5.04815 25.6307 5.03547 25.4115 5.03909C24.6281 5.05213 24.0284 5.33103 23.6578 5.85225C23.2873 6.37383 23.0563 7.0863 23.0563 8.26638V11.8686H21.4304H21.4297Z" fill="white"/>
<path d="M28.2109 7.64915C28.2109 6.92183 28.3308 6.27348 28.5709 5.70408C28.8111 5.13469 29.1164 4.66128 29.4869 4.28386C29.8574 3.90643 30.2794 3.61848 30.7527 3.41926C31.2261 3.22041 31.6959 3.1208 32.1627 3.1208C32.7665 3.1208 33.3634 3.28235 33.9534 3.60435C34.543 3.92708 35.0098 4.41751 35.3528 5.07601V0H36.9993V11.8685H35.3528V10.2219C35.0095 10.8804 34.543 11.3712 33.9534 11.6936C33.3634 12.016 32.7665 12.1771 32.1627 12.1771C31.6962 12.1771 31.2265 12.0775 30.7527 11.8787C30.2794 11.6798 29.8574 11.3919 29.4869 11.0141C29.1164 10.6367 28.8111 10.1632 28.5709 9.59386C28.3308 9.02446 28.2109 8.37611 28.2109 7.64879V7.64915ZM32.5535 4.66454C31.7437 4.66454 31.099 4.95286 30.6187 5.52914C30.1385 6.10541 29.8983 6.81244 29.8983 7.64915C29.8983 8.48586 30.1385 9.19289 30.6187 9.76916C31.099 10.3454 31.7437 10.6338 32.5535 10.6338C33.3634 10.6338 34.0214 10.3733 34.5705 9.85175C35.1192 9.33053 35.3938 8.59633 35.3938 7.64951C35.3938 6.7027 35.116 5.96886 34.56 5.44728C34.0044 4.92606 33.3355 4.66526 32.5535 4.66526V4.66454Z" fill="white"/>
<path d="M39.3125 7.64895C39.3125 6.92164 39.436 6.27328 39.683 5.70389C39.93 5.13449 40.2455 4.66108 40.6298 4.28366C41.0137 3.90624 41.4461 3.61828 41.9264 3.41907C42.4066 3.22021 42.8865 3.12061 43.3671 3.12061C43.9568 3.12061 44.5366 3.28215 45.1064 3.60416C45.6757 3.92688 46.1252 4.41044 46.4544 5.05517V3.42921H48.1009V11.8683H46.4544V10.2424C46.1252 10.8875 45.6757 11.371 45.1064 11.6934C44.5366 12.0158 43.9571 12.1769 43.3671 12.1769C42.8869 12.1769 42.4066 12.0773 41.9264 11.8785C41.4461 11.6796 41.0137 11.3917 40.6298 11.0139C40.2455 10.6365 39.93 10.1631 39.683 9.59366C39.436 9.02427 39.3125 8.37591 39.3125 7.64859V7.64895ZM43.6359 4.6437C42.8206 4.6437 42.1712 4.93383 41.6877 5.51409C41.2038 6.09435 40.9622 6.80645 40.9622 7.64895C40.9622 8.49145 41.2038 9.20356 41.6877 9.78382C42.1712 10.3641 42.8206 10.6542 43.6359 10.6542C44.4512 10.6542 45.0969 10.392 45.6565 9.8664C46.2161 9.34156 46.3939 8.56535 46.3939 7.60223C46.3939 6.63911 46.2193 5.95599 45.6667 5.43078C45.114 4.90594 44.4367 4.64297 43.6355 4.64297L43.6359 4.6437Z" fill="white"/>
</svg>
