<svg width="108" height="17" viewBox="0 0 108 17" fill="none" xmlns="http://www.w3.org/2000/svg">
<path d="M2.18593 2.8331H2.82703L3.54538 5.22759L4.18648 2.8331H4.81986L3.89297 6H3.21324L2.51035 3.61324L1.79972 6H1.12L0.193103 2.8331H0.826483L1.46759 5.22759L2.18593 2.8331ZM5.58793 6V0.747586H6.20586V3.536C6.31915 3.25793 6.48136 3.05195 6.69248 2.91807C6.90876 2.78418 7.14048 2.71724 7.38766 2.71724C7.73267 2.71724 8.01074 2.84083 8.22186 3.088C8.43299 3.33002 8.53855 3.67503 8.53855 4.12303V6H7.92062V4.27752C7.92062 3.96855 7.8614 3.7291 7.74297 3.55917C7.62453 3.38409 7.434 3.29655 7.17138 3.29655C6.89331 3.29655 6.66159 3.39697 6.47621 3.59779C6.29598 3.79862 6.20586 4.09986 6.20586 4.50152V6H5.58793ZM9.42985 4.41655C9.42985 4.14363 9.47619 3.90161 9.56888 3.69048C9.66157 3.47421 9.78001 3.29655 9.92419 3.15752C10.0684 3.01333 10.2306 2.9052 10.4108 2.8331C10.591 2.75586 10.7713 2.71724 10.9515 2.71724C11.1729 2.71724 11.3892 2.77903 11.6003 2.90262C11.8166 3.02106 11.9865 3.20129 12.1101 3.44331V2.8331H12.7281V6H12.1101V5.38979C11.9865 5.63182 11.8166 5.81462 11.6003 5.93821C11.3892 6.05664 11.1729 6.11586 10.9515 6.11586C10.7713 6.11586 10.591 6.07724 10.4108 6C10.2306 5.92791 10.0684 5.82234 9.92419 5.68331C9.78001 5.53913 9.66157 5.36147 9.56888 5.15034C9.47619 4.93407 9.42985 4.68947 9.42985 4.41655ZM11.0596 3.29655C10.7558 3.29655 10.5138 3.40469 10.3336 3.62097C10.1533 3.83724 10.0632 4.10244 10.0632 4.41655C10.0632 4.73067 10.1533 4.99586 10.3336 5.21214C10.5138 5.42841 10.7558 5.53655 11.0596 5.53655C11.3532 5.53655 11.6029 5.43871 11.8089 5.24303C12.02 5.04736 12.1256 4.77186 12.1256 4.41655C12.1256 4.06124 12.0226 3.78575 11.8166 3.59007C11.6106 3.39439 11.3583 3.29655 11.0596 3.29655ZM13.4528 3.37379V2.8331H14.3333V1.52H14.9436V2.8331H16.1176V3.37379H14.9436V4.82593C14.9436 5.0731 14.995 5.25333 15.098 5.36662C15.201 5.47991 15.3632 5.53655 15.5847 5.53655C15.6722 5.53655 15.7597 5.5314 15.8473 5.5211C15.9348 5.50566 16.0249 5.48763 16.1176 5.46703V6.06179C16.0146 6.08239 15.9142 6.09526 15.8164 6.10041C15.7185 6.11071 15.6259 6.11586 15.5383 6.11586C15.1264 6.11586 14.8225 6.01802 14.6269 5.82234C14.4312 5.62152 14.3333 5.3177 14.3333 4.9109V3.37379H13.4528ZM18.381 6V2.8331H18.999V3.52828C19.0968 3.27595 19.241 3.0777 19.4315 2.93352C19.6272 2.78933 19.8563 2.71724 20.119 2.71724C20.3764 2.71724 20.5979 2.78933 20.7832 2.93352C20.9686 3.0777 21.0999 3.28368 21.1772 3.55145C21.275 3.28883 21.4269 3.08542 21.6329 2.94124C21.844 2.79191 22.0912 2.71724 22.3744 2.71724C22.7143 2.71724 22.9872 2.84083 23.1932 3.088C23.4043 3.33002 23.5099 3.67503 23.5099 4.12303V6H22.8919V4.27752C22.8919 3.96855 22.8327 3.7291 22.7143 3.55917C22.5958 3.38409 22.4053 3.29655 22.1427 3.29655C21.8852 3.29655 21.6715 3.39697 21.5016 3.59779C21.3368 3.79862 21.2544 4.09986 21.2544 4.50152V6H20.6365V4.27752C20.6365 3.96855 20.5773 3.7291 20.4588 3.55917C20.3404 3.38409 20.1499 3.29655 19.8872 3.29655C19.6298 3.29655 19.4161 3.39697 19.2461 3.59779C19.0814 3.79862 18.999 4.09986 18.999 4.50152V6H18.381ZM24.3954 4.41655C24.3954 4.14363 24.4417 3.90161 24.5344 3.69048C24.6271 3.47421 24.7455 3.29655 24.8897 3.15752C25.0339 3.01333 25.1961 2.9052 25.3763 2.8331C25.5566 2.75586 25.7368 2.71724 25.917 2.71724C26.1384 2.71724 26.3547 2.77903 26.5658 2.90262C26.7821 3.02106 26.9521 3.20129 27.0756 3.44331V2.8331H27.6936V6H27.0756V5.38979C26.9521 5.63182 26.7821 5.81462 26.5658 5.93821C26.3547 6.05664 26.1384 6.11586 25.917 6.11586C25.7368 6.11586 25.5566 6.07724 25.3763 6C25.1961 5.92791 25.0339 5.82234 24.8897 5.68331C24.7455 5.53913 24.6271 5.36147 24.5344 5.15034C24.4417 4.93407 24.3954 4.68947 24.3954 4.41655ZM26.0252 3.29655C25.7213 3.29655 25.4793 3.40469 25.2991 3.62097C25.1189 3.83724 25.0287 4.10244 25.0287 4.41655C25.0287 4.73067 25.1189 4.99586 25.2991 5.21214C25.4793 5.42841 25.7213 5.53655 26.0252 5.53655C26.3187 5.53655 26.5684 5.43871 26.7744 5.24303C26.9855 5.04736 27.0911 4.77186 27.0911 4.41655C27.0911 4.06124 26.9881 3.78575 26.7821 3.59007C26.5761 3.39439 26.3238 3.29655 26.0252 3.29655ZM28.4183 3.37379V2.8331H29.2989V1.52H29.9091V2.8331H31.0831V3.37379H29.9091V4.82593C29.9091 5.0731 29.9606 5.25333 30.0636 5.36662C30.1665 5.47991 30.3287 5.53655 30.5502 5.53655C30.6377 5.53655 30.7253 5.5314 30.8128 5.5211C30.9003 5.50566 30.9904 5.48763 31.0831 5.46703V6.06179C30.9802 6.08239 30.8797 6.09526 30.7819 6.10041C30.6841 6.11071 30.5914 6.11586 30.5038 6.11586C30.0919 6.11586 29.7881 6.01802 29.5924 5.82234C29.3967 5.62152 29.2989 5.3177 29.2989 4.9109V3.37379H28.4183ZM33.3644 6.11586C33.1121 6.11586 32.8829 6.07467 32.677 5.99228C32.4761 5.90474 32.3062 5.7863 32.1672 5.63697C32.0281 5.48248 31.92 5.30225 31.8428 5.09628C31.7655 4.88515 31.7269 4.65857 31.7269 4.41655C31.7269 4.16423 31.7681 3.93508 31.8505 3.7291C31.9329 3.51798 32.0462 3.33775 32.1903 3.18841C32.3397 3.03908 32.5122 2.92322 32.7079 2.84083C32.9087 2.75844 33.125 2.71724 33.3567 2.71724C33.8098 2.71724 34.1832 2.86657 34.4767 3.16524C34.7754 3.45876 34.9247 3.85011 34.9247 4.33931C34.9247 4.38051 34.9221 4.4217 34.917 4.4629C34.917 4.50409 34.9144 4.54271 34.9092 4.57876H32.368C32.3937 4.88257 32.4942 5.1246 32.6692 5.30483C32.8443 5.48506 33.076 5.57517 33.3644 5.57517C33.5807 5.57517 33.7661 5.52625 33.9206 5.42841C34.0802 5.33057 34.1832 5.20184 34.2295 5.04221H34.8629C34.7702 5.36662 34.5926 5.62667 34.3299 5.82234C34.0725 6.01802 33.7506 6.11586 33.3644 6.11586ZM33.3567 3.25793C33.1044 3.25793 32.8932 3.32745 32.7233 3.46648C32.5534 3.60037 32.4427 3.80377 32.3912 4.07669H34.2836C34.263 3.81407 34.1677 3.61324 33.9978 3.47421C33.8279 3.33002 33.6142 3.25793 33.3567 3.25793ZM35.866 6V2.8331H36.4762V3.5051C36.5894 3.24248 36.7439 3.0468 36.9396 2.91807C37.1404 2.78418 37.367 2.71724 37.6193 2.71724C37.6708 2.71724 37.7172 2.72239 37.7584 2.73269C37.7996 2.73784 37.8356 2.74299 37.8665 2.74814V3.45103C37.7841 3.43559 37.6991 3.42271 37.6116 3.41241C37.5292 3.40211 37.4468 3.39697 37.3644 3.39697C37.0503 3.39697 36.8237 3.4948 36.6847 3.69048C36.5457 3.88616 36.4762 4.20543 36.4762 4.64828V6H35.866ZM38.7471 2.30786C38.6081 2.30786 38.4871 2.25894 38.3841 2.1611C38.2862 2.06326 38.2373 1.94225 38.2373 1.79807C38.2373 1.65388 38.2862 1.53287 38.3841 1.43503C38.4871 1.3372 38.6081 1.28828 38.7471 1.28828C38.8861 1.28828 39.0046 1.3372 39.1024 1.43503C39.2054 1.53287 39.2569 1.65388 39.2569 1.79807C39.2569 1.94225 39.2054 2.06326 39.1024 2.1611C39.0046 2.25894 38.8861 2.30786 38.7471 2.30786ZM38.4381 6V2.8331H39.0561V6H38.4381ZM40.002 4.41655C40.002 4.14363 40.0484 3.90161 40.1411 3.69048C40.2338 3.47421 40.3522 3.29655 40.4964 3.15752C40.6406 3.01333 40.8028 2.9052 40.983 2.8331C41.1632 2.75586 41.3435 2.71724 41.5237 2.71724C41.7451 2.71724 41.9614 2.77903 42.1725 2.90262C42.3888 3.02106 42.5587 3.20129 42.6823 3.44331V2.8331H43.3003V6H42.6823V5.38979C42.5587 5.63182 42.3888 5.81462 42.1725 5.93821C41.9614 6.05664 41.7451 6.11586 41.5237 6.11586C41.3435 6.11586 41.1632 6.07724 40.983 6C40.8028 5.92791 40.6406 5.82234 40.4964 5.68331C40.3522 5.53913 40.2338 5.36147 40.1411 5.15034C40.0484 4.93407 40.002 4.68947 40.002 4.41655ZM41.6318 3.29655C41.328 3.29655 41.086 3.40469 40.9058 3.62097C40.7255 3.83724 40.6354 4.10244 40.6354 4.41655C40.6354 4.73067 40.7255 4.99586 40.9058 5.21214C41.086 5.42841 41.328 5.53655 41.6318 5.53655C41.9254 5.53655 42.1751 5.43871 42.3811 5.24303C42.5922 5.04736 42.6978 4.77186 42.6978 4.41655C42.6978 4.06124 42.5948 3.78575 42.3888 3.59007C42.1828 3.39439 41.9305 3.29655 41.6318 3.29655ZM44.4575 6V0.747586H45.0755V6H44.4575ZM48.6399 3.77545H48.0143C48.0091 3.60037 47.9448 3.46648 47.8212 3.37379C47.6976 3.27595 47.5251 3.22703 47.3037 3.22703C47.1131 3.22703 46.9612 3.26051 46.8479 3.32745C46.7346 3.39439 46.678 3.48708 46.678 3.60552C46.678 3.7188 46.7243 3.80892 46.817 3.87586C46.9149 3.9428 47.0359 3.9943 47.1801 4.03034L47.9525 4.21572C48.1688 4.26722 48.3541 4.35733 48.5086 4.48607C48.6682 4.60966 48.7481 4.80018 48.7481 5.05766C48.7481 5.35117 48.6296 5.60092 48.3928 5.8069C48.1559 6.01287 47.8289 6.11586 47.4118 6.11586C47.0101 6.11586 46.6703 6.0103 46.3922 5.79917C46.1141 5.58805 45.9725 5.31255 45.9674 4.97269H46.593C46.6136 5.18897 46.7012 5.3486 46.8557 5.45159C47.0101 5.55457 47.2032 5.60607 47.435 5.60607C47.6564 5.60607 47.8237 5.5623 47.937 5.47476C48.0503 5.38722 48.107 5.28166 48.107 5.15807C48.107 5.04478 48.0606 4.95724 47.9679 4.89545C47.8752 4.82851 47.7568 4.77701 47.6126 4.74097L46.9483 4.57876C46.7269 4.52726 46.5261 4.432 46.3459 4.29297C46.1656 4.14878 46.0755 3.93766 46.0755 3.65959C46.0755 3.37637 46.1837 3.14979 46.3999 2.97986C46.6214 2.80478 46.9252 2.71724 47.3114 2.71724C47.7079 2.71724 48.0246 2.80993 48.2614 2.99531C48.4983 3.17554 48.6245 3.43559 48.6399 3.77545ZM51.3215 2.30786C51.1824 2.30786 51.0614 2.25894 50.9584 2.1611C50.8606 2.06326 50.8117 1.94225 50.8117 1.79807C50.8117 1.65388 50.8606 1.53287 50.9584 1.43503C51.0614 1.3372 51.1824 1.28828 51.3215 1.28828C51.4605 1.28828 51.5789 1.3372 51.6768 1.43503C51.7798 1.53287 51.8313 1.65388 51.8313 1.79807C51.8313 1.94225 51.7798 2.06326 51.6768 2.1611C51.5789 2.25894 51.4605 2.30786 51.3215 2.30786ZM51.0125 6V2.8331H51.6304V6H51.0125ZM52.3601 3.37379V2.8331H53.2407V1.52H53.8509V2.8331H55.025V3.37379H53.8509V4.82593C53.8509 5.0731 53.9024 5.25333 54.0054 5.36662C54.1084 5.47991 54.2706 5.53655 54.492 5.53655C54.5795 5.53655 54.6671 5.5314 54.7546 5.5211C54.8421 5.50566 54.9323 5.48763 55.025 5.46703V6.06179C54.922 6.08239 54.8215 6.09526 54.7237 6.10041C54.6259 6.11071 54.5332 6.11586 54.4456 6.11586C54.0337 6.11586 53.7299 6.01802 53.5342 5.82234C53.3385 5.62152 53.2407 5.3177 53.2407 4.9109V3.37379H52.3601ZM57.5973 2.30786C57.4583 2.30786 57.3373 2.25894 57.2343 2.1611C57.1365 2.06326 57.0875 1.94225 57.0875 1.79807C57.0875 1.65388 57.1365 1.53287 57.2343 1.43503C57.3373 1.3372 57.4583 1.28828 57.5973 1.28828C57.7364 1.28828 57.8548 1.3372 57.9526 1.43503C58.0556 1.53287 58.1071 1.65388 58.1071 1.79807C58.1071 1.94225 58.0556 2.06326 57.9526 2.1611C57.8548 2.25894 57.7364 2.30786 57.5973 2.30786ZM57.2884 6V2.8331H57.9063V6H57.2884ZM61.4707 3.77545H60.8451C60.8399 3.60037 60.7756 3.46648 60.652 3.37379C60.5284 3.27595 60.3559 3.22703 60.1345 3.22703C59.9439 3.22703 59.792 3.26051 59.6787 3.32745C59.5655 3.39439 59.5088 3.48708 59.5088 3.60552C59.5088 3.7188 59.5552 3.80892 59.6478 3.87586C59.7457 3.9428 59.8667 3.9943 60.0109 4.03034L60.7833 4.21572C60.9996 4.26722 61.185 4.35733 61.3394 4.48607C61.4991 4.60966 61.5789 4.80018 61.5789 5.05766C61.5789 5.35117 61.4604 5.60092 61.2236 5.8069C60.9867 6.01287 60.6597 6.11586 60.2426 6.11586C59.841 6.11586 59.5011 6.0103 59.223 5.79917C58.945 5.58805 58.8033 5.31255 58.7982 4.97269H59.4238C59.4444 5.18897 59.532 5.3486 59.6865 5.45159C59.841 5.55457 60.0341 5.60607 60.2658 5.60607C60.4872 5.60607 60.6546 5.5623 60.7678 5.47476C60.8811 5.38722 60.9378 5.28166 60.9378 5.15807C60.9378 5.04478 60.8914 4.95724 60.7987 4.89545C60.7061 4.82851 60.5876 4.77701 60.4434 4.74097L59.7792 4.57876C59.5577 4.52726 59.3569 4.432 59.1767 4.29297C58.9964 4.14878 58.9063 3.93766 58.9063 3.65959C58.9063 3.37637 59.0145 3.14979 59.2307 2.97986C59.4522 2.80478 59.756 2.71724 60.1422 2.71724C60.5387 2.71724 60.8554 2.80993 61.0923 2.99531C61.3291 3.17554 61.4553 3.43559 61.4707 3.77545ZM63.8433 6V2.8331H64.4613V3.52828C64.5591 3.27595 64.7033 3.0777 64.8938 2.93352C65.0895 2.78933 65.3186 2.71724 65.5813 2.71724C65.8387 2.71724 66.0601 2.78933 66.2455 2.93352C66.4309 3.0777 66.5622 3.28368 66.6395 3.55145C66.7373 3.28883 66.8892 3.08542 67.0952 2.94124C67.3063 2.79191 67.5535 2.71724 67.8367 2.71724C68.1766 2.71724 68.4495 2.84083 68.6555 3.088C68.8666 3.33002 68.9721 3.67503 68.9721 4.12303V6H68.3542V4.27752C68.3542 3.96855 68.295 3.7291 68.1766 3.55917C68.0581 3.38409 67.8676 3.29655 67.605 3.29655C67.3475 3.29655 67.1338 3.39697 66.9639 3.59779C66.7991 3.79862 66.7167 4.09986 66.7167 4.50152V6H66.0988V4.27752C66.0988 3.96855 66.0396 3.7291 65.9211 3.55917C65.8027 3.38409 65.6121 3.29655 65.3495 3.29655C65.0921 3.29655 64.8784 3.39697 64.7084 3.59779C64.5436 3.79862 64.4613 4.09986 64.4613 4.50152V6H63.8433ZM69.8576 4.41655C69.8576 4.14363 69.904 3.90161 69.9967 3.69048C70.0894 3.47421 70.2078 3.29655 70.352 3.15752C70.4962 3.01333 70.6584 2.9052 70.8386 2.8331C71.0188 2.75586 71.1991 2.71724 71.3793 2.71724C71.6007 2.71724 71.817 2.77903 72.0281 2.90262C72.2444 3.02106 72.4143 3.20129 72.5379 3.44331V2.8331H73.1559V6H72.5379V5.38979C72.4143 5.63182 72.2444 5.81462 72.0281 5.93821C71.817 6.05664 71.6007 6.11586 71.3793 6.11586C71.1991 6.11586 71.0188 6.07724 70.8386 6C70.6584 5.92791 70.4962 5.82234 70.352 5.68331C70.2078 5.53913 70.0894 5.36147 69.9967 5.15034C69.904 4.93407 69.8576 4.68947 69.8576 4.41655ZM71.4874 3.29655C71.1836 3.29655 70.9416 3.40469 70.7614 3.62097C70.5811 3.83724 70.491 4.10244 70.491 4.41655C70.491 4.73067 70.5811 4.99586 70.7614 5.21214C70.9416 5.42841 71.1836 5.53655 71.4874 5.53655C71.781 5.53655 72.0307 5.43871 72.2367 5.24303C72.4478 5.04736 72.5534 4.77186 72.5534 4.41655C72.5534 4.06124 72.4504 3.78575 72.2444 3.59007C72.0384 3.39439 71.7861 3.29655 71.4874 3.29655ZM74.0969 4.41655C74.0969 4.14363 74.1406 3.90161 74.2282 3.69048C74.3209 3.47421 74.4367 3.29655 74.5758 3.15752C74.7148 3.01333 74.8719 2.9052 75.0469 2.8331C75.2272 2.75586 75.4048 2.71724 75.5799 2.71724C75.8065 2.71724 76.0305 2.77903 76.2519 2.90262C76.4733 3.02106 76.6484 3.20386 76.7772 3.45103V0.747586H77.3951V6H76.7772V5.38207C76.6484 5.62924 76.4733 5.81462 76.2519 5.93821C76.0305 6.05664 75.8065 6.11586 75.5799 6.11586C75.4048 6.11586 75.2272 6.07724 75.0469 6C74.8719 5.92791 74.7148 5.82234 74.5758 5.68331C74.4367 5.53913 74.3209 5.36147 74.2282 5.15034C74.1406 4.93407 74.0969 4.68947 74.0969 4.41655ZM75.7267 3.29655C75.4229 3.29655 75.1808 3.40469 75.0006 3.62097C74.8204 3.83724 74.7303 4.10244 74.7303 4.41655C74.7303 4.73067 74.8204 4.99586 75.0006 5.21214C75.1808 5.42841 75.4229 5.53655 75.7267 5.53655C76.0253 5.53655 76.2777 5.43871 76.4836 5.24303C76.6896 5.04736 76.7926 4.77186 76.7926 4.41655C76.7926 4.06124 76.687 3.78575 76.4759 3.59007C76.2699 3.39439 76.0202 3.29655 75.7267 3.29655ZM79.9582 6.11586C79.7058 6.11586 79.4767 6.07467 79.2707 5.99228C79.0699 5.90474 78.9 5.7863 78.7609 5.63697C78.6219 5.48248 78.5138 5.30225 78.4365 5.09628C78.3593 4.88515 78.3206 4.65857 78.3206 4.41655C78.3206 4.16423 78.3618 3.93508 78.4442 3.7291C78.5266 3.51798 78.6399 3.33775 78.7841 3.18841C78.9334 3.03908 79.1059 2.92322 79.3016 2.84083C79.5024 2.75844 79.7187 2.71724 79.9504 2.71724C80.4036 2.71724 80.7769 2.86657 81.0704 3.16524C81.3691 3.45876 81.5184 3.85011 81.5184 4.33931C81.5184 4.38051 81.5159 4.4217 81.5107 4.4629C81.5107 4.50409 81.5081 4.54271 81.503 4.57876H78.9618C78.9875 4.88257 79.0879 5.1246 79.263 5.30483C79.4381 5.48506 79.6698 5.57517 79.9582 5.57517C80.1744 5.57517 80.3598 5.52625 80.5143 5.42841C80.6739 5.33057 80.7769 5.20184 80.8233 5.04221H81.4566C81.364 5.36662 81.1863 5.62667 80.9237 5.82234C80.6662 6.01802 80.3444 6.11586 79.9582 6.11586ZM79.9504 3.25793C79.6981 3.25793 79.487 3.32745 79.3171 3.46648C79.1471 3.60037 79.0364 3.80377 78.9849 4.07669H80.8773C80.8567 3.81407 80.7615 3.61324 80.5915 3.47421C80.4216 3.33002 80.2079 3.25793 79.9504 3.25793ZM83.5232 3.37379V2.8331H84.3652V1.88303C84.3652 1.48138 84.4527 1.17241 84.6278 0.956137C84.8029 0.739861 85.0681 0.631724 85.4234 0.631724C85.5572 0.631724 85.668 0.644597 85.7555 0.670344C85.843 0.696091 85.928 0.726988 86.0104 0.763034V1.28828C85.9126 1.25223 85.825 1.22391 85.7478 1.20331C85.6705 1.18271 85.5907 1.17241 85.5083 1.17241C85.3178 1.17241 85.1813 1.22391 85.0989 1.3269C85.0217 1.42474 84.9831 1.58437 84.9831 1.80579V2.8331H85.9718V3.37379H84.9831V6H84.3652V3.37379H83.5232ZM86.7065 6V2.8331H87.3167V3.5051C87.43 3.24248 87.5844 3.0468 87.7801 2.91807C87.981 2.78418 88.2075 2.71724 88.4598 2.71724C88.5113 2.71724 88.5577 2.72239 88.5989 2.73269C88.6401 2.73784 88.6761 2.74299 88.707 2.74814V3.45103C88.6246 3.43559 88.5397 3.42271 88.4521 3.41241C88.3697 3.40211 88.2873 3.39697 88.205 3.39697C87.8908 3.39697 87.6643 3.4948 87.5252 3.69048C87.3862 3.88616 87.3167 4.20543 87.3167 4.64828V6H86.7065ZM90.7617 6.11586C90.5248 6.11586 90.3008 6.07467 90.0897 5.99228C89.8837 5.90989 89.7035 5.79402 89.549 5.64469C89.3945 5.49536 89.2709 5.3177 89.1783 5.11172C89.0907 4.9006 89.0469 4.66887 89.0469 4.41655C89.0469 4.16423 89.0907 3.93508 89.1783 3.7291C89.2709 3.51798 89.3945 3.33775 89.549 3.18841C89.7086 3.03908 89.8914 2.92322 90.0974 2.84083C90.3086 2.75844 90.53 2.71724 90.7617 2.71724C90.9934 2.71724 91.2123 2.75844 91.4183 2.84083C91.6294 2.92322 91.8122 3.03908 91.9667 3.18841C92.1263 3.33775 92.2499 3.51798 92.3374 3.7291C92.4301 3.93508 92.4765 4.16423 92.4765 4.41655C92.4765 4.66887 92.4301 4.9006 92.3374 5.11172C92.2499 5.3177 92.1289 5.49536 91.9744 5.64469C91.8199 5.79402 91.6371 5.90989 91.426 5.99228C91.22 6.07467 90.9986 6.11586 90.7617 6.11586ZM90.7617 5.55972C91.0758 5.55972 91.3333 5.45931 91.5341 5.25848C91.7401 5.05766 91.8431 4.77701 91.8431 4.41655C91.8431 4.05609 91.7401 3.77545 91.5341 3.57462C91.3281 3.37379 91.0707 3.27338 90.7617 3.27338C90.4527 3.27338 90.1953 3.37379 89.9893 3.57462C89.7833 3.77545 89.6803 4.05609 89.6803 4.41655C89.6803 4.77701 89.7807 5.05766 89.9816 5.25848C90.1875 5.45931 90.4476 5.55972 90.7617 5.55972ZM93.4047 6V2.8331H94.0227V3.52828C94.1205 3.27595 94.2647 3.0777 94.4552 2.93352C94.6509 2.78933 94.8801 2.71724 95.1427 2.71724C95.4001 2.71724 95.6216 2.78933 95.8069 2.93352C95.9923 3.0777 96.1236 3.28368 96.2009 3.55145C96.2987 3.28883 96.4506 3.08542 96.6566 2.94124C96.8677 2.79191 97.1149 2.71724 97.3981 2.71724C97.738 2.71724 98.0109 2.84083 98.2169 3.088C98.428 3.33002 98.5336 3.67503 98.5336 4.12303V6H97.9156V4.27752C97.9156 3.96855 97.8564 3.7291 97.738 3.55917C97.6195 3.38409 97.429 3.29655 97.1664 3.29655C96.9089 3.29655 96.6952 3.39697 96.5253 3.59779C96.3605 3.79862 96.2781 4.09986 96.2781 4.50152V6H95.6602V4.27752C95.6602 3.96855 95.601 3.7291 95.4825 3.55917C95.3641 3.38409 95.1736 3.29655 94.9109 3.29655C94.6535 3.29655 94.4398 3.39697 94.2698 3.59779C94.1051 3.79862 94.0227 4.09986 94.0227 4.50152V6H93.4047ZM99.7976 5.17352H100.5C100.5 5.34345 100.488 5.50308 100.462 5.65241C100.436 5.80175 100.395 5.95623 100.338 6.11586C100.282 6.28064 100.21 6.46087 100.122 6.65655C100.034 6.85738 99.9263 7.09168 99.7976 7.35945H99.2878C99.4422 6.94234 99.5658 6.55614 99.6585 6.20083C99.7512 5.85067 99.7976 5.50823 99.7976 5.17352Z" fill="#1D7BBF"/>
<path d="M1.164 12.972C1.34 12.972 1.496 13.024 1.632 13.128C1.768 13.2293 1.87333 13.3747 1.948 13.564C2.02533 13.7533 2.064 13.976 2.064 14.232C2.064 14.488 2.02533 14.7107 1.948 14.9C1.87333 15.0893 1.768 15.236 1.632 15.34C1.496 15.444 1.34 15.496 1.164 15.496C0.990667 15.496 0.834667 15.444 0.696 15.34C0.56 15.236 0.453333 15.0893 0.376 14.9C0.301333 14.7107 0.264 14.488 0.264 14.232C0.264 13.976 0.301333 13.7533 0.376 13.564C0.453333 13.3747 0.56 13.2293 0.696 13.128C0.834667 13.024 0.990667 12.972 1.164 12.972ZM1.164 13.268C1.04933 13.268 0.948 13.308 0.86 13.388C0.772 13.4653 0.702667 13.5773 0.652 13.724C0.604 13.868 0.58 14.0373 0.58 14.232C0.58 14.4267 0.604 14.5973 0.652 14.744C0.702667 14.888 0.772 15 0.86 15.08C0.948 15.16 1.04933 15.2 1.164 15.2C1.28133 15.2 1.384 15.16 1.472 15.08C1.56 15 1.628 14.888 1.676 14.744C1.72667 14.5973 1.752 14.4267 1.752 14.232C1.752 14.0373 1.72667 13.868 1.676 13.724C1.628 13.5773 1.56 13.4653 1.472 13.388C1.384 13.308 1.28133 13.268 1.164 13.268ZM2.848 12.692H3.176V16.316H2.848V12.692ZM1.956 14.072H2.996V14.34H1.956V14.072ZM4.47969 15.96H6.98369V16.232H4.47969V15.96ZM4.47969 15.108H4.81169V16.108H4.47969V15.108ZM6.56369 12.696H6.89169V15.328H6.56369V12.696ZM5.91169 13.688H6.82769V13.96H5.91169V13.688ZM3.97169 14.476H4.13169C4.20635 14.476 4.28502 14.4747 4.36769 14.472C4.45302 14.4667 4.54235 14.4587 4.63569 14.448C4.72902 14.4373 4.82635 14.42 4.92769 14.396L4.95969 14.668C4.85035 14.6947 4.74769 14.7133 4.65169 14.724C4.55569 14.7347 4.46502 14.7413 4.37969 14.744C4.29435 14.744 4.21169 14.744 4.13169 14.744H3.97169V14.476ZM3.97169 12.992H4.88769V13.264H4.29969V14.556H3.97169V12.992ZM5.08369 14.476H5.26369C5.39435 14.476 5.51169 14.4747 5.61569 14.472C5.71969 14.4667 5.81969 14.4587 5.91569 14.448C6.01435 14.4347 6.11435 14.416 6.21569 14.392L6.25169 14.664C6.14235 14.688 6.03702 14.7067 5.93569 14.72C5.83702 14.7307 5.73302 14.7373 5.62369 14.74C5.51702 14.7427 5.39702 14.744 5.26369 14.744H5.08369V14.476ZM5.08369 12.992H6.08369V13.264H5.41169V14.544H5.08369V12.992ZM8.45391 15.564H11.7339V15.844H8.45391V15.564ZM9.91391 14.688H10.2419V15.656H9.91391V14.688ZM9.90191 12.932H10.1939V13.212C10.1939 13.3693 10.1659 13.5173 10.1099 13.656C10.0566 13.792 9.98191 13.92 9.88591 14.04C9.78991 14.1573 9.67924 14.2627 9.55391 14.356C9.43124 14.4493 9.29924 14.528 9.15791 14.592C9.01657 14.656 8.87257 14.7027 8.72591 14.732L8.58191 14.456C8.70991 14.4347 8.83657 14.3973 8.96191 14.344C9.08991 14.288 9.20991 14.2213 9.32191 14.144C9.43391 14.064 9.53391 13.976 9.62191 13.88C9.70991 13.7813 9.77791 13.676 9.82591 13.564C9.87657 13.4493 9.90191 13.332 9.90191 13.212V12.932ZM9.96191 12.932H10.2499V13.212C10.2499 13.3347 10.2752 13.452 10.3259 13.564C10.3766 13.676 10.4459 13.7813 10.5339 13.88C10.6219 13.976 10.7219 14.064 10.8339 14.144C10.9486 14.224 11.0686 14.2907 11.1939 14.344C11.3219 14.3973 11.4499 14.4347 11.5779 14.456L11.4339 14.732C11.2872 14.7027 11.1432 14.656 11.0019 14.592C10.8606 14.528 10.7272 14.4493 10.6019 14.356C10.4766 14.2627 10.3659 14.1573 10.2699 14.04C10.1739 13.92 10.0979 13.7907 10.0419 13.652C9.98857 13.5133 9.96191 13.3667 9.96191 13.212V12.932ZM14.8976 12.692H15.2176V16.312H14.8976V12.692ZM14.3256 14.152H15.0216V14.432H14.3256V14.152ZM14.1096 12.768H14.4256V16.128H14.1096V12.768ZM12.8816 13.252H13.1376V13.672C13.1376 13.8853 13.1203 14.0893 13.0856 14.284C13.0509 14.4787 12.9976 14.6573 12.9256 14.82C12.8563 14.9827 12.7696 15.128 12.6656 15.256C12.5616 15.3813 12.4403 15.4853 12.3016 15.568L12.0936 15.312C12.2696 15.216 12.4149 15.0867 12.5296 14.924C12.6443 14.7587 12.7309 14.5693 12.7896 14.356C12.8509 14.1427 12.8816 13.9147 12.8816 13.672V13.252ZM12.9416 13.252H13.2016V13.672C13.2016 13.8907 13.2309 14.0987 13.2896 14.296C13.3483 14.4933 13.4349 14.6693 13.5496 14.824C13.6643 14.976 13.8069 15.096 13.9776 15.184L13.7816 15.44C13.5976 15.336 13.4429 15.196 13.3176 15.02C13.1923 14.844 13.0976 14.6413 13.0336 14.412C12.9723 14.1827 12.9416 13.936 12.9416 13.672V13.252ZM12.1816 13.12H13.8576V13.392H12.1816V13.12ZM15.8133 15.588H19.0933V15.864H15.8133V15.588ZM17.2813 14.816H17.6093V15.704H17.2813V14.816ZM16.2133 12.96H18.6853V14.056H16.5493V14.78H16.2213V13.792H18.3573V13.232H16.2133V12.96ZM16.2213 14.64H18.7693V14.912H16.2213V14.64ZM20.5355 13.02H22.1995V14.692H20.5355V13.02ZM21.8755 13.288H20.8595V14.424H21.8755V13.288ZM22.8635 12.692H23.1955V15.344H22.8635V12.692ZM23.0915 13.792H23.7275V14.068H23.0915V13.792ZM20.9435 15.96H23.3555V16.232H20.9435V15.96ZM20.9435 15.092H21.2715V16.076H20.9435V15.092ZM24.0672 14.204H27.3392V14.472H24.0672V14.204ZM24.5032 13.644H26.9472V13.912H24.5032V13.644ZM24.5032 12.812H26.9112V13.08H24.8312V13.856H24.5032V12.812ZM24.4632 14.788H26.9152V15.636H24.7952V16.092H24.4712V15.388H26.5912V15.048H24.4632V14.788ZM24.4712 16.004H27.0232V16.268H24.4712V16.004ZM28.7109 12.972C28.8869 12.972 29.0429 13.024 29.1789 13.128C29.3149 13.2293 29.4202 13.3747 29.4949 13.564C29.5722 13.7533 29.6109 13.976 29.6109 14.232C29.6109 14.488 29.5722 14.7107 29.4949 14.9C29.4202 15.0893 29.3149 15.236 29.1789 15.34C29.0429 15.444 28.8869 15.496 28.7109 15.496C28.5375 15.496 28.3815 15.444 28.2429 15.34C28.1069 15.236 28.0002 15.0893 27.9229 14.9C27.8482 14.7107 27.8109 14.488 27.8109 14.232C27.8109 13.976 27.8482 13.7533 27.9229 13.564C28.0002 13.3747 28.1069 13.2293 28.2429 13.128C28.3815 13.024 28.5375 12.972 28.7109 12.972ZM28.7109 13.268C28.5962 13.268 28.4949 13.308 28.4069 13.388C28.3189 13.4653 28.2495 13.5773 28.1989 13.724C28.1509 13.868 28.1269 14.0373 28.1269 14.232C28.1269 14.4267 28.1509 14.5973 28.1989 14.744C28.2495 14.888 28.3189 15 28.4069 15.08C28.4949 15.16 28.5962 15.2 28.7109 15.2C28.8282 15.2 28.9309 15.16 29.0189 15.08C29.1069 15 29.1749 14.888 29.2229 14.744C29.2735 14.5973 29.2989 14.4267 29.2989 14.232C29.2989 14.0373 29.2735 13.868 29.2229 13.724C29.1749 13.5773 29.1069 13.4653 29.0189 13.388C28.9309 13.308 28.8282 13.268 28.7109 13.268ZM30.3949 12.692H30.7229V16.316H30.3949V12.692ZM29.5029 14.072H30.5429V14.34H29.5029V14.072ZM34.0706 12.692H34.4026V14.808H34.0706V12.692ZM32.3506 13.092H32.6226V13.388C32.6226 13.6093 32.5799 13.816 32.4946 14.008C32.4119 14.1973 32.2946 14.3613 32.1426 14.5C31.9932 14.6387 31.8172 14.7453 31.6146 14.82L31.4426 14.556C31.6266 14.492 31.7852 14.4027 31.9186 14.288C32.0546 14.1707 32.1599 14.0347 32.2346 13.88C32.3119 13.7227 32.3506 13.5587 32.3506 13.388V13.092ZM32.4146 13.092H32.6866V13.384C32.6866 13.5413 32.7226 13.692 32.7946 13.836C32.8666 13.98 32.9679 14.108 33.0986 14.22C33.2319 14.332 33.3852 14.4187 33.5586 14.48L33.3906 14.74C33.1932 14.668 33.0212 14.5653 32.8746 14.432C32.7279 14.2987 32.6146 14.1427 32.5346 13.964C32.4546 13.7827 32.4146 13.5893 32.4146 13.384V13.092ZM33.4106 13.376H34.1786V13.648H33.4106V13.376ZM31.5506 12.936H33.4706V13.208H31.5506V12.936ZM33.4106 13.972H34.1786V14.244H33.4106V13.972ZM32.3506 14.924H32.6106V15.108C32.6106 15.2653 32.5786 15.4213 32.5146 15.576C32.4506 15.728 32.3572 15.864 32.2346 15.984C32.1146 16.104 31.9666 16.1973 31.7906 16.264L31.6266 16.016C31.7786 15.96 31.9079 15.884 32.0146 15.788C32.1239 15.6893 32.2066 15.5813 32.2626 15.464C32.3212 15.344 32.3506 15.2253 32.3506 15.108V14.924ZM32.4226 14.924H32.6706V15.108C32.6706 15.2307 32.6946 15.3533 32.7426 15.476C32.7906 15.596 32.8626 15.7067 32.9586 15.808C33.0546 15.9067 33.1759 15.9867 33.3226 16.048L33.1786 16.296C33.0052 16.2267 32.8626 16.1293 32.7506 16.004C32.6386 15.8787 32.5559 15.7387 32.5026 15.584C32.4492 15.4267 32.4226 15.268 32.4226 15.108V14.924ZM33.6866 14.924H33.9346V15.108C33.9346 15.2493 33.9079 15.3987 33.8546 15.556C33.8012 15.7107 33.7186 15.8547 33.6066 15.988C33.4946 16.1213 33.3519 16.224 33.1786 16.296L33.0386 16.048C33.1826 15.9787 33.3026 15.8907 33.3986 15.784C33.4946 15.6773 33.5666 15.564 33.6146 15.444C33.6626 15.324 33.6866 15.212 33.6866 15.108V14.924ZM33.7546 14.924H34.0106V15.108C34.0106 15.2333 34.0386 15.356 34.0946 15.476C34.1532 15.596 34.2359 15.7027 34.3426 15.796C34.4519 15.8893 34.5839 15.9627 34.7386 16.016L34.5706 16.264C34.3946 16.2 34.2452 16.1093 34.1226 15.992C34.0026 15.8747 33.9106 15.74 33.8466 15.588C33.7852 15.436 33.7546 15.276 33.7546 15.108V14.924ZM35.5463 13.78H38.0063V14.048H35.5463V13.78ZM35.1023 14.532H38.3823V14.804H35.1023V14.532ZM35.5463 12.824H35.8743V13.916H35.5463V12.824ZM35.5223 15.952H38.0263V16.224H35.5223V15.952ZM35.5223 15.168H35.8543V16.024H35.5223V15.168ZM39.7419 13.212H40.0139V13.796C40.0139 13.988 39.9873 14.1773 39.9339 14.364C39.8806 14.548 39.8059 14.7227 39.7099 14.888C39.6166 15.0507 39.5073 15.1947 39.3819 15.32C39.2566 15.4453 39.1219 15.544 38.9779 15.616L38.7859 15.352C38.9166 15.288 39.0393 15.2013 39.1539 15.092C39.2713 14.9827 39.3739 14.8573 39.4619 14.716C39.5499 14.5747 39.6179 14.4253 39.6659 14.268C39.7166 14.1107 39.7419 13.9533 39.7419 13.796V13.212ZM39.8099 13.212H40.0779V13.796C40.0779 13.948 40.1019 14.1 40.1499 14.252C40.2006 14.4013 40.2699 14.5427 40.3579 14.676C40.4486 14.8067 40.5513 14.9227 40.6659 15.024C40.7833 15.1253 40.9086 15.2053 41.0419 15.264L40.8579 15.528C40.7113 15.4587 40.5739 15.3653 40.4459 15.248C40.3179 15.1307 40.2059 14.996 40.1099 14.844C40.0166 14.6893 39.9433 14.524 39.8899 14.348C39.8366 14.1693 39.8099 13.9853 39.8099 13.796V13.212ZM38.9019 13.064H40.9219V13.34H38.9019V13.064ZM41.4139 12.692H41.7459V16.312H41.4139V12.692ZM42.5656 16.76L42.4776 16.544C42.603 16.488 42.7016 16.412 42.7736 16.316C42.8456 16.22 42.8803 16.1107 42.8776 15.988L42.8376 15.66L43.0176 15.928C42.991 15.9573 42.9616 15.9787 42.9296 15.992C42.9003 16.0027 42.8683 16.008 42.8336 16.008C42.7616 16.008 42.699 15.9853 42.6456 15.94C42.5923 15.8947 42.5656 15.832 42.5656 15.752C42.5656 15.672 42.5923 15.6093 42.6456 15.564C42.7016 15.5187 42.767 15.496 42.8416 15.496C42.9376 15.496 43.0123 15.5347 43.0656 15.612C43.1216 15.6867 43.1496 15.7907 43.1496 15.924C43.1496 16.116 43.0963 16.284 42.9896 16.428C42.8856 16.572 42.7443 16.6827 42.5656 16.76Z" fill="#1D7BBF"/>
</svg>
