<svg width="108" height="17" viewBox="0 0 108 17" fill="none" xmlns="http://www.w3.org/2000/svg">
<path d="M0.363035 4.41655C0.363035 4.14363 0.409379 3.90161 0.502069 3.69048C0.594759 3.47421 0.713195 3.29655 0.857379 3.15752C1.00156 3.01333 1.16377 2.9052 1.344 2.8331C1.52423 2.75586 1.70446 2.71724 1.88469 2.71724C2.10612 2.71724 2.32239 2.77903 2.53352 2.90262C2.74979 3.02106 2.91972 3.20129 3.04331 3.44331V2.8331H3.66124V6H3.04331V5.38979C2.91972 5.63182 2.74979 5.81462 2.53352 5.93821C2.32239 6.05664 2.10612 6.11586 1.88469 6.11586C1.70446 6.11586 1.52423 6.07724 1.344 6C1.16377 5.92791 1.00156 5.82234 0.857379 5.68331C0.713195 5.53913 0.594759 5.36147 0.502069 5.15034C0.409379 4.93407 0.363035 4.68947 0.363035 4.41655ZM1.99283 3.29655C1.68901 3.29655 1.44699 3.40469 1.26676 3.62097C1.08653 3.83724 0.996414 4.10244 0.996414 4.41655C0.996414 4.73067 1.08653 4.99586 1.26676 5.21214C1.44699 5.42841 1.68901 5.53655 1.99283 5.53655C2.28635 5.53655 2.53609 5.43871 2.74207 5.24303C2.9532 5.04736 3.05876 4.77186 3.05876 4.41655C3.05876 4.06124 2.95577 3.78575 2.74979 3.59007C2.54382 3.39439 2.29149 3.29655 1.99283 3.29655ZM4.81853 6V2.8331H5.43647V3.536C5.54975 3.25793 5.71196 3.05195 5.92309 2.91807C6.13936 2.78418 6.37109 2.71724 6.61826 2.71724C6.96327 2.71724 7.24134 2.84083 7.45247 3.088C7.66359 3.33002 7.76916 3.67503 7.76916 4.12303V6H7.15122V4.27752C7.15122 3.96855 7.09201 3.7291 6.97357 3.55917C6.85513 3.38409 6.6646 3.29655 6.40198 3.29655C6.12391 3.29655 5.89219 3.39697 5.70681 3.59779C5.52658 3.79862 5.43647 4.09986 5.43647 4.50152V6H4.81853ZM8.66045 4.41655C8.66045 4.14363 8.70422 3.90161 8.79176 3.69048C8.88445 3.47421 9.00031 3.29655 9.13935 3.15752C9.27838 3.01333 9.43544 2.9052 9.61052 2.8331C9.79075 2.75586 9.9684 2.71724 10.1435 2.71724C10.3701 2.71724 10.5941 2.77903 10.8155 2.90262C11.0369 3.02106 11.212 3.20386 11.3407 3.45103V0.747586H11.9587V6H11.3407V5.38207C11.212 5.62924 11.0369 5.81462 10.8155 5.93821C10.5941 6.05664 10.3701 6.11586 10.1435 6.11586C9.9684 6.11586 9.79075 6.07724 9.61052 6C9.43544 5.92791 9.27838 5.82234 9.13935 5.68331C9.00031 5.53913 8.88445 5.36147 8.79176 5.15034C8.70422 4.93407 8.66045 4.68947 8.66045 4.41655ZM10.2902 3.29655C9.98643 3.29655 9.7444 3.40469 9.56417 3.62097C9.38394 3.83724 9.29383 4.10244 9.29383 4.41655C9.29383 4.73067 9.38394 4.99586 9.56417 5.21214C9.7444 5.42841 9.98643 5.53655 10.2902 5.53655C10.5889 5.53655 10.8412 5.43871 11.0472 5.24303C11.2532 5.04736 11.3562 4.77186 11.3562 4.41655C11.3562 4.06124 11.2506 3.78575 11.0395 3.59007C10.8335 3.39439 10.5838 3.29655 10.2902 3.29655ZM16.1105 2.8331H16.7516L17.4699 5.22759L18.1111 2.8331H18.7444L17.8175 6H17.1378L16.4349 3.61324L15.7243 6H15.0446L14.1177 2.8331H14.7511L15.3922 5.22759L16.1105 2.8331ZM19.5125 6V0.747586H20.1304V3.536C20.2437 3.25793 20.4059 3.05195 20.6171 2.91807C20.8333 2.78418 21.0651 2.71724 21.3122 2.71724C21.6572 2.71724 21.9353 2.84083 22.1464 3.088C22.3576 3.33002 22.4631 3.67503 22.4631 4.12303V6H21.8452V4.27752C21.8452 3.96855 21.786 3.7291 21.6675 3.55917C21.5491 3.38409 21.3586 3.29655 21.096 3.29655C20.8179 3.29655 20.5862 3.39697 20.4008 3.59779C20.2205 3.79862 20.1304 4.09986 20.1304 4.50152V6H19.5125ZM24.9765 6.11586C24.7242 6.11586 24.495 6.07467 24.289 5.99228C24.0882 5.90474 23.9183 5.7863 23.7792 5.63697C23.6402 5.48248 23.5321 5.30225 23.4548 5.09628C23.3776 4.88515 23.339 4.65857 23.339 4.41655C23.339 4.16423 23.3802 3.93508 23.4626 3.7291C23.5449 3.51798 23.6582 3.33775 23.8024 3.18841C23.9517 3.03908 24.1243 2.92322 24.3199 2.84083C24.5208 2.75844 24.737 2.71724 24.9688 2.71724C25.4219 2.71724 25.7952 2.86657 26.0888 3.16524C26.3874 3.45876 26.5368 3.85011 26.5368 4.33931C26.5368 4.38051 26.5342 4.4217 26.529 4.4629C26.529 4.50409 26.5265 4.54271 26.5213 4.57876H23.9801C24.0058 4.88257 24.1062 5.1246 24.2813 5.30483C24.4564 5.48506 24.6881 5.57517 24.9765 5.57517C25.1928 5.57517 25.3781 5.52625 25.5326 5.42841C25.6923 5.33057 25.7952 5.20184 25.8416 5.04221H26.475C26.3823 5.36662 26.2046 5.62667 25.942 5.82234C25.6845 6.01802 25.3627 6.11586 24.9765 6.11586ZM24.9688 3.25793C24.7164 3.25793 24.5053 3.32745 24.3354 3.46648C24.1654 3.60037 24.0547 3.80377 24.0032 4.07669H25.8957C25.8751 3.81407 25.7798 3.61324 25.6099 3.47421C25.4399 3.33002 25.2262 3.25793 24.9688 3.25793ZM27.478 6V2.8331H28.0882V3.5051C28.2015 3.24248 28.356 3.0468 28.5517 2.91807C28.7525 2.78418 28.9791 2.71724 29.2314 2.71724C29.2829 2.71724 29.3292 2.72239 29.3704 2.73269C29.4116 2.73784 29.4477 2.74299 29.4786 2.74814V3.45103C29.3962 3.43559 29.3112 3.42271 29.2237 3.41241C29.1413 3.40211 29.0589 3.39697 28.9765 3.39697C28.6624 3.39697 28.4358 3.4948 28.2968 3.69048C28.1577 3.88616 28.0882 4.20543 28.0882 4.64828V6H27.478ZM31.456 6.11586C31.2037 6.11586 30.9745 6.07467 30.7686 5.99228C30.5677 5.90474 30.3978 5.7863 30.2588 5.63697C30.1197 5.48248 30.0116 5.30225 29.9344 5.09628C29.8571 4.88515 29.8185 4.65857 29.8185 4.41655C29.8185 4.16423 29.8597 3.93508 29.9421 3.7291C30.0245 3.51798 30.1378 3.33775 30.2819 3.18841C30.4313 3.03908 30.6038 2.92322 30.7995 2.84083C31.0003 2.75844 31.2166 2.71724 31.4483 2.71724C31.9014 2.71724 32.2748 2.86657 32.5683 3.16524C32.867 3.45876 33.0163 3.85011 33.0163 4.33931C33.0163 4.38051 33.0137 4.4217 33.0086 4.4629C33.0086 4.50409 33.006 4.54271 33.0008 4.57876H30.4596C30.4853 4.88257 30.5858 5.1246 30.7608 5.30483C30.9359 5.48506 31.1676 5.57517 31.456 5.57517C31.6723 5.57517 31.8577 5.52625 32.0121 5.42841C32.1718 5.33057 32.2748 5.20184 32.3211 5.04221H32.9545C32.8618 5.36662 32.6841 5.62667 32.4215 5.82234C32.1641 6.01802 31.8422 6.11586 31.456 6.11586ZM31.4483 3.25793C31.196 3.25793 30.9848 3.32745 30.8149 3.46648C30.645 3.60037 30.5343 3.80377 30.4828 4.07669H32.3752C32.3546 3.81407 32.2593 3.61324 32.0894 3.47421C31.9195 3.33002 31.7058 3.25793 31.4483 3.25793ZM35.6544 2.30786C35.5154 2.30786 35.3944 2.25894 35.2914 2.1611C35.1936 2.06326 35.1446 1.94225 35.1446 1.79807C35.1446 1.65388 35.1936 1.53287 35.2914 1.43503C35.3944 1.3372 35.5154 1.28828 35.6544 1.28828C35.7935 1.28828 35.9119 1.3372 36.0098 1.43503C36.1127 1.53287 36.1642 1.65388 36.1642 1.79807C36.1642 1.94225 36.1127 2.06326 36.0098 2.1611C35.9119 2.25894 35.7935 2.30786 35.6544 2.30786ZM35.3455 6V2.8331H35.9634V6H35.3455ZM36.6931 3.37379V2.8331H37.5736V1.52H38.1839V2.8331H39.3579V3.37379H38.1839V4.82593C38.1839 5.0731 38.2353 5.25333 38.3383 5.36662C38.4413 5.47991 38.6035 5.53655 38.825 5.53655C38.9125 5.53655 39 5.5314 39.0876 5.5211C39.1751 5.50566 39.2652 5.48763 39.3579 5.46703V6.06179C39.2549 6.08239 39.1545 6.09526 39.0567 6.10041C38.9588 6.11071 38.8662 6.11586 38.7786 6.11586C38.3667 6.11586 38.0628 6.01802 37.8672 5.82234C37.6715 5.62152 37.5736 5.3177 37.5736 4.9109V3.37379H36.6931ZM42.0384 4.41655C42.0384 4.77701 42.126 5.05766 42.3011 5.25848C42.4813 5.45931 42.7104 5.55972 42.9885 5.55972C43.1996 5.55972 43.3773 5.50308 43.5215 5.38979C43.6708 5.27651 43.7867 5.10915 43.8691 4.88772H44.5102C44.4175 5.27393 44.2424 5.57517 43.9849 5.79145C43.7326 6.00772 43.4133 6.11586 43.0271 6.11586C42.5534 6.11586 42.1646 5.9588 41.8608 5.64469C41.557 5.32543 41.4051 4.91605 41.4051 4.41655C41.4051 3.92221 41.557 3.5154 41.8608 3.19614C42.1646 2.87687 42.5534 2.71724 43.0271 2.71724C43.4185 2.71724 43.7429 2.82795 44.0004 3.04938C44.263 3.2708 44.4355 3.57977 44.5179 3.97628H43.8768C43.7995 3.7497 43.6863 3.5772 43.5369 3.45876C43.3927 3.33517 43.2099 3.27338 42.9885 3.27338C42.7104 3.27338 42.4813 3.37379 42.3011 3.57462C42.126 3.77545 42.0384 4.05609 42.0384 4.41655ZM46.8684 6.11586C46.6315 6.11586 46.4075 6.07467 46.1964 5.99228C45.9904 5.90989 45.8102 5.79402 45.6557 5.64469C45.5012 5.49536 45.3776 5.3177 45.2849 5.11172C45.1974 4.9006 45.1536 4.66887 45.1536 4.41655C45.1536 4.16423 45.1974 3.93508 45.2849 3.7291C45.3776 3.51798 45.5012 3.33775 45.6557 3.18841C45.8153 3.03908 45.9981 2.92322 46.2041 2.84083C46.4152 2.75844 46.6367 2.71724 46.8684 2.71724C47.1001 2.71724 47.319 2.75844 47.5249 2.84083C47.7361 2.92322 47.9189 3.03908 48.0733 3.18841C48.233 3.33775 48.3566 3.51798 48.4441 3.7291C48.5368 3.93508 48.5831 4.16423 48.5831 4.41655C48.5831 4.66887 48.5368 4.9006 48.4441 5.11172C48.3566 5.3177 48.2356 5.49536 48.0811 5.64469C47.9266 5.79402 47.7438 5.90989 47.5327 5.99228C47.3267 6.07467 47.1053 6.11586 46.8684 6.11586ZM46.8684 5.55972C47.1825 5.55972 47.44 5.45931 47.6408 5.25848C47.8468 5.05766 47.9498 4.77701 47.9498 4.41655C47.9498 4.05609 47.8468 3.77545 47.6408 3.57462C47.4348 3.37379 47.1773 3.27338 46.8684 3.27338C46.5594 3.27338 46.3019 3.37379 46.096 3.57462C45.89 3.77545 45.787 4.05609 45.787 4.41655C45.787 4.77701 45.8874 5.05766 46.0882 5.25848C46.2942 5.45931 46.5543 5.55972 46.8684 5.55972ZM49.5114 6V2.8331H50.1294V3.536C50.2426 3.25793 50.4048 3.05195 50.616 2.91807C50.8323 2.78418 51.064 2.71724 51.3111 2.71724C51.6562 2.71724 51.9342 2.84083 52.1454 3.088C52.3565 3.33002 52.462 3.67503 52.462 4.12303V6H51.8441V4.27752C51.8441 3.96855 51.7849 3.7291 51.6665 3.55917C51.548 3.38409 51.3575 3.29655 51.0949 3.29655C50.8168 3.29655 50.5851 3.39697 50.3997 3.59779C50.2195 3.79862 50.1294 4.09986 50.1294 4.50152V6H49.5114ZM53.1371 3.37379V2.8331H54.0176V1.52H54.6278V2.8331H55.8019V3.37379H54.6278V4.82593C54.6278 5.0731 54.6793 5.25333 54.7823 5.36662C54.8853 5.47991 55.0475 5.53655 55.2689 5.53655C55.3565 5.53655 55.444 5.5314 55.5315 5.5211C55.6191 5.50566 55.7092 5.48763 55.8019 5.46703V6.06179C55.6989 6.08239 55.5985 6.09526 55.5006 6.10041C55.4028 6.11071 55.3101 6.11586 55.2226 6.11586C54.8106 6.11586 54.5068 6.01802 54.3111 5.82234C54.1155 5.62152 54.0176 5.3177 54.0176 4.9109V3.37379H53.1371ZM56.9863 2.30786C56.8473 2.30786 56.7263 2.25894 56.6233 2.1611C56.5255 2.06326 56.4765 1.94225 56.4765 1.79807C56.4765 1.65388 56.5255 1.53287 56.6233 1.43503C56.7263 1.3372 56.8473 1.28828 56.9863 1.28828C57.1254 1.28828 57.2438 1.3372 57.3417 1.43503C57.4446 1.53287 57.4961 1.65388 57.4961 1.79807C57.4961 1.94225 57.4446 2.06326 57.3417 2.1611C57.2438 2.25894 57.1254 2.30786 56.9863 2.30786ZM56.6774 6V2.8331H57.2953V6H56.6774ZM58.4575 6V2.8331H59.0755V3.536C59.1888 3.25793 59.351 3.05195 59.5621 2.91807C59.7784 2.78418 60.0101 2.71724 60.2573 2.71724C60.6023 2.71724 60.8804 2.84083 61.0915 3.088C61.3026 3.33002 61.4082 3.67503 61.4082 4.12303V6H60.7902V4.27752C60.7902 3.96855 60.731 3.7291 60.6126 3.55917C60.4941 3.38409 60.3036 3.29655 60.041 3.29655C59.7629 3.29655 59.5312 3.39697 59.3458 3.59779C59.1656 3.79862 59.0755 4.09986 59.0755 4.50152V6H58.4575ZM63.0796 2.8331V4.72552C63.0796 4.98299 63.1311 5.18382 63.2341 5.328C63.3422 5.46703 63.5147 5.53655 63.7516 5.53655C64.0091 5.53655 64.2202 5.43614 64.385 5.23531C64.5549 5.03448 64.6399 4.73324 64.6399 4.33159V2.8331H65.2578V6H64.6399V5.32028C64.5317 5.5932 64.3773 5.79402 64.1764 5.92276C63.9756 6.05149 63.7567 6.11586 63.5199 6.11586C63.2058 6.11586 62.9509 6.00772 62.7552 5.79145C62.5595 5.57517 62.4617 5.27136 62.4617 4.88V2.8331H63.0796ZM67.8213 6.11586C67.569 6.11586 67.3398 6.07467 67.1339 5.99228C66.933 5.90474 66.7631 5.7863 66.6241 5.63697C66.485 5.48248 66.3769 5.30225 66.2997 5.09628C66.2224 4.88515 66.1838 4.65857 66.1838 4.41655C66.1838 4.16423 66.225 3.93508 66.3074 3.7291C66.3898 3.51798 66.5031 3.33775 66.6472 3.18841C66.7966 3.03908 66.9691 2.92322 67.1648 2.84083C67.3656 2.75844 67.5819 2.71724 67.8136 2.71724C68.2667 2.71724 68.6401 2.86657 68.9336 3.16524C69.2323 3.45876 69.3816 3.85011 69.3816 4.33931C69.3816 4.38051 69.379 4.4217 69.3739 4.4629C69.3739 4.50409 69.3713 4.54271 69.3661 4.57876H66.8249C66.8506 4.88257 66.9511 5.1246 67.1261 5.30483C67.3012 5.48506 67.5329 5.57517 67.8213 5.57517C68.0376 5.57517 68.223 5.52625 68.3775 5.42841C68.5371 5.33057 68.6401 5.20184 68.6864 5.04221H69.3198C69.2271 5.36662 69.0495 5.62667 68.7868 5.82234C68.5294 6.01802 68.2075 6.11586 67.8213 6.11586ZM67.8136 3.25793C67.5613 3.25793 67.3501 3.32745 67.1802 3.46648C67.0103 3.60037 66.8996 3.80377 66.8481 4.07669H68.7405C68.7199 3.81407 68.6246 3.61324 68.4547 3.47421C68.2848 3.33002 68.0711 3.25793 67.8136 3.25793ZM72.7251 3.77545H72.0994C72.0943 3.60037 72.0299 3.46648 71.9063 3.37379C71.7827 3.27595 71.6102 3.22703 71.3888 3.22703C71.1983 3.22703 71.0463 3.26051 70.9331 3.32745C70.8198 3.39439 70.7631 3.48708 70.7631 3.60552C70.7631 3.7188 70.8095 3.80892 70.9022 3.87586C71 3.9428 71.121 3.9943 71.2652 4.03034L72.0376 4.21572C72.2539 4.26722 72.4393 4.35733 72.5937 4.48607C72.7534 4.60966 72.8332 4.80018 72.8332 5.05766C72.8332 5.35117 72.7148 5.60092 72.4779 5.8069C72.241 6.01287 71.914 6.11586 71.4969 6.11586C71.0953 6.11586 70.7554 6.0103 70.4773 5.79917C70.1993 5.58805 70.0577 5.31255 70.0525 4.97269H70.6782C70.6988 5.18897 70.7863 5.3486 70.9408 5.45159C71.0953 5.55457 71.2884 5.60607 71.5201 5.60607C71.7415 5.60607 71.9089 5.5623 72.0222 5.47476C72.1354 5.38722 72.1921 5.28166 72.1921 5.15807C72.1921 5.04478 72.1457 4.95724 72.0531 4.89545C71.9604 4.82851 71.8419 4.77701 71.6977 4.74097L71.0335 4.57876C70.812 4.52726 70.6112 4.432 70.431 4.29297C70.2508 4.14878 70.1606 3.93766 70.1606 3.65959C70.1606 3.37637 70.2688 3.14979 70.4851 2.97986C70.7065 2.80478 71.0103 2.71724 71.3965 2.71724C71.793 2.71724 72.1097 2.80993 72.3466 2.99531C72.5834 3.17554 72.7096 3.43559 72.7251 3.77545ZM74.8814 4.41655C74.8814 4.14363 74.9277 3.90161 75.0204 3.69048C75.1131 3.47421 75.2315 3.29655 75.3757 3.15752C75.5199 3.01333 75.6821 2.9052 75.8623 2.8331C76.0426 2.75586 76.2228 2.71724 76.403 2.71724C76.6244 2.71724 76.8407 2.77903 77.0518 2.90262C77.2681 3.02106 77.4381 3.20129 77.5616 3.44331V2.8331H78.1796V6H77.5616V5.38979C77.4381 5.63182 77.2681 5.81462 77.0518 5.93821C76.8407 6.05664 76.6244 6.11586 76.403 6.11586C76.2228 6.11586 76.0426 6.07724 75.8623 6C75.6821 5.92791 75.5199 5.82234 75.3757 5.68331C75.2315 5.53913 75.1131 5.36147 75.0204 5.15034C74.9277 4.93407 74.8814 4.68947 74.8814 4.41655ZM76.5112 3.29655C76.2073 3.29655 75.9653 3.40469 75.7851 3.62097C75.6049 3.83724 75.5147 4.10244 75.5147 4.41655C75.5147 4.73067 75.6049 4.99586 75.7851 5.21214C75.9653 5.42841 76.2073 5.53655 76.5112 5.53655C76.8047 5.53655 77.0544 5.43871 77.2604 5.24303C77.4715 5.04736 77.5771 4.77186 77.5771 4.41655C77.5771 4.06124 77.4741 3.78575 77.2681 3.59007C77.0621 3.39439 76.8098 3.29655 76.5112 3.29655ZM79.0124 3.37379V2.8331H79.8544V1.88303C79.8544 1.48138 79.9419 1.17241 80.117 0.956137C80.2921 0.739861 80.5573 0.631724 80.9126 0.631724C81.0465 0.631724 81.1572 0.644597 81.2447 0.670344C81.3323 0.696091 81.4172 0.726988 81.4996 0.763034V1.28828C81.4018 1.25223 81.3142 1.22391 81.237 1.20331C81.1598 1.18271 81.0799 1.17241 80.9975 1.17241C80.807 1.17241 80.6706 1.22391 80.5882 1.3269C80.5109 1.42474 80.4723 1.58437 80.4723 1.80579V2.8331H81.461V3.37379H80.4723V6H79.8544V3.37379H79.0124ZM81.6123 3.37379V2.8331H82.4928V1.52H83.103V2.8331H84.2771V3.37379H83.103V4.82593C83.103 5.0731 83.1545 5.25333 83.2575 5.36662C83.3605 5.47991 83.5227 5.53655 83.7441 5.53655C83.8317 5.53655 83.9192 5.5314 84.0068 5.5211C84.0943 5.50566 84.1844 5.48763 84.2771 5.46703V6.06179C84.1741 6.08239 84.0737 6.09526 83.9759 6.10041C83.878 6.11071 83.7853 6.11586 83.6978 6.11586C83.2858 6.11586 82.982 6.01802 82.7864 5.82234C82.5907 5.62152 82.4928 5.3177 82.4928 4.9109V3.37379H81.6123ZM86.5584 6.11586C86.3061 6.11586 86.0769 6.07467 85.8709 5.99228C85.6701 5.90474 85.5002 5.7863 85.3611 5.63697C85.2221 5.48248 85.114 5.30225 85.0367 5.09628C84.9595 4.88515 84.9209 4.65857 84.9209 4.41655C84.9209 4.16423 84.9621 3.93508 85.0445 3.7291C85.1268 3.51798 85.2401 3.33775 85.3843 3.18841C85.5336 3.03908 85.7062 2.92322 85.9018 2.84083C86.1027 2.75844 86.3189 2.71724 86.5507 2.71724C87.0038 2.71724 87.3771 2.86657 87.6707 3.16524C87.9693 3.45876 88.1187 3.85011 88.1187 4.33931C88.1187 4.38051 88.1161 4.4217 88.1109 4.4629C88.1109 4.50409 88.1084 4.54271 88.1032 4.57876H85.562C85.5877 4.88257 85.6881 5.1246 85.8632 5.30483C86.0383 5.48506 86.27 5.57517 86.5584 5.57517C86.7747 5.57517 86.96 5.52625 87.1145 5.42841C87.2742 5.33057 87.3771 5.20184 87.4235 5.04221H88.0569C87.9642 5.36662 87.7865 5.62667 87.5239 5.82234C87.2664 6.01802 86.9446 6.11586 86.5584 6.11586ZM86.5507 3.25793C86.2983 3.25793 86.0872 3.32745 85.9173 3.46648C85.7473 3.60037 85.6366 3.80377 85.5851 4.07669H87.4776C87.457 3.81407 87.3617 3.61324 87.1918 3.47421C87.0218 3.33002 86.8081 3.25793 86.5507 3.25793ZM89.0599 6V2.8331H89.6701V3.5051C89.7834 3.24248 89.9379 3.0468 90.1336 2.91807C90.3344 2.78418 90.561 2.71724 90.8133 2.71724C90.8648 2.71724 90.9111 2.72239 90.9523 2.73269C90.9935 2.73784 91.0296 2.74299 91.0605 2.74814V3.45103C90.9781 3.43559 90.8931 3.42271 90.8056 3.41241C90.7232 3.40211 90.6408 3.39697 90.5584 3.39697C90.2443 3.39697 90.0177 3.4948 89.8787 3.69048C89.7396 3.88616 89.6701 4.20543 89.6701 4.64828V6H89.0599ZM93.5236 2.8331V4.72552C93.5236 4.98299 93.5751 5.18382 93.678 5.328C93.7862 5.46703 93.9587 5.53655 94.1956 5.53655C94.453 5.53655 94.6642 5.43614 94.8289 5.23531C94.9989 5.03448 95.0838 4.73324 95.0838 4.33159V2.8331H95.7018V6H95.0838V5.32028C94.9757 5.5932 94.8212 5.79402 94.6204 5.92276C94.4196 6.05149 94.2007 6.11586 93.9638 6.11586C93.6497 6.11586 93.3948 6.00772 93.1992 5.79145C93.0035 5.57517 92.9056 5.27136 92.9056 4.88V2.8331H93.5236ZM99.2617 3.77545H98.636C98.6309 3.60037 98.5665 3.46648 98.4429 3.37379C98.3193 3.27595 98.1468 3.22703 97.9254 3.22703C97.7349 3.22703 97.583 3.26051 97.4697 3.32745C97.3564 3.39439 97.2998 3.48708 97.2998 3.60552C97.2998 3.7188 97.3461 3.80892 97.4388 3.87586C97.5366 3.9428 97.6576 3.9943 97.8018 4.03034L98.5742 4.21572C98.7905 4.26722 98.9759 4.35733 99.1304 4.48607C99.29 4.60966 99.3698 4.80018 99.3698 5.05766C99.3698 5.35117 99.2514 5.60092 99.0145 5.8069C98.7776 6.01287 98.4507 6.11586 98.0336 6.11586C97.6319 6.11586 97.292 6.0103 97.014 5.79917C96.7359 5.58805 96.5943 5.31255 96.5891 4.97269H97.2148C97.2354 5.18897 97.3229 5.3486 97.4774 5.45159C97.6319 5.55457 97.825 5.60607 98.0567 5.60607C98.2782 5.60607 98.4455 5.5623 98.5588 5.47476C98.6721 5.38722 98.7287 5.28166 98.7287 5.15807C98.7287 5.04478 98.6824 4.95724 98.5897 4.89545C98.497 4.82851 98.3786 4.77701 98.2344 4.74097L97.5701 4.57876C97.3487 4.52726 97.1479 4.432 96.9676 4.29297C96.7874 4.14878 96.6973 3.93766 96.6973 3.65959C96.6973 3.37637 96.8054 3.14979 97.0217 2.97986C97.2431 2.80478 97.5469 2.71724 97.9331 2.71724C98.3296 2.71724 98.6463 2.80993 98.8832 2.99531C99.1201 3.17554 99.2462 3.43559 99.2617 3.77545ZM101.652 6.11586C101.4 6.11586 101.171 6.07467 100.965 5.99228C100.764 5.90474 100.594 5.7863 100.455 5.63697C100.316 5.48248 100.208 5.30225 100.13 5.09628C100.053 4.88515 100.015 4.65857 100.015 4.41655C100.015 4.16423 100.056 3.93508 100.138 3.7291C100.221 3.51798 100.334 3.33775 100.478 3.18841C100.627 3.03908 100.8 2.92322 100.996 2.84083C101.196 2.75844 101.413 2.71724 101.644 2.71724C102.098 2.71724 102.471 2.86657 102.764 3.16524C103.063 3.45876 103.212 3.85011 103.212 4.33931C103.212 4.38051 103.21 4.4217 103.205 4.4629C103.205 4.50409 103.202 4.54271 103.197 4.57876H100.656C100.681 4.88257 100.782 5.1246 100.957 5.30483C101.132 5.48506 101.364 5.57517 101.652 5.57517C101.868 5.57517 102.054 5.52625 102.208 5.42841C102.368 5.33057 102.471 5.20184 102.517 5.04221H103.151C103.058 5.36662 102.88 5.62667 102.618 5.82234C102.36 6.01802 102.038 6.11586 101.652 6.11586ZM101.644 3.25793C101.392 3.25793 101.181 3.32745 101.011 3.46648C100.841 3.60037 100.73 3.80377 100.679 4.07669H102.571C102.551 3.81407 102.455 3.61324 102.286 3.47421C102.116 3.33002 101.902 3.25793 101.644 3.25793ZM104.509 6.07724C104.37 6.07724 104.249 6.02832 104.146 5.93048C104.048 5.83264 103.999 5.71163 103.999 5.56745C103.999 5.42326 104.048 5.30225 104.146 5.20441C104.249 5.10657 104.37 5.05766 104.509 5.05766C104.648 5.05766 104.766 5.10657 104.864 5.20441C104.967 5.30225 105.019 5.42326 105.019 5.56745C105.019 5.71163 104.967 5.83264 104.864 5.93048C104.766 6.02832 104.648 6.07724 104.509 6.07724Z" fill="#1D7BBF"/>
<path d="M1.084 13.004H1.356V13.652C1.356 13.852 1.33067 14.048 1.28 14.24C1.232 14.432 1.16267 14.612 1.072 14.78C0.981333 14.948 0.874667 15.0973 0.752 15.228C0.629333 15.3587 0.496 15.4627 0.352 15.54L0.148 15.272C0.281333 15.2053 0.404 15.116 0.516 15.004C0.630667 14.8893 0.730667 14.7587 0.816 14.612C0.901333 14.4653 0.966667 14.3107 1.012 14.148C1.06 13.9827 1.084 13.8173 1.084 13.652V13.004ZM1.144 13.004H1.412V13.652C1.412 13.812 1.43467 13.9707 1.48 14.128C1.528 14.2853 1.59467 14.4333 1.68 14.572C1.76533 14.7107 1.86267 14.8347 1.972 14.944C2.084 15.0533 2.204 15.14 2.332 15.204L2.128 15.468C1.98667 15.396 1.856 15.2973 1.736 15.172C1.61867 15.0467 1.51467 14.904 1.424 14.744C1.336 14.5813 1.26667 14.408 1.216 14.224C1.168 14.0373 1.144 13.8467 1.144 13.652V13.004ZM2.648 12.692H2.98V16.312H2.648V12.692ZM2.904 14.156H3.572V14.44H2.904V14.156ZM4.68369 13.92H5.01569V14.6H4.68369V13.92ZM6.01169 13.92H6.33969V14.6H6.01169V13.92ZM3.87969 14.48H7.14769V14.748H3.87969V14.48ZM5.51169 15.024C5.89835 15.024 6.20102 15.0787 6.41969 15.188C6.63835 15.2973 6.74769 15.4547 6.74769 15.66C6.74769 15.868 6.63835 16.0267 6.41969 16.136C6.20102 16.248 5.89835 16.304 5.51169 16.304C5.12502 16.304 4.82102 16.248 4.59969 16.136C4.38102 16.0267 4.27169 15.868 4.27169 15.66C4.27169 15.4547 4.38102 15.2973 4.59969 15.188C4.82102 15.0787 5.12502 15.024 5.51169 15.024ZM5.51169 15.28C5.32235 15.28 5.15969 15.2947 5.02369 15.324C4.89035 15.3533 4.78769 15.3973 4.71569 15.456C4.64369 15.512 4.60769 15.58 4.60769 15.66C4.60769 15.7453 4.64369 15.8173 4.71569 15.876C4.78769 15.932 4.89035 15.9747 5.02369 16.004C5.15969 16.0333 5.32235 16.048 5.51169 16.048C5.70102 16.048 5.86235 16.0333 5.99569 16.004C6.13169 15.9747 6.23569 15.932 6.30769 15.876C6.37969 15.8173 6.41569 15.7453 6.41569 15.66C6.41569 15.58 6.37969 15.512 6.30769 15.456C6.23569 15.3973 6.13169 15.3533 5.99569 15.324C5.86235 15.2947 5.70102 15.28 5.51169 15.28ZM5.51169 12.76C5.77302 12.76 5.99835 12.7867 6.18769 12.84C6.37969 12.8933 6.52635 12.9707 6.62769 13.072C6.73169 13.1707 6.78369 13.2907 6.78369 13.432C6.78369 13.5707 6.73169 13.6907 6.62769 13.792C6.52635 13.8933 6.37969 13.9707 6.18769 14.024C5.99835 14.0747 5.77302 14.1 5.51169 14.1C5.25035 14.1 5.02369 14.0747 4.83169 14.024C4.64235 13.9707 4.49569 13.8933 4.39169 13.792C4.29035 13.6907 4.23969 13.5707 4.23969 13.432C4.23969 13.2907 4.29035 13.1707 4.39169 13.072C4.49569 12.9707 4.64235 12.8933 4.83169 12.84C5.02369 12.7867 5.25035 12.76 5.51169 12.76ZM5.51169 13.02C5.32235 13.02 5.15702 13.036 5.01569 13.068C4.87702 13.1 4.76902 13.1467 4.69169 13.208C4.61702 13.2693 4.57969 13.344 4.57969 13.432C4.57969 13.5173 4.61702 13.592 4.69169 13.656C4.76902 13.7173 4.87702 13.764 5.01569 13.796C5.15702 13.828 5.32235 13.844 5.51169 13.844C5.70635 13.844 5.87302 13.828 6.01169 13.796C6.15035 13.764 6.25702 13.7173 6.33169 13.656C6.40635 13.592 6.44369 13.5173 6.44369 13.432C6.44369 13.344 6.40635 13.2693 6.33169 13.208C6.25702 13.1467 6.15035 13.1 6.01169 13.068C5.87302 13.036 5.70635 13.02 5.51169 13.02ZM11.0819 12.692H11.4139V16.316H11.0819V12.692ZM9.50591 12.972C9.68457 12.972 9.84191 13.024 9.97791 13.128C10.1166 13.2293 10.2246 13.3747 10.3019 13.564C10.3819 13.7533 10.4219 13.976 10.4219 14.232C10.4219 14.488 10.3819 14.7107 10.3019 14.9C10.2246 15.0893 10.1166 15.236 9.97791 15.34C9.84191 15.444 9.68457 15.496 9.50591 15.496C9.32724 15.496 9.16857 15.444 9.02991 15.34C8.89124 15.236 8.78191 15.0893 8.70191 14.9C8.62457 14.7107 8.58591 14.488 8.58591 14.232C8.58591 13.976 8.62457 13.7533 8.70191 13.564C8.78191 13.3747 8.89124 13.2293 9.02991 13.128C9.16857 13.024 9.32724 12.972 9.50591 12.972ZM9.50591 13.268C9.38591 13.268 9.28057 13.308 9.18991 13.388C9.10191 13.4653 9.03257 13.5773 8.98191 13.724C8.93124 13.868 8.90591 14.0373 8.90591 14.232C8.90591 14.4267 8.93124 14.5973 8.98191 14.744C9.03257 14.888 9.10191 15 9.18991 15.08C9.28057 15.16 9.38591 15.2 9.50591 15.2C9.62324 15.2 9.72591 15.16 9.81391 15.08C9.90457 15 9.97524 14.888 10.0259 14.744C10.0766 14.5973 10.1019 14.4267 10.1019 14.232C10.1019 14.0373 10.0766 13.868 10.0259 13.724C9.97524 13.5773 9.90457 13.4653 9.81391 13.388C9.72591 13.308 9.62324 13.268 9.50591 13.268ZM12.3056 13.104H15.2136V13.376H12.3056V13.104ZM12.1336 15.04H15.4136V15.312H12.1336V15.04ZM13.6016 15.26H13.9296V16.316H13.6016V15.26ZM13.7656 13.584C14.1336 13.584 14.4216 13.636 14.6296 13.74C14.8376 13.844 14.9416 13.9933 14.9416 14.188C14.9416 14.3773 14.8376 14.5253 14.6296 14.632C14.4216 14.736 14.1336 14.788 13.7656 14.788C13.3976 14.788 13.1096 14.736 12.9016 14.632C12.6936 14.5253 12.5896 14.3773 12.5896 14.188C12.5896 13.9933 12.6936 13.844 12.9016 13.74C13.1096 13.636 13.3976 13.584 13.7656 13.584ZM13.7656 13.836C13.5016 13.836 13.2963 13.8667 13.1496 13.928C13.0056 13.9867 12.9336 14.0733 12.9336 14.188C12.9336 14.2973 13.0056 14.3827 13.1496 14.444C13.2963 14.5053 13.5016 14.536 13.7656 14.536C14.0296 14.536 14.2336 14.5053 14.3776 14.444C14.5243 14.3827 14.5976 14.2973 14.5976 14.188C14.5976 14.0733 14.5243 13.9867 14.3776 13.928C14.2336 13.8667 14.0296 13.836 13.7656 13.836ZM13.6016 12.672H13.9296V13.284H13.6016V12.672ZM17.6718 12.972C17.8478 12.972 18.0038 13.024 18.1398 13.128C18.2758 13.2293 18.3811 13.3747 18.4558 13.564C18.5331 13.7533 18.5718 13.976 18.5718 14.232C18.5718 14.488 18.5331 14.7107 18.4558 14.9C18.3811 15.0893 18.2758 15.236 18.1398 15.34C18.0038 15.444 17.8478 15.496 17.6718 15.496C17.4985 15.496 17.3425 15.444 17.2038 15.34C17.0678 15.236 16.9611 15.0893 16.8838 14.9C16.8091 14.7107 16.7718 14.488 16.7718 14.232C16.7718 13.976 16.8091 13.7533 16.8838 13.564C16.9611 13.3747 17.0678 13.2293 17.2038 13.128C17.3425 13.024 17.4985 12.972 17.6718 12.972ZM17.6718 13.268C17.5571 13.268 17.4558 13.308 17.3678 13.388C17.2798 13.4653 17.2105 13.5773 17.1598 13.724C17.1118 13.868 17.0878 14.0373 17.0878 14.232C17.0878 14.4267 17.1118 14.5973 17.1598 14.744C17.2105 14.888 17.2798 15 17.3678 15.08C17.4558 15.16 17.5571 15.2 17.6718 15.2C17.7891 15.2 17.8918 15.16 17.9798 15.08C18.0678 15 18.1358 14.888 18.1838 14.744C18.2345 14.5973 18.2598 14.4267 18.2598 14.232C18.2598 14.0373 18.2345 13.868 18.1838 13.724C18.1358 13.5773 18.0678 13.4653 17.9798 13.388C17.8918 13.308 17.7891 13.268 17.6718 13.268ZM19.3558 12.692H19.6838V16.316H19.3558V12.692ZM18.4638 14.072H19.5038V14.34H18.4638V14.072ZM23.0155 12.692H23.3475V16.316H23.0155V12.692ZM20.6195 15.136H20.9115C21.1515 15.136 21.3675 15.1333 21.5595 15.128C21.7515 15.1227 21.9328 15.1107 22.1035 15.092C22.2768 15.0733 22.4528 15.048 22.6315 15.016L22.6635 15.296C22.4822 15.3307 22.3035 15.3573 22.1275 15.376C21.9515 15.392 21.7662 15.404 21.5715 15.412C21.3768 15.4173 21.1568 15.42 20.9115 15.42H20.6195V15.136ZM20.6195 13.036H22.3275V13.312H20.9515V15.24H20.6195V13.036ZM24.0672 15.588H27.3472V15.864H24.0672V15.588ZM25.5352 14.816H25.8632V15.704H25.5352V14.816ZM24.4672 12.96H26.9392V14.056H24.8032V14.78H24.4752V13.792H26.6112V13.232H24.4672V12.96ZM24.4752 14.64H27.0232V14.912H24.4752V14.64ZM31.2694 12.692H31.6014V16.316H31.2694V12.692ZM29.6934 12.972C29.8721 12.972 30.0294 13.024 30.1654 13.128C30.3041 13.2293 30.4121 13.3747 30.4894 13.564C30.5694 13.7533 30.6094 13.976 30.6094 14.232C30.6094 14.488 30.5694 14.7107 30.4894 14.9C30.4121 15.0893 30.3041 15.236 30.1654 15.34C30.0294 15.444 29.8721 15.496 29.6934 15.496C29.5147 15.496 29.3561 15.444 29.2174 15.34C29.0787 15.236 28.9694 15.0893 28.8894 14.9C28.8121 14.7107 28.7734 14.488 28.7734 14.232C28.7734 13.976 28.8121 13.7533 28.8894 13.564C28.9694 13.3747 29.0787 13.2293 29.2174 13.128C29.3561 13.024 29.5147 12.972 29.6934 12.972ZM29.6934 13.268C29.5734 13.268 29.4681 13.308 29.3774 13.388C29.2894 13.4653 29.2201 13.5773 29.1694 13.724C29.1187 13.868 29.0934 14.0373 29.0934 14.232C29.0934 14.4267 29.1187 14.5973 29.1694 14.744C29.2201 14.888 29.2894 15 29.3774 15.08C29.4681 15.16 29.5734 15.2 29.6934 15.2C29.8107 15.2 29.9134 15.16 30.0014 15.08C30.0921 15 30.1627 14.888 30.2134 14.744C30.2641 14.5973 30.2894 14.4267 30.2894 14.232C30.2894 14.0373 30.2641 13.868 30.2134 13.724C30.1627 13.5773 30.0921 13.4653 30.0014 13.388C29.9134 13.308 29.8107 13.268 29.6934 13.268ZM33.2851 12.972C33.4611 12.972 33.6171 13.024 33.7531 13.128C33.8891 13.2293 33.9944 13.3747 34.0691 13.564C34.1464 13.7533 34.1851 13.976 34.1851 14.232C34.1851 14.488 34.1464 14.7107 34.0691 14.9C33.9944 15.0893 33.8891 15.236 33.7531 15.34C33.6171 15.444 33.4611 15.496 33.2851 15.496C33.1118 15.496 32.9558 15.444 32.8171 15.34C32.6811 15.236 32.5744 15.0893 32.4971 14.9C32.4224 14.7107 32.3851 14.488 32.3851 14.232C32.3851 13.976 32.4224 13.7533 32.4971 13.564C32.5744 13.3747 32.6811 13.2293 32.8171 13.128C32.9558 13.024 33.1118 12.972 33.2851 12.972ZM33.2851 13.268C33.1704 13.268 33.0691 13.308 32.9811 13.388C32.8931 13.4653 32.8238 13.5773 32.7731 13.724C32.7251 13.868 32.7011 14.0373 32.7011 14.232C32.7011 14.4267 32.7251 14.5973 32.7731 14.744C32.8238 14.888 32.8931 15 32.9811 15.08C33.0691 15.16 33.1704 15.2 33.2851 15.2C33.4024 15.2 33.5051 15.16 33.5931 15.08C33.6811 15 33.7491 14.888 33.7971 14.744C33.8478 14.5973 33.8731 14.4267 33.8731 14.232C33.8731 14.0373 33.8478 13.868 33.7971 13.724C33.7491 13.5773 33.6811 13.4653 33.5931 13.388C33.5051 13.308 33.4024 13.268 33.2851 13.268ZM34.9691 12.692H35.2971V16.316H34.9691V12.692ZM34.0771 14.072H35.1171V14.34H34.0771V14.072ZM36.9568 13.212H37.2288V13.796C37.2288 13.988 37.2021 14.1773 37.1488 14.364C37.0954 14.548 37.0208 14.7227 36.9248 14.888C36.8314 15.0507 36.7221 15.1947 36.5968 15.32C36.4714 15.4453 36.3368 15.544 36.1928 15.616L36.0008 15.352C36.1314 15.288 36.2541 15.2013 36.3688 15.092C36.4861 14.9827 36.5888 14.8573 36.6768 14.716C36.7648 14.5747 36.8328 14.4253 36.8808 14.268C36.9314 14.1107 36.9568 13.9533 36.9568 13.796V13.212ZM37.0248 13.212H37.2928V13.796C37.2928 13.948 37.3168 14.1 37.3648 14.252C37.4154 14.4013 37.4848 14.5427 37.5728 14.676C37.6634 14.8067 37.7661 14.9227 37.8808 15.024C37.9981 15.1253 38.1234 15.2053 38.2568 15.264L38.0728 15.528C37.9261 15.4587 37.7888 15.3653 37.6608 15.248C37.5328 15.1307 37.4208 14.996 37.3248 14.844C37.2314 14.6893 37.1581 14.524 37.1048 14.348C37.0514 14.1693 37.0248 13.9853 37.0248 13.796V13.212ZM36.1168 13.064H38.1368V13.34H36.1168V13.064ZM38.6288 12.692H38.9608V16.312H38.6288V12.692ZM40.1205 13.78H42.5805V14.048H40.1205V13.78ZM39.6765 14.532H42.9565V14.804H39.6765V14.532ZM40.1205 12.824H40.4485V13.916H40.1205V12.824ZM40.0965 15.952H42.6005V16.224H40.0965V15.952ZM40.0965 15.168H40.4285V16.024H40.0965V15.168ZM44.3162 13.212H44.5882V13.796C44.5882 13.988 44.5615 14.1773 44.5082 14.364C44.4548 14.548 44.3802 14.7227 44.2842 14.888C44.1908 15.0507 44.0815 15.1947 43.9562 15.32C43.8308 15.4453 43.6962 15.544 43.5522 15.616L43.3602 15.352C43.4908 15.288 43.6135 15.2013 43.7282 15.092C43.8455 14.9827 43.9482 14.8573 44.0362 14.716C44.1242 14.5747 44.1922 14.4253 44.2402 14.268C44.2908 14.1107 44.3162 13.9533 44.3162 13.796V13.212ZM44.3842 13.212H44.6522V13.796C44.6522 13.948 44.6762 14.1 44.7242 14.252C44.7748 14.4013 44.8442 14.5427 44.9322 14.676C45.0228 14.8067 45.1255 14.9227 45.2402 15.024C45.3575 15.1253 45.4828 15.2053 45.6162 15.264L45.4322 15.528C45.2855 15.4587 45.1482 15.3653 45.0202 15.248C44.8922 15.1307 44.7802 14.996 44.6842 14.844C44.5908 14.6893 44.5175 14.524 44.4642 14.348C44.4108 14.1693 44.3842 13.9853 44.3842 13.796V13.212ZM43.4762 13.064H45.4962V13.34H43.4762V13.064ZM45.9882 12.692H46.3202V16.312H45.9882V12.692ZM49.5478 12.692H49.8798V16.312H49.5478V12.692ZM49.7718 14.184H50.4198V14.46H49.7718V14.184ZM47.8158 13.084H48.1238C48.1238 13.3 48.1105 13.5147 48.0838 13.728C48.0572 13.9413 48.0118 14.1507 47.9478 14.356C47.8865 14.5613 47.8012 14.76 47.6918 14.952C47.5852 15.1413 47.4505 15.3227 47.2878 15.496L47.0238 15.308C47.1705 15.1533 47.2945 14.9907 47.3958 14.82C47.4998 14.6493 47.5825 14.472 47.6438 14.288C47.7052 14.104 47.7492 13.9147 47.7758 13.72C47.8025 13.5227 47.8158 13.3227 47.8158 13.12V13.084ZM47.1398 13.084H47.9398V13.36H47.1398V13.084ZM48.8038 13.084H49.1118C49.1118 13.3027 49.1012 13.5267 49.0798 13.756C49.0612 13.9853 49.0225 14.2147 48.9638 14.444C48.9078 14.6733 48.8278 14.8973 48.7238 15.116C48.6225 15.3347 48.4878 15.5413 48.3198 15.736L48.0518 15.552C48.2065 15.376 48.3318 15.1893 48.4278 14.992C48.5265 14.7947 48.6025 14.592 48.6558 14.384C48.7092 14.1733 48.7465 13.9613 48.7678 13.748C48.7918 13.5347 48.8038 13.324 48.8038 13.116V13.084ZM48.2398 13.084H48.9358V13.36H48.2398V13.084ZM51.6755 13.212H51.9475V13.796C51.9475 13.988 51.9209 14.1773 51.8675 14.364C51.8142 14.548 51.7395 14.7227 51.6435 14.888C51.5502 15.0507 51.4409 15.1947 51.3155 15.32C51.1902 15.4453 51.0555 15.544 50.9115 15.616L50.7195 15.352C50.8502 15.288 50.9729 15.2013 51.0875 15.092C51.2049 14.9827 51.3075 14.8573 51.3955 14.716C51.4835 14.5747 51.5515 14.4253 51.5995 14.268C51.6502 14.1107 51.6755 13.9533 51.6755 13.796V13.212ZM51.7435 13.212H52.0115V13.796C52.0115 13.948 52.0355 14.1 52.0835 14.252C52.1342 14.4013 52.2035 14.5427 52.2915 14.676C52.3822 14.8067 52.4849 14.9227 52.5995 15.024C52.7169 15.1253 52.8422 15.2053 52.9755 15.264L52.7915 15.528C52.6449 15.4587 52.5075 15.3653 52.3795 15.248C52.2515 15.1307 52.1395 14.996 52.0435 14.844C51.9502 14.6893 51.8769 14.524 51.8235 14.348C51.7702 14.1693 51.7435 13.9853 51.7435 13.796V13.212ZM50.8355 13.064H52.8555V13.34H50.8355V13.064ZM53.3475 12.692H53.6795V16.312H53.3475V12.692ZM54.7552 16.052C54.6832 16.052 54.6206 16.0267 54.5672 15.976C54.5166 15.9227 54.4912 15.856 54.4912 15.776C54.4912 15.6907 54.5166 15.6227 54.5672 15.572C54.6206 15.5213 54.6832 15.496 54.7552 15.496C54.8272 15.496 54.8886 15.5213 54.9392 15.572C54.9926 15.6227 55.0192 15.6907 55.0192 15.776C55.0192 15.856 54.9926 15.9227 54.9392 15.976C54.8886 16.0267 54.8272 16.052 54.7552 16.052Z" fill="#1D7BBF"/>
</svg>
