<svg width="122" height="34" viewBox="0 0 122 34" fill="none" xmlns="http://www.w3.org/2000/svg">
<path opacity="0.7" d="M7.5355 6V1.13379H9.24253C9.74717 1.13379 10.1231 1.24965 10.3703 1.48138C10.6226 1.7131 10.7487 2.02207 10.7487 2.40828C10.7487 2.59365 10.705 2.77903 10.6174 2.96441C10.5299 3.14979 10.3754 3.3017 10.154 3.42014C10.4835 3.54887 10.7024 3.72395 10.8105 3.94538C10.9238 4.1668 10.9805 4.37793 10.9805 4.57876C10.9805 4.99071 10.8517 5.33057 10.5943 5.59834C10.3368 5.86611 9.94285 6 9.41246 6H7.5355ZM9.13439 1.7131H8.15343V3.25021H9.18074C9.5206 3.25021 9.75747 3.19099 9.89136 3.07255C10.0304 2.94897 10.0999 2.75329 10.0999 2.48552C10.0999 2.21775 10.0149 2.02207 9.84501 1.89848C9.68023 1.7749 9.44336 1.7131 9.13439 1.7131ZM9.30432 3.80634H8.15343V5.42069H9.3275C9.6931 5.42069 9.95058 5.35375 10.0999 5.21986C10.2544 5.08083 10.3316 4.88 10.3316 4.61738C10.3316 4.35476 10.2518 4.15393 10.0922 4.0149C9.9377 3.87586 9.67508 3.80634 9.30432 3.80634ZM11.8719 6V2.8331H12.4821V3.5051C12.5954 3.24248 12.7499 3.0468 12.9455 2.91807C13.1464 2.78418 13.3729 2.71724 13.6253 2.71724C13.6767 2.71724 13.7231 2.72239 13.7643 2.73269C13.8055 2.73784 13.8415 2.74299 13.8724 2.74814V3.45103C13.79 3.43559 13.7051 3.42271 13.6175 3.41241C13.5351 3.40211 13.4527 3.39697 13.3704 3.39697C13.0562 3.39697 12.8297 3.4948 12.6906 3.69048C12.5516 3.88616 12.4821 4.20543 12.4821 4.64828V6H11.8719ZM15.9271 6.11586C15.6902 6.11586 15.4662 6.07467 15.2551 5.99228C15.0491 5.90989 14.8689 5.79402 14.7144 5.64469C14.5599 5.49536 14.4363 5.3177 14.3437 5.11172C14.2561 4.9006 14.2123 4.66887 14.2123 4.41655C14.2123 4.16423 14.2561 3.93508 14.3437 3.7291C14.4363 3.51798 14.5599 3.33775 14.7144 3.18841C14.8741 3.03908 15.0569 2.92322 15.2628 2.84083C15.474 2.75844 15.6954 2.71724 15.9271 2.71724C16.1588 2.71724 16.3777 2.75844 16.5837 2.84083C16.7948 2.92322 16.9776 3.03908 17.1321 3.18841C17.2917 3.33775 17.4153 3.51798 17.5028 3.7291C17.5955 3.93508 17.6419 4.16423 17.6419 4.41655C17.6419 4.66887 17.5955 4.9006 17.5028 5.11172C17.4153 5.3177 17.2943 5.49536 17.1398 5.64469C16.9853 5.79402 16.8025 5.90989 16.5914 5.99228C16.3854 6.07467 16.164 6.11586 15.9271 6.11586ZM15.9271 5.55972C16.2412 5.55972 16.4987 5.45931 16.6995 5.25848C16.9055 5.05766 17.0085 4.77701 17.0085 4.41655C17.0085 4.05609 16.9055 3.77545 16.6995 3.57462C16.4935 3.37379 16.2361 3.27338 15.9271 3.27338C15.6181 3.27338 15.3607 3.37379 15.1547 3.57462C14.9487 3.77545 14.8457 4.05609 14.8457 4.41655C14.8457 4.77701 14.9461 5.05766 15.147 5.25848C15.3529 5.45931 15.613 5.55972 15.9271 5.55972ZM18.5702 6V0.747586H19.1881V4.13848L20.5707 2.8331H21.374L19.7751 4.32386L21.4976 6H20.6479L19.1881 4.54014V6H18.5702ZM23.3175 6.11586C23.0652 6.11586 22.8361 6.07467 22.6301 5.99228C22.4293 5.90474 22.2593 5.7863 22.1203 5.63697C21.9813 5.48248 21.8731 5.30225 21.7959 5.09628C21.7186 4.88515 21.68 4.65857 21.68 4.41655C21.68 4.16423 21.7212 3.93508 21.8036 3.7291C21.886 3.51798 21.9993 3.33775 22.1435 3.18841C22.2928 3.03908 22.4653 2.92322 22.661 2.84083C22.8618 2.75844 23.0781 2.71724 23.3098 2.71724C23.763 2.71724 24.1363 2.86657 24.4298 3.16524C24.7285 3.45876 24.8778 3.85011 24.8778 4.33931C24.8778 4.38051 24.8752 4.4217 24.8701 4.4629C24.8701 4.50409 24.8675 4.54271 24.8624 4.57876H22.3211C22.3469 4.88257 22.4473 5.1246 22.6224 5.30483C22.7974 5.48506 23.0292 5.57517 23.3175 5.57517C23.5338 5.57517 23.7192 5.52625 23.8737 5.42841C24.0333 5.33057 24.1363 5.20184 24.1826 5.04221H24.816C24.7233 5.36662 24.5457 5.62667 24.2831 5.82234C24.0256 6.01802 23.7037 6.11586 23.3175 6.11586ZM23.3098 3.25793C23.0575 3.25793 22.8464 3.32745 22.6764 3.46648C22.5065 3.60037 22.3958 3.80377 22.3443 4.07669H24.2367C24.2161 3.81407 24.1208 3.61324 23.9509 3.47421C23.781 3.33002 23.5673 3.25793 23.3098 3.25793ZM25.8191 6V2.8331H26.437V3.536C26.5503 3.25793 26.7125 3.05195 26.9236 2.91807C27.1399 2.78418 27.3716 2.71724 27.6188 2.71724C27.9638 2.71724 28.2419 2.84083 28.453 3.088C28.6641 3.33002 28.7697 3.67503 28.7697 4.12303V6H28.1518V4.27752C28.1518 3.96855 28.0925 3.7291 27.9741 3.55917C27.8557 3.38409 27.6651 3.29655 27.4025 3.29655C27.1245 3.29655 26.8927 3.39697 26.7073 3.59779C26.5271 3.79862 26.437 4.09986 26.437 4.50152V6H25.8191ZM31.6823 4.41655C31.6823 4.77701 31.7698 5.05766 31.9449 5.25848C32.1251 5.45931 32.3543 5.55972 32.6324 5.55972C32.8435 5.55972 33.0211 5.50308 33.1653 5.38979C33.3147 5.27651 33.4305 5.10915 33.5129 4.88772H34.154C34.0613 5.27393 33.8863 5.57517 33.6288 5.79145C33.3765 6.00772 33.0572 6.11586 32.671 6.11586C32.1972 6.11586 31.8085 5.9588 31.5046 5.64469C31.2008 5.32543 31.0489 4.91605 31.0489 4.41655C31.0489 3.92221 31.2008 3.5154 31.5046 3.19614C31.8085 2.87687 32.1972 2.71724 32.671 2.71724C33.0623 2.71724 33.3868 2.82795 33.6442 3.04938C33.9069 3.2708 34.0794 3.57977 34.1617 3.97628H33.5206C33.4434 3.7497 33.3301 3.5772 33.1808 3.45876C33.0366 3.33517 32.8538 3.27338 32.6324 3.27338C32.3543 3.27338 32.1251 3.37379 31.9449 3.57462C31.7698 3.77545 31.6823 4.05609 31.6823 4.41655ZM36.5122 6.11586C36.2754 6.11586 36.0514 6.07467 35.8402 5.99228C35.6343 5.90989 35.454 5.79402 35.2995 5.64469C35.1451 5.49536 35.0215 5.3177 34.9288 5.11172C34.8412 4.9006 34.7975 4.66887 34.7975 4.41655C34.7975 4.16423 34.8412 3.93508 34.9288 3.7291C35.0215 3.51798 35.1451 3.33775 35.2995 3.18841C35.4592 3.03908 35.642 2.92322 35.848 2.84083C36.0591 2.75844 36.2805 2.71724 36.5122 2.71724C36.744 2.71724 36.9628 2.75844 37.1688 2.84083C37.3799 2.92322 37.5627 3.03908 37.7172 3.18841C37.8768 3.33775 38.0004 3.51798 38.088 3.7291C38.1806 3.93508 38.227 4.16423 38.227 4.41655C38.227 4.66887 38.1806 4.9006 38.088 5.11172C38.0004 5.3177 37.8794 5.49536 37.7249 5.64469C37.5704 5.79402 37.3876 5.90989 37.1765 5.99228C36.9705 6.07467 36.7491 6.11586 36.5122 6.11586ZM36.5122 5.55972C36.8264 5.55972 37.0838 5.45931 37.2846 5.25848C37.4906 5.05766 37.5936 4.77701 37.5936 4.41655C37.5936 4.05609 37.4906 3.77545 37.2846 3.57462C37.0787 3.37379 36.8212 3.27338 36.5122 3.27338C36.2033 3.27338 35.9458 3.37379 35.7398 3.57462C35.5338 3.77545 35.4309 4.05609 35.4309 4.41655C35.4309 4.77701 35.5313 5.05766 35.7321 5.25848C35.9381 5.45931 36.1981 5.55972 36.5122 5.55972ZM39.1553 6V2.8331H39.7732V3.536C39.8865 3.25793 40.0487 3.05195 40.2598 2.91807C40.4761 2.78418 40.7078 2.71724 40.955 2.71724C41.3 2.71724 41.5781 2.84083 41.7892 3.088C42.0003 3.33002 42.1059 3.67503 42.1059 4.12303V6H41.488V4.27752C41.488 3.96855 41.4288 3.7291 41.3103 3.55917C41.1919 3.38409 41.0013 3.29655 40.7387 3.29655C40.4607 3.29655 40.2289 3.39697 40.0436 3.59779C39.8633 3.79862 39.7732 4.09986 39.7732 4.50152V6H39.1553ZM43.2135 6V2.8331H43.8314V3.536C43.9447 3.25793 44.1069 3.05195 44.318 2.91807C44.5343 2.78418 44.766 2.71724 45.0132 2.71724C45.3582 2.71724 45.6363 2.84083 45.8474 3.088C46.0585 3.33002 46.1641 3.67503 46.1641 4.12303V6H45.5462V4.27752C45.5462 3.96855 45.4869 3.7291 45.3685 3.55917C45.2501 3.38409 45.0595 3.29655 44.7969 3.29655C44.5188 3.29655 44.2871 3.39697 44.1017 3.59779C43.9215 3.79862 43.8314 4.09986 43.8314 4.50152V6H43.2135ZM48.6775 6.11586C48.4251 6.11586 48.196 6.07467 47.99 5.99228C47.7892 5.90474 47.6192 5.7863 47.4802 5.63697C47.3412 5.48248 47.233 5.30225 47.1558 5.09628C47.0786 4.88515 47.0399 4.65857 47.0399 4.41655C47.0399 4.16423 47.0811 3.93508 47.1635 3.7291C47.2459 3.51798 47.3592 3.33775 47.5034 3.18841C47.6527 3.03908 47.8252 2.92322 48.0209 2.84083C48.2217 2.75844 48.438 2.71724 48.6697 2.71724C49.1229 2.71724 49.4962 2.86657 49.7897 3.16524C50.0884 3.45876 50.2377 3.85011 50.2377 4.33931C50.2377 4.38051 50.2352 4.4217 50.23 4.4629C50.23 4.50409 50.2274 4.54271 50.2223 4.57876H47.681C47.7068 4.88257 47.8072 5.1246 47.9823 5.30483C48.1574 5.48506 48.3891 5.57517 48.6775 5.57517C48.8937 5.57517 49.0791 5.52625 49.2336 5.42841C49.3932 5.33057 49.4962 5.20184 49.5426 5.04221H50.1759C50.0832 5.36662 49.9056 5.62667 49.643 5.82234C49.3855 6.01802 49.0637 6.11586 48.6775 6.11586ZM48.6697 3.25793C48.4174 3.25793 48.2063 3.32745 48.0363 3.46648C47.8664 3.60037 47.7557 3.80377 47.7042 4.07669H49.5966C49.576 3.81407 49.4808 3.61324 49.3108 3.47421C49.1409 3.33002 48.9272 3.25793 48.6697 3.25793ZM51.5961 4.41655C51.5961 4.77701 51.6836 5.05766 51.8587 5.25848C52.0389 5.45931 52.2681 5.55972 52.5462 5.55972C52.7573 5.55972 52.9349 5.50308 53.0791 5.38979C53.2285 5.27651 53.3443 5.10915 53.4267 4.88772H54.0678C53.9751 5.27393 53.8 5.57517 53.5426 5.79145C53.2903 6.00772 52.971 6.11586 52.5848 6.11586C52.111 6.11586 51.7223 5.9588 51.4184 5.64469C51.1146 5.32543 50.9627 4.91605 50.9627 4.41655C50.9627 3.92221 51.1146 3.5154 51.4184 3.19614C51.7223 2.87687 52.111 2.71724 52.5848 2.71724C52.9761 2.71724 53.3006 2.82795 53.558 3.04938C53.8206 3.2708 53.9931 3.57977 54.0755 3.97628H53.4344C53.3572 3.7497 53.2439 3.5772 53.0946 3.45876C52.9504 3.33517 52.7676 3.27338 52.5462 3.27338C52.2681 3.27338 52.0389 3.37379 51.8587 3.57462C51.6836 3.77545 51.5961 4.05609 51.5961 4.41655ZM54.5104 3.37379V2.8331H55.391V1.52H56.0012V2.8331H57.1753V3.37379H56.0012V4.82593C56.0012 5.0731 56.0527 5.25333 56.1557 5.36662C56.2587 5.47991 56.4209 5.53655 56.6423 5.53655C56.7298 5.53655 56.8174 5.5314 56.9049 5.5211C56.9925 5.50566 57.0826 5.48763 57.1753 5.46703V6.06179C57.0723 6.08239 56.9719 6.09526 56.874 6.10041C56.7762 6.11071 56.6835 6.11586 56.596 6.11586C56.184 6.11586 55.8802 6.01802 55.6845 5.82234C55.4888 5.62152 55.391 5.3177 55.391 4.9109V3.37379H54.5104ZM58.3597 2.30786C58.2207 2.30786 58.0997 2.25894 57.9967 2.1611C57.8988 2.06326 57.8499 1.94225 57.8499 1.79807C57.8499 1.65388 57.8988 1.53287 57.9967 1.43503C58.0997 1.3372 58.2207 1.28828 58.3597 1.28828C58.4988 1.28828 58.6172 1.3372 58.715 1.43503C58.818 1.53287 58.8695 1.65388 58.8695 1.79807C58.8695 1.94225 58.818 2.06326 58.715 2.1611C58.6172 2.25894 58.4988 2.30786 58.3597 2.30786ZM58.0508 6V2.8331H58.6687V6H58.0508ZM61.314 6.11586C61.0771 6.11586 60.8531 6.07467 60.642 5.99228C60.436 5.90989 60.2558 5.79402 60.1013 5.64469C59.9468 5.49536 59.8232 5.3177 59.7305 5.11172C59.643 4.9006 59.5992 4.66887 59.5992 4.41655C59.5992 4.16423 59.643 3.93508 59.7305 3.7291C59.8232 3.51798 59.9468 3.33775 60.1013 3.18841C60.2609 3.03908 60.4437 2.92322 60.6497 2.84083C60.8608 2.75844 61.0822 2.71724 61.314 2.71724C61.5457 2.71724 61.7645 2.75844 61.9705 2.84083C62.1816 2.92322 62.3644 3.03908 62.5189 3.18841C62.6786 3.33775 62.8021 3.51798 62.8897 3.7291C62.9824 3.93508 63.0287 4.16423 63.0287 4.41655C63.0287 4.66887 62.9824 4.9006 62.8897 5.11172C62.8021 5.3177 62.6811 5.49536 62.5267 5.64469C62.3722 5.79402 62.1894 5.90989 61.9782 5.99228C61.7723 6.07467 61.5508 6.11586 61.314 6.11586ZM61.314 5.55972C61.6281 5.55972 61.8855 5.45931 62.0864 5.25848C62.2924 5.05766 62.3953 4.77701 62.3953 4.41655C62.3953 4.05609 62.2924 3.77545 62.0864 3.57462C61.8804 3.37379 61.6229 3.27338 61.314 3.27338C61.005 3.27338 60.7475 3.37379 60.5415 3.57462C60.3356 3.77545 60.2326 4.05609 60.2326 4.41655C60.2326 4.77701 60.333 5.05766 60.5338 5.25848C60.7398 5.45931 60.9998 5.55972 61.314 5.55972ZM63.957 6V2.8331H64.5749V3.536C64.6882 3.25793 64.8504 3.05195 65.0616 2.91807C65.2778 2.78418 65.5096 2.71724 65.7567 2.71724C66.1017 2.71724 66.3798 2.84083 66.5909 3.088C66.8021 3.33002 66.9076 3.67503 66.9076 4.12303V6H66.2897V4.27752C66.2897 3.96855 66.2305 3.7291 66.112 3.55917C65.9936 3.38409 65.8031 3.29655 65.5405 3.29655C65.2624 3.29655 65.0307 3.39697 64.8453 3.59779C64.6651 3.79862 64.5749 4.09986 64.5749 4.50152V6H63.957ZM70.4174 3.77545H69.7917C69.7866 3.60037 69.7222 3.46648 69.5986 3.37379C69.4751 3.27595 69.3025 3.22703 69.0811 3.22703C68.8906 3.22703 68.7387 3.26051 68.6254 3.32745C68.5121 3.39439 68.4555 3.48708 68.4555 3.60552C68.4555 3.7188 68.5018 3.80892 68.5945 3.87586C68.6923 3.9428 68.8134 3.9943 68.9575 4.03034L69.73 4.21572C69.9462 4.26722 70.1316 4.35733 70.2861 4.48607C70.4457 4.60966 70.5255 4.80018 70.5255 5.05766C70.5255 5.35117 70.4071 5.60092 70.1702 5.8069C69.9334 6.01287 69.6064 6.11586 69.1893 6.11586C68.7876 6.11586 68.4477 6.0103 68.1697 5.79917C67.8916 5.58805 67.75 5.31255 67.7448 4.97269H68.3705C68.3911 5.18897 68.4786 5.3486 68.6331 5.45159C68.7876 5.55457 68.9807 5.60607 69.2124 5.60607C69.4339 5.60607 69.6012 5.5623 69.7145 5.47476C69.8278 5.38722 69.8844 5.28166 69.8844 5.15807C69.8844 5.04478 69.8381 4.95724 69.7454 4.89545C69.6527 4.82851 69.5343 4.77701 69.3901 4.74097L68.7258 4.57876C68.5044 4.52726 68.3036 4.432 68.1233 4.29297C67.9431 4.14878 67.853 3.93766 67.853 3.65959C67.853 3.37637 67.9611 3.14979 68.1774 2.97986C68.3988 2.80478 68.7026 2.71724 69.0888 2.71724C69.4854 2.71724 69.802 2.80993 70.0389 2.99531C70.2758 3.17554 70.402 3.43559 70.4174 3.77545ZM72.5737 4.41655C72.5737 4.14363 72.62 3.90161 72.7127 3.69048C72.8054 3.47421 72.9239 3.29655 73.068 3.15752C73.2122 3.01333 73.3744 2.9052 73.5547 2.8331C73.7349 2.75586 73.9151 2.71724 74.0954 2.71724C74.3168 2.71724 74.5331 2.77903 74.7442 2.90262C74.9605 3.02106 75.1304 3.20129 75.254 3.44331V2.8331H75.8719V6H75.254V5.38979C75.1304 5.63182 74.9605 5.81462 74.7442 5.93821C74.5331 6.05664 74.3168 6.11586 74.0954 6.11586C73.9151 6.11586 73.7349 6.07724 73.5547 6C73.3744 5.92791 73.2122 5.82234 73.068 5.68331C72.9239 5.53913 72.8054 5.36147 72.7127 5.15034C72.62 4.93407 72.5737 4.68947 72.5737 4.41655ZM74.2035 3.29655C73.8997 3.29655 73.6577 3.40469 73.4774 3.62097C73.2972 3.83724 73.2071 4.10244 73.2071 4.41655C73.2071 4.73067 73.2972 4.99586 73.4774 5.21214C73.6577 5.42841 73.8997 5.53655 74.2035 5.53655C74.497 5.53655 74.7468 5.43871 74.9527 5.24303C75.1639 5.04736 75.2694 4.77186 75.2694 4.41655C75.2694 4.06124 75.1664 3.78575 74.9605 3.59007C74.7545 3.39439 74.5022 3.29655 74.2035 3.29655ZM77.0292 6V2.8331H77.6394V3.5051C77.7527 3.24248 77.9072 3.0468 78.1029 2.91807C78.3037 2.78418 78.5303 2.71724 78.7826 2.71724C78.8341 2.71724 78.8804 2.72239 78.9216 2.73269C78.9628 2.73784 78.9989 2.74299 79.0298 2.74814V3.45103C78.9474 3.43559 78.8624 3.42271 78.7749 3.41241C78.6925 3.40211 78.6101 3.39697 78.5277 3.39697C78.2136 3.39697 77.987 3.4948 77.848 3.69048C77.7089 3.88616 77.6394 4.20543 77.6394 4.64828V6H77.0292ZM81.0072 6.11586C80.7549 6.11586 80.5257 6.07467 80.3198 5.99228C80.1189 5.90474 79.949 5.7863 79.81 5.63697C79.6709 5.48248 79.5628 5.30225 79.4855 5.09628C79.4083 4.88515 79.3697 4.65857 79.3697 4.41655C79.3697 4.16423 79.4109 3.93508 79.4933 3.7291C79.5757 3.51798 79.6889 3.33775 79.8331 3.18841C79.9825 3.03908 80.155 2.92322 80.3506 2.84083C80.5515 2.75844 80.7678 2.71724 80.9995 2.71724C81.4526 2.71724 81.826 2.86657 82.1195 3.16524C82.4181 3.45876 82.5675 3.85011 82.5675 4.33931C82.5675 4.38051 82.5649 4.4217 82.5598 4.4629C82.5598 4.50409 82.5572 4.54271 82.552 4.57876H80.0108C80.0365 4.88257 80.1369 5.1246 80.312 5.30483C80.4871 5.48506 80.7188 5.57517 81.0072 5.57517C81.2235 5.57517 81.4089 5.52625 81.5633 5.42841C81.723 5.33057 81.826 5.20184 81.8723 5.04221H82.5057C82.413 5.36662 82.2353 5.62667 81.9727 5.82234C81.7152 6.01802 81.3934 6.11586 81.0072 6.11586ZM80.9995 3.25793C80.7472 3.25793 80.536 3.32745 80.3661 3.46648C80.1962 3.60037 80.0855 3.80377 80.034 4.07669H81.9264C81.9058 3.81407 81.8105 3.61324 81.6406 3.47421C81.4706 3.33002 81.2569 3.25793 80.9995 3.25793ZM84.8967 6V2.8331H85.5069V3.5051C85.6202 3.24248 85.7746 3.0468 85.9703 2.91807C86.1711 2.78418 86.3977 2.71724 86.65 2.71724C86.7015 2.71724 86.7479 2.72239 86.7891 2.73269C86.8303 2.73784 86.8663 2.74299 86.8972 2.74814V3.45103C86.8148 3.43559 86.7299 3.42271 86.6423 3.41241C86.5599 3.40211 86.4775 3.39697 86.3951 3.39697C86.081 3.39697 85.8545 3.4948 85.7154 3.69048C85.5764 3.88616 85.5069 4.20543 85.5069 4.64828V6H84.8967ZM88.8747 6.11586C88.6223 6.11586 88.3932 6.07467 88.1872 5.99228C87.9864 5.90474 87.8164 5.7863 87.6774 5.63697C87.5384 5.48248 87.4302 5.30225 87.353 5.09628C87.2758 4.88515 87.2371 4.65857 87.2371 4.41655C87.2371 4.16423 87.2783 3.93508 87.3607 3.7291C87.4431 3.51798 87.5564 3.33775 87.7006 3.18841C87.8499 3.03908 88.0224 2.92322 88.2181 2.84083C88.4189 2.75844 88.6352 2.71724 88.8669 2.71724C89.3201 2.71724 89.6934 2.86657 89.9869 3.16524C90.2856 3.45876 90.4349 3.85011 90.4349 4.33931C90.4349 4.38051 90.4324 4.4217 90.4272 4.4629C90.4272 4.50409 90.4246 4.54271 90.4195 4.57876H87.8782C87.904 4.88257 88.0044 5.1246 88.1795 5.30483C88.3546 5.48506 88.5863 5.57517 88.8747 5.57517C89.0909 5.57517 89.2763 5.52625 89.4308 5.42841C89.5904 5.33057 89.6934 5.20184 89.7398 5.04221H90.3731C90.2804 5.36662 90.1028 5.62667 89.8402 5.82234C89.5827 6.01802 89.2609 6.11586 88.8747 6.11586ZM88.8669 3.25793C88.6146 3.25793 88.4035 3.32745 88.2335 3.46648C88.0636 3.60037 87.9529 3.80377 87.9014 4.07669H89.7938C89.7732 3.81407 89.678 3.61324 89.508 3.47421C89.3381 3.33002 89.1244 3.25793 88.8669 3.25793ZM93.7784 3.77545H93.1527C93.1476 3.60037 93.0832 3.46648 92.9596 3.37379C92.836 3.27595 92.6635 3.22703 92.4421 3.22703C92.2516 3.22703 92.0997 3.26051 91.9864 3.32745C91.8731 3.39439 91.8165 3.48708 91.8165 3.60552C91.8165 3.7188 91.8628 3.80892 91.9555 3.87586C92.0533 3.9428 92.1743 3.9943 92.3185 4.03034L93.0909 4.21572C93.3072 4.26722 93.4926 4.35733 93.6471 4.48607C93.8067 4.60966 93.8865 4.80018 93.8865 5.05766C93.8865 5.35117 93.7681 5.60092 93.5312 5.8069C93.2943 6.01287 92.9674 6.11586 92.5503 6.11586C92.1486 6.11586 91.8087 6.0103 91.5307 5.79917C91.2526 5.58805 91.111 5.31255 91.1058 4.97269H91.7315C91.7521 5.18897 91.8396 5.3486 91.9941 5.45159C92.1486 5.55457 92.3417 5.60607 92.5734 5.60607C92.7949 5.60607 92.9622 5.5623 93.0755 5.47476C93.1888 5.38722 93.2454 5.28166 93.2454 5.15807C93.2454 5.04478 93.1991 4.95724 93.1064 4.89545C93.0137 4.82851 92.8953 4.77701 92.7511 4.74097L92.0868 4.57876C91.8654 4.52726 91.6646 4.432 91.4843 4.29297C91.3041 4.14878 91.214 3.93766 91.214 3.65959C91.214 3.37637 91.3221 3.14979 91.5384 2.97986C91.7598 2.80478 92.0636 2.71724 92.4498 2.71724C92.8463 2.71724 93.163 2.80993 93.3999 2.99531C93.6368 3.17554 93.7629 3.43559 93.7784 3.77545ZM94.3305 3.37379V2.8331H95.211V1.52H95.8212V2.8331H96.9953V3.37379H95.8212V4.82593C95.8212 5.0731 95.8727 5.25333 95.9757 5.36662C96.0787 5.47991 96.2409 5.53655 96.4624 5.53655C96.5499 5.53655 96.6374 5.5314 96.725 5.5211C96.8125 5.50566 96.9026 5.48763 96.9953 5.46703V6.06179C96.8923 6.08239 96.7919 6.09526 96.6941 6.10041C96.5962 6.11071 96.5035 6.11586 96.416 6.11586C96.0041 6.11586 95.7002 6.01802 95.5046 5.82234C95.3089 5.62152 95.211 5.3177 95.211 4.9109V3.37379H94.3305ZM99.3538 6.11586C99.117 6.11586 98.893 6.07467 98.6818 5.99228C98.4759 5.90989 98.2956 5.79402 98.1411 5.64469C97.9867 5.49536 97.8631 5.3177 97.7704 5.11172C97.6828 4.9006 97.6391 4.66887 97.6391 4.41655C97.6391 4.16423 97.6828 3.93508 97.7704 3.7291C97.8631 3.51798 97.9867 3.33775 98.1411 3.18841C98.3008 3.03908 98.4836 2.92322 98.6896 2.84083C98.9007 2.75844 99.1221 2.71724 99.3538 2.71724C99.5856 2.71724 99.8044 2.75844 100.01 2.84083C100.222 2.92322 100.404 3.03908 100.559 3.18841C100.718 3.33775 100.842 3.51798 100.93 3.7291C101.022 3.93508 101.069 4.16423 101.069 4.41655C101.069 4.66887 101.022 4.9006 100.93 5.11172C100.842 5.3177 100.721 5.49536 100.567 5.64469C100.412 5.79402 100.229 5.90989 100.018 5.99228C99.8121 6.07467 99.5907 6.11586 99.3538 6.11586ZM99.3538 5.55972C99.6679 5.55972 99.9254 5.45931 100.126 5.25848C100.332 5.05766 100.435 4.77701 100.435 4.41655C100.435 4.05609 100.332 3.77545 100.126 3.57462C99.9203 3.37379 99.6628 3.27338 99.3538 3.27338C99.0449 3.27338 98.7874 3.37379 98.5814 3.57462C98.3754 3.77545 98.2725 4.05609 98.2725 4.41655C98.2725 4.77701 98.3729 5.05766 98.5737 5.25848C98.7797 5.45931 99.0397 5.55972 99.3538 5.55972ZM101.997 6V2.8331H102.607V3.5051C102.72 3.24248 102.875 3.0468 103.071 2.91807C103.271 2.78418 103.498 2.71724 103.75 2.71724C103.802 2.71724 103.848 2.72239 103.889 2.73269C103.93 2.73784 103.967 2.74299 103.997 2.74814V3.45103C103.915 3.43559 103.83 3.42271 103.743 3.41241C103.66 3.40211 103.578 3.39697 103.495 3.39697C103.181 3.39697 102.955 3.4948 102.816 3.69048C102.677 3.88616 102.607 4.20543 102.607 4.64828V6H101.997ZM105.975 6.11586C105.723 6.11586 105.493 6.07467 105.287 5.99228C105.087 5.90474 104.917 5.7863 104.778 5.63697C104.639 5.48248 104.53 5.30225 104.453 5.09628C104.376 4.88515 104.337 4.65857 104.337 4.41655C104.337 4.16423 104.379 3.93508 104.461 3.7291C104.543 3.51798 104.657 3.33775 104.801 3.18841C104.95 3.03908 105.123 2.92322 105.318 2.84083C105.519 2.75844 105.735 2.71724 105.967 2.71724C106.42 2.71724 106.794 2.86657 107.087 3.16524C107.386 3.45876 107.535 3.85011 107.535 4.33931C107.535 4.38051 107.533 4.4217 107.527 4.4629C107.527 4.50409 107.525 4.54271 107.52 4.57876H104.978C105.004 4.88257 105.105 5.1246 105.28 5.30483C105.455 5.48506 105.687 5.57517 105.975 5.57517C106.191 5.57517 106.377 5.52625 106.531 5.42841C106.691 5.33057 106.794 5.20184 106.84 5.04221H107.473C107.381 5.36662 107.203 5.62667 106.94 5.82234C106.683 6.01802 106.361 6.11586 105.975 6.11586ZM105.967 3.25793C105.715 3.25793 105.504 3.32745 105.334 3.46648C105.164 3.60037 105.053 3.80377 105.002 4.07669H106.894C106.873 3.81407 106.778 3.61324 106.608 3.47421C106.438 3.33002 106.225 3.25793 105.967 3.25793ZM108.26 4.41655C108.26 4.14363 108.304 3.90161 108.391 3.69048C108.484 3.47421 108.6 3.29655 108.739 3.15752C108.878 3.01333 109.035 2.9052 109.21 2.8331C109.39 2.75586 109.568 2.71724 109.743 2.71724C109.97 2.71724 110.194 2.77903 110.415 2.90262C110.637 3.02106 110.812 3.20386 110.94 3.45103V0.747586H111.558V6H110.94V5.38207C110.812 5.62924 110.637 5.81462 110.415 5.93821C110.194 6.05664 109.97 6.11586 109.743 6.11586C109.568 6.11586 109.39 6.07724 109.21 6C109.035 5.92791 108.878 5.82234 108.739 5.68331C108.6 5.53913 108.484 5.36147 108.391 5.15034C108.304 4.93407 108.26 4.68947 108.26 4.41655ZM109.89 3.29655C109.586 3.29655 109.344 3.40469 109.164 3.62097C108.984 3.83724 108.894 4.10244 108.894 4.41655C108.894 4.73067 108.984 4.99586 109.164 5.21214C109.344 5.42841 109.586 5.53655 109.89 5.53655C110.189 5.53655 110.441 5.43871 110.647 5.24303C110.853 5.04736 110.956 4.77186 110.956 4.41655C110.956 4.06124 110.85 3.78575 110.639 3.59007C110.433 3.39439 110.183 3.29655 109.89 3.29655ZM112.878 5.17352H113.581C113.581 5.34345 113.568 5.50308 113.542 5.65241C113.516 5.80175 113.475 5.95623 113.419 6.11586C113.362 6.28064 113.29 6.46087 113.202 6.65655C113.115 6.85738 113.007 7.09168 112.878 7.35945H112.368C112.523 6.94234 112.646 6.55614 112.739 6.20083C112.831 5.85067 112.878 5.50823 112.878 5.17352ZM11.9271 12.4166C11.9271 12.1436 11.9735 11.9016 12.0662 11.6905C12.1589 11.4742 12.2773 11.2966 12.4215 11.1575C12.5657 11.0133 12.7279 10.9052 12.9081 10.8331C13.0883 10.7559 13.2686 10.7172 13.4488 10.7172C13.6702 10.7172 13.8865 10.779 14.0976 10.9026C14.3139 11.0211 14.4838 11.2013 14.6074 11.4433V10.8331H15.2254V14H14.6074V13.3898C14.4838 13.6318 14.3139 13.8146 14.0976 13.9382C13.8865 14.0566 13.6702 14.1159 13.4488 14.1159C13.2686 14.1159 13.0883 14.0772 12.9081 14C12.7279 13.9279 12.5657 13.8223 12.4215 13.6833C12.2773 13.5391 12.1589 13.3615 12.0662 13.1503C11.9735 12.9341 11.9271 12.6895 11.9271 12.4166ZM13.5569 11.2966C13.2531 11.2966 13.0111 11.4047 12.8309 11.621C12.6506 11.8372 12.5605 12.1024 12.5605 12.4166C12.5605 12.7307 12.6506 12.9959 12.8309 13.2121C13.0111 13.4284 13.2531 13.5366 13.5569 13.5366C13.8505 13.5366 14.1002 13.4387 14.3062 13.243C14.5173 13.0474 14.6229 12.7719 14.6229 12.4166C14.6229 12.0612 14.5199 11.7857 14.3139 11.5901C14.1079 11.3944 13.8556 11.2966 13.5569 11.2966ZM16.3826 14V10.8331H17.0006V11.536C17.1139 11.2579 17.2761 11.052 17.4872 10.9181C17.7035 10.7842 17.9352 10.7172 18.1824 10.7172C18.5274 10.7172 18.8055 10.8408 19.0166 11.088C19.2277 11.33 19.3333 11.675 19.3333 12.123V14H18.7153V12.2775C18.7153 11.9686 18.6561 11.7291 18.5377 11.5592C18.4192 11.3841 18.2287 11.2966 17.9661 11.2966C17.688 11.2966 17.4563 11.397 17.2709 11.5978C17.0907 11.7986 17.0006 12.0999 17.0006 12.5015V14H16.3826ZM20.2246 12.4166C20.2246 12.1436 20.2683 11.9016 20.3559 11.6905C20.4486 11.4742 20.5644 11.2966 20.7035 11.1575C20.8425 11.0133 20.9996 10.9052 21.1746 10.8331C21.3549 10.7559 21.5325 10.7172 21.7076 10.7172C21.9342 10.7172 22.1582 10.779 22.3796 10.9026C22.601 11.0211 22.7761 11.2039 22.9048 11.451V8.74759H23.5228V14H22.9048V13.3821C22.7761 13.6292 22.601 13.8146 22.3796 13.9382C22.1582 14.0566 21.9342 14.1159 21.7076 14.1159C21.5325 14.1159 21.3549 14.0772 21.1746 14C20.9996 13.9279 20.8425 13.8223 20.7035 13.6833C20.5644 13.5391 20.4486 13.3615 20.3559 13.1503C20.2683 12.9341 20.2246 12.6895 20.2246 12.4166ZM21.8544 11.2966C21.5505 11.2966 21.3085 11.4047 21.1283 11.621C20.9481 11.8372 20.8579 12.1024 20.8579 12.4166C20.8579 12.7307 20.9481 12.9959 21.1283 13.2121C21.3085 13.4284 21.5505 13.5366 21.8544 13.5366C22.153 13.5366 22.4053 13.4387 22.6113 13.243C22.8173 13.0474 22.9203 12.7719 22.9203 12.4166C22.9203 12.0612 22.8147 11.7857 22.6036 11.5901C22.3976 11.3944 22.1479 11.2966 21.8544 11.2966ZM25.8749 12.4166C25.8749 12.1436 25.9187 11.9016 26.0062 11.6905C26.0989 11.4742 26.2148 11.2966 26.3538 11.1575C26.4928 11.0133 26.6499 10.9052 26.825 10.8331C27.0052 10.7559 27.1828 10.7172 27.3579 10.7172C27.5845 10.7172 27.8085 10.779 28.0299 10.9026C28.2514 11.0211 28.4264 11.2039 28.5552 11.451V10.8717H29.1731V13.7219C29.1731 14.2575 29.0289 14.6823 28.7405 14.9964C28.4573 15.3105 28.0557 15.4676 27.5356 15.4676C27.1648 15.4676 26.8327 15.3594 26.5392 15.1432C26.2456 14.932 26.0319 14.6257 25.8981 14.224L26.431 13.9691C26.5598 14.3038 26.7117 14.5458 26.8868 14.6952C27.0618 14.8497 27.2781 14.9269 27.5356 14.9269C27.8394 14.9269 28.084 14.8316 28.2694 14.6411C28.4599 14.4557 28.5552 14.188 28.5552 13.8378V13.5288L28.5629 13.3589C28.4393 13.6112 28.2642 13.8017 28.0376 13.9305C27.8162 14.0541 27.5896 14.1159 27.3579 14.1159C27.1828 14.1159 27.0052 14.0772 26.825 14C26.6499 13.9279 26.4928 13.8223 26.3538 13.6833C26.2148 13.5391 26.0989 13.3615 26.0062 13.1503C25.9187 12.9341 25.8749 12.6895 25.8749 12.4166ZM27.5047 11.2966C27.2009 11.2966 26.9588 11.4047 26.7786 11.621C26.5984 11.8372 26.5083 12.1024 26.5083 12.4166C26.5083 12.7307 26.5984 12.9959 26.7786 13.2121C26.9588 13.4284 27.2009 13.5366 27.5047 13.5366C27.7982 13.5366 28.0479 13.4387 28.2539 13.243C28.4651 13.0474 28.5706 12.7719 28.5706 12.4166C28.5706 12.0612 28.4676 11.7857 28.2616 11.5901C28.0557 11.3944 27.8034 11.2966 27.5047 11.2966ZM30.1136 12.4166C30.1136 12.1436 30.1599 11.9016 30.2526 11.6905C30.3453 11.4742 30.4637 11.2966 30.6079 11.1575C30.7521 11.0133 30.9143 10.9052 31.0945 10.8331C31.2748 10.7559 31.455 10.7172 31.6352 10.7172C31.8567 10.7172 32.0729 10.779 32.2841 10.9026C32.5003 11.0211 32.6703 11.2013 32.7938 11.4433V10.8331H33.4118V14H32.7938V13.3898C32.6703 13.6318 32.5003 13.8146 32.2841 13.9382C32.0729 14.0566 31.8567 14.1159 31.6352 14.1159C31.455 14.1159 31.2748 14.0772 31.0945 14C30.9143 13.9279 30.7521 13.8223 30.6079 13.6833C30.4637 13.5391 30.3453 13.3615 30.2526 13.1503C30.1599 12.9341 30.1136 12.6895 30.1136 12.4166ZM31.7434 11.2966C31.4395 11.2966 31.1975 11.4047 31.0173 11.621C30.8371 11.8372 30.747 12.1024 30.747 12.4166C30.747 12.7307 30.8371 12.9959 31.0173 13.2121C31.1975 13.4284 31.4395 13.5366 31.7434 13.5366C32.0369 13.5366 32.2866 13.4387 32.4926 13.243C32.7037 13.0474 32.8093 12.7719 32.8093 12.4166C32.8093 12.0612 32.7063 11.7857 32.5003 11.5901C32.2944 11.3944 32.042 11.2966 31.7434 11.2966ZM34.5691 14V10.8331H35.1793V11.5051C35.2926 11.2425 35.447 11.0468 35.6427 10.9181C35.8436 10.7842 36.0701 10.7172 36.3225 10.7172C36.3739 10.7172 36.4203 10.7224 36.4615 10.7327C36.5027 10.7378 36.5387 10.743 36.5696 10.7481V11.451C36.4872 11.4356 36.4023 11.4227 36.3147 11.4124C36.2323 11.4021 36.1499 11.397 36.0676 11.397C35.7534 11.397 35.5269 11.4948 35.3878 11.6905C35.2488 11.8862 35.1793 12.2054 35.1793 12.6483V14H34.5691ZM37.1413 14V10.8331H37.7592V11.5283C37.857 11.276 38.0012 11.0777 38.1918 10.9335C38.3874 10.7893 38.6166 10.7172 38.8792 10.7172C39.1367 10.7172 39.3581 10.7893 39.5435 10.9335C39.7289 11.0777 39.8602 11.2837 39.9374 11.5514C40.0352 11.2888 40.1872 11.0854 40.3931 10.9412C40.6043 10.7919 40.8514 10.7172 41.1346 10.7172C41.4745 10.7172 41.7474 10.8408 41.9534 11.088C42.1645 11.33 42.2701 11.675 42.2701 12.123V14H41.6522V12.2775C41.6522 11.9686 41.5929 11.7291 41.4745 11.5592C41.3561 11.3841 41.1655 11.2966 40.9029 11.2966C40.6455 11.2966 40.4318 11.397 40.2618 11.5978C40.097 11.7986 40.0146 12.0999 40.0146 12.5015V14H39.3967V12.2775C39.3967 11.9686 39.3375 11.7291 39.2191 11.5592C39.1006 11.3841 38.9101 11.2966 38.6475 11.2966C38.39 11.2966 38.1763 11.397 38.0064 11.5978C37.8416 11.7986 37.7592 12.0999 37.7592 12.5015V14H37.1413ZM44.7777 14.1159C44.5253 14.1159 44.2962 14.0747 44.0902 13.9923C43.8894 13.9047 43.7195 13.7863 43.5804 13.637C43.4414 13.4825 43.3333 13.3023 43.256 13.0963C43.1788 12.8851 43.1402 12.6586 43.1402 12.4166C43.1402 12.1642 43.1813 11.9351 43.2637 11.7291C43.3461 11.518 43.4594 11.3377 43.6036 11.1884C43.7529 11.0391 43.9254 10.9232 44.1211 10.8408C44.3219 10.7584 44.5382 10.7172 44.7699 10.7172C45.2231 10.7172 45.5964 10.8666 45.8899 11.1652C46.1886 11.4588 46.3379 11.8501 46.3379 12.3393C46.3379 12.3805 46.3354 12.4217 46.3302 12.4629C46.3302 12.5041 46.3276 12.5427 46.3225 12.5788H43.7813C43.807 12.8826 43.9074 13.1246 44.0825 13.3048C44.2576 13.4851 44.4893 13.5752 44.7777 13.5752C44.9939 13.5752 45.1793 13.5263 45.3338 13.4284C45.4934 13.3306 45.5964 13.2018 45.6428 13.0422H46.2762C46.1835 13.3666 46.0058 13.6267 45.7432 13.8223C45.4857 14.018 45.1639 14.1159 44.7777 14.1159ZM44.7699 11.2579C44.5176 11.2579 44.3065 11.3274 44.1366 11.4665C43.9666 11.6004 43.8559 11.8038 43.8044 12.0767H45.6968C45.6762 11.8141 45.581 11.6132 45.411 11.4742C45.2411 11.33 45.0274 11.2579 44.7699 11.2579ZM47.2792 14V10.8331H47.8971V11.536C48.0104 11.2579 48.1726 11.052 48.3838 10.9181C48.6 10.7842 48.8318 10.7172 49.0789 10.7172C49.4239 10.7172 49.702 10.8408 49.9131 11.088C50.1243 11.33 50.2298 11.675 50.2298 12.123V14H49.6119V12.2775C49.6119 11.9686 49.5527 11.7291 49.4342 11.5592C49.3158 11.3841 49.1253 11.2966 48.8626 11.2966C48.5846 11.2966 48.3529 11.397 48.1675 11.5978C47.9872 11.7986 47.8971 12.0999 47.8971 12.5015V14H47.2792ZM50.9048 11.3738V10.8331H51.7854V9.52H52.3956V10.8331H53.5697V11.3738H52.3956V12.8259C52.3956 13.0731 52.4471 13.2533 52.5501 13.3666C52.6531 13.4799 52.8153 13.5366 53.0367 13.5366C53.1242 13.5366 53.2118 13.5314 53.2993 13.5211C53.3869 13.5057 53.477 13.4876 53.5697 13.467V14.0618C53.4667 14.0824 53.3663 14.0953 53.2684 14.1004C53.1706 14.1107 53.0779 14.1159 52.9904 14.1159C52.5784 14.1159 52.2746 14.018 52.0789 13.8223C51.8832 13.6215 51.7854 13.3177 51.7854 12.9109V11.3738H50.9048ZM56.8474 11.7754H56.2217C56.2166 11.6004 56.1522 11.4665 56.0286 11.3738C55.905 11.276 55.7325 11.227 55.5111 11.227C55.3206 11.227 55.1686 11.2605 55.0554 11.3274C54.9421 11.3944 54.8854 11.4871 54.8854 11.6055C54.8854 11.7188 54.9318 11.8089 55.0245 11.8759C55.1223 11.9428 55.2433 11.9943 55.3875 12.0303L56.1599 12.2157C56.3762 12.2672 56.5616 12.3573 56.716 12.4861C56.8757 12.6097 56.9555 12.8002 56.9555 13.0577C56.9555 13.3512 56.8371 13.6009 56.6002 13.8069C56.3633 14.0129 56.0363 14.1159 55.6192 14.1159C55.2176 14.1159 54.8777 14.0103 54.5996 13.7992C54.3216 13.588 54.18 13.3126 54.1748 12.9727H54.8005C54.8211 13.189 54.9086 13.3486 55.0631 13.4516C55.2176 13.5546 55.4107 13.6061 55.6424 13.6061C55.8638 13.6061 56.0312 13.5623 56.1445 13.4748C56.2577 13.3872 56.3144 13.2817 56.3144 13.1581C56.3144 13.0448 56.268 12.9572 56.1754 12.8954C56.0827 12.8285 55.9642 12.777 55.82 12.741L55.1558 12.5788C54.9343 12.5273 54.7335 12.432 54.5533 12.293C54.3731 12.1488 54.2829 11.9377 54.2829 11.6596C54.2829 11.3764 54.3911 11.1498 54.6074 10.9799C54.8288 10.8048 55.1326 10.7172 55.5188 10.7172C55.9153 10.7172 56.232 10.8099 56.4689 10.9953C56.7057 11.1755 56.8319 11.4356 56.8474 11.7754ZM58.7874 11.3738V10.8331H59.6679V9.52H60.2781V10.8331H61.4522V11.3738H60.2781V12.8259C60.2781 13.0731 60.3296 13.2533 60.4326 13.3666C60.5356 13.4799 60.6978 13.5366 60.9192 13.5366C61.0068 13.5366 61.0943 13.5314 61.1819 13.5211C61.2694 13.5057 61.3595 13.4876 61.4522 13.467V14.0618C61.3492 14.0824 61.2488 14.0953 61.151 14.1004C61.0531 14.1107 60.9604 14.1159 60.8729 14.1159C60.4609 14.1159 60.1571 14.018 59.9615 13.8223C59.7658 13.6215 59.6679 13.3177 59.6679 12.9109V11.3738H58.7874ZM62.3277 14V8.74759H62.9456V11.536C63.0589 11.2579 63.2211 11.052 63.4322 10.9181C63.6485 10.7842 63.8802 10.7172 64.1274 10.7172C64.4724 10.7172 64.7505 10.8408 64.9616 11.088C65.1728 11.33 65.2783 11.675 65.2783 12.123V14H64.6604V12.2775C64.6604 11.9686 64.6012 11.7291 64.4827 11.5592C64.3643 11.3841 64.1738 11.2966 63.9111 11.2966C63.6331 11.2966 63.4013 11.397 63.216 11.5978C63.0357 11.7986 62.9456 12.0999 62.9456 12.5015V14H62.3277ZM66.1696 12.4166C66.1696 12.1436 66.216 11.9016 66.3086 11.6905C66.4013 11.4742 66.5198 11.2966 66.664 11.1575C66.8081 11.0133 66.9703 10.9052 67.1506 10.8331C67.3308 10.7559 67.511 10.7172 67.6913 10.7172C67.9127 10.7172 68.129 10.779 68.3401 10.9026C68.5564 11.0211 68.7263 11.2013 68.8499 11.4433V10.8331H69.4678V14H68.8499V13.3898C68.7263 13.6318 68.5564 13.8146 68.3401 13.9382C68.129 14.0566 67.9127 14.1159 67.6913 14.1159C67.511 14.1159 67.3308 14.0772 67.1506 14C66.9703 13.9279 66.8081 13.8223 66.664 13.6833C66.5198 13.5391 66.4013 13.3615 66.3086 13.1503C66.216 12.9341 66.1696 12.6895 66.1696 12.4166ZM67.7994 11.2966C67.4956 11.2966 67.2536 11.4047 67.0733 11.621C66.8931 11.8372 66.803 12.1024 66.803 12.4166C66.803 12.7307 66.8931 12.9959 67.0733 13.2121C67.2536 13.4284 67.4956 13.5366 67.7994 13.5366C68.0929 13.5366 68.3427 13.4387 68.5486 13.243C68.7598 13.0474 68.8653 12.7719 68.8653 12.4166C68.8653 12.0612 68.7623 11.7857 68.5564 11.5901C68.3504 11.3944 68.0981 11.2966 67.7994 11.2966ZM70.1926 11.3738V10.8331H71.0731V9.52H71.6833V10.8331H72.8574V11.3738H71.6833V12.8259C71.6833 13.0731 71.7348 13.2533 71.8378 13.3666C71.9408 13.4799 72.103 13.5366 72.3244 13.5366C72.412 13.5366 72.4995 13.5314 72.587 13.5211C72.6746 13.5057 72.7647 13.4876 72.8574 13.467V14.0618C72.7544 14.0824 72.654 14.0953 72.5561 14.1004C72.4583 14.1107 72.3656 14.1159 72.2781 14.1159C71.8661 14.1159 71.5623 14.018 71.3666 13.8223C71.1709 13.6215 71.0731 13.3177 71.0731 12.9109V11.3738H70.1926ZM75.1208 14V10.8331H75.731V11.5051C75.8443 11.2425 75.9988 11.0468 76.1945 10.9181C76.3953 10.7842 76.6219 10.7172 76.8742 10.7172C76.9257 10.7172 76.972 10.7224 77.0132 10.7327C77.0544 10.7378 77.0905 10.743 77.1214 10.7481V11.451C77.039 11.4356 76.954 11.4227 76.8665 11.4124C76.7841 11.4021 76.7017 11.397 76.6193 11.397C76.3052 11.397 76.0786 11.4948 75.9396 11.6905C75.8005 11.8862 75.731 12.2054 75.731 12.6483V14H75.1208ZM79.0988 14.1159C78.8465 14.1159 78.6173 14.0747 78.4113 13.9923C78.2105 13.9047 78.0406 13.7863 77.9016 13.637C77.7625 13.4825 77.6544 13.3023 77.5771 13.0963C77.4999 12.8851 77.4613 12.6586 77.4613 12.4166C77.4613 12.1642 77.5025 11.9351 77.5849 11.7291C77.6673 11.518 77.7805 11.3377 77.9247 11.1884C78.0741 11.0391 78.2466 10.9232 78.4422 10.8408C78.6431 10.7584 78.8593 10.7172 79.0911 10.7172C79.5442 10.7172 79.9176 10.8666 80.2111 11.1652C80.5097 11.4588 80.6591 11.8501 80.6591 12.3393C80.6591 12.3805 80.6565 12.4217 80.6513 12.4629C80.6513 12.5041 80.6488 12.5427 80.6436 12.5788H78.1024C78.1281 12.8826 78.2285 13.1246 78.4036 13.3048C78.5787 13.4851 78.8104 13.5752 79.0988 13.5752C79.3151 13.5752 79.5005 13.5263 79.6549 13.4284C79.8146 13.3306 79.9176 13.2018 79.9639 13.0422H80.5973C80.5046 13.3666 80.3269 13.6267 80.0643 13.8223C79.8068 14.018 79.485 14.1159 79.0988 14.1159ZM79.0911 11.2579C78.8388 11.2579 78.6276 11.3274 78.4577 11.4665C78.2878 11.6004 78.177 11.8038 78.1256 12.0767H80.018C79.9974 11.8141 79.9021 11.6132 79.7322 11.4742C79.5622 11.33 79.3485 11.2579 79.0911 11.2579ZM81.6003 14V10.8331H82.2183V11.5283C82.3161 11.276 82.4603 11.0777 82.6508 10.9335C82.8465 10.7893 83.0756 10.7172 83.3383 10.7172C83.5957 10.7172 83.8171 10.7893 84.0025 10.9335C84.1879 11.0777 84.3192 11.2837 84.3965 11.5514C84.4943 11.2888 84.6462 11.0854 84.8522 10.9412C85.0633 10.7919 85.3105 10.7172 85.5937 10.7172C85.9336 10.7172 86.2065 10.8408 86.4125 11.088C86.6236 11.33 86.7291 11.675 86.7291 12.123V14H86.1112V12.2775C86.1112 11.9686 86.052 11.7291 85.9336 11.5592C85.8151 11.3841 85.6246 11.2966 85.362 11.2966C85.1045 11.2966 84.8908 11.397 84.7209 11.5978C84.5561 11.7986 84.4737 12.0999 84.4737 12.5015V14H83.8558V12.2775C83.8558 11.9686 83.7966 11.7291 83.6781 11.5592C83.5597 11.3841 83.3691 11.2966 83.1065 11.2966C82.8491 11.2966 82.6354 11.397 82.4654 11.5978C82.3006 11.7986 82.2183 12.0999 82.2183 12.5015V14H81.6003ZM87.6147 12.4166C87.6147 12.1436 87.661 11.9016 87.7537 11.6905C87.8464 11.4742 87.9648 11.2966 88.109 11.1575C88.2532 11.0133 88.4154 10.9052 88.5956 10.8331C88.7758 10.7559 88.9561 10.7172 89.1363 10.7172C89.3577 10.7172 89.574 10.779 89.7851 10.9026C90.0014 11.0211 90.1713 11.2013 90.2949 11.4433V10.8331H90.9129V14H90.2949V13.3898C90.1713 13.6318 90.0014 13.8146 89.7851 13.9382C89.574 14.0566 89.3577 14.1159 89.1363 14.1159C88.9561 14.1159 88.7758 14.0772 88.5956 14C88.4154 13.9279 88.2532 13.8223 88.109 13.6833C87.9648 13.5391 87.8464 13.3615 87.7537 13.1503C87.661 12.9341 87.6147 12.6895 87.6147 12.4166ZM89.2444 11.2966C88.9406 11.2966 88.6986 11.4047 88.5184 11.621C88.3381 11.8372 88.248 12.1024 88.248 12.4166C88.248 12.7307 88.3381 12.9959 88.5184 13.2121C88.6986 13.4284 88.9406 13.5366 89.2444 13.5366C89.538 13.5366 89.7877 13.4387 89.9937 13.243C90.2048 13.0474 90.3104 12.7719 90.3104 12.4166C90.3104 12.0612 90.2074 11.7857 90.0014 11.5901C89.7954 11.3944 89.5431 11.2966 89.2444 11.2966ZM92.3791 10.3079C92.2401 10.3079 92.1191 10.2589 92.0161 10.1611C91.9182 10.0633 91.8693 9.94225 91.8693 9.79807C91.8693 9.65388 91.9182 9.53287 92.0161 9.43503C92.1191 9.3372 92.2401 9.28828 92.3791 9.28828C92.5182 9.28828 92.6366 9.3372 92.7344 9.43503C92.8374 9.53287 92.8889 9.65388 92.8889 9.79807C92.8889 9.94225 92.8374 10.0633 92.7344 10.1611C92.6366 10.2589 92.5182 10.3079 92.3791 10.3079ZM92.0702 14V10.8331H92.6881V14H92.0702ZM93.8503 14V10.8331H94.4683V11.536C94.5815 11.2579 94.7437 11.052 94.9549 10.9181C95.1711 10.7842 95.4029 10.7172 95.65 10.7172C95.9951 10.7172 96.2731 10.8408 96.4843 11.088C96.6954 11.33 96.8009 11.675 96.8009 12.123V14H96.183V12.2775C96.183 11.9686 96.1238 11.7291 96.0054 11.5592C95.8869 11.3841 95.6964 11.2966 95.4338 11.2966C95.1557 11.2966 94.924 11.397 94.7386 11.5978C94.5584 11.7986 94.4683 12.0999 94.4683 12.5015V14H93.8503ZM99.0802 12.4166C99.0802 12.1436 99.1265 11.9016 99.2192 11.6905C99.3119 11.4742 99.4303 11.2966 99.5745 11.1575C99.7187 11.0133 99.8809 10.9052 100.061 10.8331C100.241 10.7559 100.422 10.7172 100.602 10.7172C100.823 10.7172 101.04 10.779 101.251 10.9026C101.467 11.0211 101.637 11.2013 101.76 11.4433V10.8331H102.378V14H101.76V13.3898C101.637 13.6318 101.467 13.8146 101.251 13.9382C101.04 14.0566 100.823 14.1159 100.602 14.1159C100.422 14.1159 100.241 14.0772 100.061 14C99.8809 13.9279 99.7187 13.8223 99.5745 13.6833C99.4303 13.5391 99.3119 13.3615 99.2192 13.1503C99.1265 12.9341 99.0802 12.6895 99.0802 12.4166ZM100.71 11.2966C100.406 11.2966 100.164 11.4047 99.9839 11.621C99.8037 11.8372 99.7135 12.1024 99.7135 12.4166C99.7135 12.7307 99.8037 12.9959 99.9839 13.2121C100.164 13.4284 100.406 13.5366 100.71 13.5366C101.003 13.5366 101.253 13.4387 101.459 13.243C101.67 13.0474 101.776 12.7719 101.776 12.4166C101.776 12.0612 101.673 11.7857 101.467 11.5901C101.261 11.3944 101.009 11.2966 100.71 11.2966ZM103.536 14V10.8331H104.146V11.5051C104.259 11.2425 104.414 11.0468 104.609 10.9181C104.81 10.7842 105.037 10.7172 105.289 10.7172C105.341 10.7172 105.387 10.7224 105.428 10.7327C105.469 10.7378 105.505 10.743 105.536 10.7481V11.451C105.454 11.4356 105.369 11.4227 105.281 11.4124C105.199 11.4021 105.117 11.397 105.034 11.397C104.72 11.397 104.493 11.4948 104.354 11.6905C104.215 11.8862 104.146 12.2054 104.146 12.6483V14H103.536ZM107.514 14.1159C107.261 14.1159 107.032 14.0747 106.826 13.9923C106.625 13.9047 106.455 13.7863 106.316 13.637C106.177 13.4825 106.069 13.3023 105.992 13.0963C105.915 12.8851 105.876 12.6586 105.876 12.4166C105.876 12.1642 105.917 11.9351 106 11.7291C106.082 11.518 106.195 11.3377 106.34 11.1884C106.489 11.0391 106.661 10.9232 106.857 10.8408C107.058 10.7584 107.274 10.7172 107.506 10.7172C107.959 10.7172 108.332 10.8666 108.626 11.1652C108.925 11.4588 109.074 11.8501 109.074 12.3393C109.074 12.3805 109.071 12.4217 109.066 12.4629C109.066 12.5041 109.064 12.5427 109.058 12.5788H106.517C106.543 12.8826 106.643 13.1246 106.818 13.3048C106.994 13.4851 107.225 13.5752 107.514 13.5752C107.73 13.5752 107.915 13.5263 108.07 13.4284C108.229 13.3306 108.332 13.2018 108.379 13.0422H109.012C108.919 13.3666 108.742 13.6267 108.479 13.8223C108.222 14.018 107.9 14.1159 107.514 14.1159ZM107.506 11.2579C107.254 11.2579 107.042 11.3274 106.873 11.4665C106.703 11.6004 106.592 11.8038 106.54 12.0767H108.433C108.412 11.8141 108.317 11.6132 108.147 11.4742C107.977 11.33 107.763 11.2579 107.506 11.2579ZM19.0642 22V16.7476H19.6822V22H19.0642ZM21.1534 18.3079C21.0143 18.3079 20.8933 18.2589 20.7903 18.1611C20.6925 18.0633 20.6436 17.9423 20.6436 17.7981C20.6436 17.6539 20.6925 17.5329 20.7903 17.435C20.8933 17.3372 21.0143 17.2883 21.1534 17.2883C21.2924 17.2883 21.4108 17.3372 21.5087 17.435C21.6117 17.5329 21.6632 17.6539 21.6632 17.7981C21.6632 17.9423 21.6117 18.0633 21.5087 18.1611C21.4108 18.2589 21.2924 18.3079 21.1534 18.3079ZM20.8444 22V18.8331H21.4623V22H20.8444ZM22.6246 22V18.8331H23.2425V19.536C23.3558 19.2579 23.518 19.052 23.7291 18.9181C23.9454 18.7842 24.1771 18.7172 24.4243 18.7172C24.7693 18.7172 25.0474 18.8408 25.2585 19.088C25.4696 19.33 25.5752 19.675 25.5752 20.123V22H24.9573V20.2775C24.9573 19.9686 24.898 19.7291 24.7796 19.5592C24.6612 19.3841 24.4706 19.2966 24.208 19.2966C23.9299 19.2966 23.6982 19.397 23.5128 19.5978C23.3326 19.7986 23.2425 20.0999 23.2425 20.5015V22H22.6246ZM26.6828 22V16.7476H27.3007V20.1385L28.6833 18.8331H29.4866L27.8877 20.3239L29.6102 22H28.7606L27.3007 20.5401V22H26.6828ZM31.4301 22.1159C31.1778 22.1159 30.9487 22.0747 30.7427 21.9923C30.5419 21.9047 30.3719 21.7863 30.2329 21.637C30.0939 21.4825 29.9857 21.3023 29.9085 21.0963C29.8312 20.8851 29.7926 20.6586 29.7926 20.4166C29.7926 20.1642 29.8338 19.9351 29.9162 19.7291C29.9986 19.518 30.1119 19.3377 30.2561 19.1884C30.4054 19.0391 30.5779 18.9232 30.7736 18.8408C30.9744 18.7584 31.1907 18.7172 31.4224 18.7172C31.8756 18.7172 32.2489 18.8666 32.5424 19.1652C32.8411 19.4588 32.9904 19.8501 32.9904 20.3393C32.9904 20.3805 32.9878 20.4217 32.9827 20.4629C32.9827 20.5041 32.9801 20.5427 32.975 20.5788H30.4337C30.4595 20.8826 30.5599 21.1246 30.735 21.3048C30.9101 21.4851 31.1418 21.5752 31.4301 21.5752C31.6464 21.5752 31.8318 21.5263 31.9863 21.4284C32.1459 21.3306 32.2489 21.2018 32.2952 21.0422H32.9286C32.8359 21.3666 32.6583 21.6267 32.3957 21.8223C32.1382 22.018 31.8164 22.1159 31.4301 22.1159ZM31.4224 19.2579C31.1701 19.2579 30.959 19.3274 30.789 19.4665C30.6191 19.6004 30.5084 19.8038 30.4569 20.0767H32.3493C32.3287 19.8141 32.2335 19.6132 32.0635 19.4742C31.8936 19.33 31.6799 19.2579 31.4224 19.2579ZM33.7154 20.4166C33.7154 20.1436 33.7592 19.9016 33.8467 19.6905C33.9394 19.4742 34.0553 19.2966 34.1943 19.1575C34.3333 19.0133 34.4904 18.9052 34.6655 18.8331C34.8457 18.7559 35.0234 18.7172 35.1984 18.7172C35.425 18.7172 35.649 18.779 35.8704 18.9026C36.0919 19.0211 36.2669 19.2039 36.3957 19.451V16.7476H37.0136V22H36.3957V21.3821C36.2669 21.6292 36.0919 21.8146 35.8704 21.9382C35.649 22.0566 35.425 22.1159 35.1984 22.1159C35.0234 22.1159 34.8457 22.0772 34.6655 22C34.4904 21.9279 34.3333 21.8223 34.1943 21.6833C34.0553 21.5391 33.9394 21.3615 33.8467 21.1503C33.7592 20.9341 33.7154 20.6895 33.7154 20.4166ZM35.3452 19.2966C35.0414 19.2966 34.7994 19.4047 34.6191 19.621C34.4389 19.8372 34.3488 20.1024 34.3488 20.4166C34.3488 20.7307 34.4389 20.9959 34.6191 21.2121C34.7994 21.4284 35.0414 21.5366 35.3452 21.5366C35.6439 21.5366 35.8962 21.4387 36.1022 21.243C36.3081 21.0474 36.4111 20.7719 36.4111 20.4166C36.4111 20.0612 36.3056 19.7857 36.0944 19.5901C35.8885 19.3944 35.6387 19.2966 35.3452 19.2966ZM39.1263 19.3738V18.8331H40.0068V17.52H40.617V18.8331H41.7911V19.3738H40.617V20.8259C40.617 21.0731 40.6685 21.2533 40.7715 21.3666C40.8745 21.4799 41.0367 21.5366 41.2581 21.5366C41.3457 21.5366 41.4332 21.5314 41.5208 21.5211C41.6083 21.5057 41.6984 21.4876 41.7911 21.467V22.0618C41.6881 22.0824 41.5877 22.0953 41.4899 22.1004C41.392 22.1107 41.2993 22.1159 41.2118 22.1159C40.7998 22.1159 40.496 22.018 40.3004 21.8223C40.1047 21.6215 40.0068 21.3177 40.0068 20.9109V19.3738H39.1263ZM44.1496 22.1159C43.9128 22.1159 43.6888 22.0747 43.4776 21.9923C43.2717 21.9099 43.0914 21.794 42.9369 21.6447C42.7825 21.4954 42.6589 21.3177 42.5662 21.1117C42.4786 20.9006 42.4349 20.6689 42.4349 20.4166C42.4349 20.1642 42.4786 19.9351 42.5662 19.7291C42.6589 19.518 42.7825 19.3377 42.9369 19.1884C43.0966 19.0391 43.2794 18.9232 43.4854 18.8408C43.6965 18.7584 43.9179 18.7172 44.1496 18.7172C44.3814 18.7172 44.6002 18.7584 44.8062 18.8408C45.0173 18.9232 45.2001 19.0391 45.3546 19.1884C45.5142 19.3377 45.6378 19.518 45.7254 19.7291C45.818 19.9351 45.8644 20.1642 45.8644 20.4166C45.8644 20.6689 45.818 20.9006 45.7254 21.1117C45.6378 21.3177 45.5168 21.4954 45.3623 21.6447C45.2078 21.794 45.025 21.9099 44.8139 21.9923C44.6079 22.0747 44.3865 22.1159 44.1496 22.1159ZM44.1496 21.5597C44.4637 21.5597 44.7212 21.4593 44.922 21.2585C45.128 21.0577 45.231 20.777 45.231 20.4166C45.231 20.0561 45.128 19.7754 44.922 19.5746C44.7161 19.3738 44.4586 19.2734 44.1496 19.2734C43.8407 19.2734 43.5832 19.3738 43.3772 19.5746C43.1712 19.7754 43.0682 20.0561 43.0682 20.4166C43.0682 20.777 43.1687 21.0577 43.3695 21.2585C43.5755 21.4593 43.8355 21.5597 44.1496 21.5597ZM48.1806 22V18.8331H48.7985V19.536C48.9118 19.2579 49.074 19.052 49.2852 18.9181C49.5014 18.7842 49.7332 18.7172 49.9803 18.7172C50.3253 18.7172 50.6034 18.8408 50.8145 19.088C51.0257 19.33 51.1312 19.675 51.1312 20.123V22H50.5133V20.2775C50.5133 19.9686 50.4541 19.7291 50.3356 19.5592C50.2172 19.3841 50.0267 19.2966 49.7641 19.2966C49.486 19.2966 49.2543 19.397 49.0689 19.5978C48.8887 19.7986 48.7985 20.0999 48.7985 20.5015V22H48.1806ZM53.6446 22.1159C53.3923 22.1159 53.1631 22.0747 52.9571 21.9923C52.7563 21.9047 52.5864 21.7863 52.4473 21.637C52.3083 21.4825 52.2002 21.3023 52.1229 21.0963C52.0457 20.8851 52.0071 20.6586 52.0071 20.4166C52.0071 20.1642 52.0483 19.9351 52.1307 19.7291C52.213 19.518 52.3263 19.3377 52.4705 19.1884C52.6199 19.0391 52.7924 18.9232 52.988 18.8408C53.1889 18.7584 53.4051 18.7172 53.6369 18.7172C54.09 18.7172 54.4633 18.8666 54.7569 19.1652C55.0555 19.4588 55.2049 19.8501 55.2049 20.3393C55.2049 20.3805 55.2023 20.4217 55.1971 20.4629C55.1971 20.5041 55.1946 20.5427 55.1894 20.5788H52.6482C52.6739 20.8826 52.7743 21.1246 52.9494 21.3048C53.1245 21.4851 53.3562 21.5752 53.6446 21.5752C53.8609 21.5752 54.0462 21.5263 54.2007 21.4284C54.3604 21.3306 54.4633 21.2018 54.5097 21.0422H55.1431C55.0504 21.3666 54.8727 21.6267 54.6101 21.8223C54.3526 22.018 54.0308 22.1159 53.6446 22.1159ZM53.6369 19.2579C53.3845 19.2579 53.1734 19.3274 53.0035 19.4665C52.8336 19.6004 52.7228 19.8038 52.6713 20.0767H54.5638C54.5432 19.8141 54.4479 19.6132 54.278 19.4742C54.108 19.33 53.8943 19.2579 53.6369 19.2579ZM57.7527 18.8331H58.3938L59.1122 21.2276L59.7533 18.8331H60.3867L59.4598 22H58.7801L58.0772 19.6132L57.3665 22H56.6868L55.7599 18.8331H56.3933L57.0344 21.2276L57.7527 18.8331ZM62.5427 23.3517V18.8331H63.1606V19.451C63.2893 19.2039 63.4644 19.0211 63.6858 18.9026C63.9073 18.779 64.1313 18.7172 64.3578 18.7172C64.5329 18.7172 64.708 18.7559 64.8831 18.8331C65.0633 18.9052 65.223 19.0133 65.362 19.1575C65.501 19.2966 65.6143 19.4742 65.7018 19.6905C65.7945 19.9016 65.8409 20.1436 65.8409 20.4166C65.8409 20.6895 65.7945 20.9341 65.7018 21.1503C65.6143 21.3615 65.501 21.5391 65.362 21.6833C65.223 21.8223 65.0633 21.9279 64.8831 22C64.708 22.0772 64.5329 22.1159 64.3578 22.1159C64.1313 22.1159 63.9073 22.0566 63.6858 21.9382C63.4644 21.8146 63.2893 21.6292 63.1606 21.3821V23.3517H62.5427ZM64.2111 21.5366C64.5149 21.5366 64.7569 21.4284 64.9372 21.2121C65.1174 20.9959 65.2075 20.7307 65.2075 20.4166C65.2075 20.1024 65.1174 19.8372 64.9372 19.621C64.7569 19.4047 64.5149 19.2966 64.2111 19.2966C63.9176 19.2966 63.6652 19.3944 63.4541 19.5901C63.2481 19.7857 63.1452 20.0612 63.1452 20.4166C63.1452 20.7719 63.2481 21.0474 63.4541 21.243C63.6601 21.4387 63.9124 21.5366 64.2111 21.5366ZM68.2649 22.1159C68.0281 22.1159 67.8041 22.0747 67.5929 21.9923C67.387 21.9099 67.2067 21.794 67.0522 21.6447C66.8978 21.4954 66.7742 21.3177 66.6815 21.1117C66.5939 20.9006 66.5502 20.6689 66.5502 20.4166C66.5502 20.1642 66.5939 19.9351 66.6815 19.7291C66.7742 19.518 66.8978 19.3377 67.0522 19.1884C67.2119 19.0391 67.3947 18.9232 67.6007 18.8408C67.8118 18.7584 68.0332 18.7172 68.2649 18.7172C68.4967 18.7172 68.7155 18.7584 68.9215 18.8408C69.1326 18.9232 69.3154 19.0391 69.4699 19.1884C69.6295 19.3377 69.7531 19.518 69.8407 19.7291C69.9333 19.9351 69.9797 20.1642 69.9797 20.4166C69.9797 20.6689 69.9333 20.9006 69.8407 21.1117C69.7531 21.3177 69.6321 21.4954 69.4776 21.6447C69.3231 21.794 69.1403 21.9099 68.9292 21.9923C68.7232 22.0747 68.5018 22.1159 68.2649 22.1159ZM68.2649 21.5597C68.5791 21.5597 68.8365 21.4593 69.0373 21.2585C69.2433 21.0577 69.3463 20.777 69.3463 20.4166C69.3463 20.0561 69.2433 19.7754 69.0373 19.5746C68.8314 19.3738 68.5739 19.2734 68.2649 19.2734C67.956 19.2734 67.6985 19.3738 67.4925 19.5746C67.2865 19.7754 67.1836 20.0561 67.1836 20.4166C67.1836 20.777 67.284 21.0577 67.4848 21.2585C67.6908 21.4593 67.9508 21.5597 68.2649 21.5597ZM73.3102 19.7754H72.6845C72.6794 19.6004 72.615 19.4665 72.4914 19.3738C72.3678 19.276 72.1953 19.227 71.9739 19.227C71.7834 19.227 71.6315 19.2605 71.5182 19.3274C71.4049 19.3944 71.3482 19.4871 71.3482 19.6055C71.3482 19.7188 71.3946 19.8089 71.4873 19.8759C71.5851 19.9428 71.7061 19.9943 71.8503 20.0303L72.6227 20.2157C72.839 20.2672 73.0244 20.3573 73.1789 20.4861C73.3385 20.6097 73.4183 20.8002 73.4183 21.0577C73.4183 21.3512 73.2999 21.6009 73.063 21.8069C72.8261 22.0129 72.4991 22.1159 72.082 22.1159C71.6804 22.1159 71.3405 22.0103 71.0625 21.7992C70.7844 21.588 70.6428 21.3126 70.6376 20.9727H71.2633C71.2839 21.189 71.3714 21.3486 71.5259 21.4516C71.6804 21.5546 71.8735 21.6061 72.1052 21.6061C72.3266 21.6061 72.494 21.5623 72.6073 21.4748C72.7206 21.3872 72.7772 21.2817 72.7772 21.1581C72.7772 21.0448 72.7309 20.9572 72.6382 20.8954C72.5455 20.8285 72.4271 20.777 72.2829 20.741L71.6186 20.5788C71.3972 20.5273 71.1963 20.432 71.0161 20.293C70.8359 20.1488 70.7458 19.9377 70.7458 19.6596C70.7458 19.3764 70.8539 19.1498 71.0702 18.9799C71.2916 18.8048 71.5954 18.7172 71.9816 18.7172C72.3781 18.7172 72.6948 18.8099 72.9317 18.9953C73.1686 19.1755 73.2947 19.4356 73.3102 19.7754ZM76.697 19.7754H76.0714C76.0662 19.6004 76.0019 19.4665 75.8783 19.3738C75.7547 19.276 75.5822 19.227 75.3608 19.227C75.1702 19.227 75.0183 19.2605 74.905 19.3274C74.7917 19.3944 74.7351 19.4871 74.7351 19.6055C74.7351 19.7188 74.7814 19.8089 74.8741 19.8759C74.972 19.9428 75.093 19.9943 75.2372 20.0303L76.0096 20.2157C76.2259 20.2672 76.4112 20.3573 76.5657 20.4861C76.7254 20.6097 76.8052 20.8002 76.8052 21.0577C76.8052 21.3512 76.6867 21.6009 76.4499 21.8069C76.213 22.0129 75.886 22.1159 75.4689 22.1159C75.0672 22.1159 74.7274 22.0103 74.4493 21.7992C74.1712 21.588 74.0296 21.3126 74.0245 20.9727H74.6501C74.6707 21.189 74.7583 21.3486 74.9128 21.4516C75.0672 21.5546 75.2603 21.6061 75.4921 21.6061C75.7135 21.6061 75.8808 21.5623 75.9941 21.4748C76.1074 21.3872 76.1641 21.2817 76.1641 21.1581C76.1641 21.0448 76.1177 20.9572 76.025 20.8954C75.9323 20.8285 75.8139 20.777 75.6697 20.741L75.0054 20.5788C74.784 20.5273 74.5832 20.432 74.403 20.293C74.2227 20.1488 74.1326 19.9377 74.1326 19.6596C74.1326 19.3764 74.2408 19.1498 74.457 18.9799C74.6785 18.8048 74.9823 18.7172 75.3685 18.7172C75.765 18.7172 76.0817 18.8099 76.3185 18.9953C76.5554 19.1755 76.6816 19.4356 76.697 19.7754ZM77.9906 18.3079C77.8516 18.3079 77.7306 18.2589 77.6276 18.1611C77.5298 18.0633 77.4809 17.9423 77.4809 17.7981C77.4809 17.6539 77.5298 17.5329 77.6276 17.435C77.7306 17.3372 77.8516 17.2883 77.9906 17.2883C78.1297 17.2883 78.2481 17.3372 78.346 17.435C78.4489 17.5329 78.5004 17.6539 78.5004 17.7981C78.5004 17.9423 78.4489 18.0633 78.346 18.1611C78.2481 18.2589 78.1297 18.3079 77.9906 18.3079ZM77.6817 22V18.8331H78.2996V22H77.6817ZM82.7601 20.4166C82.7601 20.6895 82.7137 20.9341 82.621 21.1503C82.5335 21.3615 82.4202 21.5391 82.2812 21.6833C82.1421 21.8223 81.9825 21.9279 81.8023 22C81.6272 22.0772 81.4521 22.1159 81.277 22.1159C81.0505 22.1159 80.8265 22.0566 80.605 21.9382C80.3836 21.8146 80.2085 21.6292 80.0798 21.3821V22H79.4619V16.7476H80.0798V19.451C80.2085 19.2039 80.3836 19.0211 80.605 18.9026C80.8265 18.779 81.0505 18.7172 81.277 18.7172C81.4521 18.7172 81.6272 18.7559 81.8023 18.8331C81.9825 18.9052 82.1421 19.0133 82.2812 19.1575C82.4202 19.2966 82.5335 19.4742 82.621 19.6905C82.7137 19.9016 82.7601 20.1436 82.7601 20.4166ZM81.1303 19.2966C80.8368 19.2966 80.5844 19.3944 80.3733 19.5901C80.1673 19.7857 80.0643 20.0612 80.0643 20.4166C80.0643 20.7719 80.1673 21.0474 80.3733 21.243C80.5793 21.4387 80.8316 21.5366 81.1303 21.5366C81.4341 21.5366 81.6761 21.4284 81.8563 21.2121C82.0366 20.9959 82.1267 20.7307 82.1267 20.4166C82.1267 20.1024 82.0366 19.8372 81.8563 19.621C81.6761 19.4047 81.4341 19.2966 81.1303 19.2966ZM84.01 18.3079C83.871 18.3079 83.75 18.2589 83.647 18.1611C83.5492 18.0633 83.5002 17.9423 83.5002 17.7981C83.5002 17.6539 83.5492 17.5329 83.647 17.435C83.75 17.3372 83.871 17.2883 84.01 17.2883C84.1491 17.2883 84.2675 17.3372 84.3654 17.435C84.4683 17.5329 84.5198 17.6539 84.5198 17.7981C84.5198 17.9423 84.4683 18.0633 84.3654 18.1611C84.2675 18.2589 84.1491 18.3079 84.01 18.3079ZM83.7011 22V18.8331H84.319V22H83.7011ZM85.4813 22V16.7476H86.0992V22H85.4813ZM87.5704 18.3079C87.4314 18.3079 87.3103 18.2589 87.2074 18.1611C87.1095 18.0633 87.0606 17.9423 87.0606 17.7981C87.0606 17.6539 87.1095 17.5329 87.2074 17.435C87.3103 17.3372 87.4314 17.2883 87.5704 17.2883C87.7094 17.2883 87.8279 17.3372 87.9257 17.435C88.0287 17.5329 88.0802 17.6539 88.0802 17.7981C88.0802 17.9423 88.0287 18.0633 87.9257 18.1611C87.8279 18.2589 87.7094 18.3079 87.5704 18.3079ZM87.2614 22V18.8331H87.8794V22H87.2614ZM88.609 19.3738V18.8331H89.4896V17.52H90.0998V18.8331H91.2739V19.3738H90.0998V20.8259C90.0998 21.0731 90.1513 21.2533 90.2543 21.3666C90.3573 21.4799 90.5195 21.5366 90.7409 21.5366C90.8284 21.5366 90.916 21.5314 91.0035 21.5211C91.0911 21.5057 91.1812 21.4876 91.2739 21.467V22.0618C91.1709 22.0824 91.0705 22.0953 90.9726 22.1004C90.8748 22.1107 90.7821 22.1159 90.6946 22.1159C90.2826 22.1159 89.9788 22.018 89.7831 21.8223C89.5874 21.6215 89.4896 21.3177 89.4896 20.9109V19.3738H88.609ZM92.4583 18.3079C92.3193 18.3079 92.1983 18.2589 92.0953 18.1611C91.9974 18.0633 91.9485 17.9423 91.9485 17.7981C91.9485 17.6539 91.9974 17.5329 92.0953 17.435C92.1983 17.3372 92.3193 17.2883 92.4583 17.2883C92.5973 17.2883 92.7158 17.3372 92.8136 17.435C92.9166 17.5329 92.9681 17.6539 92.9681 17.7981C92.9681 17.9423 92.9166 18.0633 92.8136 18.1611C92.7158 18.2589 92.5973 18.3079 92.4583 18.3079ZM92.1493 22V18.8331H92.7673V22H92.1493ZM95.3353 22.1159C95.083 22.1159 94.8539 22.0747 94.6479 21.9923C94.447 21.9047 94.2771 21.7863 94.1381 21.637C93.999 21.4825 93.8909 21.3023 93.8137 21.0963C93.7364 20.8851 93.6978 20.6586 93.6978 20.4166C93.6978 20.1642 93.739 19.9351 93.8214 19.7291C93.9038 19.518 94.0171 19.3377 94.1613 19.1884C94.3106 19.0391 94.4831 18.9232 94.6788 18.8408C94.8796 18.7584 95.0959 18.7172 95.3276 18.7172C95.7807 18.7172 96.1541 18.8666 96.4476 19.1652C96.7463 19.4588 96.8956 19.8501 96.8956 20.3393C96.8956 20.3805 96.893 20.4217 96.8879 20.4629C96.8879 20.5041 96.8853 20.5427 96.8802 20.5788H94.3389C94.3647 20.8826 94.4651 21.1246 94.6402 21.3048C94.8152 21.4851 95.047 21.5752 95.3353 21.5752C95.5516 21.5752 95.737 21.5263 95.8915 21.4284C96.0511 21.3306 96.1541 21.2018 96.2004 21.0422H96.8338C96.7411 21.3666 96.5635 21.6267 96.3008 21.8223C96.0434 22.018 95.7215 22.1159 95.3353 22.1159ZM95.3276 19.2579C95.0753 19.2579 94.8642 19.3274 94.6942 19.4665C94.5243 19.6004 94.4136 19.8038 94.3621 20.0767H96.2545C96.2339 19.8141 96.1386 19.6132 95.9687 19.4742C95.7988 19.33 95.5851 19.2579 95.3276 19.2579ZM100.239 19.7754H99.6134C99.6083 19.6004 99.5439 19.4665 99.4203 19.3738C99.2967 19.276 99.1242 19.227 98.9028 19.227C98.7123 19.227 98.5603 19.2605 98.4471 19.3274C98.3338 19.3944 98.2771 19.4871 98.2771 19.6055C98.2771 19.7188 98.3235 19.8089 98.4162 19.8759C98.514 19.9428 98.635 19.9943 98.7792 20.0303L99.5516 20.2157C99.7679 20.2672 99.9533 20.3573 100.108 20.4861C100.267 20.6097 100.347 20.8002 100.347 21.0577C100.347 21.3512 100.229 21.6009 99.9919 21.8069C99.755 22.0129 99.428 22.1159 99.0109 22.1159C98.6093 22.1159 98.2694 22.0103 97.9913 21.7992C97.7133 21.588 97.5717 21.3126 97.5665 20.9727H98.1922C98.2128 21.189 98.3003 21.3486 98.4548 21.4516C98.6093 21.5546 98.8024 21.6061 99.0341 21.6061C99.2555 21.6061 99.4229 21.5623 99.5362 21.4748C99.6494 21.3872 99.7061 21.2817 99.7061 21.1581C99.7061 21.0448 99.6597 20.9572 99.5671 20.8954C99.4744 20.8285 99.3559 20.777 99.2117 20.741L98.5475 20.5788C98.326 20.5273 98.1252 20.432 97.945 20.293C97.7648 20.1488 97.6746 19.9377 97.6746 19.6596C97.6746 19.3764 97.7828 19.1498 97.9991 18.9799C98.2205 18.8048 98.5243 18.7172 98.9105 18.7172C99.307 18.7172 99.6237 18.8099 99.8606 18.9953C100.097 19.1755 100.224 19.4356 100.239 19.7754ZM101.579 22.0772C101.44 22.0772 101.319 22.0283 101.216 21.9305C101.118 21.8326 101.069 21.7116 101.069 21.5674C101.069 21.4233 101.118 21.3023 101.216 21.2044C101.319 21.1066 101.44 21.0577 101.579 21.0577C101.718 21.0577 101.836 21.1066 101.934 21.2044C102.037 21.3023 102.089 21.4233 102.089 21.5674C102.089 21.7116 102.037 21.8326 101.934 21.9305C101.836 22.0283 101.718 22.0772 101.579 22.0772Z" fill="#1D7BBF"/>
<path d="M2.70586 31.148H5.98186V31.416H2.70586V31.148ZM3.00986 29.86H3.96586V30.132H3.00986V29.86ZM3.85786 29.86H4.18186V29.996C4.18186 30.1107 4.17519 30.2773 4.16186 30.496C4.14853 30.7147 4.10053 30.976 4.01786 31.28L3.68986 31.22C3.74586 31.0227 3.78586 30.8467 3.80986 30.692C3.83386 30.5347 3.84719 30.3987 3.84986 30.284C3.85519 30.1667 3.85786 30.0707 3.85786 29.996V29.86ZM4.42586 29.86H5.40186V30.132H4.42586V29.86ZM5.25786 29.86H5.58186V30.016C5.58186 30.1413 5.57519 30.3107 5.56186 30.524C5.55119 30.7373 5.50719 30.9933 5.42986 31.292L5.10986 31.236C5.16053 31.0413 5.19519 30.868 5.21386 30.716C5.23519 30.5613 5.24719 30.4267 5.24986 30.312C5.25519 30.1947 5.25786 30.096 5.25786 30.016V29.86ZM4.13386 31.92H5.76186V32.172H4.13386V31.92ZM4.95786 32.324C5.08053 32.324 5.18986 32.344 5.28586 32.384C5.38186 32.424 5.45653 32.4813 5.50986 32.556C5.56319 32.628 5.58986 32.7147 5.58986 32.816C5.58986 32.968 5.52986 33.088 5.40986 33.176C5.29253 33.264 5.14186 33.308 4.95786 33.308C4.77386 33.308 4.62186 33.264 4.50186 33.176C4.38186 33.088 4.32186 32.968 4.32186 32.816C4.32186 32.664 4.38186 32.544 4.50186 32.456C4.62186 32.368 4.77386 32.324 4.95786 32.324ZM4.95786 32.56C4.85386 32.56 4.76986 32.5827 4.70586 32.628C4.64186 32.6733 4.60986 32.736 4.60986 32.816C4.60986 32.896 4.64186 32.9587 4.70586 33.004C4.76986 33.0493 4.85386 33.072 4.95786 33.072C5.06186 33.072 5.14586 33.0493 5.20986 33.004C5.27386 32.9587 5.30586 32.896 5.30586 32.816C5.30586 32.736 5.27386 32.6733 5.20986 32.628C5.14586 32.5827 5.06186 32.56 4.95786 32.56ZM4.79386 31.608H5.11786V32.104H4.79386V31.608ZM3.08986 32.944H3.26586C3.34053 32.944 3.42586 32.9413 3.52186 32.936C3.61786 32.9307 3.72186 32.92 3.83386 32.904C3.94586 32.8853 4.05919 32.8613 4.17386 32.832L4.21786 33.104C4.02853 33.152 3.85253 33.1827 3.68986 33.196C3.52986 33.2093 3.38853 33.216 3.26586 33.216H3.08986V32.944ZM3.08986 31.884H3.41386V33.044H3.08986V31.884ZM7.34955 29.972C7.52555 29.972 7.68155 30.024 7.81755 30.128C7.95355 30.2293 8.05888 30.3747 8.13355 30.564C8.21088 30.7533 8.24955 30.976 8.24955 31.232C8.24955 31.488 8.21088 31.7107 8.13355 31.9C8.05888 32.0893 7.95355 32.236 7.81755 32.34C7.68155 32.444 7.52555 32.496 7.34955 32.496C7.17621 32.496 7.02021 32.444 6.88155 32.34C6.74555 32.236 6.63888 32.0893 6.56155 31.9C6.48688 31.7107 6.44955 31.488 6.44955 31.232C6.44955 30.976 6.48688 30.7533 6.56155 30.564C6.63888 30.3747 6.74555 30.2293 6.88155 30.128C7.02021 30.024 7.17621 29.972 7.34955 29.972ZM7.34955 30.268C7.23488 30.268 7.13355 30.308 7.04555 30.388C6.95755 30.4653 6.88821 30.5773 6.83755 30.724C6.78955 30.868 6.76555 31.0373 6.76555 31.232C6.76555 31.4267 6.78955 31.5973 6.83755 31.744C6.88821 31.888 6.95755 32 7.04555 32.08C7.13355 32.16 7.23488 32.2 7.34955 32.2C7.46688 32.2 7.56955 32.16 7.65755 32.08C7.74555 32 7.81355 31.888 7.86155 31.744C7.91221 31.5973 7.93755 31.4267 7.93755 31.232C7.93755 31.0373 7.91221 30.868 7.86155 30.724C7.81355 30.5773 7.74555 30.4653 7.65755 30.388C7.56955 30.308 7.46688 30.268 7.34955 30.268ZM9.03355 29.692H9.36155V33.316H9.03355V29.692ZM8.14155 31.072H9.18155V31.34H8.14155V31.072ZM11.0292 30.088H11.3052V30.46C11.3052 30.6813 11.2626 30.8867 11.1772 31.076C11.0919 31.2653 10.9719 31.432 10.8172 31.576C10.6652 31.7173 10.4879 31.824 10.2852 31.896L10.1132 31.636C10.2946 31.5693 10.4532 31.4773 10.5892 31.36C10.7279 31.2427 10.8359 31.1067 10.9132 30.952C10.9906 30.7947 11.0292 30.6307 11.0292 30.46V30.088ZM11.0932 30.088H11.3652V30.46C11.3652 30.5827 11.3866 30.7013 11.4292 30.816C11.4746 30.928 11.5386 31.0333 11.6212 31.132C11.7039 31.228 11.7999 31.3133 11.9092 31.388C12.0212 31.4627 12.1439 31.5213 12.2772 31.564L12.1092 31.824C11.9092 31.7547 11.7332 31.6533 11.5812 31.52C11.4292 31.3867 11.3092 31.2293 11.2212 31.048C11.1359 30.8667 11.0932 30.6707 11.0932 30.46V30.088ZM10.2012 29.992H12.1812V30.264H10.2012V29.992ZM12.6972 29.696H13.0292V32.344H12.6972V29.696ZM10.7052 32.96H13.1412V33.232H10.7052V32.96ZM10.7052 32.096H11.0372V33.08H10.7052V32.096ZM14.7995 30.248H17.7395V30.52H14.7995V30.248ZM14.6395 32.6H17.9195V32.872H14.6395V32.6ZM16.2715 30.756C16.5141 30.756 16.7235 30.784 16.8995 30.84C17.0755 30.896 17.2115 30.9773 17.3075 31.084C17.4061 31.1907 17.4555 31.3187 17.4555 31.468C17.4555 31.6173 17.4061 31.7453 17.3075 31.852C17.2115 31.9587 17.0755 32.0413 16.8995 32.1C16.7235 32.156 16.5141 32.184 16.2715 32.184C16.0288 32.184 15.8181 32.156 15.6395 32.1C15.4635 32.0413 15.3275 31.9587 15.2315 31.852C15.1355 31.7453 15.0875 31.6173 15.0875 31.468C15.0875 31.3187 15.1355 31.1907 15.2315 31.084C15.3275 30.9773 15.4635 30.896 15.6395 30.84C15.8181 30.784 16.0288 30.756 16.2715 30.756ZM16.2715 31.024C16.0955 31.024 15.9435 31.0427 15.8155 31.08C15.6901 31.1147 15.5928 31.1653 15.5235 31.232C15.4541 31.296 15.4195 31.3747 15.4195 31.468C15.4195 31.5613 15.4541 31.6413 15.5235 31.708C15.5928 31.7747 15.6901 31.8267 15.8155 31.864C15.9435 31.8987 16.0955 31.916 16.2715 31.916C16.4448 31.916 16.5941 31.8987 16.7195 31.864C16.8475 31.8267 16.9461 31.7747 17.0155 31.708C17.0848 31.6413 17.1195 31.5613 17.1195 31.468C17.1195 31.3747 17.0848 31.296 17.0155 31.232C16.9461 31.1653 16.8475 31.1147 16.7195 31.08C16.5941 31.0427 16.4448 31.024 16.2715 31.024ZM16.1075 29.76H16.4355V30.4H16.1075V29.76ZM18.3151 31.56H21.5951V31.828H18.3151V31.56ZM18.7311 29.78H21.1751V30.64H19.0671V31.116H18.7391V30.392H20.8471V30.044H18.7311V29.78ZM18.7391 30.992H21.2511V31.252H18.7391V30.992ZM18.7591 32.156H21.1791V33.264H18.7591V32.156ZM20.8511 32.424H19.0831V32.992H20.8511V32.424ZM21.9988 31.596H25.2668V31.864H21.9988V31.596ZM22.4188 32.96H24.9028V33.232H22.4188V32.96ZM22.4188 32.184H22.7508V33.04H22.4188V32.184ZM23.6308 29.816C23.8895 29.816 24.1135 29.8453 24.3028 29.904C24.4948 29.96 24.6428 30.0427 24.7468 30.152C24.8508 30.2587 24.9028 30.3867 24.9028 30.536C24.9028 30.6853 24.8508 30.8147 24.7468 30.924C24.6428 31.0333 24.4948 31.1173 24.3028 31.176C24.1135 31.232 23.8895 31.26 23.6308 31.26C23.3722 31.26 23.1468 31.232 22.9548 31.176C22.7655 31.1173 22.6188 31.0333 22.5148 30.924C22.4108 30.8147 22.3588 30.6853 22.3588 30.536C22.3588 30.3867 22.4108 30.2587 22.5148 30.152C22.6188 30.0427 22.7655 29.96 22.9548 29.904C23.1468 29.8453 23.3722 29.816 23.6308 29.816ZM23.6308 30.084C23.4442 30.084 23.2802 30.1027 23.1388 30.14C23.0002 30.1747 22.8922 30.2267 22.8148 30.296C22.7375 30.3627 22.6988 30.4427 22.6988 30.536C22.6988 30.6293 22.7375 30.7107 22.8148 30.78C22.8922 30.8467 23.0002 30.8987 23.1388 30.936C23.2802 30.9707 23.4442 30.988 23.6308 30.988C23.8228 30.988 23.9882 30.9707 24.1268 30.936C24.2655 30.8987 24.3722 30.8467 24.4468 30.78C24.5242 30.7107 24.5628 30.6293 24.5628 30.536C24.5628 30.4427 24.5242 30.3627 24.4468 30.296C24.3722 30.2267 24.2655 30.1747 24.1268 30.14C23.9882 30.1027 23.8228 30.084 23.6308 30.084ZM29.021 29.692H29.353V33.316H29.021V29.692ZM29.277 31.12H29.945V31.396H29.277V31.12ZM26.729 32.132H27.013C27.2344 32.132 27.437 32.1293 27.621 32.124C27.8077 32.116 27.9864 32.1027 28.157 32.084C28.3304 32.0653 28.5064 32.04 28.685 32.008L28.725 32.292C28.5384 32.324 28.357 32.3493 28.181 32.368C28.0077 32.3867 27.8264 32.3987 27.637 32.404C27.4477 32.4093 27.2397 32.412 27.013 32.412H26.729V32.132ZM26.729 30.044H28.405V30.316H27.057V32.26H26.729V30.044ZM31.2047 30.004H31.4807V30.652C31.4807 30.86 31.4541 31.0627 31.4007 31.26C31.3501 31.4547 31.2767 31.6373 31.1807 31.808C31.0874 31.976 30.9767 32.1253 30.8487 32.256C30.7234 32.384 30.5861 32.4853 30.4367 32.56L30.2327 32.284C30.3687 32.2227 30.4954 32.1347 30.6127 32.02C30.7301 31.9053 30.8327 31.776 30.9207 31.632C31.0087 31.4853 31.0781 31.328 31.1287 31.16C31.1794 30.992 31.2047 30.8227 31.2047 30.652V30.004ZM31.2607 30.004H31.5367V30.652C31.5367 30.8173 31.5607 30.98 31.6087 31.14C31.6594 31.3 31.7287 31.452 31.8167 31.596C31.9074 31.7373 32.0101 31.8627 32.1247 31.972C32.2421 32.0787 32.3674 32.1627 32.5007 32.224L32.3007 32.488C32.1541 32.4187 32.0181 32.3213 31.8927 32.196C31.7674 32.0707 31.6567 31.9267 31.5607 31.764C31.4674 31.6013 31.3941 31.4253 31.3407 31.236C31.2874 31.0467 31.2607 30.852 31.2607 30.652V30.004ZM32.8807 29.692H33.2127V33.316H32.8807V29.692ZM37.455 29.692H37.787V33.316H37.455V29.692ZM35.879 29.972C36.0576 29.972 36.215 30.024 36.351 30.128C36.4896 30.2293 36.5976 30.3747 36.675 30.564C36.755 30.7533 36.795 30.976 36.795 31.232C36.795 31.488 36.755 31.7107 36.675 31.9C36.5976 32.0893 36.4896 32.236 36.351 32.34C36.215 32.444 36.0576 32.496 35.879 32.496C35.7003 32.496 35.5416 32.444 35.403 32.34C35.2643 32.236 35.155 32.0893 35.075 31.9C34.9976 31.7107 34.959 31.488 34.959 31.232C34.959 30.976 34.9976 30.7533 35.075 30.564C35.155 30.3747 35.2643 30.2293 35.403 30.128C35.5416 30.024 35.7003 29.972 35.879 29.972ZM35.879 30.268C35.759 30.268 35.6536 30.308 35.563 30.388C35.475 30.4653 35.4056 30.5773 35.355 30.724C35.3043 30.868 35.279 31.0373 35.279 31.232C35.279 31.4267 35.3043 31.5973 35.355 31.744C35.4056 31.888 35.475 32 35.563 32.08C35.6536 32.16 35.759 32.2 35.879 32.2C35.9963 32.2 36.099 32.16 36.187 32.08C36.2776 32 36.3483 31.888 36.399 31.744C36.4496 31.5973 36.475 31.4267 36.475 31.232C36.475 31.0373 36.4496 30.868 36.399 30.724C36.3483 30.5773 36.2776 30.4653 36.187 30.388C36.099 30.308 35.9963 30.268 35.879 30.268ZM39.4706 29.972C39.6466 29.972 39.8026 30.024 39.9386 30.128C40.0746 30.2293 40.18 30.3747 40.2546 30.564C40.332 30.7533 40.3706 30.976 40.3706 31.232C40.3706 31.488 40.332 31.7107 40.2546 31.9C40.18 32.0893 40.0746 32.236 39.9386 32.34C39.8026 32.444 39.6466 32.496 39.4706 32.496C39.2973 32.496 39.1413 32.444 39.0026 32.34C38.8666 32.236 38.76 32.0893 38.6826 31.9C38.608 31.7107 38.5706 31.488 38.5706 31.232C38.5706 30.976 38.608 30.7533 38.6826 30.564C38.76 30.3747 38.8666 30.2293 39.0026 30.128C39.1413 30.024 39.2973 29.972 39.4706 29.972ZM39.4706 30.268C39.356 30.268 39.2546 30.308 39.1666 30.388C39.0786 30.4653 39.0093 30.5773 38.9586 30.724C38.9106 30.868 38.8866 31.0373 38.8866 31.232C38.8866 31.4267 38.9106 31.5973 38.9586 31.744C39.0093 31.888 39.0786 32 39.1666 32.08C39.2546 32.16 39.356 32.2 39.4706 32.2C39.588 32.2 39.6906 32.16 39.7786 32.08C39.8666 32 39.9346 31.888 39.9826 31.744C40.0333 31.5973 40.0586 31.4267 40.0586 31.232C40.0586 31.0373 40.0333 30.868 39.9826 30.724C39.9346 30.5773 39.8666 30.4653 39.7786 30.388C39.6906 30.308 39.588 30.268 39.4706 30.268ZM41.1546 29.692H41.4826V33.316H41.1546V29.692ZM40.2626 31.072H41.3026V31.34H40.2626V31.072ZM43.1423 30.212H43.4143V30.796C43.4143 30.988 43.3877 31.1773 43.3343 31.364C43.281 31.548 43.2063 31.7227 43.1103 31.888C43.017 32.0507 42.9077 32.1947 42.7823 32.32C42.657 32.4453 42.5223 32.544 42.3783 32.616L42.1863 32.352C42.317 32.288 42.4397 32.2013 42.5543 32.092C42.6717 31.9827 42.7743 31.8573 42.8623 31.716C42.9503 31.5747 43.0183 31.4253 43.0663 31.268C43.117 31.1107 43.1423 30.9533 43.1423 30.796V30.212ZM43.2103 30.212H43.4783V30.796C43.4783 30.948 43.5023 31.1 43.5503 31.252C43.601 31.4013 43.6703 31.5427 43.7583 31.676C43.849 31.8067 43.9517 31.9227 44.0663 32.024C44.1837 32.1253 44.309 32.2053 44.4423 32.264L44.2583 32.528C44.1117 32.4587 43.9743 32.3653 43.8463 32.248C43.7183 32.1307 43.6063 31.996 43.5103 31.844C43.417 31.6893 43.3437 31.524 43.2903 31.348C43.237 31.1693 43.2103 30.9853 43.2103 30.796V30.212ZM42.3023 30.064H44.3223V30.34H42.3023V30.064ZM44.8143 29.692H45.1463V33.312H44.8143V29.692ZM46.214 30.056H48.542V30.328H46.214V30.056ZM45.866 32.528H49.134V32.804H45.866V32.528ZM47.138 31.236H47.466V32.668H47.138V31.236ZM48.414 30.056H48.746V30.412C48.746 30.5613 48.7433 30.7187 48.738 30.884C48.7353 31.0493 48.7247 31.2307 48.706 31.428C48.69 31.6253 48.6593 31.8453 48.614 32.088L48.278 32.048C48.3473 31.7013 48.3873 31.3973 48.398 31.136C48.4087 30.872 48.414 30.6307 48.414 30.412V30.056ZM49.6457 33.76L49.5577 33.544C49.683 33.488 49.7817 33.412 49.8537 33.316C49.9257 33.22 49.9604 33.1107 49.9577 32.988L49.9177 32.66L50.0977 32.928C50.071 32.9573 50.0417 32.9787 50.0097 32.992C49.9804 33.0027 49.9484 33.008 49.9137 33.008C49.8417 33.008 49.779 32.9853 49.7257 32.94C49.6724 32.8947 49.6457 32.832 49.6457 32.752C49.6457 32.672 49.6724 32.6093 49.7257 32.564C49.7817 32.5187 49.847 32.496 49.9217 32.496C50.0177 32.496 50.0924 32.5347 50.1457 32.612C50.2017 32.6867 50.2297 32.7907 50.2297 32.924C50.2297 33.116 50.1764 33.284 50.0697 33.428C49.9657 33.572 49.8244 33.6827 49.6457 33.76ZM54.0295 29.696H54.3615V31.74H54.0295V29.696ZM54.2735 30.524H54.8975V30.8H54.2735V30.524ZM52.0815 31.936H54.3615V33.26H52.0815V31.936ZM54.0375 32.2H52.4055V32.992H54.0375V32.2ZM51.7255 29.876H52.0575V31.324H51.7255V29.876ZM51.7255 31.188H52.0135C52.2748 31.188 52.5415 31.1773 52.8135 31.156C53.0855 31.132 53.3682 31.0893 53.6615 31.028L53.7015 31.304C53.3975 31.3653 53.1068 31.408 52.8295 31.432C52.5548 31.4533 52.2828 31.464 52.0135 31.464H51.7255V31.188ZM56.7292 30.084H57.0532C57.0532 30.34 57.0225 30.5893 56.9612 30.832C56.9025 31.072 56.8079 31.3013 56.6772 31.52C56.5492 31.7387 56.3799 31.9413 56.1692 32.128C55.9612 32.3147 55.7079 32.4813 55.4092 32.628L55.2332 32.364C55.5772 32.1933 55.8585 31.996 56.0772 31.772C56.2985 31.548 56.4625 31.2987 56.5692 31.024C56.6759 30.7493 56.7292 30.4533 56.7292 30.136V30.084ZM55.3892 30.084H56.8932V30.352H55.3892V30.084ZM57.8772 29.688H58.2052V33.308H57.8772V29.688ZM56.9172 30.684H57.9412V30.952H56.9172V30.684ZM56.8772 31.652H57.9052V31.924H56.8772V31.652ZM59.8769 30.088H60.1529V30.46C60.1529 30.6813 60.1102 30.8867 60.0249 31.076C59.9396 31.2653 59.8196 31.432 59.6649 31.576C59.5129 31.7173 59.3356 31.824 59.1329 31.896L58.9609 31.636C59.1422 31.5693 59.3009 31.4773 59.4369 31.36C59.5756 31.2427 59.6836 31.1067 59.7609 30.952C59.8382 30.7947 59.8769 30.6307 59.8769 30.46V30.088ZM59.9409 30.088H60.2129V30.46C60.2129 30.5827 60.2342 30.7013 60.2769 30.816C60.3222 30.928 60.3862 31.0333 60.4689 31.132C60.5516 31.228 60.6476 31.3133 60.7569 31.388C60.8689 31.4627 60.9916 31.5213 61.1249 31.564L60.9569 31.824C60.7569 31.7547 60.5809 31.6533 60.4289 31.52C60.2769 31.3867 60.1569 31.2293 60.0689 31.048C59.9836 30.8667 59.9409 30.6707 59.9409 30.46V30.088ZM59.0489 29.992H61.0289V30.264H59.0489V29.992ZM61.5449 29.696H61.8769V32.344H61.5449V29.696ZM59.5529 32.96H61.9889V33.232H59.5529V32.96ZM59.5529 32.096H59.8849V33.08H59.5529V32.096ZM63.4871 31.48H66.7551V31.748H63.4871V31.48ZM64.9511 31.992H65.2391V32.104C65.2391 32.2667 65.2018 32.4147 65.1271 32.548C65.0551 32.6787 64.9551 32.7947 64.8271 32.896C64.7018 32.9973 64.5564 33.0813 64.3911 33.148C64.2258 33.2173 64.0511 33.2667 63.8671 33.296L63.7391 33.036C63.9044 33.012 64.0591 32.9733 64.2031 32.92C64.3498 32.864 64.4791 32.796 64.5911 32.716C64.7031 32.6333 64.7911 32.5413 64.8551 32.44C64.9191 32.336 64.9511 32.224 64.9511 32.104V31.992ZM65.0031 31.992H65.2871V32.104C65.2871 32.224 65.3191 32.336 65.3831 32.44C65.4471 32.5413 65.5351 32.6333 65.6471 32.716C65.7591 32.796 65.8884 32.864 66.0351 32.92C66.1818 32.9733 66.3378 33.012 66.5031 33.036L66.3711 33.296C66.1871 33.2667 66.0124 33.2173 65.8471 33.148C65.6818 33.0813 65.5364 32.9973 65.4111 32.896C65.2858 32.7947 65.1858 32.6787 65.1111 32.548C65.0391 32.4147 65.0031 32.2667 65.0031 32.104V31.992ZM64.9551 31.028H65.2791V31.596H64.9551V31.028ZM65.1191 29.768C65.3804 29.768 65.6058 29.7947 65.7951 29.848C65.9871 29.9013 66.1338 29.98 66.2351 30.084C66.3391 30.1853 66.3911 30.308 66.3911 30.452C66.3911 30.5933 66.3391 30.716 66.2351 30.82C66.1338 30.9213 65.9871 30.9987 65.7951 31.052C65.6058 31.1053 65.3804 31.132 65.1191 31.132C64.8604 31.132 64.6351 31.1053 64.4431 31.052C64.2538 30.9987 64.1071 30.9213 64.0031 30.82C63.8991 30.716 63.8471 30.5933 63.8471 30.452C63.8471 30.308 63.8991 30.1853 64.0031 30.084C64.1071 29.98 64.2538 29.9013 64.4431 29.848C64.6351 29.7947 64.8604 29.768 65.1191 29.768ZM65.1191 30.028C64.9298 30.028 64.7644 30.0453 64.6231 30.08C64.4844 30.112 64.3764 30.16 64.2991 30.224C64.2244 30.2853 64.1871 30.3613 64.1871 30.452C64.1871 30.5373 64.2244 30.612 64.2991 30.676C64.3764 30.7373 64.4844 30.7853 64.6231 30.82C64.7644 30.852 64.9298 30.868 65.1191 30.868C65.3111 30.868 65.4764 30.852 65.6151 30.82C65.7564 30.7853 65.8644 30.7373 65.9391 30.676C66.0138 30.612 66.0511 30.5373 66.0511 30.452C66.0511 30.3613 66.0138 30.2853 65.9391 30.224C65.8644 30.16 65.7564 30.112 65.6151 30.08C65.4764 30.0453 65.3111 30.028 65.1191 30.028ZM67.1668 31.596H70.4348V31.864H67.1668V31.596ZM67.5868 32.96H70.0708V33.232H67.5868V32.96ZM67.5868 32.184H67.9188V33.04H67.5868V32.184ZM68.7988 29.816C69.0575 29.816 69.2815 29.8453 69.4708 29.904C69.6628 29.96 69.8108 30.0427 69.9148 30.152C70.0188 30.2587 70.0708 30.3867 70.0708 30.536C70.0708 30.6853 70.0188 30.8147 69.9148 30.924C69.8108 31.0333 69.6628 31.1173 69.4708 31.176C69.2815 31.232 69.0575 31.26 68.7988 31.26C68.5401 31.26 68.3148 31.232 68.1228 31.176C67.9335 31.1173 67.7868 31.0333 67.6828 30.924C67.5788 30.8147 67.5268 30.6853 67.5268 30.536C67.5268 30.3867 67.5788 30.2587 67.6828 30.152C67.7868 30.0427 67.9335 29.96 68.1228 29.904C68.3148 29.8453 68.5401 29.816 68.7988 29.816ZM68.7988 30.084C68.6121 30.084 68.4481 30.1027 68.3068 30.14C68.1681 30.1747 68.0601 30.2267 67.9828 30.296C67.9055 30.3627 67.8668 30.4427 67.8668 30.536C67.8668 30.6293 67.9055 30.7107 67.9828 30.78C68.0601 30.8467 68.1681 30.8987 68.3068 30.936C68.4481 30.9707 68.6121 30.988 68.7988 30.988C68.9908 30.988 69.1561 30.9707 69.2948 30.936C69.4335 30.8987 69.5401 30.8467 69.6148 30.78C69.6921 30.7107 69.7308 30.6293 69.7308 30.536C69.7308 30.4427 69.6921 30.3627 69.6148 30.296C69.5401 30.2267 69.4335 30.1747 69.2948 30.14C69.1561 30.1027 68.9908 30.084 68.7988 30.084ZM73.465 31.364H74.765V31.636H73.465V31.364ZM71.741 32.572H75.021V32.852H71.741V32.572ZM73.205 31.816H73.533V32.704H73.205V31.816ZM73.465 30.028H74.729V30.304H73.797V31.508H73.465V30.028ZM72.021 30.036H73.245V30.308H72.353V31.496H72.021V30.036ZM72.021 31.36H72.225C72.3423 31.36 72.457 31.3573 72.569 31.352C72.6837 31.3467 72.7997 31.3373 72.917 31.324C73.0343 31.308 73.1543 31.2867 73.277 31.26L73.309 31.536C73.1783 31.5653 73.053 31.588 72.933 31.604C72.813 31.6173 72.6957 31.6267 72.581 31.632C72.4663 31.6347 72.3477 31.636 72.225 31.636H72.021V31.36ZM78.7632 29.692H79.0952V33.316H78.7632V29.692ZM79.0192 31.12H79.6872V31.396H79.0192V31.12ZM76.4712 32.132H76.7552C76.9766 32.132 77.1792 32.1293 77.3632 32.124C77.5499 32.116 77.7286 32.1027 77.8992 32.084C78.0726 32.0653 78.2486 32.04 78.4272 32.008L78.4672 32.292C78.2806 32.324 78.0992 32.3493 77.9232 32.368C77.7499 32.3867 77.5686 32.3987 77.3792 32.404C77.1899 32.4093 76.9819 32.412 76.7552 32.412H76.4712V32.132ZM76.4712 30.044H78.1472V30.316H76.7992V32.26H76.4712V30.044ZM79.9909 31.696H83.2709V31.968H79.9909V31.696ZM80.4229 32.96H82.9309V33.232H80.4229V32.96ZM80.4229 32.252H80.7549V33.06H80.4229V32.252ZM80.4069 29.812H82.8509V30.712H80.7429V31.196H80.4149V30.464H82.5229V30.076H80.4069V29.812ZM80.4149 31.108H82.9269V31.368H80.4149V31.108ZM86.4251 30.544H87.3331V30.82H86.4251V30.544ZM85.4771 29.912H85.7451V30.356C85.7451 30.588 85.7038 30.8053 85.6211 31.008C85.5385 31.2107 85.4225 31.388 85.2731 31.54C85.1238 31.6893 84.9491 31.804 84.7491 31.884L84.5731 31.62C84.7091 31.5693 84.8318 31.5013 84.9411 31.416C85.0531 31.3307 85.1478 31.232 85.2251 31.12C85.3051 31.008 85.3665 30.888 85.4091 30.76C85.4545 30.6293 85.4771 30.4947 85.4771 30.356V29.912ZM85.5371 29.912H85.8051V30.368C85.8051 30.4933 85.8265 30.616 85.8691 30.736C85.9118 30.856 85.9718 30.968 86.0491 31.072C86.1265 31.176 86.2185 31.268 86.3251 31.348C86.4345 31.428 86.5545 31.492 86.6851 31.54L86.5051 31.8C86.3131 31.7227 86.1438 31.6133 85.9971 31.472C85.8531 31.3307 85.7398 31.1653 85.6571 30.976C85.5771 30.7867 85.5371 30.584 85.5371 30.368V29.912ZM87.2131 29.696H87.5451V32.4H87.2131V29.696ZM85.2211 32.96H87.6291V33.232H85.2211V32.96ZM85.2211 32.1H85.5531V33.084H85.2211V32.1ZM88.4048 31.424H88.6328C88.8248 31.424 88.9928 31.4227 89.1368 31.42C89.2835 31.4147 89.4208 31.4053 89.5488 31.392C89.6768 31.376 89.8075 31.3547 89.9408 31.328L89.9768 31.6C89.8382 31.6267 89.7022 31.648 89.5688 31.664C89.4382 31.6773 89.2982 31.6867 89.1488 31.692C88.9995 31.6973 88.8275 31.7 88.6328 31.7H88.4048V31.424ZM88.4048 29.956H89.8008V30.228H88.7248V31.572H88.4048V29.956ZM88.6248 30.676H89.7608V30.936H88.6248V30.676ZM90.9808 29.696H91.2968V31.888H90.9808V29.696ZM90.3968 30.636H91.0768V30.908H90.3968V30.636ZM90.1808 29.764H90.4928V31.864H90.1808V29.764ZM88.8728 32.076H91.2968V33.312H90.9688V32.348H88.8728V32.076ZM92.8845 30.212H93.1565V30.796C93.1565 30.988 93.1298 31.1773 93.0765 31.364C93.0232 31.548 92.9485 31.7227 92.8525 31.888C92.7592 32.0507 92.6498 32.1947 92.5245 32.32C92.3992 32.4453 92.2645 32.544 92.1205 32.616L91.9285 32.352C92.0592 32.288 92.1818 32.2013 92.2965 32.092C92.4138 31.9827 92.5165 31.8573 92.6045 31.716C92.6925 31.5747 92.7605 31.4253 92.8085 31.268C92.8592 31.1107 92.8845 30.9533 92.8845 30.796V30.212ZM92.9525 30.212H93.2205V30.796C93.2205 30.948 93.2445 31.1 93.2925 31.252C93.3432 31.4013 93.4125 31.5427 93.5005 31.676C93.5912 31.8067 93.6938 31.9227 93.8085 32.024C93.9258 32.1253 94.0512 32.2053 94.1845 32.264L94.0005 32.528C93.8538 32.4587 93.7165 32.3653 93.5885 32.248C93.4605 32.1307 93.3485 31.996 93.2525 31.844C93.1592 31.6893 93.0858 31.524 93.0325 31.348C92.9792 31.1693 92.9525 30.9853 92.9525 30.796V30.212ZM92.0445 30.064H94.0645V30.34H92.0445V30.064ZM94.5565 29.692H94.8885V33.312H94.5565V29.692ZM95.6082 32.588H98.8882V32.864H95.6082V32.588ZM97.0762 31.816H97.4042V32.704H97.0762V31.816ZM96.0082 29.96H98.4802V31.056H96.3442V31.78H96.0162V30.792H98.1522V30.232H96.0082V29.96ZM96.0162 31.64H98.5642V31.912H96.0162V31.64ZM101.854 30.26H102.942V30.532H101.854V30.26ZM101.854 31.124H102.942V31.396H101.854V31.124ZM102.826 29.696H103.158V32.368H102.826V29.696ZM100.85 32.96H103.258V33.232H100.85V32.96ZM100.85 32.092H101.178V33.076H100.85V32.092ZM101.17 29.924C101.346 29.924 101.504 29.9627 101.642 30.04C101.784 30.1173 101.894 30.224 101.974 30.36C102.057 30.496 102.098 30.652 102.098 30.828C102.098 31.0067 102.057 31.164 101.974 31.3C101.894 31.436 101.784 31.5427 101.642 31.62C101.504 31.6973 101.346 31.736 101.17 31.736C100.992 31.736 100.832 31.6973 100.69 31.62C100.552 31.5427 100.441 31.436 100.358 31.3C100.278 31.164 100.238 31.0067 100.238 30.828C100.238 30.652 100.278 30.496 100.358 30.36C100.441 30.224 100.552 30.1173 100.69 30.04C100.832 29.9627 100.992 29.924 101.17 29.924ZM101.17 30.22C101.053 30.22 100.948 30.2467 100.854 30.3C100.761 30.3507 100.688 30.4227 100.634 30.516C100.581 30.6067 100.554 30.712 100.554 30.832C100.554 30.9493 100.581 31.0547 100.634 31.148C100.688 31.2413 100.761 31.3147 100.854 31.368C100.948 31.4187 101.053 31.444 101.17 31.444C101.285 31.444 101.389 31.4187 101.482 31.368C101.576 31.3147 101.649 31.2413 101.702 31.148C101.756 31.0547 101.782 30.9493 101.782 30.832C101.782 30.712 101.756 30.6067 101.702 30.516C101.649 30.4227 101.576 30.3507 101.482 30.3C101.389 30.2467 101.285 30.22 101.17 30.22ZM106.506 29.692H106.838V31.54H106.506V29.692ZM105.362 29.872H105.722C105.722 30.1733 105.654 30.44 105.518 30.672C105.385 30.904 105.193 31.1 104.942 31.26C104.691 31.4173 104.39 31.5373 104.038 31.62L103.922 31.348C104.234 31.276 104.497 31.1773 104.71 31.052C104.923 30.924 105.085 30.7747 105.194 30.604C105.306 30.4307 105.362 30.24 105.362 30.032V29.872ZM104.106 29.872H105.51V30.144H104.106V29.872ZM105.59 30.216H106.558V30.476H105.59V30.216ZM105.558 30.908H106.538V31.168H105.558V30.908ZM104.51 31.704H106.838V32.592H104.846V33.168H104.518V32.34H106.506V31.972H104.51V31.704ZM104.518 33.008H106.958V33.276H104.518V33.008ZM108.574 30.92H108.906V31.516H108.574V30.92ZM110.174 29.696H110.506V31.776H110.174V29.696ZM107.602 31.692L107.554 31.42C107.775 31.42 108.016 31.4187 108.278 31.416C108.542 31.4107 108.811 31.4 109.086 31.384C109.363 31.3653 109.628 31.3387 109.882 31.304L109.902 31.54C109.64 31.5853 109.374 31.6187 109.102 31.64C108.83 31.6613 108.566 31.6747 108.31 31.68C108.054 31.6853 107.818 31.6893 107.602 31.692ZM107.878 30.752H109.614V31.016H107.878V30.752ZM107.878 29.872H109.582V30.144H108.21V30.852H107.878V29.872ZM108.138 31.94H108.466V32.32H110.182V31.94H110.506V33.264H108.138V31.94ZM108.466 32.576V32.992H110.182V32.576H108.466ZM113.853 29.692H114.181V33.312H113.853V29.692ZM111.449 30.048H111.777V32.288H111.449V30.048ZM111.449 32.092H111.745C112.023 32.092 112.304 32.08 112.589 32.056C112.877 32.0293 113.173 31.9853 113.477 31.924L113.521 32.204C113.207 32.2707 112.904 32.3173 112.613 32.344C112.323 32.368 112.033 32.38 111.745 32.38H111.449V32.092ZM117.349 29.692H117.681V33.316H117.349V29.692ZM117.605 31.12H118.273V31.396H117.605V31.12ZM115.057 32.132H115.341C115.563 32.132 115.765 32.1293 115.949 32.124C116.136 32.116 116.315 32.1027 116.485 32.084C116.659 32.0653 116.835 32.04 117.013 32.008L117.053 32.292C116.867 32.324 116.685 32.3493 116.509 32.368C116.336 32.3867 116.155 32.3987 115.965 32.404C115.776 32.4093 115.568 32.412 115.341 32.412H115.057V32.132ZM115.057 30.044H116.733V30.316H115.385V32.26H115.057V30.044ZM118.937 33.052C118.865 33.052 118.802 33.0267 118.749 32.976C118.698 32.9227 118.673 32.856 118.673 32.776C118.673 32.6907 118.698 32.6227 118.749 32.572C118.802 32.5213 118.865 32.496 118.937 32.496C119.009 32.496 119.07 32.5213 119.121 32.572C119.174 32.6227 119.201 32.6907 119.201 32.776C119.201 32.856 119.174 32.9227 119.121 32.976C119.07 33.0267 119.009 33.052 118.937 33.052Z" fill="#1D7BBF"/>
</svg>
