<svg width="108" height="25" viewBox="0 0 108 25" fill="none" xmlns="http://www.w3.org/2000/svg">
<path d="M0.146759 3.37379V2.8331H1.02731V1.52H1.63752V2.8331H2.81159V3.37379H1.63752V4.82593C1.63752 5.0731 1.68901 5.25333 1.792 5.36662C1.89499 5.47991 2.0572 5.53655 2.27862 5.53655C2.36616 5.53655 2.4537 5.5314 2.54124 5.5211C2.62878 5.50566 2.7189 5.48763 2.81159 5.46703V6.06179C2.7086 6.08239 2.60818 6.09526 2.51035 6.10041C2.41251 6.11071 2.31982 6.11586 2.23228 6.11586C1.82032 6.11586 1.51651 6.01802 1.32083 5.82234C1.12515 5.62152 1.02731 5.3177 1.02731 4.9109V3.37379H0.146759ZM3.68707 6V0.747586H4.305V3.536C4.41829 3.25793 4.58049 3.05195 4.79162 2.91807C5.0079 2.78418 5.23962 2.71724 5.48679 2.71724C5.83181 2.71724 6.10987 2.84083 6.321 3.088C6.53213 3.33002 6.63769 3.67503 6.63769 4.12303V6H6.01976V4.27752C6.01976 3.96855 5.96054 3.7291 5.8421 3.55917C5.72367 3.38409 5.53314 3.29655 5.27052 3.29655C4.99245 3.29655 4.76072 3.39697 4.57535 3.59779C4.39512 3.79862 4.305 4.09986 4.305 4.50152V6H3.68707ZM9.15105 6.11586C8.89873 6.11586 8.66958 6.07467 8.4636 5.99228C8.26278 5.90474 8.09285 5.7863 7.95381 5.63697C7.81478 5.48248 7.70664 5.30225 7.6294 5.09628C7.55216 4.88515 7.51354 4.65857 7.51354 4.41655C7.51354 4.16423 7.55473 3.93508 7.63712 3.7291C7.71951 3.51798 7.8328 3.33775 7.97698 3.18841C8.12632 3.03908 8.29882 2.92322 8.4945 2.84083C8.69533 2.75844 8.9116 2.71724 9.14333 2.71724C9.59648 2.71724 9.96981 2.86657 10.2633 3.16524C10.562 3.45876 10.7113 3.85011 10.7113 4.33931C10.7113 4.38051 10.7088 4.4217 10.7036 4.4629C10.7036 4.50409 10.701 4.54271 10.6959 4.57876H8.15464C8.18039 4.88257 8.2808 5.1246 8.45588 5.30483C8.63096 5.48506 8.86268 5.57517 9.15105 5.57517C9.36733 5.57517 9.55271 5.52625 9.70719 5.42841C9.86682 5.33057 9.96981 5.20184 10.0162 5.04221H10.6495C10.5568 5.36662 10.3792 5.62667 10.1166 5.82234C9.8591 6.01802 9.53726 6.11586 9.15105 6.11586ZM9.14333 3.25793C8.89101 3.25793 8.67988 3.32745 8.50995 3.46648C8.34002 3.60037 8.22931 3.80377 8.17781 4.07669H10.0702C10.0496 3.81407 9.95436 3.61324 9.78443 3.47421C9.6145 3.33002 9.4008 3.25793 9.14333 3.25793ZM12.608 3.37379V2.8331H13.4885V1.52H14.0987V2.8331H15.2728V3.37379H14.0987V4.82593C14.0987 5.0731 14.1502 5.25333 14.2532 5.36662C14.3562 5.47991 14.5184 5.53655 14.7398 5.53655C14.8274 5.53655 14.9149 5.5314 15.0024 5.5211C15.09 5.50566 15.1801 5.48763 15.2728 5.46703V6.06179C15.1698 6.08239 15.0694 6.09526 14.9716 6.10041C14.8737 6.11071 14.781 6.11586 14.6935 6.11586C14.2815 6.11586 13.9777 6.01802 13.782 5.82234C13.5864 5.62152 13.4885 5.3177 13.4885 4.9109V3.37379H12.608ZM16.4572 2.30786C16.3182 2.30786 16.1972 2.25894 16.0942 2.1611C15.9964 2.06326 15.9474 1.94225 15.9474 1.79807C15.9474 1.65388 15.9964 1.53287 16.0942 1.43503C16.1972 1.3372 16.3182 1.28828 16.4572 1.28828C16.5963 1.28828 16.7147 1.3372 16.8126 1.43503C16.9155 1.53287 16.967 1.65388 16.967 1.79807C16.967 1.94225 16.9155 2.06326 16.8126 2.1611C16.7147 2.25894 16.5963 2.30786 16.4572 2.30786ZM16.1483 6V2.8331H16.7662V6H16.1483ZM17.9284 6V2.8331H18.5464V3.52828C18.6442 3.27595 18.7884 3.0777 18.9789 2.93352C19.1746 2.78933 19.4038 2.71724 19.6664 2.71724C19.9239 2.71724 20.1453 2.78933 20.3307 2.93352C20.516 3.0777 20.6473 3.28368 20.7246 3.55145C20.8224 3.28883 20.9743 3.08542 21.1803 2.94124C21.3914 2.79191 21.6386 2.71724 21.9218 2.71724C22.2617 2.71724 22.5346 2.84083 22.7406 3.088C22.9517 3.33002 23.0573 3.67503 23.0573 4.12303V6H22.4393V4.27752C22.4393 3.96855 22.3801 3.7291 22.2617 3.55917C22.1433 3.38409 21.9527 3.29655 21.6901 3.29655C21.4326 3.29655 21.2189 3.39697 21.049 3.59779C20.8842 3.79862 20.8018 4.09986 20.8018 4.50152V6H20.1839V4.27752C20.1839 3.96855 20.1247 3.7291 20.0062 3.55917C19.8878 3.38409 19.6973 3.29655 19.4347 3.29655C19.1772 3.29655 18.9635 3.39697 18.7936 3.59779C18.6288 3.79862 18.5464 4.09986 18.5464 4.50152V6H17.9284ZM25.5648 6.11586C25.3125 6.11586 25.0834 6.07467 24.8774 5.99228C24.6766 5.90474 24.5066 5.7863 24.3676 5.63697C24.2286 5.48248 24.1204 5.30225 24.0432 5.09628C23.9659 4.88515 23.9273 4.65857 23.9273 4.41655C23.9273 4.16423 23.9685 3.93508 24.0509 3.7291C24.1333 3.51798 24.2466 3.33775 24.3908 3.18841C24.5401 3.03908 24.7126 2.92322 24.9083 2.84083C25.1091 2.75844 25.3254 2.71724 25.5571 2.71724C26.0103 2.71724 26.3836 2.86657 26.6771 3.16524C26.9758 3.45876 27.1251 3.85011 27.1251 4.33931C27.1251 4.38051 27.1225 4.4217 27.1174 4.4629C27.1174 4.50409 27.1148 4.54271 27.1097 4.57876H24.5684C24.5942 4.88257 24.6946 5.1246 24.8697 5.30483C25.0448 5.48506 25.2765 5.57517 25.5648 5.57517C25.7811 5.57517 25.9665 5.52625 26.121 5.42841C26.2806 5.33057 26.3836 5.20184 26.4299 5.04221H27.0633C26.9706 5.36662 26.793 5.62667 26.5304 5.82234C26.2729 6.01802 25.9511 6.11586 25.5648 6.11586ZM25.5571 3.25793C25.3048 3.25793 25.0937 3.32745 24.9237 3.46648C24.7538 3.60037 24.6431 3.80377 24.5916 4.07669H26.484C26.4634 3.81407 26.3682 3.61324 26.1982 3.47421C26.0283 3.33002 25.8146 3.25793 25.5571 3.25793ZM29.238 4.41655C29.238 4.14363 29.2844 3.90161 29.3771 3.69048C29.4698 3.47421 29.5882 3.29655 29.7324 3.15752C29.8766 3.01333 30.0388 2.9052 30.219 2.8331C30.3992 2.75586 30.5795 2.71724 30.7597 2.71724C30.9811 2.71724 31.1974 2.77903 31.4085 2.90262C31.6248 3.02106 31.7947 3.20129 31.9183 3.44331V2.8331H32.5362V6H31.9183V5.38979C31.7947 5.63182 31.6248 5.81462 31.4085 5.93821C31.1974 6.05664 30.9811 6.11586 30.7597 6.11586C30.5795 6.11586 30.3992 6.07724 30.219 6C30.0388 5.92791 29.8766 5.82234 29.7324 5.68331C29.5882 5.53913 29.4698 5.36147 29.3771 5.15034C29.2844 4.93407 29.238 4.68947 29.238 4.41655ZM30.8678 3.29655C30.564 3.29655 30.322 3.40469 30.1418 3.62097C29.9615 3.83724 29.8714 4.10244 29.8714 4.41655C29.8714 4.73067 29.9615 4.99586 30.1418 5.21214C30.322 5.42841 30.564 5.53655 30.8678 5.53655C31.1613 5.53655 31.4111 5.43871 31.6171 5.24303C31.8282 5.04736 31.9338 4.77186 31.9338 4.41655C31.9338 4.06124 31.8308 3.78575 31.6248 3.59007C31.4188 3.39439 31.1665 3.29655 30.8678 3.29655ZM33.6935 6V2.8331H34.3115V3.536C34.4248 3.25793 34.587 3.05195 34.7981 2.91807C35.0144 2.78418 35.2461 2.71724 35.4933 2.71724C35.8383 2.71724 36.1163 2.84083 36.3275 3.088C36.5386 3.33002 36.6442 3.67503 36.6442 4.12303V6H36.0262V4.27752C36.0262 3.96855 35.967 3.7291 35.8486 3.55917C35.7301 3.38409 35.5396 3.29655 35.277 3.29655C34.9989 3.29655 34.7672 3.39697 34.5818 3.59779C34.4016 3.79862 34.3115 4.09986 34.3115 4.50152V6H33.6935ZM37.5355 4.41655C37.5355 4.14363 37.5792 3.90161 37.6668 3.69048C37.7595 3.47421 37.8753 3.29655 38.0143 3.15752C38.1534 3.01333 38.3104 2.9052 38.4855 2.8331C38.6658 2.75586 38.8434 2.71724 39.0185 2.71724C39.2451 2.71724 39.4691 2.77903 39.6905 2.90262C39.9119 3.02106 40.087 3.20386 40.2157 3.45103V0.747586H40.8337V6H40.2157V5.38207C40.087 5.62924 39.9119 5.81462 39.6905 5.93821C39.4691 6.05664 39.2451 6.11586 39.0185 6.11586C38.8434 6.11586 38.6658 6.07724 38.4855 6C38.3104 5.92791 38.1534 5.82234 38.0143 5.68331C37.8753 5.53913 37.7595 5.36147 37.6668 5.15034C37.5792 4.93407 37.5355 4.68947 37.5355 4.41655ZM39.1652 3.29655C38.8614 3.29655 38.6194 3.40469 38.4392 3.62097C38.2589 3.83724 38.1688 4.10244 38.1688 4.41655C38.1688 4.73067 38.2589 4.99586 38.4392 5.21214C38.6194 5.42841 38.8614 5.53655 39.1652 5.53655C39.4639 5.53655 39.7162 5.43871 39.9222 5.24303C40.1282 5.04736 40.2312 4.77186 40.2312 4.41655C40.2312 4.06124 40.1256 3.78575 39.9145 3.59007C39.7085 3.39439 39.4588 3.29655 39.1652 3.29655ZM44.7847 6.11586C44.5324 6.11586 44.3032 6.07467 44.0972 5.99228C43.8964 5.90474 43.7265 5.7863 43.5874 5.63697C43.4484 5.48248 43.3403 5.30225 43.263 5.09628C43.1858 4.88515 43.1472 4.65857 43.1472 4.41655C43.1472 4.16423 43.1884 3.93508 43.2707 3.7291C43.3531 3.51798 43.4664 3.33775 43.6106 3.18841C43.7599 3.03908 43.9324 2.92322 44.1281 2.84083C44.329 2.75844 44.5452 2.71724 44.777 2.71724C45.2301 2.71724 45.6034 2.86657 45.897 3.16524C46.1956 3.45876 46.345 3.85011 46.345 4.33931C46.345 4.38051 46.3424 4.4217 46.3372 4.4629C46.3372 4.50409 46.3347 4.54271 46.3295 4.57876H43.7883C43.814 4.88257 43.9144 5.1246 44.0895 5.30483C44.2646 5.48506 44.4963 5.57517 44.7847 5.57517C45.001 5.57517 45.1863 5.52625 45.3408 5.42841C45.5004 5.33057 45.6034 5.20184 45.6498 5.04221H46.2832C46.1905 5.36662 46.0128 5.62667 45.7502 5.82234C45.4927 6.01802 45.1709 6.11586 44.7847 6.11586ZM44.777 3.25793C44.5246 3.25793 44.3135 3.32745 44.1436 3.46648C43.9736 3.60037 43.8629 3.80377 43.8114 4.07669H45.7038C45.6833 3.81407 45.588 3.61324 45.4181 3.47421C45.2481 3.33002 45.0344 3.25793 44.777 3.25793ZM47.4738 6H46.7631L47.8986 4.33931L46.8558 2.8331H47.5665L48.2771 3.85269L48.9645 2.8331H49.6751L48.6092 4.33159L49.7678 6H49.0572L48.2307 4.80276L47.4738 6ZM50.492 7.35172V2.8331H51.11V3.45103C51.2387 3.20386 51.4138 3.02106 51.6352 2.90262C51.8566 2.77903 52.0806 2.71724 52.3072 2.71724C52.4823 2.71724 52.6574 2.75586 52.8324 2.8331C53.0127 2.9052 53.1723 3.01333 53.3113 3.15752C53.4504 3.29655 53.5637 3.47421 53.6512 3.69048C53.7439 3.90161 53.7902 4.14363 53.7902 4.41655C53.7902 4.68947 53.7439 4.93407 53.6512 5.15034C53.5637 5.36147 53.4504 5.53913 53.3113 5.68331C53.1723 5.82234 53.0127 5.92791 52.8324 6C52.6574 6.07724 52.4823 6.11586 52.3072 6.11586C52.0806 6.11586 51.8566 6.05664 51.6352 5.93821C51.4138 5.81462 51.2387 5.62924 51.11 5.38207V7.35172H50.492ZM52.1604 5.53655C52.4643 5.53655 52.7063 5.42841 52.8865 5.21214C53.0667 4.99586 53.1569 4.73067 53.1569 4.41655C53.1569 4.10244 53.0667 3.83724 52.8865 3.62097C52.7063 3.40469 52.4643 3.29655 52.1604 3.29655C51.8669 3.29655 51.6146 3.39439 51.4035 3.59007C51.1975 3.78575 51.0945 4.06124 51.0945 4.41655C51.0945 4.77186 51.1975 5.04736 51.4035 5.24303C51.6095 5.43871 51.8618 5.53655 52.1604 5.53655ZM56.137 6.11586C55.8847 6.11586 55.6556 6.07467 55.4496 5.99228C55.2488 5.90474 55.0788 5.7863 54.9398 5.63697C54.8008 5.48248 54.6926 5.30225 54.6154 5.09628C54.5382 4.88515 54.4995 4.65857 54.4995 4.41655C54.4995 4.16423 54.5407 3.93508 54.6231 3.7291C54.7055 3.51798 54.8188 3.33775 54.963 3.18841C55.1123 3.03908 55.2848 2.92322 55.4805 2.84083C55.6813 2.75844 55.8976 2.71724 56.1293 2.71724C56.5825 2.71724 56.9558 2.86657 57.2493 3.16524C57.548 3.45876 57.6973 3.85011 57.6973 4.33931C57.6973 4.38051 57.6947 4.4217 57.6896 4.4629C57.6896 4.50409 57.687 4.54271 57.6819 4.57876H55.1406C55.1664 4.88257 55.2668 5.1246 55.4419 5.30483C55.617 5.48506 55.8487 5.57517 56.137 5.57517C56.3533 5.57517 56.5387 5.52625 56.6932 5.42841C56.8528 5.33057 56.9558 5.20184 57.0022 5.04221H57.6355C57.5428 5.36662 57.3652 5.62667 57.1026 5.82234C56.8451 6.01802 56.5233 6.11586 56.137 6.11586ZM56.1293 3.25793C55.877 3.25793 55.6659 3.32745 55.4959 3.46648C55.326 3.60037 55.2153 3.80377 55.1638 4.07669H57.0562C57.0356 3.81407 56.9404 3.61324 56.7704 3.47421C56.6005 3.33002 56.3868 3.25793 56.1293 3.25793ZM58.6386 6V2.8331H59.2488V3.5051C59.3621 3.24248 59.5166 3.0468 59.7122 2.91807C59.9131 2.78418 60.1396 2.71724 60.392 2.71724C60.4435 2.71724 60.4898 2.72239 60.531 2.73269C60.5722 2.73784 60.6082 2.74299 60.6391 2.74814V3.45103C60.5567 3.43559 60.4718 3.42271 60.3842 3.41241C60.3018 3.40211 60.2195 3.39697 60.1371 3.39697C59.8229 3.39697 59.5964 3.4948 59.4573 3.69048C59.3183 3.88616 59.2488 4.20543 59.2488 4.64828V6H58.6386ZM61.5197 2.30786C61.3807 2.30786 61.2597 2.25894 61.1567 2.1611C61.0589 2.06326 61.01 1.94225 61.01 1.79807C61.01 1.65388 61.0589 1.53287 61.1567 1.43503C61.2597 1.3372 61.3807 1.28828 61.5197 1.28828C61.6588 1.28828 61.7772 1.3372 61.8751 1.43503C61.978 1.53287 62.0295 1.65388 62.0295 1.79807C62.0295 1.94225 61.978 2.06326 61.8751 2.1611C61.7772 2.25894 61.6588 2.30786 61.5197 2.30786ZM61.2108 6V2.8331H61.8287V6H61.2108ZM64.3967 6.11586C64.1444 6.11586 63.9153 6.07467 63.7093 5.99228C63.5085 5.90474 63.3385 5.7863 63.1995 5.63697C63.0605 5.48248 62.9523 5.30225 62.8751 5.09628C62.7978 4.88515 62.7592 4.65857 62.7592 4.41655C62.7592 4.16423 62.8004 3.93508 62.8828 3.7291C62.9652 3.51798 63.0785 3.33775 63.2227 3.18841C63.372 3.03908 63.5445 2.92322 63.7402 2.84083C63.941 2.75844 64.1573 2.71724 64.389 2.71724C64.8422 2.71724 65.2155 2.86657 65.509 3.16524C65.8077 3.45876 65.957 3.85011 65.957 4.33931C65.957 4.38051 65.9544 4.4217 65.9493 4.4629C65.9493 4.50409 65.9467 4.54271 65.9416 4.57876H63.4003C63.4261 4.88257 63.5265 5.1246 63.7016 5.30483C63.8767 5.48506 64.1084 5.57517 64.3967 5.57517C64.613 5.57517 64.7984 5.52625 64.9529 5.42841C65.1125 5.33057 65.2155 5.20184 65.2618 5.04221H65.8952C65.8025 5.36662 65.6249 5.62667 65.3623 5.82234C65.1048 6.01802 64.783 6.11586 64.3967 6.11586ZM64.389 3.25793C64.1367 3.25793 63.9256 3.32745 63.7556 3.46648C63.5857 3.60037 63.475 3.80377 63.4235 4.07669H65.3159C65.2953 3.81407 65.2001 3.61324 65.0301 3.47421C64.8602 3.33002 64.6465 3.25793 64.389 3.25793ZM66.8983 6V2.8331H67.5162V3.536C67.6295 3.25793 67.7917 3.05195 68.0028 2.91807C68.2191 2.78418 68.4508 2.71724 68.698 2.71724C69.043 2.71724 69.3211 2.84083 69.5322 3.088C69.7433 3.33002 69.8489 3.67503 69.8489 4.12303V6H69.231V4.27752C69.231 3.96855 69.1718 3.7291 69.0533 3.55917C68.9349 3.38409 68.7443 3.29655 68.4817 3.29655C68.2037 3.29655 67.9719 3.39697 67.7866 3.59779C67.6063 3.79862 67.5162 4.09986 67.5162 4.50152V6H66.8983ZM71.3736 4.41655C71.3736 4.77701 71.4611 5.05766 71.6362 5.25848C71.8164 5.45931 72.0456 5.55972 72.3236 5.55972C72.5348 5.55972 72.7124 5.50308 72.8566 5.38979C73.0059 5.27651 73.1218 5.10915 73.2042 4.88772H73.8453C73.7526 5.27393 73.5775 5.57517 73.3201 5.79145C73.0677 6.00772 72.7485 6.11586 72.3623 6.11586C71.8885 6.11586 71.4997 5.9588 71.1959 5.64469C70.8921 5.32543 70.7402 4.91605 70.7402 4.41655C70.7402 3.92221 70.8921 3.5154 71.1959 3.19614C71.4997 2.87687 71.8885 2.71724 72.3623 2.71724C72.7536 2.71724 73.078 2.82795 73.3355 3.04938C73.5981 3.2708 73.7706 3.57977 73.853 3.97628H73.2119C73.1347 3.7497 73.0214 3.5772 72.8721 3.45876C72.7279 3.33517 72.5451 3.27338 72.3236 3.27338C72.0456 3.27338 71.8164 3.37379 71.6362 3.57462C71.4611 3.77545 71.3736 4.05609 71.3736 4.41655ZM76.1263 6.11586C75.8739 6.11586 75.6448 6.07467 75.4388 5.99228C75.238 5.90474 75.0681 5.7863 74.929 5.63697C74.79 5.48248 74.6819 5.30225 74.6046 5.09628C74.5274 4.88515 74.4888 4.65857 74.4888 4.41655C74.4888 4.16423 74.5299 3.93508 74.6123 3.7291C74.6947 3.51798 74.808 3.33775 74.9522 3.18841C75.1015 3.03908 75.274 2.92322 75.4697 2.84083C75.6705 2.75844 75.8868 2.71724 76.1185 2.71724C76.5717 2.71724 76.945 2.86657 77.2385 3.16524C77.5372 3.45876 77.6865 3.85011 77.6865 4.33931C77.6865 4.38051 77.684 4.4217 77.6788 4.4629C77.6788 4.50409 77.6762 4.54271 77.6711 4.57876H75.1299C75.1556 4.88257 75.256 5.1246 75.4311 5.30483C75.6062 5.48506 75.8379 5.57517 76.1263 5.57517C76.3425 5.57517 76.5279 5.52625 76.6824 5.42841C76.842 5.33057 76.945 5.20184 76.9914 5.04221H77.6248C77.5321 5.36662 77.3544 5.62667 77.0918 5.82234C76.8343 6.01802 76.5125 6.11586 76.1263 6.11586ZM76.1185 3.25793C75.8662 3.25793 75.6551 3.32745 75.4852 3.46648C75.3152 3.60037 75.2045 3.80377 75.153 4.07669H77.0454C77.0248 3.81407 76.9296 3.61324 76.7596 3.47421C76.5897 3.33002 76.376 3.25793 76.1185 3.25793ZM81.03 3.77545H80.4044C80.3992 3.60037 80.3348 3.46648 80.2113 3.37379C80.0877 3.27595 79.9152 3.22703 79.6937 3.22703C79.5032 3.22703 79.3513 3.26051 79.238 3.32745C79.1247 3.39439 79.0681 3.48708 79.0681 3.60552C79.0681 3.7188 79.1144 3.80892 79.2071 3.87586C79.305 3.9428 79.426 3.9943 79.5701 4.03034L80.3426 4.21572C80.5588 4.26722 80.7442 4.35733 80.8987 4.48607C81.0583 4.60966 81.1381 4.80018 81.1381 5.05766C81.1381 5.35117 81.0197 5.60092 80.7828 5.8069C80.546 6.01287 80.219 6.11586 79.8019 6.11586C79.4002 6.11586 79.0604 6.0103 78.7823 5.79917C78.5042 5.58805 78.3626 5.31255 78.3575 4.97269H78.9831C79.0037 5.18897 79.0913 5.3486 79.2457 5.45159C79.4002 5.55457 79.5933 5.60607 79.825 5.60607C80.0465 5.60607 80.2138 5.5623 80.3271 5.47476C80.4404 5.38722 80.497 5.28166 80.497 5.15807C80.497 5.04478 80.4507 4.95724 80.358 4.89545C80.2653 4.82851 80.1469 4.77701 80.0027 4.74097L79.3384 4.57876C79.117 4.52726 78.9162 4.432 78.7359 4.29297C78.5557 4.14878 78.4656 3.93766 78.4656 3.65959C78.4656 3.37637 78.5737 3.14979 78.79 2.97986C79.0114 2.80478 79.3153 2.71724 79.7015 2.71724C80.098 2.71724 80.4147 2.80993 80.6515 2.99531C80.8884 3.17554 81.0146 3.43559 81.03 3.77545ZM0.888276 10.3079C0.749241 10.3079 0.62823 10.2589 0.525241 10.1611C0.427402 10.0633 0.378483 9.94225 0.378483 9.79807C0.378483 9.65388 0.427402 9.53287 0.525241 9.43503C0.62823 9.3372 0.749241 9.28828 0.888276 9.28828C1.02731 9.28828 1.14575 9.3372 1.24359 9.43503C1.34657 9.53287 1.39807 9.65388 1.39807 9.79807C1.39807 9.94225 1.34657 10.0633 1.24359 10.1611C1.14575 10.2589 1.02731 10.3079 0.888276 10.3079ZM0.57931 14V10.8331H1.19724V14H0.57931ZM1.92693 11.3738V10.8331H2.80748V9.52H3.41769V10.8331H4.59176V11.3738H3.41769V12.8259C3.41769 13.0731 3.46918 13.2533 3.57217 13.3666C3.67516 13.4799 3.83737 13.5366 4.05879 13.5366C4.14633 13.5366 4.23387 13.5314 4.32141 13.5211C4.40895 13.5057 4.49907 13.4876 4.59176 13.467V14.0618C4.48877 14.0824 4.38836 14.0953 4.29052 14.1004C4.19268 14.1107 4.09999 14.1159 4.01245 14.1159C3.60049 14.1159 3.29668 14.018 3.101 13.8223C2.90532 13.6215 2.80748 13.3177 2.80748 12.9109V11.3738H1.92693ZM6.85517 14V8.74759H7.4731V11.536C7.58639 11.2579 7.7486 11.052 7.95972 10.9181C8.176 10.7842 8.40772 10.7172 8.6549 10.7172C8.99991 10.7172 9.27798 10.8408 9.4891 11.088C9.70023 11.33 9.80579 11.675 9.80579 12.123V14H9.18786V12.2775C9.18786 11.9686 9.12864 11.7291 9.01021 11.5592C8.89177 11.3841 8.70124 11.2966 8.43862 11.2966C8.16055 11.2966 7.92883 11.397 7.74345 11.5978C7.56322 11.7986 7.4731 12.0999 7.4731 12.5015V14H6.85517ZM10.6971 12.4166C10.6971 12.1436 10.7434 11.9016 10.8361 11.6905C10.9288 11.4742 11.0472 11.2966 11.1914 11.1575C11.3356 11.0133 11.4978 10.9052 11.6781 10.8331C11.8583 10.7559 12.0385 10.7172 12.2187 10.7172C12.4402 10.7172 12.6564 10.779 12.8676 10.9026C13.0838 11.0211 13.2538 11.2013 13.3774 11.4433V10.8331H13.9953V14H13.3774V13.3898C13.2538 13.6318 13.0838 13.8146 12.8676 13.9382C12.6564 14.0566 12.4402 14.1159 12.2187 14.1159C12.0385 14.1159 11.8583 14.0772 11.6781 14C11.4978 13.9279 11.3356 13.8223 11.1914 13.6833C11.0472 13.5391 10.9288 13.3615 10.8361 13.1503C10.7434 12.9341 10.6971 12.6895 10.6971 12.4166ZM12.3269 11.2966C12.0231 11.2966 11.781 11.4047 11.6008 11.621C11.4206 11.8372 11.3305 12.1024 11.3305 12.4166C11.3305 12.7307 11.4206 12.9959 11.6008 13.2121C11.781 13.4284 12.0231 13.5366 12.3269 13.5366C12.6204 13.5366 12.8701 13.4387 13.0761 13.243C13.2872 13.0474 13.3928 12.7719 13.3928 12.4166C13.3928 12.0612 13.2898 11.7857 13.0838 11.5901C12.8779 11.3944 12.6255 11.2966 12.3269 11.2966ZM17.5548 11.7754H16.9291C16.924 11.6004 16.8596 11.4665 16.736 11.3738C16.6124 11.276 16.4399 11.227 16.2185 11.227C16.028 11.227 15.8761 11.2605 15.7628 11.3274C15.6495 11.3944 15.5929 11.4871 15.5929 11.6055C15.5929 11.7188 15.6392 11.8089 15.7319 11.8759C15.8297 11.9428 15.9507 11.9943 16.0949 12.0303L16.8673 12.2157C17.0836 12.2672 17.269 12.3573 17.4235 12.4861C17.5831 12.6097 17.6629 12.8002 17.6629 13.0577C17.6629 13.3512 17.5445 13.6009 17.3076 13.8069C17.0707 14.0129 16.7438 14.1159 16.3267 14.1159C15.925 14.1159 15.5851 14.0103 15.3071 13.7992C15.029 13.588 14.8874 13.3126 14.8822 12.9727H15.5079C15.5285 13.189 15.616 13.3486 15.7705 13.4516C15.925 13.5546 16.1181 13.6061 16.3498 13.6061C16.5713 13.6061 16.7386 13.5623 16.8519 13.4748C16.9652 13.3872 17.0218 13.2817 17.0218 13.1581C17.0218 13.0448 16.9755 12.9572 16.8828 12.8954C16.7901 12.8285 16.6717 12.777 16.5275 12.741L15.8632 12.5788C15.6418 12.5273 15.441 12.432 15.2607 12.293C15.0805 12.1488 14.9904 11.9377 14.9904 11.6596C14.9904 11.3764 15.0985 11.1498 15.3148 10.9799C15.5362 10.8048 15.84 10.7172 16.2262 10.7172C16.6227 10.7172 16.9394 10.8099 17.1763 10.9953C17.4132 11.1755 17.5393 11.4356 17.5548 11.7754ZM19.7343 12.4166C19.7343 12.1436 19.778 11.9016 19.8656 11.6905C19.9583 11.4742 20.0741 11.2966 20.2132 11.1575C20.3522 11.0133 20.5093 10.9052 20.6843 10.8331C20.8646 10.7559 21.0422 10.7172 21.2173 10.7172C21.4439 10.7172 21.6679 10.779 21.8893 10.9026C22.1107 11.0211 22.2858 11.2039 22.4145 11.451V10.8717H23.0325V13.7219C23.0325 14.2575 22.8883 14.6823 22.5999 14.9964C22.3167 15.3105 21.915 15.4676 21.395 15.4676C21.0242 15.4676 20.6921 15.3594 20.3985 15.1432C20.105 14.932 19.8913 14.6257 19.7574 14.224L20.2904 13.9691C20.4191 14.3038 20.571 14.5458 20.7461 14.6952C20.9212 14.8497 21.1375 14.9269 21.395 14.9269C21.6988 14.9269 21.9434 14.8316 22.1288 14.6411C22.3193 14.4557 22.4145 14.188 22.4145 13.8378V13.5288L22.4223 13.3589C22.2987 13.6112 22.1236 13.8017 21.897 13.9305C21.6756 14.0541 21.449 14.1159 21.2173 14.1159C21.0422 14.1159 20.8646 14.0772 20.6843 14C20.5093 13.9279 20.3522 13.8223 20.2132 13.6833C20.0741 13.5391 19.9583 13.3615 19.8656 13.1503C19.778 12.9341 19.7343 12.6895 19.7343 12.4166ZM21.3641 11.2966C21.0602 11.2966 20.8182 11.4047 20.638 11.621C20.4578 11.8372 20.3676 12.1024 20.3676 12.4166C20.3676 12.7307 20.4578 12.9959 20.638 13.2121C20.8182 13.4284 21.0602 13.5366 21.3641 13.5366C21.6576 13.5366 21.9073 13.4387 22.1133 13.243C22.3244 13.0474 22.43 12.7719 22.43 12.4166C22.43 12.0612 22.327 11.7857 22.121 11.5901C21.915 11.3944 21.6627 11.2966 21.3641 11.2966ZM25.6723 14.1159C25.4354 14.1159 25.2114 14.0747 25.0003 13.9923C24.7943 13.9099 24.6141 13.794 24.4596 13.6447C24.3051 13.4954 24.1815 13.3177 24.0888 13.1117C24.0013 12.9006 23.9575 12.6689 23.9575 12.4166C23.9575 12.1642 24.0013 11.9351 24.0888 11.7291C24.1815 11.518 24.3051 11.3377 24.4596 11.1884C24.6192 11.0391 24.802 10.9232 25.008 10.8408C25.2191 10.7584 25.4405 10.7172 25.6723 10.7172C25.904 10.7172 26.1228 10.7584 26.3288 10.8408C26.5399 10.9232 26.7227 11.0391 26.8772 11.1884C27.0369 11.3377 27.1604 11.518 27.248 11.7291C27.3407 11.9351 27.387 12.1642 27.387 12.4166C27.387 12.6689 27.3407 12.9006 27.248 13.1117C27.1604 13.3177 27.0394 13.4954 26.8849 13.6447C26.7305 13.794 26.5477 13.9099 26.3365 13.9923C26.1306 14.0747 25.9091 14.1159 25.6723 14.1159ZM25.6723 13.5597C25.9864 13.5597 26.2438 13.4593 26.4447 13.2585C26.6507 13.0577 26.7536 12.777 26.7536 12.4166C26.7536 12.0561 26.6507 11.7754 26.4447 11.5746C26.2387 11.3738 25.9812 11.2734 25.6723 11.2734C25.3633 11.2734 25.1058 11.3738 24.8998 11.5746C24.6939 11.7754 24.5909 12.0561 24.5909 12.4166C24.5909 12.777 24.6913 13.0577 24.8921 13.2585C25.0981 13.4593 25.3581 13.5597 25.6723 13.5597ZM28.3153 14V10.8331H28.9332V11.536C29.0465 11.2579 29.2087 11.052 29.4199 10.9181C29.6361 10.7842 29.8679 10.7172 30.115 10.7172C30.46 10.7172 30.7381 10.8408 30.9492 11.088C31.1604 11.33 31.2659 11.675 31.2659 12.123V14H30.648V12.2775C30.648 11.9686 30.5888 11.7291 30.4703 11.5592C30.3519 11.3841 30.1614 11.2966 29.8988 11.2966C29.6207 11.2966 29.389 11.397 29.2036 11.5978C29.0233 11.7986 28.9332 12.0999 28.9332 12.5015V14H28.3153ZM33.7793 14.1159C33.527 14.1159 33.2978 14.0747 33.0918 13.9923C32.891 13.9047 32.7211 13.7863 32.582 13.637C32.443 13.4825 32.3349 13.3023 32.2576 13.0963C32.1804 12.8851 32.1418 12.6586 32.1418 12.4166C32.1418 12.1642 32.183 11.9351 32.2654 11.7291C32.3477 11.518 32.461 11.3377 32.6052 11.1884C32.7545 11.0391 32.9271 10.9232 33.1227 10.8408C33.3236 10.7584 33.5398 10.7172 33.7716 10.7172C34.2247 10.7172 34.598 10.8666 34.8916 11.1652C35.1902 11.4588 35.3396 11.8501 35.3396 12.3393C35.3396 12.3805 35.337 12.4217 35.3318 12.4629C35.3318 12.5041 35.3293 12.5427 35.3241 12.5788H32.7829C32.8086 12.8826 32.909 13.1246 33.0841 13.3048C33.2592 13.4851 33.4909 13.5752 33.7793 13.5752C33.9956 13.5752 34.1809 13.5263 34.3354 13.4284C34.4951 13.3306 34.598 13.2018 34.6444 13.0422H35.2778C35.1851 13.3666 35.0074 13.6267 34.7448 13.8223C34.4873 14.018 34.1655 14.1159 33.7793 14.1159ZM33.7716 11.2579C33.5192 11.2579 33.3081 11.3274 33.1382 11.4665C32.9683 11.6004 32.8575 11.8038 32.806 12.0767H34.6985C34.6779 11.8141 34.5826 11.6132 34.4127 11.4742C34.2427 11.33 34.029 11.2579 33.7716 11.2579ZM37.2362 11.3738V10.8331H38.1168V9.52H38.727V10.8331H39.901V11.3738H38.727V12.8259C38.727 13.0731 38.7785 13.2533 38.8814 13.3666C38.9844 13.4799 39.1466 13.5366 39.3681 13.5366C39.4556 13.5366 39.5431 13.5314 39.6307 13.5211C39.7182 13.5057 39.8083 13.4876 39.901 13.467V14.0618C39.798 14.0824 39.6976 14.0953 39.5998 14.1004C39.5019 14.1107 39.4093 14.1159 39.3217 14.1159C38.9098 14.1159 38.6059 14.018 38.4103 13.8223C38.2146 13.6215 38.1168 13.3177 38.1168 12.9109V11.3738H37.2362ZM40.7765 14V8.74759H41.3944V11.536C41.5077 11.2579 41.6699 11.052 41.8811 10.9181C42.0973 10.7842 42.3291 10.7172 42.5762 10.7172C42.9212 10.7172 43.1993 10.8408 43.4104 11.088C43.6216 11.33 43.7271 11.675 43.7271 12.123V14H43.1092V12.2775C43.1092 11.9686 43.05 11.7291 42.9315 11.5592C42.8131 11.3841 42.6226 11.2966 42.36 11.2966C42.0819 11.2966 41.8502 11.397 41.6648 11.5978C41.4846 11.7986 41.3944 12.0999 41.3944 12.5015V14H40.7765ZM44.8347 14V10.8331H45.4449V11.5051C45.5582 11.2425 45.7127 11.0468 45.9084 10.9181C46.1092 10.7842 46.3358 10.7172 46.5881 10.7172C46.6396 10.7172 46.6859 10.7224 46.7271 10.7327C46.7683 10.7378 46.8044 10.743 46.8353 10.7481V11.451C46.7529 11.4356 46.6679 11.4227 46.5804 11.4124C46.498 11.4021 46.4156 11.397 46.3332 11.397C46.0191 11.397 45.7925 11.4948 45.6535 11.6905C45.5144 11.8862 45.4449 12.2054 45.4449 12.6483V14H44.8347ZM48.8899 14.1159C48.6531 14.1159 48.4291 14.0747 48.2179 13.9923C48.012 13.9099 47.8317 13.794 47.6772 13.6447C47.5228 13.4954 47.3992 13.3177 47.3065 13.1117C47.2189 12.9006 47.1752 12.6689 47.1752 12.4166C47.1752 12.1642 47.2189 11.9351 47.3065 11.7291C47.3992 11.518 47.5228 11.3377 47.6772 11.1884C47.8369 11.0391 48.0197 10.9232 48.2257 10.8408C48.4368 10.7584 48.6582 10.7172 48.8899 10.7172C49.1217 10.7172 49.3405 10.7584 49.5465 10.8408C49.7576 10.9232 49.9404 11.0391 50.0949 11.1884C50.2545 11.3377 50.3781 11.518 50.4657 11.7291C50.5583 11.9351 50.6047 12.1642 50.6047 12.4166C50.6047 12.6689 50.5583 12.9006 50.4657 13.1117C50.3781 13.3177 50.2571 13.4954 50.1026 13.6447C49.9481 13.794 49.7653 13.9099 49.5542 13.9923C49.3482 14.0747 49.1268 14.1159 48.8899 14.1159ZM48.8899 13.5597C49.204 13.5597 49.4615 13.4593 49.6623 13.2585C49.8683 13.0577 49.9713 12.777 49.9713 12.4166C49.9713 12.0561 49.8683 11.7754 49.6623 11.5746C49.4564 11.3738 49.1989 11.2734 48.8899 11.2734C48.581 11.2734 48.3235 11.3738 48.1175 11.5746C47.9115 11.7754 47.8086 12.0561 47.8086 12.4166C47.8086 12.777 47.909 13.0577 48.1098 13.2585C48.3158 13.4593 48.5758 13.5597 48.8899 13.5597ZM52.0968 10.8331V12.7255C52.0968 12.983 52.1483 13.1838 52.2513 13.328C52.3595 13.467 52.532 13.5366 52.7688 13.5366C53.0263 13.5366 53.2374 13.4361 53.4022 13.2353C53.5721 13.0345 53.6571 12.7332 53.6571 12.3316V10.8331H54.275V14H53.6571V13.3203C53.549 13.5932 53.3945 13.794 53.1937 13.9228C52.9928 14.0515 52.774 14.1159 52.5371 14.1159C52.223 14.1159 51.9681 14.0077 51.7724 13.7914C51.5767 13.5752 51.4789 13.2714 51.4789 12.88V10.8331H52.0968ZM55.2397 12.4166C55.2397 12.1436 55.2834 11.9016 55.371 11.6905C55.4637 11.4742 55.5795 11.2966 55.7186 11.1575C55.8576 11.0133 56.0146 10.9052 56.1897 10.8331C56.37 10.7559 56.5476 10.7172 56.7227 10.7172C56.9493 10.7172 57.1733 10.779 57.3947 10.9026C57.6161 11.0211 57.7912 11.2039 57.9199 11.451V10.8717H58.5379V13.7219C58.5379 14.2575 58.3937 14.6823 58.1053 14.9964C57.8221 15.3105 57.4204 15.4676 56.9003 15.4676C56.5296 15.4676 56.1975 15.3594 55.9039 15.1432C55.6104 14.932 55.3967 14.6257 55.2628 14.224L55.7958 13.9691C55.9245 14.3038 56.0764 14.5458 56.2515 14.6952C56.4266 14.8497 56.6429 14.9269 56.9003 14.9269C57.2042 14.9269 57.4488 14.8316 57.6341 14.6411C57.8247 14.4557 57.9199 14.188 57.9199 13.8378V13.5288L57.9277 13.3589C57.8041 13.6112 57.629 13.8017 57.4024 13.9305C57.181 14.0541 56.9544 14.1159 56.7227 14.1159C56.5476 14.1159 56.37 14.0772 56.1897 14C56.0146 13.9279 55.8576 13.8223 55.7186 13.6833C55.5795 13.5391 55.4637 13.3615 55.371 13.1503C55.2834 12.9341 55.2397 12.6895 55.2397 12.4166ZM56.8695 11.2966C56.5656 11.2966 56.3236 11.4047 56.1434 11.621C55.9632 11.8372 55.873 12.1024 55.873 12.4166C55.873 12.7307 55.9632 12.9959 56.1434 13.2121C56.3236 13.4284 56.5656 13.5366 56.8695 13.5366C57.163 13.5366 57.4127 13.4387 57.6187 13.243C57.8298 13.0474 57.9354 12.7719 57.9354 12.4166C57.9354 12.0612 57.8324 11.7857 57.6264 11.5901C57.4204 11.3944 57.1681 11.2966 56.8695 11.2966ZM59.6946 14V8.74759H60.3125V11.536C60.4258 11.2579 60.588 11.052 60.7992 10.9181C61.0154 10.7842 61.2472 10.7172 61.4943 10.7172C61.8393 10.7172 62.1174 10.8408 62.3285 11.088C62.5397 11.33 62.6452 11.675 62.6452 12.123V14H62.0273V12.2775C62.0273 11.9686 61.9681 11.7291 61.8496 11.5592C61.7312 11.3841 61.5407 11.2966 61.2781 11.2966C61 11.2966 60.7683 11.397 60.5829 11.5978C60.4027 11.7986 60.3125 12.0999 60.3125 12.5015V14H59.6946ZM63.915 13.1735H64.6179C64.6179 13.3434 64.605 13.5031 64.5793 13.6524C64.5535 13.8017 64.5123 13.9562 64.4557 14.1159C64.3991 14.2806 64.327 14.4609 64.2394 14.6566C64.1519 14.8574 64.0437 15.0917 63.915 15.3594H63.4052C63.5597 14.9423 63.6833 14.5561 63.776 14.2008C63.8687 13.8507 63.915 13.5082 63.915 13.1735Z" fill="#1D7BBF"/>
<path d="M1.164 20.972C1.34 20.972 1.496 21.024 1.632 21.128C1.768 21.2293 1.87333 21.3747 1.948 21.564C2.02533 21.7533 2.064 21.976 2.064 22.232C2.064 22.488 2.02533 22.7107 1.948 22.9C1.87333 23.0893 1.768 23.236 1.632 23.34C1.496 23.444 1.34 23.496 1.164 23.496C0.990667 23.496 0.834667 23.444 0.696 23.34C0.56 23.236 0.453333 23.0893 0.376 22.9C0.301333 22.7107 0.264 22.488 0.264 22.232C0.264 21.976 0.301333 21.7533 0.376 21.564C0.453333 21.3747 0.56 21.2293 0.696 21.128C0.834667 21.024 0.990667 20.972 1.164 20.972ZM1.164 21.268C1.04933 21.268 0.948 21.308 0.86 21.388C0.772 21.4653 0.702667 21.5773 0.652 21.724C0.604 21.868 0.58 22.0373 0.58 22.232C0.58 22.4267 0.604 22.5973 0.652 22.744C0.702667 22.888 0.772 23 0.86 23.08C0.948 23.16 1.04933 23.2 1.164 23.2C1.28133 23.2 1.384 23.16 1.472 23.08C1.56 23 1.628 22.888 1.676 22.744C1.72667 22.5973 1.752 22.4267 1.752 22.232C1.752 22.0373 1.72667 21.868 1.676 21.724C1.628 21.5773 1.56 21.4653 1.472 21.388C1.384 21.308 1.28133 21.268 1.164 21.268ZM2.848 20.692H3.176V24.316H2.848V20.692ZM1.956 22.072H2.996V22.34H1.956V22.072ZM4.47969 23.96H6.98369V24.232H4.47969V23.96ZM4.47969 23.108H4.81169V24.108H4.47969V23.108ZM6.56369 20.696H6.89169V23.328H6.56369V20.696ZM5.91169 21.688H6.82769V21.96H5.91169V21.688ZM3.97169 22.476H4.13169C4.20635 22.476 4.28502 22.4747 4.36769 22.472C4.45302 22.4667 4.54235 22.4587 4.63569 22.448C4.72902 22.4373 4.82635 22.42 4.92769 22.396L4.95969 22.668C4.85035 22.6947 4.74769 22.7133 4.65169 22.724C4.55569 22.7347 4.46502 22.7413 4.37969 22.744C4.29435 22.744 4.21169 22.744 4.13169 22.744H3.97169V22.476ZM3.97169 20.992H4.88769V21.264H4.29969V22.556H3.97169V20.992ZM5.08369 22.476H5.26369C5.39435 22.476 5.51169 22.4747 5.61569 22.472C5.71969 22.4667 5.81969 22.4587 5.91569 22.448C6.01435 22.4347 6.11435 22.416 6.21569 22.392L6.25169 22.664C6.14235 22.688 6.03702 22.7067 5.93569 22.72C5.83702 22.7307 5.73302 22.7373 5.62369 22.74C5.51702 22.7427 5.39702 22.744 5.26369 22.744H5.08369V22.476ZM5.08369 20.992H6.08369V21.264H5.41169V22.544H5.08369V20.992ZM9.40591 21.004H9.68191V21.652C9.68191 21.86 9.65524 22.0627 9.60191 22.26C9.55124 22.4547 9.47791 22.6373 9.38191 22.808C9.28857 22.976 9.17791 23.1253 9.04991 23.256C8.92457 23.384 8.78724 23.4853 8.63791 23.56L8.43391 23.284C8.56991 23.2227 8.69657 23.1347 8.81391 23.02C8.93124 22.9053 9.03391 22.776 9.12191 22.632C9.20991 22.4853 9.27924 22.328 9.32991 22.16C9.38057 21.992 9.40591 21.8227 9.40591 21.652V21.004ZM9.46191 21.004H9.73791V21.652C9.73791 21.8173 9.76191 21.98 9.80991 22.14C9.86057 22.3 9.92991 22.452 10.0179 22.596C10.1086 22.7373 10.2112 22.8627 10.3259 22.972C10.4432 23.0787 10.5686 23.1627 10.7019 23.224L10.5019 23.488C10.3552 23.4187 10.2192 23.3213 10.0939 23.196C9.96857 23.0707 9.85791 22.9267 9.76191 22.764C9.66857 22.6013 9.59524 22.4253 9.54191 22.236C9.48857 22.0467 9.46191 21.852 9.46191 21.652V21.004ZM11.0819 20.692H11.4139V24.316H11.0819V20.692ZM14.6056 20.692H14.9416V23.336H14.6056V20.692ZM14.8376 21.788H15.4736V22.068H14.8376V21.788ZM13.6176 20.972H13.9696C13.9696 21.284 13.9003 21.5667 13.7616 21.82C13.6256 22.0733 13.4309 22.2933 13.1776 22.48C12.9243 22.6667 12.6243 22.8147 12.2776 22.924L12.1376 22.656C12.4416 22.56 12.7043 22.436 12.9256 22.284C13.1469 22.132 13.3176 21.9573 13.4376 21.76C13.5576 21.5627 13.6176 21.3493 13.6176 21.12V20.972ZM12.2856 20.972H13.7896V21.248H12.2856V20.972ZM12.6856 23.96H15.0976V24.232H12.6856V23.96ZM12.6856 23.068H13.0176V24.068H12.6856V23.068ZM17.4453 20.756C17.8453 20.756 18.1573 20.8107 18.3813 20.92C18.6053 21.0267 18.7173 21.18 18.7173 21.38C18.7173 21.5827 18.6053 21.7387 18.3813 21.848C18.1573 21.9547 17.8453 22.008 17.4453 22.008C17.0479 22.008 16.7359 21.9547 16.5093 21.848C16.2853 21.7387 16.1733 21.5827 16.1733 21.38C16.1733 21.18 16.2853 21.0267 16.5093 20.92C16.7359 20.8107 17.0479 20.756 17.4453 20.756ZM17.4453 21.004C17.2506 21.004 17.0839 21.0187 16.9453 21.048C16.8066 21.0773 16.6999 21.12 16.6253 21.176C16.5533 21.232 16.5173 21.3 16.5173 21.38C16.5173 21.46 16.5533 21.5293 16.6253 21.588C16.6999 21.644 16.8066 21.6867 16.9453 21.716C17.0839 21.7427 17.2506 21.756 17.4453 21.756C17.6426 21.756 17.8106 21.7427 17.9493 21.716C18.0879 21.6867 18.1933 21.644 18.2653 21.588C18.3399 21.5293 18.3773 21.46 18.3773 21.38C18.3773 21.3 18.3399 21.232 18.2653 21.176C18.1933 21.12 18.0879 21.0773 17.9493 21.048C17.8106 21.0187 17.6426 21.004 17.4453 21.004ZM15.8133 22.252H19.0813V22.52H15.8133V22.252ZM16.2093 22.828H18.6613V23.644H16.5413V24.08H16.2173V23.4H18.3373V23.084H16.2093V22.828ZM16.2173 24.012H18.7693V24.272H16.2173V24.012ZM23.0315 20.692H23.3595V24.312H23.0315V20.692ZM22.1875 22.144H23.1795V22.42H22.1875V22.144ZM21.8715 21.084H22.1955C22.1955 21.34 22.1662 21.5893 22.1075 21.832C22.0515 22.072 21.9595 22.3 21.8315 22.516C21.7062 22.732 21.5395 22.9333 21.3315 23.12C21.1235 23.3067 20.8688 23.4747 20.5675 23.624L20.3835 23.364C20.6475 23.236 20.8728 23.092 21.0595 22.932C21.2488 22.772 21.4035 22.5987 21.5235 22.412C21.6435 22.2227 21.7315 22.0227 21.7875 21.812C21.8435 21.5987 21.8715 21.3733 21.8715 21.136V21.084ZM20.5435 21.084H22.0435V21.352H20.5435V21.084ZM26.7112 20.692H27.0392V24.316H26.7112V20.692ZM25.9792 21.836H26.9152V22.112H25.9792V21.836ZM25.9792 22.592H26.9152V22.864H25.9792V22.592ZM24.9872 21.552H25.2512V21.864C25.2512 22.0533 25.2272 22.2387 25.1792 22.42C25.1312 22.5987 25.0619 22.7653 24.9712 22.92C24.8805 23.0747 24.7752 23.212 24.6552 23.332C24.5352 23.4493 24.4032 23.5427 24.2592 23.612L24.0752 23.356C24.2059 23.292 24.3272 23.208 24.4392 23.104C24.5512 23 24.6485 22.8813 24.7312 22.748C24.8139 22.6147 24.8765 22.4733 24.9192 22.324C24.9645 22.172 24.9872 22.0187 24.9872 21.864V21.552ZM25.0512 21.552H25.3152V21.864C25.3152 22.0133 25.3379 22.16 25.3832 22.304C25.4312 22.448 25.4965 22.584 25.5792 22.712C25.6619 22.8373 25.7592 22.9507 25.8712 23.052C25.9859 23.1533 26.1099 23.2347 26.2432 23.296L26.0552 23.552C25.9112 23.4853 25.7779 23.3947 25.6552 23.28C25.5325 23.1653 25.4259 23.0333 25.3352 22.884C25.2445 22.7347 25.1739 22.5733 25.1232 22.4C25.0752 22.2267 25.0512 22.048 25.0512 21.864V21.552ZM24.1712 21.32H26.1192V21.588H24.1712V21.32ZM24.9872 20.76H25.3192V21.468H24.9872V20.76ZM31.2734 20.692H31.6054V22.636H31.2734V20.692ZM29.2774 22.816H29.6014V23.252H31.2774V22.816H31.6054V24.264H29.2774V22.816ZM29.6014 23.516V23.992H31.2774V23.516H29.6014ZM29.6654 20.864C29.8494 20.864 30.0121 20.9 30.1534 20.972C30.2947 21.0413 30.4054 21.1387 30.4854 21.264C30.5681 21.3893 30.6094 21.5347 30.6094 21.7C30.6094 21.8627 30.5681 22.008 30.4854 22.136C30.4054 22.2613 30.2947 22.3587 30.1534 22.428C30.0121 22.4973 29.8494 22.532 29.6654 22.532C29.4841 22.532 29.3214 22.4973 29.1774 22.428C29.0361 22.3587 28.9241 22.2613 28.8414 22.136C28.7614 22.008 28.7214 21.8627 28.7214 21.7C28.7214 21.5347 28.7614 21.3893 28.8414 21.264C28.9241 21.1387 29.0361 21.0413 29.1774 20.972C29.3214 20.9 29.4841 20.864 29.6654 20.864ZM29.6654 21.144C29.5454 21.144 29.4387 21.168 29.3454 21.216C29.2521 21.2613 29.1787 21.3267 29.1254 21.412C29.0721 21.4947 29.0454 21.5907 29.0454 21.7C29.0454 21.8067 29.0721 21.9027 29.1254 21.988C29.1787 22.0707 29.2521 22.136 29.3454 22.184C29.4387 22.232 29.5454 22.256 29.6654 22.256C29.7854 22.256 29.8921 22.232 29.9854 22.184C30.0787 22.136 30.1521 22.0707 30.2054 21.988C30.2587 21.9027 30.2854 21.8067 30.2854 21.7C30.2854 21.5907 30.2587 21.4947 30.2054 21.412C30.1521 21.3267 30.0787 21.2613 29.9854 21.216C29.8921 21.168 29.7854 21.144 29.6654 21.144ZM32.3211 21.272H34.4371V21.544H32.3211V21.272ZM33.3891 21.84C33.5518 21.84 33.6958 21.876 33.8211 21.948C33.9464 22.02 34.0451 22.1187 34.1171 22.244C34.1918 22.3667 34.2291 22.5093 34.2291 22.672C34.2291 22.8347 34.1918 22.9787 34.1171 23.104C34.0451 23.2293 33.9464 23.328 33.8211 23.4C33.6958 23.4693 33.5518 23.504 33.3891 23.504C33.2264 23.504 33.0811 23.4693 32.9531 23.4C32.8278 23.328 32.7291 23.2293 32.6571 23.104C32.5851 22.9787 32.5491 22.8347 32.5491 22.672C32.5491 22.5093 32.5851 22.3667 32.6571 22.244C32.7291 22.1187 32.8278 22.02 32.9531 21.948C33.0811 21.876 33.2264 21.84 33.3891 21.84ZM33.3891 22.124C33.2851 22.124 33.1918 22.148 33.1091 22.196C33.0291 22.2413 32.9651 22.3053 32.9171 22.388C32.8718 22.4707 32.8491 22.5653 32.8491 22.672C32.8491 22.7787 32.8718 22.8733 32.9171 22.956C32.9651 23.0387 33.0291 23.104 33.1091 23.152C33.1918 23.1973 33.2851 23.22 33.3891 23.22C33.4931 23.22 33.5851 23.1973 33.6651 23.152C33.7478 23.104 33.8118 23.0387 33.8571 22.956C33.9051 22.8733 33.9291 22.7787 33.9291 22.672C33.9291 22.5653 33.9051 22.4707 33.8571 22.388C33.8118 22.3053 33.7478 22.2413 33.6651 22.196C33.5851 22.148 33.4931 22.124 33.3891 22.124ZM33.2211 20.732H33.5571V21.472H33.2211V20.732ZM34.9691 20.692H35.2971V24.312H34.9691V20.692ZM34.3691 21.896H35.2171V22.172H34.3691V21.896ZM34.3731 22.796H35.2211V23.068H34.3731V22.796ZM38.6448 20.692H38.9768V22.808H38.6448V20.692ZM36.9248 21.092H37.1968V21.388C37.1968 21.6093 37.1541 21.816 37.0688 22.008C36.9861 22.1973 36.8688 22.3613 36.7168 22.5C36.5674 22.6387 36.3914 22.7453 36.1888 22.82L36.0168 22.556C36.2008 22.492 36.3594 22.4027 36.4928 22.288C36.6288 22.1707 36.7341 22.0347 36.8088 21.88C36.8861 21.7227 36.9248 21.5587 36.9248 21.388V21.092ZM36.9888 21.092H37.2608V21.384C37.2608 21.5413 37.2968 21.692 37.3688 21.836C37.4408 21.98 37.5421 22.108 37.6728 22.22C37.8061 22.332 37.9594 22.4187 38.1328 22.48L37.9648 22.74C37.7674 22.668 37.5954 22.5653 37.4488 22.432C37.3021 22.2987 37.1888 22.1427 37.1088 21.964C37.0288 21.7827 36.9888 21.5893 36.9888 21.384V21.092ZM37.9848 21.376H38.7528V21.648H37.9848V21.376ZM36.1248 20.936H38.0448V21.208H36.1248V20.936ZM37.9848 21.972H38.7528V22.244H37.9848V21.972ZM36.9248 22.924H37.1848V23.108C37.1848 23.2653 37.1528 23.4213 37.0888 23.576C37.0248 23.728 36.9314 23.864 36.8088 23.984C36.6888 24.104 36.5408 24.1973 36.3648 24.264L36.2008 24.016C36.3528 23.96 36.4821 23.884 36.5888 23.788C36.6981 23.6893 36.7808 23.5813 36.8368 23.464C36.8954 23.344 36.9248 23.2253 36.9248 23.108V22.924ZM36.9968 22.924H37.2448V23.108C37.2448 23.2307 37.2688 23.3533 37.3168 23.476C37.3648 23.596 37.4368 23.7067 37.5328 23.808C37.6288 23.9067 37.7501 23.9867 37.8968 24.048L37.7528 24.296C37.5794 24.2267 37.4368 24.1293 37.3248 24.004C37.2128 23.8787 37.1301 23.7387 37.0768 23.584C37.0234 23.4267 36.9968 23.268 36.9968 23.108V22.924ZM38.2608 22.924H38.5088V23.108C38.5088 23.2493 38.4821 23.3987 38.4288 23.556C38.3754 23.7107 38.2928 23.8547 38.1808 23.988C38.0688 24.1213 37.9261 24.224 37.7528 24.296L37.6128 24.048C37.7568 23.9787 37.8768 23.8907 37.9728 23.784C38.0688 23.6773 38.1408 23.564 38.1888 23.444C38.2368 23.324 38.2608 23.212 38.2608 23.108V22.924ZM38.3288 22.924H38.5848V23.108C38.5848 23.2333 38.6128 23.356 38.6688 23.476C38.7274 23.596 38.8101 23.7027 38.9168 23.796C39.0261 23.8893 39.1581 23.9627 39.3128 24.016L39.1448 24.264C38.9688 24.2 38.8194 24.1093 38.6968 23.992C38.5768 23.8747 38.4848 23.74 38.4208 23.588C38.3594 23.436 38.3288 23.276 38.3288 23.108V22.924ZM40.1205 21.78H42.5805V22.048H40.1205V21.78ZM39.6765 22.532H42.9565V22.804H39.6765V22.532ZM40.1205 20.824H40.4485V21.916H40.1205V20.824ZM40.0965 23.952H42.6005V24.224H40.0965V23.952ZM40.0965 23.168H40.4285V24.024H40.0965V23.168ZM44.3162 21.212H44.5882V21.796C44.5882 21.988 44.5615 22.1773 44.5082 22.364C44.4548 22.548 44.3802 22.7227 44.2842 22.888C44.1908 23.0507 44.0815 23.1947 43.9562 23.32C43.8308 23.4453 43.6962 23.544 43.5522 23.616L43.3602 23.352C43.4908 23.288 43.6135 23.2013 43.7282 23.092C43.8455 22.9827 43.9482 22.8573 44.0362 22.716C44.1242 22.5747 44.1922 22.4253 44.2402 22.268C44.2908 22.1107 44.3162 21.9533 44.3162 21.796V21.212ZM44.3842 21.212H44.6522V21.796C44.6522 21.948 44.6762 22.1 44.7242 22.252C44.7748 22.4013 44.8442 22.5427 44.9322 22.676C45.0228 22.8067 45.1255 22.9227 45.2402 23.024C45.3575 23.1253 45.4828 23.2053 45.6162 23.264L45.4322 23.528C45.2855 23.4587 45.1482 23.3653 45.0202 23.248C44.8922 23.1307 44.7802 22.996 44.6842 22.844C44.5908 22.6893 44.5175 22.524 44.4642 22.348C44.4108 22.1693 44.3842 21.9853 44.3842 21.796V21.212ZM43.4762 21.064H45.4962V21.34H43.4762V21.064ZM45.9882 20.692H46.3202V24.312H45.9882V20.692ZM47.1398 24.76L47.0518 24.544C47.1772 24.488 47.2758 24.412 47.3478 24.316C47.4198 24.22 47.4545 24.1107 47.4518 23.988L47.4118 23.66L47.5918 23.928C47.5652 23.9573 47.5358 23.9787 47.5038 23.992C47.4745 24.0027 47.4425 24.008 47.4078 24.008C47.3358 24.008 47.2732 23.9853 47.2198 23.94C47.1665 23.8947 47.1398 23.832 47.1398 23.752C47.1398 23.672 47.1665 23.6093 47.2198 23.564C47.2758 23.5187 47.3412 23.496 47.4158 23.496C47.5118 23.496 47.5865 23.5347 47.6398 23.612C47.6958 23.6867 47.7238 23.7907 47.7238 23.924C47.7238 24.116 47.6705 24.284 47.5638 24.428C47.4598 24.572 47.3185 24.6827 47.1398 24.76Z" fill="#1D7BBF"/>
</svg>
