<svg width="64" height="9" viewBox="0 0 64 9" fill="none" xmlns="http://www.w3.org/2000/svg">
<path d="M3.90147 8.34016C3.35747 8.34016 2.84547 8.24016 2.36547 8.04016C1.89347 7.83216 1.48147 7.55216 1.12947 7.20016C0.785469 6.84016 0.509469 6.42016 0.301469 5.94016C0.101469 5.45216 0.00146875 4.93216 0.00146875 4.38016C0.00146875 3.82816 0.101469 3.31216 0.301469 2.83216C0.509469 2.34416 0.785469 1.92416 1.12947 1.57216C1.48147 1.21216 1.89347 0.932156 2.36547 0.732156C2.84547 0.524156 3.35747 0.420156 3.90147 0.420156C4.44547 0.420156 4.95347 0.524156 5.42547 0.732156C5.90547 0.932156 6.32147 1.21216 6.67347 1.57216C7.02547 1.92416 7.30147 2.34416 7.50147 2.83216C7.70947 3.31216 7.81347 3.82816 7.81347 4.38016C7.81347 4.93216 7.70947 5.45216 7.50147 5.94016C7.30147 6.42016 7.02547 6.84016 6.67347 7.20016C6.32147 7.55216 5.90547 7.83216 5.42547 8.04016C4.95347 8.24016 4.44547 8.34016 3.90147 8.34016ZM3.90147 7.42816C4.32547 7.42816 4.71747 7.35216 5.07747 7.20016C5.43747 7.04816 5.74547 6.84016 6.00147 6.57616C6.26547 6.30416 6.46947 5.98416 6.61347 5.61616C6.75747 5.24016 6.82947 4.82816 6.82947 4.38016C6.82947 3.93216 6.75747 3.52416 6.61347 3.15616C6.46947 2.78016 6.26547 2.46016 6.00147 2.19616C5.74547 1.92416 5.43747 1.71216 5.07747 1.56016C4.71747 1.40816 4.32547 1.33216 3.90147 1.33216C3.47747 1.33216 3.08547 1.40816 2.72547 1.56016C2.36547 1.71216 2.05747 1.92416 1.80147 2.19616C1.54547 2.46016 1.34547 2.78016 1.20147 3.15616C1.05747 3.52416 0.985469 3.93216 0.985469 4.38016C0.985469 4.82816 1.05747 5.24016 1.20147 5.61616C1.34547 5.98416 1.54547 6.30416 1.80147 6.57616C2.05747 6.84016 2.36547 7.04816 2.72547 7.20016C3.08547 7.35216 3.47747 7.42816 3.90147 7.42816ZM9.98303 3.24016V6.18016C9.98303 6.58016 10.063 6.89216 10.223 7.11616C10.391 7.33216 10.659 7.44016 11.027 7.44016C11.427 7.44016 11.755 7.28416 12.011 6.97216C12.275 6.66016 12.407 6.19216 12.407 5.56816V3.24016H13.367V8.16016H12.407V7.10416C12.239 7.52816 11.999 7.84016 11.687 8.04016C11.375 8.24016 11.035 8.34016 10.667 8.34016C10.179 8.34016 9.78303 8.17216 9.47903 7.83616C9.17503 7.50016 9.02303 7.02816 9.02303 6.42016V3.24016H9.98303ZM15.1656 8.16016V3.24016H16.1136V4.28416C16.2896 3.87616 16.5296 3.57216 16.8336 3.37216C17.1456 3.16416 17.4976 3.06016 17.8896 3.06016C17.9696 3.06016 18.0416 3.06816 18.1056 3.08416C18.1696 3.09216 18.2256 3.10016 18.2736 3.10816V4.20016C18.1456 4.17616 18.0136 4.15616 17.8776 4.14016C17.7496 4.12416 17.6216 4.11616 17.4936 4.11616C17.0056 4.11616 16.6536 4.26816 16.4376 4.57216C16.2216 4.87616 16.1136 5.37216 16.1136 6.06016V8.16016H15.1656ZM26.3482 5.70016C26.3482 6.12416 26.2762 6.50416 26.1322 6.84016C25.9962 7.16816 25.8202 7.44416 25.6042 7.66816C25.3882 7.88416 25.1402 8.04816 24.8602 8.16016C24.5882 8.28016 24.3162 8.34016 24.0442 8.34016C23.6922 8.34016 23.3442 8.24816 23.0002 8.06416C22.6562 7.87216 22.3842 7.58416 22.1842 7.20016V8.16016H21.2242V0.000156164H22.1842V4.20016C22.3842 3.81616 22.6562 3.53216 23.0002 3.34816C23.3442 3.15616 23.6922 3.06016 24.0442 3.06016C24.3162 3.06016 24.5882 3.12016 24.8602 3.24016C25.1402 3.35216 25.3882 3.52016 25.6042 3.74416C25.8202 3.96016 25.9962 4.23616 26.1322 4.57216C26.2762 4.90016 26.3482 5.27616 26.3482 5.70016ZM23.8162 3.96016C23.3602 3.96016 22.9682 4.11216 22.6402 4.41616C22.3202 4.72016 22.1602 5.14816 22.1602 5.70016C22.1602 6.25216 22.3202 6.68016 22.6402 6.98416C22.9602 7.28816 23.3522 7.44016 23.8162 7.44016C24.2882 7.44016 24.6642 7.27216 24.9442 6.93616C25.2242 6.60016 25.3642 6.18816 25.3642 5.70016C25.3642 5.21216 25.2242 4.80016 24.9442 4.46416C24.6642 4.12816 24.2882 3.96016 23.8162 3.96016ZM28.6862 3.24016V6.18016C28.6862 6.58016 28.7662 6.89216 28.9262 7.11616C29.0942 7.33216 29.3622 7.44016 29.7302 7.44016C30.1302 7.44016 30.4582 7.28416 30.7142 6.97216C30.9782 6.66016 31.1102 6.19216 31.1102 5.56816V3.24016H32.0702V8.16016H31.1102V7.10416C30.9422 7.52816 30.7022 7.84016 30.3902 8.04016C30.0782 8.24016 29.7382 8.34016 29.3702 8.34016C28.8822 8.34016 28.4862 8.17216 28.1822 7.83616C27.8782 7.50016 27.7262 7.02816 27.7262 6.42016V3.24016H28.6862ZM37.6008 4.70416H36.6288C36.6208 4.43216 36.5208 4.22416 36.3288 4.08016C36.1368 3.92816 35.8688 3.85216 35.5248 3.85216C35.2288 3.85216 34.9928 3.90416 34.8168 4.00816C34.6408 4.11216 34.5527 4.25616 34.5527 4.44016C34.5527 4.61616 34.6248 4.75616 34.7688 4.86016C34.9208 4.96416 35.1088 5.04416 35.3328 5.10016L36.5328 5.38816C36.8688 5.46816 37.1568 5.60816 37.3968 5.80816C37.6448 6.00016 37.7688 6.29616 37.7688 6.69616C37.7688 7.15216 37.5848 7.54016 37.2168 7.86016C36.8488 8.18016 36.3408 8.34016 35.6928 8.34016C35.0688 8.34016 34.5408 8.17616 34.1088 7.84816C33.6768 7.52016 33.4568 7.09216 33.4488 6.56416H34.4208C34.4528 6.90016 34.5888 7.14816 34.8288 7.30816C35.0688 7.46816 35.3688 7.54816 35.7288 7.54816C36.0728 7.54816 36.3328 7.48016 36.5088 7.34416C36.6848 7.20816 36.7728 7.04416 36.7728 6.85216C36.7728 6.67616 36.7008 6.54016 36.5568 6.44416C36.4128 6.34016 36.2288 6.26016 36.0048 6.20416L34.9728 5.95216C34.6288 5.87216 34.3168 5.72416 34.0368 5.50816C33.7568 5.28416 33.6168 4.95616 33.6168 4.52416C33.6168 4.08416 33.7848 3.73216 34.1208 3.46816C34.4648 3.19616 34.9368 3.06016 35.5368 3.06016C36.1528 3.06016 36.6448 3.20416 37.0128 3.49216C37.3808 3.77216 37.5768 4.17616 37.6008 4.70416ZM39.6105 2.42416C39.3945 2.42416 39.2065 2.34816 39.0465 2.19616C38.8945 2.04416 38.8185 1.85616 38.8185 1.63216C38.8185 1.40816 38.8945 1.22016 39.0465 1.06816C39.2065 0.916156 39.3945 0.840156 39.6105 0.840156C39.8265 0.840156 40.0105 0.916156 40.1625 1.06816C40.3225 1.22016 40.4025 1.40816 40.4025 1.63216C40.4025 1.85616 40.3225 2.04416 40.1625 2.19616C40.0105 2.34816 39.8265 2.42416 39.6105 2.42416ZM39.1305 8.16016V3.24016H40.0905V8.16016H39.1305ZM41.8961 8.16016V3.24016H42.8561V4.33216C43.0321 3.90016 43.2841 3.58016 43.6121 3.37216C43.9481 3.16416 44.3081 3.06016 44.6921 3.06016C45.2281 3.06016 45.6601 3.25216 45.9881 3.63616C46.3161 4.01216 46.4801 4.54816 46.4801 5.24416V8.16016H45.5201V5.48416C45.5201 5.00416 45.4281 4.63216 45.2441 4.36816C45.0601 4.09616 44.7641 3.96016 44.3561 3.96016C43.9241 3.96016 43.5641 4.11616 43.2761 4.42816C42.9961 4.74016 42.8561 5.20816 42.8561 5.83216V8.16016H41.8961ZM50.3848 8.34016C49.9928 8.34016 49.6368 8.27616 49.3168 8.14816C49.0048 8.01216 48.7408 7.82816 48.5248 7.59616C48.3088 7.35616 48.1408 7.07616 48.0208 6.75616C47.9008 6.42816 47.8408 6.07616 47.8408 5.70016C47.8408 5.30816 47.9048 4.95216 48.0328 4.63216C48.1608 4.30416 48.3368 4.02416 48.5608 3.79216C48.7928 3.56016 49.0608 3.38016 49.3648 3.25216C49.6768 3.12416 50.0128 3.06016 50.3728 3.06016C51.0768 3.06016 51.6568 3.29216 52.1128 3.75616C52.5768 4.21216 52.8088 4.82016 52.8088 5.58016C52.8088 5.64416 52.8048 5.70816 52.7968 5.77216C52.7968 5.83616 52.7928 5.89616 52.7848 5.95216H48.8368C48.8768 6.42416 49.0328 6.80016 49.3048 7.08016C49.5768 7.36016 49.9368 7.50016 50.3848 7.50016C50.7208 7.50016 51.0088 7.42416 51.2488 7.27216C51.4968 7.12016 51.6568 6.92016 51.7288 6.67216H52.7128C52.5688 7.17616 52.2928 7.58016 51.8848 7.88416C51.4848 8.18816 50.9848 8.34016 50.3848 8.34016ZM50.3728 3.90016C49.9808 3.90016 49.6528 4.00816 49.3888 4.22416C49.1248 4.43216 48.9528 4.74816 48.8728 5.17216H51.8128C51.7808 4.76416 51.6328 4.45216 51.3688 4.23616C51.1048 4.01216 50.7728 3.90016 50.3728 3.90016ZM58.0031 4.70416H57.0311C57.0231 4.43216 56.9231 4.22416 56.7311 4.08016C56.5391 3.92816 56.2711 3.85216 55.9271 3.85216C55.6311 3.85216 55.3951 3.90416 55.2191 4.00816C55.0431 4.11216 54.9551 4.25616 54.9551 4.44016C54.9551 4.61616 55.0271 4.75616 55.1711 4.86016C55.3231 4.96416 55.5111 5.04416 55.7351 5.10016L56.9351 5.38816C57.2711 5.46816 57.5591 5.60816 57.7991 5.80816C58.0471 6.00016 58.1711 6.29616 58.1711 6.69616C58.1711 7.15216 57.9871 7.54016 57.6191 7.86016C57.2511 8.18016 56.7431 8.34016 56.0951 8.34016C55.4711 8.34016 54.9431 8.17616 54.5111 7.84816C54.0791 7.52016 53.8591 7.09216 53.8511 6.56416H54.8231C54.8551 6.90016 54.9911 7.14816 55.2311 7.30816C55.4711 7.46816 55.7711 7.54816 56.1311 7.54816C56.4751 7.54816 56.7351 7.48016 56.9111 7.34416C57.0871 7.20816 57.1751 7.04416 57.1751 6.85216C57.1751 6.67616 57.1031 6.54016 56.9591 6.44416C56.8151 6.34016 56.6311 6.26016 56.4071 6.20416L55.3751 5.95216C55.0311 5.87216 54.7191 5.72416 54.4391 5.50816C54.1591 5.28416 54.0191 4.95616 54.0191 4.52416C54.0191 4.08416 54.1871 3.73216 54.5231 3.46816C54.8671 3.19616 55.3391 3.06016 55.9391 3.06016C56.5551 3.06016 57.0471 3.20416 57.4151 3.49216C57.7831 3.77216 57.9791 4.17616 58.0031 4.70416ZM63.2648 4.70416H62.2928C62.2848 4.43216 62.1848 4.22416 61.9928 4.08016C61.8008 3.92816 61.5328 3.85216 61.1888 3.85216C60.8928 3.85216 60.6568 3.90416 60.4808 4.00816C60.3048 4.11216 60.2168 4.25616 60.2168 4.44016C60.2168 4.61616 60.2888 4.75616 60.4328 4.86016C60.5848 4.96416 60.7728 5.04416 60.9968 5.10016L62.1968 5.38816C62.5328 5.46816 62.8208 5.60816 63.0608 5.80816C63.3088 6.00016 63.4328 6.29616 63.4328 6.69616C63.4328 7.15216 63.2488 7.54016 62.8808 7.86016C62.5128 8.18016 62.0048 8.34016 61.3568 8.34016C60.7328 8.34016 60.2048 8.17616 59.7728 7.84816C59.3408 7.52016 59.1208 7.09216 59.1128 6.56416H60.0848C60.1168 6.90016 60.2528 7.14816 60.4928 7.30816C60.7328 7.46816 61.0328 7.54816 61.3928 7.54816C61.7368 7.54816 61.9968 7.48016 62.1728 7.34416C62.3488 7.20816 62.4368 7.04416 62.4368 6.85216C62.4368 6.67616 62.3648 6.54016 62.2208 6.44416C62.0768 6.34016 61.8928 6.26016 61.6688 6.20416L60.6368 5.95216C60.2928 5.87216 59.9808 5.72416 59.7008 5.50816C59.4208 5.28416 59.2808 4.95616 59.2808 4.52416C59.2808 4.08416 59.4488 3.73216 59.7848 3.46816C60.1288 3.19616 60.6008 3.06016 61.2008 3.06016C61.8168 3.06016 62.3088 3.20416 62.6768 3.49216C63.0448 3.77216 63.2408 4.17616 63.2648 4.70416Z" fill="#1D7BBF"/>
</svg>
