<svg width="262" height="233" viewBox="0 0 262 233" fill="none" xmlns="http://www.w3.org/2000/svg">
<path d="M166.748 65.9062C196.095 71.304 221.318 84.4847 239.277 108.106C253.411 115.12 257.202 132.608 248.795 145.594L232.981 158.016L133.062 195.587C117.994 201.256 99.768 204.32 85.1057 202.337C68.8926 200.167 57.9806 190.985 48.1712 179.825C38.3398 168.675 28.1343 156.43 25.2253 141.677L27.9339 123.996L38.0933 87.6621C40.1235 80.4275 65.412 50.3834 85.7352 52.7763L111.213 55.8006L166.713 65.9472L166.757 65.928L166.748 65.9062Z" fill="black"/>
<path d="M106.27 110.043L109.146 119.864L111.812 110.043H113.548L116.214 119.864L119.091 110.043H120.599L117.249 121.092H115.267L112.689 111.937L110.093 121.092H108.111L104.762 110.043H106.27ZM120.739 117.496C120.739 116.877 120.844 116.327 121.055 115.848C121.265 115.357 121.534 114.953 121.862 114.638C122.189 114.31 122.557 114.065 122.967 113.901C123.376 113.726 123.785 113.638 124.194 113.638C124.697 113.638 125.188 113.778 125.667 114.059C126.159 114.328 126.544 114.737 126.825 115.287V113.901H128.228V121.092H126.825V119.706C126.544 120.256 126.159 120.671 125.667 120.951C125.188 121.22 124.697 121.355 124.194 121.355C123.785 121.355 123.376 121.267 122.967 121.092C122.557 120.928 122.189 120.688 121.862 120.373C121.534 120.045 121.265 119.642 121.055 119.163C120.844 118.671 120.739 118.116 120.739 117.496ZM124.44 114.953C123.75 114.953 123.2 115.199 122.791 115.69C122.382 116.181 122.177 116.783 122.177 117.496C122.177 118.21 122.382 118.812 122.791 119.303C123.2 119.794 123.75 120.039 124.44 120.039C125.106 120.039 125.673 119.817 126.141 119.373C126.62 118.929 126.86 118.303 126.86 117.496C126.86 116.69 126.626 116.064 126.159 115.62C125.691 115.175 125.118 114.953 124.44 114.953ZM129.874 115.129V113.901H131.873V110.919H133.259V113.901H135.924V115.129H133.259V118.426C133.259 118.987 133.375 119.396 133.609 119.654C133.843 119.911 134.211 120.039 134.714 120.039C134.913 120.039 135.112 120.028 135.311 120.004C135.509 119.969 135.714 119.928 135.924 119.882V121.232C135.691 121.279 135.463 121.308 135.24 121.32C135.018 121.343 134.808 121.355 134.609 121.355C133.674 121.355 132.984 121.133 132.539 120.688C132.095 120.232 131.873 119.543 131.873 118.619V115.129H129.874ZM138.859 117.496C138.859 118.315 139.058 118.952 139.456 119.408C139.865 119.864 140.385 120.092 141.017 120.092C141.496 120.092 141.899 119.963 142.227 119.706C142.566 119.449 142.829 119.069 143.016 118.566H144.472C144.261 119.443 143.864 120.127 143.279 120.618C142.706 121.109 141.981 121.355 141.104 121.355C140.029 121.355 139.146 120.998 138.456 120.285C137.766 119.56 137.421 118.631 137.421 117.496C137.421 116.374 137.766 115.45 138.456 114.725C139.146 114 140.029 113.638 141.104 113.638C141.993 113.638 142.73 113.889 143.314 114.392C143.91 114.895 144.302 115.596 144.489 116.497H143.034C142.858 115.982 142.601 115.591 142.262 115.322C141.934 115.041 141.519 114.901 141.017 114.901C140.385 114.901 139.865 115.129 139.456 115.585C139.058 116.041 138.859 116.678 138.859 117.496ZM146.459 121.092V109.166H147.862V115.497C148.119 114.866 148.487 114.398 148.967 114.094C149.458 113.79 149.984 113.638 150.545 113.638C151.329 113.638 151.96 113.919 152.439 114.48C152.919 115.029 153.159 115.813 153.159 116.83V121.092H151.755V117.181C151.755 116.479 151.621 115.935 151.352 115.55C151.083 115.152 150.651 114.953 150.054 114.953C149.423 114.953 148.897 115.181 148.476 115.637C148.067 116.093 147.862 116.777 147.862 117.689V121.092H146.459ZM89.4352 140.092V129.043H93.3112C94.4571 129.043 95.3106 129.306 95.8718 129.832C96.4448 130.358 96.7312 131.059 96.7312 131.936C96.7312 132.357 96.6318 132.778 96.4331 133.199C96.2343 133.62 95.8835 133.965 95.3808 134.234C96.1291 134.526 96.626 134.924 96.8715 135.427C97.1288 135.929 97.2574 136.409 97.2574 136.865C97.2574 137.8 96.9651 138.572 96.3805 139.18C95.7958 139.788 94.9014 140.092 93.6971 140.092H89.4352ZM93.0657 130.358H90.8383V133.848H93.1709C93.9426 133.848 94.4805 133.714 94.7845 133.445C95.1002 133.164 95.258 132.72 95.258 132.112C95.258 131.504 95.0651 131.059 94.6792 130.779C94.3051 130.498 93.7672 130.358 93.0657 130.358ZM93.4515 135.111H90.8383V138.776H93.5042C94.3343 138.776 94.9189 138.624 95.258 138.32C95.6088 138.005 95.7842 137.549 95.7842 136.952C95.7842 136.356 95.6029 135.9 95.2405 135.584C94.8897 135.269 94.2934 135.111 93.4515 135.111ZM99.2814 140.092V132.901H100.667V134.427C100.924 133.831 101.275 133.386 101.719 133.094C102.175 132.79 102.69 132.638 103.263 132.638C103.38 132.638 103.485 132.65 103.578 132.673C103.672 132.685 103.754 132.696 103.824 132.708V134.304C103.637 134.269 103.444 134.24 103.245 134.216C103.058 134.193 102.871 134.181 102.684 134.181C101.971 134.181 101.456 134.403 101.141 134.848C100.825 135.292 100.667 136.017 100.667 137.023V140.092H99.2814ZM104.631 136.496C104.631 135.877 104.736 135.327 104.946 134.848C105.157 134.357 105.426 133.953 105.753 133.638C106.081 133.31 106.449 133.065 106.858 132.901C107.267 132.726 107.677 132.638 108.086 132.638C108.589 132.638 109.08 132.778 109.559 133.059C110.05 133.328 110.436 133.737 110.717 134.287V132.901H112.12V140.092H110.717V138.706C110.436 139.256 110.05 139.671 109.559 139.951C109.08 140.22 108.589 140.355 108.086 140.355C107.677 140.355 107.267 140.267 106.858 140.092C106.449 139.928 106.081 139.688 105.753 139.373C105.426 139.045 105.157 138.642 104.946 138.163C104.736 137.671 104.631 137.116 104.631 136.496ZM108.331 133.953C107.642 133.953 107.092 134.199 106.683 134.69C106.274 135.181 106.069 135.783 106.069 136.496C106.069 137.21 106.274 137.812 106.683 138.303C107.092 138.794 107.642 139.039 108.331 139.039C108.998 139.039 109.565 138.817 110.033 138.373C110.512 137.929 110.752 137.303 110.752 136.496C110.752 135.69 110.518 135.064 110.05 134.62C109.582 134.175 109.01 133.953 108.331 133.953ZM114.747 140.092V132.901H116.151V134.497C116.408 133.866 116.776 133.398 117.255 133.094C117.747 132.79 118.273 132.638 118.834 132.638C119.617 132.638 120.249 132.919 120.728 133.48C121.207 134.029 121.447 134.813 121.447 135.83V140.092H120.044V136.181C120.044 135.479 119.91 134.935 119.641 134.55C119.372 134.152 118.939 133.953 118.343 133.953C117.711 133.953 117.185 134.181 116.764 134.637C116.355 135.093 116.151 135.777 116.151 136.689V140.092H114.747ZM123.471 136.496C123.471 135.877 123.57 135.327 123.769 134.848C123.98 134.357 124.243 133.953 124.558 133.638C124.874 133.31 125.231 133.065 125.628 132.901C126.037 132.726 126.441 132.638 126.838 132.638C127.353 132.638 127.861 132.778 128.364 133.059C128.867 133.328 129.264 133.743 129.557 134.304V128.166H130.96V140.092H129.557V138.689C129.264 139.25 128.867 139.671 128.364 139.951C127.861 140.22 127.353 140.355 126.838 140.355C126.441 140.355 126.037 140.267 125.628 140.092C125.231 139.928 124.874 139.688 124.558 139.373C124.243 139.045 123.98 138.642 123.769 138.163C123.57 137.671 123.471 137.116 123.471 136.496ZM127.172 133.953C126.482 133.953 125.932 134.199 125.523 134.69C125.114 135.181 124.909 135.783 124.909 136.496C124.909 137.21 125.114 137.812 125.523 138.303C125.932 138.794 126.482 139.039 127.172 139.039C127.85 139.039 128.423 138.817 128.89 138.373C129.358 137.929 129.592 137.303 129.592 136.496C129.592 135.69 129.352 135.064 128.873 134.62C128.405 134.175 127.838 133.953 127.172 133.953ZM143.456 132.27H141.983C141.96 131.521 141.749 130.966 141.352 130.603C140.954 130.229 140.428 130.042 139.773 130.042C139.154 130.042 138.657 130.188 138.282 130.481C137.92 130.761 137.739 131.141 137.739 131.621C137.739 132.311 138.049 132.802 138.668 133.094C139.3 133.375 139.984 133.643 140.72 133.901C141.469 134.146 142.153 134.485 142.772 134.918C143.404 135.339 143.719 136.035 143.719 137.005C143.719 138.022 143.374 138.835 142.685 139.443C142.006 140.051 141.118 140.355 140.019 140.355C138.885 140.355 137.938 140.033 137.178 139.39C136.418 138.747 136.002 137.864 135.932 136.742H137.406C137.452 137.514 137.721 138.098 138.212 138.496C138.703 138.893 139.306 139.092 140.019 139.092C140.697 139.092 141.246 138.928 141.667 138.601C142.1 138.262 142.316 137.812 142.316 137.251C142.316 136.537 142.001 136.035 141.369 135.742C140.75 135.438 140.066 135.158 139.317 134.9C138.581 134.631 137.897 134.287 137.265 133.866C136.646 133.433 136.336 132.743 136.336 131.796C136.336 130.884 136.651 130.153 137.283 129.604C137.926 129.054 138.779 128.779 139.843 128.779C140.861 128.779 141.708 129.066 142.386 129.639C143.076 130.2 143.433 131.077 143.456 132.27ZM144.646 134.129V132.901H146.645V129.919H148.031V132.901H150.697V134.129H148.031V137.426C148.031 137.987 148.148 138.396 148.382 138.654C148.616 138.911 148.984 139.039 149.487 139.039C149.685 139.039 149.884 139.028 150.083 139.004C150.282 138.969 150.486 138.928 150.697 138.882V140.232C150.463 140.279 150.235 140.308 150.013 140.32C149.791 140.343 149.58 140.355 149.381 140.355C148.446 140.355 147.756 140.133 147.312 139.688C146.868 139.232 146.645 138.543 146.645 137.619V134.129H144.646ZM156.052 140.355C155.514 140.355 155.006 140.261 154.526 140.074C154.059 139.887 153.649 139.624 153.299 139.285C152.948 138.946 152.667 138.543 152.457 138.075C152.258 137.595 152.159 137.069 152.159 136.496C152.159 135.923 152.258 135.403 152.457 134.935C152.667 134.456 152.948 134.047 153.299 133.708C153.661 133.369 154.076 133.106 154.544 132.919C155.023 132.731 155.526 132.638 156.052 132.638C156.578 132.638 157.075 132.731 157.543 132.919C158.022 133.106 158.437 133.369 158.788 133.708C159.151 134.047 159.431 134.456 159.63 134.935C159.84 135.403 159.946 135.923 159.946 136.496C159.946 137.069 159.84 137.595 159.63 138.075C159.431 138.543 159.156 138.946 158.806 139.285C158.455 139.624 158.04 139.887 157.56 140.074C157.093 140.261 156.59 140.355 156.052 140.355ZM156.052 139.092C156.765 139.092 157.35 138.864 157.806 138.408C158.274 137.952 158.507 137.315 158.507 136.496C158.507 135.678 158.274 135.041 157.806 134.585C157.338 134.129 156.754 133.901 156.052 133.901C155.351 133.901 154.766 134.129 154.298 134.585C153.831 135.041 153.597 135.678 153.597 136.496C153.597 137.315 153.825 137.952 154.281 138.408C154.748 138.864 155.339 139.092 156.052 139.092ZM162.053 140.092V132.901H163.439V134.427C163.696 133.831 164.047 133.386 164.491 133.094C164.947 132.79 165.462 132.638 166.035 132.638C166.152 132.638 166.257 132.65 166.35 132.673C166.444 132.685 166.526 132.696 166.596 132.708V134.304C166.409 134.269 166.216 134.24 166.017 134.216C165.83 134.193 165.643 134.181 165.456 134.181C164.743 134.181 164.228 134.403 163.912 134.848C163.597 135.292 163.439 136.017 163.439 137.023V140.092H162.053ZM172.261 132.901H173.752L169.542 143.161H168.122L169.472 139.916L166.929 132.901H168.42L170.261 138.338L172.261 132.901Z" fill="white"/>
</svg>
