<svg width="251" height="363" viewBox="0 0 251 363" fill="none" xmlns="http://www.w3.org/2000/svg">
<path d="M229.952 70.3181C230.346 70.605 232.489 66.8309 232.874 66.4212C233.331 65.9342 234.119 65.5948 234.525 65.1508C235.278 64.3263 235.765 62.6866 236.678 61.7013C237.512 60.8037 238.445 60.3714 239.294 59.3097C240.973 57.2083 242.377 54.6347 243.75 52.3534C243.932 52.0486 245.053 50.3017 245.17 50.2152C245.542 49.9482 246.567 50.2312 246.569 50.7756C246.692 51.6514 245.392 52.4716 245.014 52.9897C243.712 54.796 242.44 56.8815 241.135 58.6318C239.431 60.9178 237.701 62.6454 235.976 65.0127C235.119 66.189 233.691 66.8865 233.084 67.7233C232.62 68.3641 232.432 69.3727 231.814 70.1684C231.019 71.1914 229.478 72.1815 228.74 73.093C228.252 73.6952 227.957 74.668 227.49 75.3682C225.56 78.264 222.987 80.3719 220.492 82.7228C211.707 90.9957 200.181 98.5874 189.716 104.645C181.717 109.275 174.584 113.217 165.37 114.978C164.562 115.132 160.862 115.379 160.529 115.611L157.107 124.032L155.021 127.079C149.917 134.357 144.399 141.452 138.474 148.155C137.002 149.82 134.844 151.642 133.621 153.455C132.876 154.562 132.442 156.099 131.382 157.11L139.835 158.994C144.281 160.799 147.881 163.617 151.487 166.636C161.012 174.615 169.05 188.043 167.18 200.933C167.086 201.579 165.139 206.387 164.812 206.628C164.65 206.746 164.277 206.659 164.072 206.815C163.889 206.954 163.68 207.958 163.28 208.375C161.503 210.229 159.454 212.133 157.022 213.194C151.07 215.786 145.091 215.069 139.26 212.738C132.865 210.185 126.68 203.994 124.016 197.648C122.322 193.611 121.471 188.22 121.812 183.724C121.858 183.111 122.226 182.602 122.269 182.065C122.325 181.396 122.037 180.532 122.178 179.927C122.249 179.631 122.619 179.485 122.675 179.053C122.823 177.886 122.788 177.119 123.008 175.789C123.868 170.581 124.561 165.449 126.749 160.727C127.127 159.909 128.122 159.265 128.064 158.232C127.611 158.174 127.202 158.493 126.778 158.526C124.427 158.707 121.986 158.492 119.602 158.602C116.169 158.76 111.071 160.171 107.525 160.934C103.001 161.909 99.241 163.422 94.4388 164.288C88.8122 165.303 83.0944 166.343 77.6107 168.1C74.5354 169.085 73.3564 170.515 70.9942 172.417C69.1185 173.929 67.1384 175.29 65.5645 177.211C63.6777 179.517 62.5567 181.7 61.4344 184.453C60.4152 186.953 59.1873 189.552 58.3781 192.069C56.8606 196.778 56.1324 202.369 55.7219 207.332C55.5016 210.013 56.1145 212.503 56.6323 215.031C56.8026 215.863 56.5164 216.638 56.5703 217.435C56.8792 222.076 60.8093 229.526 63.9292 233.008C69.3496 239.058 78.6871 244.641 85.8183 248.629C88.7475 250.266 91.0362 251.48 94.1374 252.81C103.708 256.92 112.096 261.99 120.282 268.269C128.073 274.247 134.002 283.262 134.16 293.48C134.234 298.17 131.93 307.45 129.469 311.455C121.413 324.563 106.704 330.142 91.8835 331.355C85.5512 331.873 79.1212 331.301 72.7166 330.829C64.631 330.234 56.9543 328.772 48.8342 329.303C46.1439 329.479 43.0781 329.255 40.5394 329.873C39.7376 330.068 38.9867 330.744 38.0603 330.57C37.6733 329.981 38.1944 329.551 38.5354 329.058C38.0473 328.496 37.3339 328.721 36.7066 328.58C36.4437 328.522 36.2266 328.568 36.2884 328.213C37.0397 327.942 38.2456 326.764 38.8842 326.725C39.7454 326.676 41.3104 327.57 42.3582 327.684C45.678 328.045 49.6556 326.963 52.8767 327.209C59.3277 327.7 66.199 329.097 72.6198 329.444C74.3415 329.538 76.7961 329.097 78.5718 329.271C79.8665 329.4 82.6795 330.285 83.87 330.234C84.4496 330.209 85.0792 329.807 85.8046 329.753C89.6694 329.478 92.3077 329.719 96.3583 328.934C104.257 327.401 114.38 325.183 120.561 319.558C121.179 318.996 122.291 318.147 122.75 317.636C122.975 317.387 123.025 316.909 123.21 316.729C123.509 316.44 124.006 316.446 124.508 315.897C126.844 313.34 130.37 306.964 130.972 303.587C132.512 294.937 133.707 290.132 129.237 282C125.295 274.826 121.906 271.438 115.298 266.699C111.498 263.973 107.581 261.483 103.355 259.388C99.9976 257.722 96.8938 255.735 93.3561 254.347C88.1056 252.289 83.91 249.524 79.1046 246.682C73.7458 243.515 67.4982 239.621 63.1607 234.959C60.5398 232.141 55.9602 224.449 55.2298 220.703C54.898 219.002 55.1005 217.046 54.8545 215.369C54.6751 214.138 54.1089 212.718 53.9825 211.427C53.6187 207.651 54.8151 203.173 55.1577 199.343C55.2202 198.652 54.9813 197.921 55.0758 197.214C55.1587 196.599 55.7846 195.685 55.9799 195.011C57.4389 189.97 59.0268 184.494 61.5667 179.878C64.2997 174.909 72.2806 168.168 77.6944 166.287C79.294 165.732 82.5249 164.709 84.0789 164.384C84.9739 164.196 85.7534 164.258 86.8801 164.028C92.3156 162.919 96.9733 162.306 102.362 160.725C108.232 159.004 114.993 156.924 121.061 157.025C123.812 157.071 126.576 156.515 129.322 156.702C129.577 156.527 130.088 155.026 130.328 154.679C131.986 152.3 134.065 150.171 135.987 148.027C140.059 143.486 144.26 138.795 148.109 134.115C149.984 131.834 151.285 129.31 152.944 126.923C153.606 125.974 154.986 124.76 155.566 123.779C156.102 122.873 156.612 120.767 157.036 119.658C157.573 118.262 158.572 116.994 158.525 115.441C157.729 115.157 157 115.678 156.487 115.72C153.054 115.999 145.621 111.894 143.341 109.376C141.919 107.804 139.931 104.911 139.354 102.81C136.17 91.2533 149.638 86.6242 156.88 93.9453C159.149 96.24 161.273 100.224 161.882 103.355C162.532 106.692 161.654 110.355 161.199 113.664C162.484 113.612 163.775 113.425 165.034 113.184C172.445 111.768 177.774 109.499 184.207 105.811C189.605 102.718 195.213 99.4488 200.308 95.9403C204.198 93.2626 208.214 90.5272 212.015 87.654C216.011 84.6312 219.51 81.3562 222.86 77.679C224.017 76.4094 225.376 74.5958 226.146 73.0705C226.647 72.0824 226.878 70.7878 227.513 69.8292C228.317 68.6199 229.643 67.958 230.449 66.5425C231.41 64.8488 231.301 63.1188 231.996 61.5365C232.731 59.8621 233.935 58.86 234.636 56.734C235.577 53.878 236.16 51.5461 236.61 48.5462C236.686 48.0351 236.561 46.783 236.648 46.498C236.679 46.4018 237.523 44.7946 237.604 44.7383C238.459 44.1291 239.15 45.2258 239.745 45.2936C240.19 45.3448 242.242 45.1062 242.428 45.2058C243.731 45.9126 242.333 47.6143 241.949 48.5349C241.054 50.6837 239.763 53.6952 238.63 55.7349C238.031 56.8123 237.077 57.6957 236.465 58.7041C235.816 59.7752 235.486 61.195 234.877 62.1797C234.304 63.1096 233.147 63.8413 232.569 64.8407C231.953 65.9075 231.568 67.4208 230.793 68.5273C230.328 69.1871 229.369 69.2931 229.947 70.3104L229.952 70.3181ZM235.867 57.3412C236.954 56.7427 236.834 55.8792 237.158 55.0109C237.425 54.2956 238.131 53.877 237.756 52.8209C237.389 53.1538 236.546 54.4966 236.408 54.9154C236.281 55.2981 236.417 55.6781 236.33 55.9688C236.197 56.3987 235.604 56.6681 235.869 57.3422L235.867 57.3412ZM155.055 94.6003C153.204 93.5004 150.952 92.1845 148.629 92.204C145.427 92.2318 140.978 94.2266 140.62 97.8343C139.989 104.201 144.701 109.235 149.927 111.912C152.942 113.459 155.508 113.946 158.909 113.994C159.568 113.797 160.205 109.926 160.26 109.187C160.605 104.456 159.937 100.992 157.182 97.1908C156.949 96.8709 155.2 94.6866 155.057 94.6014L155.055 94.6003ZM152.737 169.807C152.528 169.638 152.139 169.627 151.87 169.409C148.59 166.769 145.393 163.467 141.647 161.627C139.293 160.471 137.983 160.268 135.507 159.878C134.795 159.765 134.026 159.208 133.397 159.083C132.962 158.998 131.007 158.926 130.657 159.051C130.069 159.833 128.827 160.661 128.406 161.614C125.277 168.711 124.032 177.865 123.699 185.558C123.402 192.413 125.249 198.49 129.832 203.618C134.711 209.079 139.45 211.659 146.519 212.992C153.942 214.393 162.824 209.405 165.159 202.156C167.55 194.726 163.453 183.785 159.204 177.713C158.592 176.84 157.065 175.391 156.633 174.661C156.032 173.645 153.72 170.594 152.741 169.805L152.737 169.807Z" fill="black"/>
<path d="M229.952 70.3181C230.346 70.605 232.489 66.8309 232.874 66.4212C233.331 65.9342 234.119 65.5948 234.525 65.1508C235.278 64.3263 235.765 62.6866 236.678 61.7013C237.512 60.8037 238.445 60.3714 239.294 59.3097C240.973 57.2083 242.377 54.6347 243.75 52.3534C243.932 52.0486 245.053 50.3017 245.17 50.2152C245.542 49.9482 246.567 50.2312 246.569 50.7756C246.692 51.6514 245.392 52.4716 245.014 52.9897C243.712 54.796 242.44 56.8815 241.135 58.6318C239.431 60.9178 237.701 62.6454 235.976 65.0127C235.119 66.189 233.691 66.8865 233.084 67.7233C232.62 68.3641 232.432 69.3727 231.814 70.1684C231.019 71.1914 229.478 72.1815 228.74 73.093C228.252 73.6952 227.957 74.668 227.49 75.3682C225.56 78.264 222.987 80.3719 220.492 82.7228C211.707 90.9957 200.181 98.5874 189.716 104.645C181.717 109.275 174.584 113.217 165.37 114.978C164.562 115.132 160.862 115.379 160.529 115.611L157.107 124.032L155.021 127.079C149.917 134.357 144.399 141.452 138.474 148.155C137.002 149.82 134.844 151.642 133.621 153.455C132.876 154.562 132.442 156.099 131.382 157.11L139.835 158.994C144.281 160.799 147.881 163.617 151.487 166.636C161.012 174.615 169.05 188.043 167.18 200.933C167.086 201.579 165.139 206.387 164.812 206.628C164.65 206.746 164.277 206.659 164.072 206.815C163.889 206.954 163.68 207.958 163.28 208.375C161.503 210.229 159.454 212.133 157.022 213.194C151.07 215.786 145.091 215.069 139.26 212.738C132.865 210.185 126.68 203.994 124.016 197.648C122.322 193.611 121.471 188.22 121.812 183.724C121.858 183.111 122.226 182.602 122.269 182.065C122.325 181.396 122.037 180.532 122.178 179.927C122.249 179.631 122.619 179.485 122.675 179.053C122.823 177.886 122.788 177.119 123.008 175.789C123.868 170.581 124.561 165.449 126.749 160.727C127.127 159.909 128.122 159.265 128.064 158.232C127.611 158.174 127.202 158.493 126.778 158.526C124.427 158.707 121.986 158.492 119.602 158.602C116.169 158.76 111.071 160.171 107.525 160.934C103.001 161.909 99.241 163.422 94.4388 164.288C88.8122 165.303 83.0944 166.343 77.6107 168.1C74.5354 169.085 73.3564 170.515 70.9942 172.417C69.1185 173.929 67.1384 175.29 65.5645 177.211C63.6777 179.517 62.5567 181.7 61.4344 184.453C60.4152 186.953 59.1873 189.552 58.3781 192.069C56.8606 196.778 56.1324 202.369 55.7219 207.332C55.5016 210.013 56.1145 212.503 56.6323 215.031C56.8026 215.863 56.5164 216.638 56.5703 217.435C56.8792 222.076 60.8093 229.526 63.9292 233.008C69.3496 239.058 78.6871 244.641 85.8183 248.629C88.7475 250.266 91.0362 251.48 94.1374 252.81C103.708 256.92 112.096 261.99 120.282 268.269C128.073 274.247 134.002 283.262 134.16 293.48C134.234 298.17 131.93 307.45 129.469 311.455C121.413 324.563 106.704 330.142 91.8835 331.355C85.5512 331.873 79.1212 331.301 72.7166 330.829C64.631 330.234 56.9543 328.772 48.8342 329.303C46.1439 329.479 43.0781 329.255 40.5394 329.873C39.7376 330.068 38.9867 330.744 38.0603 330.57C37.6733 329.981 38.1944 329.551 38.5354 329.058C38.0473 328.496 37.3339 328.721 36.7066 328.58C36.4437 328.522 36.2266 328.568 36.2884 328.213C37.0397 327.942 38.2456 326.764 38.8842 326.725C39.7454 326.676 41.3104 327.57 42.3582 327.684C45.678 328.045 49.6556 326.963 52.8767 327.209C59.3277 327.7 66.199 329.097 72.6198 329.444C74.3415 329.538 76.7961 329.097 78.5718 329.271C79.8665 329.4 82.6795 330.285 83.87 330.234C84.4496 330.209 85.0792 329.807 85.8046 329.753C89.6694 329.478 92.3077 329.719 96.3583 328.934C104.257 327.401 114.38 325.183 120.561 319.558C121.179 318.996 122.291 318.147 122.75 317.636C122.975 317.387 123.025 316.909 123.21 316.729C123.509 316.44 124.006 316.446 124.508 315.897C126.844 313.34 130.37 306.964 130.972 303.587C132.512 294.937 133.707 290.132 129.237 282C125.295 274.826 121.906 271.438 115.298 266.699C111.498 263.973 107.581 261.483 103.355 259.388C99.9976 257.722 96.8938 255.735 93.3561 254.347C88.1056 252.289 83.91 249.524 79.1046 246.682C73.7458 243.515 67.4982 239.621 63.1607 234.959C60.5398 232.141 55.9602 224.449 55.2298 220.703C54.898 219.002 55.1005 217.046 54.8545 215.369C54.6751 214.138 54.1089 212.718 53.9825 211.427C53.6187 207.651 54.8151 203.173 55.1577 199.343C55.2202 198.652 54.9813 197.921 55.0758 197.214C55.1587 196.599 55.7846 195.685 55.9799 195.011C57.4389 189.97 59.0268 184.494 61.5667 179.878C64.2997 174.909 72.2806 168.168 77.6944 166.287C79.294 165.732 82.5249 164.709 84.0789 164.384C84.9739 164.196 85.7534 164.258 86.8801 164.028C92.3156 162.919 96.9733 162.306 102.362 160.725C108.232 159.004 114.993 156.924 121.061 157.025C123.812 157.071 126.576 156.515 129.322 156.702C129.577 156.527 130.088 155.026 130.328 154.679C131.986 152.3 134.065 150.171 135.987 148.027C140.059 143.486 144.26 138.795 148.109 134.115C149.984 131.834 151.285 129.31 152.944 126.923C153.606 125.974 154.986 124.76 155.566 123.779C156.102 122.873 156.612 120.767 157.036 119.658C157.573 118.262 158.572 116.994 158.525 115.441C157.729 115.157 157 115.678 156.487 115.72C153.054 115.999 145.621 111.894 143.341 109.376C141.919 107.804 139.931 104.911 139.354 102.81C136.17 91.2533 149.638 86.6242 156.88 93.9453C159.149 96.24 161.273 100.224 161.882 103.355C162.532 106.692 161.654 110.355 161.199 113.664C162.484 113.612 163.775 113.425 165.034 113.184C172.445 111.768 177.774 109.499 184.207 105.811C189.605 102.718 195.213 99.4488 200.308 95.9403C204.198 93.2626 208.214 90.5272 212.015 87.654C216.011 84.6312 219.51 81.3562 222.86 77.679C224.017 76.4094 225.376 74.5958 226.146 73.0705C226.647 72.0824 226.878 70.7878 227.513 69.8292C228.317 68.6199 229.643 67.958 230.449 66.5425C231.41 64.8488 231.301 63.1188 231.996 61.5365C232.731 59.8621 233.935 58.86 234.636 56.734C235.577 53.878 236.16 51.5461 236.61 48.5462C236.686 48.0351 236.561 46.783 236.648 46.498C236.679 46.4018 237.523 44.7946 237.604 44.7383C238.459 44.1291 239.15 45.2258 239.745 45.2936C240.19 45.3448 242.242 45.1062 242.428 45.2058C243.731 45.9126 242.333 47.6143 241.949 48.5349C241.054 50.6837 239.763 53.6952 238.63 55.7349C238.031 56.8123 237.077 57.6957 236.465 58.7041C235.816 59.7752 235.486 61.195 234.877 62.1797C234.304 63.1096 233.147 63.8413 232.569 64.8407C231.953 65.9075 231.568 67.4208 230.793 68.5273C230.328 69.1871 229.369 69.2931 229.947 70.3104L229.952 70.3181ZM235.867 57.3412C236.954 56.7427 236.834 55.8792 237.158 55.0109C237.425 54.2956 238.131 53.877 237.756 52.8209C237.389 53.1538 236.546 54.4966 236.408 54.9154C236.281 55.2981 236.417 55.6781 236.33 55.9688C236.197 56.3987 235.604 56.6681 235.869 57.3422L235.867 57.3412ZM155.055 94.6003C153.204 93.5004 150.952 92.1845 148.629 92.204C145.427 92.2318 140.978 94.2266 140.62 97.8343C139.989 104.201 144.701 109.235 149.927 111.912C152.942 113.459 155.508 113.946 158.909 113.994C159.568 113.797 160.205 109.926 160.26 109.187C160.605 104.456 159.937 100.992 157.182 97.1908C156.949 96.8709 155.2 94.6866 155.057 94.6014L155.055 94.6003ZM152.737 169.807C152.528 169.638 152.139 169.627 151.87 169.409C148.59 166.769 145.393 163.467 141.647 161.627C139.293 160.471 137.983 160.268 135.507 159.878C134.795 159.765 134.026 159.208 133.397 159.083C132.962 158.998 131.007 158.926 130.657 159.051C130.069 159.833 128.827 160.661 128.406 161.614C125.277 168.711 124.032 177.865 123.699 185.558C123.402 192.413 125.249 198.49 129.832 203.618C134.711 209.079 139.45 211.659 146.519 212.992C153.942 214.393 162.824 209.405 165.159 202.156C167.55 194.726 163.453 183.785 159.204 177.713C158.592 176.84 157.065 175.391 156.633 174.661C156.032 173.645 153.72 170.594 152.741 169.805L152.737 169.807Z" fill="black" fill-opacity="0.2"/>
<path d="M203.263 87.1415C203.317 86.8613 203.469 86.578 203.558 86.3204C203.646 86.0257 203.802 85.7424 203.948 85.4784C204.034 85.298 204.224 85.1749 204.321 85.0123C204.413 84.8134 204.503 84.5889 204.649 84.3433C205.241 83.4506 206.376 82.8541 207.345 82.4218C207.934 82.1594 208.584 82.0878 209.211 82.058C210.301 81.9187 211.436 82.0411 212.513 82.3099C213.271 82.4838 214.057 82.9652 214.791 83.391C215.44 83.7895 216.24 84.2975 216.663 84.8786C217.051 85.319 217.283 85.8189 217.524 86.3566C217.777 86.8356 217.878 87.2952 217.965 87.8096C218.038 88.233 217.959 88.7498 217.968 89.199C217.998 89.884 217.89 90.5522 217.688 91.1809C217.571 91.6365 217.361 92.0945 217.151 92.5075C216.967 92.9188 216.765 93.178 216.413 93.5475C216.116 93.8784 215.758 94.2157 215.367 94.4926C214.481 95.1285 213.683 95.6155 212.715 95.8329C211.504 96.0736 210.156 96.0212 208.943 95.8828C207.913 95.7781 206.736 95.1848 205.869 94.6222C205.282 94.2092 204.632 93.7761 204.182 93.2054C203.896 92.8536 203.614 92.4833 203.43 92.0857C203.267 91.7307 203.072 91.4666 203.03 91.0819C202.968 90.3372 203.028 89.6281 202.996 88.8738C203.024 88.3063 203.163 87.7138 203.26 87.1584L203.264 87.1431V87.1415H203.263Z" fill="black"/>
<path d="M185.263 100.141C185.317 99.8613 185.469 99.578 185.558 99.3204C185.646 99.0257 185.802 98.7424 185.948 98.4784C186.034 98.298 186.224 98.1749 186.321 98.0123C186.413 97.8134 186.503 97.5889 186.649 97.3433C187.241 96.4506 188.376 95.8541 189.345 95.4218C189.934 95.1594 190.584 95.0878 191.211 95.058C192.301 94.9187 193.436 95.0411 194.513 95.3099C195.271 95.4838 196.057 95.9652 196.791 96.391C197.44 96.7895 198.24 97.2975 198.663 97.8786C199.051 98.319 199.283 98.8189 199.524 99.3566C199.777 99.8356 199.878 100.295 199.965 100.81C200.038 101.233 199.959 101.75 199.968 102.199C199.998 102.884 199.89 103.552 199.688 104.181C199.571 104.636 199.361 105.095 199.151 105.507C198.967 105.919 198.765 106.178 198.413 106.548C198.116 106.878 197.758 107.216 197.367 107.493C196.481 108.129 195.683 108.616 194.715 108.833C193.504 109.074 192.156 109.021 190.943 108.883C189.913 108.778 188.736 108.185 187.869 107.622C187.282 107.209 186.632 106.776 186.182 106.205C185.896 105.854 185.614 105.483 185.43 105.086C185.267 104.731 185.072 104.467 185.03 104.082C184.968 103.337 185.028 102.628 184.996 101.874C185.024 101.306 185.163 100.714 185.26 100.158L185.264 100.143V100.141H185.263Z" fill="black"/>
<path d="M136.263 93.1415C136.317 92.8613 136.469 92.578 136.558 92.3204C136.646 92.0257 136.802 91.7424 136.948 91.4784C137.034 91.298 137.224 91.1749 137.321 91.0123C137.413 90.8134 137.503 90.5889 137.649 90.3433C138.241 89.4506 139.376 88.8541 140.345 88.4218C140.934 88.1594 141.584 88.0878 142.211 88.058C143.301 87.9187 144.436 88.0411 145.513 88.3099C146.271 88.4838 147.057 88.9652 147.791 89.391C148.44 89.7895 149.24 90.2975 149.663 90.8786C150.051 91.319 150.283 91.8189 150.524 92.3566C150.777 92.8356 150.878 93.2952 150.965 93.8096C151.038 94.233 150.959 94.7498 150.968 95.199C150.998 95.884 150.89 96.5522 150.688 97.1809C150.571 97.6365 150.361 98.0945 150.151 98.5075C149.967 98.9188 149.765 99.178 149.413 99.5475C149.116 99.8784 148.758 100.216 148.367 100.493C147.481 101.129 146.683 101.616 145.715 101.833C144.504 102.074 143.156 102.021 141.943 101.883C140.913 101.778 139.736 101.185 138.869 100.622C138.282 100.209 137.632 99.7761 137.182 99.2054C136.896 98.8536 136.614 98.4833 136.43 98.0857C136.267 97.7307 136.072 97.4666 136.03 97.0819C135.968 96.3372 136.028 95.6281 135.996 94.8738C136.024 94.3063 136.163 93.7138 136.26 93.1584L136.264 93.1431V93.1415H136.263Z" fill="black"/>
<path d="M144.263 132.141C144.317 131.861 144.469 131.578 144.558 131.32C144.646 131.026 144.802 130.742 144.948 130.478C145.034 130.298 145.224 130.175 145.321 130.012C145.413 129.813 145.503 129.589 145.649 129.343C146.241 128.451 147.376 127.854 148.345 127.422C148.934 127.159 149.584 127.088 150.211 127.058C151.301 126.919 152.436 127.041 153.513 127.31C154.271 127.484 155.057 127.965 155.791 128.391C156.44 128.79 157.24 129.297 157.663 129.879C158.051 130.319 158.283 130.819 158.524 131.357C158.777 131.836 158.878 132.295 158.965 132.81C159.038 133.233 158.959 133.75 158.968 134.199C158.998 134.884 158.89 135.552 158.688 136.181C158.571 136.636 158.361 137.095 158.151 137.507C157.967 137.919 157.765 138.178 157.413 138.548C157.116 138.878 156.758 139.216 156.367 139.493C155.481 140.129 154.683 140.616 153.715 140.833C152.504 141.074 151.156 141.021 149.943 140.883C148.913 140.778 147.736 140.185 146.869 139.622C146.282 139.209 145.632 138.776 145.182 138.205C144.896 137.854 144.614 137.483 144.43 137.086C144.267 136.731 144.072 136.467 144.03 136.082C143.968 135.337 144.028 134.628 143.996 133.874C144.024 133.306 144.163 132.714 144.26 132.158L144.264 132.143V132.141H144.263Z" fill="black"/>
<path d="M156.263 200.141C156.317 199.861 156.469 199.578 156.558 199.32C156.646 199.026 156.802 198.742 156.948 198.478C157.034 198.298 157.224 198.175 157.321 198.012C157.413 197.813 157.503 197.589 157.649 197.343C158.241 196.451 159.376 195.854 160.345 195.422C160.934 195.159 161.584 195.088 162.211 195.058C163.301 194.919 164.436 195.041 165.513 195.31C166.271 195.484 167.057 195.965 167.791 196.391C168.44 196.79 169.24 197.297 169.663 197.879C170.051 198.319 170.283 198.819 170.524 199.357C170.777 199.836 170.878 200.295 170.965 200.81C171.038 201.233 170.959 201.75 170.968 202.199C170.998 202.884 170.89 203.552 170.688 204.181C170.571 204.636 170.361 205.095 170.151 205.507C169.967 205.919 169.765 206.178 169.413 206.548C169.116 206.878 168.758 207.216 168.367 207.493C167.481 208.129 166.683 208.616 165.715 208.833C164.504 209.074 163.156 209.021 161.943 208.883C160.913 208.778 159.736 208.185 158.869 207.622C158.282 207.209 157.632 206.776 157.182 206.205C156.896 205.854 156.614 205.483 156.43 205.086C156.267 204.731 156.072 204.467 156.03 204.082C155.968 203.337 156.028 202.628 155.996 201.874C156.024 201.306 156.163 200.714 156.26 200.158L156.264 200.143V200.141H156.263Z" fill="black"/>
<path d="M53.2632 182.141C53.3171 181.861 53.4689 181.578 53.5577 181.32C53.6464 181.026 53.8015 180.742 53.9484 180.478C54.0338 180.298 54.2238 180.175 54.3208 180.012C54.4129 179.813 54.5033 179.589 54.6493 179.343C55.2407 178.451 56.3763 177.854 57.3452 177.422C57.9341 177.159 58.5845 177.088 59.2108 177.058C60.3007 176.919 61.4363 177.041 62.513 177.31C63.2712 177.484 64.0567 177.965 64.7908 178.391C65.4395 178.79 66.24 179.297 66.663 179.879C67.0513 180.319 67.2827 180.819 67.5241 181.357C67.7771 181.836 67.8783 182.295 67.9654 182.81C68.0375 183.233 67.9587 183.75 67.9679 184.199C67.9977 184.884 67.8899 185.552 67.6883 186.181C67.5705 186.636 67.3607 187.095 67.1508 187.507C66.9675 187.919 66.7651 188.178 66.4125 188.548C66.1164 188.878 65.7581 189.216 65.3665 189.493C64.4806 190.129 63.6826 190.616 62.7146 190.833C61.5035 191.074 60.1564 191.021 58.9428 190.883C57.9134 190.778 56.7363 190.185 55.8687 189.622C55.2822 189.209 54.6319 188.776 54.1823 188.205C53.8961 187.854 53.6141 187.483 53.4299 187.086C53.2665 186.731 53.0716 186.467 53.0301 186.082C52.9679 185.337 53.0284 184.628 52.9961 183.874C53.0243 183.306 53.1628 182.714 53.2599 182.158L53.264 182.143V182.141H53.2632Z" fill="black"/>
<path d="M76.2632 245.141C76.3171 244.861 76.4689 244.578 76.5577 244.32C76.6464 244.026 76.8015 243.742 76.9484 243.478C77.0338 243.298 77.2238 243.175 77.3208 243.012C77.4129 242.813 77.5033 242.589 77.6493 242.343C78.2407 241.451 79.3763 240.854 80.3452 240.422C80.9341 240.159 81.5845 240.088 82.2108 240.058C83.3007 239.919 84.4363 240.041 85.513 240.31C86.2712 240.484 87.0567 240.965 87.7908 241.391C88.4395 241.79 89.24 242.297 89.663 242.879C90.0513 243.319 90.2827 243.819 90.5241 244.357C90.7771 244.836 90.8783 245.295 90.9654 245.81C91.0375 246.233 90.9587 246.75 90.9679 247.199C90.9977 247.884 90.8899 248.552 90.6883 249.181C90.5705 249.636 90.3607 250.095 90.1508 250.507C89.9675 250.919 89.7651 251.178 89.4125 251.548C89.1164 251.878 88.7581 252.216 88.3665 252.493C87.4806 253.129 86.6826 253.616 85.7146 253.833C84.5035 254.074 83.1564 254.021 81.9428 253.883C80.9134 253.778 79.7363 253.185 78.8687 252.622C78.2822 252.209 77.6319 251.776 77.1823 251.205C76.8961 250.854 76.6141 250.483 76.4299 250.086C76.2665 249.731 76.0716 249.467 76.0301 249.082C75.9679 248.337 76.0284 247.628 75.9961 246.874C76.0243 246.306 76.1628 245.714 76.2599 245.158L76.264 245.143V245.141H76.2632Z" fill="black"/>
<path d="M122.263 281.141C122.317 280.861 122.469 280.578 122.558 280.32C122.646 280.026 122.802 279.742 122.948 279.478C123.034 279.298 123.224 279.175 123.321 279.012C123.413 278.813 123.503 278.589 123.649 278.343C124.241 277.451 125.376 276.854 126.345 276.422C126.934 276.159 127.584 276.088 128.211 276.058C129.301 275.919 130.436 276.041 131.513 276.31C132.271 276.484 133.057 276.965 133.791 277.391C134.44 277.79 135.24 278.297 135.663 278.879C136.051 279.319 136.283 279.819 136.524 280.357C136.777 280.836 136.878 281.295 136.965 281.81C137.038 282.233 136.959 282.75 136.968 283.199C136.998 283.884 136.89 284.552 136.688 285.181C136.571 285.636 136.361 286.095 136.151 286.507C135.967 286.919 135.765 287.178 135.413 287.548C135.116 287.878 134.758 288.216 134.367 288.493C133.481 289.129 132.683 289.616 131.715 289.833C130.504 290.074 129.156 290.021 127.943 289.883C126.913 289.778 125.736 289.185 124.869 288.622C124.282 288.209 123.632 287.776 123.182 287.205C122.896 286.854 122.614 286.483 122.43 286.086C122.267 285.731 122.072 285.467 122.03 285.082C121.968 284.337 122.028 283.628 121.996 282.874C122.024 282.306 122.163 281.714 122.26 281.158L122.264 281.143V281.141H122.263Z" fill="black"/>
<path d="M58.2632 231.141C58.3171 230.861 58.4689 230.578 58.5577 230.32C58.6464 230.026 58.8015 229.742 58.9484 229.478C59.0338 229.298 59.2238 229.175 59.3208 229.012C59.4129 228.813 59.5033 228.589 59.6493 228.343C60.2407 227.451 61.3763 226.854 62.3452 226.422C62.9341 226.159 63.5845 226.088 64.2108 226.058C65.3007 225.919 66.4363 226.041 67.513 226.31C68.2712 226.484 69.0567 226.965 69.7908 227.391C70.4395 227.79 71.24 228.297 71.663 228.879C72.0513 229.319 72.2827 229.819 72.5241 230.357C72.7771 230.836 72.8783 231.295 72.9654 231.81C73.0375 232.233 72.9587 232.75 72.9679 233.199C72.9977 233.884 72.8899 234.552 72.6883 235.181C72.5705 235.636 72.3607 236.095 72.1508 236.507C71.9675 236.919 71.7651 237.178 71.4125 237.548C71.1164 237.878 70.7581 238.216 70.3665 238.493C69.4806 239.129 68.6826 239.616 67.7146 239.833C66.5035 240.074 65.1564 240.021 63.9428 239.883C62.9134 239.778 61.7363 239.185 60.8687 238.622C60.2822 238.209 59.6319 237.776 59.1823 237.205C58.8961 236.854 58.6141 236.483 58.4299 236.086C58.2665 235.731 58.0716 235.467 58.0301 235.082C57.9679 234.337 58.0284 233.628 57.9961 232.874C58.0243 232.306 58.1628 231.714 58.2599 231.158L58.264 231.143V231.141H58.2632Z" fill="black"/>
</svg>
