<svg width="181" height="174" viewBox="0 0 181 174" fill="none" xmlns="http://www.w3.org/2000/svg">
<path d="M3.21997 63.8703C3.86997 60.3903 5.70002 56.8703 6.77002 53.6703C7.84002 50.0103 9.70998 46.4904 11.48 43.2104C12.51 40.9704 14.8 39.4403 15.97 37.4203C17.08 34.9503 18.17 32.1603 19.93 29.1103C27.06 18.0203 40.75 10.6103 52.43 5.24034C59.53 1.98034 67.37 1.09032 74.92 0.720319C88.06 -1.00968 101.75 0.510324 114.73 3.85032C123.87 6.01032 133.34 11.9904 142.19 17.2804C150.01 22.2304 159.66 28.5404 164.76 35.7604C169.44 41.2304 172.23 47.4403 175.14 54.1203C178.19 60.0703 179.41 65.7803 180.46 72.1703C181.33 77.4303 180.38 83.8503 180.49 89.4303C180.85 97.9403 179.55 106.24 177.12 114.05C175.7 119.71 173.17 125.4 170.64 130.53C168.43 135.64 165.99 138.86 161.74 143.45C158.17 147.56 153.85 151.75 149.13 155.19C138.45 163.09 128.83 169.14 117.16 171.84C102.56 174.83 86.32 174.18 71.69 172.46C59.28 171.16 45.09 163.79 34.63 156.8C27.56 151.67 19.72 146.29 14.3 139.2C10.85 134.83 7.44998 130.23 5.22998 125.29C3.25998 120.88 0.909973 117.6 0.409973 112.82C-0.340027 103.57 0.39 94.7604 0 85.3904C0.34 78.3404 2.00999 70.9804 3.17999 64.0804L3.22998 63.8904V63.8703H3.21997Z" fill="black"/>
</svg>
