<svg width="292" height="298" viewBox="0 0 292 298" fill="none" xmlns="http://www.w3.org/2000/svg">
<path d="M31.6449 33.1427C34.5049 29.2327 39.1349 26.4426 42.4549 23.3026C46.0349 19.5626 50.7249 16.8127 55.1249 14.2727C57.8649 12.3527 62.0849 12.6227 64.9249 11.1427C67.9149 9.01265 71.0549 6.44264 75.3149 4.19264C91.9149 -3.25736 116.205 0.602655 136.425 5.14265C148.705 7.91265 160.805 14.5126 172.195 21.5026C192.595 32.2626 212.025 47.8027 229.425 65.0427C241.785 76.9227 252.545 94.1326 262.765 109.823C271.635 124.043 282.505 141.863 286.115 156.373C290.055 168.173 290.815 179.073 291.485 190.693C292.765 201.503 291.455 210.183 289.535 219.583C287.955 227.333 283.055 234.793 280.175 242.203C276.075 253.703 269.625 263.273 261.785 271.093C256.605 277.093 249.755 282.033 243.215 286.233C237.155 290.743 231.795 292.523 222.995 294.333C215.465 296.183 206.795 297.373 197.935 297.213C177.815 296.973 160.285 295.363 141.535 287.343C118.295 276.793 94.5949 259.843 73.8849 243.113C56.2149 229.123 39.2249 205.403 27.5549 185.903C19.8849 172.193 11.2149 157.373 7.04489 142.723C4.31489 133.593 1.79489 124.203 1.19489 115.523C0.684895 107.793 -1.00511 101.183 0.844895 94.4226C4.77489 81.5726 10.6549 70.7626 15.1949 58.1126C19.5349 49.2126 26.0149 41.2426 31.5149 33.3726L31.6849 33.1627V33.1326L31.6449 33.1427Z" fill="black"/>
</svg>
