<svg width="87" height="87" viewBox="0 0 87 87" fill="none" xmlns="http://www.w3.org/2000/svg">
<path d="M1.54917 31.9505C1.8619 30.2096 2.74236 28.4488 3.25715 26.848C3.77194 25.0172 4.6716 23.2563 5.52318 21.6155C6.01872 20.495 7.12047 19.7296 7.68337 18.7191C8.21741 17.4835 8.74183 16.0879 9.58859 14.5621C13.0189 9.01449 19.6054 5.30771 25.2248 2.62143C28.6407 0.990644 32.4126 0.545421 36.045 0.360332C42.3669 -0.505082 48.9533 0.255284 55.1982 1.92608C59.5955 3.0066 64.1517 5.99806 68.4096 8.64433C72.1719 11.1205 76.8146 14.277 79.2683 17.8887C81.5199 20.6251 82.8622 23.7315 84.2623 27.0731C85.7297 30.0496 86.3166 32.9059 86.8218 36.1025C87.2403 38.7337 86.7833 41.9453 86.8362 44.7366C87.0094 48.9936 86.384 53.1456 85.2149 57.0525C84.5317 59.8839 83.3145 62.7302 82.0973 65.2965C81.034 67.8527 79.8601 69.4635 77.8153 71.7596C76.0978 73.8155 74.0193 75.9115 71.7485 77.6324C66.6102 81.5843 61.9819 84.6107 56.3673 85.9614C49.343 87.4571 41.5297 87.1319 34.491 86.2715C28.5204 85.6212 21.6934 81.9344 16.661 78.4377C13.2595 75.8715 9.48756 73.1802 6.87992 69.6335C5.22008 67.4475 3.58429 65.1464 2.51622 62.6752C1.56842 60.4691 0.437801 58.8284 0.197244 56.4372C-0.163592 51.81 0.187634 47.4029 0 42.7156C0.163579 39.189 0.967035 35.5072 1.52994 32.0555L1.55399 31.9605V31.9505H1.54917Z" fill="#1D7BBF"/>
</svg>
