<svg width="16" height="15" viewBox="0 0 16 15" fill="none" xmlns="http://www.w3.org/2000/svg">
<path d="M0.284905 5.5087C0.342418 5.20856 0.504342 4.90496 0.599016 4.62897C0.69369 4.3133 0.859146 4.00971 1.01576 3.72682C1.10689 3.53362 1.30951 3.40166 1.41303 3.22744C1.51125 3.0144 1.60769 2.77377 1.76342 2.51071C2.39429 1.55422 3.60559 0.915123 4.63904 0.45197C5.26725 0.170801 5.96094 0.0940381 6.62897 0.0621262C7.79161 -0.0870832 9.00291 0.0440146 10.1514 0.332084C10.9601 0.51838 11.798 1.03415 12.5811 1.4904C13.273 1.91733 14.1268 2.46156 14.5781 3.08427C14.9922 3.55604 15.239 4.09165 15.4965 4.66778C15.7664 5.18096 15.8743 5.67344 15.9672 6.22456C16.0442 6.67823 15.9601 7.23194 15.9699 7.71321C16.0017 8.44718 15.8867 9.16304 15.6717 9.83664C15.5461 10.3248 15.3222 10.8156 15.0983 11.258C14.9028 11.6987 14.6869 11.9765 14.3109 12.3723C13.995 12.7268 13.6128 13.0882 13.1951 13.3849C12.2502 14.0663 11.399 14.5881 10.3664 14.8209C9.07458 15.0788 7.63765 15.0227 6.34318 14.8744C5.24513 14.7623 3.98959 14.1266 3.06409 13.5238C2.43853 13.0813 1.74484 12.6173 1.26527 12.0058C0.960014 11.6289 0.659179 11.2321 0.462752 10.8061C0.288445 10.4257 0.080515 10.1428 0.0362747 9.73055C-0.0300858 8.93276 0.0345075 8.17291 0 7.36477C0.0300834 6.75672 0.177846 6.12193 0.281368 5.52682L0.285791 5.51043V5.5087H0.284905Z" fill="black"/>
</svg>
