<svg width="166" height="209" viewBox="0 0 166 209" fill="none" xmlns="http://www.w3.org/2000/svg">
<path d="M30.6878 95.6491C30.6878 96.6097 30.9246 97.3576 31.3977 97.8926C31.871 98.4276 32.478 98.6953 33.2191 98.6953C33.7815 98.6953 34.2585 98.5446 34.6493 98.2425C35.0405 97.9408 35.3455 97.4949 35.5653 96.9045H37.2737C37.0267 97.9335 36.5635 98.7362 35.8844 99.3128C35.2053 99.8891 34.3509 100.177 33.3219 100.177C32.0594 100.177 31.0235 99.7555 30.214 98.9115C29.4046 98.0676 29 96.9802 29 95.6491C29 94.318 29.4046 93.248 30.2144 92.3972C31.0239 91.5463 32.0597 91.1211 33.3223 91.1211C34.365 91.1211 35.2328 91.4163 35.9257 92.0063C36.6185 92.5964 37.0749 93.4197 37.2944 94.4762H35.5859C35.3802 93.8724 35.0818 93.4095 34.6906 93.0868C34.2995 92.7644 33.8087 92.6033 33.2191 92.6033C32.478 92.6033 31.871 92.8709 31.3977 93.4059C30.9243 93.9413 30.6878 94.6892 30.6878 95.6494V95.6491Z" fill="white"/>
<path d="M43.4826 100.178C42.8514 100.178 42.2581 100.067 41.7025 99.8483C41.1469 99.6288 40.663 99.3202 40.2516 98.9221C39.8402 98.5244 39.5138 98.0474 39.2741 97.4918C39.0339 96.9361 38.9141 96.3222 38.9141 95.6496C38.9141 94.9769 39.0339 94.363 39.2741 93.8074C39.5138 93.2517 39.8434 92.7751 40.2621 92.377C40.6804 91.9793 41.1676 91.6703 41.7235 91.4508C42.2791 91.2313 42.8658 91.1216 43.4834 91.1216C44.1009 91.1216 44.6873 91.2317 45.2432 91.4508C45.7988 91.6703 46.2859 91.9793 46.7046 92.377C47.123 92.7751 47.4522 93.2517 47.6927 93.8074C47.9324 94.363 48.0527 94.9773 48.0527 95.6496C48.0527 96.3218 47.9324 96.9361 47.6927 97.4918C47.4525 98.0474 47.1266 98.5244 46.7151 98.9221C46.3033 99.3202 45.8198 99.6292 45.2642 99.8483C44.7086 100.067 44.115 100.178 43.4841 100.178H43.4826ZM43.4826 98.6954C44.3193 98.6954 45.0089 98.4277 45.5511 97.8927C46.0929 97.3574 46.3642 96.6098 46.3642 95.6492C46.3642 94.6886 46.0896 93.941 45.5409 93.4057C44.9919 92.8707 44.3059 92.603 43.4826 92.603C42.6594 92.603 41.9731 92.8707 41.4244 93.4057C40.8753 93.941 40.6011 94.689 40.6011 95.6492C40.6011 96.6094 40.872 97.3578 41.4142 97.8927C41.956 98.4277 42.6456 98.6954 43.4826 98.6954Z" fill="white"/>
<path d="M50.4297 99.8686V91.4298H52.0555V93.0442C52.321 92.4483 52.7708 92.0242 53.3239 91.7149C53.8483 91.4215 54.5329 91.3066 55.2054 91.3066C55.5155 91.3066 55.7951 91.3755 55.8777 91.3889V93.1257C55.6582 93.097 55.4999 93.084 55.2391 93.0648C55.0117 93.0481 54.6307 93.0355 54.4115 93.0391C53.6281 93.0521 53.0284 93.331 52.6578 93.8523C52.2873 94.3738 52.0563 95.0863 52.0563 96.2664V99.8686H50.4304H50.4297Z" fill="white"/>
<path d="M57.2109 95.6492C57.2109 94.9218 57.3308 94.2735 57.5709 93.7041C57.8111 93.1347 58.1164 92.6613 58.4869 92.2839C58.8574 91.9064 59.2794 91.6185 59.7527 91.4193C60.2261 91.2204 60.6959 91.1208 61.1627 91.1208C61.7665 91.1208 62.3634 91.2823 62.9534 91.6044C63.543 91.9271 64.0098 92.4175 64.3528 93.076V88H65.9993V99.8685H64.3528V98.2219C64.0095 98.8804 63.543 99.3712 62.9534 99.6936C62.3634 100.016 61.7665 100.177 61.1627 100.177C60.6962 100.177 60.2265 100.078 59.7527 99.8787C59.2794 99.6798 58.8574 99.3919 58.4869 99.0141C58.1164 98.6367 57.8111 98.1632 57.5709 97.5939C57.3308 97.0245 57.2109 96.3761 57.2109 95.6488V95.6492ZM61.5535 92.6645C60.7437 92.6645 60.099 92.9529 59.6187 93.5291C59.1385 94.1054 58.8983 94.8124 58.8983 95.6492C58.8983 96.4859 59.1385 97.1929 59.6187 97.7692C60.099 98.3454 60.7437 98.6338 61.5535 98.6338C62.3634 98.6338 63.0214 98.3733 63.5705 97.8517C64.1192 97.3305 64.3938 96.5963 64.3938 95.6495C64.3938 94.7027 64.116 93.9689 63.56 93.4473C63.0044 92.9261 62.3355 92.6653 61.5535 92.6653V92.6645Z" fill="white"/>
<path d="M68.3125 95.649C68.3125 94.9216 68.436 94.2733 68.683 93.7039C68.93 93.1345 69.2455 92.6611 69.6298 92.2837C70.0137 91.9062 70.4461 91.6183 70.9264 91.4191C71.4066 91.2202 71.8865 91.1206 72.3671 91.1206C72.9568 91.1206 73.5366 91.2822 74.1064 91.6042C74.6757 91.9269 75.1252 92.4104 75.4544 93.0552V91.4292H77.1009V99.8683H75.4544V98.2424C75.1252 98.8875 74.6757 99.371 74.1064 99.6934C73.5366 100.016 72.9571 100.177 72.3671 100.177C71.8869 100.177 71.4066 100.077 70.9264 99.8785C70.4461 99.6796 70.0137 99.3917 69.6298 99.0139C69.2455 98.6365 68.93 98.1631 68.683 97.5937C68.436 97.0243 68.3125 96.3759 68.3125 95.6486V95.649ZM72.6359 92.6437C71.8206 92.6437 71.1712 92.9338 70.6877 93.5141C70.2038 94.0943 69.9622 94.8065 69.9622 95.649C69.9622 96.4915 70.2038 97.2036 70.6877 97.7838C71.1712 98.3641 71.8206 98.6542 72.6359 98.6542C73.4512 98.6542 74.0969 98.392 74.6565 97.8664C75.2161 97.3416 75.3939 96.5653 75.3939 95.6022C75.3939 94.6391 75.2193 93.956 74.6667 93.4308C74.114 92.9059 73.4367 92.643 72.6355 92.643L72.6359 92.6437Z" fill="white"/>
<path d="M151.267 6.14146C151.321 5.86132 151.473 5.57797 151.562 5.32037C151.65 5.02575 151.805 4.7424 151.952 4.47836C152.038 4.29805 152.228 4.17488 152.325 4.01227C152.417 3.81344 152.507 3.58885 152.653 3.34333C153.245 2.45061 154.38 1.85411 155.349 1.42184C155.938 1.15941 156.588 1.08777 157.215 1.05798C158.305 0.918722 159.44 1.04108 160.517 1.30994C161.275 1.48382 162.061 1.96521 162.795 2.39104C163.443 2.78951 164.244 3.29745 164.667 3.87865C165.055 4.31898 165.287 4.81887 165.528 5.3566C165.781 5.83556 165.882 6.29521 165.969 6.80959C166.041 7.23301 165.963 7.74981 165.972 8.19899C166.002 8.88403 165.894 9.55217 165.692 10.1809C165.574 10.6365 165.365 11.0945 165.155 11.5075C164.971 11.9188 164.769 12.178 164.416 12.5475C164.12 12.8784 163.762 13.2157 163.37 13.4926C162.485 14.1285 161.687 14.6155 160.718 14.8329C159.507 15.0736 158.16 15.0212 156.947 14.8828C155.917 14.7781 154.74 14.1848 153.873 13.6222C153.286 13.2092 152.636 12.7761 152.186 12.2054C151.9 11.8536 151.618 11.4833 151.434 11.0857C151.27 10.7307 151.075 10.4666 151.034 10.0819C150.972 9.33724 151.032 8.62805 151 7.87378C151.028 7.30627 151.167 6.7138 151.264 6.15836L151.268 6.14307V6.14146H151.267Z" fill="black"/>
<path d="M133.267 19.1415C133.321 18.8613 133.473 18.578 133.562 18.3204C133.65 18.0257 133.805 17.7424 133.952 17.4784C134.038 17.298 134.228 17.1749 134.325 17.0123C134.417 16.8134 134.507 16.5889 134.653 16.3433C135.245 15.4506 136.38 14.8541 137.349 14.4218C137.938 14.1594 138.588 14.0878 139.215 14.058C140.305 13.9187 141.44 14.0411 142.517 14.3099C143.275 14.4838 144.061 14.9652 144.795 15.391C145.443 15.7895 146.244 16.2975 146.667 16.8786C147.055 17.319 147.287 17.8189 147.528 18.3566C147.781 18.8356 147.882 19.2952 147.969 19.8096C148.041 20.233 147.963 20.7498 147.972 21.199C148.002 21.884 147.894 22.5522 147.692 23.1809C147.574 23.6365 147.365 24.0945 147.155 24.5075C146.971 24.9188 146.769 25.178 146.416 25.5475C146.12 25.8784 145.762 26.2157 145.37 26.4926C144.485 27.1285 143.687 27.6155 142.718 27.8329C141.507 28.0736 140.16 28.0212 138.947 27.8828C137.917 27.7781 136.74 27.1848 135.873 26.6222C135.286 26.2092 134.636 25.7761 134.186 25.2054C133.9 24.8536 133.618 24.4833 133.434 24.0857C133.27 23.7307 133.075 23.4666 133.034 23.0819C132.972 22.3372 133.032 21.6281 133 20.8738C133.028 20.3063 133.167 19.7138 133.264 19.1584L133.268 19.1431V19.1415H133.267Z" fill="black"/>
<path d="M84.2671 12.1415C84.321 11.8613 84.4728 11.578 84.5616 11.3204C84.6503 11.0257 84.8054 10.7424 84.9523 10.4784C85.0377 10.298 85.2277 10.1749 85.3247 10.0123C85.4168 9.81344 85.5072 9.58885 85.6532 9.34333C86.2446 8.45061 87.3802 7.85411 88.3491 7.42184C88.9381 7.15941 89.5884 7.08777 90.2147 7.05798C91.3046 6.91872 92.4402 7.04108 93.5169 7.30994C94.2751 7.48382 95.0606 7.96521 95.7948 8.39104C96.4434 8.78951 97.2439 9.29745 97.6669 9.87865C98.0552 10.319 98.2866 10.8189 98.528 11.3566C98.781 11.8356 98.8822 12.2952 98.9693 12.8096C99.0414 13.233 98.9626 13.7498 98.9718 14.199C99.0016 14.884 98.8938 15.5522 98.6922 16.1809C98.5744 16.6365 98.3646 17.0945 98.1547 17.5075C97.9714 17.9188 97.769 18.178 97.4164 18.5475C97.1203 18.8784 96.762 19.2157 96.3704 19.4926C95.4845 20.1285 94.6865 20.6155 93.7185 20.8329C92.5074 21.0736 91.1603 21.0212 89.9467 20.8828C88.9173 20.7781 87.7402 20.1848 86.8726 19.6222C86.2861 19.2092 85.6358 18.7761 85.1862 18.2054C84.9 17.8536 84.618 17.4833 84.4338 17.0857C84.2704 16.7307 84.0755 16.4666 84.034 16.0819C83.9718 15.3372 84.0324 14.6281 84 13.8738C84.0282 13.3063 84.1667 12.7138 84.2638 12.1584L84.2679 12.1431V12.1415H84.2671Z" fill="black"/>
<path d="M92.2671 51.1415C92.321 50.8613 92.4728 50.578 92.5616 50.3204C92.6503 50.0257 92.8054 49.7424 92.9523 49.4784C93.0377 49.298 93.2277 49.1749 93.3247 49.0123C93.4168 48.8134 93.5072 48.5889 93.6532 48.3433C94.2446 47.4506 95.3802 46.8541 96.3491 46.4218C96.9381 46.1594 97.5884 46.0878 98.2147 46.058C99.3046 45.9187 100.44 46.0411 101.517 46.3099C102.275 46.4838 103.061 46.9652 103.795 47.391C104.443 47.7895 105.244 48.2975 105.667 48.8786C106.055 49.319 106.287 49.8189 106.528 50.3566C106.781 50.8356 106.882 51.2952 106.969 51.8096C107.041 52.233 106.963 52.7498 106.972 53.199C107.002 53.884 106.894 54.5522 106.692 55.1809C106.574 55.6365 106.365 56.0945 106.155 56.5075C105.971 56.9188 105.769 57.178 105.416 57.5475C105.12 57.8784 104.762 58.2157 104.37 58.4926C103.485 59.1285 102.687 59.6155 101.718 59.8329C100.507 60.0736 99.1603 60.0212 97.9467 59.8828C96.9173 59.7781 95.7402 59.1848 94.8726 58.6222C94.2861 58.2092 93.6358 57.7761 93.1862 57.2054C92.9 56.8536 92.618 56.4833 92.4338 56.0857C92.2704 55.7307 92.0755 55.4666 92.034 55.0819C91.9718 54.3372 92.0324 53.6281 92 52.8738C92.0282 52.3063 92.1667 51.7138 92.2638 51.1584L92.2679 51.1431V51.1415H92.2671Z" fill="black"/>
<path d="M104.267 119.141C104.321 118.861 104.473 118.578 104.562 118.32C104.65 118.026 104.805 117.742 104.952 117.478C105.038 117.298 105.228 117.175 105.325 117.012C105.417 116.813 105.507 116.589 105.653 116.343C106.245 115.451 107.38 114.854 108.349 114.422C108.938 114.159 109.588 114.088 110.215 114.058C111.305 113.919 112.44 114.041 113.517 114.31C114.275 114.484 115.061 114.965 115.795 115.391C116.443 115.79 117.244 116.297 117.667 116.879C118.055 117.319 118.287 117.819 118.528 118.357C118.781 118.836 118.882 119.295 118.969 119.81C119.041 120.233 118.963 120.75 118.972 121.199C119.002 121.884 118.894 122.552 118.692 123.181C118.574 123.636 118.365 124.095 118.155 124.507C117.971 124.919 117.769 125.178 117.416 125.548C117.12 125.878 116.762 126.216 116.37 126.493C115.485 127.129 114.687 127.616 113.718 127.833C112.507 128.074 111.16 128.021 109.947 127.883C108.917 127.778 107.74 127.185 106.873 126.622C106.286 126.209 105.636 125.776 105.186 125.205C104.9 124.854 104.618 124.483 104.434 124.086C104.27 123.731 104.075 123.467 104.034 123.082C103.972 122.337 104.032 121.628 104 120.874C104.028 120.306 104.167 119.714 104.264 119.158L104.268 119.143V119.141H104.267Z" fill="black"/>
<path d="M1.2671 101.141C1.32102 100.861 1.47282 100.578 1.56158 100.32C1.65033 100.026 1.80545 99.7424 1.95227 99.4784C2.03771 99.298 2.22767 99.1749 2.32472 99.0123C2.41679 98.8134 2.50721 98.5889 2.65321 98.3433C3.24464 97.4506 4.38024 96.8541 5.3491 96.4218C5.93805 96.1594 6.58838 96.0878 7.21466 96.058C8.30463 95.9187 9.44023 96.0411 10.5169 96.3099C11.2751 96.4838 12.0606 96.9652 12.7948 97.391C13.4434 97.7895 14.2439 98.2975 14.6669 98.8786C15.0552 99.319 15.2866 99.8189 15.528 100.357C15.781 100.836 15.8822 101.295 15.9693 101.81C16.0414 102.233 15.9626 102.75 15.9718 103.199C16.0016 103.884 15.8938 104.552 15.6922 105.181C15.5744 105.636 15.3646 106.095 15.1547 106.507C14.9714 106.919 14.769 107.178 14.4164 107.548C14.1203 107.878 13.762 108.216 13.3704 108.493C12.4845 109.129 11.6865 109.616 10.7185 109.833C9.50742 110.074 8.1603 110.021 6.94673 109.883C5.91731 109.778 4.74024 109.185 3.87258 108.622C3.28612 108.209 2.63579 107.776 2.18619 107.205C1.90001 106.854 1.61798 106.483 1.43383 106.086C1.27042 105.731 1.07548 105.467 1.03401 105.082C0.971795 104.337 1.03235 103.628 1 102.874C1.0282 102.306 1.16673 101.714 1.26378 101.158L1.26793 101.143V101.141H1.2671Z" fill="black"/>
<path d="M24.2671 164.141C24.321 163.861 24.4728 163.578 24.5616 163.32C24.6503 163.026 24.8054 162.742 24.9523 162.478C25.0377 162.298 25.2277 162.175 25.3247 162.012C25.4168 161.813 25.5072 161.589 25.6532 161.343C26.2446 160.451 27.3802 159.854 28.3491 159.422C28.9381 159.159 29.5884 159.088 30.2147 159.058C31.3046 158.919 32.4402 159.041 33.5169 159.31C34.2751 159.484 35.0606 159.965 35.7948 160.391C36.4434 160.79 37.2439 161.297 37.6669 161.879C38.0552 162.319 38.2866 162.819 38.528 163.357C38.781 163.836 38.8822 164.295 38.9693 164.81C39.0414 165.233 38.9626 165.75 38.9718 166.199C39.0016 166.884 38.8938 167.552 38.6922 168.181C38.5744 168.636 38.3646 169.095 38.1547 169.507C37.9714 169.919 37.769 170.178 37.4164 170.548C37.1203 170.878 36.762 171.216 36.3704 171.493C35.4845 172.129 34.6865 172.616 33.7185 172.833C32.5074 173.074 31.1603 173.021 29.9467 172.883C28.9173 172.778 27.7402 172.185 26.8726 171.622C26.2861 171.209 25.6358 170.776 25.1862 170.205C24.9 169.854 24.618 169.483 24.4338 169.086C24.2704 168.731 24.0755 168.467 24.034 168.082C23.9718 167.337 24.0324 166.628 24 165.874C24.0282 165.306 24.1667 164.714 24.2638 164.158L24.2679 164.143V164.141H24.2671Z" fill="black"/>
<path d="M70.2671 200.141C70.321 199.861 70.4728 199.578 70.5616 199.32C70.6503 199.026 70.8054 198.742 70.9523 198.478C71.0377 198.298 71.2277 198.175 71.3247 198.012C71.4168 197.813 71.5072 197.589 71.6532 197.343C72.2446 196.451 73.3802 195.854 74.3491 195.422C74.9381 195.159 75.5884 195.088 76.2147 195.058C77.3046 194.919 78.4402 195.041 79.5169 195.31C80.2751 195.484 81.0606 195.965 81.7948 196.391C82.4434 196.79 83.2439 197.297 83.6669 197.879C84.0552 198.319 84.2866 198.819 84.528 199.357C84.781 199.836 84.8822 200.295 84.9693 200.81C85.0414 201.233 84.9626 201.75 84.9718 202.199C85.0016 202.884 84.8938 203.552 84.6922 204.181C84.5744 204.636 84.3646 205.095 84.1547 205.507C83.9714 205.919 83.769 206.178 83.4164 206.548C83.1203 206.878 82.762 207.216 82.3704 207.493C81.4845 208.129 80.6865 208.616 79.7185 208.833C78.5074 209.074 77.1603 209.021 75.9467 208.883C74.9173 208.778 73.7402 208.185 72.8726 207.622C72.2861 207.209 71.6358 206.776 71.1862 206.205C70.9 205.854 70.618 205.483 70.4338 205.086C70.2704 204.731 70.0755 204.467 70.034 204.082C69.9718 203.337 70.0324 202.628 70 201.874C70.0282 201.306 70.1667 200.714 70.2638 200.158L70.2679 200.143V200.141H70.2671Z" fill="black"/>
<path d="M6.2671 150.141C6.32102 149.861 6.47282 149.578 6.56158 149.32C6.65033 149.026 6.80545 148.742 6.95227 148.478C7.03771 148.298 7.22767 148.175 7.32472 148.012C7.41679 147.813 7.50721 147.589 7.65321 147.343C8.24464 146.451 9.38024 145.854 10.3491 145.422C10.9381 145.159 11.5884 145.088 12.2147 145.058C13.3046 144.919 14.4402 145.041 15.5169 145.31C16.2751 145.484 17.0606 145.965 17.7948 146.391C18.4434 146.79 19.2439 147.297 19.6669 147.879C20.0552 148.319 20.2866 148.819 20.528 149.357C20.781 149.836 20.8822 150.295 20.9693 150.81C21.0414 151.233 20.9626 151.75 20.9718 152.199C21.0016 152.884 20.8938 153.552 20.6922 154.181C20.5744 154.636 20.3646 155.095 20.1547 155.507C19.9714 155.919 19.769 156.178 19.4164 156.548C19.1203 156.878 18.762 157.216 18.3704 157.493C17.4845 158.129 16.6865 158.616 15.7185 158.833C14.5074 159.074 13.1603 159.021 11.9467 158.883C10.9173 158.778 9.74024 158.185 8.87258 157.622C8.28612 157.209 7.63579 156.776 7.18619 156.205C6.90001 155.854 6.61798 155.483 6.43383 155.086C6.27042 154.731 6.07548 154.467 6.03401 154.082C5.97179 153.337 6.03235 152.628 6 151.874C6.0282 151.306 6.16673 150.714 6.26378 150.158L6.26793 150.143V150.141H6.2671Z" fill="black"/>
</svg>
