<svg width="93" height="24" viewBox="0 0 93 24" fill="none" xmlns="http://www.w3.org/2000/svg">
<path d="M21.0382 7.92023C20.4942 7.92023 19.9822 7.82023 19.5022 7.62023C19.0302 7.41223 18.6182 7.13223 18.2662 6.78023C17.9222 6.42023 17.6462 6.00023 17.4382 5.52023C17.2382 5.03223 17.1382 4.51223 17.1382 3.96023C17.1382 3.40823 17.2382 2.89223 17.4382 2.41223C17.6462 1.92423 17.9222 1.50423 18.2662 1.15223C18.6182 0.792234 19.0302 0.512234 19.5022 0.312234C19.9822 0.104234 20.4942 0.000233889 21.0382 0.000233889C21.5822 0.000233889 22.0902 0.104234 22.5622 0.312234C23.0422 0.512234 23.4582 0.792234 23.8102 1.15223C24.1622 1.50423 24.4382 1.92423 24.6382 2.41223C24.8462 2.89223 24.9502 3.40823 24.9502 3.96023C24.9502 4.51223 24.8462 5.03223 24.6382 5.52023C24.4382 6.00023 24.1622 6.42023 23.8102 6.78023C23.4582 7.13223 23.0422 7.41223 22.5622 7.62023C22.0902 7.82023 21.5822 7.92023 21.0382 7.92023ZM21.0382 7.00823C21.4622 7.00823 21.8542 6.93223 22.2142 6.78023C22.5742 6.62823 22.8822 6.42023 23.1382 6.15623C23.4022 5.88423 23.6062 5.56423 23.7502 5.19623C23.8942 4.82023 23.9662 4.40823 23.9662 3.96023C23.9662 3.51223 23.8942 3.10423 23.7502 2.73623C23.6062 2.36023 23.4022 2.04023 23.1382 1.77623C22.8822 1.50423 22.5742 1.29223 22.2142 1.14023C21.8542 0.988234 21.4622 0.912234 21.0382 0.912234C20.6142 0.912234 20.2222 0.988234 19.8622 1.14023C19.5022 1.29223 19.1942 1.50423 18.9382 1.77623C18.6822 2.04023 18.4822 2.36023 18.3382 2.73623C18.1942 3.10423 18.1222 3.51223 18.1222 3.96023C18.1222 4.40823 18.1942 4.82023 18.3382 5.19623C18.4822 5.56423 18.6822 5.88423 18.9382 6.15623C19.1942 6.42023 19.5022 6.62823 19.8622 6.78023C20.2222 6.93223 20.6142 7.00823 21.0382 7.00823ZM26.2438 7.74023V2.82023H27.2038V3.91223C27.3798 3.48023 27.6318 3.16023 27.9598 2.95223C28.2958 2.74423 28.6558 2.64023 29.0398 2.64023C29.5758 2.64023 30.0078 2.83223 30.3358 3.21623C30.6638 3.59223 30.8278 4.12823 30.8278 4.82423V7.74023H29.8678V5.06423C29.8678 4.58423 29.7758 4.21223 29.5918 3.94823C29.4078 3.67623 29.1118 3.54023 28.7038 3.54023C28.2718 3.54023 27.9118 3.69623 27.6238 4.00823C27.3438 4.32023 27.2038 4.78823 27.2038 5.41223V7.74023H26.2438ZM34.7324 7.92023C34.3404 7.92023 33.9844 7.85623 33.6644 7.72823C33.3524 7.59223 33.0884 7.40823 32.8724 7.17623C32.6564 6.93623 32.4884 6.65623 32.3684 6.33623C32.2484 6.00823 32.1884 5.65623 32.1884 5.28023C32.1884 4.88823 32.2524 4.53223 32.3804 4.21223C32.5084 3.88423 32.6844 3.60423 32.9084 3.37223C33.1404 3.14023 33.4084 2.96023 33.7124 2.83223C34.0244 2.70423 34.3604 2.64023 34.7204 2.64023C35.4244 2.64023 36.0044 2.87223 36.4604 3.33623C36.9244 3.79223 37.1564 4.40023 37.1564 5.16023C37.1564 5.22423 37.1524 5.28823 37.1444 5.35223C37.1444 5.41623 37.1404 5.47623 37.1324 5.53223H33.1844C33.2244 6.00423 33.3804 6.38023 33.6524 6.66023C33.9244 6.94023 34.2844 7.08023 34.7324 7.08023C35.0684 7.08023 35.3564 7.00423 35.5964 6.85223C35.8444 6.70023 36.0044 6.50023 36.0764 6.25223H37.0604C36.9164 6.75623 36.6404 7.16023 36.2324 7.46423C35.8324 7.76823 35.3324 7.92023 34.7324 7.92023ZM34.7204 3.48023C34.3284 3.48023 34.0004 3.58823 33.7364 3.80423C33.4724 4.01223 33.3004 4.32823 33.2204 4.75223H36.1604C36.1284 4.34423 35.9804 4.03223 35.7164 3.81623C35.4524 3.59223 35.1204 3.48023 34.7204 3.48023ZM40.835 7.74023V0.180234H43.199C44.175 0.180234 44.907 0.388234 45.395 0.804234C45.883 1.22023 46.127 1.76823 46.127 2.44823C46.127 2.95223 45.967 3.41623 45.647 3.84023C45.327 4.25623 44.819 4.52823 44.123 4.65623L46.475 7.74023H45.287L43.019 4.72823H41.795V7.74023H40.835ZM43.259 1.08023H41.795V3.82823H43.331C43.971 3.82823 44.427 3.71623 44.699 3.49223C44.979 3.26023 45.119 2.91623 45.119 2.46023C45.119 2.01223 44.951 1.67223 44.615 1.44023C44.287 1.20023 43.835 1.08023 43.259 1.08023ZM49.5918 7.92023C49.1998 7.92023 48.8438 7.85623 48.5238 7.72823C48.2118 7.59223 47.9478 7.40823 47.7318 7.17623C47.5158 6.93623 47.3478 6.65623 47.2278 6.33623C47.1078 6.00823 47.0478 5.65623 47.0478 5.28023C47.0478 4.88823 47.1118 4.53223 47.2398 4.21223C47.3678 3.88423 47.5438 3.60423 47.7678 3.37223C47.9998 3.14023 48.2678 2.96023 48.5718 2.83223C48.8838 2.70423 49.2198 2.64023 49.5798 2.64023C50.2838 2.64023 50.8638 2.87223 51.3198 3.33623C51.7838 3.79223 52.0158 4.40023 52.0158 5.16023C52.0158 5.22423 52.0118 5.28823 52.0038 5.35223C52.0038 5.41623 51.9998 5.47623 51.9918 5.53223H48.0438C48.0838 6.00423 48.2398 6.38023 48.5118 6.66023C48.7838 6.94023 49.1438 7.08023 49.5918 7.08023C49.9278 7.08023 50.2158 7.00423 50.4558 6.85223C50.7038 6.70023 50.8638 6.50023 50.9358 6.25223H51.9198C51.7758 6.75623 51.4998 7.16023 51.0918 7.46423C50.6918 7.76823 50.1918 7.92023 49.5918 7.92023ZM49.5798 3.48023C49.1878 3.48023 48.8598 3.58823 48.5958 3.80423C48.3318 4.01223 48.1598 4.32823 48.0798 4.75223H51.0198C50.9878 4.34423 50.8398 4.03223 50.5758 3.81623C50.3118 3.59223 49.9798 3.48023 49.5798 3.48023ZM52.8061 3.66023V2.82023H54.1741V0.780234H55.1221V2.82023H56.9461V3.66023H55.1221V5.91623C55.1221 6.30023 55.2021 6.58023 55.3621 6.75623C55.5221 6.93223 55.7741 7.02023 56.1181 7.02023C56.2541 7.02023 56.3901 7.01223 56.5261 6.99623C56.6621 6.97223 56.8021 6.94423 56.9461 6.91223V7.83623C56.7861 7.86823 56.6301 7.88823 56.4781 7.89623C56.3261 7.91223 56.1821 7.92023 56.0461 7.92023C55.4061 7.92023 54.9341 7.76823 54.6301 7.46423C54.3261 7.15223 54.1741 6.68023 54.1741 6.04823V3.66023H52.8061ZM59.1823 2.82023V5.76023C59.1823 6.16023 59.2623 6.47223 59.4223 6.69623C59.5903 6.91223 59.8583 7.02023 60.2263 7.02023C60.6263 7.02023 60.9543 6.86423 61.2103 6.55223C61.4743 6.24023 61.6063 5.77223 61.6063 5.14823V2.82023H62.5663V7.74023H61.6063V6.68423C61.4383 7.10823 61.1983 7.42023 60.8863 7.62023C60.5743 7.82023 60.2343 7.92023 59.8663 7.92023C59.3783 7.92023 58.9823 7.75223 58.6783 7.41623C58.3743 7.08023 58.2223 6.60823 58.2223 6.00023V2.82023H59.1823ZM64.3648 7.74023V2.82023H65.3128V3.86423C65.4888 3.45623 65.7288 3.15223 66.0328 2.95223C66.3448 2.74423 66.6968 2.64023 67.0888 2.64023C67.1688 2.64023 67.2408 2.64823 67.3048 2.66423C67.3688 2.67223 67.4248 2.68023 67.4728 2.68823V3.78023C67.3448 3.75623 67.2128 3.73623 67.0768 3.72023C66.9488 3.70423 66.8208 3.69623 66.6928 3.69623C66.2048 3.69623 65.8528 3.84823 65.6368 4.15223C65.4208 4.45623 65.3128 4.95223 65.3128 5.64023V7.74023H64.3648ZM68.3609 7.74023V2.82023H69.3209V3.91223C69.4969 3.48023 69.7489 3.16023 70.0769 2.95223C70.4129 2.74423 70.7729 2.64023 71.1569 2.64023C71.6929 2.64023 72.1249 2.83223 72.4529 3.21623C72.7809 3.59223 72.9449 4.12823 72.9449 4.82423V7.74023H71.9849V5.06423C71.9849 4.58423 71.8929 4.21223 71.7089 3.94823C71.5249 3.67623 71.2289 3.54023 70.8209 3.54023C70.3889 3.54023 70.0289 3.69623 69.7409 4.00823C69.4609 4.32023 69.3209 4.78823 69.3209 5.41223V7.74023H68.3609ZM74.9176 6.45623H76.0096C76.0096 6.72023 75.9896 6.96823 75.9496 7.20023C75.9096 7.43223 75.8456 7.67223 75.7576 7.92023C75.6696 8.17623 75.5576 8.45623 75.4216 8.76023C75.2856 9.07223 75.1176 9.43623 74.9176 9.85223H74.1256C74.3656 9.20423 74.5576 8.60423 74.7016 8.05223C74.8456 7.50823 74.9176 6.97623 74.9176 6.45623ZM5.86831 20.7402L5.04031 18.6762H1.83631L1.02031 20.7402H0.000312507L3.06031 13.1802H3.85231L6.93631 20.7402H5.86831ZM2.19631 17.7762H4.68031L3.43231 14.6562L2.19631 17.7762ZM8.07969 20.7402V15.8202H9.03969V16.9122C9.21569 16.4802 9.46769 16.1602 9.79569 15.9522C10.1317 15.7442 10.4917 15.6402 10.8757 15.6402C11.4117 15.6402 11.8437 15.8322 12.1717 16.2162C12.4997 16.5922 12.6637 17.1282 12.6637 17.8242V20.7402H11.7037V18.0642C11.7037 17.5842 11.6117 17.2122 11.4277 16.9482C11.2437 16.6762 10.9477 16.5402 10.5397 16.5402C10.1077 16.5402 9.74769 16.6962 9.45969 17.0082C9.17969 17.3202 9.03969 17.7882 9.03969 18.4122V20.7402H8.07969ZM16.6884 20.9202C16.3204 20.9202 15.9724 20.8562 15.6444 20.7282C15.3244 20.6002 15.0444 20.4202 14.8044 20.1882C14.5644 19.9562 14.3724 19.6802 14.2284 19.3602C14.0924 19.0322 14.0244 18.6722 14.0244 18.2802C14.0244 17.8882 14.0924 17.5322 14.2284 17.2122C14.3724 16.8842 14.5644 16.6042 14.8044 16.3722C15.0524 16.1402 15.3364 15.9602 15.6564 15.8322C15.9844 15.7042 16.3284 15.6402 16.6884 15.6402C17.0484 15.6402 17.3884 15.7042 17.7084 15.8322C18.0364 15.9602 18.3204 16.1402 18.5604 16.3722C18.8084 16.6042 19.0004 16.8842 19.1364 17.2122C19.2804 17.5322 19.3524 17.8882 19.3524 18.2802C19.3524 18.6722 19.2804 19.0322 19.1364 19.3602C19.0004 19.6802 18.8124 19.9562 18.5724 20.1882C18.3324 20.4202 18.0484 20.6002 17.7204 20.7282C17.4004 20.8562 17.0564 20.9202 16.6884 20.9202ZM16.6884 20.0562C17.1764 20.0562 17.5764 19.9002 17.8884 19.5882C18.2084 19.2762 18.3684 18.8402 18.3684 18.2802C18.3684 17.7202 18.2084 17.2842 17.8884 16.9722C17.5684 16.6602 17.1684 16.5042 16.6884 16.5042C16.2084 16.5042 15.8084 16.6602 15.4884 16.9722C15.1684 17.2842 15.0084 17.7202 15.0084 18.2802C15.0084 18.8402 15.1644 19.2762 15.4764 19.5882C15.7964 19.9002 16.2004 20.0562 16.6884 20.0562ZM20.1225 16.6602V15.8202H21.4905V13.7802H22.4385V15.8202H24.2625V16.6602H22.4385V18.9162C22.4385 19.3002 22.5185 19.5802 22.6785 19.7562C22.8385 19.9322 23.0905 20.0202 23.4345 20.0202C23.5705 20.0202 23.7065 20.0122 23.8425 19.9962C23.9785 19.9722 24.1185 19.9442 24.2625 19.9122V20.8362C24.1025 20.8682 23.9465 20.8882 23.7945 20.8962C23.6425 20.9122 23.4985 20.9202 23.3625 20.9202C22.7225 20.9202 22.2505 20.7682 21.9465 20.4642C21.6425 20.1522 21.4905 19.6802 21.4905 19.0482V16.6602H20.1225ZM25.6227 20.7402V12.5802H26.5827V16.9122C26.7587 16.4802 27.0107 16.1602 27.3387 15.9522C27.6747 15.7442 28.0347 15.6402 28.4187 15.6402C28.9547 15.6402 29.3867 15.8322 29.7147 16.2162C30.0427 16.5922 30.2067 17.1282 30.2067 17.8242V20.7402H29.2467V18.0642C29.2467 17.5842 29.1547 17.2122 28.9707 16.9482C28.7867 16.6762 28.4907 16.5402 28.0827 16.5402C27.6507 16.5402 27.2907 16.6962 27.0027 17.0082C26.7227 17.3202 26.5827 17.7882 26.5827 18.4122V20.7402H25.6227ZM34.1113 20.9202C33.7193 20.9202 33.3633 20.8562 33.0433 20.7282C32.7313 20.5922 32.4673 20.4082 32.2513 20.1762C32.0353 19.9362 31.8673 19.6562 31.7473 19.3362C31.6273 19.0082 31.5673 18.6562 31.5673 18.2802C31.5673 17.8882 31.6313 17.5322 31.7593 17.2122C31.8873 16.8842 32.0633 16.6042 32.2873 16.3722C32.5193 16.1402 32.7873 15.9602 33.0913 15.8322C33.4033 15.7042 33.7393 15.6402 34.0993 15.6402C34.8033 15.6402 35.3833 15.8722 35.8393 16.3362C36.3033 16.7922 36.5353 17.4002 36.5353 18.1602C36.5353 18.2242 36.5313 18.2882 36.5233 18.3522C36.5233 18.4162 36.5193 18.4762 36.5113 18.5322H32.5633C32.6033 19.0042 32.7593 19.3802 33.0313 19.6602C33.3033 19.9402 33.6633 20.0802 34.1113 20.0802C34.4473 20.0802 34.7353 20.0042 34.9753 19.8522C35.2233 19.7002 35.3833 19.5002 35.4553 19.2522H36.4393C36.2953 19.7562 36.0193 20.1602 35.6113 20.4642C35.2113 20.7682 34.7113 20.9202 34.1113 20.9202ZM34.0993 16.4802C33.7073 16.4802 33.3793 16.5882 33.1153 16.8042C32.8513 17.0122 32.6793 17.3282 32.5993 17.7522H35.5393C35.5073 17.3442 35.3593 17.0322 35.0953 16.8162C34.8313 16.5922 34.4993 16.4802 34.0993 16.4802ZM37.9977 20.7402V15.8202H38.9457V16.8642C39.1217 16.4562 39.3617 16.1522 39.6657 15.9522C39.9777 15.7442 40.3297 15.6402 40.7217 15.6402C40.8017 15.6402 40.8737 15.6482 40.9377 15.6642C41.0017 15.6722 41.0577 15.6802 41.1057 15.6882V16.7802C40.9777 16.7562 40.8457 16.7362 40.7097 16.7202C40.5817 16.7042 40.4537 16.6962 40.3257 16.6962C39.8377 16.6962 39.4857 16.8482 39.2697 17.1522C39.0537 17.4562 38.9457 17.9522 38.9457 18.6402V20.7402H37.9977ZM44.1163 20.7402V13.1802H46.7683C47.5523 13.1802 48.1363 13.3602 48.5203 13.7202C48.9123 14.0802 49.1083 14.5602 49.1083 15.1602C49.1083 15.4482 49.0403 15.7362 48.9043 16.0242C48.7683 16.3122 48.5283 16.5482 48.1843 16.7322C48.6963 16.9322 49.0363 17.2042 49.2043 17.5482C49.3803 17.8922 49.4683 18.2202 49.4683 18.5322C49.4683 19.1722 49.2683 19.7002 48.8683 20.1162C48.4683 20.5322 47.8563 20.7402 47.0323 20.7402H44.1163ZM46.6003 14.0802H45.0763V16.4682H46.6723C47.2003 16.4682 47.5683 16.3762 47.7763 16.1922C47.9923 16.0002 48.1003 15.6962 48.1003 15.2802C48.1003 14.8642 47.9683 14.5602 47.7043 14.3682C47.4483 14.1762 47.0803 14.0802 46.6003 14.0802ZM46.8643 17.3322H45.0763V19.8402H46.9003C47.4683 19.8402 47.8683 19.7362 48.1003 19.5282C48.3403 19.3122 48.4603 19.0002 48.4603 18.5922C48.4603 18.1842 48.3363 17.8722 48.0883 17.6562C47.8483 17.4402 47.4403 17.3322 46.8643 17.3322ZM53.0371 20.9202C52.6451 20.9202 52.2891 20.8562 51.9691 20.7282C51.6571 20.5922 51.3931 20.4082 51.1771 20.1762C50.9611 19.9362 50.7931 19.6562 50.6731 19.3362C50.5531 19.0082 50.4931 18.6562 50.4931 18.2802C50.4931 17.8882 50.5571 17.5322 50.6851 17.2122C50.8131 16.8842 50.9891 16.6042 51.2131 16.3722C51.4451 16.1402 51.7131 15.9602 52.0171 15.8322C52.3291 15.7042 52.6651 15.6402 53.0251 15.6402C53.7291 15.6402 54.3091 15.8722 54.7651 16.3362C55.2291 16.7922 55.4611 17.4002 55.4611 18.1602C55.4611 18.2242 55.4571 18.2882 55.4491 18.3522C55.4491 18.4162 55.4451 18.4762 55.4371 18.5322H51.4891C51.5291 19.0042 51.6851 19.3802 51.9571 19.6602C52.2291 19.9402 52.5891 20.0802 53.0371 20.0802C53.3731 20.0802 53.6611 20.0042 53.9011 19.8522C54.1491 19.7002 54.3091 19.5002 54.3811 19.2522H55.3651C55.2211 19.7562 54.9451 20.1602 54.5371 20.4642C54.1371 20.7682 53.6371 20.9202 53.0371 20.9202ZM53.0251 16.4802C52.6331 16.4802 52.3051 16.5882 52.0411 16.8042C51.7771 17.0122 51.6051 17.3282 51.5251 17.7522H54.4651C54.4331 17.3442 54.2851 17.0322 54.0211 16.8162C53.7571 16.5922 53.4251 16.4802 53.0251 16.4802ZM56.6234 18.2802C56.6234 17.8562 56.6914 17.4802 56.8274 17.1522C56.9714 16.8162 57.1514 16.5402 57.3674 16.3242C57.5834 16.1002 57.8274 15.9322 58.0994 15.8202C58.3794 15.7002 58.6554 15.6402 58.9274 15.6402C59.2794 15.6402 59.6274 15.7362 59.9714 15.9282C60.3154 16.1122 60.5874 16.3962 60.7874 16.7802V15.8802H61.7474V20.3082C61.7474 21.1402 61.5234 21.8002 61.0754 22.2882C60.6354 22.7762 60.0114 23.0202 59.2034 23.0202C58.6274 23.0202 58.1114 22.8522 57.6554 22.5162C57.1994 22.1882 56.8674 21.7122 56.6594 21.0882L57.4874 20.6922C57.6874 21.2122 57.9234 21.5882 58.1954 21.8202C58.4674 22.0602 58.8034 22.1802 59.2034 22.1802C59.6754 22.1802 60.0554 22.0322 60.3434 21.7362C60.6394 21.4482 60.7874 21.0322 60.7874 20.4882V20.0082L60.7994 19.7442C60.6074 20.1362 60.3354 20.4322 59.9834 20.6322C59.6394 20.8242 59.2874 20.9202 58.9274 20.9202C58.6554 20.9202 58.3794 20.8602 58.0994 20.7402C57.8274 20.6282 57.5834 20.4642 57.3674 20.2482C57.1514 20.0242 56.9714 19.7482 56.8274 19.4202C56.6914 19.0842 56.6234 18.7042 56.6234 18.2802ZM59.1554 16.5402C58.6834 16.5402 58.3074 16.7082 58.0274 17.0442C57.7474 17.3802 57.6074 17.7922 57.6074 18.2802C57.6074 18.7682 57.7474 19.1802 58.0274 19.5162C58.3074 19.8522 58.6834 20.0202 59.1554 20.0202C59.6114 20.0202 59.9994 19.8682 60.3194 19.5642C60.6474 19.2602 60.8114 18.8322 60.8114 18.2802C60.8114 17.7282 60.6514 17.3002 60.3314 16.9962C60.0114 16.6922 59.6194 16.5402 59.1554 16.5402ZM64.0245 15.0042C63.8085 15.0042 63.6205 14.9282 63.4605 14.7762C63.3085 14.6242 63.2325 14.4362 63.2325 14.2122C63.2325 13.9882 63.3085 13.8002 63.4605 13.6482C63.6205 13.4962 63.8085 13.4202 64.0245 13.4202C64.2405 13.4202 64.4245 13.4962 64.5765 13.6482C64.7365 13.8002 64.8165 13.9882 64.8165 14.2122C64.8165 14.4362 64.7365 14.6242 64.5765 14.7762C64.4245 14.9282 64.2405 15.0042 64.0245 15.0042ZM63.5445 20.7402V15.8202H64.5045V20.7402H63.5445ZM66.3102 20.7402V15.8202H67.2702V16.9122C67.4462 16.4802 67.6982 16.1602 68.0262 15.9522C68.3622 15.7442 68.7222 15.6402 69.1062 15.6402C69.6422 15.6402 70.0742 15.8322 70.4022 16.2162C70.7302 16.5922 70.8942 17.1282 70.8942 17.8242V20.7402H69.9342V18.0642C69.9342 17.5842 69.8422 17.2122 69.6582 16.9482C69.4742 16.6762 69.1782 16.5402 68.7702 16.5402C68.3382 16.5402 67.9782 16.6962 67.6902 17.0082C67.4102 17.3202 67.2702 17.7882 67.2702 18.4122V20.7402H66.3102ZM72.6148 20.7402V15.8202H73.5748V16.9122C73.7508 16.4802 74.0028 16.1602 74.3308 15.9522C74.6668 15.7442 75.0268 15.6402 75.4108 15.6402C75.9468 15.6402 76.3788 15.8322 76.7068 16.2162C77.0348 16.5922 77.1988 17.1282 77.1988 17.8242V20.7402H76.2388V18.0642C76.2388 17.5842 76.1468 17.2122 75.9628 16.9482C75.7788 16.6762 75.4828 16.5402 75.0748 16.5402C74.6428 16.5402 74.2828 16.6962 73.9948 17.0082C73.7148 17.3202 73.5748 17.7882 73.5748 18.4122V20.7402H72.6148ZM79.3995 15.0042C79.1835 15.0042 78.9955 14.9282 78.8355 14.7762C78.6835 14.6242 78.6075 14.4362 78.6075 14.2122C78.6075 13.9882 78.6835 13.8002 78.8355 13.6482C78.9955 13.4962 79.1835 13.4202 79.3995 13.4202C79.6155 13.4202 79.7995 13.4962 79.9515 13.6482C80.1115 13.8002 80.1915 13.9882 80.1915 14.2122C80.1915 14.4362 80.1115 14.6242 79.9515 14.7762C79.7995 14.9282 79.6155 15.0042 79.3995 15.0042ZM78.9195 20.7402V15.8202H79.8795V20.7402H78.9195ZM81.6852 20.7402V15.8202H82.6452V16.9122C82.8212 16.4802 83.0732 16.1602 83.4012 15.9522C83.7372 15.7442 84.0972 15.6402 84.4812 15.6402C85.0172 15.6402 85.4492 15.8322 85.7772 16.2162C86.1052 16.5922 86.2692 17.1282 86.2692 17.8242V20.7402H85.3092V18.0642C85.3092 17.5842 85.2172 17.2122 85.0332 16.9482C84.8492 16.6762 84.5532 16.5402 84.1452 16.5402C83.7132 16.5402 83.3532 16.6962 83.0652 17.0082C82.7852 17.3202 82.6452 17.7882 82.6452 18.4122V20.7402H81.6852ZM87.6898 18.2802C87.6898 17.8562 87.7578 17.4802 87.8938 17.1522C88.0378 16.8162 88.2178 16.5402 88.4338 16.3242C88.6498 16.1002 88.8938 15.9322 89.1658 15.8202C89.4458 15.7002 89.7218 15.6402 89.9938 15.6402C90.3458 15.6402 90.6938 15.7362 91.0378 15.9282C91.3818 16.1122 91.6538 16.3962 91.8538 16.7802V15.8802H92.8138V20.3082C92.8138 21.1402 92.5898 21.8002 92.1418 22.2882C91.7018 22.7762 91.0778 23.0202 90.2698 23.0202C89.6938 23.0202 89.1778 22.8522 88.7218 22.5162C88.2658 22.1882 87.9338 21.7122 87.7258 21.0882L88.5538 20.6922C88.7538 21.2122 88.9898 21.5882 89.2618 21.8202C89.5338 22.0602 89.8698 22.1802 90.2698 22.1802C90.7418 22.1802 91.1218 22.0322 91.4098 21.7362C91.7058 21.4482 91.8538 21.0322 91.8538 20.4882V20.0082L91.8658 19.7442C91.6738 20.1362 91.4018 20.4322 91.0498 20.6322C90.7058 20.8242 90.3538 20.9202 89.9938 20.9202C89.7218 20.9202 89.4458 20.8602 89.1658 20.7402C88.8938 20.6282 88.6498 20.4642 88.4338 20.2482C88.2178 20.0242 88.0378 19.7482 87.8938 19.4202C87.7578 19.0842 87.6898 18.7042 87.6898 18.2802ZM90.2218 16.5402C89.7498 16.5402 89.3738 16.7082 89.0938 17.0442C88.8138 17.3802 88.6738 17.7922 88.6738 18.2802C88.6738 18.7682 88.8138 19.1802 89.0938 19.5162C89.3738 19.8522 89.7498 20.0202 90.2218 20.0202C90.6778 20.0202 91.0658 19.8682 91.3858 19.5642C91.7138 19.2602 91.8778 18.8322 91.8778 18.2802C91.8778 17.7282 91.7178 17.3002 91.3978 16.9962C91.0778 16.6922 90.6858 16.5402 90.2218 16.5402Z" fill="#1D7BBF"/>
</svg>
