<svg width="96" height="33" viewBox="0 0 96 33" fill="none" xmlns="http://www.w3.org/2000/svg">
<path d="M4.34869 4.208H4.99752C4.95632 4.50152 4.87136 4.76671 4.74262 5.00359C4.61389 5.24046 4.45168 5.44129 4.256 5.60607C4.06032 5.77085 3.83117 5.89701 3.56855 5.98455C3.31108 6.07209 3.03301 6.11586 2.73434 6.11586C2.37903 6.11586 2.04947 6.05149 1.74566 5.92276C1.44184 5.79402 1.17922 5.61637 0.957793 5.38979C0.736368 5.16322 0.563862 4.89545 0.440276 4.58648C0.31669 4.27237 0.254897 3.93251 0.254897 3.5669C0.254897 3.19614 0.31669 2.8537 0.440276 2.53959C0.563862 2.22547 0.733793 1.9577 0.950069 1.73628C1.16634 1.5097 1.42639 1.33462 1.73021 1.21103C2.03917 1.0823 2.37389 1.01793 2.73434 1.01793C3.03301 1.01793 3.31108 1.06428 3.56855 1.15697C3.83117 1.24451 4.06032 1.37067 4.256 1.53545C4.45683 1.69508 4.62161 1.89333 4.75035 2.13021C4.87908 2.36708 4.96405 2.63228 5.00524 2.92579H4.34869C4.2972 2.51384 4.12469 2.18942 3.83117 1.95255C3.53766 1.71568 3.16175 1.59724 2.70345 1.59724C2.15761 1.59724 1.71733 1.77747 1.38262 2.13793C1.05306 2.49839 0.888276 2.97471 0.888276 3.5669C0.888276 4.15908 1.05306 4.6354 1.38262 4.99586C1.71733 5.35632 2.15761 5.53655 2.70345 5.53655C3.16175 5.53655 3.53766 5.41811 3.83117 5.18124C4.12469 4.94437 4.2972 4.61995 4.34869 4.208ZM7.29726 6.11586C7.06039 6.11586 6.83639 6.07467 6.62526 5.99228C6.41928 5.90989 6.23905 5.79402 6.08457 5.64469C5.93009 5.49536 5.8065 5.3177 5.71381 5.11172C5.62627 4.9006 5.5825 4.66887 5.5825 4.41655C5.5825 4.16423 5.62627 3.93508 5.71381 3.7291C5.8065 3.51798 5.93009 3.33775 6.08457 3.18841C6.2442 3.03908 6.42701 2.92322 6.63298 2.84083C6.84411 2.75844 7.06553 2.71724 7.29726 2.71724C7.52898 2.71724 7.74783 2.75844 7.95381 2.84083C8.16494 2.92322 8.34774 3.03908 8.50222 3.18841C8.66186 3.33775 8.78544 3.51798 8.87298 3.7291C8.96567 3.93508 9.01202 4.16423 9.01202 4.41655C9.01202 4.66887 8.96567 4.9006 8.87298 5.11172C8.78544 5.3177 8.66443 5.49536 8.50995 5.64469C8.35547 5.79402 8.17266 5.90989 7.96153 5.99228C7.75556 6.07467 7.53413 6.11586 7.29726 6.11586ZM7.29726 5.55972C7.61137 5.55972 7.86885 5.45931 8.06967 5.25848C8.27565 5.05766 8.37864 4.77701 8.37864 4.41655C8.37864 4.05609 8.27565 3.77545 8.06967 3.57462C7.8637 3.37379 7.60622 3.27338 7.29726 3.27338C6.98829 3.27338 6.73082 3.37379 6.52484 3.57462C6.31887 3.77545 6.21588 4.05609 6.21588 4.41655C6.21588 4.77701 6.31629 5.05766 6.51712 5.25848C6.7231 5.45931 6.98314 5.55972 7.29726 5.55972ZM9.9403 6V2.8331H10.5505V3.5051C10.6638 3.24248 10.8183 3.0468 11.014 2.91807C11.2148 2.78418 11.4414 2.71724 11.6937 2.71724C11.7452 2.71724 11.7915 2.72239 11.8327 2.73269C11.8739 2.73784 11.91 2.74299 11.9409 2.74814V3.45103C11.8585 3.43559 11.7735 3.42271 11.686 3.41241C11.6036 3.40211 11.5212 3.39697 11.4388 3.39697C11.1247 3.39697 10.8981 3.4948 10.7591 3.69048C10.62 3.88616 10.5505 4.20543 10.5505 4.64828V6H9.9403ZM12.2962 4.41655C12.2962 4.14363 12.34 3.90161 12.4275 3.69048C12.5202 3.47421 12.6361 3.29655 12.7751 3.15752C12.9142 3.01333 13.0712 2.9052 13.2463 2.8331C13.4265 2.75586 13.6042 2.71724 13.7793 2.71724C14.0058 2.71724 14.2298 2.77903 14.4513 2.90262C14.6727 3.02106 14.8478 3.20386 14.9765 3.45103V0.747586H15.5944V6H14.9765V5.38207C14.8478 5.62924 14.6727 5.81462 14.4513 5.93821C14.2298 6.05664 14.0058 6.11586 13.7793 6.11586C13.6042 6.11586 13.4265 6.07724 13.2463 6C13.0712 5.92791 12.9142 5.82234 12.7751 5.68331C12.6361 5.53913 12.5202 5.36147 12.4275 5.15034C12.34 4.93407 12.2962 4.68947 12.2962 4.41655ZM13.926 3.29655C13.6222 3.29655 13.3802 3.40469 13.1999 3.62097C13.0197 3.83724 12.9296 4.10244 12.9296 4.41655C12.9296 4.73067 13.0197 4.99586 13.1999 5.21214C13.3802 5.42841 13.6222 5.53655 13.926 5.53655C14.2247 5.53655 14.477 5.43871 14.683 5.24303C14.889 5.04736 14.9919 4.77186 14.9919 4.41655C14.9919 4.06124 14.8864 3.78575 14.6753 3.59007C14.4693 3.39439 14.2195 3.29655 13.926 3.29655ZM16.5354 4.41655C16.5354 4.14363 16.5818 3.90161 16.6745 3.69048C16.7672 3.47421 16.8856 3.29655 17.0298 3.15752C17.174 3.01333 17.3362 2.9052 17.5164 2.8331C17.6966 2.75586 17.8769 2.71724 18.0571 2.71724C18.2785 2.71724 18.4948 2.77903 18.7059 2.90262C18.9222 3.02106 19.0921 3.20129 19.2157 3.44331V2.8331H19.8337V6H19.2157V5.38979C19.0921 5.63182 18.9222 5.81462 18.7059 5.93821C18.4948 6.05664 18.2785 6.11586 18.0571 6.11586C17.8769 6.11586 17.6966 6.07724 17.5164 6C17.3362 5.92791 17.174 5.82234 17.0298 5.68331C16.8856 5.53913 16.7672 5.36147 16.6745 5.15034C16.5818 4.93407 16.5354 4.68947 16.5354 4.41655ZM18.1652 3.29655C17.8614 3.29655 17.6194 3.40469 17.4392 3.62097C17.2589 3.83724 17.1688 4.10244 17.1688 4.41655C17.1688 4.73067 17.2589 4.99586 17.4392 5.21214C17.6194 5.42841 17.8614 5.53655 18.1652 5.53655C18.4588 5.53655 18.7085 5.43871 18.9145 5.24303C19.1256 5.04736 19.2312 4.77186 19.2312 4.41655C19.2312 4.06124 19.1282 3.78575 18.9222 3.59007C18.7162 3.39439 18.4639 3.29655 18.1652 3.29655ZM24.7811 3.77545H24.1554C24.1503 3.60037 24.0859 3.46648 23.9623 3.37379C23.8387 3.27595 23.6662 3.22703 23.4448 3.22703C23.2543 3.22703 23.1024 3.26051 22.9891 3.32745C22.8758 3.39439 22.8192 3.48708 22.8192 3.60552C22.8192 3.7188 22.8655 3.80892 22.9582 3.87586C23.056 3.9428 23.177 3.9943 23.3212 4.03034L24.0936 4.21572C24.3099 4.26722 24.4953 4.35733 24.6498 4.48607C24.8094 4.60966 24.8892 4.80018 24.8892 5.05766C24.8892 5.35117 24.7708 5.60092 24.5339 5.8069C24.297 6.01287 23.9701 6.11586 23.5529 6.11586C23.1513 6.11586 22.8114 6.0103 22.5334 5.79917C22.2553 5.58805 22.1137 5.31255 22.1085 4.97269H22.7342C22.7548 5.18897 22.8423 5.3486 22.9968 5.45159C23.1513 5.55457 23.3444 5.60607 23.5761 5.60607C23.7975 5.60607 23.9649 5.5623 24.0782 5.47476C24.1915 5.38722 24.2481 5.28166 24.2481 5.15807C24.2481 5.04478 24.2018 4.95724 24.1091 4.89545C24.0164 4.82851 23.898 4.77701 23.7538 4.74097L23.0895 4.57876C22.8681 4.52726 22.6672 4.432 22.487 4.29297C22.3068 4.14878 22.2167 3.93766 22.2167 3.65959C22.2167 3.37637 22.3248 3.14979 22.5411 2.97986C22.7625 2.80478 23.0663 2.71724 23.4525 2.71724C23.849 2.71724 24.1657 2.80993 24.4026 2.99531C24.6395 3.17554 24.7656 3.43559 24.7811 3.77545ZM25.3332 3.37379V2.8331H26.2137V1.52H26.8239V2.8331H27.998V3.37379H26.8239V4.82593C26.8239 5.0731 26.8754 5.25333 26.9784 5.36662C27.0814 5.47991 27.2436 5.53655 27.465 5.53655C27.5526 5.53655 27.6401 5.5314 27.7277 5.5211C27.8152 5.50566 27.9053 5.48763 27.998 5.46703V6.06179C27.895 6.08239 27.7946 6.09526 27.6968 6.10041C27.5989 6.11071 27.5062 6.11586 27.4187 6.11586C27.0067 6.11586 26.7029 6.01802 26.5073 5.82234C26.3116 5.62152 26.2137 5.3177 26.2137 4.9109V3.37379H25.3332ZM28.6572 4.41655C28.6572 4.14363 28.7036 3.90161 28.7963 3.69048C28.8889 3.47421 29.0074 3.29655 29.1516 3.15752C29.2957 3.01333 29.458 2.9052 29.6382 2.8331C29.8184 2.75586 29.9986 2.71724 30.1789 2.71724C30.4003 2.71724 30.6166 2.77903 30.8277 2.90262C31.044 3.02106 31.2139 3.20129 31.3375 3.44331V2.8331H31.9554V6H31.3375V5.38979C31.2139 5.63182 31.044 5.81462 30.8277 5.93821C30.6166 6.05664 30.4003 6.11586 30.1789 6.11586C29.9986 6.11586 29.8184 6.07724 29.6382 6C29.458 5.92791 29.2957 5.82234 29.1516 5.68331C29.0074 5.53913 28.8889 5.36147 28.7963 5.15034C28.7036 4.93407 28.6572 4.68947 28.6572 4.41655ZM30.287 3.29655C29.9832 3.29655 29.7412 3.40469 29.5609 3.62097C29.3807 3.83724 29.2906 4.10244 29.2906 4.41655C29.2906 4.73067 29.3807 4.99586 29.5609 5.21214C29.7412 5.42841 29.9832 5.53655 30.287 5.53655C30.5805 5.53655 30.8303 5.43871 31.0363 5.24303C31.2474 5.04736 31.3529 4.77186 31.3529 4.41655C31.3529 4.06124 31.25 3.78575 31.044 3.59007C30.838 3.39439 30.5857 3.29655 30.287 3.29655ZM33.1127 6V2.8331H33.7229V3.5051C33.8362 3.24248 33.9907 3.0468 34.1864 2.91807C34.3872 2.78418 34.6138 2.71724 34.8661 2.71724C34.9176 2.71724 34.9639 2.72239 35.0051 2.73269C35.0463 2.73784 35.0824 2.74299 35.1133 2.74814V3.45103C35.0309 3.43559 34.9459 3.42271 34.8584 3.41241C34.776 3.40211 34.6936 3.39697 34.6112 3.39697C34.2971 3.39697 34.0705 3.4948 33.9315 3.69048C33.7924 3.88616 33.7229 4.20543 33.7229 4.64828V6H33.1127ZM35.2524 3.37379V2.8331H36.1329V1.52H36.7431V2.8331H37.9172V3.37379H36.7431V4.82593C36.7431 5.0731 36.7946 5.25333 36.8976 5.36662C37.0006 5.47991 37.1628 5.53655 37.3842 5.53655C37.4718 5.53655 37.5593 5.5314 37.6468 5.5211C37.7344 5.50566 37.8245 5.48763 37.9172 5.46703V6.06179C37.8142 6.08239 37.7138 6.09526 37.616 6.10041C37.5181 6.11071 37.4254 6.11586 37.3379 6.11586C36.9259 6.11586 36.6221 6.01802 36.4264 5.82234C36.2308 5.62152 36.1329 5.3177 36.1329 4.9109V3.37379H35.2524ZM41.1949 3.77545H40.5692C40.5641 3.60037 40.4997 3.46648 40.3761 3.37379C40.2525 3.27595 40.08 3.22703 39.8586 3.22703C39.6681 3.22703 39.5162 3.26051 39.4029 3.32745C39.2896 3.39439 39.2329 3.48708 39.2329 3.60552C39.2329 3.7188 39.2793 3.80892 39.372 3.87586C39.4698 3.9428 39.5908 3.9943 39.735 4.03034L40.5074 4.21572C40.7237 4.26722 40.9091 4.35733 41.0636 4.48607C41.2232 4.60966 41.303 4.80018 41.303 5.05766C41.303 5.35117 41.1846 5.60092 40.9477 5.8069C40.7108 6.01287 40.3838 6.11586 39.9667 6.11586C39.5651 6.11586 39.2252 6.0103 38.9472 5.79917C38.6691 5.58805 38.5275 5.31255 38.5223 4.97269H39.148C39.1686 5.18897 39.2561 5.3486 39.4106 5.45159C39.5651 5.55457 39.7582 5.60607 39.9899 5.60607C40.2113 5.60607 40.3787 5.5623 40.492 5.47476C40.6053 5.38722 40.6619 5.28166 40.6619 5.15807C40.6619 5.04478 40.6156 4.95724 40.5229 4.89545C40.4302 4.82851 40.3118 4.77701 40.1676 4.74097L39.5033 4.57876C39.2819 4.52726 39.081 4.432 38.9008 4.29297C38.7206 4.14878 38.6305 3.93766 38.6305 3.65959C38.6305 3.37637 38.7386 3.14979 38.9549 2.97986C39.1763 2.80478 39.4801 2.71724 39.8663 2.71724C40.2628 2.71724 40.5795 2.80993 40.8164 2.99531C41.0533 3.17554 41.1794 3.43559 41.1949 3.77545ZM43.243 3.37379V2.8331H44.085V1.88303C44.085 1.48138 44.1725 1.17241 44.3476 0.956137C44.5227 0.739861 44.7879 0.631724 45.1432 0.631724C45.2771 0.631724 45.3878 0.644597 45.4753 0.670344C45.5629 0.696091 45.6478 0.726988 45.7302 0.763034V1.28828C45.6324 1.25223 45.5448 1.22391 45.4676 1.20331C45.3904 1.18271 45.3105 1.17241 45.2281 1.17241C45.0376 1.17241 44.9012 1.22391 44.8188 1.3269C44.7415 1.42474 44.7029 1.58437 44.7029 1.80579V2.8331H45.6916V3.37379H44.7029V6H44.085V3.37379H43.243ZM46.4263 6V2.8331H47.0365V3.5051C47.1498 3.24248 47.3043 3.0468 47.5 2.91807C47.7008 2.78418 47.9274 2.71724 48.1797 2.71724C48.2312 2.71724 48.2775 2.72239 48.3187 2.73269C48.3599 2.73784 48.396 2.74299 48.4268 2.74814V3.45103C48.3445 3.43559 48.2595 3.42271 48.172 3.41241C48.0896 3.40211 48.0072 3.39697 47.9248 3.39697C47.6107 3.39697 47.3841 3.4948 47.2451 3.69048C47.106 3.88616 47.0365 4.20543 47.0365 4.64828V6H46.4263ZM50.4815 6.11586C50.2447 6.11586 50.0207 6.07467 49.8095 5.99228C49.6035 5.90989 49.4233 5.79402 49.2688 5.64469C49.1144 5.49536 48.9908 5.3177 48.8981 5.11172C48.8105 4.9006 48.7668 4.66887 48.7668 4.41655C48.7668 4.16423 48.8105 3.93508 48.8981 3.7291C48.9908 3.51798 49.1144 3.33775 49.2688 3.18841C49.4285 3.03908 49.6113 2.92322 49.8173 2.84083C50.0284 2.75844 50.2498 2.71724 50.4815 2.71724C50.7133 2.71724 50.9321 2.75844 51.1381 2.84083C51.3492 2.92322 51.532 3.03908 51.6865 3.18841C51.8461 3.33775 51.9697 3.51798 52.0573 3.7291C52.1499 3.93508 52.1963 4.16423 52.1963 4.41655C52.1963 4.66887 52.1499 4.9006 52.0573 5.11172C51.9697 5.3177 51.8487 5.49536 51.6942 5.64469C51.5397 5.79402 51.3569 5.90989 51.1458 5.99228C50.9398 6.07467 50.7184 6.11586 50.4815 6.11586ZM50.4815 5.55972C50.7956 5.55972 51.0531 5.45931 51.2539 5.25848C51.4599 5.05766 51.5629 4.77701 51.5629 4.41655C51.5629 4.05609 51.4599 3.77545 51.2539 3.57462C51.048 3.37379 50.7905 3.27338 50.4815 3.27338C50.1726 3.27338 49.9151 3.37379 49.7091 3.57462C49.5031 3.77545 49.4001 4.05609 49.4001 4.41655C49.4001 4.77701 49.5006 5.05766 49.7014 5.25848C49.9074 5.45931 50.1674 5.55972 50.4815 5.55972ZM53.1246 6V2.8331H53.7425V3.52828C53.8403 3.27595 53.9845 3.0777 54.1751 2.93352C54.3707 2.78933 54.5999 2.71724 54.8625 2.71724C55.12 2.71724 55.3414 2.78933 55.5268 2.93352C55.7122 3.0777 55.8435 3.28368 55.9207 3.55145C56.0185 3.28883 56.1705 3.08542 56.3764 2.94124C56.5876 2.79191 56.8347 2.71724 57.118 2.71724C57.4578 2.71724 57.7307 2.84083 57.9367 3.088C58.1478 3.33002 58.2534 3.67503 58.2534 4.12303V6H57.6355V4.27752C57.6355 3.96855 57.5763 3.7291 57.4578 3.55917C57.3394 3.38409 57.1488 3.29655 56.8862 3.29655C56.6288 3.29655 56.4151 3.39697 56.2451 3.59779C56.0803 3.79862 55.998 4.09986 55.998 4.50152V6H55.38V4.27752C55.38 3.96855 55.3208 3.7291 55.2024 3.55917C55.0839 3.38409 54.8934 3.29655 54.6308 3.29655C54.3733 3.29655 54.1596 3.39697 53.9897 3.59779C53.8249 3.79862 53.7425 4.09986 53.7425 4.50152V6H53.1246ZM0.57931 14V10.8331H1.19724V11.5283C1.29508 11.276 1.43926 11.0777 1.62979 10.9335C1.82547 10.7893 2.05462 10.7172 2.31724 10.7172C2.57471 10.7172 2.79614 10.7893 2.98152 10.9335C3.1669 11.0777 3.29821 11.2837 3.37545 11.5514C3.47329 11.2888 3.6252 11.0854 3.83117 10.9412C4.0423 10.7919 4.28947 10.7172 4.57269 10.7172C4.91255 10.7172 5.18547 10.8408 5.39145 11.088C5.60258 11.33 5.70814 11.675 5.70814 12.123V14H5.09021V12.2775C5.09021 11.9686 5.03099 11.7291 4.91255 11.5592C4.79412 11.3841 4.60359 11.2966 4.34097 11.2966C4.08349 11.2966 3.86979 11.397 3.69986 11.5978C3.53508 11.7986 3.45269 12.0999 3.45269 12.5015V14H2.83476V12.2775C2.83476 11.9686 2.77554 11.7291 2.6571 11.5592C2.53867 11.3841 2.34814 11.2966 2.08552 11.2966C1.82805 11.2966 1.61434 11.397 1.44441 11.5978C1.27963 11.7986 1.19724 12.0999 1.19724 12.5015V14H0.57931ZM8.21571 14.1159C7.96339 14.1159 7.73424 14.0747 7.52826 13.9923C7.32743 13.9047 7.1575 13.7863 7.01847 13.637C6.87943 13.4825 6.77129 13.3023 6.69405 13.0963C6.61681 12.8851 6.57819 12.6586 6.57819 12.4166C6.57819 12.1642 6.61939 11.9351 6.70178 11.7291C6.78417 11.518 6.89745 11.3377 7.04164 11.1884C7.19097 11.0391 7.36348 10.9232 7.55916 10.8408C7.75998 10.7584 7.97626 10.7172 8.20798 10.7172C8.66113 10.7172 9.03447 10.8666 9.32798 11.1652C9.62665 11.4588 9.77598 11.8501 9.77598 12.3393C9.77598 12.3805 9.77341 12.4217 9.76826 12.4629C9.76826 12.5041 9.76568 12.5427 9.76054 12.5788H7.21929C7.24504 12.8826 7.34545 13.1246 7.52053 13.3048C7.69562 13.4851 7.92734 13.5752 8.21571 13.5752C8.43198 13.5752 8.61736 13.5263 8.77185 13.4284C8.93148 13.3306 9.03447 13.2018 9.08081 13.0422H9.71419C9.6215 13.3666 9.44385 13.6267 9.18122 13.8223C8.92375 14.018 8.60191 14.1159 8.21571 14.1159ZM8.20798 11.2579C7.95566 11.2579 7.74453 11.3274 7.5746 11.4665C7.40467 11.6004 7.29396 11.8038 7.24247 12.0767H9.13488C9.11428 11.8141 9.01902 11.6132 8.84909 11.4742C8.67916 11.33 8.46545 11.2579 8.20798 11.2579ZM10.7172 14V10.8331H11.3352V11.536C11.4485 11.2579 11.6107 11.052 11.8218 10.9181C12.0381 10.7842 12.2698 10.7172 12.517 10.7172C12.862 10.7172 13.14 10.8408 13.3512 11.088C13.5623 11.33 13.6679 11.675 13.6679 12.123V14H13.0499V12.2775C13.0499 11.9686 12.9907 11.7291 12.8723 11.5592C12.7538 11.3841 12.5633 11.2966 12.3007 11.2966C12.0226 11.2966 11.7909 11.397 11.6055 11.5978C11.4253 11.7986 11.3352 12.0999 11.3352 12.5015V14H10.7172ZM14.5592 12.4166C14.5592 12.1436 14.6029 11.9016 14.6905 11.6905C14.7832 11.4742 14.899 11.2966 15.0381 11.1575C15.1771 11.0133 15.3341 10.9052 15.5092 10.8331C15.6895 10.7559 15.8671 10.7172 16.0422 10.7172C16.2688 10.7172 16.4928 10.779 16.7142 10.9026C16.9356 11.0211 17.1107 11.2039 17.2394 11.451V8.74759H17.8574V14H17.2394V13.3821C17.1107 13.6292 16.9356 13.8146 16.7142 13.9382C16.4928 14.0566 16.2688 14.1159 16.0422 14.1159C15.8671 14.1159 15.6895 14.0772 15.5092 14C15.3341 13.9279 15.1771 13.8223 15.0381 13.6833C14.899 13.5391 14.7832 13.3615 14.6905 13.1503C14.6029 12.9341 14.5592 12.6895 14.5592 12.4166ZM16.1889 11.2966C15.8851 11.2966 15.6431 11.4047 15.4629 11.621C15.2827 11.8372 15.1925 12.1024 15.1925 12.4166C15.1925 12.7307 15.2827 12.9959 15.4629 13.2121C15.6431 13.4284 15.8851 13.5366 16.1889 13.5366C16.4876 13.5366 16.7399 13.4387 16.9459 13.243C17.1519 13.0474 17.2549 12.7719 17.2549 12.4166C17.2549 12.0612 17.1493 11.7857 16.9382 11.5901C16.7322 11.3944 16.4825 11.2966 16.1889 11.2966ZM19.3236 10.3079C19.1846 10.3079 19.0636 10.2589 18.9606 10.1611C18.8627 10.0633 18.8138 9.94225 18.8138 9.79807C18.8138 9.65388 18.8627 9.53287 18.9606 9.43503C19.0636 9.3372 19.1846 9.28828 19.3236 9.28828C19.4627 9.28828 19.5811 9.3372 19.6789 9.43503C19.7819 9.53287 19.8334 9.65388 19.8334 9.79807C19.8334 9.94225 19.7819 10.0633 19.6789 10.1611C19.5811 10.2589 19.4627 10.3079 19.3236 10.3079ZM19.0147 14V10.8331H19.6326V14H19.0147ZM20.7948 14V10.8331H21.4128V11.536C21.526 11.2579 21.6883 11.052 21.8994 10.9181C22.1157 10.7842 22.3474 10.7172 22.5946 10.7172C22.9396 10.7172 23.2176 10.8408 23.4288 11.088C23.6399 11.33 23.7455 11.675 23.7455 12.123V14H23.1275V12.2775C23.1275 11.9686 23.0683 11.7291 22.9499 11.5592C22.8314 11.3841 22.6409 11.2966 22.3783 11.2966C22.1002 11.2966 21.8685 11.397 21.6831 11.5978C21.5029 11.7986 21.4128 12.0999 21.4128 12.5015V14H20.7948ZM24.6599 12.4166C24.6599 12.1436 24.7037 11.9016 24.7912 11.6905C24.8839 11.4742 24.9998 11.2966 25.1388 11.1575C25.2778 11.0133 25.4349 10.9052 25.61 10.8331C25.7902 10.7559 25.9679 10.7172 26.1429 10.7172C26.3695 10.7172 26.5935 10.779 26.815 10.9026C27.0364 11.0211 27.2115 11.2039 27.3402 11.451V10.8717H27.9581V13.7219C27.9581 14.2575 27.8139 14.6823 27.5256 14.9964C27.2424 15.3105 26.8407 15.4676 26.3206 15.4676C25.9498 15.4676 25.6177 15.3594 25.3242 15.1432C25.0307 14.932 24.817 14.6257 24.6831 14.224L25.2161 13.9691C25.3448 14.3038 25.4967 14.5458 25.6718 14.6952C25.8469 14.8497 26.0631 14.9269 26.3206 14.9269C26.6244 14.9269 26.869 14.8316 27.0544 14.6411C27.2449 14.4557 27.3402 14.188 27.3402 13.8378V13.5288L27.3479 13.3589C27.2243 13.6112 27.0492 13.8017 26.8227 13.9305C26.6012 14.0541 26.3747 14.1159 26.1429 14.1159C25.9679 14.1159 25.7902 14.0772 25.61 14C25.4349 13.9279 25.2778 13.8223 25.1388 13.6833C24.9998 13.5391 24.8839 13.3615 24.7912 13.1503C24.7037 12.9341 24.6599 12.6895 24.6599 12.4166ZM26.2897 11.2966C25.9859 11.2966 25.7439 11.4047 25.5636 11.621C25.3834 11.8372 25.2933 12.1024 25.2933 12.4166C25.2933 12.7307 25.3834 12.9959 25.5636 13.2121C25.7439 13.4284 25.9859 13.5366 26.2897 13.5366C26.5832 13.5366 26.833 13.4387 27.0389 13.243C27.2501 13.0474 27.3556 12.7719 27.3556 12.4166C27.3556 12.0612 27.2527 11.7857 27.0467 11.5901C26.8407 11.3944 26.5884 11.2966 26.2897 11.2966ZM30.0703 11.3738V10.8331H30.9508V9.52H31.561V10.8331H32.7351V11.3738H31.561V12.8259C31.561 13.0731 31.6125 13.2533 31.7155 13.3666C31.8185 13.4799 31.9807 13.5366 32.2021 13.5366C32.2897 13.5366 32.3772 13.5314 32.4647 13.5211C32.5523 13.5057 32.6424 13.4876 32.7351 13.467V14.0618C32.6321 14.0824 32.5317 14.0953 32.4338 14.1004C32.336 14.1107 32.2433 14.1159 32.1558 14.1159C31.7438 14.1159 31.44 14.018 31.2443 13.8223C31.0486 13.6215 30.9508 13.3177 30.9508 12.9109V11.3738H30.0703ZM33.6106 14V8.74759H34.2285V11.536C34.3418 11.2579 34.504 11.052 34.7151 10.9181C34.9314 10.7842 35.1631 10.7172 35.4103 10.7172C35.7553 10.7172 36.0334 10.8408 36.2445 11.088C36.4556 11.33 36.5612 11.675 36.5612 12.123V14H35.9433V12.2775C35.9433 11.9686 35.884 11.7291 35.7656 11.5592C35.6472 11.3841 35.4566 11.2966 35.194 11.2966C34.9159 11.2966 34.6842 11.397 34.4988 11.5978C34.3186 11.7986 34.2285 12.0999 34.2285 12.5015V14H33.6106ZM39.0745 14.1159C38.8222 14.1159 38.5931 14.0747 38.3871 13.9923C38.1863 13.9047 38.0163 13.7863 37.8773 13.637C37.7383 13.4825 37.6301 13.3023 37.5529 13.0963C37.4757 12.8851 37.437 12.6586 37.437 12.4166C37.437 12.1642 37.4782 11.9351 37.5606 11.7291C37.643 11.518 37.7563 11.3377 37.9005 11.1884C38.0498 11.0391 38.2223 10.9232 38.418 10.8408C38.6188 10.7584 38.8351 10.7172 39.0668 10.7172C39.52 10.7172 39.8933 10.8666 40.1868 11.1652C40.4855 11.4588 40.6348 11.8501 40.6348 12.3393C40.6348 12.3805 40.6322 12.4217 40.6271 12.4629C40.6271 12.5041 40.6245 12.5427 40.6194 12.5788H38.0781C38.1039 12.8826 38.2043 13.1246 38.3794 13.3048C38.5545 13.4851 38.7862 13.5752 39.0745 13.5752C39.2908 13.5752 39.4762 13.5263 39.6307 13.4284C39.7903 13.3306 39.8933 13.2018 39.9397 13.0422H40.573C40.4803 13.3666 40.3027 13.6267 40.0401 13.8223C39.7826 14.018 39.4608 14.1159 39.0745 14.1159ZM39.0668 11.2579C38.8145 11.2579 38.6034 11.3274 38.4334 11.4665C38.2635 11.6004 38.1528 11.8038 38.1013 12.0767H39.9937C39.9731 11.8141 39.8779 11.6132 39.7079 11.4742C39.538 11.33 39.3243 11.2579 39.0668 11.2579ZM42.7477 12.4166C42.7477 12.1436 42.7915 11.9016 42.879 11.6905C42.9717 11.4742 43.0876 11.2966 43.2266 11.1575C43.3657 11.0133 43.5227 10.9052 43.6978 10.8331C43.878 10.7559 44.0557 10.7172 44.2308 10.7172C44.4573 10.7172 44.6813 10.779 44.9028 10.9026C45.1242 11.0211 45.2993 11.2039 45.428 11.451V8.74759H46.0459V14H45.428V13.3821C45.2993 13.6292 45.1242 13.8146 44.9028 13.9382C44.6813 14.0566 44.4573 14.1159 44.2308 14.1159C44.0557 14.1159 43.878 14.0772 43.6978 14C43.5227 13.9279 43.3657 13.8223 43.2266 13.6833C43.0876 13.5391 42.9717 13.3615 42.879 13.1503C42.7915 12.9341 42.7477 12.6895 42.7477 12.4166ZM44.3775 11.2966C44.0737 11.2966 43.8317 11.4047 43.6515 11.621C43.4712 11.8372 43.3811 12.1024 43.3811 12.4166C43.3811 12.7307 43.4712 12.9959 43.6515 13.2121C43.8317 13.4284 44.0737 13.5366 44.3775 13.5366C44.6762 13.5366 44.9285 13.4387 45.1345 13.243C45.3405 13.0474 45.4435 12.7719 45.4435 12.4166C45.4435 12.0612 45.3379 11.7857 45.1268 11.5901C44.9208 11.3944 44.671 11.2966 44.3775 11.2966ZM47.5122 10.3079C47.3732 10.3079 47.2522 10.2589 47.1492 10.1611C47.0513 10.0633 47.0024 9.94225 47.0024 9.79807C47.0024 9.65388 47.0513 9.53287 47.1492 9.43503C47.2522 9.3372 47.3732 9.28828 47.5122 9.28828C47.6512 9.28828 47.7697 9.3372 47.8675 9.43503C47.9705 9.53287 48.022 9.65388 48.022 9.79807C48.022 9.94225 47.9705 10.0633 47.8675 10.1611C47.7697 10.2589 47.6512 10.3079 47.5122 10.3079ZM47.2032 14V10.8331H47.8212V14H47.2032ZM51.3856 11.7754H50.76C50.7548 11.6004 50.6904 11.4665 50.5669 11.3738C50.4433 11.276 50.2708 11.227 50.0493 11.227C49.8588 11.227 49.7069 11.2605 49.5936 11.3274C49.4803 11.3944 49.4237 11.4871 49.4237 11.6055C49.4237 11.7188 49.47 11.8089 49.5627 11.8759C49.6606 11.9428 49.7816 11.9943 49.9258 12.0303L50.6982 12.2157C50.9144 12.2672 51.0998 12.3573 51.2543 12.4861C51.4139 12.6097 51.4938 12.8002 51.4938 13.0577C51.4938 13.3512 51.3753 13.6009 51.1384 13.8069C50.9016 14.0129 50.5746 14.1159 50.1575 14.1159C49.7558 14.1159 49.416 14.0103 49.1379 13.7992C48.8598 13.588 48.7182 13.3126 48.7131 12.9727H49.3387C49.3593 13.189 49.4469 13.3486 49.6013 13.4516C49.7558 13.5546 49.9489 13.6061 50.1807 13.6061C50.4021 13.6061 50.5694 13.5623 50.6827 13.4748C50.796 13.3872 50.8527 13.2817 50.8527 13.1581C50.8527 13.0448 50.8063 12.9572 50.7136 12.8954C50.6209 12.8285 50.5025 12.777 50.3583 12.741L49.694 12.5788C49.4726 12.5273 49.2718 12.432 49.0915 12.293C48.9113 12.1488 48.8212 11.9377 48.8212 11.6596C48.8212 11.3764 48.9293 11.1498 49.1456 10.9799C49.367 10.8048 49.6709 10.7172 50.0571 10.7172C50.4536 10.7172 50.7703 10.8099 51.0071 10.9953C51.244 11.1755 51.3702 11.4356 51.3856 11.7754ZM52.7874 12.4166C52.7874 12.777 52.8749 13.0577 53.05 13.2585C53.2302 13.4593 53.4594 13.5597 53.7374 13.5597C53.9486 13.5597 54.1262 13.5031 54.2704 13.3898C54.4197 13.2765 54.5356 13.1091 54.618 12.8877H55.2591C55.1664 13.2739 54.9913 13.5752 54.7338 13.7914C54.4815 14.0077 54.1623 14.1159 53.7761 14.1159C53.3023 14.1159 52.9135 13.9588 52.6097 13.6447C52.3059 13.3254 52.154 12.916 52.154 12.4166C52.154 11.9222 52.3059 11.5154 52.6097 11.1961C52.9135 10.8769 53.3023 10.7172 53.7761 10.7172C54.1674 10.7172 54.4918 10.828 54.7493 11.0494C55.0119 11.2708 55.1844 11.5798 55.2668 11.9763H54.6257C54.5485 11.7497 54.4352 11.5772 54.2858 11.4588C54.1417 11.3352 53.9589 11.2734 53.7374 11.2734C53.4594 11.2734 53.2302 11.3738 53.05 11.5746C52.8749 11.7754 52.7874 12.0561 52.7874 12.4166ZM57.6173 14.1159C57.3804 14.1159 57.1564 14.0747 56.9453 13.9923C56.7393 13.9099 56.5591 13.794 56.4046 13.6447C56.2501 13.4954 56.1265 13.3177 56.0339 13.1117C55.9463 12.9006 55.9025 12.6689 55.9025 12.4166C55.9025 12.1642 55.9463 11.9351 56.0339 11.7291C56.1265 11.518 56.2501 11.3377 56.4046 11.1884C56.5642 11.0391 56.7471 10.9232 56.953 10.8408C57.1642 10.7584 57.3856 10.7172 57.6173 10.7172C57.849 10.7172 58.0679 10.7584 58.2739 10.8408C58.485 10.9232 58.6678 11.0391 58.8223 11.1884C58.9819 11.3377 59.1055 11.518 59.193 11.7291C59.2857 11.9351 59.3321 12.1642 59.3321 12.4166C59.3321 12.6689 59.2857 12.9006 59.193 13.1117C59.1055 13.3177 58.9845 13.4954 58.83 13.6447C58.6755 13.794 58.4927 13.9099 58.2816 13.9923C58.0756 14.0747 57.8542 14.1159 57.6173 14.1159ZM57.6173 13.5597C57.9314 13.5597 58.1889 13.4593 58.3897 13.2585C58.5957 13.0577 58.6987 12.777 58.6987 12.4166C58.6987 12.0561 58.5957 11.7754 58.3897 11.5746C58.1837 11.3738 57.9263 11.2734 57.6173 11.2734C57.3083 11.2734 57.0509 11.3738 56.8449 11.5746C56.6389 11.7754 56.5359 12.0561 56.5359 12.4166C56.5359 12.777 56.6363 13.0577 56.8372 13.2585C57.0431 13.4593 57.3032 13.5597 57.6173 13.5597ZM60.2603 14V10.8331H60.8783V11.536C60.9916 11.2579 61.1538 11.052 61.3649 10.9181C61.5812 10.7842 61.8129 10.7172 62.0601 10.7172C62.4051 10.7172 62.6832 10.8408 62.8943 11.088C63.1054 11.33 63.211 11.675 63.211 12.123V14H62.593V12.2775C62.593 11.9686 62.5338 11.7291 62.4154 11.5592C62.2969 11.3841 62.1064 11.2966 61.8438 11.2966C61.5657 11.2966 61.334 11.397 61.1486 11.5978C60.9684 11.7986 60.8783 12.0999 60.8783 12.5015V14H60.2603ZM64.3185 14V10.8331H64.9365V11.536C65.0498 11.2579 65.212 11.052 65.4231 10.9181C65.6394 10.7842 65.8711 10.7172 66.1183 10.7172C66.4633 10.7172 66.7413 10.8408 66.9525 11.088C67.1636 11.33 67.2692 11.675 67.2692 12.123V14H66.6512V12.2775C66.6512 11.9686 66.592 11.7291 66.4736 11.5592C66.3551 11.3841 66.1646 11.2966 65.902 11.2966C65.6239 11.2966 65.3922 11.397 65.2068 11.5978C65.0266 11.7986 64.9365 12.0999 64.9365 12.5015V14H64.3185ZM69.7825 14.1159C69.5302 14.1159 69.301 14.0747 69.0951 13.9923C68.8942 13.9047 68.7243 13.7863 68.5853 13.637C68.4462 13.4825 68.3381 13.3023 68.2609 13.0963C68.1836 12.8851 68.145 12.6586 68.145 12.4166C68.145 12.1642 68.1862 11.9351 68.2686 11.7291C68.351 11.518 68.4643 11.3377 68.6085 11.1884C68.7578 11.0391 68.9303 10.9232 69.126 10.8408C69.3268 10.7584 69.5431 10.7172 69.7748 10.7172C70.2279 10.7172 70.6013 10.8666 70.8948 11.1652C71.1935 11.4588 71.3428 11.8501 71.3428 12.3393C71.3428 12.3805 71.3402 12.4217 71.3351 12.4629C71.3351 12.5041 71.3325 12.5427 71.3273 12.5788H68.7861C68.8119 12.8826 68.9123 13.1246 69.0873 13.3048C69.2624 13.4851 69.4942 13.5752 69.7825 13.5752C69.9988 13.5752 70.1842 13.5263 70.3387 13.4284C70.4983 13.3306 70.6013 13.2018 70.6476 13.0422H71.281C71.1883 13.3666 71.0107 13.6267 70.748 13.8223C70.4906 14.018 70.1687 14.1159 69.7825 14.1159ZM69.7748 11.2579C69.5225 11.2579 69.3113 11.3274 69.1414 11.4665C68.9715 11.6004 68.8608 11.8038 68.8093 12.0767H70.7017C70.6811 11.8141 70.5858 11.6132 70.4159 11.4742C70.246 11.33 70.0323 11.2579 69.7748 11.2579ZM72.7012 12.4166C72.7012 12.777 72.7887 13.0577 72.9638 13.2585C73.144 13.4593 73.3732 13.5597 73.6512 13.5597C73.8624 13.5597 74.04 13.5031 74.1842 13.3898C74.3335 13.2765 74.4494 13.1091 74.5318 12.8877H75.1729C75.0802 13.2739 74.9051 13.5752 74.6476 13.7914C74.3953 14.0077 74.0761 14.1159 73.6898 14.1159C73.2161 14.1159 72.8273 13.9588 72.5235 13.6447C72.2197 13.3254 72.0678 12.916 72.0678 12.4166C72.0678 11.9222 72.2197 11.5154 72.5235 11.1961C72.8273 10.8769 73.2161 10.7172 73.6898 10.7172C74.0812 10.7172 74.4056 10.828 74.6631 11.0494C74.9257 11.2708 75.0982 11.5798 75.1806 11.9763H74.5395C74.4623 11.7497 74.349 11.5772 74.1996 11.4588C74.0555 11.3352 73.8727 11.2734 73.6512 11.2734C73.3732 11.2734 73.144 11.3738 72.9638 11.5746C72.7887 11.7754 72.7012 12.0561 72.7012 12.4166ZM75.6155 11.3738V10.8331H76.4961V9.52H77.1063V10.8331H78.2803V11.3738H77.1063V12.8259C77.1063 13.0731 77.1578 13.2533 77.2608 13.3666C77.3637 13.4799 77.5259 13.5366 77.7474 13.5366C77.8349 13.5366 77.9225 13.5314 78.01 13.5211C78.0975 13.5057 78.1876 13.4876 78.2803 13.467V14.0618C78.1773 14.0824 78.0769 14.0953 77.9791 14.1004C77.8813 14.1107 77.7886 14.1159 77.701 14.1159C77.2891 14.1159 76.9853 14.018 76.7896 13.8223C76.5939 13.6215 76.4961 13.3177 76.4961 12.9109V11.3738H75.6155ZM80.5616 14.1159C80.3093 14.1159 80.0801 14.0747 79.8742 13.9923C79.6733 13.9047 79.5034 13.7863 79.3644 13.637C79.2253 13.4825 79.1172 13.3023 79.04 13.0963C78.9627 12.8851 78.9241 12.6586 78.9241 12.4166C78.9241 12.1642 78.9653 11.9351 79.0477 11.7291C79.1301 11.518 79.2434 11.3377 79.3875 11.1884C79.5369 11.0391 79.7094 10.9232 79.9051 10.8408C80.1059 10.7584 80.3222 10.7172 80.5539 10.7172C81.007 10.7172 81.3804 10.8666 81.6739 11.1652C81.9726 11.4588 82.1219 11.8501 82.1219 12.3393C82.1219 12.3805 82.1193 12.4217 82.1142 12.4629C82.1142 12.5041 82.1116 12.5427 82.1064 12.5788H79.5652C79.591 12.8826 79.6914 13.1246 79.8664 13.3048C80.0415 13.4851 80.2733 13.5752 80.5616 13.5752C80.7779 13.5752 80.9633 13.5263 81.1178 13.4284C81.2774 13.3306 81.3804 13.2018 81.4267 13.0422H82.0601C81.9674 13.3666 81.7898 13.6267 81.5271 13.8223C81.2697 14.018 80.9478 14.1159 80.5616 14.1159ZM80.5539 11.2579C80.3016 11.2579 80.0904 11.3274 79.9205 11.4665C79.7506 11.6004 79.6399 11.8038 79.5884 12.0767H81.4808C81.4602 11.8141 81.3649 11.6132 81.195 11.4742C81.0251 11.33 80.8114 11.2579 80.5539 11.2579ZM82.8469 12.4166C82.8469 12.1436 82.8906 11.9016 82.9782 11.6905C83.0709 11.4742 83.1867 11.2966 83.3258 11.1575C83.4648 11.0133 83.6219 10.9052 83.7969 10.8331C83.9772 10.7559 84.1548 10.7172 84.3299 10.7172C84.5565 10.7172 84.7805 10.779 85.0019 10.9026C85.2233 11.0211 85.3984 11.2039 85.5272 11.451V8.74759H86.1451V14H85.5272V13.3821C85.3984 13.6292 85.2233 13.8146 85.0019 13.9382C84.7805 14.0566 84.5565 14.1159 84.3299 14.1159C84.1548 14.1159 83.9772 14.0772 83.7969 14C83.6219 13.9279 83.4648 13.8223 83.3258 13.6833C83.1867 13.5391 83.0709 13.3615 82.9782 13.1503C82.8906 12.9341 82.8469 12.6895 82.8469 12.4166ZM84.4767 11.2966C84.1729 11.2966 83.9308 11.4047 83.7506 11.621C83.5704 11.8372 83.4803 12.1024 83.4803 12.4166C83.4803 12.7307 83.5704 12.9959 83.7506 13.2121C83.9308 13.4284 84.1729 13.5366 84.4767 13.5366C84.7753 13.5366 85.0277 13.4387 85.2336 13.243C85.4396 13.0474 85.5426 12.7719 85.5426 12.4166C85.5426 12.0612 85.437 11.7857 85.2259 11.5901C85.0199 11.3944 84.7702 11.2966 84.4767 11.2966ZM0.254897 19.3738V18.8331H1.09683V17.883C1.09683 17.4814 1.18437 17.1724 1.35945 16.9561C1.53453 16.7399 1.79972 16.6317 2.15503 16.6317C2.28892 16.6317 2.39963 16.6446 2.48717 16.6703C2.57471 16.6961 2.65968 16.727 2.74207 16.763V17.2883C2.64423 17.2522 2.55669 17.2239 2.47945 17.2033C2.40221 17.1827 2.32239 17.1724 2.24 17.1724C2.04947 17.1724 1.91301 17.2239 1.83062 17.3269C1.75338 17.4247 1.71476 17.5844 1.71476 17.8058V18.8331H2.70345V19.3738H1.71476V22H1.09683V19.3738H0.254897ZM3.43815 22V16.7476H4.05608V22H3.43815ZM6.70135 22.1159C6.46448 22.1159 6.24048 22.0747 6.02935 21.9923C5.82338 21.9099 5.64315 21.794 5.48866 21.6447C5.33418 21.4954 5.2106 21.3177 5.11791 21.1117C5.03037 20.9006 4.9866 20.6689 4.9866 20.4166C4.9866 20.1642 5.03037 19.9351 5.11791 19.7291C5.2106 19.518 5.33418 19.3377 5.48866 19.1884C5.6483 19.0391 5.8311 18.9232 6.03708 18.8408C6.2482 18.7584 6.46963 18.7172 6.70135 18.7172C6.93308 18.7172 7.15193 18.7584 7.35791 18.8408C7.56903 18.9232 7.75184 19.0391 7.90632 19.1884C8.06595 19.3377 8.18954 19.518 8.27708 19.7291C8.36977 19.9351 8.41611 20.1642 8.41611 20.4166C8.41611 20.6689 8.36977 20.9006 8.27708 21.1117C8.18954 21.3177 8.06853 21.4954 7.91404 21.6447C7.75956 21.794 7.57676 21.9099 7.36563 21.9923C7.15965 22.0747 6.93823 22.1159 6.70135 22.1159ZM6.70135 21.5597C7.01547 21.5597 7.27294 21.4593 7.47377 21.2585C7.67974 21.0577 7.78273 20.777 7.78273 20.4166C7.78273 20.0561 7.67974 19.7754 7.47377 19.5746C7.26779 19.3738 7.01032 19.2734 6.70135 19.2734C6.39239 19.2734 6.13492 19.3738 5.92894 19.5746C5.72296 19.7754 5.61997 20.0561 5.61997 20.4166C5.61997 20.777 5.72039 21.0577 5.92122 21.2585C6.12719 21.4593 6.38724 21.5597 6.70135 21.5597ZM10.9887 18.8331H11.6298L12.3482 21.2276L12.9893 18.8331H13.6227L12.6958 22H12.016L11.3131 19.6132L10.6025 22H9.9228L8.99591 18.8331H9.62928L10.2704 21.2276L10.9887 18.8331ZM17.2617 22.1159C17.0248 22.1159 16.8008 22.0747 16.5897 21.9923C16.3837 21.9099 16.2035 21.794 16.049 21.6447C15.8945 21.4954 15.7709 21.3177 15.6783 21.1117C15.5907 20.9006 15.5469 20.6689 15.5469 20.4166C15.5469 20.1642 15.5907 19.9351 15.6783 19.7291C15.7709 19.518 15.8945 19.3377 16.049 19.1884C16.2086 19.0391 16.3914 18.9232 16.5974 18.8408C16.8085 18.7584 17.03 18.7172 17.2617 18.7172C17.4934 18.7172 17.7123 18.7584 17.9183 18.8408C18.1294 18.9232 18.3122 19.0391 18.4667 19.1884C18.6263 19.3377 18.7499 19.518 18.8374 19.7291C18.9301 19.9351 18.9765 20.1642 18.9765 20.4166C18.9765 20.6689 18.9301 20.9006 18.8374 21.1117C18.7499 21.3177 18.6289 21.4954 18.4744 21.6447C18.3199 21.794 18.1371 21.9099 17.926 21.9923C17.72 22.0747 17.4986 22.1159 17.2617 22.1159ZM17.2617 21.5597C17.5758 21.5597 17.8333 21.4593 18.0341 21.2585C18.2401 21.0577 18.3431 20.777 18.3431 20.4166C18.3431 20.0561 18.2401 19.7754 18.0341 19.5746C17.8281 19.3738 17.5707 19.2734 17.2617 19.2734C16.9527 19.2734 16.6953 19.3738 16.4893 19.5746C16.2833 19.7754 16.1803 20.0561 16.1803 20.4166C16.1803 20.777 16.2807 21.0577 16.4816 21.2585C16.6875 21.4593 16.9476 21.5597 17.2617 21.5597ZM19.5803 19.3738V18.8331H20.4223V17.883C20.4223 17.4814 20.5098 17.1724 20.6849 16.9561C20.86 16.7399 21.1252 16.6317 21.4805 16.6317C21.6144 16.6317 21.7251 16.6446 21.8126 16.6703C21.9001 16.6961 21.9851 16.727 22.0675 16.763V17.2883C21.9697 17.2522 21.8821 17.2239 21.8049 17.2033C21.7276 17.1827 21.6478 17.1724 21.5654 17.1724C21.3749 17.1724 21.2384 17.2239 21.1561 17.3269C21.0788 17.4247 21.0402 17.5844 21.0402 17.8058V18.8331H22.0289V19.3738H21.0402V22H20.4223V19.3738H19.5803ZM23.9584 20.4166C23.9584 20.1436 24.0022 19.9016 24.0897 19.6905C24.1824 19.4742 24.2983 19.2966 24.4373 19.1575C24.5763 19.0133 24.7334 18.9052 24.9085 18.8331C25.0887 18.7559 25.2664 18.7172 25.4414 18.7172C25.668 18.7172 25.892 18.779 26.1134 18.9026C26.3349 19.0211 26.5099 19.2039 26.6387 19.451V18.8717H27.2566V21.7219C27.2566 22.2575 27.1124 22.6823 26.8241 22.9964C26.5408 23.3105 26.1392 23.4676 25.6191 23.4676C25.2483 23.4676 24.9162 23.3594 24.6227 23.1432C24.3292 22.932 24.1155 22.6257 23.9816 22.224L24.5145 21.9691C24.6433 22.3038 24.7952 22.5458 24.9703 22.6952C25.1453 22.8497 25.3616 22.9269 25.6191 22.9269C25.9229 22.9269 26.1675 22.8316 26.3529 22.6411C26.5434 22.4557 26.6387 22.188 26.6387 21.8378V21.5288L26.6464 21.3589C26.5228 21.6112 26.3477 21.8017 26.1212 21.9305C25.8997 22.0541 25.6732 22.1159 25.4414 22.1159C25.2664 22.1159 25.0887 22.0772 24.9085 22C24.7334 21.9279 24.5763 21.8223 24.4373 21.6833C24.2983 21.5391 24.1824 21.3615 24.0897 21.1503C24.0022 20.9341 23.9584 20.6895 23.9584 20.4166ZM25.5882 19.2966C25.2844 19.2966 25.0424 19.4047 24.8621 19.621C24.6819 19.8372 24.5918 20.1024 24.5918 20.4166C24.5918 20.7307 24.6819 20.9959 24.8621 21.2121C25.0424 21.4284 25.2844 21.5366 25.5882 21.5366C25.8817 21.5366 26.1315 21.4387 26.3374 21.243C26.5486 21.0474 26.6541 20.7719 26.6541 20.4166C26.6541 20.0612 26.5511 19.7857 26.3452 19.5901C26.1392 19.3944 25.8869 19.2966 25.5882 19.2966ZM28.1971 20.4166C28.1971 20.1436 28.2434 19.9016 28.3361 19.6905C28.4288 19.4742 28.5472 19.2966 28.6914 19.1575C28.8356 19.0133 28.9978 18.9052 29.1781 18.8331C29.3583 18.7559 29.5385 18.7172 29.7187 18.7172C29.9402 18.7172 30.1564 18.779 30.3676 18.9026C30.5838 19.0211 30.7538 19.2013 30.8774 19.4433V18.8331H31.4953V22H30.8774V21.3898C30.7538 21.6318 30.5838 21.8146 30.3676 21.9382C30.1564 22.0566 29.9402 22.1159 29.7187 22.1159C29.5385 22.1159 29.3583 22.0772 29.1781 22C28.9978 21.9279 28.8356 21.8223 28.6914 21.6833C28.5472 21.5391 28.4288 21.3615 28.3361 21.1503C28.2434 20.9341 28.1971 20.6895 28.1971 20.4166ZM29.8269 19.2966C29.5231 19.2966 29.281 19.4047 29.1008 19.621C28.9206 19.8372 28.8305 20.1024 28.8305 20.4166C28.8305 20.7307 28.9206 20.9959 29.1008 21.2121C29.281 21.4284 29.5231 21.5366 29.8269 21.5366C30.1204 21.5366 30.3701 21.4387 30.5761 21.243C30.7872 21.0474 30.8928 20.7719 30.8928 20.4166C30.8928 20.0612 30.7898 19.7857 30.5838 19.5901C30.3779 19.3944 30.1255 19.2966 29.8269 19.2966ZM32.6526 22V18.8331H33.2628V19.5051C33.3761 19.2425 33.5306 19.0468 33.7262 18.9181C33.9271 18.7842 34.1536 18.7172 34.406 18.7172C34.4575 18.7172 34.5038 18.7224 34.545 18.7327C34.5862 18.7378 34.6222 18.743 34.6531 18.7481V19.451C34.5707 19.4356 34.4858 19.4227 34.3982 19.4124C34.3159 19.4021 34.2335 19.397 34.1511 19.397C33.837 19.397 33.6104 19.4948 33.4713 19.6905C33.3323 19.8862 33.2628 20.2054 33.2628 20.6483V22H32.6526ZM35.2248 22V18.8331H35.8427V19.5283C35.9406 19.276 36.0847 19.0777 36.2753 18.9335C36.4709 18.7893 36.7001 18.7172 36.9627 18.7172C37.2202 18.7172 37.4416 18.7893 37.627 18.9335C37.8124 19.0777 37.9437 19.2837 38.0209 19.5514C38.1188 19.2888 38.2707 19.0854 38.4767 18.9412C38.6878 18.7919 38.9349 18.7172 39.2182 18.7172C39.558 18.7172 39.8309 18.8408 40.0369 19.088C40.2481 19.33 40.3536 19.675 40.3536 20.123V22H39.7357V20.2775C39.7357 19.9686 39.6765 19.7291 39.558 19.5592C39.4396 19.3841 39.2491 19.2966 38.9864 19.2966C38.729 19.2966 38.5153 19.397 38.3453 19.5978C38.1806 19.7986 38.0982 20.0999 38.0982 20.5015V22H37.4802V20.2775C37.4802 19.9686 37.421 19.7291 37.3026 19.5592C37.1841 19.3841 36.9936 19.2966 36.731 19.2966C36.4735 19.2966 36.2598 19.397 36.0899 19.5978C35.9251 19.7986 35.8427 20.0999 35.8427 20.5015V22H35.2248ZM42.8612 22.1159C42.6089 22.1159 42.3797 22.0747 42.1737 21.9923C41.9729 21.9047 41.803 21.7863 41.6639 21.637C41.5249 21.4825 41.4168 21.3023 41.3395 21.0963C41.2623 20.8851 41.2237 20.6586 41.2237 20.4166C41.2237 20.1642 41.2649 19.9351 41.3473 19.7291C41.4296 19.518 41.5429 19.3377 41.6871 19.1884C41.8364 19.0391 42.009 18.9232 42.2046 18.8408C42.4055 18.7584 42.6217 18.7172 42.8535 18.7172C43.3066 18.7172 43.6799 18.8666 43.9735 19.1652C44.2721 19.4588 44.4215 19.8501 44.4215 20.3393C44.4215 20.3805 44.4189 20.4217 44.4137 20.4629C44.4137 20.5041 44.4112 20.5427 44.406 20.5788H41.8648C41.8905 20.8826 41.9909 21.1246 42.166 21.3048C42.3411 21.4851 42.5728 21.5752 42.8612 21.5752C43.0775 21.5752 43.2628 21.5263 43.4173 21.4284C43.577 21.3306 43.6799 21.2018 43.7263 21.0422H44.3597C44.267 21.3666 44.0893 21.6267 43.8267 21.8223C43.5692 22.018 43.2474 22.1159 42.8612 22.1159ZM42.8535 19.2579C42.6011 19.2579 42.39 19.3274 42.2201 19.4665C42.0501 19.6004 41.9394 19.8038 41.8879 20.0767H43.7804C43.7598 19.8141 43.6645 19.6132 43.4946 19.4742C43.3246 19.33 43.1109 19.2579 42.8535 19.2579ZM45.3627 22V18.8331H45.9806V19.536C46.0939 19.2579 46.2561 19.052 46.4673 18.9181C46.6835 18.7842 46.9153 18.7172 47.1624 18.7172C47.5075 18.7172 47.7855 18.8408 47.9966 19.088C48.2078 19.33 48.3133 19.675 48.3133 20.123V22H47.6954V20.2775C47.6954 19.9686 47.6362 19.7291 47.5178 19.5592C47.3993 19.3841 47.2088 19.2966 46.9462 19.2966C46.6681 19.2966 46.4364 19.397 46.251 19.5978C46.0708 19.7986 45.9806 20.0999 45.9806 20.5015V22H45.3627ZM48.9884 19.3738V18.8331H49.8689V17.52H50.4791V18.8331H51.6532V19.3738H50.4791V20.8259C50.4791 21.0731 50.5306 21.2533 50.6336 21.3666C50.7366 21.4799 50.8988 21.5366 51.1202 21.5366C51.2078 21.5366 51.2953 21.5314 51.3828 21.5211C51.4704 21.5057 51.5605 21.4876 51.6532 21.467V22.0618C51.5502 22.0824 51.4498 22.0953 51.3519 22.1004C51.2541 22.1107 51.1614 22.1159 51.0739 22.1159C50.6619 22.1159 50.3581 22.018 50.1624 21.8223C49.9667 21.6215 49.8689 21.3177 49.8689 20.9109V19.3738H48.9884ZM52.884 22.0772C52.7449 22.0772 52.6239 22.0283 52.5209 21.9305C52.4231 21.8326 52.3742 21.7116 52.3742 21.5674C52.3742 21.4233 52.4231 21.3023 52.5209 21.2044C52.6239 21.1066 52.7449 21.0577 52.884 21.0577C53.023 21.0577 53.1414 21.1066 53.2393 21.2044C53.3423 21.3023 53.3938 21.4233 53.3938 21.5674C53.3938 21.7116 53.3423 21.8326 53.2393 21.9305C53.1414 22.0283 53.023 22.0772 52.884 22.0772Z" fill="#1D7BBF"/>
<path d="M1.508 32.052C1.32667 32.052 1.15733 32.0187 1 31.952C0.845333 31.8827 0.710667 31.7827 0.596 31.652C0.481333 31.5213 0.392 31.3627 0.328 31.176C0.264 30.9867 0.232 30.7733 0.232 30.536C0.232 30.2987 0.264 30.0867 0.328 29.9C0.394667 29.7107 0.486667 29.5507 0.604 29.42C0.721333 29.2893 0.858667 29.1893 1.016 29.12C1.17333 29.0507 1.34533 29.016 1.532 29.016C1.71067 29.016 1.868 29.0533 2.004 29.128C2.14 29.2 2.25067 29.2827 2.336 29.376L2.136 29.616C2.05867 29.5333 1.97067 29.4667 1.872 29.416C1.77333 29.3653 1.66133 29.34 1.536 29.34C1.352 29.34 1.19067 29.388 1.052 29.484C0.913333 29.58 0.805333 29.7173 0.728 29.896C0.650667 30.072 0.612 30.2813 0.612 30.524C0.612 30.772 0.649333 30.9867 0.724 31.168C0.798667 31.3467 0.904 31.4853 1.04 31.584C1.176 31.68 1.33733 31.728 1.524 31.728C1.66267 31.728 1.78667 31.6987 1.896 31.64C2.008 31.5813 2.11067 31.5 2.204 31.396L2.408 31.632C2.29333 31.7653 2.16267 31.8693 2.016 31.944C1.86933 32.016 1.7 32.052 1.508 32.052ZM3.76278 32.052C3.58678 32.052 3.42145 32.008 3.26678 31.92C3.11211 31.8293 2.98811 31.7 2.89478 31.532C2.80411 31.3613 2.75878 31.156 2.75878 30.916C2.75878 30.6733 2.80411 30.468 2.89478 30.3C2.98811 30.1293 3.11211 29.9987 3.26678 29.908C3.42145 29.8173 3.58678 29.772 3.76278 29.772C3.89611 29.772 4.02278 29.7973 4.14278 29.848C4.26545 29.8987 4.37345 29.9733 4.46678 30.072C4.56011 30.1707 4.63345 30.2907 4.68678 30.432C4.74011 30.5733 4.76678 30.7347 4.76678 30.916C4.76678 31.156 4.72011 31.3613 4.62678 31.532C4.53345 31.7 4.41078 31.8293 4.25878 31.92C4.10678 32.008 3.94145 32.052 3.76278 32.052ZM3.76278 31.748C3.88811 31.748 3.99745 31.7133 4.09078 31.644C4.18678 31.5747 4.26145 31.4773 4.31478 31.352C4.36811 31.2267 4.39478 31.0813 4.39478 30.916C4.39478 30.748 4.36811 30.6013 4.31478 30.476C4.26145 30.3507 4.18678 30.2533 4.09078 30.184C3.99745 30.1147 3.88811 30.08 3.76278 30.08C3.63745 30.08 3.52678 30.1147 3.43078 30.184C3.33745 30.2533 3.26411 30.3507 3.21078 30.476C3.16011 30.6013 3.13478 30.748 3.13478 30.916C3.13478 31.0813 3.16011 31.2267 3.21078 31.352C3.26411 31.4773 3.33745 31.5747 3.43078 31.644C3.52678 31.7133 3.63745 31.748 3.76278 31.748ZM5.34456 32V29.828H5.64456L5.68056 30.224H5.68856C5.76323 30.0853 5.8539 29.976 5.96056 29.896C6.0699 29.8133 6.18456 29.772 6.30456 29.772C6.35523 29.772 6.3979 29.776 6.43256 29.784C6.4699 29.7893 6.50456 29.8013 6.53656 29.82L6.46856 30.136C6.43123 30.1253 6.3979 30.1173 6.36856 30.112C6.33923 30.104 6.3019 30.1 6.25656 30.1C6.16856 30.1 6.0739 30.1387 5.97256 30.216C5.87123 30.2907 5.78456 30.42 5.71256 30.604V32H5.34456ZM7.58066 32.052C7.39932 32.052 7.24066 32.008 7.10466 31.92C6.97132 31.832 6.86732 31.704 6.79266 31.536C6.72066 31.3653 6.68466 31.1587 6.68466 30.916C6.68466 30.6813 6.72866 30.4787 6.81666 30.308C6.90466 30.1373 7.01932 30.0053 7.16066 29.912C7.30466 29.8187 7.45932 29.772 7.62466 29.772C7.75266 29.772 7.86199 29.7947 7.95266 29.84C8.04599 29.8827 8.14066 29.944 8.23666 30.024L8.21666 29.652V28.816H8.58466V32H8.28466L8.25266 31.744H8.24066C8.15532 31.8293 8.05666 31.9027 7.94466 31.964C7.83266 32.0227 7.71132 32.052 7.58066 32.052ZM7.66066 31.744C7.76199 31.744 7.85799 31.72 7.94866 31.672C8.03932 31.6213 8.12866 31.5467 8.21666 31.448V30.308C8.12599 30.2253 8.03799 30.1667 7.95266 30.132C7.86732 30.0973 7.77932 30.08 7.68866 30.08C7.57399 30.08 7.46866 30.116 7.37266 30.188C7.27932 30.2573 7.20332 30.3547 7.14466 30.48C7.08866 30.6027 7.06066 30.7467 7.06066 30.912C7.06066 31.0853 7.08466 31.2347 7.13266 31.36C7.18066 31.4853 7.24866 31.5813 7.33666 31.648C7.42732 31.712 7.53532 31.744 7.66066 31.744ZM9.82113 32.052C9.70113 32.052 9.59313 32.028 9.49713 31.98C9.40113 31.932 9.32513 31.8627 9.26913 31.772C9.21579 31.6787 9.18913 31.5667 9.18913 31.436C9.18913 31.1987 9.29446 31.0173 9.50513 30.892C9.71846 30.764 10.0571 30.6747 10.5211 30.624C10.5211 30.5307 10.5078 30.4427 10.4811 30.36C10.4571 30.2747 10.4131 30.2067 10.3491 30.156C10.2851 30.1027 10.1931 30.076 10.0731 30.076C9.94779 30.076 9.82913 30.1013 9.71713 30.152C9.60779 30.2 9.50913 30.252 9.42113 30.308L9.28113 30.056C9.34779 30.0133 9.42513 29.9707 9.51313 29.928C9.60113 29.8827 9.69713 29.8453 9.80113 29.816C9.90513 29.7867 10.0158 29.772 10.1331 29.772C10.3091 29.772 10.4518 29.8093 10.5611 29.884C10.6731 29.9587 10.7545 30.0627 10.8051 30.196C10.8585 30.3267 10.8851 30.4827 10.8851 30.664V32H10.5851L10.5531 31.74H10.5411C10.4398 31.8253 10.3278 31.8987 10.2051 31.96C10.0851 32.0213 9.95713 32.052 9.82113 32.052ZM9.92513 31.756C10.0291 31.756 10.1278 31.732 10.2211 31.684C10.3171 31.636 10.4171 31.5653 10.5211 31.472V30.868C10.2785 30.8947 10.0851 30.9333 9.94113 30.984C9.79713 31.032 9.69446 31.092 9.63313 31.164C9.57179 31.2333 9.54112 31.316 9.54112 31.412C9.54112 31.5373 9.57846 31.6267 9.65313 31.68C9.72779 31.7307 9.81846 31.756 9.92513 31.756ZM11.847 29.78H14.307V30.048H11.847V29.78ZM11.403 30.532H14.683V30.804H11.403V30.532ZM11.847 28.824H12.175V29.916H11.847V28.824ZM11.823 31.952H14.327V32.224H11.823V31.952ZM11.823 31.168H12.155V32.024H11.823V31.168ZM15.9813 30.148H19.2573V30.416H15.9813V30.148ZM16.2853 28.86H17.2413V29.132H16.2853V28.86ZM17.1333 28.86H17.4573V28.996C17.4573 29.1107 17.4506 29.2773 17.4373 29.496C17.4239 29.7147 17.3759 29.976 17.2933 30.28L16.9653 30.22C17.0213 30.0227 17.0613 29.8467 17.0853 29.692C17.1093 29.5347 17.1226 29.3987 17.1253 29.284C17.1306 29.1667 17.1333 29.0707 17.1333 28.996V28.86ZM17.7013 28.86H18.6773V29.132H17.7013V28.86ZM18.5333 28.86H18.8573V29.016C18.8573 29.1413 18.8506 29.3107 18.8373 29.524C18.8266 29.7373 18.7826 29.9933 18.7053 30.292L18.3853 30.236C18.4359 30.0413 18.4706 29.868 18.4893 29.716C18.5106 29.5613 18.5226 29.4267 18.5253 29.312C18.5306 29.1947 18.5333 29.096 18.5333 29.016V28.86ZM17.4093 30.92H19.0373V31.172H17.4093V30.92ZM18.2333 31.324C18.3559 31.324 18.4653 31.344 18.5613 31.384C18.6573 31.424 18.7319 31.4813 18.7853 31.556C18.8386 31.628 18.8653 31.7147 18.8653 31.816C18.8653 31.968 18.8053 32.088 18.6853 32.176C18.5679 32.264 18.4173 32.308 18.2333 32.308C18.0493 32.308 17.8973 32.264 17.7773 32.176C17.6573 32.088 17.5973 31.968 17.5973 31.816C17.5973 31.664 17.6573 31.544 17.7773 31.456C17.8973 31.368 18.0493 31.324 18.2333 31.324ZM18.2333 31.56C18.1293 31.56 18.0453 31.5827 17.9813 31.628C17.9173 31.6733 17.8853 31.736 17.8853 31.816C17.8853 31.896 17.9173 31.9587 17.9813 32.004C18.0453 32.0493 18.1293 32.072 18.2333 32.072C18.3373 32.072 18.4213 32.0493 18.4853 32.004C18.5493 31.9587 18.5813 31.896 18.5813 31.816C18.5813 31.736 18.5493 31.6733 18.4853 31.628C18.4213 31.5827 18.3373 31.56 18.2333 31.56ZM18.0693 30.608H18.3933V31.104H18.0693V30.608ZM16.3653 31.944H16.5413C16.6159 31.944 16.7013 31.9413 16.7973 31.936C16.8933 31.9307 16.9973 31.92 17.1093 31.904C17.2213 31.8853 17.3346 31.8613 17.4493 31.832L17.4933 32.104C17.3039 32.152 17.1279 32.1827 16.9653 32.196C16.8053 32.2093 16.6639 32.216 16.5413 32.216H16.3653V31.944ZM16.3653 30.884H16.6893V32.044H16.3653V30.884ZM20.6249 28.972C20.8009 28.972 20.9569 29.024 21.0929 29.128C21.2289 29.2293 21.3343 29.3747 21.4089 29.564C21.4863 29.7533 21.5249 29.976 21.5249 30.232C21.5249 30.488 21.4863 30.7107 21.4089 30.9C21.3343 31.0893 21.2289 31.236 21.0929 31.34C20.9569 31.444 20.8009 31.496 20.6249 31.496C20.4516 31.496 20.2956 31.444 20.1569 31.34C20.0209 31.236 19.9143 31.0893 19.8369 30.9C19.7623 30.7107 19.7249 30.488 19.7249 30.232C19.7249 29.976 19.7623 29.7533 19.8369 29.564C19.9143 29.3747 20.0209 29.2293 20.1569 29.128C20.2956 29.024 20.4516 28.972 20.6249 28.972ZM20.6249 29.268C20.5103 29.268 20.4089 29.308 20.3209 29.388C20.2329 29.4653 20.1636 29.5773 20.1129 29.724C20.0649 29.868 20.0409 30.0373 20.0409 30.232C20.0409 30.4267 20.0649 30.5973 20.1129 30.744C20.1636 30.888 20.2329 31 20.3209 31.08C20.4089 31.16 20.5103 31.2 20.6249 31.2C20.7423 31.2 20.8449 31.16 20.9329 31.08C21.0209 31 21.0889 30.888 21.1369 30.744C21.1876 30.5973 21.2129 30.4267 21.2129 30.232C21.2129 30.0373 21.1876 29.868 21.1369 29.724C21.0889 29.5773 21.0209 29.4653 20.9329 29.388C20.8449 29.308 20.7423 29.268 20.6249 29.268ZM22.3089 28.692H22.6369V32.316H22.3089V28.692ZM21.4169 30.072H22.4569V30.34H21.4169V30.072ZM24.3046 29.088H24.5806V29.46C24.5806 29.6813 24.538 29.8867 24.4526 30.076C24.3673 30.2653 24.2473 30.432 24.0926 30.576C23.9406 30.7173 23.7633 30.824 23.5606 30.896L23.3886 30.636C23.57 30.5693 23.7286 30.4773 23.8646 30.36C24.0033 30.2427 24.1113 30.1067 24.1886 29.952C24.266 29.7947 24.3046 29.6307 24.3046 29.46V29.088ZM24.3686 29.088H24.6406V29.46C24.6406 29.5827 24.662 29.7013 24.7046 29.816C24.75 29.928 24.814 30.0333 24.8966 30.132C24.9793 30.228 25.0753 30.3133 25.1846 30.388C25.2966 30.4627 25.4193 30.5213 25.5526 30.564L25.3846 30.824C25.1846 30.7547 25.0086 30.6533 24.8566 30.52C24.7046 30.3867 24.5846 30.2293 24.4966 30.048C24.4113 29.8667 24.3686 29.6707 24.3686 29.46V29.088ZM23.4766 28.992H25.4566V29.264H23.4766V28.992ZM25.9726 28.696H26.3046V31.344H25.9726V28.696ZM23.9806 31.96H26.4166V32.232H23.9806V31.96ZM23.9806 31.096H24.3126V32.08H23.9806V31.096ZM27.9148 30.48H31.1828V30.748H27.9148V30.48ZM29.3788 30.992H29.6668V31.104C29.6668 31.2667 29.6295 31.4147 29.5548 31.548C29.4828 31.6787 29.3828 31.7947 29.2548 31.896C29.1295 31.9973 28.9842 32.0813 28.8188 32.148C28.6535 32.2173 28.4788 32.2667 28.2948 32.296L28.1668 32.036C28.3322 32.012 28.4868 31.9733 28.6308 31.92C28.7775 31.864 28.9068 31.796 29.0188 31.716C29.1308 31.6333 29.2188 31.5413 29.2828 31.44C29.3468 31.336 29.3788 31.224 29.3788 31.104V30.992ZM29.4308 30.992H29.7148V31.104C29.7148 31.224 29.7468 31.336 29.8108 31.44C29.8748 31.5413 29.9628 31.6333 30.0748 31.716C30.1868 31.796 30.3162 31.864 30.4628 31.92C30.6095 31.9733 30.7655 32.012 30.9308 32.036L30.7988 32.296C30.6148 32.2667 30.4402 32.2173 30.2748 32.148C30.1095 32.0813 29.9642 31.9973 29.8388 31.896C29.7135 31.7947 29.6135 31.6787 29.5388 31.548C29.4668 31.4147 29.4308 31.2667 29.4308 31.104V30.992ZM29.3828 30.028H29.7068V30.596H29.3828V30.028ZM29.5468 28.768C29.8082 28.768 30.0335 28.7947 30.2228 28.848C30.4148 28.9013 30.5615 28.98 30.6628 29.084C30.7668 29.1853 30.8188 29.308 30.8188 29.452C30.8188 29.5933 30.7668 29.716 30.6628 29.82C30.5615 29.9213 30.4148 29.9987 30.2228 30.052C30.0335 30.1053 29.8082 30.132 29.5468 30.132C29.2882 30.132 29.0628 30.1053 28.8708 30.052C28.6815 29.9987 28.5348 29.9213 28.4308 29.82C28.3268 29.716 28.2748 29.5933 28.2748 29.452C28.2748 29.308 28.3268 29.1853 28.4308 29.084C28.5348 28.98 28.6815 28.9013 28.8708 28.848C29.0628 28.7947 29.2882 28.768 29.5468 28.768ZM29.5468 29.028C29.3575 29.028 29.1922 29.0453 29.0508 29.08C28.9122 29.112 28.8042 29.16 28.7268 29.224C28.6522 29.2853 28.6148 29.3613 28.6148 29.452C28.6148 29.5373 28.6522 29.612 28.7268 29.676C28.8042 29.7373 28.9122 29.7853 29.0508 29.82C29.1922 29.852 29.3575 29.868 29.5468 29.868C29.7388 29.868 29.9042 29.852 30.0428 29.82C30.1842 29.7853 30.2922 29.7373 30.3668 29.676C30.4415 29.612 30.4788 29.5373 30.4788 29.452C30.4788 29.3613 30.4415 29.2853 30.3668 29.224C30.2922 29.16 30.1842 29.112 30.0428 29.08C29.9042 29.0453 29.7388 29.028 29.5468 29.028ZM32.7665 28.956C32.9559 28.956 33.1225 28.992 33.2665 29.064C33.4132 29.1333 33.5279 29.232 33.6105 29.36C33.6932 29.488 33.7345 29.6373 33.7345 29.808C33.7345 29.976 33.6932 30.1253 33.6105 30.256C33.5279 30.384 33.4132 30.484 33.2665 30.556C33.1225 30.6253 32.9559 30.66 32.7665 30.66C32.5799 30.66 32.4132 30.6253 32.2665 30.556C32.1199 30.484 32.0039 30.384 31.9185 30.256C31.8359 30.1253 31.7945 29.976 31.7945 29.808C31.7945 29.6373 31.8359 29.488 31.9185 29.36C32.0039 29.232 32.1199 29.1333 32.2665 29.064C32.4132 28.992 32.5799 28.956 32.7665 28.956ZM32.7665 29.244C32.6439 29.244 32.5332 29.268 32.4345 29.316C32.3385 29.3613 32.2625 29.4267 32.2065 29.512C32.1505 29.5973 32.1225 29.696 32.1225 29.808C32.1225 29.92 32.1505 30.0187 32.2065 30.104C32.2625 30.1893 32.3385 30.256 32.4345 30.304C32.5332 30.3493 32.6439 30.372 32.7665 30.372C32.8919 30.372 33.0025 30.3493 33.0985 30.304C33.1945 30.256 33.2705 30.1893 33.3265 30.104C33.3825 30.0187 33.4105 29.92 33.4105 29.808C33.4105 29.696 33.3825 29.5973 33.3265 29.512C33.2705 29.4267 33.1945 29.3613 33.0985 29.316C33.0025 29.268 32.8919 29.244 32.7665 29.244ZM34.2105 28.692H34.5425V32.316H34.2105V28.692ZM31.6585 31.524L31.6145 31.244C31.8359 31.244 32.0785 31.2427 32.3425 31.24C32.6065 31.2347 32.8785 31.224 33.1585 31.208C33.4412 31.1893 33.7132 31.16 33.9745 31.12L34.0025 31.364C33.7305 31.4147 33.4545 31.452 33.1745 31.476C32.8972 31.4973 32.6292 31.5107 32.3705 31.516C32.1119 31.5213 31.8745 31.524 31.6585 31.524ZM36.3288 29.248H39.2688V29.52H36.3288V29.248ZM36.1688 31.6H39.4488V31.872H36.1688V31.6ZM37.8008 29.756C38.0434 29.756 38.2528 29.784 38.4288 29.84C38.6048 29.896 38.7408 29.9773 38.8368 30.084C38.9354 30.1907 38.9848 30.3187 38.9848 30.468C38.9848 30.6173 38.9354 30.7453 38.8368 30.852C38.7408 30.9587 38.6048 31.0413 38.4288 31.1C38.2528 31.156 38.0434 31.184 37.8008 31.184C37.5581 31.184 37.3474 31.156 37.1688 31.1C36.9928 31.0413 36.8568 30.9587 36.7608 30.852C36.6648 30.7453 36.6168 30.6173 36.6168 30.468C36.6168 30.3187 36.6648 30.1907 36.7608 30.084C36.8568 29.9773 36.9928 29.896 37.1688 29.84C37.3474 29.784 37.5581 29.756 37.8008 29.756ZM37.8008 30.024C37.6248 30.024 37.4728 30.0427 37.3448 30.08C37.2194 30.1147 37.1221 30.1653 37.0528 30.232C36.9834 30.296 36.9488 30.3747 36.9488 30.468C36.9488 30.5613 36.9834 30.6413 37.0528 30.708C37.1221 30.7747 37.2194 30.8267 37.3448 30.864C37.4728 30.8987 37.6248 30.916 37.8008 30.916C37.9741 30.916 38.1234 30.8987 38.2488 30.864C38.3768 30.8267 38.4754 30.7747 38.5448 30.708C38.6141 30.6413 38.6488 30.5613 38.6488 30.468C38.6488 30.3747 38.6141 30.296 38.5448 30.232C38.4754 30.1653 38.3768 30.1147 38.2488 30.08C38.1234 30.0427 37.9741 30.024 37.8008 30.024ZM37.6368 28.76H37.9648V29.4H37.6368V28.76ZM39.8444 30.56H43.1244V30.828H39.8444V30.56ZM40.2604 28.78H42.7044V29.64H40.5964V30.116H40.2684V29.392H42.3764V29.044H40.2604V28.78ZM40.2684 29.992H42.7804V30.252H40.2684V29.992ZM40.2884 31.156H42.7084V32.264H40.2884V31.156ZM42.3804 31.424H40.6124V31.992H42.3804V31.424ZM45.1601 28.756C45.5601 28.756 45.8721 28.8107 46.0961 28.92C46.3201 29.0267 46.4321 29.18 46.4321 29.38C46.4321 29.5827 46.3201 29.7387 46.0961 29.848C45.8721 29.9547 45.5601 30.008 45.1601 30.008C44.7628 30.008 44.4508 29.9547 44.2241 29.848C44.0001 29.7387 43.8881 29.5827 43.8881 29.38C43.8881 29.18 44.0001 29.0267 44.2241 28.92C44.4508 28.8107 44.7628 28.756 45.1601 28.756ZM45.1601 29.004C44.9655 29.004 44.7988 29.0187 44.6601 29.048C44.5215 29.0773 44.4148 29.12 44.3401 29.176C44.2681 29.232 44.2321 29.3 44.2321 29.38C44.2321 29.46 44.2681 29.5293 44.3401 29.588C44.4148 29.644 44.5215 29.6867 44.6601 29.716C44.7988 29.7427 44.9655 29.756 45.1601 29.756C45.3575 29.756 45.5255 29.7427 45.6641 29.716C45.8028 29.6867 45.9081 29.644 45.9801 29.588C46.0548 29.5293 46.0921 29.46 46.0921 29.38C46.0921 29.3 46.0548 29.232 45.9801 29.176C45.9081 29.12 45.8028 29.0773 45.6641 29.048C45.5255 29.0187 45.3575 29.004 45.1601 29.004ZM43.5281 30.252H46.7961V30.52H43.5281V30.252ZM43.9241 30.828H46.3761V31.644H44.2561V32.08H43.9321V31.4H46.0521V31.084H43.9241V30.828ZM43.9321 32.012H46.4841V32.272H43.9321V32.012ZM50.5503 28.692H50.8823V32.316H50.5503V28.692ZM50.8063 30.12H51.4743V30.396H50.8063V30.12ZM48.2583 31.132H48.5423C48.7637 31.132 48.9663 31.1293 49.1503 31.124C49.337 31.116 49.5157 31.1027 49.6863 31.084C49.8597 31.0653 50.0357 31.04 50.2143 31.008L50.2543 31.292C50.0677 31.324 49.8863 31.3493 49.7103 31.368C49.537 31.3867 49.3557 31.3987 49.1663 31.404C48.977 31.4093 48.769 31.412 48.5423 31.412H48.2583V31.132ZM48.2583 29.044H49.9343V29.316H48.5863V31.26H48.2583V29.044ZM52.734 29.004H53.01V29.652C53.01 29.86 52.9834 30.0627 52.93 30.26C52.8794 30.4547 52.806 30.6373 52.71 30.808C52.6167 30.976 52.506 31.1253 52.378 31.256C52.2527 31.384 52.1154 31.4853 51.966 31.56L51.762 31.284C51.898 31.2227 52.0247 31.1347 52.142 31.02C52.2594 30.9053 52.362 30.776 52.45 30.632C52.538 30.4853 52.6074 30.328 52.658 30.16C52.7087 29.992 52.734 29.8227 52.734 29.652V29.004ZM52.79 29.004H53.066V29.652C53.066 29.8173 53.09 29.98 53.138 30.14C53.1887 30.3 53.258 30.452 53.346 30.596C53.4367 30.7373 53.5394 30.8627 53.654 30.972C53.7714 31.0787 53.8967 31.1627 54.03 31.224L53.83 31.488C53.6834 31.4187 53.5474 31.3213 53.422 31.196C53.2967 31.0707 53.186 30.9267 53.09 30.764C52.9967 30.6013 52.9234 30.4253 52.87 30.236C52.8167 30.0467 52.79 29.852 52.79 29.652V29.004ZM54.41 28.692H54.742V32.316H54.41V28.692ZM58.9883 28.692H59.3203V31.116H58.9883V28.692ZM57.9763 30.904H58.2603V31.02C58.2603 31.1907 58.2229 31.3467 58.1483 31.488C58.0763 31.6293 57.9763 31.7547 57.8483 31.864C57.7229 31.9707 57.5776 32.06 57.4123 32.132C57.2496 32.2067 57.0776 32.2613 56.8963 32.296L56.7643 32.032C56.9269 32.0053 57.0803 31.9627 57.2243 31.904C57.3709 31.8427 57.5003 31.768 57.6123 31.68C57.7269 31.5893 57.8163 31.4893 57.8803 31.38C57.9443 31.268 57.9763 31.148 57.9763 31.02V30.904ZM58.0363 30.904H58.3203V31.02C58.3203 31.148 58.3523 31.268 58.4162 31.38C58.4803 31.4893 58.5683 31.588 58.6803 31.676C58.7923 31.764 58.9203 31.8387 59.0643 31.9C59.2109 31.9587 59.3643 32.0027 59.5243 32.032L59.3883 32.296C59.2069 32.2613 59.0349 32.2067 58.8723 32.132C58.7123 32.0573 58.5683 31.9667 58.4403 31.86C58.3149 31.7507 58.2163 31.6253 58.1443 31.484C58.0723 31.3427 58.0363 31.188 58.0363 31.02V30.904ZM57.3803 28.932C57.5643 28.932 57.7269 28.968 57.8683 29.04C58.0096 29.112 58.1203 29.2133 58.2003 29.344C58.2829 29.472 58.3243 29.62 58.3243 29.788C58.3243 29.9587 58.2829 30.1093 58.2003 30.24C58.1203 30.368 58.0096 30.4693 57.8683 30.544C57.7269 30.616 57.5643 30.652 57.3803 30.652C57.1989 30.652 57.0363 30.616 56.8923 30.544C56.7509 30.4693 56.6389 30.368 56.5563 30.24C56.4763 30.1093 56.4363 29.9587 56.4363 29.788C56.4363 29.62 56.4763 29.472 56.5563 29.344C56.6389 29.2133 56.7509 29.112 56.8923 29.04C57.0363 28.968 57.1989 28.932 57.3803 28.932ZM57.3803 29.216C57.2629 29.216 57.1576 29.24 57.0643 29.288C56.9709 29.336 56.8963 29.404 56.8403 29.492C56.7869 29.5773 56.7603 29.676 56.7603 29.788C56.7603 29.9027 56.7869 30.004 56.8403 30.092C56.8963 30.1773 56.9709 30.2453 57.0643 30.296C57.1576 30.344 57.2629 30.368 57.3803 30.368C57.5003 30.368 57.6069 30.344 57.7003 30.296C57.7936 30.2453 57.8669 30.1773 57.9203 30.092C57.9736 30.004 58.0003 29.9027 58.0003 29.788C58.0003 29.676 57.9736 29.5773 57.9203 29.492C57.8669 29.404 57.7936 29.336 57.7003 29.288C57.6069 29.24 57.5003 29.216 57.3803 29.216ZM60.4759 29.78H62.9359V30.048H60.4759V29.78ZM60.0319 30.532H63.3119V30.804H60.0319V30.532ZM60.4759 28.824H60.8039V29.916H60.4759V28.824ZM60.4519 31.952H62.9559V32.224H60.4519V31.952ZM60.4519 31.168H60.7839V32.024H60.4519V31.168ZM67.2542 28.696H67.5862V31.14H67.2542V28.696ZM66.4782 29.712H67.3222V29.988H66.4782V29.712ZM66.1142 28.98H66.4622C66.4622 29.2893 66.3968 29.5693 66.2662 29.82C66.1355 30.068 65.9462 30.284 65.6982 30.468C65.4528 30.652 65.1582 30.8 64.8142 30.912L64.6702 30.648C64.9768 30.552 65.2368 30.4293 65.4502 30.28C65.6662 30.1307 65.8302 29.9573 65.9422 29.76C66.0568 29.5627 66.1142 29.3453 66.1142 29.108V28.98ZM64.8462 28.98H66.3502V29.252H64.8462V28.98ZM66.2542 30.832H66.5382V30.996C66.5382 31.1667 66.5008 31.3253 66.4262 31.472C66.3542 31.616 66.2542 31.744 66.1262 31.856C66.0008 31.9653 65.8568 32.0573 65.6942 32.132C65.5315 32.2093 65.3595 32.2653 65.1782 32.3L65.0462 32.036C65.2062 32.0093 65.3582 31.9653 65.5022 31.904C65.6488 31.84 65.7782 31.7627 65.8902 31.672C66.0022 31.5813 66.0902 31.4787 66.1542 31.364C66.2208 31.2493 66.2542 31.1267 66.2542 30.996V30.832ZM66.2982 30.832H66.5822V30.996C66.5822 31.124 66.6142 31.2453 66.6782 31.36C66.7422 31.472 66.8302 31.5733 66.9422 31.664C67.0542 31.7547 67.1822 31.8307 67.3262 31.892C67.4728 31.9533 67.6248 31.9987 67.7822 32.028L67.6462 32.292C67.4648 32.2573 67.2928 32.2027 67.1302 32.128C66.9702 32.0533 66.8275 31.9613 66.7022 31.852C66.5768 31.74 66.4782 31.612 66.4062 31.468C66.3342 31.324 66.2982 31.1667 66.2982 30.996V30.832ZM69.7578 30.1H70.4378V30.372H69.7578V30.1ZM71.0458 28.692H71.3658V32.312H71.0458V28.692ZM70.3258 28.768H70.6418V32.128H70.3258V28.768ZM69.1018 28.996C69.2592 28.996 69.3952 29.0467 69.5098 29.148C69.6272 29.2493 69.7178 29.3947 69.7818 29.584C69.8458 29.7733 69.8778 29.996 69.8778 30.252C69.8778 30.5107 69.8458 30.7347 69.7818 30.924C69.7178 31.1133 69.6272 31.26 69.5098 31.364C69.3952 31.4653 69.2592 31.516 69.1018 31.516C68.9498 31.516 68.8152 31.4653 68.6978 31.364C68.5832 31.26 68.4938 31.1133 68.4298 30.924C68.3658 30.7347 68.3338 30.5107 68.3338 30.252C68.3338 29.996 68.3658 29.7733 68.4298 29.584C68.4938 29.3947 68.5832 29.2493 68.6978 29.148C68.8152 29.0467 68.9498 28.996 69.1018 28.996ZM69.1018 29.304C69.0085 29.304 68.9272 29.3427 68.8578 29.42C68.7885 29.4973 68.7352 29.6067 68.6978 29.748C68.6605 29.8893 68.6418 30.0573 68.6418 30.252C68.6418 30.4467 68.6605 30.616 68.6978 30.76C68.7352 30.9013 68.7885 31.0107 68.8578 31.088C68.9272 31.1653 69.0085 31.204 69.1018 31.204C69.1978 31.204 69.2805 31.1653 69.3498 31.088C69.4218 31.0107 69.4765 30.9013 69.5138 30.76C69.5512 30.616 69.5698 30.4467 69.5698 30.252C69.5698 30.0573 69.5512 29.8893 69.5138 29.748C69.4765 29.6067 69.4218 29.4973 69.3498 29.42C69.2805 29.3427 69.1978 29.304 69.1018 29.304ZM73.7775 29.92H74.7815V30.192H73.7775V29.92ZM72.9015 29.004H73.1735V29.652C73.1735 29.852 73.1482 30.0493 73.0975 30.244C73.0495 30.4387 72.9802 30.62 72.8895 30.788C72.7989 30.956 72.6922 31.1053 72.5695 31.236C72.4495 31.3667 72.3175 31.4707 72.1735 31.548L71.9655 31.28C72.0989 31.216 72.2215 31.1267 72.3335 31.012C72.4482 30.8973 72.5482 30.7667 72.6335 30.62C72.7189 30.4707 72.7842 30.3147 72.8295 30.152C72.8775 29.9867 72.9015 29.82 72.9015 29.652V29.004ZM72.9695 29.004H73.2375V29.652C73.2375 29.8147 73.2602 29.976 73.3055 30.136C73.3535 30.296 73.4202 30.4467 73.5055 30.588C73.5909 30.7267 73.6895 30.8507 73.8015 30.96C73.9162 31.0693 74.0389 31.1547 74.1695 31.216L73.9695 31.484C73.8255 31.4093 73.6922 31.3093 73.5695 31.184C73.4469 31.0587 73.3402 30.9147 73.2495 30.752C73.1615 30.5893 73.0922 30.4147 73.0415 30.228C72.9935 30.0413 72.9695 29.8493 72.9695 29.652V29.004ZM74.6175 28.692H74.9455V32.316H74.6175V28.692ZM77.4958 29.004H77.7718V29.652C77.7718 29.86 77.7451 30.0627 77.6918 30.26C77.6411 30.4547 77.5678 30.6373 77.4718 30.808C77.3784 30.976 77.2678 31.1253 77.1398 31.256C77.0144 31.384 76.8771 31.4853 76.7278 31.56L76.5238 31.284C76.6598 31.2227 76.7864 31.1347 76.9038 31.02C77.0211 30.9053 77.1238 30.776 77.2118 30.632C77.2998 30.4853 77.3691 30.328 77.4198 30.16C77.4704 29.992 77.4958 29.8227 77.4958 29.652V29.004ZM77.5518 29.004H77.8278V29.652C77.8278 29.8173 77.8518 29.98 77.8998 30.14C77.9504 30.3 78.0198 30.452 78.1078 30.596C78.1984 30.7373 78.3011 30.8627 78.4158 30.972C78.5331 31.0787 78.6584 31.1627 78.7918 31.224L78.5918 31.488C78.4451 31.4187 78.3091 31.3213 78.1838 31.196C78.0584 31.0707 77.9478 30.9267 77.8518 30.764C77.7584 30.6013 77.6851 30.4253 77.6318 30.236C77.5784 30.0467 77.5518 29.852 77.5518 29.652V29.004ZM79.1718 28.692H79.5038V32.316H79.1718V28.692ZM81.1154 29.064H81.3874V29.356C81.3874 29.5773 81.3448 29.784 81.2594 29.976C81.1768 30.1653 81.0608 30.3307 80.9114 30.472C80.7621 30.6107 80.5861 30.716 80.3834 30.788L80.2074 30.532C80.3888 30.468 80.5474 30.376 80.6834 30.256C80.8194 30.136 80.9248 30 80.9994 29.848C81.0768 29.6933 81.1154 29.5293 81.1154 29.356V29.064ZM81.1754 29.064H81.4474V29.356C81.4474 29.5133 81.4834 29.6653 81.5554 29.812C81.6274 29.9587 81.7288 30.088 81.8594 30.2C81.9928 30.312 82.1474 30.3987 82.3234 30.46L82.1554 30.72C81.9581 30.648 81.7848 30.5453 81.6354 30.412C81.4888 30.276 81.3754 30.1173 81.2954 29.936C81.2154 29.7547 81.1754 29.5613 81.1754 29.356V29.064ZM80.3074 28.944H82.2434V29.216H80.3074V28.944ZM82.6994 28.692H83.0314V30.872H82.6994V28.692ZM82.9394 29.644H83.5634V29.924H82.9394V29.644ZM80.6794 31.064H83.0314V32.312H82.6994V31.336H80.6794V31.064ZM84.9351 29.92H85.2671V30.516H84.9351V29.92ZM86.5351 28.696H86.8671V30.776H86.5351V28.696ZM83.9631 30.692L83.9151 30.42C84.1365 30.42 84.3778 30.4187 84.6391 30.416C84.9031 30.4107 85.1725 30.4 85.4471 30.384C85.7245 30.3653 85.9898 30.3387 86.2431 30.304L86.2631 30.54C86.0018 30.5853 85.7351 30.6187 85.4631 30.64C85.1911 30.6613 84.9271 30.6747 84.6711 30.68C84.4151 30.6853 84.1791 30.6893 83.9631 30.692ZM84.2391 29.752H85.9751V30.016H84.2391V29.752ZM84.2391 28.872H85.9431V29.144H84.5711V29.852H84.2391V28.872ZM84.4991 30.94H84.8271V31.32H86.5431V30.94H86.8671V32.264H84.4991V30.94ZM84.8271 31.576V31.992H86.5431V31.576H84.8271ZM90.2148 28.692H90.5428V32.312H90.2148V28.692ZM87.8108 29.048H88.1388V31.288H87.8108V29.048ZM87.8108 31.092H88.1068C88.3841 31.092 88.6655 31.08 88.9508 31.056C89.2388 31.0293 89.5348 30.9853 89.8388 30.924L89.8828 31.204C89.5681 31.2707 89.2655 31.3173 88.9748 31.344C88.6841 31.368 88.3948 31.38 88.1068 31.38H87.8108V31.092ZM93.7105 28.692H94.0425V32.316H93.7105V28.692ZM93.9665 30.12H94.6345V30.396H93.9665V30.12ZM91.4185 31.132H91.7025C91.9238 31.132 92.1265 31.1293 92.3105 31.124C92.4972 31.116 92.6758 31.1027 92.8465 31.084C93.0198 31.0653 93.1958 31.04 93.3745 31.008L93.4145 31.292C93.2278 31.324 93.0465 31.3493 92.8705 31.368C92.6972 31.3867 92.5158 31.3987 92.3265 31.404C92.1372 31.4093 91.9292 31.412 91.7025 31.412H91.4185V31.132ZM91.4185 29.044H93.0945V29.316H91.7465V31.26H91.4185V29.044ZM95.2982 32.052C95.2262 32.052 95.1635 32.0267 95.1102 31.976C95.0595 31.9227 95.0342 31.856 95.0342 31.776C95.0342 31.6907 95.0595 31.6227 95.1102 31.572C95.1635 31.5213 95.2262 31.496 95.2982 31.496C95.3702 31.496 95.4315 31.5213 95.4822 31.572C95.5355 31.6227 95.5622 31.6907 95.5622 31.776C95.5622 31.856 95.5355 31.9227 95.4822 31.976C95.4315 32.0267 95.3702 32.052 95.2982 32.052Z" fill="#1D7BBF"/>
</svg>
