<svg width="227" height="302" viewBox="0 0 227 302" fill="none" xmlns="http://www.w3.org/2000/svg">
<g clip-path="url(#clip0_5478_7299)">
<path d="M199.948 24.3181C200.342 24.605 202.485 20.8309 202.87 20.4212C203.327 19.9342 204.115 19.5948 204.521 19.1508C205.274 18.3263 205.761 16.6866 206.674 15.7013C207.508 14.8037 208.441 14.3714 209.29 13.3097C210.969 11.2083 212.373 8.63471 213.746 6.3534C213.928 6.04859 215.049 4.30173 215.166 4.21517C215.538 3.94817 216.563 4.23116 216.565 4.77562C216.688 5.65135 215.388 6.47157 215.011 6.98973C213.708 8.79602 212.436 10.8815 211.131 12.6318C209.427 14.9178 207.697 16.6454 205.973 19.0127C205.115 20.189 203.687 20.8865 203.08 21.7233C202.616 22.3641 202.428 23.3727 201.81 24.1684C201.015 25.1914 199.474 26.1815 198.736 27.093C198.248 27.6952 197.953 28.668 197.487 29.3682C195.556 32.264 192.983 34.3719 190.488 36.7228C181.703 44.9957 170.177 52.5874 159.712 58.6447C151.713 63.2753 144.58 67.2168 135.366 68.9776C134.558 69.1316 130.858 69.3788 130.525 69.611L127.103 78.0321L125.017 81.0795C119.913 88.3573 114.395 95.452 108.47 102.155C106.998 103.82 104.84 105.642 103.617 107.455C102.872 108.562 102.438 110.099 101.378 111.11L109.831 112.994C114.277 114.799 117.877 117.617 121.483 120.636C131.008 128.615 139.046 142.043 137.176 154.933C137.082 155.579 135.135 160.387 134.809 160.628C134.646 160.746 134.273 160.659 134.068 160.815C133.885 160.954 133.676 161.958 133.276 162.375C131.499 164.229 129.45 166.133 127.018 167.194C121.066 169.786 115.087 169.069 109.256 166.738C102.861 164.185 96.6756 157.994 94.0124 151.648C92.3183 147.611 91.4673 142.22 91.8083 137.724C91.8542 137.111 92.2216 136.602 92.2654 136.065C92.3208 135.396 92.0329 134.532 92.1743 133.927C92.2447 133.631 92.6155 133.485 92.6716 133.053C92.819 131.886 92.784 131.119 93.0037 129.789C93.8637 124.581 94.5569 119.449 96.7452 114.727C97.1231 113.909 98.1182 113.265 98.0603 112.232C97.607 112.174 97.1979 112.493 96.7743 112.526C94.4236 112.707 91.9822 112.492 89.598 112.602C86.1654 112.76 81.0676 114.171 77.5216 114.934C72.9973 115.909 69.2371 117.422 64.4349 118.288C58.8083 119.303 53.0905 120.343 47.6068 122.1C44.5315 123.085 43.3525 124.515 40.9903 126.417C39.1146 127.929 37.1345 129.29 35.5606 131.211C33.6738 133.517 32.5528 135.7 31.4305 138.453C30.4113 140.953 29.1834 143.552 28.3742 146.069C26.8567 150.778 26.1285 156.369 25.718 161.332C25.4977 164.013 26.1106 166.503 26.6284 169.031C26.7987 169.863 26.5125 170.638 26.5664 171.435C26.8753 176.076 30.8053 183.526 33.9253 187.008C39.3457 193.058 48.6832 198.641 55.8143 202.629C58.7436 204.266 61.0323 205.48 64.1335 206.81C73.7043 210.92 82.0925 215.99 90.2786 222.269C98.0687 228.247 103.998 237.262 104.157 247.48C104.231 252.17 101.926 261.45 99.4647 265.455C91.4093 278.563 76.7 284.142 61.8796 285.355C55.5473 285.873 49.1172 285.301 42.7127 284.829C34.6271 284.234 26.9504 282.772 18.8303 283.303C16.14 283.479 13.0742 283.255 10.5355 283.873C9.73372 284.068 8.98277 284.744 8.05636 284.57C7.66942 283.981 8.1905 283.551 8.53147 283.058C8.04343 282.496 7.32998 282.721 6.70264 282.58C6.43978 282.522 6.22273 282.568 6.28453 282.213C7.03576 281.942 8.24172 280.764 8.88028 280.725C9.74149 280.676 11.3065 281.57 12.3543 281.684C15.6741 282.045 19.6517 280.963 22.8728 281.209C29.3238 281.7 36.1951 283.097 42.6159 283.444C44.3376 283.538 46.7922 283.097 48.5679 283.271C49.8626 283.4 52.6756 284.285 53.8661 284.234C54.4457 284.209 55.0753 283.807 55.8007 283.753C59.6655 283.478 62.3038 283.719 66.3544 282.934C74.2529 281.401 84.3766 279.183 90.5569 273.558C91.1747 272.996 92.2867 272.147 92.7459 271.636C92.9712 271.387 93.0213 270.909 93.2062 270.729C93.5054 270.44 94.0019 270.446 94.5036 269.897C96.8398 267.34 100.366 260.964 100.968 257.587C102.508 248.937 103.703 244.132 99.2329 236C95.2912 228.826 91.902 225.438 85.2943 220.699C81.4942 217.973 77.5771 215.483 73.3507 213.388C69.9937 211.722 66.8899 209.735 63.3521 208.347C58.1017 206.289 53.906 203.524 49.1007 200.682C43.7418 197.515 37.4943 193.621 33.1568 188.959C30.5359 186.141 25.9563 178.449 25.2259 174.703C24.8941 173.002 25.0966 171.046 24.8506 169.369C24.6712 168.138 24.105 166.718 23.9786 165.427C23.6148 161.651 24.8112 157.173 25.1538 153.343C25.2163 152.652 24.9774 151.921 25.0719 151.214C25.1548 150.599 25.7807 149.685 25.976 149.011C27.435 143.97 29.0229 138.494 31.5628 133.878C34.2958 128.909 42.2767 122.168 47.6905 120.287C49.29 119.732 52.521 118.709 54.075 118.384C54.97 118.196 55.7495 118.258 56.8762 118.028C62.3117 116.919 66.9694 116.306 72.3577 114.725C78.228 113.004 84.989 110.924 91.0571 111.025C93.8081 111.071 96.5717 110.515 99.3181 110.702C99.5726 110.527 100.084 109.026 100.324 108.679C101.982 106.3 104.061 104.171 105.983 102.027C110.055 97.486 114.256 92.7952 118.105 88.1155C119.98 85.8342 121.281 83.3098 122.94 80.9233C123.602 79.9739 124.982 78.7601 125.562 77.7785C126.099 76.8734 126.608 74.7668 127.032 73.6578C127.569 72.2619 128.568 70.9939 128.521 69.4413C127.725 69.1568 126.997 69.678 126.484 69.7197C123.05 69.999 115.617 65.8938 113.338 63.3765C111.915 61.8039 109.927 58.9111 109.35 56.8103C106.166 45.2533 119.634 40.6242 126.876 47.9453C129.145 50.24 131.269 54.2244 131.879 57.355C132.528 60.6917 131.65 64.3548 131.195 67.6641C132.48 67.6119 133.771 67.425 135.03 67.1842C142.441 65.7684 147.77 63.4987 154.203 59.8109C159.601 56.7177 165.209 53.4488 170.304 49.9403C174.194 47.2626 178.21 44.5272 182.011 41.654C186.008 38.6312 189.506 35.3562 192.856 31.679C194.013 30.4094 195.372 28.5958 196.142 27.0705C196.643 26.0824 196.874 24.7878 197.509 23.8292C198.313 22.6199 199.639 21.958 200.445 20.5425C201.406 18.8488 201.297 17.1188 201.992 15.5365C202.727 13.8621 203.932 12.86 204.632 10.734C205.573 7.87795 206.156 5.54613 206.606 2.54618C206.682 2.03514 206.557 0.783025 206.644 0.497956C206.675 0.401768 207.519 -1.2054 207.6 -1.2617C208.455 -1.87089 209.146 -0.77416 209.741 -0.706369C210.186 -0.65522 212.238 -0.893771 212.424 -0.794221C213.727 -0.0874025 212.329 1.61429 211.946 2.53488C211.05 4.6837 209.759 7.69522 208.627 9.73486C208.027 10.8123 207.073 11.6957 206.461 12.7041C205.812 13.7752 205.482 15.195 204.873 16.1797C204.3 17.1096 203.143 17.8413 202.566 18.8407C201.949 19.9075 201.565 21.4208 200.789 22.5273C200.324 23.1871 199.365 23.2931 199.943 24.3104L199.948 24.3181ZM205.863 11.3412C206.95 10.7427 206.83 9.87918 207.154 9.01087C207.421 8.29558 208.127 7.877 207.752 6.8209C207.386 7.15384 206.542 8.49656 206.404 8.91542C206.277 9.29807 206.413 9.67815 206.326 9.96882C206.193 10.3987 205.6 10.6681 205.865 11.3422L205.863 11.3412ZM125.051 48.6003C123.2 47.5004 120.948 46.1845 118.625 46.204C115.423 46.2318 110.974 48.2266 110.616 51.8343C109.985 58.2012 114.697 63.2345 119.923 65.9124C122.938 67.4591 125.504 67.9463 128.905 67.9941C129.564 67.7966 130.202 63.9258 130.256 63.1869C130.601 58.4558 129.933 54.992 127.178 51.1908C126.945 50.8709 125.196 48.6866 125.053 48.6014L125.051 48.6003ZM122.733 123.807C122.524 123.638 122.135 123.627 121.866 123.409C118.586 120.769 115.389 117.467 111.644 115.627C109.289 114.471 107.979 114.268 105.503 113.878C104.791 113.765 104.022 113.208 103.393 113.083C102.958 112.998 101.003 112.926 100.653 113.051C100.065 113.833 98.8226 114.661 98.4018 115.614C95.2734 122.711 94.0284 131.865 93.695 139.558C93.3982 146.413 95.2452 152.49 99.8281 157.618C104.707 163.079 109.446 165.659 116.515 166.992C123.939 168.393 132.82 163.405 135.155 156.156C137.546 148.726 133.449 137.785 129.2 131.713C128.588 130.84 127.062 129.391 126.629 128.661C126.028 127.645 123.716 124.594 122.737 123.805L122.733 123.807Z" fill="black"/>
<path d="M199.948 24.3181C200.342 24.605 202.485 20.8309 202.87 20.4212C203.327 19.9342 204.115 19.5948 204.521 19.1508C205.274 18.3263 205.761 16.6866 206.674 15.7013C207.508 14.8037 208.441 14.3714 209.29 13.3097C210.969 11.2083 212.373 8.63471 213.746 6.3534C213.928 6.04859 215.049 4.30173 215.166 4.21517C215.538 3.94817 216.563 4.23116 216.565 4.77562C216.688 5.65135 215.388 6.47157 215.011 6.98973C213.708 8.79602 212.436 10.8815 211.131 12.6318C209.427 14.9178 207.697 16.6454 205.973 19.0127C205.115 20.189 203.687 20.8865 203.08 21.7233C202.616 22.3641 202.428 23.3727 201.81 24.1684C201.015 25.1914 199.474 26.1815 198.736 27.093C198.248 27.6952 197.953 28.668 197.487 29.3682C195.556 32.264 192.983 34.3719 190.488 36.7228C181.703 44.9957 170.177 52.5874 159.712 58.6447C151.713 63.2753 144.58 67.2168 135.366 68.9776C134.558 69.1316 130.858 69.3788 130.525 69.611L127.103 78.0321L125.017 81.0795C119.913 88.3573 114.395 95.452 108.47 102.155C106.998 103.82 104.84 105.642 103.617 107.455C102.872 108.562 102.438 110.099 101.378 111.11L109.831 112.994C114.277 114.799 117.877 117.617 121.483 120.636C131.008 128.615 139.046 142.043 137.176 154.933C137.082 155.579 135.135 160.387 134.809 160.628C134.646 160.746 134.273 160.659 134.068 160.815C133.885 160.954 133.676 161.958 133.276 162.375C131.499 164.229 129.45 166.133 127.018 167.194C121.066 169.786 115.087 169.069 109.256 166.738C102.861 164.185 96.6756 157.994 94.0124 151.648C92.3183 147.611 91.4673 142.22 91.8083 137.724C91.8542 137.111 92.2216 136.602 92.2654 136.065C92.3208 135.396 92.0329 134.532 92.1743 133.927C92.2447 133.631 92.6155 133.485 92.6716 133.053C92.819 131.886 92.784 131.119 93.0037 129.789C93.8637 124.581 94.5569 119.449 96.7452 114.727C97.1231 113.909 98.1182 113.265 98.0603 112.232C97.607 112.174 97.1979 112.493 96.7743 112.526C94.4236 112.707 91.9822 112.492 89.598 112.602C86.1654 112.76 81.0676 114.171 77.5216 114.934C72.9973 115.909 69.2371 117.422 64.4349 118.288C58.8083 119.303 53.0905 120.343 47.6068 122.1C44.5315 123.085 43.3525 124.515 40.9903 126.417C39.1146 127.929 37.1345 129.29 35.5606 131.211C33.6738 133.517 32.5528 135.7 31.4305 138.453C30.4113 140.953 29.1834 143.552 28.3742 146.069C26.8567 150.778 26.1285 156.369 25.718 161.332C25.4977 164.013 26.1106 166.503 26.6284 169.031C26.7987 169.863 26.5125 170.638 26.5664 171.435C26.8753 176.076 30.8053 183.526 33.9253 187.008C39.3457 193.058 48.6832 198.641 55.8143 202.629C58.7436 204.266 61.0323 205.48 64.1335 206.81C73.7043 210.92 82.0925 215.99 90.2786 222.269C98.0687 228.247 103.998 237.262 104.157 247.48C104.231 252.17 101.926 261.45 99.4647 265.455C91.4093 278.563 76.7 284.142 61.8796 285.355C55.5473 285.873 49.1172 285.301 42.7127 284.829C34.6271 284.234 26.9504 282.772 18.8303 283.303C16.14 283.479 13.0742 283.255 10.5355 283.873C9.73372 284.068 8.98277 284.744 8.05636 284.57C7.66942 283.981 8.1905 283.551 8.53147 283.058C8.04343 282.496 7.32998 282.721 6.70264 282.58C6.43978 282.522 6.22273 282.568 6.28453 282.213C7.03576 281.942 8.24172 280.764 8.88028 280.725C9.74149 280.676 11.3065 281.57 12.3543 281.684C15.6741 282.045 19.6517 280.963 22.8728 281.209C29.3238 281.7 36.1951 283.097 42.6159 283.444C44.3376 283.538 46.7922 283.097 48.5679 283.271C49.8626 283.4 52.6756 284.285 53.8661 284.234C54.4457 284.209 55.0753 283.807 55.8007 283.753C59.6655 283.478 62.3038 283.719 66.3544 282.934C74.2529 281.401 84.3766 279.183 90.5569 273.558C91.1747 272.996 92.2867 272.147 92.7459 271.636C92.9712 271.387 93.0213 270.909 93.2062 270.729C93.5054 270.44 94.0019 270.446 94.5036 269.897C96.8398 267.34 100.366 260.964 100.968 257.587C102.508 248.937 103.703 244.132 99.2329 236C95.2912 228.826 91.902 225.438 85.2943 220.699C81.4942 217.973 77.5771 215.483 73.3507 213.388C69.9937 211.722 66.8899 209.735 63.3521 208.347C58.1017 206.289 53.906 203.524 49.1007 200.682C43.7418 197.515 37.4943 193.621 33.1568 188.959C30.5359 186.141 25.9563 178.449 25.2259 174.703C24.8941 173.002 25.0966 171.046 24.8506 169.369C24.6712 168.138 24.105 166.718 23.9786 165.427C23.6148 161.651 24.8112 157.173 25.1538 153.343C25.2163 152.652 24.9774 151.921 25.0719 151.214C25.1548 150.599 25.7807 149.685 25.976 149.011C27.435 143.97 29.0229 138.494 31.5628 133.878C34.2958 128.909 42.2767 122.168 47.6905 120.287C49.29 119.732 52.521 118.709 54.075 118.384C54.97 118.196 55.7495 118.258 56.8762 118.028C62.3117 116.919 66.9694 116.306 72.3577 114.725C78.228 113.004 84.989 110.924 91.0571 111.025C93.8081 111.071 96.5717 110.515 99.3181 110.702C99.5726 110.527 100.084 109.026 100.324 108.679C101.982 106.3 104.061 104.171 105.983 102.027C110.055 97.486 114.256 92.7952 118.105 88.1155C119.98 85.8342 121.281 83.3098 122.94 80.9233C123.602 79.9739 124.982 78.7601 125.562 77.7785C126.099 76.8734 126.608 74.7668 127.032 73.6578C127.569 72.2619 128.568 70.9939 128.521 69.4413C127.725 69.1568 126.997 69.678 126.484 69.7197C123.05 69.999 115.617 65.8938 113.338 63.3765C111.915 61.8039 109.927 58.9111 109.35 56.8103C106.166 45.2533 119.634 40.6242 126.876 47.9453C129.145 50.24 131.269 54.2244 131.879 57.355C132.528 60.6917 131.65 64.3548 131.195 67.6641C132.48 67.6119 133.771 67.425 135.03 67.1842C142.441 65.7684 147.77 63.4987 154.203 59.8109C159.601 56.7177 165.209 53.4488 170.304 49.9403C174.194 47.2626 178.21 44.5272 182.011 41.654C186.008 38.6312 189.506 35.3562 192.856 31.679C194.013 30.4094 195.372 28.5958 196.142 27.0705C196.643 26.0824 196.874 24.7878 197.509 23.8292C198.313 22.6199 199.639 21.958 200.445 20.5425C201.406 18.8488 201.297 17.1188 201.992 15.5365C202.727 13.8621 203.932 12.86 204.632 10.734C205.573 7.87795 206.156 5.54613 206.606 2.54618C206.682 2.03514 206.557 0.783025 206.644 0.497956C206.675 0.401768 207.519 -1.2054 207.6 -1.2617C208.455 -1.87089 209.146 -0.77416 209.741 -0.706369C210.186 -0.65522 212.238 -0.893771 212.424 -0.794221C213.727 -0.0874025 212.329 1.61429 211.946 2.53488C211.05 4.6837 209.759 7.69522 208.627 9.73486C208.027 10.8123 207.073 11.6957 206.461 12.7041C205.812 13.7752 205.482 15.195 204.873 16.1797C204.3 17.1096 203.143 17.8413 202.566 18.8407C201.949 19.9075 201.565 21.4208 200.789 22.5273C200.324 23.1871 199.365 23.2931 199.943 24.3104L199.948 24.3181ZM205.863 11.3412C206.95 10.7427 206.83 9.87918 207.154 9.01087C207.421 8.29558 208.127 7.877 207.752 6.8209C207.386 7.15384 206.542 8.49656 206.404 8.91542C206.277 9.29807 206.413 9.67815 206.326 9.96882C206.193 10.3987 205.6 10.6681 205.865 11.3422L205.863 11.3412ZM125.051 48.6003C123.2 47.5004 120.948 46.1845 118.625 46.204C115.423 46.2318 110.974 48.2266 110.616 51.8343C109.985 58.2012 114.697 63.2345 119.923 65.9124C122.938 67.4591 125.504 67.9463 128.905 67.9941C129.564 67.7966 130.202 63.9258 130.256 63.1869C130.601 58.4558 129.933 54.992 127.178 51.1908C126.945 50.8709 125.196 48.6866 125.053 48.6014L125.051 48.6003ZM122.733 123.807C122.524 123.638 122.135 123.627 121.866 123.409C118.586 120.769 115.389 117.467 111.644 115.627C109.289 114.471 107.979 114.268 105.503 113.878C104.791 113.765 104.022 113.208 103.393 113.083C102.958 112.998 101.003 112.926 100.653 113.051C100.065 113.833 98.8226 114.661 98.4018 115.614C95.2734 122.711 94.0284 131.865 93.695 139.558C93.3982 146.413 95.2452 152.49 99.8281 157.618C104.707 163.079 109.446 165.659 116.515 166.992C123.939 168.393 132.82 163.405 135.155 156.156C137.546 148.726 133.449 137.785 129.2 131.713C128.588 130.84 127.062 129.391 126.629 128.661C126.028 127.645 123.716 124.594 122.737 123.805L122.733 123.807Z" fill="black" fill-opacity="0.2"/>
</g>
<defs>
<clipPath id="clip0_5478_7299">
<rect width="227" height="302" fill="white"/>
</clipPath>
</defs>
</svg>
