<?xml version="1.0" encoding="UTF-8"?>
<svg id="_레이어_2" data-name="레이어 2" xmlns="http://www.w3.org/2000/svg" viewBox="0 0 467.22 1376.73">
  <g id="_레이어_1-2" data-name="레이어 1">
    <g id="J9kVib.tif">
      <path d="M427.43,111.92c1.91.38,3.36-16.89,4.07-19.02.84-2.53,3.13-5.08,3.86-7.37,1.35-4.25.37-11.01,2.03-16.11,1.52-4.65,4.18-7.78,5.48-13.05,2.57-10.43,3.35-22.11,4.51-32.68.15-1.41,1.29-9.62,1.57-10.13.9-1.59,5.09-2.28,6.01-.31,1.91,2.97-1.43,8.12-1.93,10.63-1.7,8.73-2.82,18.42-4.62,26.95-2.35,11.14-5.73,20.3-8.02,31.77-1.14,5.7-5.15,10.62-5.95,14.67-.61,3.1.4,7.07-.51,10.99-1.17,5.04-5.1,11.21-6.25,15.75-.76,3-.2,7.02-.72,10.34-2.15,13.73-7.95,25.68-13.06,38.38-18,44.7-47.08,91.52-74.88,131-21.25,30.18-40.51,56.41-70.97,78.22-2.67,1.91-15.67,9-16.49,10.4l1.69,36.26-2.46,14.54c-6.32,34.93-14.45,69.89-24.71,104.11-2.55,8.5-7.32,18.72-8.72,27.34-.85,5.26.15,11.56-2,17l33.8-7.32c19.14-.9,36.91,3.29,55.04,8.2,47.89,12.98,99.51,48.21,114.31,98.07.74,2.5,1.73,23.19.95,24.61-.39.7-1.89,1.01-2.37,1.92-.43.81.49,4.8-.26,6.98-3.34,9.7-7.58,20.03-14.62,27.95-17.24,19.36-40.12,26.77-65.16,28.08-27.46,1.45-60.25-10.64-80.53-29.19-12.9-11.8-25.01-29.92-31.3-46.79-.86-2.3-.38-4.76-1.12-6.78-.92-2.52-3.41-5.17-3.91-7.6-.24-1.19.86-2.34.34-4-1.42-4.48-2.83-7.2-4.26-12.39-5.6-20.32-11.68-40.09-11.65-60.87,0-3.6,2.53-7.6.59-11.25-1.74.55-2.69,2.39-4.17,3.22-8.22,4.59-17.43,7.9-25.89,12.29-12.18,6.32-28.3,19.97-39.88,28.67-14.77,11.11-25.87,22.89-41.83,34.07-18.7,13.1-37.69,26.44-54.63,41.99-9.5,8.72-11.38,15.88-16.76,26.73-4.27,8.62-9.17,16.87-11.66,26.47-2.98,11.52-3.39,21.31-2.85,33.17.49,10.77.39,22.25,1.67,32.73,2.38,19.61,9.1,41.1,15.92,59.78,3.69,10.09,10.08,18.09,16.19,26.39,2.01,2.73,2.27,6.02,3.8,8.82,8.89,16.31,35.61,36.74,52.75,44.14,29.78,12.86,72.98,17.47,105.51,19.99,13.36,1.03,23.69,1.6,37.16,1.23,41.58-1.12,80.48,3.22,120.67,12.28,38.25,8.63,74.84,31.39,92.52,68.17,8.12,16.88,15.3,54.38,13.08,73.02-7.26,61.01-51.25,105.86-102.95,135.07-22.09,12.48-46.36,21.17-70.37,30.18-30.31,11.38-60.59,18.93-89.14,34.45-9.46,5.14-20.95,9.46-29.12,15.95-2.58,2.05-4.17,5.76-7.82,6.68-2.39-1.49-1.22-3.92-.81-6.28-2.71-1.22-4.92.79-7.43,1.33-1.05.23-1.76.76-2.13-.63,2.27-2.24,4.67-8.53,6.92-9.74,3.04-1.62,10.21-1,14.2-2.34,12.64-4.25,25.25-14.83,37.34-19.33,24.21-9.02,51.46-15.46,75.32-24.95,6.4-2.54,14.56-8.25,21.29-10.59,4.91-1.7,16.59-3.2,20.82-5.38,2.06-1.06,3.67-3.57,6.21-4.98,13.55-7.47,23.52-11.01,36.89-20.64,26.07-18.78,59.06-43.77,72.05-74.51,1.3-3.07,3.91-8.01,4.72-10.63.4-1.28-.22-3.1.15-4.06.6-1.55,2.41-2.36,3.31-5.19,4.19-13.18,6.3-42.2,2.83-55.45-8.9-33.94-12.61-53.36-42.43-75.36-26.3-19.41-44.26-26.02-76.15-32.14-18.34-3.52-36.71-5.99-55.54-6.51-14.96-.42-29.54-2.43-44.69-1.54-22.48,1.33-42.32-1.67-64.5-3.93-24.73-2.51-53.9-6.17-77.43-15.81-14.22-5.83-43.7-26.05-52.62-38.41-4.05-5.61-6.59-13.04-10.29-18.71-2.71-4.16-7.14-8.36-9.76-12.83-7.64-13.08-10.8-31.32-15.97-45.78-.93-2.61-3.02-4.86-3.86-7.58-.73-2.37.01-6.73-.41-9.5-3.15-20.72-6.56-43.23-5.08-64.22,1.59-22.59,19.24-60.39,35.72-76.27,4.87-4.69,14.87-13.81,19.96-17.59,2.93-2.18,5.86-3.26,9.56-5.98,17.85-13.12,33.71-23.14,50.6-37.89,18.4-16.07,39.43-34.93,61.6-44.72,10.05-4.44,19.14-11.08,29.41-15,.63-1.06-.03-7.36.26-9.02,2.03-11.4,6-22.6,9.38-33.59,7.16-23.28,14.54-47.32,20.66-70.73,2.98-11.41,3.47-22.74,5.49-34.17.81-4.55,3.78-11.26,4.24-15.79.43-4.18-1.25-12.67-1.57-17.4-.39-5.96,1.11-12.23-1.66-17.78-3.36.3-5.13,3.41-6.92,4.42-11.98,6.76-45.8,4.32-58.28-.99-7.79-3.32-19.84-10.48-25.45-17.13-30.89-36.57,10.19-75.9,48.7-61.48,12.07,4.52,26.44,15.41,33.89,25.74,7.94,11.01,10.89,25.76,14.78,38.52,4.57-2.34,8.94-5.18,13.1-8.16,24.5-17.54,40.02-34.69,57.17-58.83,14.39-20.25,29.25-41.49,41.85-62.74,9.62-16.22,19.6-32.86,28.57-49.64,9.43-17.65,16.63-35.38,22.62-54.32,2.07-6.54,3.96-15.39,4.2-22.21.16-4.42-1.17-9.5-.47-14.04.89-5.73,4.59-10.35,5.14-16.83.65-7.75-2.64-13.84-2.77-20.74-.14-7.3,2.55-12.95,1.53-21.83-1.37-11.93-3.16-21.36-6.55-32.99-.58-1.98-3.13-6.31-3.29-7.49-.05-.4.32-7.64.52-7.98,2.08-3.64,6.42-.82,8.69-1.57,1.7-.56,8.74-4.86,9.58-4.81,5.91.38,3.69,8.89,3.84,12.87.35,9.29.71,22.37.02,31.66-.37,4.91-2.35,9.71-2.88,14.39-.56,4.97.62,10.67.06,15.26-.52,4.33-3.49,8.92-3.91,13.51-.45,4.9.69,11.03-.27,16.34-.58,3.17-3.88,5.16-.08,7.88ZM427.15,54.97c2.94-3.99,1.06-6.92.78-10.61-.23-3.04,1.63-5.74-1.5-8.94-.77,1.82-1.58,8.1-1.38,9.85.18,1.6,1.31,2.75,1.48,3.95.24,1.78-1.46,3.75.63,5.75ZM196.54,325.34c-8.55-.89-18.92-1.89-27.31,2.07-11.56,5.46-24.35,20.14-19.61,33.82,8.37,24.14,33.88,34.5,57.31,35.46,13.52.56,23.64-1.97,36.05-7.49,2.06-1.82-2.11-16.92-3.15-19.69-6.67-17.73-14.89-29.17-31.24-38.34-1.38-.77-11.38-5.76-12.04-5.83ZM314.04,601.88c-1.04-.26-2.47.35-3.81.01-16.31-4.08-33.43-10.7-50.09-11.1-10.47-.25-15.56,1.21-25.19,3.94-2.77.78-6.49.05-8.98.65-1.72.42-8.93,3.43-9.99,4.47-.82,3.82-3.94,8.9-3.87,13.06.54,30.97,11.35,66.24,23.02,94.69,10.4,25.35,27.27,44.29,52.47,55.21,26.83,11.63,48.33,13.05,76.19,6.05,29.26-7.35,53.11-40.3,49.44-70.49-3.77-30.94-36.94-63.75-62.51-78.65-3.68-2.14-11.64-4.84-14.43-6.76-3.88-2.68-17.37-9.87-22.24-11.09Z"/>
    </g>
  </g>
</svg>