<svg width="30" height="49" viewBox="0 0 30 49" fill="none" xmlns="http://www.w3.org/2000/svg">
<path d="M13.6261 0.0794897C14.2234 -0.0807615 14.8989 0.0560844 15.4784 0.0254746C16.1309 -0.0447478 16.81 0.101103 17.4411 0.243348C17.8624 0.293764 18.2464 0.733097 18.641 0.842932C19.105 0.893348 19.6188 0.909557 20.2143 1.07161C22.4222 1.84586 24.4328 4.62774 25.9937 7.09093C26.9412 8.58901 27.5545 10.4958 28.0665 12.3792C29.1296 15.5536 29.7056 19.1692 29.9456 22.7775C30.1464 25.3001 29.75 28.2639 29.43 31.0044C29.1029 33.4514 28.6656 36.4925 27.8105 38.4606C27.2114 40.1585 26.3794 41.4495 25.4799 42.8125C24.7066 44.1432 23.8622 44.9858 22.8969 45.8501C22.1022 46.5613 21.0161 46.9233 20.1254 47.4706C18.7797 48.3583 17.3682 48.8031 15.9673 48.9165C14.9736 49.084 13.9069 48.9741 12.931 48.8103C11.9763 48.7274 11.315 48.4087 10.3213 47.7587C9.44663 47.2366 8.5151 46.5307 7.67957 45.6557C5.7703 43.6822 4.22368 41.806 3.09127 39.0962C1.73842 35.6697 0.870887 31.4851 0.271794 27.6121C-0.263301 24.3386 0.0744672 20.0479 0.57223 16.7402C0.973995 14.4661 1.37043 11.9741 2.18463 9.93405C2.68061 8.65024 3.2157 7.35742 3.87702 6.33109C4.46722 5.4182 4.85477 4.51611 5.59253 3.94173C7.03426 2.88659 8.49377 2.24919 9.97817 1.27507C11.1319 0.700691 12.4136 0.439604 13.5941 0.0902927L13.6278 0.0830944V0.0794897H13.6261Z" fill="#1D7BBF"/>
</svg>
