<svg width="41" height="34" viewBox="0 0 41 34" fill="none" xmlns="http://www.w3.org/2000/svg">
<path d="M37.5497 17.0974C40.7801 12.5238 41.4715 7.26356 38.0758 2.79137L34.0777 0.211151C31.424 -0.400947 28.6972 0.38633 26.394 1.65581L15.8794 7.46634C10.7871 10.2787 6.02722 13.1722 2.00705 17.3031C1.21799 18.1217 0.54849 20.1734 0.261434 21.1723C-0.559424 24.07 0.600759 26.5218 3.22167 27.7893C7.55073 29.8968 8.61518 32.2403 14.1624 33.011C15.4349 33.1861 17.3918 33.4551 18.7297 32.8354C22.4754 31.0994 26.1108 29.2407 29.2884 26.9058C32.8799 24.2629 34.9639 20.7358 37.5311 17.1033L37.5497 17.0974Z" fill="#1D7BBF"/>
</svg>
