<svg width="14" height="14" viewBox="0 0 14 14" fill="none" xmlns="http://www.w3.org/2000/svg">
<path d="M0.234164 4.82946C0.281434 4.56633 0.41452 4.30017 0.492333 4.0582C0.570146 3.78146 0.706134 3.5153 0.834853 3.26729C0.909758 3.09791 1.07629 2.98222 1.16138 2.82948C1.2421 2.64272 1.32137 2.43176 1.44936 2.20113C1.96787 1.36258 2.96344 0.802285 3.81284 0.39624C4.32917 0.14974 4.89932 0.0824429 5.44837 0.0544659C6.40395 -0.0763455 7.39952 0.0385874 8.34346 0.291137C9.00814 0.454462 9.69682 0.906635 10.3404 1.30663C10.9091 1.68092 11.6109 2.15804 11.9818 2.70397C12.3221 3.11757 12.525 3.58713 12.7366 4.09223C12.9584 4.54213 13.0471 4.97388 13.1235 5.45705C13.1868 5.85478 13.1177 6.34022 13.1257 6.76214C13.1519 7.40561 13.0573 8.03321 12.8806 8.62375C12.7774 9.05172 12.5934 9.48196 12.4094 9.86986C12.2487 10.2562 12.0712 10.4997 11.7621 10.8468C11.5025 11.1576 11.1884 11.4744 10.8451 11.7345C10.0684 12.3318 9.36884 12.7893 8.52017 12.9935C7.45842 13.2195 6.27741 13.1704 5.21348 13.0403C4.31099 12.942 3.27906 12.3848 2.51838 11.8562C2.00423 11.4683 1.43409 11.0615 1.03993 10.5254C0.789039 10.195 0.541782 9.84717 0.380338 9.47364C0.237074 9.14019 0.0661756 8.89218 0.0298143 8.53074C-0.0247276 7.83132 0.0283618 7.16516 0 6.45667C0.0247257 5.92359 0.146172 5.36707 0.231257 4.84534L0.234892 4.83097V4.82946H0.234164Z" fill="#1D7BBF"/>
</svg>
