<svg width="54" height="6" viewBox="0 0 54 6" fill="none" xmlns="http://www.w3.org/2000/svg">
<path d="M1.80424 1.88977H2.38524L3.03624 4.05977L3.61724 1.88977H4.19124L3.35124 4.75977H2.73524L2.09824 2.59677L1.45424 4.75977H0.838242L-0.00175781 1.88977H0.572242L1.15324 4.05977L1.80424 1.88977ZM4.72548 3.32477C4.72548 3.07743 4.76748 2.8581 4.85148 2.66677C4.93548 2.47077 5.04282 2.30977 5.17348 2.18377C5.30415 2.0531 5.45115 1.9551 5.61448 1.88977C5.77782 1.81977 5.94115 1.78477 6.10448 1.78477C6.30515 1.78477 6.50115 1.84077 6.69248 1.95277C6.88848 2.0601 7.04248 2.22343 7.15448 2.44277V1.88977H7.71448V4.75977H7.15448V4.20677C7.04248 4.4261 6.88848 4.59177 6.69248 4.70377C6.50115 4.8111 6.30515 4.86477 6.10448 4.86477C5.94115 4.86477 5.77782 4.82977 5.61448 4.75977C5.45115 4.69443 5.30415 4.59877 5.17348 4.47277C5.04282 4.3421 4.93548 4.1811 4.85148 3.98977C4.76748 3.79377 4.72548 3.5721 4.72548 3.32477ZM6.20248 2.30977C5.92715 2.30977 5.70782 2.40777 5.54448 2.60377C5.38115 2.79977 5.29948 3.0401 5.29948 3.32477C5.29948 3.60943 5.38115 3.84977 5.54448 4.04577C5.70782 4.24177 5.92715 4.33977 6.20248 4.33977C6.46848 4.33977 6.69482 4.2511 6.88148 4.07377C7.07282 3.89643 7.16848 3.64677 7.16848 3.32477C7.16848 3.00277 7.07515 2.7531 6.88848 2.57577C6.70182 2.39843 6.47315 2.30977 6.20248 2.30977ZM8.37128 2.37977V1.88977H9.16928V0.699765H9.72228V1.88977H10.7863V2.37977H9.72228V3.69577C9.72228 3.91977 9.76895 4.0831 9.86228 4.18577C9.95561 4.28843 10.1026 4.33977 10.3033 4.33977C10.3826 4.33977 10.4619 4.3351 10.5413 4.32577C10.6206 4.31177 10.7023 4.29543 10.7863 4.27677V4.81577C10.6929 4.83443 10.6019 4.8461 10.5133 4.85077C10.4246 4.8601 10.3406 4.86477 10.2613 4.86477C9.88795 4.86477 9.61261 4.7761 9.43528 4.59877C9.25795 4.41677 9.16928 4.14143 9.16928 3.77277V2.37977H8.37128ZM11.9577 3.32477C11.9577 3.65143 12.037 3.90577 12.1957 4.08777C12.359 4.26977 12.5667 4.36077 12.8187 4.36077C13.01 4.36077 13.171 4.30943 13.3017 4.20677C13.437 4.1041 13.542 3.95243 13.6167 3.75177H14.1977C14.1137 4.10177 13.955 4.37477 13.7217 4.57077C13.493 4.76677 13.2037 4.86477 12.8537 4.86477C12.4244 4.86477 12.072 4.72243 11.7967 4.43777C11.5214 4.14843 11.3837 3.77743 11.3837 3.32477C11.3837 2.87677 11.5214 2.5081 11.7967 2.21877C12.072 1.92943 12.4244 1.78477 12.8537 1.78477C13.2084 1.78477 13.5024 1.8851 13.7357 2.08577C13.9737 2.28643 14.13 2.56643 14.2047 2.92577H13.6237C13.5537 2.72043 13.451 2.5641 13.3157 2.45677C13.185 2.34477 13.0194 2.28877 12.8187 2.28877C12.5667 2.28877 12.359 2.37977 12.1957 2.56177C12.037 2.74377 11.9577 2.9981 11.9577 3.32477ZM14.9908 4.75977V-0.000234425H15.5508V2.52677C15.6535 2.27477 15.8005 2.0881 15.9918 1.96677C16.1878 1.84543 16.3978 1.78477 16.6218 1.78477C16.9345 1.78477 17.1865 1.89677 17.3778 2.12077C17.5692 2.3401 17.6648 2.65277 17.6648 3.05877V4.75977H17.1048V3.19877C17.1048 2.91877 17.0512 2.70177 16.9438 2.54777C16.8365 2.3891 16.6638 2.30977 16.4258 2.30977C16.1738 2.30977 15.9638 2.40077 15.7958 2.58277C15.6325 2.76477 15.5508 3.03777 15.5508 3.40177V4.75977H14.9908ZM22.9154 3.32477C22.9154 3.5721 22.8734 3.79377 22.7894 3.98977C22.71 4.1811 22.6074 4.3421 22.4814 4.47277C22.3554 4.59877 22.2107 4.69443 22.0474 4.75977C21.8887 4.82977 21.73 4.86477 21.5714 4.86477C21.366 4.86477 21.163 4.8111 20.9624 4.70377C20.7617 4.59177 20.603 4.42377 20.4864 4.19977V4.75977H19.9264V-0.000234425H20.4864V2.44977C20.603 2.22577 20.7617 2.0601 20.9624 1.95277C21.163 1.84077 21.366 1.78477 21.5714 1.78477C21.73 1.78477 21.8887 1.81977 22.0474 1.88977C22.2107 1.9551 22.3554 2.0531 22.4814 2.18377C22.6074 2.30977 22.71 2.47077 22.7894 2.66677C22.8734 2.8581 22.9154 3.07743 22.9154 3.32477ZM21.4384 2.30977C21.1724 2.30977 20.9437 2.39843 20.7524 2.57577C20.5657 2.7531 20.4724 3.00277 20.4724 3.32477C20.4724 3.64677 20.5657 3.89643 20.7524 4.07377C20.939 4.2511 21.1677 4.33977 21.4384 4.33977C21.7137 4.33977 21.933 4.24177 22.0964 4.04577C22.2597 3.84977 22.3414 3.60943 22.3414 3.32477C22.3414 3.0401 22.2597 2.79977 22.0964 2.60377C21.933 2.40777 21.7137 2.30977 21.4384 2.30977ZM23.7682 4.75977V1.88977H24.3212V2.49877C24.4238 2.26077 24.5638 2.08343 24.7412 1.96677C24.9232 1.84543 25.1285 1.78477 25.3572 1.78477C25.4038 1.78477 25.4458 1.78943 25.4832 1.79877C25.5205 1.80343 25.5532 1.8081 25.5812 1.81277V2.44977C25.5065 2.43577 25.4295 2.4241 25.3502 2.41477C25.2755 2.40543 25.2008 2.40077 25.1262 2.40077C24.8415 2.40077 24.6362 2.48943 24.5102 2.66677C24.3842 2.8441 24.3212 3.13343 24.3212 3.53477V4.75977H23.7682ZM25.9032 3.32477C25.9032 3.07743 25.9452 2.8581 26.0292 2.66677C26.1132 2.47077 26.2206 2.30977 26.3512 2.18377C26.4819 2.0531 26.6289 1.9551 26.7922 1.88977C26.9556 1.81977 27.1189 1.78477 27.2822 1.78477C27.4829 1.78477 27.6789 1.84077 27.8702 1.95277C28.0662 2.0601 28.2202 2.22343 28.3322 2.44277V1.88977H28.8922V4.75977H28.3322V4.20677C28.2202 4.4261 28.0662 4.59177 27.8702 4.70377C27.6789 4.8111 27.4829 4.86477 27.2822 4.86477C27.1189 4.86477 26.9556 4.82977 26.7922 4.75977C26.6289 4.69443 26.4819 4.59877 26.3512 4.47277C26.2206 4.3421 26.1132 4.1811 26.0292 3.98977C25.9452 3.79377 25.9032 3.5721 25.9032 3.32477ZM27.3802 2.30977C27.1049 2.30977 26.8856 2.40777 26.7222 2.60377C26.5589 2.79977 26.4772 3.0401 26.4772 3.32477C26.4772 3.60943 26.5589 3.84977 26.7222 4.04577C26.8856 4.24177 27.1049 4.33977 27.3802 4.33977C27.6462 4.33977 27.8726 4.2511 28.0592 4.07377C28.2506 3.89643 28.3462 3.64677 28.3462 3.32477C28.3462 3.00277 28.2529 2.7531 28.0662 2.57577C27.8796 2.39843 27.6509 2.30977 27.3802 2.30977ZM29.941 4.75977V1.88977H30.501V2.52677C30.6037 2.27477 30.7507 2.0881 30.942 1.96677C31.138 1.84543 31.348 1.78477 31.572 1.78477C31.8847 1.78477 32.1367 1.89677 32.328 2.12077C32.5193 2.3401 32.615 2.65277 32.615 3.05877V4.75977H32.055V3.19877C32.055 2.91877 32.0013 2.70177 31.894 2.54777C31.7867 2.3891 31.614 2.30977 31.376 2.30977C31.124 2.30977 30.914 2.40077 30.746 2.58277C30.5827 2.76477 30.501 3.03777 30.501 3.40177V4.75977H29.941ZM33.4228 3.32477C33.4228 3.07743 33.4624 2.8581 33.5418 2.66677C33.6258 2.47077 33.7308 2.30977 33.8568 2.18377C33.9828 2.0531 34.1251 1.9551 34.2838 1.88977C34.4471 1.81977 34.6081 1.78477 34.7668 1.78477C34.9721 1.78477 35.1751 1.84077 35.3758 1.95277C35.5764 2.0601 35.7351 2.22577 35.8518 2.44977V-0.000234425H36.4118V4.75977H35.8518V4.19977C35.7351 4.42377 35.5764 4.59177 35.3758 4.70377C35.1751 4.8111 34.9721 4.86477 34.7668 4.86477C34.6081 4.86477 34.4471 4.82977 34.2838 4.75977C34.1251 4.69443 33.9828 4.59877 33.8568 4.47277C33.7308 4.3421 33.6258 4.1811 33.5418 3.98977C33.4624 3.79377 33.4228 3.5721 33.4228 3.32477ZM34.8998 2.30977C34.6244 2.30977 34.4051 2.40777 34.2418 2.60377C34.0784 2.79977 33.9968 3.0401 33.9968 3.32477C33.9968 3.60943 34.0784 3.84977 34.2418 4.04577C34.4051 4.24177 34.6244 4.33977 34.8998 4.33977C35.1704 4.33977 35.3991 4.2511 35.5858 4.07377C35.7724 3.89643 35.8658 3.64677 35.8658 3.32477C35.8658 3.00277 35.7701 2.7531 35.5788 2.57577C35.3921 2.39843 35.1658 2.30977 34.8998 2.30977ZM40.8954 2.74377H40.3284C40.3237 2.5851 40.2654 2.46377 40.1534 2.37977C40.0414 2.2911 39.885 2.24677 39.6844 2.24677C39.5117 2.24677 39.374 2.2771 39.2714 2.33777C39.1687 2.39843 39.1174 2.48243 39.1174 2.58977C39.1174 2.69243 39.1594 2.7741 39.2434 2.83477C39.332 2.89543 39.4417 2.9421 39.5724 2.97477L40.2724 3.14277C40.4684 3.18943 40.6364 3.2711 40.7764 3.38777C40.921 3.49977 40.9934 3.67243 40.9934 3.90577C40.9934 4.17177 40.886 4.3981 40.6714 4.58477C40.4567 4.77143 40.1604 4.86477 39.7824 4.86477C39.4184 4.86477 39.1104 4.7691 38.8584 4.57777C38.6064 4.38643 38.478 4.13677 38.4734 3.82877H39.0404C39.059 4.02477 39.1384 4.16943 39.2784 4.26277C39.4184 4.3561 39.5934 4.40277 39.8034 4.40277C40.004 4.40277 40.1557 4.3631 40.2584 4.28377C40.361 4.20443 40.4124 4.10877 40.4124 3.99677C40.4124 3.8941 40.3704 3.81477 40.2864 3.75877C40.2024 3.6981 40.095 3.65143 39.9644 3.61877L39.3624 3.47177C39.1617 3.4251 38.9797 3.33877 38.8164 3.21277C38.653 3.0821 38.5714 2.89077 38.5714 2.63877C38.5714 2.3821 38.6694 2.17677 38.8654 2.02277C39.066 1.8641 39.3414 1.78477 39.6914 1.78477C40.0507 1.78477 40.3377 1.86877 40.5524 2.03677C40.767 2.2001 40.8814 2.43577 40.8954 2.74377ZM41.3957 2.37977V1.88977H42.1937V0.699765H42.7467V1.88977H43.8107V2.37977H42.7467V3.69577C42.7467 3.91977 42.7934 4.0831 42.8867 4.18577C42.98 4.28843 43.127 4.33977 43.3277 4.33977C43.407 4.33977 43.4864 4.3351 43.5657 4.32577C43.645 4.31177 43.7267 4.29543 43.8107 4.27677V4.81577C43.7174 4.83443 43.6264 4.8461 43.5377 4.85077C43.449 4.8601 43.365 4.86477 43.2857 4.86477C42.9124 4.86477 42.637 4.7761 42.4597 4.59877C42.2824 4.41677 42.1937 4.14143 42.1937 3.77277V2.37977H41.3957ZM45.9481 4.86477C45.7334 4.86477 45.5304 4.82743 45.3391 4.75277C45.1524 4.6781 44.9891 4.5731 44.8491 4.43777C44.7091 4.30243 44.5971 4.14143 44.5131 3.95477C44.4338 3.76343 44.3941 3.55343 44.3941 3.32477C44.3941 3.0961 44.4338 2.88843 44.5131 2.70177C44.5971 2.51043 44.7091 2.3471 44.8491 2.21177C44.9938 2.07643 45.1594 1.97143 45.3461 1.89677C45.5374 1.8221 45.7381 1.78477 45.9481 1.78477C46.1581 1.78477 46.3564 1.8221 46.5431 1.89677C46.7344 1.97143 46.9001 2.07643 47.0401 2.21177C47.1848 2.3471 47.2968 2.51043 47.3761 2.70177C47.4601 2.88843 47.5021 3.0961 47.5021 3.32477C47.5021 3.55343 47.4601 3.76343 47.3761 3.95477C47.2968 4.14143 47.1871 4.30243 47.0471 4.43777C46.9071 4.5731 46.7414 4.6781 46.5501 4.75277C46.3634 4.82743 46.1628 4.86477 45.9481 4.86477ZM45.9481 4.36077C46.2328 4.36077 46.4661 4.26977 46.6481 4.08777C46.8348 3.90577 46.9281 3.65143 46.9281 3.32477C46.9281 2.9981 46.8348 2.74377 46.6481 2.56177C46.4614 2.37977 46.2281 2.28877 45.9481 2.28877C45.6681 2.28877 45.4348 2.37977 45.2481 2.56177C45.0614 2.74377 44.9681 2.9981 44.9681 3.32477C44.9681 3.65143 45.0591 3.90577 45.2411 4.08777C45.4278 4.26977 45.6634 4.36077 45.9481 4.36077ZM48.3434 4.75977V1.88977H48.8964V2.49877C48.999 2.26077 49.139 2.08343 49.3164 1.96677C49.4984 1.84543 49.7037 1.78477 49.9324 1.78477C49.979 1.78477 50.021 1.78943 50.0584 1.79877C50.0957 1.80343 50.1284 1.8081 50.1564 1.81277V2.44977C50.0817 2.43577 50.0047 2.4241 49.9254 2.41477C49.8507 2.40543 49.776 2.40077 49.7014 2.40077C49.4167 2.40077 49.2114 2.48943 49.0854 2.66677C48.9594 2.8441 48.8964 3.13343 48.8964 3.53477V4.75977H48.3434ZM52.4174 1.88977H53.0124L51.3324 5.98477H50.7654L51.3044 4.68977L50.2894 1.88977H50.8844L51.6194 4.05977L52.4174 1.88977Z" fill="#0E29B9"/>
</svg>
